<svg width="170" height="173" xmlns="http://www.w3.org/2000/svg"><g fill="#FF8C00" fill-rule="evenodd"><path d="M85.251 4.548c21.103 0 40.306 8.43 54.22 21.984 13.912 13.583 22.535 32.289 22.535 52.87 0 12.038-.11 27.218-.22 42.427h-1.13c.11-14.932.22-29.838.22-42.428 0-20.25-8.513-38.68-22.205-52.042-13.72-13.362-32.62-21.655-53.42-21.655-20.8 0-39.7 8.293-53.42 21.655C18.139 40.721 9.626 59.151 9.626 79.401v74.882h150.81c.027-8.843.11-18.57.193-28.35.357-.66.743-1.321 1.156-1.983-.082 10.661-.165 21.296-.22 30.911 0 .303-.247.579-.55.579H9.047c-.304 0-.552-.276-.552-.579v-75.46c0-20.58 8.623-39.286 22.536-52.869C44.945 12.978 64.148 4.548 85.252 4.548"/><path d="M90.375 73.946c6.998-1.074 14.216-1.57 21.958-1.515v1.13c-7.77-.055-14.96.467-21.958 1.542v-1.157zM46.763 87.804c3.774-1.708 7.522-3.416 11.24-4.849 7.054-2.728 13.804-4.931 20.554-6.611l-1.13 1.46c-6.254 1.624-12.48 3.69-19.01 6.225-3.83 1.488-7.713 3.224-11.654 5.043v-1.268zm-3.278 17.301c-7.631 5.097-14.05 10.525-18.652 15.676l-.991 1.102c-.055-8.21-.083-16.42-.138-24.629l.413-.11c6.337-1.873 12.866-4.821 19.368-7.824v1.267c-6.227 2.865-12.508 5.675-18.625 7.52l.111 20.829c4.711-5.015 11.075-10.276 18.514-15.208v1.377zm25.098-13.527c-.936.386-1.873.8-2.81 1.212a155.075 155.075 0 0 0-19.01 10.166v-1.35a155.118 155.118 0 0 1 18.542-9.863c1.075-.468 2.177-.936 3.278-1.404v1.24zm43.75-9.973c-7.218.055-14.602 1.047-21.958 2.755v-1.157c7.356-1.708 14.74-2.7 21.958-2.727v1.13z"/><path d="M105.39 104.335l-.083-31.188h1.13l.11 30.498h-.028l-.027.028-.11.055-.028.027-.027.028h-.027l-.303.193h-.029l-.027.027-.082.056h-.028l-.028.027-.027.028-.33.192-.028.029h-.028zm-6.116.302l-.11-31.241h1.157l.083 31.24h-1.13zm18.9-30.993a171.586 171.586 0 0 0-5.4-.083l.027 6.915c1.764.027 3.554.11 5.345.22l.028-7.052zm6.116.33c-1.626-.138-3.307-.22-4.987-.303l-.027 7.136c1.68.137 3.333.33 5.014.55v-7.383zm6.308.634a105.77 105.77 0 0 0-5.152-.551l-.027 7.466c1.709.248 3.416.55 5.152.881l.027-7.796zm-6.39 29.45l.082-21.544a80.14 80.14 0 0 0-5.014-.578l-.056 22.123h4.987zm-.828 1.13h-4.517v-6.53h-.056v.029h-.055l-.275.082h-.111v.028l-.275.055.055-16.999a69.783 69.783 0 0 0-5.345-.22l.055 18.927-.165.082h-.055l-.028.028-.192.083h-.055l-.028.027h-.028l-.027.027-.248.083-.028.028h-.054v.027h-.056l-.027.028h-.028l-.027.028h-.056l-.027.027-.083-27.99h.661l-.027-.607c6.612-.055 12.81.303 18.816 1.075v28.211c-.192.055-.385.11-.578.193l.055-18.35a118.53 118.53 0 0 0-5.152-.88l-.055 21.379h.11c-.689.358-1.405.744-2.094 1.129zm-30.388-.551l-.11-30.442h1.158l.083 30.442h-1.13zm-18.54-23.032l-.028-3.636h1.13l.027 2.204-1.13 1.432zm-6.365 23.032l-.11-24.933h1.157l.028 8.651-.58.744v15.538h-.495zm-6.199 0l-.11-22.536h1.157l.083 22.536h-1.13zm-6.143 0l-.165-20.36h1.129l.165 20.36h-1.13zm-6.254 0l-.166-17.577h1.13l.193 17.577h-1.157zm111.964-22.398c-1.625-.58-3.223-1.13-4.821-1.653l-.055 9.973c.937.386 1.818.799 2.727 1.184l2.149.993v1.239c-.882-.385-1.736-.799-2.618-1.185-.743-.33-1.487-.66-2.258-.991l-.056 12.26h4.932v1.129h-9.698v-1.13h3.637l.055-12.728c-1.24-.523-2.452-1.02-3.692-1.488v-1.239c1.24.496 2.48.992 3.692 1.487l.027-9.863a95.094 95.094 0 0 0-3.719-1.156v-1.185c3.197.937 6.42 1.984 9.698 3.141v1.212zm-124.279 26.2l-.523-15.593 1.129-.028.551 15.594-1.157.027zm-6.033 4.877l-.607-17.908 1.157-.055.606 17.935-1.156.028z"/><path d="M90.375 105.188h14.547v-1.13H90.375v1.13zm-43.612 0h21.82v-1.13h-21.82v1.13zm-25.098 0h21.82v-1.13h-21.82v1.13z"/><path d="M11.527 118.991h6.143v-1.13h-6.143v1.13zm.716-30.581h6.337v-.496h-6.337v.496zm-.634 16.999h6.53v-2.15h-6.53v2.15zm1.433-3.279h3.664v-9.45h-3.664v9.45zm4.822-9.091h2.286l-.166-3.472h-9.146l-.165 3.472h1.212v-1.516h5.979v1.516zm-8.816 0h.495l.22-4.63h1.323v-1.651h8.65v1.652h1.323l.22 4.629h1.075l1.405 34.52h1.873v3.417H9.048v-1.13h15.428v-1.157H9.048v-1.13h13.581l-1.377-33.39h-3.388v7.961h1.404v4.408H10.48v-4.408h1.405v-7.962H9.57l-.522 12.48V93.04zm1.652 42.234c1.46 0 1.9-.385 2.315-.771.578-.524 1.13-1.02 2.837-1.02v1.13c-1.268 0-1.68.358-2.066.744-.579.523-1.185 1.074-3.086 1.074-.717 0-1.24-.11-1.652-.248v-1.294c.33.22.798.385 1.652.385zm5.152 3.334c1.9 0 2.507.523 3.086 1.074.413.359.799.716 2.093.716v1.13c-1.735 0-2.286-.496-2.865-1.019-.413-.386-.853-.772-2.314-.772v-1.129zm0 4.959c1.9 0 2.507.524 3.086 1.046.413.386.799.744 2.093.744v1.13c-1.735 0-2.286-.496-2.865-1.02-.413-.385-.853-.77-2.314-.77v-1.13zm-5.152-3.169c1.46 0 1.9-.386 2.315-.771.578-.523 1.13-1.019 2.837-1.019v1.13c-1.268 0-1.68.357-2.066.716-.579.55-1.185 1.074-3.086 1.074-.717 0-1.24-.083-1.652-.22v-1.296c.33.221.798.386 1.652.386zm0 4.959c1.46 0 1.9-.385 2.315-.77.578-.525 1.13-1.02 2.837-1.02v1.13c-1.268 0-1.68.358-2.066.715-.579.551-1.185 1.075-3.086 1.075-.717 0-1.24-.082-1.652-.22v-1.295c.33.22.798.385 1.652.385zm5.152-11.874c1.9 0 2.507.524 3.086 1.075.413.358.799.716 2.093.716v1.157c-1.735 0-2.286-.523-2.865-1.047-.413-.386-.853-.772-2.314-.772v-1.129zm30.911-15.786h.248c1.901 0 2.48.523 3.086 1.074.386.359.772.717 2.066.717 1.46 0 1.901-.386 2.315-.772.55-.523 1.129-1.019 2.837-1.019v1.13c-1.267 0-1.68.357-2.066.716-.58.551-1.185 1.074-3.086 1.074-1.735 0-2.287-.496-2.838-1.019-.44-.385-.854-.771-2.314-.771h-.248v-1.13zm-20.386 0c1.9 0 2.479.523 3.057 1.074.413.359.8.717 2.094.717 1.46 0 1.9-.386 2.314-.772.551-.523 1.13-1.019 2.838-1.019 1.9 0 2.507.523 3.086 1.074.413.359.799.717 2.066.717.826 0 1.323-.11 1.653-.304v1.24c-.413.139-.937.193-1.653.193-1.709 0-2.259-.496-2.838-1.019-.413-.385-.854-.771-2.314-.771-1.267 0-1.68.357-2.066.716-.579.551-1.185 1.074-3.086 1.074-1.735 0-2.286-.496-2.837-1.019-.441-.385-.855-.771-2.314-.771v-1.13zm20.386 10.249c.083-.028.166-.028.248-.028 1.901 0 2.48.551 3.086 1.075.386.386.772.743 2.066.743 1.46 0 1.901-.413 2.315-.771.55-.523 1.129-1.047 2.837-1.047v1.158c-1.267 0-1.68.357-2.066.716-.58.55-1.185 1.074-3.086 1.074-1.735 0-2.287-.496-2.838-1.02-.44-.385-.854-.77-2.314-.77h-.248v-1.13zm-4.931 1.79c.826 0 1.323-.138 1.653-.303v1.24c-.413.11-.937.193-1.653.193-1.709 0-2.259-.496-2.838-1.02-.413-.385-.854-.77-2.314-.77-1.267 0-1.68.357-2.066.716-.606.55-1.185 1.074-3.086 1.074-1.735 0-2.286-.496-2.837-1.02-.441-.385-.855-.77-2.314-.77v-1.158c1.9 0 2.479.551 3.057 1.075.413.386.8.743 2.094.743 1.46 0 1.9-.413 2.314-.771.551-.523 1.13-1.047 2.838-1.047 1.9 0 2.507.551 3.086 1.075.413.386.799.743 2.066.743zm4.931-6.915h.248c1.901 0 2.48.524 3.086 1.075.386.358.772.717 2.066.717 1.46 0 1.901-.386 2.315-.772.55-.524 1.129-1.02 2.837-1.02v1.13c-1.267 0-1.68.358-2.066.716-.58.551-1.185 1.075-3.086 1.075-1.735 0-2.287-.496-2.838-1.02-.44-.386-.854-.771-2.314-.771h-.248v-1.13zm-20.386 0c1.9 0 2.479.524 3.057 1.075.413.358.8.717 2.094.717 1.46 0 1.9-.386 2.314-.772.551-.524 1.13-1.02 2.838-1.02 1.9 0 2.507.524 3.086 1.075.413.358.799.717 2.066.717.826 0 1.323-.138 1.653-.304v1.24c-.413.137-.937.193-1.653.193-1.709 0-2.259-.496-2.838-1.02-.413-.386-.854-.771-2.314-.771-1.267 0-1.68.358-2.066.716-.606.551-1.185 1.075-3.086 1.075-1.735 0-2.286-.496-2.837-1.02-.441-.386-.855-.771-2.314-.771v-1.13zM89.824 62.9l-20.69 26.39v30.36a14.932 14.932 0 0 0-1.13-.054v-30.69l.11-.166 22.84-29.148v59.701c-.386-.055-.744.33-1.13.275V62.9"/><path d="M89.824 61.962h1.13V48.518h-1.13zm40.692 57.469v-6.694a74.24 74.24 0 0 1 1.157-3.72v9.56c-.385.276-.771.552-1.157.854zm17.797-82.126v85.846c-.385.082-.771.165-1.129.248V38.434h-.028l.028-.578c.083-4.463-1.157-8.79-3.499-12.426a20.936 20.936 0 0 0-9.67-8.044c-.523-.193-1.02-.386-1.515-.523a4.602 4.602 0 0 0-.827-.248v84.909c-.385.11-.771.248-1.157.386V15.154l.716.165c.524.111 1.075.276 1.626.441.551.193 1.074.386 1.598.579 4.325 1.763 7.797 4.766 10.193 8.486a23.445 23.445 0 0 1 3.664 12.48z"/><path d="M148.01 43.338c1.323.661 2.397 1.516 3.141 2.48.689.909 1.103 1.928 1.157 3.03v73.615l-.11.027h-.082l-.111.027h-.11v.028h-.192v.027h-.166l-.028.028h-.165v.028h-.165v-72.65h-.056l.056-.772v-.137c0-.91-.33-1.764-.937-2.563-.469-.606-1.13-1.184-1.929-1.68v78.325h-.027l-.028.028h-.11v.027h-.138l-.027.027h-.083l-.028.029h-.11l-.027.027h-.11v.027h-.11l-.028.028h-.11v.027h-.11l-.027.028h-.056V42.924l.826.414m-17.494-24.133h1.157V.553h-1.157zM49.573 38.847l-.605-8.347a15.04 15.04 0 0 0-.91-.139 24.9 24.9 0 0 0-2.727-.137c-1.13 0-2.149.083-2.865.166-.469.054-.744-.33-.744-.166 0 .055 0 .083-.028.11l-.606 8.54a25.337 25.337 0 0 1 1.653-.192c.854-.083 1.764-.11 2.728-.11.881 0 1.736.027 2.535.083.55.054 1.074.11 1.57.192zm.524-8.623l.716 9.973-.716-.11c-.634-.138-1.377-.22-2.176-.276a22.96 22.96 0 0 0-2.452-.11c-.91 0-1.791.055-2.617.11-.855.083-1.626.194-2.287.33l-.744.139c.248-3.14.302-7.053.744-10.056.027-.468.689-.827 1.735-.964.8-.11 1.873-.165 3.03-.165a27.9 27.9 0 0 1 2.866.137c.882.11 1.515.303 1.736.58.138.165.138.302.165.412zm-6.034 21.104v85.075c-.358-.22-.743-.442-1.129-.634V51.245l1.13.083zm3.279-.028v87.444a18.21 18.21 0 0 0-1.13-.936v-86.48c.386 0 .772 0 1.13-.028z"/><path d="M41.97 51.052l2.093 20.856-1.129.11-2.094-20.856 1.13-.11m7.493.193l-2.121 20.8-1.13-.137 2.122-20.773 1.13.11M44.753 11.05c0-.304.247-.551.578-.551.303 0 .578.247.578.55v18.514a.582.582 0 0 1-.578.579.565.565 0 0 1-.578-.58V11.05M.644 154.283h169.214v1.13L.644 155.44v-1.157M108.696 27.496c.221-.027.469-.027.689-.027 1.13 0 2.177.359 3.058.992a5.984 5.984 0 0 1 1.928 2.204l.056-.027c.192 0 .386-.028.55-.028 1.268 0 2.398.579 3.224 1.487.799.91 1.295 2.15 1.295 3.527 0 1.295-.44 2.424-1.102 3.223-.771.937-1.818 1.46-2.865 1.46h-5.648l-.22.028h-.551l-.248-.028h-22.62c-1.239 0-2.368-.551-3.195-1.487a5.309 5.309 0 0 1-1.295-3.499c0-1.378.496-2.617 1.295-3.527.772-.853 1.818-1.433 3.003-1.487a5.11 5.11 0 0 1 1.267-2.342 4.368 4.368 0 0 1 2.26-1.295c.413-1.653 1.266-3.113 2.451-4.188 1.24-1.13 2.838-1.817 4.546-1.817 1.267 0 2.48.357 3.499.991a7.848 7.848 0 0 1 2.314 2.259c.193-.11.414-.193.634-.248a3.599 3.599 0 0 1 1.212-.192c1.212 0 2.315.522 3.114 1.377.66.689 1.129 1.626 1.321 2.672l.028-.028zm.689 1.102c-.193 0-.385.029-.55.029-.167.027-.332.082-.524.11a.551.551 0 0 1-.69-.386c-.027-.056-.027-.11-.027-.138-.055-1.019-.468-1.929-1.075-2.562-.605-.634-1.404-1.02-2.286-1.02-.303 0-.606.028-.881.138-.303.083-.58.22-.827.386-.275.192-.606.11-.8-.138l-.026-.027a6.297 6.297 0 0 0-2.232-2.343 5.533 5.533 0 0 0-2.893-.826c-1.433 0-2.755.551-3.801 1.516-1.075.964-1.847 2.37-2.15 3.94-.055.275-.275.468-.523.468a3.197 3.197 0 0 0-1.956.991 4.15 4.15 0 0 0-1.074 2.232.556.556 0 0 1-.607.496h-.22c-.91 0-1.735.413-2.342 1.102-.634.689-1.02 1.68-1.02 2.755 0 1.074.386 2.038 1.02 2.755.607.689 1.433 1.102 2.341 1.102H109c.138.028.249.028.386.028h.22l.276-.028h5.648c.688 0 1.433-.386 1.984-1.047.495-.634.826-1.488.826-2.507 0-1.075-.386-2.066-.992-2.755-.606-.69-1.432-1.102-2.37-1.102-.137 0-.275 0-.385.027a1.64 1.64 0 0 0-.386.055.582.582 0 0 1-.689-.303 5.057 5.057 0 0 0-1.735-2.176c-.689-.468-1.515-.772-2.397-.772zm-8.623 79.787a45.557 45.557 0 0 0-12.067 15.537c2.755.221 5.372.827 7.824 1.763a26.714 26.714 0 0 1 6.916 3.912c.11-.303.192-.578.302-.881a45.084 45.084 0 0 1 5.896-11.599 43.932 43.932 0 0 1 8.65-9.118v-8.624c-6.39 1.653-12.37 4.739-17.521 9.01zm-13.445 15.812a46.733 46.733 0 0 1 12.729-16.667c5.455-4.545 11.873-7.796 18.679-9.422l.716-.166v10.608l-.22.165a42.282 42.282 0 0 0-8.652 9.064c-2.396 3.36-4.352 7.163-5.757 11.296-.138.44-.276.853-.413 1.294l.165.138-.303.33-.056.11-.468-.385-10.194 11.323-.44-.386 9.808-10.882a25.854 25.854 0 0 0-6.806-3.857c-2.589-.992-5.371-1.626-8.292-1.764l-.854-.027.358-.772zm58.903-10.798h.468l1.24.054-.221.716c-.964 3.059-1.873 6.09-2.645 9.147a68.348 68.348 0 0 1 7.44-1.46 70.37 70.37 0 0 1 9.118-.606l.744.028 1.79.027-.578.854c-2.507 3.747-4.49 7.659-5.868 11.736a45.715 45.715 0 0 0-1.79 7.384l-1.075-.413c.386-2.48.992-4.932 1.791-7.328 1.295-3.858 3.14-7.577 5.427-11.13h-.441a67.27 67.27 0 0 0-8.953.578c-2.756.385-5.4.91-7.908 1.597l-.11.442c2.37 3.085 4.271 5.895 5.675 8.43 1.488 2.727 2.425 5.097 2.783 7.053v.054l-1.157-.054c-.358-1.818-1.24-3.995-2.617-6.502-1.267-2.26-2.92-4.766-5.014-7.522-.11.496-.193.993-.303 1.516-.937 4.545-1.488 9.229-1.516 14.16v1.102l-1.129.414c-.028-.44-.028-.854-.028-1.212v-.304c.028-3.057.193-6.06.524-9.008.33-2.838.799-5.62 1.405-8.348.027-.027.027-.027.027-.055.056-.22.11-.44.138-.661l.083-.33.303-.083c.744-3.059 1.625-6.09 2.562-9.12h-.165c-3.28 0-6.42.634-9.285 1.791a25.992 25.992 0 0 0-7.934 5.124 101.204 101.204 0 0 0-1.378 9.615 106.853 106.853 0 0 0-.468 9.946c0 .91 0 1.763.027 2.562.028.662.028 1.35.056 2.039h1.294l-1.267.524-1.13-.028a37.27 37.27 0 0 1-.082-2.507c-.027-.91-.056-1.791-.056-2.59 0-3.39.166-6.75.497-10.055.33-3.362.799-6.668 1.433-9.892l.027-.192.138-.11a26.515 26.515 0 0 1 8.402-5.482 25.907 25.907 0 0 1 9.726-1.901m-70.694 8.016c-2.535-.826-5.235-1.24-8.044-1.24-1.488 0-2.92.11-4.326.331a25.61 25.61 0 0 0-3.802.937c.33 4.27.964 8.402 1.9 12.398a80.588 80.588 0 0 0 3.665 11.791h22.013l-9.863-20.222.606-.193c.882-.303 1.79-.551 2.7-.743.413-.083.853-.166 1.267-.248a26.825 26.825 0 0 0-6.116-2.811zm-8.044-2.397c2.92 0 5.73.469 8.402 1.296a29.273 29.273 0 0 1 7.66 3.8l1.239.855-1.516.165c-.881.111-1.763.276-2.644.442-.662.165-1.323.33-1.957.523l10.111 20.662H64.148l-.166-.357a82.969 82.969 0 0 1-3.857-12.288 87.486 87.486 0 0 1-1.956-13.032l-.027-.44.413-.165a29.386 29.386 0 0 1 4.408-1.075 27.53 27.53 0 0 1 4.519-.386z"/><path d="M102.883 131.527a36.24 36.24 0 0 1 .854-2.811c2.507-7.384 6.695-13.665 11.957-18.514 5.455-5.041 12.04-8.54 19.037-10.11l1.102-.249-.44 1.047a97.944 97.944 0 0 0-6.172 19.478 103.671 103.671 0 0 0-2.066 20.663c0 .91 0 1.763.027 2.562l.083 2.563.028.605h-5.07l-.165-.138-.468-.44h.854l-7.245-6.034.578-.11.192.138a79.475 79.475 0 0 1 3.362 2.59c1.074.881 2.176 1.845 3.333 2.865h3.444a46.636 46.636 0 0 1-.055-2.01c-.027-.91-.056-1.792-.056-2.591 0-7.19.745-14.188 2.122-20.883a96.849 96.849 0 0 1 5.786-18.679c-6.42 1.653-12.425 4.932-17.44 9.56-5.124 4.738-9.201 10.854-11.653 18.046-.22.633-.413 1.267-.607 1.872l-.468-.385-.854.965"/><path d="M95.473 126.512a27.234 27.234 0 0 0-9.064-1.543c-1.461 0-2.866.11-4.244.33-1.184.194-2.37.442-3.499.8l9.56 19.533h1.158l13.527-15.015a26.114 26.114 0 0 0-7.438-4.105zm-9.064-2.7c3.332 0 6.5.579 9.449 1.626a27.577 27.577 0 0 1 8.237 4.683l.469.386c-4.904 5.427-9.78 10.827-14.685 16.254h-2.37l-10.44-21.35.606-.194c1.404-.468 2.837-.799 4.325-1.047 1.433-.22 2.92-.357 4.409-.357zm-28.129-2.424c-.166-.275-.138-.634.138-.826a.604.604 0 0 1 .799.137c2.975 3.995 5.784 8.1 8.457 12.315a194.036 194.036 0 0 1 7.44 12.921c.164.275.054.606-.222.77a.584.584 0 0 1-.771-.247 204.189 204.189 0 0 0-7.411-12.838c-2.645-4.16-5.427-8.265-8.43-12.232"/><path d="M82.634 136.21a.55.55 0 0 1 .771-.193.55.55 0 0 1 .193.772 118.046 118.046 0 0 1-2.948 4.738 226.172 226.172 0 0 1-3.36 4.987.554.554 0 0 1-.8.138c-.248-.166-.33-.524-.138-.772a223.355 223.355 0 0 0 3.334-4.959 175.186 175.186 0 0 0 2.948-4.712m21.461-6.088l19.919 16.64h-35.65l15.318-16.998.413.358zm16.779 15.511l-17.082-14.27-12.866 14.27h29.948zm-75.24-7.549c-3.885-2.838-9.257-4.6-15.18-4.6a27.62 27.62 0 0 0-3.747.247c-.716.083-1.405.193-2.094.359.633.33 1.267.688 1.9 1.074 1.047.633 2.095 1.378 3.142 2.177a35.606 35.606 0 0 1 5.675 5.454c1.626 1.928 2.976 3.967 4.023 6.062h12.48c-.055-4.188-2.425-7.99-6.199-10.773zm-15.18-5.73c6.17 0 11.791 1.845 15.841 4.821 4.133 3.003 6.667 7.19 6.667 11.847l-.027.964H38.636l-.138-.33a31.972 31.972 0 0 0-4.022-6.117 35.9 35.9 0 0 0-5.51-5.29 31.873 31.873 0 0 0-3.058-2.121 36.367 36.367 0 0 0-3.196-1.735l-1.405-.662 1.515-.386a26.541 26.541 0 0 1 3.747-.743 30.02 30.02 0 0 1 3.885-.248z"/><path d="M52.88 135.328a25.615 25.615 0 0 0-5.648 2.563c1.708 1.432 3.113 3.057 4.077 4.82 1.047 1.901 1.626 3.968 1.653 6.145h.744c.276-2.838.881-5.566 1.791-8.073a32.057 32.057 0 0 1 3.251-6.612c-2.039.165-4.023.551-5.868 1.157zm-6.943 2.066c1.984-1.35 4.216-2.397 6.584-3.167a28.93 28.93 0 0 1 7.356-1.268l1.157-.028-.688.937c-1.543 2.176-2.81 4.628-3.775 7.301a32.418 32.418 0 0 0-1.763 8.292l-.055.524h-2.948c0-.33.028-.662.028-.964 0-2.039-.551-3.967-1.515-5.759-1.02-1.845-2.535-3.526-4.409-4.958l-.634-.469.662-.44zm-22.206-2.562a.572.572 0 0 1 .11-.799c.276-.192.635-.138.8.138l6.336 8.706a.603.603 0 0 1-.137.799.553.553 0 0 1-.8-.138l-6.309-8.706"/><path d="M36.102 143.758a.571.571 0 0 1 .11.8.518.518 0 0 1-.771.137c-.497-.33-1.24-.578-2.067-.743-.91-.194-1.9-.248-2.7-.166l-6.64 4.105c-.247.165-.606.082-.771-.193a.549.549 0 0 1 .193-.771l6.75-4.187.248-.083c.909-.084 2.066-.028 3.14.165.964.193 1.874.496 2.508.936"/><path d="M24.53 147.257l1.24 1.818-.964.634-1.212-1.818.936-.634m21.104-9.174c-3.885-2.838-9.257-4.6-15.18-4.6a27.62 27.62 0 0 0-3.747.247c-.716.083-1.405.193-2.094.359.633.33 1.267.688 1.9 1.074 1.047.633 2.095 1.378 3.142 2.177a35.606 35.606 0 0 1 5.675 5.454c1.626 1.928 2.976 3.967 4.023 6.062h12.48c-.055-4.188-2.425-7.99-6.199-10.773zm-15.18-5.73c6.17 0 11.791 1.845 15.841 4.821 4.133 3.003 6.667 7.19 6.667 11.847l-.027.964H38.636l-.138-.33a31.972 31.972 0 0 0-4.022-6.117 35.9 35.9 0 0 0-5.51-5.29 31.873 31.873 0 0 0-3.058-2.121 36.367 36.367 0 0 0-3.196-1.735l-1.405-.662 1.515-.386a26.541 26.541 0 0 1 3.747-.743 30.02 30.02 0 0 1 3.885-.248z"/><path d="M45.275 137.394c.056-.302.386-.496.69-.413.303.055.495.386.413.69l-3.004 11.873a.567.567 0 0 1-.688.413c-.303-.054-.496-.385-.414-.688l3.003-11.875m10.194 4.574c-.248-.194-.275-.551-.055-.799.193-.248.551-.248.8-.055l6.116 5.427c.22.22.247.579.054.799-.22.248-.578.276-.799.055l-6.116-5.427m5.455 9.477l-10.193 2.838h90.612l5.759-3.251 3.967-.11 12.177-6.392.027-2.066-5.978.082-3.416-1.377h-4.106l-8.622 3.086-7.411-.165-6.944 2.671H74.562l-9.34 4.684h-4.298zm-14.52 2.865l14.355-4.022 4.215.028 9.34-4.684h52.29l6.942-2.7 7.411.192 8.624-3.084h4.518l3.417 1.377 6.886-.11-.027 4.187h-.524l-12.48 6.585-3.966.082-5.759 3.251H42.383l4.022-1.102z"/><path d="M147.377 152.161l-3.747 2.122h21.792v-8.789h-1.598l-12.48 6.585-3.967.082zm-6.2 2.205l5.896-3.334 3.968-.11 12.508-6.585h3.002v11.075h-27.274l1.9-1.046zM3.675 155.385c-.275.11-.607-.028-.744-.303a.57.57 0 0 1 .33-.745L8 152.382h2.48l8.623-3.582 36.146.056c.302 0 .551.248.551.55 0 .331-.249.58-.55.58l-35.926-.056-8.596 3.581h-2.48l-4.573 1.874"/><path d="M55.414 149.957c-.276.11-.606-.054-.716-.358-.11-.303.055-.606.358-.716l9.284-3.224a.584.584 0 0 1 .744.359c.083.303-.054.605-.358.716l-9.312 3.223M52.632 41.023v.029-.029zm-14.326.029v-.029.029zm.578 5.4c.11 1.211.248 2.396.358 3.581.193.137.854.303 1.846.44 1.157.194 2.7.303 4.38.303 1.847 0 3.527-.138 4.712-.33l1.515-.276c0-1.322.66-7.906.937-9.118 0-.248-.69-.552-1.819-.828-1.35-.33-3.25-.55-5.344-.55-2.095 0-3.967.22-5.317.55-1.13.276-1.846.58-1.846.828.302 1.432.413 3.856.578 5.4zm-.772 3.664c-.303-2.948-.55-6.007-.936-8.955v-.11c0-.827 1.02-1.515 2.7-1.928 1.432-.358 3.416-.579 5.593-.579 2.176 0 4.16.22 5.62.58 1.653.412 2.7 1.1 2.7 1.928v.11l-.028.082-.909 8.954c-.028.634-.965 1.102-2.48 1.377-1.267.194-3.002.33-4.903.33-1.736 0-3.334-.109-4.547-.274-1.349-.22-2.314-.551-2.644-.964a.762.762 0 0 1-.166-.497v-.054zM13.29 171.805c2.673 0 3.499-.855 4.27-1.68.936-.993 1.846-1.957 4.711-1.957 3.196 0 4.16 1.047 5.124 2.066.772.799 1.515 1.57 3.885 1.57 2.673 0 3.499-.854 4.298-1.68.91-.992 1.818-1.956 4.683-1.956 3.196 0 4.161 1.047 5.125 2.066.771.799 1.515 1.57 3.885 1.57 2.672 0 3.498-.854 4.298-1.68.909-.992 1.845-1.956 4.682-1.956 3.197 0 4.161 1.047 5.125 2.066.772.799 1.516 1.57 3.885 1.57 2.672 0 3.499-.854 4.298-1.68.909-.992 1.845-1.956 4.683-1.956 3.196 0 4.16 1.047 5.124 2.066.772.799 1.516 1.57 3.885 1.57 2.673 0 3.499-.854 4.298-1.68.909-.992 1.846-1.956 4.684-1.956 3.195 0 4.187 1.047 5.123 2.066.772.799 1.516 1.57 3.885 1.57 2.7 0 3.499-.854 4.298-1.68.91-.992 1.846-1.956 4.712-1.956 3.167 0 4.16 1.047 5.096 2.066.771.799 1.516 1.57 3.884 1.57 2.7 0 3.5-.854 4.298-1.68.91-.992 1.847-1.956 4.712-1.956v1.157c-2.37 0-3.141.8-3.885 1.598-.964 1.02-1.956 2.04-5.125 2.04-2.865 0-3.774-.966-4.71-1.93-.8-.853-1.598-1.708-4.27-1.708-2.398 0-3.141.8-3.885 1.598-.964 1.02-1.956 2.04-5.125 2.04-2.865 0-3.774-.966-4.71-1.93-.8-.853-1.599-1.708-4.298-1.708-2.37 0-3.114.8-3.858 1.598-.964 1.02-1.955 2.04-5.124 2.04-2.865 0-3.775-.966-4.71-1.93-.8-.853-1.599-1.708-4.299-1.708-2.37 0-3.113.8-3.857 1.598-.964 1.02-1.956 2.04-5.124 2.04-2.865 0-3.775-.966-4.712-1.93-.799-.853-1.598-1.708-4.298-1.708-2.368 0-3.113.8-3.856 1.598-.964 1.02-1.957 2.04-5.124 2.04-2.866 0-3.775-.966-4.712-1.93-.799-.853-1.598-1.708-4.298-1.708-2.37 0-3.113.8-3.856 1.598-.964 1.02-1.957 2.04-5.125 2.04-2.865 0-3.774-.966-4.71-1.93-.8-.853-1.599-1.708-4.299-1.708-2.37 0-3.113.8-3.857 1.598-.964 1.02-1.956 2.04-5.124 2.04-2.865 0-3.774-.966-4.71-1.93-.8-.853-1.599-1.708-4.299-1.708v-1.157c3.196 0 4.16 1.047 5.124 2.066.772.799 1.515 1.57 3.885 1.57zm143.922 0c2.7 0 3.5-.855 4.298-1.68.937-.993 1.846-1.957 4.71-1.957v1.157c-2.369 0-3.112.8-3.884 1.598-.964 1.02-1.955 2.04-5.124 2.04-2.865 0-3.775-.966-4.71-1.93-.8-.853-1.598-1.708-4.271-1.708-2.37 0-3.113.8-3.885 1.598-.964 1.02-1.955 2.04-5.124 2.04-2.865 0-3.775-.966-4.712-1.93-.798-.853-1.597-1.708-4.27-1.708v-1.157c3.17 0 4.16 1.047 5.098 2.066.771.799 1.515 1.57 3.884 1.57 2.7 0 3.5-.854 4.298-1.68.909-.992 1.846-1.956 4.71-1.956 3.17 0 4.16 1.047 5.125 2.066.744.799 1.488 1.57 3.857 1.57zm-17.99-9.45c2.7 0 3.5-.855 4.298-1.68.909-.992 1.846-1.956 4.71-1.956 3.17 0 4.16 1.047 5.125 2.065.744.8 1.488 1.57 3.857 1.57 2.7 0 3.5-.854 4.298-1.68.937-.991 1.846-1.955 4.71-1.955v1.156c-2.369 0-3.112.8-3.884 1.598-.964.992-1.955 2.04-5.124 2.04-2.865 0-3.775-.965-4.71-1.957-.8-.826-1.598-1.68-4.271-1.68-2.37 0-3.113.798-3.885 1.597-.964.992-1.955 2.04-5.124 2.04-2.865 0-3.775-.965-4.712-1.957-.798-.826-1.597-1.68-4.27-1.68v-1.157c3.17 0 4.16 1.047 5.098 2.065.771.8 1.515 1.57 3.884 1.57zm-53.97 0c2.672 0 3.498-.855 4.297-1.68.909-.992 1.846-1.956 4.684-1.956 3.195 0 4.16 1.047 5.123 2.065.772.8 1.516 1.57 3.885 1.57 2.7 0 3.499-.854 4.298-1.68.91-.991 1.846-1.955 4.712-1.955 3.167 0 4.16 1.047 5.096 2.065.771.8 1.516 1.57 3.884 1.57 2.7 0 3.5-.854 4.298-1.68.91-.991 1.847-1.955 4.712-1.955v1.156c-2.37 0-3.141.8-3.885 1.598-.964.992-1.956 2.04-5.125 2.04-2.865 0-3.774-.965-4.71-1.957-.8-.826-1.598-1.68-4.27-1.68-2.398 0-3.141.798-3.885 1.597-.964.992-1.956 2.04-5.125 2.04-2.865 0-3.774-.965-4.71-1.957-.8-.826-1.599-1.68-4.298-1.68-2.37 0-3.114.798-3.858 1.597-.964.992-1.955 2.04-5.124 2.04-2.865 0-3.775-.965-4.71-1.957-.8-.826-1.599-1.68-4.299-1.68-2.37 0-3.113.798-3.857 1.597-.964.992-1.956 2.04-5.124 2.04-2.865 0-3.775-.965-4.712-1.957-.799-.826-1.598-1.68-4.298-1.68-2.368 0-3.113.798-3.856 1.597-.964.992-1.957 2.04-5.124 2.04-2.866 0-3.775-.965-4.712-1.957-.799-.826-1.598-1.68-4.298-1.68-2.37 0-3.113.798-3.856 1.597-.964.992-1.957 2.04-5.125 2.04-2.865 0-3.774-.965-4.71-1.957-.8-.826-1.599-1.68-4.299-1.68-2.37 0-3.113.798-3.857 1.597-.964.992-1.956 2.04-5.124 2.04-2.865 0-3.774-.965-4.71-1.957-.8-.826-1.599-1.68-4.299-1.68v-1.157c3.196 0 4.16 1.047 5.124 2.065.772.8 1.515 1.57 3.885 1.57 2.673 0 3.499-.854 4.27-1.68.936-.991 1.846-1.955 4.711-1.955 3.196 0 4.16 1.047 5.124 2.065.772.8 1.515 1.57 3.885 1.57 2.673 0 3.499-.854 4.298-1.68.91-.991 1.818-1.955 4.683-1.955 3.196 0 4.161 1.047 5.125 2.065.771.8 1.515 1.57 3.885 1.57 2.672 0 3.498-.854 4.298-1.68.909-.991 1.845-1.955 4.682-1.955 3.197 0 4.161 1.047 5.125 2.065.772.8 1.516 1.57 3.885 1.57 2.672 0 3.499-.854 4.298-1.68.909-.991 1.845-1.955 4.683-1.955 3.196 0 4.16 1.047 5.124 2.065.772.8 1.516 1.57 3.885 1.57z"/></g></svg>