<svg width="164" height="173" xmlns="http://www.w3.org/2000/svg"><g fill="#4574E8" fill-rule="evenodd"><path d="M9.248 73l-.186-1.6v-.16l.186-1.199a.565.565 0 0 1 .64-.453.54.54 0 0 1 .453.533v2.852c0 .293-.24.56-.534.56a.577.577 0 0 1-.559-.534zm92.695-59.78c-6.183-1.68-12.686-2.559-19.402-2.559-13.246 0-25.666 3.465-36.406 9.488-11.061 6.21-20.336 15.165-26.786 25.88l2.425 13.83c.054.08.08.188.08.294V72.28c.054.106.107.186.107.32v81.394h128.328V83.767c0-.08 0-.16.054-.24a.528.528 0 0 1 .72-.293c1.279.586 2.371 1.12 3.277 1.679.507.293.96.587 1.36.879v-4.024c0-12.127-3.171-23.586-8.742-33.608-5.624-10.1-13.7-18.763-23.454-25.212v24.04a.54.54 0 0 1-.533.559h-2.744a.563.563 0 0 1-.56-.56V20.576a73.162 73.162 0 0 0-17.724-7.357zM82.541 9.54a75.2 75.2 0 0 1 19.695 2.612c6.477 1.733 12.607 4.345 18.284 7.623.16.107.266.293.266.48v26.172h1.626V21.934c0-.292.24-.56.559-.56.107 0 .213.054.32.107 10.261 6.61 18.736 15.592 24.627 26.146 5.65 10.181 8.875 21.828 8.875 34.14v5.198a.546.546 0 0 1-.933.4c-.533-.507-1.226-.986-2.079-1.52-.693-.399-1.493-.799-2.398-1.252v69.96c0 .294-.24.561-.534.561H21.401a.563.563 0 0 1-.56-.56v-81.66a.536.536 0 0 1-.08-.294V60.713H12.26a.54.54 0 0 1-.533-.56c0-.053 0-.133.028-.213a.556.556 0 0 1 .533-.346h8.315L18.23 46.028a.59.59 0 0 1 .08-.427C24.892 34.674 34.327 25.533 45.6 19.19c10.9-6.13 23.507-9.649 36.94-9.649z"/><path d="M10.34 72.04h10.422V60.713H10.34V72.04zm-.533-12.42h12.047v13.513H9.248V59.62h.56zm14.499 72.973h39.365v-8.582H24.307v8.582zm-.533-9.675H64.79v10.794H23.214v-10.794h.56z"/><path d="M24.306 154.02h39.365v-20.308H24.307v20.309zm-.533-21.427H64.79v22.548H23.214v-22.548h.56zm55.489 0H97.36v-8.582H79.262v8.582zm-.56-9.675h19.75v10.794H78.143v-10.794h.56z"/><path d="M79.262 154.02h18.124v-20.308H79.262v20.309zm-.56-21.427h19.776v22.548H78.143v-22.548h.56z"/><path d="M94.934 146.718a4.6 4.6 0 0 1 .426 1.893v3.011a.54.54 0 0 1-.56.533h-2.878c-.293 0-.56-.24-.56-.533v-2.958c.027-.826.187-1.465.48-2.026.294-.56.72-.985 1.2-1.332a.567.567 0 0 1 .612-.026c.507.32.96.799 1.28 1.438zm-.667 1.92c-.026-.56-.133-1.04-.346-1.44a2.682 2.682 0 0 0-.533-.746c-.24.213-.427.427-.56.72-.213.4-.346.88-.346 1.492v2.399h1.785v-2.426zm-9.381-1.92c.267.533.427 1.173.453 1.893v3.011a.54.54 0 0 1-.56.533H81.9a.54.54 0 0 1-.559-.533v-2.958c0-.826.187-1.465.48-2.026.293-.56.72-.985 1.2-1.332a.567.567 0 0 1 .612-.026c.48.32.933.799 1.253 1.438zm-.64 1.92a3.79 3.79 0 0 0-.347-1.44c-.16-.293-.346-.56-.56-.746a3.032 3.032 0 0 0-.558.72c-.214.4-.32.88-.347 1.492v2.399h1.812v-2.426zm5.65-1.92c.267.533.427 1.173.453 1.893v3.011a.54.54 0 0 1-.56.533h-2.877c-.32 0-.56-.24-.56-.533v-2.958c0-.826.187-1.465.48-2.026.292-.56.72-.985 1.199-1.332a.567.567 0 0 1 .613-.026c.48.32.96.799 1.252 1.438zm-.64 1.92c-.026-.56-.133-1.04-.345-1.44a2.286 2.286 0 0 0-.56-.746c-.213.213-.4.427-.534.72-.212.4-.346.88-.346 1.492v2.399h1.786v-2.426zm-34.033-1.813c.24.506.426 1.146.426 1.892v2.985c0 .294-.24.56-.56.56h-2.878a.582.582 0 0 1-.56-.56v-2.931c.027-.827.187-1.493.48-2.053.293-.532.72-.959 1.2-1.306.186-.132.426-.16.612-.026.507.32.96.8 1.28 1.44zm-.667 1.892c-.026-.56-.133-1.039-.346-1.412-.133-.32-.347-.56-.533-.747-.24.187-.427.427-.56.693-.213.4-.346.907-.346 1.52v2.372h1.785v-2.426zm-4.69-1.892c.266.506.426 1.146.453 1.892v2.985c0 .294-.24.56-.56.56H46.88a.563.563 0 0 1-.56-.56v-2.931c0-.827.187-1.493.48-2.053.294-.532.72-.959 1.2-1.306.186-.132.426-.16.613-.026.48.32.959.8 1.252 1.44zm-.64 1.892c-.027-.56-.133-1.039-.347-1.412a2.045 2.045 0 0 0-.56-.747 2.301 2.301 0 0 0-.532.693c-.214.4-.346.907-.346 1.52v2.372h1.785v-2.426zm11.327-1.892c.24.506.427 1.146.427 1.892v2.985c0 .294-.241.56-.533.56H57.54a.582.582 0 0 1-.56-.56v-2.931c.027-.827.187-1.493.48-2.053.294-.532.72-.959 1.2-1.306.186-.132.426-.16.612-.026.507.32.96.8 1.28 1.44zm-.667 1.892c0-.56-.132-1.039-.32-1.412-.16-.32-.345-.56-.559-.747-.24.187-.427.427-.56.693-.213.4-.346.907-.346 1.52v2.372h1.785v-2.426zm-29.53-1.892c.267.506.427 1.146.453 1.892v2.985c0 .294-.24.56-.56.56h-2.877a.563.563 0 0 1-.56-.56v-2.931c0-.827.186-1.493.48-2.053.292-.532.719-.959 1.198-1.306.188-.132.427-.16.613-.026.48.32.933.8 1.253 1.44zm-.64 1.892a3.55 3.55 0 0 0-.345-1.412 2.047 2.047 0 0 0-.56-.747c-.213.187-.4.427-.56.693-.214.4-.32.907-.346 1.52l.026 2.372h1.786v-2.426zm5.544-1.892a4.04 4.04 0 0 1 .453 1.892v2.985c0 .294-.24.56-.56.56h-2.878a.563.563 0 0 1-.56-.56v-2.931c.027-.827.188-1.493.48-2.053.293-.532.72-.959 1.2-1.306.186-.132.426-.16.613-.026.48.32.959.8 1.252 1.44zm-.64 1.892c-.026-.56-.133-1.039-.346-1.412a2.034 2.034 0 0 0-.56-.747c-.213.187-.4.427-.533.693-.213.4-.346.907-.346 1.52v2.372h1.786v-2.426zM17.537 64.418a2.827 2.827 0 0 0-1.973-.826c-.773 0-1.465.32-1.971.826a2.715 2.715 0 0 0-.827 1.945c0 .773.32 1.492.827 1.973.48.506 1.198.825 1.971.825.747 0 1.466-.32 1.946-.825h.027c.48-.48.8-1.2.8-1.973 0-.746-.32-1.465-.8-1.945zm-1.973-1.946c1.067 0 2.026.453 2.746 1.146.693.72 1.146 1.68 1.146 2.745 0 1.093-.453 2.053-1.146 2.772-.72.693-1.68 1.146-2.746 1.146-1.092 0-2.052-.453-2.771-1.146-.693-.72-1.147-1.68-1.147-2.772 0-1.066.454-2.025 1.147-2.745.719-.693 1.679-1.146 2.771-1.146zm2.266-18.656l-1.679-9.675h-1.28l-4.45 25.453h10.181L17.83 43.816zm-.666-10.314l4.744 27.184H9.114c1.6-9.221 3.2-18.443 4.825-27.664h3.145l.08.48zM10.34 154.048h10.502V73.133H10.34v80.915zM9.808 72.04h12.154v83.1H9.248v-83.1h.56z"/><path d="M9.248 154.048V72.999l-.747-6.37-.533 6.398.028 81.021h1.252zm1.093-81.075v82.168H6.876V72.92l.853-10.395h1.413c.346 2.906 1.199 7.756 1.199 10.448zm6.369 19.109c-.213.293-.4.587-.559.933l-.027.053c-.106.16-.106.187-.106.427v27.798c0 .293.24.56.559.56h2.452c.293 0 .533-.267.533-.56V93.335l-.026-.053c-.027-.107-.027-.134-.08-.214l-.027-.026a4.516 4.516 0 0 0-.56-.933 3.985 3.985 0 0 0-.719-.773c-.213-.187-.533-.213-.72 0-.266.213-.506.48-.72.746zm.4 1.44c.16-.294.32-.534.48-.773.08-.08.133-.16.187-.24.08.08.133.16.213.24.16.24.32.506.48.773v27.211h-1.333l-.027-27.211zm-4.77-1.44a7.92 7.92 0 0 0-.586.933l-.028.053c-.106.16-.106.187-.106.427l.026 27.798c0 .293.24.56.534.56h2.452a.58.58 0 0 0 .56-.56l-.027-27.798v-.213c-.027-.107-.054-.134-.106-.214v-.026a6.198 6.198 0 0 0-.587-.933 4.89 4.89 0 0 0-.693-.773c-.214-.187-.533-.213-.747 0-.266.213-.48.48-.693.746zm.399 1.44a3.74 3.74 0 0 1 .48-.773c.053-.08.107-.16.187-.24.053.08.133.16.187.24.16.24.32.506.48.773v27.211h-1.334V93.522zm1.759-26.492l.933-.613-.773-1.413.96-.533 1.252 2.292-1.732 1.172-.64-.905"/><path d="M7.489 132.567h1.813c.132-1.68.745-3.065 1.759-4.211 1.065-1.254 2.558-2.213 4.317-2.986l.214-.106.212.08c1.706.693 3.332 1.758 4.451 3.171.906 1.147 1.52 2.479 1.653 4.052h1.972v1.092h-3.038l-.027-.533c0-1.52-.56-2.825-1.413-3.918-.959-1.2-2.318-2.132-3.784-2.745-1.52.693-2.825 1.546-3.732 2.612-.932 1.066-1.492 2.398-1.518 4.051v.533h-2.88v-1.092m11.275 13.352c.613 1.172 1.013 2.612 1.039 4.265v4.957h-8.395c0-.64-.027-4.93 0-4.957.026-1.787.427-3.225 1.12-4.425.665-1.2 1.625-2.105 2.771-2.878l.294-.187.292.187c1.094.64 2.132 1.678 2.879 3.038zm-.08 4.265c0-1.467-.347-2.72-.906-3.732A6.732 6.732 0 0 0 15.618 144c-.88.64-1.626 1.386-2.159 2.319-.586 1.012-.932 2.292-.96 3.865v3.864h6.184v-3.864z"/><path d="M9.354 145.252l.827-1.039c1.066-1.44 2.692-3.518 4.984-6.61l.427-.586.452.587c1.306 1.785 2.506 3.384 3.598 4.85a150.839 150.839 0 0 0 2.186 2.905l-.88.666a157.93 157.93 0 0 1-2.185-2.904c-.747-.986-1.785-2.399-3.171-4.265a281.42 281.42 0 0 1-4.559 6.024l-.799 1.039-.88-.667m55.436 8.768h13.353v-33.127H64.79v33.128zm14.472-33.687v34.808H63.671V119.8h15.591v.532z"/><path d="M75.025 144.187c.24.48.4 1.065.4 1.758v2.8c0 .319-.24.559-.56.559h-2.532c-.32 0-.56-.24-.56-.56V146c0-.773.16-1.386.426-1.893.24-.506.613-.905 1.04-1.225.16-.187.453-.213.667-.054.426.294.853.747 1.119 1.36zm-.693 1.786a3.783 3.783 0 0 0-.294-1.334 3.798 3.798 0 0 0-.426-.64c-.187.188-.32.374-.426.588-.187.373-.294.852-.32 1.412v2.186h1.466v-2.212zm-3.651-1.786c.24.48.4 1.065.4 1.758v2.8c0 .319-.24.559-.534.559H67.99c-.32 0-.56-.24-.56-.56V146c0-.773.16-1.386.426-1.893a3.594 3.594 0 0 1 1.04-1.225.494.494 0 0 1 .666-.054c.453.294.853.747 1.12 1.36zm-.693 1.786a3.804 3.804 0 0 0-.293-1.334 2.71 2.71 0 0 0-.427-.64c-.16.188-.32.374-.426.588-.187.373-.294.852-.294 1.412v2.186h1.44v-2.212zm4.158-32.729h-5.331l-1.493 6.557h8.316l-1.492-6.557zm-5.757-1.12h6.636l1.999 8.77H65.937l2.025-8.77h.427zM0 154.048h163.696v1.093L0 155.167v-1.119M14.925 33.502h1.119V29.77h-1.119zm110.019 50.772c1.652 1.226 3.33 2.478 4.984 3.704l3.038 4.344c-.48 0-.933-.026-1.413-.08l-2.425-3.491-4.13-3.065-.054-1.412zM61.459 71.48l.346 3.732-8.661 5.064-4.265 9.461-8.635 3.998-2.745 7.275-1.04-.373 2.906-7.728 8.661-3.998 4.265-9.408 8.342-4.904-.294-3.225-4.797 3.704-5.65-2.265-17.164 18.87-7.649 2.825-.88 1.012-.825-.719 1.039-1.253 7.676-2.825 17.483-19.216 5.783 2.319 5.411-4.185c2.585 1.839 5.197 3.705 7.782 5.544l.134.133 6.369-5.837 8.343 8.396 9.194-9.009c2.985 1.707 5.997 3.385 8.982 5.091l5.144 6.183 4.211-1.52 3.678 4.052 3.81-1.653-.053 1.226-4.05 1.76-3.705-4.105-4.237 1.546-5.517-6.636-6.957-3.945 3.518 7.703-3.278 2.345 8.075 13.645-.959.56-8.582-14.525 3.358-2.398-3.518-7.702-8.661 8.475-5.384 12.393-5.677 1.466-8.582 8.794-.8-.772 8.795-9.009 5.464-1.412 5.064-11.647L75.025 71l-5.57 5.09 7.143 7.303-.8.772-7.969-8.155-6.37-4.531zm40.324-48.586a10.332 10.332 0 0 0-7.329-3.038c-2.851 0-5.437 1.173-7.33 3.038a10.403 10.403 0 0 0-3.011 7.33c0 2.851 1.146 5.463 3.011 7.328 1.893 1.867 4.479 3.04 7.33 3.04a10.33 10.33 0 0 0 7.33-3.04 10.264 10.264 0 0 0 3.037-7.329c0-2.851-1.145-5.463-3.038-7.329zm-7.329-4.131c3.172 0 6.05 1.28 8.128 3.358 2.053 2.08 3.359 4.93 3.359 8.102 0 3.172-1.306 6.023-3.359 8.102a11.46 11.46 0 0 1-8.128 3.359c-3.145 0-6.024-1.28-8.103-3.359a11.397 11.397 0 0 1-3.357-8.102c0-3.171 1.279-6.023 3.357-8.102a11.447 11.447 0 0 1 8.103-3.358z"/><path d="M103.782 100.158h5.597v54.983h-6.156v-54.983h.56zm.56 53.89h3.917v-52.77h-3.917v52.77z"/><path d="M97.359 154.607V104.29c0-.667.666-2.053 2.265-2.985.987-.613 2.345-1.066 4.158-1.093h.56v54.93h-6.983v-.534zm1.093-50.318v49.759h4.77V101.33c-1.279.107-2.292.453-3.038.906-1.199.72-1.706 1.653-1.732 2.053zm10.928 2.452v47.307h5.463l-.027.56h8.476v.533h-15.033v-50.16l.8.4c1.493.72 3.038 1.306 4.69 1.68 1.094.266 2.213.426 3.359.533l-.054 1.092a23.034 23.034 0 0 1-3.57-.533 24.081 24.081 0 0 1-4.105-1.412m36.221 47.307h4.689V84.3h-4.69v69.748zm-.561-70.867h6.344v71.96h-6.877V83.18h.533z"/><path d="M157.032 154.048V90.536c0-.08.027-.293.027-.48 0-.718.027-1.119-.453-1.838-.453-.64-1.12-1.253-2.106-1.893-.826-.56-1.865-1.119-3.117-1.732v69.455h5.65zm1.12-63.512v64.605h-7.863V82.888l.774.346c1.652.746 2.984 1.465 4.05 2.158 1.093.72 1.866 1.44 2.399 2.213.666 1.012.666 1.545.64 2.478v.453zm-13.646 63.512V90.536a25.466 25.466 0 0 1-4.85 1.68c-1.92.425-3.891.666-5.918.666-.799 0-1.598-.027-2.424-.107-.587-.053-1.147-.134-1.733-.213v61.486h14.925zm1.093-64.39v65.483h-17.11V91.229l.639.134c.772.133 1.519.24 2.292.32.746.053 1.52.106 2.318.106 1.947 0 3.838-.24 5.677-.666a24.053 24.053 0 0 0 5.384-1.946l.8-.4v.88z"/><path d="M133.312 154.607h1.12V92.51h-1.12zM125.157 49.68h-7.143v1.252h7.143l.026-.027V49.68h-.026zm-7.116-1.12h7.116c.293 0 .586.133.8.346.213.214.319.48.319.8v1.2c0 .293-.106.586-.32.798-.213.214-.506.32-.799.32h-7.116c-.32 0-.586-.106-.8-.32a1.153 1.153 0 0 1-.347-.799v-1.2c0-.32.134-.585.347-.799.214-.213.48-.347.8-.347z"/><path d="M118.094 52.024l-2.079 1.467v2.744l.96 1.04h9.168l1.04-1.04v-2.718l-2.133-1.493h-6.956zm-2.931.747l2.558-1.84h7.676l2.878 2v3.758l-1.68 1.679h-10.1l-1.572-1.68V52.93l.24-.16zm4.877-4.211h3.118v-1.013h-3.119v1.012zm-.56-2.132h4.77v3.251h-5.33v-3.251h.56z"/><path d="M120.786 46.428h1.626v-32.65h-1.626v32.65zm-.56-33.742h3.278v34.86h-3.838v-34.86h.56z"/><path d="M121.052 13.22h1.094V0h-1.094zm3.278 47.386c1.52 31.53 3.066 63.032 4.638 94.535H114.23l4.637-94.535h1.093l-4.558 93.442h12.393l-4.557-93.442h1.093"/><path d="M126.303 58.368h-9.409a.761.761 0 0 0-.585.266.766.766 0 0 0-.267.587c0 .24.107.426.267.586.132.16.346.24.585.24h9.41c.239 0 .425-.08.585-.24.16-.16.24-.347.24-.586 0-.24-.08-.454-.24-.587-.16-.16-.346-.266-.586-.266zm-9.409-1.093h9.41c.532 0 1.012.214 1.358.56.373.373.586.852.586 1.386 0 .533-.213 1.012-.586 1.385a1.91 1.91 0 0 1-1.359.56h-9.409a2.023 2.023 0 0 1-1.385-.56 2.027 2.027 0 0 1-.56-1.385c0-.534.214-1.013.56-1.386.373-.346.852-.56 1.385-.56zm-43.122 77.024h1.12v-2.906h-1.12v2.906zm-2.931 0h1.119v-2.906h-1.12v2.906zm-2.932 0h1.119v-2.906h-1.119v2.906zM83.5 137.95h1.092v-2.905H83.5v2.905zm2.879 0h1.092v-2.905H86.38v2.905zm2.851 0h1.12v-2.905h-1.12v2.905zm2.878 0h1.12v-2.905h-1.12v2.905zm2.88 0h1.092v-2.905h-1.093v2.905zm-14.366 0h1.119v-2.905h-1.12v2.905zm-51.865.16h1.093v-2.905h-1.093v2.905zm2.878 0h1.093v-2.905h-1.093v2.905zm2.852 0h1.12v-2.905h-1.12v2.905zm2.88 0h1.118v-2.905h-1.119v2.905zm2.877 0h1.12v-2.905h-1.12v2.905zm2.878 0h1.12v-2.905h-1.12v2.905zm2.88 0h1.118v-2.905H46v2.905zm2.877 0H50v-2.905h-1.12v2.905zm2.879 0h1.119v-2.905h-1.119v2.905zm2.878 0h1.093v-2.905h-1.093v2.905zm2.878 0h1.094v-2.905h-1.094v2.905zm2.879 0h1.093v-2.905h-1.093v2.905zm-34.514 0h1.092v-2.905H25.88v2.905zm16.017 14.045h1.094v-2.052h-1.094v2.052zm0-3.518h1.094v-8.022h-1.094v8.022zm-2.932 3.518h1.094v-2.052h-1.094v2.052zm0-3.518h1.094v-8.022h-1.094v8.022zm-10.18-5.09h1.12v-2.878h-1.12v2.878zm2.878 0h1.12v-2.878h-1.12v2.878zm2.879 0h1.092v-2.878h-1.092v2.878zm11.514 0h1.092v-2.878h-1.092v2.878zm2.878 0h1.092v-2.878h-1.092v2.878zm2.878 0h1.093v-2.878h-1.093v2.878zm2.851 0h1.12v-2.878h-1.12v2.878zm2.88 0h1.118v-2.878h-1.119v2.878zm2.877 0h1.12v-2.878h-1.12v2.878zm-34.513 0h1.119v-2.878h-1.12v2.878zm57.541 0h1.119v-2.878h-1.119v2.878zm2.878 0h1.093v-2.878h-1.093v2.878zm2.852 0h1.12v-2.878h-1.12v2.878zm2.878 0h1.12v-2.878h-1.12v2.878zm2.879 0h1.092v-2.878h-1.092v2.878zm-14.366 0h1.12v-2.878h-1.12v2.878zM16.044 29.264h14.34v-7.089h-14.34v7.09zm-.56-8.182h15.992v9.275H14.925v-9.275h.56zm58.288 107.859h1.12v-2.904h-1.12v2.904zm-2.931 0h1.119v-2.904h-1.12v2.904zm-2.932 0h1.119v-2.904h-1.119v2.904zm5.863 10.315h1.12v-2.905h-1.12v2.905zm-2.931 0h1.119v-2.905h-1.12v2.905zm-2.932 0h1.119v-2.905h-1.119v2.905zM11.834 86.299h1.092v-7.25h-1.092v7.25zm6.422 0h1.12v-7.25h-1.12v7.25zm-3.197 0h1.092v-7.25H15.06v7.25zm29.77-42.217c-.427-.132-.854-.24-1.334-.24a4.367 4.367 0 0 0-4.371 4.397c0 1.2.48 2.293 1.28 3.092.8.8 1.893 1.306 3.091 1.306h.4c8.183-.026 12.953 0 18.763 0h10.795l.052.027c.16.027.32.053.453.08.16 0 .294.027.454.027a3.842 3.842 0 0 0 2.771-1.173c.72-.693 1.147-1.679 1.147-2.772a3.906 3.906 0 0 0-1.147-2.771 3.928 3.928 0 0 0-2.771-1.146c-.294 0-.586.053-.853.106-.293.053-.56.16-.827.293l-.533.24-.212-.533-.054-.133c-.16-.453-.64-1.706-2.318-2.505l-.214-.107-.08-.213a4.081 4.081 0 0 0-1.545-2.159 4.21 4.21 0 0 0-2.506-.826c-.88 0-1.732.293-2.399.746-.719.48-1.252 1.199-1.572 2l-.213.612-.587-.32a3.267 3.267 0 0 0-.693-.32 3.845 3.845 0 0 0-.773-.08c-.799 0-1.519.293-2.051.8-.533.506-.854 1.226-.906 1.999l-.028.613-.613-.08c-.052-.027-.132-.027-.24-.054h-.24c-.133 0-.293.027-.425.027-.16.027-.294.053-.427.107l-.426.133-.213-.373c-.347-.56-.8-1.04-1.36-1.36-.533-.319-1.172-.479-1.839-.479-.56 0-1.093.106-1.572.346-.507.24-.933.56-1.28.986l-.053.08c-.266.427-.453.693-1.279.24a7.79 7.79 0 0 0-1.252-.613zm-1.334-1.332c.613 0 1.174.106 1.706.293.48.16.934.4 1.36.64a4.921 4.921 0 0 1 1.652-1.306 4.902 4.902 0 0 1 2.052-.454c.88 0 1.68.24 2.398.64.587.347 1.12.826 1.52 1.413l.187-.054c.186-.026.4-.026.586-.026h.08c.16-.853.586-1.6 1.2-2.186a4.016 4.016 0 0 1 2.797-1.119c.347 0 .72.054 1.04.134.16.052.294.106.453.16a5.3 5.3 0 0 1 1.706-1.973 5.45 5.45 0 0 1 3.038-.933c1.2 0 2.292.373 3.172 1.04a5.26 5.26 0 0 1 1.866 2.478c1.519.773 2.185 1.892 2.504 2.585.16-.053.32-.106.507-.132.346-.081.72-.134 1.093-.134 1.386 0 2.665.56 3.572 1.466a4.998 4.998 0 0 1 1.465 3.544c0 1.413-.56 2.666-1.465 3.571a5.059 5.059 0 0 1-3.572 1.466c-.187 0-.374 0-.56-.026a3.793 3.793 0 0 1-.533-.106H43.895c-.053.026-.106 0-.186 0h-.214a5.437 5.437 0 0 1-3.864-1.6 5.46 5.46 0 0 1-1.626-3.891c0-1.519.613-2.905 1.626-3.89a5.437 5.437 0 0 1 3.864-1.6zM12.233 170.998c2.612 0 3.385-.826 4.158-1.625.906-.96 1.785-1.893 4.557-1.893 3.065 0 4.024 1.014 4.958 1.999.72.773 1.438 1.52 3.73 1.52 2.613 0 3.385-.827 4.158-1.626.907-.96 1.786-1.893 4.557-1.893 3.066 0 4.026 1.014 4.958 1.999.72.773 1.44 1.52 3.731 1.52 2.612 0 3.385-.827 4.158-1.626.906-.96 1.786-1.893 4.558-1.893 3.064 0 4.024 1.014 4.957 1.999.719.773 1.44 1.52 3.731 1.52 2.612 0 3.385-.827 4.158-1.626.905-.96 1.785-1.893 4.557-1.893 3.065 0 4.024 1.014 4.957 1.999.72.773 1.44 1.52 3.732 1.52 2.612 0 3.385-.827 4.157-1.626.907-.96 1.786-1.893 4.558-1.893 3.065 0 4.024 1.014 4.957 1.999.72.773 1.439 1.52 3.731 1.52 2.612 0 3.385-.827 4.158-1.626.906-.96 1.785-1.893 4.557-1.893 3.065 0 4.025 1.014 4.958 1.999.72.773 1.438 1.52 3.73 1.52 2.613 0 3.385-.827 4.158-1.626.907-.96 1.787-1.893 4.558-1.893v1.12c-2.292 0-3.012.773-3.758 1.546-.932.986-1.866 1.972-4.957 1.972-2.772 0-3.651-.934-4.558-1.866-.746-.826-1.545-1.652-4.13-1.652-2.292 0-3.012.773-3.759 1.546-.933.986-1.865 1.972-4.957 1.972-2.772 0-3.65-.934-4.557-1.866-.747-.826-1.546-1.652-4.131-1.652-2.293 0-3.012.773-3.758 1.546-.933.986-1.866 1.972-4.957 1.972-2.772 0-3.652-.934-4.557-1.866-.747-.826-1.547-1.652-4.132-1.652-2.292 0-3.011.773-3.758 1.546-.932.986-1.865 1.972-4.957 1.972-2.771 0-3.651-.934-4.558-1.866-.745-.826-1.546-1.652-4.13-1.652-2.292 0-3.013.773-3.758 1.546-.933.986-1.866 1.972-4.958 1.972-2.772 0-3.65-.934-4.557-1.866-.747-.826-1.546-1.652-4.132-1.652-2.29 0-3.011.773-3.757 1.546-.933.986-1.866 1.972-4.957 1.972-2.772 0-3.651-.934-4.558-1.866-.773-.826-1.545-1.652-4.131-1.652-2.292 0-3.011.773-3.758 1.546-.933.986-1.892 1.972-4.957 1.972-2.772 0-3.652-.934-4.557-1.866-.773-.826-1.546-1.652-4.131-1.652v-1.12c3.065 0 4.024 1.014 4.956 1.999.72.773 1.44 1.52 3.732 1.52zm139.23 0c2.611 0 3.384-.826 4.157-1.625.906-.96 1.786-1.893 4.557-1.893v1.12c-2.292 0-3.011.773-3.758 1.546-.932.986-1.865 1.972-4.957 1.972-2.771 0-3.651-.934-4.558-1.866-.745-.826-1.545-1.652-4.13-1.652-2.292 0-3.012.773-3.758 1.546-.933.986-1.866 1.972-4.957 1.972-2.773 0-3.652-.934-4.558-1.866-.746-.826-1.546-1.652-4.13-1.652v-1.12c3.064 0 4.024 1.014 4.956 1.999.72.773 1.44 1.52 3.732 1.52 2.611 0 3.385-.827 4.158-1.626.905-.96 1.785-1.893 4.557-1.893 3.065 0 4.024 1.014 4.957 1.999.72.773 1.44 1.52 3.731 1.52zm-17.404-9.141c2.611 0 3.385-.827 4.158-1.626.905-.96 1.785-1.892 4.557-1.892 3.065 0 4.024 1.013 4.957 1.972.72.8 1.44 1.546 3.731 1.546 2.612 0 3.385-.827 4.158-1.626.906-.96 1.786-1.892 4.557-1.892v1.119c-2.292 0-3.011.773-3.758 1.546-.932.96-1.865 1.972-4.957 1.972-2.771 0-3.651-.932-4.558-1.892-.745-.8-1.545-1.626-4.13-1.626-2.292 0-3.012.773-3.758 1.546-.933.96-1.866 1.972-4.957 1.972-2.773 0-3.652-.932-4.558-1.892-.746-.8-1.546-1.626-4.13-1.626v-1.119c3.064 0 4.024 1.013 4.956 1.972.72.8 1.44 1.546 3.732 1.546zm-52.211 0c2.612 0 3.385-.827 4.157-1.626.907-.96 1.786-1.892 4.558-1.892 3.065 0 4.024 1.013 4.957 1.972.72.8 1.439 1.546 3.731 1.546 2.612 0 3.385-.827 4.158-1.626.906-.96 1.785-1.892 4.557-1.892 3.065 0 4.025 1.013 4.958 1.972.72.8 1.438 1.546 3.73 1.546 2.613 0 3.385-.827 4.158-1.626.907-.96 1.787-1.892 4.558-1.892v1.119c-2.292 0-3.012.773-3.758 1.546-.932.96-1.866 1.972-4.957 1.972-2.772 0-3.651-.932-4.558-1.892-.746-.8-1.545-1.626-4.13-1.626-2.292 0-3.012.773-3.759 1.546-.933.96-1.865 1.972-4.957 1.972-2.772 0-3.65-.932-4.557-1.892-.747-.8-1.546-1.626-4.131-1.626-2.293 0-3.012.773-3.758 1.546-.933.96-1.866 1.972-4.957 1.972-2.772 0-3.652-.932-4.557-1.892-.747-.8-1.547-1.626-4.132-1.626-2.292 0-3.011.773-3.758 1.546-.932.96-1.865 1.972-4.957 1.972-2.771 0-3.651-.932-4.558-1.892-.745-.8-1.546-1.626-4.13-1.626-2.292 0-3.013.773-3.758 1.546-.933.96-1.866 1.972-4.958 1.972-2.772 0-3.65-.932-4.557-1.892-.747-.8-1.546-1.626-4.132-1.626-2.29 0-3.011.747-3.757 1.546-.933.96-1.866 1.972-4.957 1.972-2.772 0-3.651-.932-4.558-1.892-.773-.8-1.545-1.626-4.131-1.626-2.292 0-3.011.773-3.758 1.546-.933.96-1.892 1.972-4.957 1.972-2.772 0-3.652-.932-4.557-1.892-.773-.8-1.546-1.626-4.131-1.626v-1.119c3.065 0 4.024 1.013 4.956 1.972.72.8 1.44 1.546 3.732 1.546 2.612 0 3.385-.827 4.158-1.626.906-.96 1.785-1.892 4.557-1.892 3.065 0 4.024 1.013 4.958 1.972.72.8 1.438 1.546 3.73 1.546 2.613 0 3.385-.827 4.158-1.626.907-.96 1.786-1.892 4.557-1.892 3.066 0 4.026 1.013 4.958 1.972.72.8 1.44 1.546 3.731 1.546 2.612 0 3.385-.827 4.158-1.626.906-.96 1.786-1.892 4.558-1.892 3.064 0 4.024 1.013 4.957 1.972.719.8 1.44 1.546 3.731 1.546 2.612 0 3.385-.827 4.158-1.626.905-.96 1.785-1.892 4.557-1.892 3.065 0 4.024 1.013 4.957 1.972.72.8 1.44 1.546 3.732 1.546zm-58.608-7.809V72.999l-.746-6.37-.56 6.398.027 81.021h1.28zm1.093-81.075v82.168h-3.465c-.026-27.398-.026-54.796-.026-82.221l.879-10.395h1.386c.347 2.906 1.226 7.756 1.226 10.448z"/></g></svg>