<?xml version="1.0" encoding="UTF-8"?>
<svg width="181px" height="187px" viewBox="0 0 181 187" version="1.1" xmlns="http://www.w3.org/2000/svg" xmlns:xlink="http://www.w3.org/1999/xlink">
    <!-- Generator: Sketch 49.3 (51167) - http://www.bohemiancoding.com/sketch -->
    <title>Group</title>
    <desc>Created with Sketch.</desc>
    <defs></defs>
    <g id="Page-1" stroke="none" stroke-width="1" fill="none" fill-rule="evenodd">
        <g id="Group" fill="#D6336C">
            <path d="M65.855,19.418 C65.543,19.56 65.175,19.418 65.033,19.106 C64.891,18.823 65.033,18.454 65.345,18.341 C70.135,16.272 75.181,14.684 80.425,13.636 C85.499,12.587 90.772,12.048 96.129,12.048 L96.158,12.048 C117.673,12.048 137.232,20.751 151.49,34.839 C165.748,48.899 174.677,68.316 174.989,89.746 C175.017,89.774 175.017,89.831 175.017,89.888 L175.017,114.917 C175.017,115.229 174.734,115.513 174.394,115.513 C174.054,115.513 173.77,115.229 173.77,114.917 L173.77,89.973 C173.77,89.944 173.77,89.916 173.77,89.888 C173.515,68.741 164.671,49.551 150.611,35.689 C136.58,21.828 117.332,13.239 96.158,13.239 L96.129,13.239 C90.828,13.239 85.669,13.777 80.652,14.798 C75.521,15.847 70.561,17.406 65.855,19.418 Z M18.715,85.494 C18.687,85.834 18.375,86.089 18.063,86.061 C17.723,86.032 17.468,85.749 17.468,85.437 C18.432,71.604 22.995,58.735 30.224,47.765 C37.65,36.483 47.884,27.185 59.931,20.892 C60.214,20.751 60.583,20.864 60.753,21.147 C60.923,21.431 60.81,21.799 60.498,21.941 C48.649,28.121 38.558,37.277 31.244,48.388 C24.129,59.217 19.651,71.888 18.715,85.494 Z" id="Fill-141"></path>
            <path d="M179.609,172.659 C179.95,172.659 180.233,172.914 180.233,173.254 C180.233,173.566 179.95,173.85 179.609,173.85 L7.093,173.85 C6.753,173.85 6.469,173.566 6.469,173.254 C6.469,172.914 6.753,172.659 7.093,172.659 L179.609,172.659" id="Fill-142"></path>
            <path d="M180.035,177.195 C180.347,177.195 180.63,177.478 180.63,177.79 C180.63,178.13 180.347,178.385 180.035,178.385 C178.731,178.385 178.334,178.754 177.909,179.151 C177.313,179.689 176.69,180.256 174.734,180.256 C172.976,180.256 172.41,179.746 171.814,179.207 C171.389,178.81 170.935,178.385 169.433,178.385 C168.129,178.385 167.732,178.754 167.307,179.151 C166.712,179.689 166.088,180.256 164.132,180.256 C162.375,180.256 161.808,179.746 161.213,179.207 C160.787,178.81 160.334,178.385 158.832,178.385 C157.528,178.385 157.131,178.754 156.706,179.151 C156.11,179.689 155.487,180.256 153.531,180.256 C151.773,180.256 151.206,179.746 150.611,179.207 C150.186,178.81 149.761,178.385 148.258,178.385 C146.926,178.385 146.529,178.754 146.132,179.151 C145.509,179.689 144.913,180.256 142.958,180.256 C141.172,180.256 140.605,179.746 140.01,179.207 C139.584,178.81 139.159,178.385 137.657,178.385 C136.324,178.385 135.928,178.754 135.531,179.151 C134.935,179.689 134.312,180.256 132.356,180.256 C130.57,180.256 130.003,179.746 129.408,179.207 C128.983,178.81 128.558,178.385 127.055,178.385 C125.723,178.385 125.326,178.754 124.929,179.151 C124.334,179.689 123.71,180.256 121.754,180.256 C119.997,180.256 119.43,179.746 118.835,179.207 C118.41,178.81 117.956,178.385 116.454,178.385 C115.15,178.385 114.753,178.754 114.328,179.151 C113.732,179.689 113.109,180.256 111.181,180.256 C109.395,180.256 108.828,179.746 108.233,179.207 C107.808,178.81 107.354,178.385 105.88,178.385 C104.548,178.385 104.151,178.754 103.726,179.151 C103.131,179.689 102.507,180.256 100.58,180.256 C98.794,180.256 98.227,179.746 97.632,179.207 C97.206,178.81 96.753,178.385 95.279,178.385 C93.947,178.385 93.55,178.782 93.125,179.151 C92.529,179.689 91.906,180.256 89.978,180.256 C88.192,180.256 87.625,179.746 87.03,179.207 C86.605,178.81 86.18,178.385 84.677,178.385 C83.345,178.385 82.948,178.754 82.551,179.151 C81.956,179.689 81.332,180.256 79.376,180.256 C77.591,180.256 77.024,179.746 76.428,179.207 C76.003,178.81 75.578,178.385 74.076,178.385 C72.743,178.385 72.347,178.754 71.95,179.151 C71.354,179.689 70.731,180.256 68.775,180.256 C66.989,180.256 66.422,179.746 65.827,179.207 C65.402,178.81 64.976,178.385 63.474,178.385 C62.142,178.385 61.745,178.754 61.348,179.151 C60.753,179.689 60.129,180.256 58.173,180.256 C56.416,180.256 55.849,179.746 55.254,179.207 C54.828,178.81 54.375,178.385 52.872,178.385 C51.569,178.385 51.172,178.754 50.747,179.151 C50.151,179.689 49.528,180.256 47.6,180.256 C45.814,180.256 45.247,179.746 44.652,179.207 C44.227,178.81 43.773,178.385 42.299,178.385 C40.967,178.385 40.57,178.754 40.145,179.151 C39.55,179.689 38.926,180.256 36.998,180.256 C35.213,180.256 34.646,179.746 34.05,179.207 C33.625,178.81 33.172,178.385 31.698,178.385 C30.365,178.385 29.969,178.754 29.572,179.151 C28.976,179.689 28.353,180.256 26.397,180.256 C24.611,180.256 24.044,179.746 23.449,179.207 L23.421,179.179 C22.995,178.782 22.542,178.385 21.096,178.385 C19.764,178.385 19.367,178.754 18.97,179.151 C18.375,179.689 17.751,180.256 15.795,180.256 C14.01,180.256 13.443,179.746 12.847,179.207 C12.422,178.81 11.997,178.385 10.495,178.385 C10.154,178.385 9.899,178.13 9.899,177.79 C9.899,177.478 10.154,177.195 10.495,177.195 C12.451,177.195 13.074,177.762 13.669,178.328 C14.066,178.697 14.463,179.065 15.795,179.065 C17.298,179.065 17.723,178.669 18.148,178.272 C18.743,177.733 19.31,177.195 21.096,177.195 C23.024,177.195 23.647,177.762 24.243,178.3 L24.271,178.328 C24.668,178.697 25.065,179.065 26.397,179.065 C27.899,179.065 28.325,178.669 28.75,178.272 C29.345,177.733 29.912,177.195 31.698,177.195 C33.625,177.195 34.249,177.762 34.844,178.328 C35.269,178.697 35.666,179.065 36.998,179.065 C38.473,179.065 38.926,178.669 39.351,178.272 C39.947,177.733 40.513,177.195 42.299,177.195 C44.227,177.195 44.85,177.762 45.446,178.328 C45.871,178.697 46.268,179.065 47.6,179.065 C49.074,179.065 49.528,178.669 49.953,178.272 C50.52,177.733 51.115,177.195 52.872,177.195 C54.828,177.195 55.452,177.762 56.047,178.328 C56.473,178.697 56.869,179.065 58.173,179.065 C59.676,179.065 60.101,178.669 60.526,178.272 C61.121,177.733 61.688,177.195 63.474,177.195 C65.43,177.195 66.054,177.762 66.649,178.328 C67.046,178.697 67.443,179.065 68.775,179.065 C70.277,179.065 70.702,178.669 71.128,178.272 C71.723,177.733 72.29,177.195 74.076,177.195 C76.032,177.195 76.655,177.762 77.25,178.328 C77.647,178.697 78.044,179.065 79.376,179.065 C80.879,179.065 81.304,178.669 81.729,178.272 C82.324,177.733 82.891,177.195 84.677,177.195 C86.633,177.195 87.228,177.762 87.852,178.328 C88.249,178.697 88.646,179.065 89.978,179.065 C91.452,179.065 91.906,178.669 92.331,178.272 C92.898,177.733 93.493,177.195 95.279,177.195 C97.206,177.195 97.83,177.762 98.425,178.328 C98.85,178.697 99.247,179.065 100.58,179.065 C102.054,179.065 102.507,178.669 102.932,178.272 C103.528,177.733 104.095,177.195 105.88,177.195 C107.808,177.195 108.432,177.762 109.027,178.328 C109.452,178.697 109.849,179.065 111.181,179.065 C112.655,179.065 113.109,178.669 113.534,178.272 C114.129,177.733 114.696,177.195 116.454,177.195 C118.41,177.195 119.033,177.762 119.628,178.328 C120.054,178.697 120.45,179.065 121.754,179.065 C123.257,179.065 123.682,178.669 124.107,178.272 C124.702,177.733 125.269,177.195 127.055,177.195 C129.011,177.195 129.635,177.762 130.23,178.328 C130.627,178.697 131.024,179.065 132.356,179.065 C133.858,179.065 134.284,178.669 134.709,178.272 C135.304,177.733 135.871,177.195 137.657,177.195 C139.613,177.195 140.236,177.762 140.832,178.328 C141.228,178.697 141.625,179.065 142.958,179.065 C144.46,179.065 144.885,178.669 145.31,178.272 C145.906,177.733 146.473,177.195 148.258,177.195 C150.214,177.195 150.838,177.762 151.433,178.328 C151.83,178.697 152.227,179.065 153.531,179.065 C155.033,179.065 155.487,178.669 155.912,178.272 C156.507,177.733 157.074,177.195 158.832,177.195 C160.787,177.195 161.411,177.762 162.006,178.328 C162.432,178.697 162.828,179.065 164.132,179.065 C165.635,179.065 166.088,178.669 166.513,178.272 C167.109,177.733 167.676,177.195 169.433,177.195 C171.389,177.195 172.013,177.762 172.608,178.328 C173.033,178.697 173.43,179.065 174.734,179.065 C176.236,179.065 176.69,178.669 177.115,178.272 C177.71,177.733 178.277,177.195 180.035,177.195" id="Fill-143"></path>
            <path d="M180.035,183.714 C180.347,183.714 180.63,183.969 180.63,184.31 C180.63,184.621 180.347,184.905 180.035,184.905 C178.731,184.905 178.334,185.273 177.909,185.642 C177.313,186.209 176.69,186.804 174.734,186.804 C172.976,186.804 172.41,186.266 171.814,185.699 C171.389,185.302 170.935,184.905 169.433,184.905 C168.129,184.905 167.732,185.273 167.307,185.642 C166.712,186.209 166.088,186.804 164.132,186.804 C162.375,186.804 161.808,186.266 161.213,185.699 C160.787,185.302 160.334,184.905 158.832,184.905 C157.528,184.905 157.131,185.273 156.706,185.642 C156.11,186.209 155.487,186.804 153.531,186.804 C151.773,186.804 151.206,186.266 150.611,185.699 C150.186,185.302 149.761,184.905 148.258,184.905 C146.926,184.905 146.529,185.273 146.132,185.642 C145.537,186.209 144.913,186.804 142.958,186.804 C141.172,186.804 140.605,186.266 140.01,185.699 C139.584,185.302 139.159,184.905 137.657,184.905 C136.324,184.905 135.928,185.273 135.531,185.642 C134.935,186.209 134.312,186.804 132.356,186.804 C130.57,186.804 130.003,186.266 129.408,185.699 C128.983,185.302 128.558,184.905 127.055,184.905 C125.723,184.905 125.326,185.273 124.929,185.642 C124.334,186.209 123.71,186.804 121.754,186.804 C119.997,186.804 119.43,186.266 118.835,185.699 C118.41,185.302 117.956,184.905 116.454,184.905 C115.15,184.905 114.753,185.273 114.356,185.642 C113.732,186.209 113.137,186.804 111.181,186.804 C109.395,186.804 108.828,186.266 108.233,185.699 C107.808,185.302 107.354,184.905 105.88,184.905 C104.548,184.905 104.151,185.273 103.754,185.642 C103.131,186.209 102.507,186.804 100.58,186.804 C98.794,186.804 98.227,186.266 97.632,185.699 C97.206,185.302 96.753,184.905 95.279,184.905 C93.947,184.905 93.55,185.273 93.125,185.67 C92.529,186.209 91.906,186.804 89.978,186.804 C88.192,186.804 87.625,186.266 87.03,185.699 C86.605,185.302 86.18,184.905 84.677,184.905 C83.345,184.905 82.948,185.273 82.551,185.642 C81.956,186.209 81.332,186.804 79.376,186.804 C77.591,186.804 77.024,186.266 76.428,185.699 C76.003,185.302 75.578,184.905 74.076,184.905 C72.772,184.905 72.347,185.273 71.95,185.642 C71.354,186.209 70.731,186.804 68.775,186.804 C66.989,186.804 66.422,186.266 65.827,185.699 C65.402,185.302 64.976,184.905 63.474,184.905 C62.17,184.905 61.745,185.273 61.348,185.642 C60.753,186.209 60.129,186.804 58.173,186.804 C56.416,186.804 55.821,186.266 55.254,185.727 C54.8,185.302 54.375,184.905 52.872,184.905 C51.569,184.905 51.172,185.273 50.747,185.642 C50.151,186.209 49.556,186.804 47.6,186.804 C45.814,186.804 45.247,186.266 44.652,185.699 C44.227,185.302 43.773,184.905 42.299,184.905 C40.967,184.905 40.57,185.273 40.145,185.67 C39.55,186.209 38.926,186.804 36.998,186.804 C35.213,186.804 34.646,186.266 34.05,185.699 C33.625,185.302 33.172,184.905 31.698,184.905 C30.394,184.905 29.969,185.273 29.572,185.642 C28.976,186.209 28.353,186.804 26.397,186.804 C24.611,186.804 24.044,186.266 23.449,185.699 C23.024,185.302 22.599,184.905 21.096,184.905 C19.764,184.905 19.367,185.273 18.97,185.642 C18.375,186.209 17.751,186.804 15.795,186.804 C14.01,186.804 13.443,186.266 12.847,185.699 C12.422,185.302 11.997,184.905 10.495,184.905 C10.154,184.905 9.899,184.621 9.899,184.31 C9.899,183.969 10.154,183.714 10.495,183.714 C12.451,183.714 13.074,184.281 13.669,184.848 C14.066,185.217 14.491,185.614 15.795,185.614 C17.298,185.614 17.723,185.188 18.148,184.791 C18.743,184.253 19.31,183.714 21.096,183.714 C23.052,183.714 23.676,184.281 24.271,184.848 C24.668,185.217 25.065,185.614 26.397,185.614 C27.899,185.614 28.325,185.188 28.75,184.791 C29.345,184.253 29.912,183.714 31.698,183.714 C33.625,183.714 34.249,184.281 34.844,184.848 C35.269,185.217 35.666,185.614 36.998,185.614 C38.473,185.614 38.926,185.188 39.351,184.791 C39.947,184.253 40.513,183.714 42.299,183.714 C44.227,183.714 44.85,184.281 45.446,184.848 C45.871,185.217 46.268,185.614 47.6,185.614 C49.074,185.614 49.528,185.188 49.953,184.791 C50.52,184.253 51.115,183.714 52.872,183.714 C54.828,183.714 55.452,184.281 56.047,184.848 C56.473,185.217 56.869,185.614 58.173,185.614 C59.676,185.614 60.101,185.188 60.526,184.791 C61.121,184.253 61.688,183.714 63.474,183.714 C65.43,183.714 66.054,184.281 66.649,184.848 C67.046,185.217 67.443,185.614 68.775,185.614 C70.277,185.614 70.702,185.188 71.128,184.791 C71.723,184.253 72.29,183.714 74.076,183.714 C76.032,183.714 76.655,184.281 77.25,184.848 C77.647,185.217 78.044,185.614 79.376,185.614 C80.879,185.614 81.304,185.188 81.729,184.791 C82.324,184.253 82.891,183.714 84.677,183.714 C86.633,183.714 87.257,184.281 87.852,184.848 C88.249,185.217 88.646,185.614 89.978,185.614 C91.452,185.614 91.877,185.188 92.331,184.791 C92.898,184.253 93.493,183.714 95.279,183.714 C97.206,183.714 97.83,184.281 98.425,184.848 C98.85,185.217 99.247,185.614 100.58,185.614 C102.054,185.614 102.507,185.188 102.932,184.791 C103.528,184.253 104.095,183.714 105.88,183.714 C107.808,183.714 108.432,184.281 109.027,184.848 C109.452,185.217 109.849,185.614 111.181,185.614 C112.655,185.614 113.109,185.188 113.534,184.791 C114.101,184.253 114.696,183.714 116.454,183.714 C118.41,183.714 119.033,184.281 119.628,184.848 C120.054,185.217 120.45,185.614 121.754,185.614 C123.257,185.614 123.682,185.188 124.107,184.791 C124.702,184.253 125.269,183.714 127.055,183.714 C129.011,183.714 129.635,184.281 130.23,184.848 C130.627,185.217 131.024,185.614 132.356,185.614 C133.858,185.614 134.284,185.188 134.709,184.791 C135.304,184.253 135.871,183.714 137.657,183.714 C139.613,183.714 140.236,184.281 140.832,184.848 C141.228,185.217 141.625,185.614 142.958,185.614 C144.432,185.614 144.885,185.188 145.31,184.791 C145.906,184.253 146.473,183.714 148.258,183.714 C150.214,183.714 150.838,184.281 151.433,184.848 C151.83,185.217 152.255,185.614 153.531,185.614 C155.033,185.614 155.487,185.188 155.912,184.791 C156.507,184.253 157.074,183.714 158.832,183.714 C160.787,183.714 161.411,184.281 162.006,184.848 C162.432,185.217 162.828,185.614 164.132,185.614 C165.635,185.614 166.088,185.188 166.513,184.791 C167.109,184.253 167.676,183.714 169.433,183.714 C171.389,183.714 172.013,184.281 172.608,184.848 C173.033,185.217 173.43,185.614 174.734,185.614 C176.236,185.614 176.69,185.188 177.115,184.791 C177.682,184.225 178.277,183.714 180.035,183.714" id="Fill-144"></path>
            <path d="M123.342,97.626 C123.342,97.966 123.058,98.221 122.747,98.221 C122.406,98.221 122.151,97.966 122.151,97.626 L122.151,56.184 C122.151,56.014 122.236,55.843 122.35,55.73 L125.298,53.094 L125.298,43.003 C125.298,42.691 125.581,42.407 125.893,42.407 L127.48,42.407 L127.48,39.516 C127.48,39.204 127.736,38.921 128.076,38.921 L129.635,38.921 L129.635,36.029 C129.635,35.717 129.89,35.434 130.23,35.434 L131.789,35.434 L131.789,32.543 C131.789,32.202 132.073,31.947 132.384,31.947 L133.972,31.947 L133.972,29.765 C133.972,29.425 134.227,29.169 134.567,29.169 L140.236,29.169 C140.548,29.169 140.832,29.425 140.832,29.765 L140.832,31.947 L142.391,31.947 C142.731,31.947 142.986,32.202 142.986,32.543 L142.986,35.434 L144.545,35.434 C144.885,35.434 145.14,35.717 145.14,36.029 L145.14,38.921 L146.728,38.921 C147.039,38.921 147.323,39.204 147.323,39.516 L147.323,42.407 L148.882,42.407 C149.222,42.407 149.477,42.691 149.477,43.003 L149.477,53.349 C149.477,53.689 149.222,53.944 148.882,53.944 C148.57,53.944 148.287,53.689 148.287,53.349 L148.287,43.598 L146.728,43.598 C146.387,43.598 146.132,43.343 146.132,43.003 L146.132,40.111 L144.545,40.111 C144.233,40.111 143.95,39.856 143.95,39.516 L143.95,36.625 L142.391,36.625 C142.05,36.625 141.795,36.369 141.795,36.029 L141.795,33.138 L140.236,33.138 C139.896,33.138 139.641,32.883 139.641,32.543 L139.641,30.36 L135.162,30.36 L135.162,32.543 C135.162,32.883 134.879,33.138 134.567,33.138 L132.98,33.138 L132.98,36.029 C132.98,36.369 132.724,36.625 132.384,36.625 L130.825,36.625 L130.825,39.516 C130.825,39.856 130.57,40.111 130.23,40.111 L128.671,40.111 L128.671,43.003 C128.671,43.343 128.387,43.598 128.076,43.598 L126.488,43.598 L126.488,53.349 C126.488,53.519 126.432,53.689 126.29,53.802 L123.342,56.467 L123.342,97.626" id="Fill-145"></path>
            <path d="M110.387,99.299 C110.387,99.61 110.132,99.894 109.792,99.894 C109.48,99.894 109.197,99.639 109.197,99.299 L108.885,79.258 C108.885,79.116 108.942,79.003 108.998,78.889 L110.132,77.33 L110.132,68.996 C110.132,68.854 110.189,68.713 110.274,68.628 L111.975,66.247 L111.975,58.31 C111.975,57.969 112.258,57.714 112.57,57.714 L113.874,57.714 L113.874,55.39 C113.874,55.078 114.158,54.795 114.469,54.795 L115.773,54.795 L115.773,52.499 C115.773,52.158 116.028,51.903 116.369,51.903 L117.673,51.903 L117.673,49.607 C117.673,49.267 117.928,49.012 118.268,49.012 L119.572,49.012 L119.572,47.283 C119.572,46.971 119.827,46.688 120.167,46.688 L123.994,46.688 C124.334,46.688 124.589,46.971 124.589,47.283 L124.589,49.012 L125.893,49.012 C126.233,49.012 126.488,49.267 126.488,49.607 C126.488,49.919 126.233,50.202 125.893,50.202 L123.994,50.202 C123.682,50.202 123.398,49.919 123.398,49.607 L123.398,47.878 L120.762,47.878 L120.762,49.607 C120.762,49.919 120.479,50.202 120.167,50.202 L118.863,50.202 L118.863,52.499 C118.863,52.839 118.58,53.094 118.268,53.094 L116.964,53.094 L116.964,55.39 C116.964,55.73 116.709,55.985 116.369,55.985 L115.065,55.985 L115.065,58.31 C115.065,58.621 114.81,58.905 114.469,58.905 L113.165,58.905 L113.165,66.445 C113.165,66.558 113.137,66.672 113.052,66.785 L111.323,69.195 L111.323,77.528 C111.323,77.642 111.295,77.755 111.21,77.869 L110.076,79.428 L110.387,99.299" id="Fill-146"></path>
            <path d="M165.89,115.031 C165.89,115.343 165.635,115.626 165.295,115.626 C164.983,115.626 164.699,115.343 164.699,115.031 L164.699,79.428 L163.565,77.869 C163.48,77.755 163.452,77.642 163.452,77.528 L163.452,69.195 L161.723,66.785 C161.638,66.672 161.609,66.558 161.609,66.445 L161.609,58.905 L160.306,58.905 C159.994,58.905 159.71,58.621 159.71,58.31 L159.71,55.985 L158.406,55.985 C158.095,55.985 157.811,55.73 157.811,55.39 L157.811,53.094 L156.536,53.094 C156.195,53.094 155.94,52.839 155.94,52.499 L155.94,50.202 L154.636,50.202 C154.296,50.202 154.041,49.919 154.041,49.607 L154.041,47.878 L151.376,47.878 L151.376,49.607 C151.376,49.919 151.121,50.202 150.781,50.202 L149.477,50.202 L149.477,53.122 L152.482,56.41 C152.595,56.524 152.652,56.665 152.652,56.807 L152.652,116.845 C152.652,117.185 152.369,117.44 152.057,117.44 C151.717,117.44 151.461,117.185 151.461,116.845 L151.461,57.062 L148.485,53.774 C148.372,53.661 148.287,53.519 148.287,53.349 L148.287,49.607 C148.287,49.267 148.57,49.012 148.882,49.012 L150.186,49.012 L150.186,47.283 C150.186,46.971 150.441,46.688 150.781,46.688 L154.636,46.688 C154.948,46.688 155.232,46.971 155.232,47.283 L155.232,49.012 L156.536,49.012 C156.847,49.012 157.131,49.267 157.131,49.607 L157.131,51.903 L158.406,51.903 C158.747,51.903 159.002,52.158 159.002,52.499 L159.002,54.795 L160.306,54.795 C160.646,54.795 160.901,55.078 160.901,55.39 L160.901,57.714 L162.205,57.714 C162.545,57.714 162.8,57.969 162.8,58.31 L162.8,66.247 L164.501,68.628 C164.586,68.713 164.643,68.854 164.643,68.996 L164.643,77.33 L165.748,78.861 C165.833,78.974 165.89,79.088 165.89,79.229 L165.89,115.031" id="Fill-147"></path>
            <path d="M137.997,68.911 C137.997,69.251 137.713,69.506 137.402,69.506 C137.062,69.506 136.806,69.251 136.806,68.911 L136.806,34.017 C136.806,33.677 137.062,33.421 137.402,33.421 C137.713,33.421 137.997,33.677 137.997,34.017 L137.997,68.911" id="Fill-148"></path>
            <path d="M135.616,71.576 C135.616,71.888 135.332,72.171 135.021,72.171 C134.68,72.171 134.425,71.888 134.425,71.576 L134.425,37.475 C134.425,37.135 134.68,36.88 135.021,36.88 C135.332,36.88 135.616,37.135 135.616,37.475 L135.616,71.576" id="Fill-149"></path>
            <path d="M136.636,130.338 C136.636,130.678 136.381,130.933 136.041,130.933 C135.729,130.933 135.446,130.678 135.446,130.338 L135.446,101.198 C135.446,100.886 135.701,100.603 136.041,100.603 C136.353,100.603 136.636,100.886 136.636,101.198 L136.636,130.338" id="Fill-150"></path>
            <path d="M140.378,71.576 C140.378,71.888 140.095,72.171 139.783,72.171 C139.443,72.171 139.188,71.888 139.188,71.576 L139.188,37.475 C139.188,37.135 139.443,36.88 139.783,36.88 C140.095,36.88 140.378,37.135 140.378,37.475 L140.378,71.576" id="Fill-151"></path>
            <path d="M139.358,125.632 C139.358,125.944 139.074,126.228 138.762,126.228 C138.422,126.228 138.167,125.944 138.167,125.632 L138.167,101.198 C138.167,100.886 138.422,100.603 138.762,100.603 C139.074,100.603 139.358,100.886 139.358,101.198 L139.358,125.632" id="Fill-152"></path>
            <path d="M133.235,73.447 C133.235,73.758 132.951,74.042 132.639,74.042 C132.299,74.042 132.044,73.758 132.044,73.447 L132.044,40.735 C132.044,40.395 132.299,40.139 132.639,40.139 C132.951,40.139 133.235,40.395 133.235,40.735 L133.235,73.447" id="Fill-153"></path>
            <path d="M133.915,135.157 C133.915,135.497 133.632,135.752 133.32,135.752 C132.98,135.752 132.724,135.497 132.724,135.157 L132.724,104.146 C132.724,103.834 132.98,103.551 133.32,103.551 C133.632,103.551 133.915,103.834 133.915,104.146 L133.915,135.157" id="Fill-154"></path>
            <path d="M142.759,73.447 C142.759,73.758 142.476,74.042 142.164,74.042 C141.824,74.042 141.569,73.758 141.569,73.447 L141.569,40.735 C141.569,40.395 141.824,40.139 142.164,40.139 C142.476,40.139 142.759,40.395 142.759,40.735 L142.759,73.447" id="Fill-155"></path>
            <path d="M142.079,120.757 C142.079,121.069 141.795,121.352 141.484,121.352 C141.143,121.352 140.888,121.069 140.888,120.757 L140.888,103.38 C140.888,103.069 141.143,102.785 141.484,102.785 C141.795,102.785 142.079,103.069 142.079,103.38 L142.079,120.757" id="Fill-156"></path>
            <path d="M130.825,75.856 C130.825,76.168 130.57,76.451 130.23,76.451 C129.918,76.451 129.635,76.168 129.635,75.856 L129.635,43.116 C129.635,42.804 129.918,42.521 130.23,42.521 C130.57,42.521 130.825,42.804 130.825,43.116 L130.825,75.856" id="Fill-157"></path>
            <path d="M145.14,75.856 C145.14,76.168 144.857,76.451 144.545,76.451 C144.205,76.451 143.95,76.168 143.95,75.856 L143.95,43.116 C143.95,42.804 144.205,42.521 144.545,42.521 C144.857,42.521 145.14,42.804 145.14,43.116 L145.14,75.856" id="Fill-158"></path>
            <path d="M144.8,117.979 C144.8,118.319 144.517,118.574 144.205,118.574 C143.865,118.574 143.609,118.319 143.609,117.979 L143.609,104.996 C143.609,104.684 143.865,104.401 144.205,104.401 C144.517,104.401 144.8,104.684 144.8,104.996 L144.8,117.979" id="Fill-159"></path>
            <path d="M128.444,80.165 C128.444,80.477 128.189,80.76 127.849,80.76 C127.537,80.76 127.254,80.477 127.254,80.165 L127.254,47.453 C127.254,47.113 127.537,46.858 127.849,46.858 C128.189,46.858 128.444,47.113 128.444,47.453 L128.444,80.165" id="Fill-160"></path>
            <path d="M147.521,80.165 C147.521,80.477 147.266,80.76 146.926,80.76 C146.586,80.76 146.331,80.477 146.331,80.165 L146.331,47.453 C146.331,47.113 146.586,46.858 146.926,46.858 C147.266,46.858 147.521,47.113 147.521,47.453 L147.521,80.165" id="Fill-161"></path>
            <path d="M147.521,117.299 C147.521,117.639 147.266,117.894 146.926,117.894 C146.586,117.894 146.331,117.639 146.331,117.299 L146.331,107.916 C146.331,107.576 146.586,107.321 146.926,107.321 C147.266,107.321 147.521,107.576 147.521,107.916 L147.521,117.299" id="Fill-162"></path>
            <path d="M121.301,88.045 C121.301,88.385 121.046,88.64 120.706,88.64 C120.365,88.64 120.11,88.385 120.11,88.045 L120.11,53.973 C120.11,53.632 120.365,53.377 120.706,53.377 C121.046,53.377 121.301,53.632 121.301,53.973 L121.301,88.045" id="Fill-163"></path>
            <path d="M154.665,88.045 C154.665,88.385 154.41,88.64 154.069,88.64 C153.758,88.64 153.474,88.385 153.474,88.045 L153.474,53.973 C153.474,53.632 153.758,53.377 154.069,53.377 C154.41,53.377 154.665,53.632 154.665,53.973 L154.665,88.045" id="Fill-164"></path>
            <path d="M119.26,89.944 C119.26,90.256 119.005,90.54 118.665,90.54 C118.353,90.54 118.069,90.256 118.069,89.944 L118.069,57.204 C118.069,56.892 118.353,56.609 118.665,56.609 C119.005,56.609 119.26,56.892 119.26,57.204 L119.26,89.944" id="Fill-165"></path>
            <path d="M156.706,89.944 C156.706,90.256 156.45,90.54 156.11,90.54 C155.77,90.54 155.515,90.256 155.515,89.944 L155.515,57.204 C155.515,56.892 155.77,56.609 156.11,56.609 C156.45,56.609 156.706,56.892 156.706,57.204 L156.706,89.944" id="Fill-166"></path>
            <path d="M117.247,92.354 C117.247,92.665 116.964,92.949 116.652,92.949 C116.312,92.949 116.057,92.665 116.057,92.354 L116.057,59.614 C116.057,59.302 116.312,59.018 116.652,59.018 C116.964,59.018 117.247,59.302 117.247,59.614 L117.247,92.354" id="Fill-167"></path>
            <path d="M158.747,92.354 C158.747,92.665 158.463,92.949 158.151,92.949 C157.811,92.949 157.556,92.665 157.556,92.354 L157.556,59.614 C157.556,59.302 157.811,59.018 158.151,59.018 C158.463,59.018 158.747,59.302 158.747,59.614 L158.747,92.354" id="Fill-168"></path>
            <path d="M115.206,98.59 C115.206,98.93 114.951,99.185 114.611,99.185 C114.299,99.185 114.016,98.93 114.016,98.59 L114.016,63.922 C114.016,63.61 114.299,63.327 114.611,63.327 C114.951,63.327 115.206,63.61 115.206,63.922 L115.206,98.59" id="Fill-169"></path>
            <path d="M160.759,115.938 C160.759,116.278 160.504,116.533 160.164,116.533 C159.852,116.533 159.569,116.278 159.569,115.938 L159.569,63.922 C159.569,63.61 159.852,63.327 160.164,63.327 C160.504,63.327 160.759,63.61 160.759,63.922 L160.759,115.938" id="Fill-170"></path>
            <path d="M109.962,79.598 C109.764,79.853 109.395,79.91 109.14,79.711 C108.885,79.541 108.828,79.144 108.998,78.889 L112.457,74.127 C112.655,73.872 113.024,73.815 113.279,74.014 C113.562,74.212 113.619,74.58 113.421,74.836 L109.962,79.598" id="Fill-171"></path>
            <path d="M165.776,78.889 C165.975,79.144 165.918,79.541 165.635,79.711 C165.38,79.91 165.011,79.853 164.813,79.598 L161.354,74.836 C161.184,74.58 161.241,74.212 161.496,74.014 C161.751,73.815 162.12,73.872 162.318,74.127 L165.776,78.889" id="Fill-172"></path>
            <path d="M165.776,104.628 C165.975,104.911 165.918,105.28 165.635,105.478 C165.38,105.648 165.011,105.591 164.813,105.336 L159.682,98.278 C159.512,98.023 159.569,97.654 159.824,97.456 C160.079,97.258 160.447,97.314 160.646,97.569 L165.776,104.628" id="Fill-173"></path>
            <path d="M139.953,80.562 C139.301,79.91 138.394,79.484 137.402,79.484 C136.381,79.484 135.474,79.91 134.822,80.562 C134.17,81.214 133.773,82.121 133.773,83.113 C133.773,84.105 134.17,85.012 134.822,85.692 C135.474,86.344 136.381,86.741 137.402,86.741 C138.394,86.741 139.301,86.344 139.953,85.692 C140.605,85.012 141.03,84.105 141.03,83.113 C141.03,82.121 140.605,81.214 139.953,80.562 Z M137.402,78.294 C138.734,78.294 139.924,78.832 140.803,79.711 C141.682,80.59 142.221,81.78 142.221,83.113 C142.221,84.445 141.682,85.636 140.803,86.514 C139.924,87.393 138.734,87.932 137.402,87.932 C136.069,87.932 134.85,87.393 134,86.514 C133.121,85.636 132.583,84.445 132.583,83.113 C132.583,81.78 133.121,80.59 134,79.711 C134.85,78.832 136.069,78.294 137.402,78.294 Z" id="Fill-174"></path>
            <path d="M63.984,7.343 C63.984,7.654 63.701,7.938 63.389,7.938 C63.049,7.938 62.794,7.654 62.794,7.343 L62.794,0.653 C62.794,0.313 63.049,0.058 63.389,0.058 C63.701,0.058 63.984,0.313 63.984,0.653 L63.984,7.343 Z M63.984,17.632 C63.984,17.944 63.701,18.228 63.389,18.228 C63.049,18.228 62.794,17.944 62.794,17.632 L62.794,14.826 C62.794,14.514 63.049,14.231 63.389,14.231 C63.701,14.231 63.984,14.514 63.984,14.826 L63.984,17.632 Z" id="Fill-175"></path>
            <path d="M61.036,32.146 C61.036,32.486 60.781,32.741 60.441,32.741 C60.129,32.741 59.846,32.486 59.846,32.146 L59.846,21.346 C59.846,20.297 60.243,19.362 60.866,18.653 C61.518,17.973 62.397,17.519 63.389,17.519 C64.381,17.519 65.26,17.973 65.912,18.653 C66.536,19.362 66.904,20.297 66.904,21.346 L66.904,30.076 C66.904,30.417 66.649,30.672 66.309,30.672 L66.252,30.672 C65.912,30.672 65.657,30.417 65.657,30.076 C65.657,29.992 65.685,29.878 65.713,29.793 L65.713,21.346 C65.713,20.609 65.458,19.957 65.033,19.475 C64.608,18.993 64.013,18.71 63.389,18.71 C62.737,18.71 62.17,18.993 61.745,19.475 C61.32,19.957 61.036,20.609 61.036,21.346 L61.036,32.146" id="Fill-176"></path>
            <path d="M67.329,30.757 C66.961,30.7 66.564,30.672 66.167,30.672 C64.239,30.672 62.454,31.324 61.036,32.401 C59.591,33.478 58.513,35.009 57.975,36.766 L57.975,46.291 C59.109,45.355 60.384,44.59 61.773,44.023 C63.502,43.314 65.43,42.917 67.414,42.917 C67.584,42.917 67.783,42.946 68.038,42.946 L68.038,30.87 C67.811,30.842 67.556,30.785 67.329,30.757 Z M66.167,29.481 C66.621,29.481 67.046,29.51 67.499,29.595 C67.924,29.651 68.35,29.736 68.775,29.85 C69.03,29.906 69.228,30.162 69.228,30.417 L69.228,43.569 C69.228,43.91 68.945,44.165 68.633,44.165 L68.548,44.165 C68.35,44.136 68.151,44.136 68.01,44.136 C67.839,44.136 67.641,44.108 67.414,44.108 C65.572,44.108 63.814,44.477 62.227,45.128 C60.554,45.809 59.052,46.801 57.776,48.048 C57.55,48.275 57.181,48.275 56.954,48.048 C56.841,47.935 56.784,47.765 56.784,47.623 L56.784,36.681 C56.784,36.625 56.784,36.54 56.813,36.483 C57.408,34.442 58.655,32.684 60.328,31.437 C61.943,30.218 63.984,29.481 66.167,29.481 Z" id="Fill-177"></path>
            <path d="M54.233,71.236 C54.233,71.576 53.978,71.831 53.638,71.831 C53.298,71.831 53.043,71.576 53.043,71.236 L53.043,53.859 C53.043,53.774 53.043,53.717 53.071,53.632 C54.006,50.514 55.906,47.821 58.457,45.922 C60.951,44.051 64.069,42.917 67.414,42.917 C68.095,42.917 68.775,42.974 69.427,43.059 C70.107,43.144 70.759,43.286 71.411,43.484 C71.666,43.541 71.836,43.796 71.836,44.051 L71.836,65.311 C71.836,65.651 71.581,65.906 71.241,65.906 C70.929,65.906 70.646,65.651 70.646,65.311 L70.646,44.505 C70.192,44.391 69.739,44.306 69.285,44.25 C68.661,44.165 68.038,44.108 67.414,44.108 C64.324,44.108 61.461,45.128 59.165,46.858 C56.841,48.615 55.084,51.081 54.233,53.944 L54.233,71.236" id="Fill-178"></path>
            <path d="M50.832,88.584 C50.832,88.895 50.576,89.179 50.236,89.179 C49.896,89.179 49.641,88.895 49.641,88.584 L49.641,76.423 C49.641,76.338 49.669,76.225 49.698,76.168 C50.973,72.795 53.638,69.875 57.153,67.834 C60.554,65.821 64.806,64.659 69.398,64.659 C70.334,64.659 71.269,64.688 72.176,64.801 C73.084,64.886 73.991,65.028 74.869,65.226 C75.153,65.283 75.351,65.538 75.351,65.793 L75.351,86.854 C75.351,87.195 75.068,87.45 74.756,87.45 C74.416,87.45 74.161,87.195 74.161,86.854 L74.161,66.303 C73.452,66.162 72.772,66.048 72.035,65.963 C71.184,65.878 70.306,65.85 69.398,65.85 C65.033,65.85 60.98,66.955 57.748,68.854 C54.488,70.754 52.022,73.418 50.832,76.536 L50.832,88.584" id="Fill-179"></path>
            <path d="M66.394,43.626 C66.394,43.938 66.139,44.221 65.799,44.221 C65.487,44.221 65.203,43.938 65.203,43.626 L65.203,34.725 C65.203,34.385 65.487,34.13 65.799,34.13 C66.139,34.13 66.394,34.385 66.394,34.725 L66.394,43.626" id="Fill-180"></path>
            <path d="M63.587,44.136 C63.587,44.448 63.332,44.732 62.992,44.732 C62.68,44.732 62.397,44.448 62.397,44.136 L62.397,36.029 C62.397,35.717 62.68,35.434 62.992,35.434 C63.332,35.434 63.587,35.717 63.587,36.029 L63.587,44.136" id="Fill-181"></path>
            <path d="M60.781,45.384 C60.781,45.695 60.526,45.979 60.186,45.979 C59.846,45.979 59.591,45.695 59.591,45.384 L59.591,37.9 C59.591,37.56 59.846,37.305 60.186,37.305 C60.526,37.305 60.781,37.56 60.781,37.9 L60.781,45.384" id="Fill-182"></path>
            <path d="M56.643,69.223 C56.643,69.563 56.387,69.818 56.047,69.818 C55.736,69.818 55.452,69.563 55.452,69.223 L55.452,57.658 C55.452,57.317 55.736,57.062 56.047,57.062 C56.387,57.062 56.643,57.317 56.643,57.658 L56.643,69.223" id="Fill-183"></path>
            <path d="M61.575,65.85 L61.575,55.078 C61.575,54.795 61.461,54.54 61.263,54.341 C61.093,54.171 60.838,54.029 60.554,54.029 C60.271,54.029 60.016,54.171 59.817,54.341 C59.647,54.54 59.534,54.795 59.534,55.078 L59.534,66.643 C59.789,66.53 60.044,66.417 60.299,66.303 C60.724,66.133 61.15,65.991 61.575,65.85 Z M62.765,55.106 L62.765,66.303 C62.765,66.558 62.595,66.814 62.34,66.87 C61.773,67.04 61.235,67.21 60.724,67.409 C60.186,67.636 59.676,67.862 59.194,68.089 C58.882,68.231 58.542,68.117 58.4,67.806 C58.343,67.721 58.343,67.636 58.343,67.551 L58.343,55.078 C58.343,54.454 58.57,53.916 58.967,53.519 C59.392,53.094 59.931,52.839 60.554,52.839 C61.15,52.839 61.717,53.094 62.113,53.491 C62.51,53.916 62.765,54.454 62.765,55.078 L62.765,55.106 Z" id="Fill-184"></path>
            <path d="M68.066,64.688 L68.066,52.414 C68.066,52.102 67.953,51.818 67.754,51.62 C67.584,51.421 67.329,51.28 67.046,51.28 C66.762,51.28 66.507,51.421 66.337,51.62 C66.139,51.818 66.025,52.102 66.025,52.414 L66.025,64.858 C66.337,64.829 66.649,64.801 66.989,64.773 C67.358,64.716 67.726,64.716 68.066,64.688 Z M69.257,52.442 L69.257,65.254 C69.257,65.595 69.002,65.85 68.661,65.85 L68.633,65.85 C68.123,65.878 67.613,65.906 67.102,65.935 C66.564,65.991 66.025,66.048 65.515,66.133 C65.203,66.19 64.891,65.963 64.835,65.651 L64.835,52.414 C64.835,51.79 65.062,51.195 65.458,50.798 C65.884,50.373 66.422,50.089 67.046,50.089 C67.669,50.089 68.236,50.373 68.633,50.798 C69.03,51.195 69.257,51.79 69.257,52.414 L69.257,52.442 Z" id="Fill-185"></path>
            <path d="M57.975,47.623 C57.975,47.963 57.691,48.218 57.38,48.218 C57.039,48.218 56.784,47.963 56.784,47.623 L56.784,36.681 C56.784,36.625 56.784,36.54 56.813,36.483 C57.408,34.442 58.655,32.684 60.328,31.437 C61.943,30.218 63.984,29.481 66.167,29.481 C66.621,29.481 67.046,29.51 67.499,29.595 C67.924,29.651 68.35,29.736 68.775,29.85 C69.03,29.906 69.228,30.162 69.228,30.417 L69.228,43.569 C69.228,43.91 68.945,44.165 68.633,44.165 C68.293,44.165 68.038,43.91 68.038,43.569 L68.038,30.87 C67.811,30.842 67.556,30.785 67.329,30.757 C66.961,30.7 66.564,30.672 66.167,30.672 C64.239,30.672 62.454,31.324 61.036,32.401 C59.591,33.478 58.513,35.009 57.975,36.766 L57.975,47.623" id="Fill-186"></path>
            <path d="M51.597,114.209 C51.597,114.549 51.88,114.804 52.192,114.804 C52.532,114.804 52.787,114.549 52.787,114.209 L52.787,87.393 C52.787,87.081 52.532,86.798 52.192,86.798 C52.079,86.798 51.965,86.854 51.88,86.911 L47.288,89.632 C47.09,89.746 46.976,89.944 46.976,90.143 L46.976,117.554 C46.976,117.865 47.26,118.149 47.572,118.149 C47.912,118.149 48.167,117.865 48.167,117.554 L48.167,90.483 L51.597,88.442 L51.597,114.209" id="Fill-187"></path>
            <path d="M52.306,87.988 C51.965,88.045 51.682,87.818 51.625,87.506 C51.569,87.195 51.795,86.883 52.107,86.826 L64.976,84.672 C65.317,84.615 65.6,84.814 65.657,85.154 L65.685,85.239 L65.685,115.371 C65.685,115.711 65.402,115.966 65.09,115.966 C64.75,115.966 64.495,115.711 64.495,115.371 L64.495,85.947 L52.306,87.988" id="Fill-188"></path>
            <path d="M64.976,85.834 C64.665,85.777 64.438,85.465 64.495,85.154 C64.551,84.814 64.863,84.615 65.175,84.672 L78.044,86.826 C78.384,86.883 78.583,87.195 78.554,87.506 C78.498,87.818 78.186,88.045 77.846,87.988 L64.976,85.834" id="Fill-189"></path>
            <path d="M67.726,85.097 L67.726,76.225 C67.726,75.913 67.613,75.629 67.414,75.431 C67.244,75.232 66.989,75.119 66.706,75.119 C66.422,75.119 66.167,75.232 65.997,75.431 C65.799,75.629 65.685,75.913 65.685,76.225 L65.685,84.757 L67.726,85.097 Z M68.917,76.253 L68.917,85.806 C68.917,86.117 68.661,86.401 68.321,86.401 C68.293,86.401 68.236,86.373 68.18,86.373 L64.976,85.834 C64.693,85.777 64.495,85.522 64.495,85.239 L64.495,76.225 C64.495,75.601 64.721,75.034 65.118,74.609 C65.543,74.184 66.082,73.928 66.706,73.928 C67.329,73.928 67.868,74.184 68.293,74.609 C68.69,75.034 68.917,75.601 68.917,76.225 L68.917,76.253 Z" id="Fill-190"></path>
            <path d="M59.789,85.522 L59.789,79.995 C59.789,79.683 59.676,79.399 59.477,79.201 C59.307,79.003 59.052,78.889 58.769,78.889 C58.485,78.889 58.23,79.003 58.06,79.201 C57.862,79.399 57.748,79.683 57.748,79.995 L57.748,85.862 L59.789,85.522 Z M60.98,80.023 L60.98,86.032 C60.98,86.344 60.753,86.599 60.441,86.628 L57.238,87.166 C56.926,87.223 56.614,86.996 56.558,86.684 L56.558,79.995 C56.558,79.371 56.784,78.804 57.181,78.379 C57.606,77.954 58.145,77.699 58.769,77.699 C59.392,77.699 59.931,77.954 60.356,78.379 C60.753,78.804 60.98,79.371 60.98,79.995 L60.98,80.023 Z" id="Fill-191"></path>
            <path d="M73.112,86.032 C73.112,86.373 72.857,86.628 72.517,86.628 C72.176,86.628 71.921,86.373 71.921,86.032 L71.921,74.212 C71.921,73.9 72.176,73.617 72.517,73.617 C72.857,73.617 73.112,73.9 73.112,74.212 L73.112,86.032" id="Fill-192"></path>
            <path d="M52.787,151.088 C52.787,151.399 52.504,151.683 52.192,151.683 C51.852,151.683 51.597,151.399 51.597,151.088 L51.625,114.209 C51.625,113.897 51.88,113.642 52.192,113.642 L77.25,115.881 C77.591,115.91 77.817,116.221 77.789,116.533 C77.761,116.873 77.477,117.1 77.137,117.072 L52.787,114.861 L52.787,151.088" id="Fill-193"></path>
            <path d="M51.852,113.755 C52.107,113.557 52.476,113.614 52.674,113.869 C52.872,114.124 52.816,114.492 52.561,114.691 L40.4,123.733 C40.145,123.903 39.748,123.875 39.578,123.591 C39.38,123.336 39.436,122.968 39.691,122.769 L51.852,113.755" id="Fill-194"></path>
            <path d="M71.439,115.371 L71.439,100.603 C71.439,100.206 71.298,99.865 71.071,99.61 C70.816,99.355 70.504,99.214 70.164,99.214 C69.795,99.214 69.484,99.355 69.257,99.61 C69.002,99.865 68.86,100.206 68.86,100.603 L68.86,115.144 L71.439,115.371 Z M72.63,100.631 L72.63,116.023 C72.63,116.335 72.375,116.618 72.035,116.618 C72.006,116.618 71.978,116.618 71.95,116.59 L68.208,116.25 C67.896,116.25 67.669,115.966 67.669,115.683 L67.669,100.603 C67.669,99.894 67.953,99.27 68.378,98.788 C68.832,98.306 69.455,98.023 70.164,98.023 C70.844,98.023 71.468,98.306 71.921,98.788 C72.375,99.27 72.63,99.894 72.63,100.603 L72.63,100.631 Z" id="Fill-195"></path>
            <path d="M71.213,93.374 C70.958,93.119 70.561,92.949 70.164,92.949 C69.739,92.949 69.37,93.119 69.087,93.374 C68.803,93.658 68.633,94.026 68.633,94.451 C68.633,94.877 68.803,95.245 69.087,95.528 C69.37,95.812 69.739,95.982 70.164,95.982 C70.561,95.982 70.958,95.812 71.213,95.528 C71.496,95.245 71.666,94.877 71.666,94.451 C71.666,94.026 71.496,93.658 71.213,93.374 Z M70.164,91.758 C70.901,91.758 71.581,92.042 72.063,92.552 C72.545,93.034 72.857,93.714 72.857,94.451 C72.857,95.217 72.545,95.869 72.063,96.379 C71.581,96.861 70.901,97.173 70.164,97.173 C69.398,97.173 68.718,96.861 68.236,96.379 C67.754,95.869 67.443,95.217 67.443,94.451 C67.443,93.714 67.754,93.034 68.236,92.552 C68.718,92.042 69.398,91.758 70.164,91.758 Z" id="Fill-196"></path>
            <path d="M56.898,114.577 C56.898,114.917 56.614,115.173 56.302,115.173 C55.962,115.173 55.707,114.917 55.707,114.577 L55.707,101.198 C55.707,100.489 55.962,99.865 56.416,99.384 C56.869,98.902 57.493,98.618 58.173,98.618 C58.882,98.618 59.506,98.902 59.959,99.384 C60.384,99.865 60.668,100.489 60.668,101.198 L60.668,114.946 C60.668,115.258 60.413,115.541 60.073,115.541 C59.732,115.541 59.477,115.258 59.477,114.946 L59.477,101.198 C59.477,100.801 59.336,100.461 59.08,100.206 C58.854,99.951 58.542,99.809 58.173,99.809 C57.833,99.809 57.521,99.951 57.295,100.206 C57.039,100.461 56.898,100.801 56.898,101.198 L56.898,114.577" id="Fill-197"></path>
            <path d="M59.25,93.969 C58.995,93.714 58.599,93.544 58.173,93.544 C57.776,93.544 57.38,93.714 57.125,93.969 C56.841,94.253 56.671,94.621 56.671,95.047 C56.671,95.472 56.841,95.84 57.125,96.124 C57.38,96.407 57.776,96.577 58.173,96.577 C58.599,96.577 58.995,96.407 59.25,96.124 C59.534,95.84 59.704,95.472 59.704,95.047 C59.704,94.621 59.534,94.253 59.25,93.969 Z M58.173,92.354 C58.939,92.354 59.619,92.637 60.101,93.147 C60.583,93.629 60.895,94.31 60.895,95.047 C60.895,95.812 60.583,96.464 60.101,96.974 C59.619,97.456 58.939,97.768 58.173,97.768 C57.436,97.768 56.756,97.456 56.274,96.974 C55.792,96.464 55.48,95.812 55.48,95.047 C55.48,94.31 55.792,93.629 56.274,93.147 C56.756,92.637 57.436,92.354 58.173,92.354 Z" id="Fill-198"></path>
            <path d="M50.293,116.023 C50.293,116.363 50.038,116.618 49.698,116.618 C49.358,116.618 49.102,116.363 49.102,116.023 L49.102,97.399 C49.102,97.088 49.358,96.804 49.698,96.804 C50.038,96.804 50.293,97.088 50.293,97.399 L50.293,116.023" id="Fill-199"></path>
            <path d="M78.554,115.343 C78.554,115.654 78.271,115.938 77.959,115.938 C77.619,115.938 77.364,115.654 77.364,115.343 L77.364,87.393 C77.364,87.081 77.619,86.798 77.959,86.798 C78.186,86.798 78.384,86.94 78.498,87.138 L81.304,92.155 C81.361,92.24 81.361,92.354 81.361,92.439 L81.361,111.317 C81.361,111.658 81.106,111.913 80.765,111.913 C80.454,111.913 80.17,111.658 80.17,111.317 L80.17,92.609 L78.554,89.689 L78.554,115.343" id="Fill-200"></path>
            <path d="M53.326,152.165 C53.128,152.448 52.759,152.505 52.504,152.335 C52.221,152.136 52.164,151.768 52.334,151.484 L81.446,109.277 C81.758,108.823 82.041,108.369 82.324,107.944 C83.827,105.677 85.329,103.38 87.909,102.133 L87.965,102.133 C88.362,101.935 88.958,101.736 89.695,101.566 C90.403,101.368 91.282,101.169 92.246,100.999 C97.802,99.951 107.043,98.987 113.562,98.306 C116.255,98.023 118.495,97.796 119.77,97.626 C120.11,97.569 120.394,97.796 120.45,98.136 C120.479,98.448 120.252,98.76 119.912,98.788 C118.551,98.958 116.34,99.214 113.676,99.497 C107.184,100.177 97.972,101.141 92.473,102.162 C91.509,102.332 90.658,102.53 89.978,102.7 C89.326,102.87 88.816,103.04 88.476,103.21 L88.447,103.21 C86.123,104.316 84.734,106.47 83.317,108.596 C83.005,109.078 82.721,109.532 82.438,109.957 L53.326,152.165" id="Fill-201"></path>
            <path d="M132.243,138.247 C132.073,138.53 131.704,138.615 131.421,138.445 C131.137,138.303 131.052,137.935 131.194,137.651 L141.172,120.19 C142.958,117.015 145.027,116.873 148.173,116.675 C148.74,116.618 149.364,116.59 149.959,116.533 L173.061,114.322 C173.402,114.294 173.685,114.521 173.713,114.861 C173.742,115.173 173.515,115.456 173.175,115.484 L150.073,117.724 C149.392,117.78 148.797,117.809 148.258,117.865 C145.48,118.036 143.695,118.149 142.192,120.757 L132.243,138.247" id="Fill-202"></path>
            <path d="M69.285,173.311 C69.115,173.595 68.747,173.68 68.491,173.51 C68.208,173.34 68.123,172.971 68.293,172.688 L109.112,107.746 L109.792,106.64 C112.57,102.162 115.461,97.541 121.046,97.541 C123.002,97.541 124.844,98.108 126.403,99.1 C128.019,100.121 129.295,101.595 130.088,103.324 C131.052,105.365 131.109,107.746 131.137,110.014 C131.165,110.495 131.165,110.977 131.194,111.459 C131.846,126.795 132.526,142.158 133.15,157.494 C133.32,162.171 133.632,169.768 139.584,169.768 C141.058,169.768 142.135,169.229 142.986,168.407 C143.893,167.557 144.573,166.338 145.197,165.091 L168.866,117.497 C169.235,116.562 169.887,115.74 170.709,115.201 C171.531,114.634 172.495,114.322 173.543,114.322 C174.961,114.322 176.208,114.861 177.115,115.796 C178.05,116.703 178.617,117.951 178.617,119.368 L180.205,171.27 C180.205,171.582 179.95,171.865 179.609,171.865 C179.298,171.894 179.014,171.61 179.014,171.299 L177.427,119.368 C177.427,118.291 176.973,117.327 176.293,116.618 C175.584,115.938 174.621,115.513 173.543,115.513 C172.75,115.513 171.984,115.74 171.389,116.165 C170.737,116.59 170.255,117.214 169.972,117.922 L169.943,118.007 L146.246,165.629 C145.565,166.962 144.828,168.266 143.808,169.258 C142.759,170.306 141.398,170.958 139.584,170.958 C132.498,170.958 132.158,162.653 131.959,157.522 C131.336,142.187 130.655,126.851 130.003,111.516 C129.975,111.034 129.975,110.524 129.975,110.014 C129.918,107.888 129.862,105.648 129.011,103.834 C128.302,102.303 127.169,100.999 125.78,100.092 C124.391,99.242 122.775,98.732 121.046,98.732 C116.113,98.732 113.421,103.069 110.813,107.264 L110.132,108.369 L69.285,173.311" id="Fill-203"></path>
            <path d="M114.611,101.793 C114.299,101.878 113.959,101.736 113.874,101.425 C113.761,101.113 113.902,100.773 114.214,100.659 C114.696,100.489 115.178,100.376 115.66,100.291 C116.17,100.206 116.68,100.149 117.219,100.149 C119.203,100.149 121.046,100.716 122.605,101.708 C124.192,102.757 125.496,104.202 126.29,105.96 C127.254,108.001 127.282,110.354 127.339,112.621 C127.339,113.103 127.367,113.585 127.395,114.067 C128.047,129.431 128.728,144.766 129.323,160.13 C129.521,164.836 129.833,172.659 135.786,172.659 C136.098,172.659 136.381,172.914 136.381,173.254 C136.381,173.566 136.098,173.85 135.786,173.85 C128.699,173.85 128.359,165.289 128.161,160.158 C127.537,144.823 126.857,129.459 126.205,114.124 C126.176,113.642 126.176,113.16 126.148,112.65 C126.12,110.495 126.063,108.256 125.213,106.442 C124.504,104.911 123.37,103.607 121.953,102.728 C120.592,101.85 118.976,101.34 117.219,101.34 C116.737,101.34 116.284,101.368 115.858,101.453 C115.433,101.538 115.008,101.651 114.611,101.793" id="Fill-204"></path>
            <path d="M170.397,116.76 C170.085,116.817 169.773,116.618 169.688,116.278 C169.632,115.966 169.83,115.654 170.142,115.598 C170.312,115.541 170.482,115.513 170.68,115.513 C170.85,115.484 171.021,115.484 171.191,115.484 C172.58,115.484 173.855,116.051 174.762,116.958 C175.669,117.865 176.236,119.141 176.236,120.53 L177.739,169.513 C177.739,169.853 177.484,170.108 177.172,170.136 C176.832,170.136 176.576,169.881 176.548,169.541 L175.046,120.53 C175.046,119.453 174.621,118.489 173.912,117.809 C173.232,117.1 172.268,116.675 171.191,116.675 C171.049,116.675 170.907,116.675 170.794,116.703 C170.652,116.703 170.539,116.732 170.397,116.76" id="Fill-205"></path>
            <path d="M92.954,153.951 C93.295,153.951 93.55,154.234 93.521,154.546 C93.521,154.886 93.238,155.141 92.898,155.113 L83.43,154.659 C83.118,154.659 82.863,154.376 82.863,154.036 C82.891,153.724 83.175,153.469 83.487,153.469 L92.954,153.951 Z M126.063,155.566 C126.375,155.566 126.63,155.85 126.63,156.19 C126.602,156.502 126.318,156.757 126.006,156.728 L108.658,155.906 C108.318,155.878 108.063,155.595 108.091,155.283 C108.091,154.943 108.375,154.688 108.715,154.716 L126.063,155.566 Z M175.188,157.947 C175.528,157.976 175.783,158.259 175.754,158.571 C175.726,158.911 175.471,159.166 175.131,159.138 L152.198,158.032 C151.858,158.004 151.603,157.721 151.632,157.409 C151.632,157.069 151.915,156.814 152.255,156.842 L175.188,157.947 Z M148.513,165.856 C148.202,165.856 147.918,165.573 147.947,165.232 C147.947,164.921 148.23,164.665 148.542,164.665 L158.265,164.892 C158.576,164.921 158.86,165.176 158.832,165.516 C158.832,165.828 158.548,166.083 158.236,166.083 L148.513,165.856 Z M119.657,165.147 C119.345,165.147 119.09,164.864 119.09,164.552 C119.09,164.212 119.373,163.957 119.685,163.957 L126.035,164.127 C126.375,164.127 126.63,164.382 126.63,164.722 C126.63,165.062 126.347,165.317 126.006,165.289 L119.657,165.147 Z M77.761,164.127 C77.449,164.127 77.165,163.843 77.194,163.503 C77.194,163.191 77.477,162.936 77.789,162.936 L90.006,163.248 C90.347,163.248 90.602,163.503 90.602,163.843 C90.573,164.184 90.318,164.439 89.978,164.41 L77.761,164.127 Z" id="Fill-206"></path>
            <path d="M113.165,146.042 C113.506,146.07 113.732,146.354 113.732,146.694 C113.704,147.006 113.421,147.261 113.08,147.232 L94.428,145.872 C94.117,145.843 93.862,145.56 93.89,145.22 C93.918,144.908 94.202,144.653 94.513,144.681 L113.165,146.042 Z M174.904,150.577 C175.216,150.577 175.471,150.861 175.443,151.201 C175.414,151.541 175.131,151.768 174.819,151.74 L164.331,150.974 C163.991,150.974 163.736,150.691 163.764,150.351 C163.792,150.01 164.076,149.784 164.416,149.812 L174.904,150.577 Z" id="Fill-207"></path>
            <path d="M124.958,138.303 C125.298,138.332 125.524,138.615 125.496,138.955 C125.468,139.267 125.184,139.522 124.844,139.494 L102.536,137.311 C102.224,137.283 101.969,136.971 101.997,136.659 C102.025,136.319 102.337,136.092 102.649,136.121 L124.958,138.303 Z M174.706,143.179 C175.046,143.207 175.273,143.491 175.244,143.802 C175.216,144.143 174.932,144.369 174.592,144.341 L160.419,142.952 C160.107,142.924 159.852,142.64 159.88,142.3 C159.909,141.988 160.221,141.762 160.532,141.79 L174.706,143.179 Z" id="Fill-208"></path>
            <path d="M125.723,129.771 C126.063,129.828 126.29,130.111 126.261,130.451 C126.205,130.763 125.921,130.99 125.581,130.962 L100.693,127.928 C100.381,127.872 100.154,127.588 100.183,127.248 C100.211,126.936 100.523,126.71 100.835,126.738 L125.723,129.771 Z M171.587,135.384 C171.899,135.44 172.154,135.724 172.098,136.064 C172.069,136.376 171.758,136.603 171.446,136.574 L163.679,135.61 C163.367,135.582 163.14,135.299 163.169,134.958 C163.225,134.647 163.509,134.391 163.849,134.448 L171.587,135.384 Z" id="Fill-209"></path>
            <path d="M125.241,121.097 C125.553,121.154 125.78,121.437 125.723,121.777 C125.695,122.089 125.383,122.316 125.071,122.288 L112.145,120.388 C111.833,120.332 111.606,120.02 111.635,119.708 C111.691,119.368 112.003,119.141 112.315,119.198 L125.241,121.097 Z M174.167,128.297 C174.507,128.325 174.734,128.637 174.677,128.949 C174.621,129.289 174.337,129.516 173.997,129.459 L166.627,128.382 C166.287,128.325 166.088,128.042 166.117,127.702 C166.173,127.39 166.485,127.163 166.797,127.191 L174.167,128.297 Z" id="Fill-210"></path>
            <path d="M124.816,112.395 C125.128,112.451 125.354,112.735 125.298,113.075 C125.241,113.387 124.929,113.614 124.617,113.557 L111.748,111.346 C111.408,111.289 111.21,110.977 111.266,110.665 C111.323,110.354 111.606,110.127 111.947,110.184 L124.816,112.395 Z M173.713,120.785 C174.054,120.814 174.252,121.125 174.195,121.465 C174.139,121.777 173.827,122.004 173.515,121.947 L170.085,121.352 C169.745,121.295 169.547,120.984 169.603,120.672 C169.66,120.332 169.943,120.133 170.284,120.19 L173.713,120.785 Z" id="Fill-211"></path>
            <path d="M27.304,138.105 C30.536,138.984 34.929,140.429 39.266,142.3 L39.351,142.272 C40.23,142.243 40.967,142.045 41.591,141.762 C42.526,141.28 43.15,140.486 43.518,139.551 C43.915,138.558 44.057,137.34 44,136.121 C43.887,133.654 43.065,131.047 42.186,129.261 C38.699,122.344 30.025,119.595 22.457,117.214 C21.776,116.987 21.068,116.76 20.246,116.505 C18.602,116.051 16.277,115.626 13.896,115.541 C11.742,115.456 9.531,115.654 7.773,116.335 C6.073,116.958 4.797,118.064 4.315,119.765 C4.202,120.19 4.117,120.643 4.088,121.154 C4.06,122.486 4.372,124.102 4.967,125.774 C5.591,127.503 6.526,129.317 7.603,130.933 C8.51,132.266 9.502,133.456 10.551,134.363 C11.487,135.185 12.422,135.78 13.386,136.092 C15.654,136.206 17.921,136.404 20.217,136.744 C22.542,137.084 24.895,137.538 27.247,138.105 L27.304,138.105 Z M52.646,173.708 C52.391,173.906 51.994,173.878 51.795,173.595 C51.597,173.34 51.654,172.971 51.909,172.773 C53.383,171.667 54.46,170.193 55.169,168.351 C55.906,166.508 56.217,164.325 56.189,161.746 C55.849,159.762 55.367,158.004 54.772,156.445 C54.148,154.886 53.411,153.554 52.532,152.42 C50.548,149.812 47.062,147.431 43.15,145.418 C37.622,142.555 31.273,140.429 26.992,139.267 C24.668,138.7 22.343,138.247 20.076,137.906 C17.78,137.595 15.484,137.368 13.244,137.283 C13.216,137.283 13.159,137.283 13.102,137.254 C11.969,136.914 10.835,136.206 9.758,135.27 C8.624,134.278 7.575,133.003 6.611,131.614 C5.477,129.913 4.513,128.014 3.862,126.171 C3.21,124.357 2.869,122.599 2.926,121.097 C2.926,120.502 3.011,119.963 3.153,119.453 C3.748,117.327 5.336,115.995 7.348,115.229 C9.276,114.492 11.628,114.266 13.925,114.351 C16.419,114.436 18.828,114.889 20.558,115.343 L20.586,115.371 C21.21,115.569 22.003,115.825 22.825,116.08 C30.592,118.517 39.521,121.352 43.235,128.722 C44.198,130.621 45.049,133.428 45.162,136.064 C45.247,137.453 45.077,138.814 44.624,139.976 C44.142,141.195 43.348,142.187 42.101,142.81 C41.846,142.952 41.562,143.065 41.25,143.151 C42.073,143.547 42.895,143.944 43.688,144.369 C47.742,146.467 51.37,148.933 53.496,151.711 C54.432,152.93 55.225,154.376 55.877,156.02 C56.501,157.664 57.011,159.506 57.351,161.576 L57.38,161.689 C57.436,164.41 57.068,166.791 56.274,168.776 C55.48,170.817 54.29,172.461 52.646,173.708 Z" id="Fill-212"></path>
            <path d="M13.102,136.121 C13.414,136.036 13.754,136.206 13.839,136.517 C13.953,136.829 13.754,137.169 13.443,137.254 C9.616,138.388 6.838,140.514 4.939,143.179 C2.983,145.9 1.934,149.217 1.622,152.647 C1.31,156.077 1.707,159.648 2.671,162.88 C3.947,167.16 6.158,170.817 8.879,172.773 C9.134,172.943 9.191,173.34 9.021,173.595 C8.822,173.85 8.454,173.935 8.17,173.736 C5.25,171.639 2.869,167.755 1.537,163.22 C0.545,159.847 0.091,156.133 0.432,152.533 C0.772,148.905 1.877,145.39 3.947,142.47 C6.016,139.607 8.992,137.34 13.102,136.121" id="Fill-213"></path>
            <path d="M24.271,172.943 C24.441,173.198 24.356,173.566 24.073,173.736 C23.789,173.935 23.421,173.85 23.25,173.566 C22.428,172.262 22.088,170.788 22.23,169.116 C22.343,167.528 22.939,165.771 23.959,163.843 L24.016,163.758 C24.441,163.191 24.923,162.483 25.462,161.717 C27.247,159.053 29.685,155.481 32.435,153.667 C36.488,151.003 38.189,153.043 40.57,155.963 L40.91,156.388 C41.817,157.465 42.838,158.656 43.915,159.903 C47.912,164.524 52.447,169.768 52.872,172.999 C52.901,173.311 52.674,173.623 52.362,173.651 C52.05,173.708 51.739,173.453 51.71,173.141 C51.313,170.278 46.92,165.176 43.008,160.697 C41.959,159.45 40.91,158.259 40.003,157.154 L39.635,156.728 C37.65,154.291 36.261,152.59 33.087,154.659 C30.536,156.332 28.183,159.79 26.425,162.369 C25.887,163.191 25.405,163.9 24.98,164.439 C24.044,166.196 23.534,167.784 23.421,169.229 C23.307,170.618 23.591,171.865 24.271,172.943" id="Fill-214"></path>
            <path d="M25.348,137.708 C25.66,137.651 25.972,137.85 26.057,138.162 C26.113,138.502 25.915,138.814 25.575,138.87 C25.32,138.927 25.065,139.012 24.81,139.097 C22.995,139.692 21.748,140.883 21.039,142.3 C20.331,143.746 20.132,145.39 20.473,146.892 C20.501,147.091 20.558,147.317 20.643,147.544 C21.238,149.387 22.485,151.201 23.676,152.958 C25.83,156.133 27.871,159.138 26.482,162.313 C26.34,162.596 25.972,162.738 25.688,162.596 C25.376,162.483 25.263,162.114 25.376,161.831 C26.539,159.28 24.668,156.502 22.684,153.61 C21.465,151.796 20.161,149.897 19.509,147.913 C19.424,147.658 19.367,147.402 19.31,147.119 C18.942,145.39 19.14,143.462 19.991,141.79 C20.841,140.089 22.287,138.672 24.441,137.963 C24.725,137.878 25.008,137.793 25.348,137.708" id="Fill-215"></path>
            <path d="M21.55,94.593 C21.805,94.366 22.173,94.366 22.4,94.621 C22.627,94.848 22.599,95.217 22.372,95.443 C22.032,95.755 21.663,96.01 21.21,96.237 C20.784,96.464 20.274,96.634 19.736,96.776 C19.509,96.832 19.254,96.719 19.112,96.549 C18.545,95.727 18.12,94.933 17.808,94.111 C17.525,93.289 17.383,92.467 17.411,91.645 C17.468,90.086 18.687,88.81 20.161,88.243 C20.784,88.017 21.436,87.903 22.06,87.96 C22.712,88.017 23.336,88.215 23.874,88.64 C24.923,89.462 25.547,91.021 25.121,93.601 C25.178,93.969 25.263,94.31 25.348,94.593 C25.433,94.905 25.547,95.188 25.66,95.415 C26.142,96.294 26.765,96.322 27.446,96.322 C28.154,96.322 28.92,96.351 29.714,96.946 C30.054,97.201 30.28,97.626 30.365,98.108 C30.479,98.562 30.479,99.1 30.394,99.554 C30.252,101.254 29.969,102.87 29.515,104.373 C29.062,105.903 28.438,107.321 27.673,108.625 C27.616,108.71 27.559,108.766 27.474,108.823 C26.652,109.362 25.632,109.758 24.413,110.099 C23.222,110.41 21.833,110.609 20.246,110.722 L20.189,110.722 C19.055,110.751 18.29,111.317 17.61,111.828 C16.901,112.338 16.249,112.82 15.285,112.877 C15.002,112.877 14.775,112.706 14.69,112.451 C14.463,111.629 14.463,110.892 14.747,110.24 C15.002,109.617 15.512,109.106 16.249,108.681 C17.269,108.058 18.8,107.774 20.302,107.491 C22.032,107.179 23.789,106.867 24.526,106.073 C25.32,103.862 25.745,102.133 25.83,100.914 C25.858,100.574 26.142,100.347 26.482,100.347 C26.794,100.376 27.049,100.659 27.021,100.999 C26.936,102.332 26.454,104.202 25.603,106.584 C25.603,106.64 25.547,106.725 25.518,106.782 C24.526,107.944 22.513,108.313 20.529,108.681 C19.112,108.936 17.723,109.191 16.873,109.702 L16.844,109.73 C16.334,110.014 15.994,110.325 15.824,110.722 C15.739,110.977 15.682,111.261 15.739,111.573 C16.136,111.431 16.504,111.176 16.901,110.864 C17.723,110.269 18.658,109.588 20.161,109.532 C21.691,109.447 22.995,109.22 24.101,108.936 C25.15,108.681 26,108.313 26.709,107.888 C27.389,106.697 27.956,105.421 28.353,104.032 C28.806,102.615 29.09,101.084 29.203,99.44 L29.232,99.384 C29.288,99.043 29.288,98.675 29.203,98.335 C29.175,98.136 29.09,97.966 29.005,97.881 C28.495,97.513 27.956,97.513 27.417,97.513 C26.397,97.484 25.433,97.484 24.611,95.982 C24.441,95.67 24.299,95.33 24.186,94.933 C24.073,94.565 23.988,94.139 23.931,93.686 C23.931,93.629 23.931,93.573 23.931,93.488 C24.299,91.362 23.874,90.143 23.137,89.576 C22.797,89.321 22.4,89.179 21.975,89.151 C21.521,89.122 21.039,89.207 20.586,89.377 C19.537,89.774 18.63,90.653 18.573,91.673 C18.573,92.354 18.687,93.034 18.942,93.714 C19.14,94.31 19.48,94.905 19.849,95.5 C20.161,95.415 20.416,95.302 20.671,95.188 C21.011,95.018 21.295,94.82 21.55,94.593" id="Fill-216"></path>
            <path d="M20.643,95.897 C20.558,95.585 20.728,95.245 21.068,95.188 C21.38,95.103 21.691,95.273 21.776,95.614 C21.862,95.897 21.89,96.209 21.918,96.549 C21.918,96.889 21.918,97.286 21.862,97.683 C21.833,98.023 21.55,98.25 21.238,98.221 L21.181,98.221 C20.841,98.165 20.501,98.165 20.217,98.221 C19.906,98.278 19.622,98.363 19.367,98.505 C18.347,99.1 18.091,100.574 17.893,101.878 C17.836,102.218 17.78,102.53 17.723,102.814 C16.901,106.81 16.136,109.39 15.427,110.977 C14.662,112.763 13.868,113.472 13.131,113.557 L13.017,113.557 C12.365,113.557 11.827,113.699 11.43,113.897 C11.147,114.039 10.976,114.237 10.976,114.407 C10.976,114.719 10.693,114.974 10.381,114.974 C10.041,114.974 9.786,114.691 9.786,114.379 C9.814,113.727 10.211,113.217 10.863,112.848 C11.402,112.565 12.167,112.395 12.989,112.366 C13.358,112.31 13.783,111.828 14.35,110.495 C15.002,108.993 15.739,106.499 16.561,102.587 C16.617,102.303 16.674,101.991 16.702,101.708 C16.958,100.149 17.269,98.335 18.772,97.484 C19.14,97.286 19.565,97.116 20.019,97.059 C20.246,97.003 20.473,97.003 20.728,97.003 C20.728,96.861 20.728,96.719 20.728,96.606 C20.728,96.322 20.671,96.095 20.643,95.897" id="Fill-217"></path>
            <path d="M27.559,106.98 C27.361,106.725 27.417,106.328 27.673,106.158 C27.956,105.96 28.325,106.017 28.523,106.3 C29.543,107.717 30.082,109.106 30.167,110.439 C30.224,111.799 29.827,113.103 28.92,114.322 C28.721,114.577 28.353,114.634 28.098,114.436 C27.843,114.237 27.758,113.869 27.956,113.614 C28.693,112.621 29.033,111.573 28.976,110.495 C28.92,109.39 28.438,108.228 27.559,106.98" id="Fill-218"></path>
            <path d="M18.488,100.971 C18.46,100.659 18.715,100.376 19.027,100.347 C19.367,100.319 19.651,100.574 19.679,100.886 C19.736,101.623 19.679,102.36 19.48,103.097 C19.537,103.182 19.594,103.239 19.679,103.324 C19.877,103.465 20.132,103.579 20.416,103.636 C20.699,103.664 21.011,103.607 21.295,103.437 C21.55,103.324 21.776,103.125 22.032,102.814 C22.23,102.558 22.599,102.53 22.854,102.728 C23.109,102.927 23.137,103.295 22.939,103.551 C22.599,103.976 22.23,104.288 21.862,104.486 C21.323,104.798 20.784,104.883 20.274,104.798 C19.764,104.741 19.31,104.514 18.942,104.231 C18.687,104.032 18.46,103.777 18.318,103.522 C18.233,103.38 18.205,103.21 18.262,103.04 C18.46,102.332 18.545,101.651 18.488,100.971" id="Fill-219"></path>
            <path d="M21.833,101.254 C21.947,100.943 22.287,100.744 22.599,100.858 C22.91,100.943 23.08,101.283 22.967,101.595 C22.825,102.105 22.882,102.53 23.052,102.842 C23.165,103.097 23.392,103.295 23.619,103.437 C23.874,103.579 24.158,103.664 24.441,103.664 C24.838,103.692 25.206,103.579 25.49,103.295 C25.717,103.069 26.085,103.069 26.312,103.295 C26.567,103.522 26.567,103.891 26.312,104.117 C25.802,104.656 25.093,104.883 24.413,104.854 C23.931,104.854 23.449,104.713 23.024,104.458 C22.599,104.231 22.23,103.862 22.003,103.409 C21.691,102.814 21.578,102.077 21.833,101.254" id="Fill-220"></path>
            <path d="M19.225,103.891 C19.339,103.579 19.679,103.437 19.991,103.551 C20.302,103.664 20.444,104.032 20.331,104.316 L18.488,108.851 C18.375,109.163 18.006,109.305 17.723,109.191 C17.411,109.05 17.269,108.71 17.383,108.398 L19.225,103.891" id="Fill-221"></path>
            <path d="M15.682,114.719 C15.852,115.003 15.767,115.371 15.484,115.541 C15.172,115.711 14.832,115.598 14.662,115.314 C14.406,114.861 14.35,114.351 14.491,113.755 C14.605,113.245 14.888,112.65 15.314,112.026 C15.484,111.743 15.852,111.686 16.136,111.856 C16.419,112.054 16.476,112.423 16.306,112.706 C15.965,113.217 15.739,113.642 15.654,114.01 C15.569,114.322 15.597,114.549 15.682,114.719" id="Fill-222"></path>
            <path d="M24.526,110.949 C24.725,110.694 25.093,110.609 25.376,110.807 C25.632,110.977 25.717,111.346 25.518,111.629 C25.348,111.856 25.376,111.998 25.433,112.083 C25.632,112.281 26,112.423 26.312,112.565 C26.482,112.621 26.68,112.706 26.936,112.791 C29.345,113.642 35.326,115.796 37.282,119.878 L37.849,120.275 C39.691,121.494 41.165,122.514 40.995,125.689 C40.995,126.001 40.712,126.256 40.372,126.256 C40.06,126.228 39.805,125.944 39.833,125.632 C39.947,123.11 38.699,122.288 37.197,121.239 C36.942,121.069 36.687,120.927 36.488,120.757 C36.403,120.7 36.318,120.615 36.261,120.502 C34.589,116.788 28.835,114.719 26.539,113.897 C26.255,113.812 26.028,113.727 25.887,113.67 C25.433,113.5 24.923,113.273 24.583,112.877 C24.129,112.395 23.988,111.771 24.526,110.949" id="Fill-223"></path>
            <path d="M17.553,91.078 C17.468,90.738 17.666,90.426 18.006,90.341 C18.318,90.284 18.63,90.483 18.715,90.795 C18.772,90.965 19.084,91.106 19.48,91.191 C19.962,91.305 20.501,91.305 20.926,91.22 C21.011,91.191 21.068,91.163 21.125,91.163 C21.408,91.05 21.748,91.191 21.89,91.503 C21.918,91.588 21.918,91.673 21.918,91.758 C21.89,91.985 21.89,92.297 21.918,92.637 C21.975,93.346 22.173,94.196 22.684,94.877 C23.137,95.528 23.902,96.039 25.065,96.124 C25.376,96.152 25.717,96.152 26.113,96.124 C26.425,96.095 26.709,96.351 26.737,96.662 C26.765,97.003 26.539,97.286 26.199,97.314 C25.773,97.343 25.348,97.343 24.98,97.314 C23.392,97.173 22.372,96.464 21.72,95.557 C21.068,94.678 20.813,93.629 20.728,92.751 L20.728,92.439 C20.217,92.495 19.679,92.467 19.225,92.354 C18.46,92.184 17.836,91.815 17.61,91.22 C17.581,91.191 17.581,91.135 17.553,91.078" id="Fill-224"></path>
            <path d="M19.764,104.486 C19.622,104.202 19.707,103.834 20.019,103.692 C20.302,103.522 20.671,103.636 20.813,103.919 C21.125,104.514 21.38,105.11 21.55,105.733 C21.748,106.357 21.862,106.98 21.918,107.632 C21.947,107.973 21.72,108.256 21.38,108.284 C21.068,108.313 20.756,108.058 20.728,107.746 C20.671,107.179 20.586,106.612 20.416,106.073 C20.246,105.535 20.019,104.996 19.764,104.486" id="Fill-225"></path>
            <path d="M102.762,154.773 C101.912,154.347 100.92,154.092 99.899,154.092 C98.113,154.092 96.526,154.801 95.364,155.963 C94.23,157.125 93.493,158.713 93.493,160.47 C93.493,162.256 94.23,163.843 95.364,165.006 C96.526,166.168 98.113,166.877 99.899,166.877 C100.069,166.877 100.239,166.877 100.381,166.848 C100.58,166.848 100.721,166.82 100.863,166.791 L100.891,166.791 C101.005,166.763 101.147,166.791 101.288,166.877 C101.713,167.132 102.167,167.33 102.649,167.472 C103.131,167.614 103.613,167.699 104.151,167.699 C105.654,167.699 107.014,167.075 108.006,166.083 C108.97,165.091 109.594,163.73 109.594,162.228 C109.594,160.952 109.14,159.79 108.403,158.854 C107.666,157.891 106.589,157.21 105.37,156.927 C105.257,156.899 105.115,156.814 105.03,156.7 C104.435,155.878 103.669,155.226 102.762,154.773 Z M99.899,152.902 C101.118,152.902 102.28,153.185 103.301,153.724 C104.293,154.234 105.172,154.943 105.852,155.821 C107.269,156.19 108.46,157.012 109.339,158.117 C110.246,159.251 110.784,160.669 110.784,162.228 C110.784,164.07 110.047,165.714 108.828,166.933 C107.638,168.124 105.965,168.889 104.151,168.889 C103.528,168.889 102.904,168.776 102.337,168.634 C101.799,168.464 101.317,168.266 100.863,168.01 C100.721,168.01 100.608,168.039 100.466,168.039 C100.268,168.067 100.069,168.067 99.899,168.067 C97.802,168.067 95.902,167.217 94.542,165.856 C93.153,164.467 92.302,162.568 92.302,160.47 C92.302,158.401 93.153,156.502 94.542,155.113 C95.902,153.752 97.802,152.902 99.899,152.902 Z" id="Fill-226"></path>
            <path d="M116.964,166.877 C116.964,166.196 116.68,165.431 116.085,164.807 C115.943,164.637 115.887,164.41 115.972,164.184 C116.057,164.014 116.085,163.843 116.142,163.645 C116.17,163.475 116.198,163.305 116.198,163.106 C116.198,162.313 115.858,161.576 115.32,161.065 C114.781,160.527 114.016,160.187 113.194,160.187 C112.655,160.187 112.145,160.328 111.72,160.555 C111.323,160.782 110.983,161.065 110.728,161.434 L110.756,161.717 C110.784,161.888 110.784,162.058 110.784,162.228 C110.784,163.277 110.529,164.297 110.104,165.176 C109.707,165.941 109.197,166.621 108.545,167.188 L108.602,167.273 C108.998,167.84 109.792,168.351 110.728,168.719 C111.748,169.116 112.91,169.343 114.044,169.343 C115.008,169.343 115.745,169.059 116.227,168.606 C116.482,168.379 116.652,168.124 116.794,167.84 C116.907,167.528 116.964,167.217 116.964,166.877 Z M117.191,164.269 C117.843,165.091 118.154,165.998 118.154,166.877 C118.154,167.358 118.069,167.84 117.871,168.294 C117.673,168.719 117.417,169.144 117.049,169.484 C116.34,170.108 115.32,170.533 114.044,170.533 C112.769,170.533 111.436,170.278 110.302,169.825 C109.14,169.371 108.176,168.719 107.638,167.954 C107.553,167.84 107.496,167.727 107.439,167.642 L107.411,167.585 C107.354,167.5 107.298,167.387 107.269,167.302 C107.128,167.018 107.213,166.706 107.468,166.536 C108.12,166.054 108.658,165.402 109.027,164.665 C109.395,163.928 109.594,163.106 109.594,162.228 C109.594,162.086 109.594,161.944 109.565,161.802 C109.565,161.632 109.537,161.491 109.537,161.377 C109.509,161.207 109.537,161.065 109.622,160.952 C109.991,160.357 110.529,159.875 111.153,159.535 C111.748,159.195 112.457,158.996 113.194,158.996 C114.328,158.996 115.376,159.45 116.142,160.215 C116.907,160.952 117.389,161.973 117.389,163.106 C117.389,163.362 117.361,163.617 117.304,163.872 C117.276,164.014 117.247,164.155 117.191,164.269 Z" id="Fill-227"></path>
            <path d="M101.572,173.254 C101.572,173.566 101.288,173.85 100.976,173.85 C100.636,173.85 100.381,173.566 100.381,173.254 L100.381,158.94 C100.381,158.628 100.636,158.344 100.976,158.344 C101.288,158.344 101.572,158.628 101.572,158.94 L101.572,173.254" id="Fill-228"></path>
            <path d="M101.373,164.382 C101.118,164.58 100.75,164.524 100.551,164.269 C100.353,164.014 100.41,163.617 100.665,163.447 L104.151,160.81 C104.406,160.612 104.775,160.669 104.973,160.952 C105.172,161.207 105.115,161.576 104.86,161.774 L101.373,164.382" id="Fill-229"></path>
            <path d="M169.405,164.042 C168.639,163.447 167.676,163.106 166.599,163.106 C165.351,163.106 164.217,163.617 163.395,164.439 C162.573,165.261 162.063,166.395 162.063,167.642 C162.063,167.784 162.063,167.925 162.063,168.067 C162.091,168.18 162.091,168.322 162.12,168.464 C162.148,168.549 162.12,168.662 162.091,168.776 C161.95,169.088 161.609,169.229 161.298,169.088 C160.986,168.974 160.674,168.861 160.334,168.804 C160.022,168.747 159.682,168.691 159.342,168.691 C158.038,168.691 156.847,169.201 155.969,170.023 C155.232,170.703 154.693,171.61 154.466,172.659 L179.156,172.659 L179.184,172.461 C179.184,171.837 178.929,171.27 178.532,170.845 L178.504,170.845 C178.079,170.42 177.512,170.165 176.86,170.165 C176.747,170.165 176.633,170.165 176.52,170.193 C176.406,170.193 176.293,170.221 176.208,170.25 C176.066,170.306 175.953,170.306 175.811,170.25 C175.499,170.165 175.329,169.825 175.443,169.513 C175.471,169.371 175.499,169.258 175.528,169.144 C175.528,169.031 175.556,168.917 175.556,168.776 C175.556,168.152 175.301,167.585 174.904,167.16 L174.876,167.132 C174.45,166.735 173.884,166.48 173.232,166.48 C173.005,166.48 172.778,166.508 172.58,166.565 L172.551,166.565 C172.353,166.621 172.154,166.735 171.984,166.848 C171.928,166.877 171.843,166.933 171.758,166.962 C171.446,167.018 171.106,166.848 171.021,166.508 C170.765,165.516 170.198,164.665 169.405,164.042 Z M166.599,161.916 C167.931,161.916 169.15,162.341 170.142,163.106 C170.935,163.73 171.559,164.552 171.956,165.516 C172.041,165.488 172.126,165.459 172.211,165.431 L172.239,165.431 C172.551,165.317 172.891,165.289 173.232,165.289 C174.195,165.289 175.074,165.658 175.726,166.31 L175.754,166.338 C176.35,166.962 176.747,167.84 176.747,168.776 L176.718,168.974 L176.86,168.974 C177.824,168.974 178.702,169.371 179.326,169.995 L179.383,170.023 C179.978,170.647 180.375,171.525 180.375,172.461 C180.375,172.631 180.347,172.773 180.318,172.943 C180.318,173.113 180.261,173.254 180.233,173.396 C180.148,173.68 179.921,173.85 179.666,173.85 L153.786,173.85 C153.474,173.85 153.191,173.566 153.191,173.254 L153.191,173.169 C153.332,171.582 154.069,170.165 155.147,169.144 C156.252,168.124 157.726,167.5 159.342,167.5 C159.767,167.5 160.164,167.557 160.589,167.642 L160.872,167.699 L160.872,167.642 C160.872,166.054 161.496,164.637 162.545,163.588 C163.594,162.54 165.011,161.916 166.599,161.916 Z" id="Fill-230"></path>
            <path d="M113.364,173.254 C113.364,173.566 113.109,173.85 112.769,173.85 C112.428,173.85 112.173,173.566 112.173,173.254 L112.173,166.139 C112.173,165.799 112.428,165.544 112.769,165.544 C113.109,165.544 113.364,165.799 113.364,166.139 L113.364,173.254" id="Fill-231"></path>
            <path d="M93.72,111.062 C93.38,111.062 93.125,110.807 93.125,110.467 C93.125,110.155 93.38,109.872 93.72,109.872 L99.956,109.872 C100.296,109.872 100.551,110.155 100.551,110.467 C100.551,110.807 100.296,111.062 99.956,111.062 L93.72,111.062" id="Fill-232"></path>
            <path d="M84.706,118.574 C84.365,118.574 84.11,118.291 84.11,117.979 C84.11,117.639 84.365,117.384 84.706,117.384 L90.97,117.384 C91.282,117.384 91.565,117.639 91.565,117.979 C91.565,118.291 91.282,118.574 90.97,118.574 L84.706,118.574" id="Fill-233"></path>
            <path d="M76.457,126.426 C76.117,126.426 75.862,126.171 75.862,125.831 C75.862,125.519 76.117,125.236 76.457,125.236 L82.721,125.236 C83.033,125.236 83.317,125.519 83.317,125.831 C83.317,126.171 83.033,126.426 82.721,126.426 L76.457,126.426" id="Fill-234"></path>
            <path d="M81.332,132.946 C80.992,132.946 80.737,132.662 80.737,132.351 C80.737,132.01 80.992,131.755 81.332,131.755 L87.597,131.755 C87.909,131.755 88.192,132.01 88.192,132.351 C88.192,132.662 87.909,132.946 87.597,132.946 L81.332,132.946" id="Fill-235"></path>
            <path d="M66.819,139.806 C66.507,139.806 66.224,139.551 66.224,139.21 C66.224,138.899 66.507,138.615 66.819,138.615 L73.084,138.615 C73.424,138.615 73.679,138.899 73.679,139.21 C73.679,139.551 73.424,139.806 73.084,139.806 L66.819,139.806" id="Fill-236"></path>
            <path d="M70.334,148.196 C69.994,148.196 69.739,147.913 69.739,147.601 C69.739,147.261 69.994,147.006 70.334,147.006 L76.599,147.006 C76.91,147.006 77.194,147.261 77.194,147.601 C77.194,147.913 76.91,148.196 76.599,148.196 L70.334,148.196" id="Fill-237"></path>
            <path d="M61.943,153.582 C61.632,153.582 61.348,153.299 61.348,152.987 C61.348,152.647 61.632,152.391 61.943,152.391 L68.208,152.391 C68.548,152.391 68.803,152.647 68.803,152.987 C68.803,153.299 68.548,153.582 68.208,153.582 L61.943,153.582" id="Fill-238"></path>
            <path d="M149.336,122.684 C148.995,122.684 148.74,122.429 148.74,122.089 C148.74,121.777 148.995,121.494 149.336,121.494 L155.6,121.494 C155.912,121.494 156.195,121.777 156.195,122.089 C156.195,122.429 155.912,122.684 155.6,122.684 L149.336,122.684" id="Fill-239"></path>
            <path d="M153.871,127.475 C153.531,127.475 153.276,127.191 153.276,126.88 C153.276,126.54 153.531,126.284 153.871,126.284 L160.135,126.284 C160.447,126.284 160.731,126.54 160.731,126.88 C160.731,127.191 160.447,127.475 160.135,127.475 L153.871,127.475" id="Fill-240"></path>
            <path d="M144.885,131.188 C144.545,131.188 144.29,130.933 144.29,130.593 C144.29,130.253 144.545,129.998 144.885,129.998 L151.15,129.998 C151.49,129.998 151.745,130.253 151.745,130.593 C151.745,130.933 151.49,131.188 151.15,131.188 L144.885,131.188" id="Fill-241"></path>
            <path d="M140.832,139.494 C140.491,139.494 140.236,139.239 140.236,138.899 C140.236,138.587 140.491,138.303 140.832,138.303 L147.096,138.303 C147.408,138.303 147.691,138.587 147.691,138.899 C147.691,139.239 147.408,139.494 147.096,139.494 L140.832,139.494" id="Fill-242"></path>
            <path d="M133.887,147.119 C133.547,147.119 133.291,146.864 133.291,146.524 C133.291,146.212 133.547,145.928 133.887,145.928 L140.151,145.928 C140.491,145.928 140.747,146.212 140.747,146.524 C140.747,146.864 140.491,147.119 140.151,147.119 L133.887,147.119" id="Fill-243"></path>
            <path d="M137.884,153.554 C137.572,153.554 137.288,153.299 137.288,152.958 C137.288,152.647 137.572,152.363 137.884,152.363 L144.148,152.363 C144.488,152.363 144.743,152.647 144.743,152.958 C144.743,153.299 144.488,153.554 144.148,153.554 L137.884,153.554" id="Fill-244"></path>
            <path d="M104.86,42.804 C104.832,43.144 104.52,43.371 104.18,43.314 C103.839,43.286 103.613,42.974 103.641,42.662 C103.868,40.962 104.747,39.431 105.965,38.354 C107.213,37.277 108.8,36.625 110.558,36.625 C111.606,36.625 112.599,36.851 113.477,37.277 C114.384,37.673 115.206,38.297 115.858,39.062 C116.085,39.317 116.028,39.686 115.773,39.884 C115.518,40.111 115.15,40.054 114.923,39.828 C114.384,39.204 113.704,38.694 112.967,38.354 C112.23,38.014 111.436,37.843 110.558,37.843 C109.112,37.843 107.808,38.354 106.787,39.232 C105.767,40.139 105.058,41.387 104.86,42.804 Z M79.121,46.546 C79.121,46.886 78.838,47.141 78.498,47.141 C78.158,47.141 77.874,46.886 77.874,46.546 C77.874,44.618 78.639,42.889 79.83,41.557 C80.907,40.395 82.381,39.601 84.025,39.317 C83.997,39.204 83.997,39.091 83.997,38.977 C83.997,37.843 84.479,36.795 85.216,36.058 C85.953,35.292 86.973,34.839 88.107,34.81 C88.079,34.612 88.079,34.442 88.079,34.243 C88.079,32.798 88.674,31.466 89.638,30.502 C90.602,29.538 91.934,28.914 93.408,28.914 C94.513,28.914 95.506,29.254 96.356,29.793 C97.036,30.247 97.632,30.87 98.057,31.579 C98.142,31.551 98.255,31.494 98.369,31.466 C98.709,31.38 99.049,31.352 99.389,31.352 C99.899,31.352 100.381,31.437 100.835,31.607 C100.976,31.664 101.09,31.749 101.232,31.806 C101.6,30.502 102.337,29.34 103.358,28.461 C104.576,27.384 106.192,26.732 107.95,26.732 C108.97,26.732 109.962,26.958 110.841,27.384 C111.578,27.695 112.23,28.149 112.797,28.716 C113.307,28.291 113.902,27.95 114.526,27.695 C115.32,27.384 116.198,27.214 117.106,27.214 C119.005,27.214 120.706,27.979 121.953,29.226 C123.2,30.445 123.965,32.174 123.965,34.045 C123.965,34.385 123.682,34.64 123.342,34.64 C123.002,34.64 122.747,34.385 122.747,34.045 C122.747,32.486 122.095,31.069 121.074,30.048 C120.054,29.028 118.665,28.404 117.106,28.404 C116.34,28.404 115.632,28.546 115.008,28.801 C114.328,29.056 113.704,29.481 113.194,29.963 L113.165,29.992 C112.882,30.218 112.513,30.162 112.287,29.935 C111.748,29.311 111.096,28.801 110.331,28.461 C109.594,28.121 108.8,27.95 107.95,27.95 C106.504,27.95 105.172,28.461 104.18,29.34 C103.131,30.247 102.422,31.494 102.224,32.911 C102.224,33.053 102.167,33.166 102.054,33.251 C101.827,33.506 101.43,33.506 101.203,33.251 C100.948,33.025 100.665,32.854 100.353,32.713 C100.069,32.599 99.729,32.543 99.389,32.543 C99.162,32.543 98.935,32.571 98.709,32.628 C98.482,32.684 98.284,32.769 98.113,32.883 C98.057,32.883 98.028,32.911 98,32.94 C97.688,33.053 97.32,32.911 97.206,32.599 C96.866,31.862 96.328,31.239 95.676,30.785 C95.024,30.36 94.258,30.105 93.408,30.105 C92.274,30.105 91.254,30.587 90.517,31.324 C89.78,32.061 89.298,33.11 89.298,34.243 C89.298,34.442 89.326,34.64 89.326,34.81 C89.354,34.952 89.383,35.122 89.439,35.292 C89.468,35.377 89.468,35.491 89.468,35.604 C89.383,35.916 89.071,36.114 88.731,36.058 C88.646,36.058 88.532,36.029 88.447,36.029 C88.391,36.029 88.306,36.001 88.192,36.001 C87.37,36.001 86.633,36.341 86.095,36.88 C85.556,37.418 85.244,38.155 85.244,38.977 C85.244,39.119 85.244,39.232 85.244,39.346 C85.273,39.459 85.301,39.573 85.329,39.686 C85.329,39.714 85.329,39.743 85.329,39.771 C85.358,40.111 85.102,40.395 84.762,40.423 C83.175,40.536 81.758,41.273 80.765,42.379 C79.745,43.456 79.121,44.93 79.121,46.546 Z" id="Fill-245"></path>
            <path d="M27.304,72.001 C27.304,72.313 27.021,72.596 26.68,72.596 C26.34,72.596 26.085,72.313 26.085,72.001 C26.085,70.499 26.68,69.138 27.673,68.174 C28.636,67.182 30.025,66.558 31.528,66.558 C31.754,66.558 32.01,66.587 32.265,66.615 C32.378,65.963 32.718,65.368 33.172,64.914 C33.767,64.319 34.589,63.951 35.496,63.951 C35.581,63.951 35.666,63.951 35.751,63.951 C35.78,62.647 36.318,61.484 37.169,60.634 C38.076,59.727 39.295,59.188 40.684,59.188 C41.421,59.188 42.129,59.33 42.781,59.642 C43.093,59.784 43.376,59.954 43.632,60.152 C43.943,59.245 44.482,58.451 45.162,57.828 C46.126,56.977 47.402,56.439 48.791,56.439 C50.321,56.439 51.682,57.062 52.674,58.054 C53.638,59.018 54.261,60.379 54.261,61.881 C54.261,62.193 53.978,62.477 53.638,62.477 C53.298,62.477 53.014,62.193 53.014,61.881 C53.014,60.691 52.561,59.642 51.795,58.877 C51.03,58.111 49.953,57.629 48.791,57.629 C47.713,57.629 46.75,58.054 46.013,58.706 C45.247,59.387 44.737,60.322 44.624,61.399 C44.595,61.541 44.51,61.683 44.397,61.796 C44.113,61.995 43.745,61.966 43.518,61.711 C43.178,61.286 42.753,60.946 42.243,60.719 C41.761,60.492 41.222,60.379 40.684,60.379 C39.663,60.379 38.728,60.776 38.047,61.456 C37.395,62.136 36.97,63.072 36.97,64.092 C36.97,64.177 36.97,64.291 36.97,64.347 C36.97,64.461 36.998,64.546 36.998,64.631 C37.027,64.716 36.998,64.801 36.97,64.914 C36.857,65.226 36.517,65.368 36.176,65.254 C36.091,65.226 35.978,65.198 35.893,65.169 L35.836,65.169 C35.723,65.141 35.609,65.141 35.496,65.141 C34.929,65.141 34.419,65.368 34.05,65.736 C33.682,66.133 33.455,66.643 33.455,67.21 L33.455,67.324 C33.455,67.38 33.427,67.437 33.427,67.522 C33.314,67.834 32.973,68.004 32.662,67.919 C32.491,67.862 32.293,67.834 32.095,67.806 C31.925,67.777 31.726,67.749 31.528,67.749 C30.365,67.749 29.317,68.231 28.551,68.996 C27.786,69.762 27.304,70.81 27.304,72.001" id="Fill-246"></path>
            <path d="M90.488,65.198 C90.176,65.198 89.893,64.914 89.893,64.603 C89.893,64.262 90.176,64.007 90.488,64.007 L96.753,64.007 C97.093,64.007 97.348,64.262 97.348,64.603 C97.348,64.914 97.093,65.198 96.753,65.198 L90.488,65.198" id="Fill-247"></path>
            <path d="M100.069,65.198 C99.758,65.198 99.474,64.914 99.474,64.603 C99.474,64.262 99.758,64.007 100.069,64.007 L101.345,64.007 C101.685,64.007 101.94,64.262 101.94,64.603 C101.94,64.914 101.685,65.198 101.345,65.198 L100.069,65.198" id="Fill-248"></path>
            <path d="M94.06,68.117 C93.748,68.117 93.465,67.862 93.465,67.522 C93.465,67.21 93.748,66.927 94.06,66.927 L101.94,66.927 C102.28,66.927 102.536,67.21 102.536,67.522 C102.536,67.862 102.28,68.117 101.94,68.117 L94.06,68.117" id="Fill-249"></path>
            <path d="M86.435,71.377 C86.123,71.377 85.839,71.122 85.839,70.782 C85.839,70.442 86.123,70.187 86.435,70.187 L98.68,70.187 C99.021,70.187 99.276,70.442 99.276,70.782 C99.276,71.122 99.021,71.377 98.68,71.377 L86.435,71.377" id="Fill-250"></path>
            <path d="M82.41,71.377 C82.069,71.377 81.814,71.122 81.814,70.782 C81.814,70.442 82.069,70.187 82.41,70.187 L83.685,70.187 C84.025,70.187 84.28,70.442 84.28,70.782 C84.28,71.122 84.025,71.377 83.685,71.377 L82.41,71.377" id="Fill-251"></path>
            <path d="M30.961,81.384 C30.621,81.384 30.365,81.1 30.365,80.788 C30.365,80.448 30.621,80.193 30.961,80.193 L43.178,80.193 C43.518,80.193 43.773,80.448 43.773,80.788 C43.773,81.1 43.518,81.384 43.178,81.384 L30.961,81.384" id="Fill-252"></path>
            <path d="M26.907,81.384 C26.595,81.384 26.312,81.1 26.312,80.788 C26.312,80.448 26.595,80.193 26.907,80.193 L28.183,80.193 C28.523,80.193 28.778,80.448 28.778,80.788 C28.778,81.1 28.523,81.384 28.183,81.384 L26.907,81.384" id="Fill-253"></path>
            <path d="M34.532,78.124 C34.221,78.124 33.937,77.869 33.937,77.528 C33.937,77.217 34.221,76.933 34.532,76.933 L40.06,76.933 C40.4,76.933 40.655,77.217 40.655,77.528 C40.655,77.869 40.4,78.124 40.06,78.124 L34.532,78.124" id="Fill-254"></path>
            <path d="M65.6,8.845 C65.033,8.278 64.268,7.938 63.389,7.938 C62.51,7.938 61.717,8.278 61.15,8.845 C60.583,9.44 60.243,10.206 60.243,11.084 C60.243,11.963 60.583,12.757 61.15,13.324 C61.717,13.891 62.51,14.231 63.389,14.231 C64.268,14.231 65.033,13.891 65.6,13.324 C66.195,12.757 66.536,11.963 66.536,11.084 C66.536,10.206 66.195,9.44 65.6,8.845 Z M63.389,6.747 C64.58,6.747 65.657,7.229 66.45,8.023 C67.244,8.788 67.726,9.894 67.726,11.084 C67.726,12.275 67.244,13.38 66.45,14.146 C65.657,14.94 64.58,15.421 63.389,15.421 C62.17,15.421 61.093,14.94 60.299,14.146 C59.534,13.38 59.052,12.275 59.052,11.084 C59.052,9.894 59.534,8.788 60.299,8.023 C61.093,7.229 62.17,6.747 63.389,6.747 Z" id="Fill-255"></path>
        </g>
    </g>
</svg>