<svg width="171" height="173" xmlns="http://www.w3.org/2000/svg"><g fill="#5856D6" fill-rule="evenodd"><path d="M167.345 165.463h2.693v1.162h-4.337c.567-.34 1.134-.737 1.644-1.162zm-16.951 0h3.033c.51.425 1.077.822 1.644 1.162h-5.811.028v-.029h.029v-.028h.028v-.028h.028v-.029h.029v-.028h.028l.028-.028.029-.029.028-.028h.028l.029-.057h.028v-.028l.085-.057.057-.085.085-.056v-.029l.056-.057h.029v-.028l.057-.056.085-.086.085-.085v-.028l.056-.028v-.029l.057-.056v-.029h.028l.029-.056h.028v-.029h.028v-.028h.029v-.028zm-148.819 0h134.589l.056.056v.029l.057.056h.029l.056.085.029.029.028.056h.028v.029l.057.056h.028l.057.086.057.056.028.028.057.057v.029l.085.056v.029h.028l.028.056h.029c.028.029.028.057.057.057l.028.028.057.057h.028v.028l.028.029.029.028h.028v.028l.057.029v.028h.028l.028.028.029.029-135.723.028v-1.19z"/><path d="M150.507 165.321h2.778a10.6 10.6 0 0 0 1.587 1.19h-5.47l.34-.34c.283-.255.51-.538.765-.85zm-135.241 0h120.813c.227.312.482.595.737.85.113.114.227.227.368.34H10.249a.598.598 0 0 1-.595-.595v-.142a9.086 9.086 0 0 0 2.154.255c1.19 0 2.381-.226 3.458-.708zM86.728.656c21.203 0 40.478 8.674 54.453 22.649 13.947 13.975 22.621 33.222 22.621 54.425 0 12.501-.114 28.29-.227 44.079-.057 7.172-.114 14.315-.142 21.26a7.477 7.477 0 0 0-1.19-.51c.056-6.718.085-13.748.141-20.75.114-15.477.227-30.954.227-44.079 0-20.863-8.532-39.827-22.28-53.603-13.748-13.748-32.74-22.28-53.603-22.28s-39.827 8.532-53.575 22.28C19.376 37.903 10.844 56.867 10.844 77.73v56.552a5.79 5.79 0 0 0-1.19.198V77.73c0-21.203 8.674-40.45 22.648-54.425C46.277 9.33 65.553.656 86.728.656z"/><path d="M143.732 48.874v-9.44a.6.6 0 0 1 .596-.595h2.324c.312 0 .595.255.595.595v9.44h-1.19v-8.845h-1.134v8.845h-1.191"/><path d="M144.895 39.434h1.19v-21.26h-1.19zM149.94 51a6.3 6.3 0 0 0-4.45-1.843A6.303 6.303 0 0 0 141.039 51a6.236 6.236 0 0 0-1.842 4.422c0 1.417.482 2.721 1.247 3.77a6.217 6.217 0 0 0 2.636 2.041c.142-.284.426-.539.794-.737.425-.199.992-.34 1.616-.34.623 0 1.19.141 1.616.34.368.198.652.453.793.737a5.973 5.973 0 0 0 2.608-2.041 6.23 6.23 0 0 0 1.276-3.77A6.233 6.233 0 0 0 149.94 51zm-4.45-3.034c2.069 0 3.94.823 5.272 2.183a7.437 7.437 0 0 1 2.183 5.273 7.445 7.445 0 0 1-1.474 4.478 7.524 7.524 0 0 1-3.884 2.693c-.311.085-.652-.085-.737-.397-.028-.056-.028-.113-.028-.17v-.311c0-.029-.085-.085-.227-.142-.283-.142-.652-.227-1.105-.227-.454 0-.822.085-1.106.227-.141.057-.227.113-.227.142v.311a.598.598 0 0 1-.595.596c-.085 0-.142 0-.227-.029-1.53-.482-2.891-1.417-3.826-2.693a7.439 7.439 0 0 1-1.474-4.478 7.44 7.44 0 0 1 2.182-5.273c1.333-1.36 3.203-2.183 5.273-2.183zm2.579 19.928l.255 11.084-1.19.028-.255-11.112h1.19zm-4.082-.198l-.141 11.31-1.191-.028.142-11.311 1.19.029z"/><path d="M142.967 61.715c0-.511.34-.936.907-1.219.425-.199.992-.34 1.616-.34.623 0 1.19.141 1.616.34.566.283.907.708.907 1.219v2.522a.581.581 0 0 1-.596.596h-3.855a.581.581 0 0 1-.595-.596v-2.522zm1.19 0v1.927h2.665c0-.624.028-1.304 0-1.927 0-.029-.085-.085-.227-.142-.283-.142-.652-.227-1.105-.227-.454 0-.822.085-1.106.227-.141.057-.227.113-.227.142z"/><path d="M143.477 66.76h4.025v-1.927h-4.025v1.927zm-.595-3.118h5.216a.62.62 0 0 1 .595.595v3.119c0 .34-.284.595-.595.595h-5.216a.598.598 0 0 1-.595-.595v-3.119c0-.311.283-.595.595-.595zm-77.783 14.74h42.747v-2.353H65.099v2.353zm-.595-3.543h43.937c.34 0 .595.255.595.595v3.544c0 .34-.255.595-.595.595H64.504a.581.581 0 0 1-.595-.595v-3.544c0-.34.255-.595.595-.595z"/><path d="M67.509 89.749h38.041V79.573H67.509v10.176zm-.596-11.367h39.232c.312 0 .595.284.595.596v11.367c0 .34-.283.595-.595.595H66.913a.581.581 0 0 1-.595-.595V78.978a.6.6 0 0 1 .595-.596z"/><path d="M20.085 89.749h46.233V79.573H20.085v10.176zm-.595-11.367h47.423a.6.6 0 0 1 .596.596v11.367c0 .34-.255.595-.596.595H19.49a.582.582 0 0 1-.596-.595V78.978a.6.6 0 0 1 .596-.596zm87.278 11.367h46.262V79.573h-46.262v10.176zm-.595-11.367h47.452c.312 0 .567.284.567.596v11.367c0 .34-.255.595-.567.595h-47.452a.598.598 0 0 1-.595-.595V78.978c0-.312.283-.596.595-.596z"/><path d="M13.112 93.859h147.345V90.94H13.112v2.919zm-.595-4.11h148.535c.34 0 .595.255.595.596v4.11c0 .34-.255.595-.595.595H12.517c-.312 0-.567-.255-.567-.595v-4.11c0-.341.255-.596.567-.596z"/><path d="M17.279 100.294h138.529V95.05H17.279v5.244zm-.596-6.435h139.72c.34 0 .595.256.595.596v6.434a.6.6 0 0 1-.595.596H16.683a.62.62 0 0 1-.595-.596v-6.434a.6.6 0 0 1 .595-.596z"/><path d="M15.578 107.267h8.646v-1.956h-8.646v1.956zm133.285 0h8.674v-1.956h-8.674v1.956zm-26.646 0h8.646v-1.956h-8.646v1.956zm-26.674 0h8.674v-1.956h-8.674v1.956zm-26.645 0h8.645v-1.956h-8.645v1.956zm-26.674 0h8.674v-1.956h-8.674v1.956zm-24.945-3.174h138.529v-2.608H17.279v2.608zm-.596-3.799h139.72c.34 0 .595.255.595.595v3.232h1.106c.34 0 .595.283.595.595v3.147a.599.599 0 0 1-.595.595h-9.836a.62.62 0 0 1-.596-.595v-2.608h-15.618v2.608a.6.6 0 0 1-.596.595h-9.836a.599.599 0 0 1-.595-.595v-2.608H105.38v2.608c0 .311-.256.595-.567.595h-9.865a.618.618 0 0 1-.595-.595v-2.608H78.734v2.608a.599.599 0 0 1-.595.595h-9.837a.599.599 0 0 1-.595-.595v-2.608H52.088v2.608a.618.618 0 0 1-.595.595h-9.865a.62.62 0 0 1-.595-.595v-2.608H25.414v2.608a.599.599 0 0 1-.595.595h-9.836a.6.6 0 0 1-.596-.595v-3.147a.6.6 0 0 1 .596-.595h1.105v-3.232c0-.34.284-.595.595-.595zm15.478-50.173h19.814V38.867H32.161v11.254zm-.596-12.444H52.57c.312 0 .595.255.595.595v12.444a.618.618 0 0 1-.595.595H31.565a.598.598 0 0 1-.595-.595V38.272c0-.34.255-.595.595-.595z"/><path d="M48.885 42.581a.68.68 0 0 0-.482-.199c-.17 0-.34.085-.453.199a.562.562 0 0 0-.199.453c0 .199.057.369.199.482a.665.665 0 0 0 .453.199.68.68 0 0 0 .68-.681c0-.17-.085-.34-.198-.453zm-.482-1.389c.51 0 .992.198 1.332.538.312.34.539.794.539 1.304 0 .539-.227.992-.539 1.333-.34.34-.822.538-1.332.538a1.84 1.84 0 0 1-1.842-1.871c0-.51.198-.964.538-1.304a1.82 1.82 0 0 1 1.304-.538zm-5.868 1.389a.68.68 0 0 0-.481-.199.665.665 0 0 0-.454.199.561.561 0 0 0-.198.453c0 .199.056.369.198.482a.665.665 0 0 0 .454.199.68.68 0 0 0 .68-.681c0-.17-.085-.34-.199-.453zm-.481-1.389c.51 0 .992.198 1.332.538.312.34.538.794.538 1.304 0 .539-.226.992-.538 1.333-.34.34-.822.538-1.332.538a1.837 1.837 0 0 1-1.843-1.871c0-.51.198-.964.539-1.304.34-.34.793-.538 1.304-.538zm-5.868 1.389a.684.684 0 0 0-.482-.199.67.67 0 0 0-.454.199.564.564 0 0 0-.198.453c0 .199.057.369.198.482a.67.67 0 0 0 .454.199.684.684 0 0 0 .482-.199.684.684 0 0 0 .198-.482c0-.17-.085-.34-.198-.453zm-.482-1.389c.51 0 .992.198 1.332.538.312.34.539.794.539 1.304 0 .539-.227.992-.539 1.333-.34.34-.822.538-1.332.538a1.841 1.841 0 0 1-1.843-1.871c0-.51.199-.964.539-1.304a1.82 1.82 0 0 1 1.304-.538zm18-2.325H30.431a.581.581 0 0 1-.595-.595v-2.863c0-.34.255-.595.595-.595h23.273c.312 0 .595.255.595.595v2.863c0 .34-.283.595-.595.595zm-22.677-1.19h22.082v-1.701H31.027v1.701z"/><path d="M42.394 24.637c-3.118.085-5.556 1.049-7.2 2.863-1.616 1.786-2.495 4.422-2.495 7.909h-1.19c0-3.798.992-6.718 2.806-8.702 1.871-2.07 4.592-3.147 8.05-3.26l.029 1.19"/><path d="M52.031 35.976H32.104c-.34 0-.595-.255-.595-.567 0-3.798.963-6.69 2.721-8.702 1.814-2.07 4.479-3.147 7.824-3.26h.028c3.345.113 6.009 1.19 7.824 3.26 1.757 1.984 2.692 4.875 2.721 8.645v.057c0 .312-.255.567-.596.567zm-19.332-1.162h18.737c-.113-3.203-.935-5.641-2.409-7.314-1.616-1.814-3.969-2.778-6.973-2.863-2.977.085-5.358 1.049-6.945 2.863-1.474 1.673-2.325 4.111-2.41 7.314z"/><path d="M39.587 23.645h5.103v-1.389h-5.103v1.389zm-.595-2.551h6.293c.312 0 .595.255.595.567v2.58c0 .34-.283.595-.595.595h-6.293a.581.581 0 0 1-.595-.595v-2.58c0-.312.255-.567.595-.567zm-8.079 32.57h22.281v-2.268H30.913v2.268zm-.595-3.43h23.471c.34 0 .595.255.595.567v3.458a.6.6 0 0 1-.595.596H30.318a.619.619 0 0 1-.595-.596v-3.458c0-.312.283-.567.595-.567z"/><path d="M29.156 56.782h25.625v-1.474H29.156v1.474zm-.595-2.664h26.815c.312 0 .596.283.596.595v2.665a.6.6 0 0 1-.596.595H28.561a.581.581 0 0 1-.596-.595v-2.665c0-.312.255-.595.596-.595z"/><path d="M43.357 58.058H40.75l-.256 19.956h3.062l-.199-19.956zm-3.203-1.191h3.799c.34 0 .595.255.595.596v.028l.198 21.118a.598.598 0 0 1-.595.595h-4.252a.618.618 0 0 1-.595-.595v-.057l.255-21.118c0-.312.283-.567.595-.567zm-5.924 1.191h-2.636l-.227 19.956H34.4l-.17-19.956zm-3.203-1.191h3.798c.312 0 .595.255.595.596v.028l.171 21.118c0 .312-.256.595-.567.595h-4.252a.598.598 0 0 1-.596-.595v-.057l.255-21.118c0-.312.256-.567.596-.567zm21.486 1.191h-2.636l-.227 19.956h3.033l-.17-19.956zm-3.231-1.191h3.798c.34 0 .596.255.596.596v.028l.198 21.118a.598.598 0 0 1-.595.595h-4.224a.598.598 0 0 1-.595-.595v-.057l.227-21.118a.613.613 0 0 1 .595-.567zm52.838-35.121c.17-.028.34-.028.51-.028.992 0 1.927.311 2.693.878.68.454 1.247 1.106 1.644 1.843.17 0 .34-.028.482-.028 1.105 0 2.126.51 2.835 1.332.708.794 1.133 1.871 1.133 3.09a4.61 4.61 0 0 1-.963 2.834c-.681.822-1.616 1.276-2.523 1.276h-4.848c-.056.028-.141.028-.198.028h-.482c-.057 0-.142 0-.198-.028H82.787c-1.105 0-2.097-.482-2.806-1.304-.709-.794-1.134-1.871-1.134-3.09 0-1.19.425-2.267 1.134-3.061a3.77 3.77 0 0 1 2.551-1.332 4.574 4.574 0 0 1 1.106-1.985c.538-.538 1.19-.935 1.927-1.105.369-1.446 1.106-2.693 2.126-3.6 1.077-.992 2.466-1.588 3.969-1.588 1.105 0 2.154.341 3.061.879.766.482 1.418 1.134 1.956 1.899.142-.085.312-.141.482-.198.34-.113.709-.17 1.077-.17 1.049 0 2.013.482 2.722 1.219.566.595.992 1.36 1.162 2.239zm.51 1.162c-.142 0-.312 0-.425.029-.142 0-.284.056-.454.085a.583.583 0 0 1-.708-.426c-.029-.056-.029-.085-.029-.141a3.393 3.393 0 0 0-.907-2.126 2.518 2.518 0 0 0-1.871-.851c-.255 0-.51.057-.737.114a2.532 2.532 0 0 0-.68.34.585.585 0 0 1-.822-.142l-.028-.057c-.482-.822-1.106-1.502-1.871-1.955a4.607 4.607 0 0 0-2.438-.709c-1.191 0-2.296.482-3.175 1.276-.907.822-1.587 2.012-1.842 3.344a.549.549 0 0 1-.539.482c-.624.057-1.162.369-1.616.822-.453.482-.765 1.134-.879 1.843a.57.57 0 0 1-.623.51h-.199c-.737 0-1.417.34-1.927.907-.51.595-.822 1.389-.822 2.296 0 .907.312 1.729.822 2.296.51.567 1.19.907 1.927.907h19.446c.028 0 .057.029.085.029h.737v-.029h4.876c.567 0 1.162-.311 1.587-.85.425-.51.709-1.219.709-2.069 0-.907-.312-1.729-.822-2.325-.51-.538-1.191-.907-1.956-.907-.114 0-.227 0-.34.029-.085 0-.199.028-.312.056a.583.583 0 0 1-.709-.34 4.103 4.103 0 0 0-1.445-1.786 3.353 3.353 0 0 0-2.013-.652zm15.846 19.106c.113-.397.368-.709.68-.936.312-.255.709-.368 1.105-.368.511 0 .964.198 1.304.51.341-.34.822-.538 1.333-.538.425 0 .85.17 1.162.425.34.255.567.623.68 1.049l-1.162.255a.698.698 0 0 0-.68-.539.665.665 0 0 0-.511.227.606.606 0 0 0-.226.482h-1.191c0-.199-.057-.369-.198-.482-.114-.142-.284-.199-.511-.199a.65.65 0 0 0-.396.114.729.729 0 0 0-.284.368l-1.105-.368m2.976-5.981c.142-.426.425-.794.765-1.049.369-.255.794-.425 1.248-.425.595 0 1.133.255 1.502.623l.028.029.029-.029a2.12 2.12 0 0 1 1.502-.623c.51 0 .964.17 1.332.453.369.284.624.681.737 1.162l-1.134.284c-.056-.199-.17-.397-.34-.51a.888.888 0 0 0-.595-.199.898.898 0 0 0-.652.255.992.992 0 0 0-.283.681H124.4c0-.255-.085-.511-.255-.652a.94.94 0 0 0-.68-.284.875.875 0 0 0-.539.17.85.85 0 0 0-.34.482l-1.134-.368M19.631 82.096h47.282v-1.191H19.631zm86.542 0h47.282v-1.191h-47.282zm-89.518 26.163l-.312 28.205a9.79 9.79 0 0 0-1.162-.992l.312-27.751v-.057c0-.312.255-.595.595-.595h7.625c.341 0 .596.283.596.595l.652 56.126v.057a.6.6 0 0 1-.596.595H16.91c.51-.34.992-.737 1.474-1.19h5.386l-.624-54.993h-6.491"/><path d="M18.384 163.252h6.208c.454 0 .879.198 1.162.481 0 .029.029.029.029.057.283.284.453.681.453 1.106 0 .453-.198.85-.482 1.133-.283.312-.708.482-1.162.482h-9.383c-.453 0-.878-.17-1.162-.482-.028 0-.028-.028-.028-.028-.057-.056-.114-.142-.17-.198a8.42 8.42 0 0 0 1.417-.482h9.326c.142 0 .255-.028.312-.114a.455.455 0 0 0 .142-.311.433.433 0 0 0-.114-.284l-.028-.028c-.057-.085-.17-.142-.312-.142H16.91c.51-.34.992-.737 1.474-1.19m133.257.17c.227.368.51.708.794 1.02h-1.333c.199-.312.369-.652.539-1.02zm-1.672-55.163l-.511 44.703a7.324 7.324 0 0 0-1.19-.907l.51-44.334v-.057c0-.312.255-.595.595-.595h7.654c.312 0 .567.283.595.595l.369 34.866a8.49 8.49 0 0 0-1.163.511l-.396-34.782h-6.463z"/><path d="M150.507 165.321h2.778a10.6 10.6 0 0 0 1.587 1.19h-5.47l.34-.34c.283-.255.51-.538.765-.85zm1.134-1.899c.227.368.51.708.794 1.02h-1.333c.199-.312.369-.652.539-1.02zm-30.161.425l.652-56.126v-.057c0-.312.255-.595.596-.595h7.625c.34 0 .595.283.595.595l.624 56.126c.028.029.028.057.028.057 0 .34-.283.595-.595.595h-8.929a.581.581 0 0 1-.596-.595zm1.814-55.588l-.623 54.993h7.71l-.595-54.993h-6.492z"/><path d="M131.232 164.442h-9.412a.455.455 0 0 0-.311.142.591.591 0 0 0-.114.312c0 .113.029.198.114.283v.028a.422.422 0 0 0 .311.114h9.412c.141 0 .226-.028.311-.114a.455.455 0 0 0 .142-.311.437.437 0 0 0-.113-.284l-.029-.028c-.085-.085-.17-.142-.311-.142zm-9.412-1.19h9.412c.453 0 .85.198 1.162.481 0 .029.028.029.028.057.284.284.454.681.454 1.106 0 .453-.199.85-.482 1.133a1.606 1.606 0 0 1-1.162.482h-9.412c-.425 0-.85-.17-1.133-.482-.029 0-.029-.028-.057-.028a1.67 1.67 0 0 1-.425-1.105c0-.454.17-.851.482-1.163a1.657 1.657 0 0 1 1.133-.481zm-26.985.595l.623-56.126v-.057c0-.312.255-.595.596-.595h7.653c.312 0 .567.283.595.595l.624 56.126v.057c0 .34-.255.595-.595.595h-8.929c-.312 0-.567-.255-.567-.595zm1.814-55.588l-.624 54.993h7.71l-.623-54.993h-6.463z"/><path d="M104.586 164.442h-9.411a.455.455 0 0 0-.312.142.455.455 0 0 0-.142.312c0 .113.057.198.114.283l.028.028a.422.422 0 0 0 .312.114h9.411a.424.424 0 0 0 .312-.114.425.425 0 0 0 .113-.311c0-.114-.028-.227-.085-.284l-.028-.028a.457.457 0 0 0-.312-.142zm-9.411-1.19h9.411c.453 0 .85.198 1.134.481l.056.057c.255.284.426.681.426 1.106 0 .453-.171.85-.482 1.133a1.498 1.498 0 0 1-1.134.482h-9.411c-.454 0-.851-.17-1.162-.482l-.029-.028c-.283-.283-.425-.68-.425-1.105 0-.454.17-.851.454-1.163.311-.283.708-.481 1.162-.481zm-27.014.595l.652-56.126v-.057c0-.312.255-.595.595-.595h7.625c.34 0 .595.283.595.595l.652 56.126v.057c0 .34-.283.595-.595.595h-8.929a.581.581 0 0 1-.595-.595zm1.814-55.588l-.624 54.993h7.739l-.624-54.993h-6.491z"/><path d="M77.912 164.442h-9.411a.35.35 0 0 0-.284.142h-.028a.59.59 0 0 0-.113.312c0 .113.028.198.113.283l.028.028c.057.086.17.114.284.114h9.411c.142 0 .227-.028.312-.114a.453.453 0 0 0 .141-.311.432.432 0 0 0-.113-.284l-.028-.028c-.085-.085-.17-.142-.312-.142zm-9.411-1.19h9.411c.453 0 .879.198 1.162.481 0 .029.028.029.028.057.284.284.454.681.454 1.106 0 .453-.199.85-.482 1.133-.283.312-.709.482-1.162.482h-9.411c-.425 0-.851-.17-1.134-.482-.028 0-.028-.028-.028-.028a1.561 1.561 0 0 1-.454-1.105c0-.454.198-.851.482-1.163a1.66 1.66 0 0 1 1.134-.481zm-26.986.595l.624-56.126v-.057c0-.312.283-.595.595-.595h7.653c.312 0 .596.283.596.595l.623 56.126v.057c0 .34-.255.595-.595.595H42.11a.581.581 0 0 1-.595-.595zm1.814-55.588l-.623 54.993h7.71l-.624-54.993h-6.463z"/><path d="M51.266 164.442h-9.411a.457.457 0 0 0-.312.142.454.454 0 0 0-.141.312c0 .113.056.198.113.283l.028.028a.424.424 0 0 0 .312.114h9.411a.422.422 0 0 0 .312-.114.425.425 0 0 0 .113-.311c0-.114-.028-.227-.085-.284l-.028-.028a.455.455 0 0 0-.312-.142zm-9.411-1.19h9.411c.454 0 .851.198 1.134.481l.057.057c.255.284.425.681.425 1.106 0 .453-.17.85-.482 1.133-.283.312-.68.482-1.134.482h-9.411c-.453 0-.85-.17-1.162-.482 0 0 0-.028-.028-.028-.284-.283-.426-.68-.426-1.105 0-.454.17-.851.454-1.163.312-.283.709-.481 1.162-.481zm-39.997 9.694h168.463v-1.19H1.858zm18.539-25.795c-.68-1.701-1.673-3.175-2.863-4.309l-.17-.198v-.567c0-1.843-.681-3.487-1.786-4.706-1.106-1.162-2.608-1.899-4.28-1.899-1.418 0-2.722.51-3.77 1.417a6.756 6.756 0 0 0-2.155 3.685l-.085.397-.397.057a4.022 4.022 0 0 0-2.409 1.446 4.28 4.28 0 0 0-.964 2.693c0 .538.085 1.048.284 1.53.17.482.453.936.793 1.304l.227.255-.085.312a11.25 11.25 0 0 0-.425 1.984 16.564 16.564 0 0 0-.142 2.07c0 3.401 1.106 6.491 2.863 8.702 1.758 2.183 4.139 3.515 6.775 3.515 2.608 0 5.017-1.332 6.746-3.515 1.758-2.211 2.863-5.301 2.863-8.702 0-1.956-.368-3.827-1.02-5.471zm-1.843-4.989c1.219 1.219 2.24 2.778 2.948 4.535.709 1.786 1.106 3.799 1.106 5.925 0 3.685-1.191 7.03-3.118 9.439-1.985 2.466-4.677 3.968-7.682 3.968-3.033 0-5.726-1.502-7.682-3.968-1.928-2.409-3.146-5.754-3.146-9.439 0-.737.056-1.503.17-2.211.085-.652.198-1.276.34-1.871a5.337 5.337 0 0 1-.794-1.418 5.1 5.1 0 0 1-.368-1.955c0-1.304.453-2.495 1.218-3.43.709-.851 1.673-1.503 2.75-1.786.425-1.588 1.304-2.977 2.466-3.969a6.86 6.86 0 0 1 4.536-1.7c2.012 0 3.826.878 5.159 2.296 1.304 1.417 2.097 3.373 2.097 5.499v.085z"/><path d="M12.176 143.239l.085 29.112h-1.19l-.085-29.112h1.19"/><path d="M19.178 154.039c0 2.324-.822 4.45-2.154 5.981-1.361 1.559-3.232 2.523-5.301 2.523v-1.191c1.729 0 3.288-.822 4.422-2.126 1.134-1.304 1.842-3.146 1.842-5.187h1.191m-7.427 3.402c-1.701 0-3.26-.794-4.365-2.07-1.106-1.247-1.758-3.004-1.758-4.904h1.163c0 1.616.566 3.09 1.502 4.139.879 1.02 2.098 1.644 3.458 1.644v1.191m0-5.953c.851 0 1.644-.397 2.24-1.077.595-.681.963-1.644.963-2.693h1.191c0 1.36-.482 2.579-1.276 3.486-.793.907-1.899 1.474-3.118 1.474v-1.19m-.113-2.353c-.964 0-1.814-.453-2.41-1.162-.595-.68-.963-1.616-.963-2.636h1.19c0 .737.255 1.389.652 1.87.397.454.936.738 1.531.738v1.19m148.479-6.916c1.899 0 3.6.765 4.847 2.012a6.81 6.81 0 0 1 2.012 4.847v.142c1.191.964 2.183 2.154 2.863 3.543a10.595 10.595 0 0 1 1.134 4.734c0 2.92-1.19 5.556-3.118 7.455a10.44 10.44 0 0 1-7.483 3.118c-2.92 0-5.556-1.19-7.455-3.118a8.27 8.27 0 0 1-1.276-1.53c.198-.454.368-.936.51-1.446a9.172 9.172 0 0 0 1.588 2.154 9.361 9.361 0 0 0 6.633 2.75 9.38 9.38 0 0 0 6.661-2.75 9.361 9.361 0 0 0 2.75-6.633 9.343 9.343 0 0 0-.992-4.195 9.036 9.036 0 0 0-2.778-3.316l-.255-.199.028-.312v-.397a5.66 5.66 0 0 0-5.669-5.669c-1.588 0-3.005.624-4.026 1.672a5.547 5.547 0 0 0-1.672 3.997v.397c.028.114.028.255.057.369l.028.312-.255.198a9.549 9.549 0 0 0-2.41 3.203 11.02 11.02 0 0 0-.567 1.701 7.834 7.834 0 0 0-.878-1.276c.113-.312.255-.623.368-.907a10.552 10.552 0 0 1 2.495-3.401v-.142c-.029-.142-.029-.312-.029-.454 0-1.899.766-3.6 2.013-4.847a6.877 6.877 0 0 1 4.876-2.012"/><path d="M148.92 154.096a7.947 7.947 0 0 0-5.641-2.353 7.88 7.88 0 0 0-5.613 2.353 7.88 7.88 0 0 0-2.353 5.612c0 2.211.907 4.195 2.353 5.641a7.972 7.972 0 0 0 5.613 2.325c2.211 0 4.195-.907 5.641-2.325 1.417-1.446 2.324-3.43 2.324-5.641a7.975 7.975 0 0 0-2.324-5.612zm-5.641-3.515a9.126 9.126 0 0 1 6.463 2.664 9.035 9.035 0 0 1 2.693 6.463 9.035 9.035 0 0 1-2.693 6.463 9.031 9.031 0 0 1-6.463 2.693 9.031 9.031 0 0 1-6.463-2.693 9.127 9.127 0 0 1-2.665-6.463 9.127 9.127 0 0 1 2.665-6.463 9.126 9.126 0 0 1 6.463-2.664z"/><path d="M143.846 152.622l.056 19.984h-1.162l-.085-19.984h1.191"/><path d="M149.373 160.049c0 1.644-.68 3.146-1.757 4.251a5.994 5.994 0 0 1-4.252 1.758v-1.191a4.724 4.724 0 0 0 3.401-1.417 4.775 4.775 0 0 0 1.418-3.401h1.19m-5.981 2.522c-1.389 0-2.608-.567-3.515-1.474-.907-.878-1.445-2.126-1.445-3.486h1.162c0 1.02.425 1.984 1.134 2.664a3.747 3.747 0 0 0 2.664 1.106v1.19m-.028-5.782c.453 0 .85-.17 1.134-.454.283-.312.482-.709.482-1.134h1.19c0 .765-.312 1.474-.822 1.956a2.76 2.76 0 0 1-1.984.822v-1.19m17.404-8.589l.086 24.378-1.163.028-.113-24.406h1.19"/><path d="M167.543 157.242a7.225 7.225 0 0 1-2.126 5.103 7.176 7.176 0 0 1-5.102 2.126v-1.191c1.672 0 3.175-.68 4.28-1.786a5.997 5.997 0 0 0 1.758-4.252h1.19m-7.2 2.948a5.888 5.888 0 0 1-4.195-1.729 5.888 5.888 0 0 1-1.729-4.195h1.19c0 1.304.511 2.494 1.389 3.345.851.878 2.041 1.389 3.345 1.389v1.19m0-5.187a3.04 3.04 0 0 0 2.155-.879 3.063 3.063 0 0 0 .907-2.183h1.19c0 1.191-.482 2.24-1.247 3.005a4.267 4.267 0 0 1-3.005 1.247v-1.19m-.113-1.786a3.278 3.278 0 0 1-2.324-.964 3.256 3.256 0 0 1-.936-2.296h1.191c0 .567.226 1.106.595 1.474.368.369.907.595 1.474.595v1.191m-75.147-93.09a3.757 3.757 0 0 0-.822.992c-.311.539-.396 1.021-.283 1.361l.227.652-.681.113c-.056 0-.085.029-.113.057-.142.113-.227.397-.255.765-.057.426-.028.964.057 1.446.085.453.198.879.311 1.162.681-.312 1.219-.51 1.559-.652v-5.896zm14.967 15.279c.085-.935-.17-1.332-.68-1.644 0 .17.028.34.028.51.029.595.057 1.049-.085 1.389l-1.105-.454c.057-.113.028-.425 0-.878-.028-.426-.028-.936-.028-1.531l.028-.907.935.425c1.446.681 2.268 1.049 2.098 3.175l-1.191-.085zm-11.423-4.167c.056-.595.227-1.304.425-2.041-1.077-.595-2.098-1.247-2.891-1.757l-.567-.369c-.425.17-1.361.567-2.495 1.162.369 1.049.652 2.183.709 3.09.255.34.595.595.964.765a3.64 3.64 0 0 0 1.53.341c.482 0 .936-.114 1.333-.312.368-.199.708-.482.992-.879zm.227-8.362zm-1.078.992v-.085c-.056-.085-.17-.057-.396-.227-.482-.453-1.021-.964-.993-1.304.057-.595.511-1.275.681-1.502v-.029c.056-.056.056-.141.028-.17 0-.028-.057-.056-.085-.085a.462.462 0 0 0-.255-.085.71.71 0 0 0-.482.085v5.585c.142-.114.255-.256.34-.397.114-.255.142-.539.085-.907l1.191-.17c.085.623 0 1.162-.227 1.615a2.38 2.38 0 0 1-.397.539c.624.425 1.389.879 2.126 1.332l.057-.142.028-.595c.029-.992.057-2.636.057-2.806-.028-.227-.028-.454-.085-.652-.029-.17-.057-.34-.114-.482a.924.924 0 0 0-.283-.369c-.057-.056-.113-.084-.17-.113 0 .029-.028.057-.028.085 0 .085 0 .227.028.369l.028.113.029.142-1.163.255zm-.482-9.581h-1.02v.964a1.796 1.796 0 0 0 1.02-.964zm-1.02-2.381v1.19h1.106c-.142-.567-.567-.992-1.106-1.19zm-2.324 1.19h1.133v-1.219c-.538.199-.992.652-1.133 1.219zm1.133 2.155v-.964h-1.048c.198.453.567.793 1.048.964zm-1.19-4.054c.227-.17.482-.312.765-.425-.085-.028-.141-.085-.198-.17-.369-.34-1.332-1.247-2.466-2.126.085.567.255 1.02.482 1.445.368.624.878 1.049 1.417 1.276zm4.365.935c.227.426.369.908.369 1.446 0 .822-.34 1.559-.851 2.098-.425.397-.935.68-1.502.794v2.749c.198-.028.425-.028.624 0 .255.028.51.113.708.227.227.142.425.312.539.539.198.396.227.85-.028 1.332a.38.38 0 0 0-.086.113c-.113.142-.453.624-.481.936 0 .113.085.141.198.141.028-.056.028-.085.057-.141.113-.227.255-.369.425-.482.255-.17.567-.227.85-.142.255.057.482.17.709.34.283.227.539.539.68.907.057.199.114.425.17.68.029.227.057.482.085.794 0 .085 0 .482-.028.964.142-.17.255-.312.369-.425.056-1.247.198-3.94 1.077-5.358.283-.482.623-.793.964-.935.481-.255.963-.199 1.417 0 .368.198.709.51.992.85.595.709 1.02 1.673 1.105 2.126.057.369-.085.709-.311.964-.142.17-.369.312-.624.368a1.498 1.498 0 0 1-.624.057c.029.34.057.652.085.907.057.397.114.652.199.794.113.142.227.312.34.454.652.226 1.417.368 2.324.425.908.028 1.928-.029 3.062-.17.085-3.033 1.105-4.677 2.183-5.386a3.35 3.35 0 0 1 1.247-.454c.425-.028.822.029 1.134.17.623.255 1.02.794.992 1.474.028.255.113.596.198.936.227 1.049.482 2.097-.453 2.721-.341.227-.681.34-.992.312-.057 0-.086 0-.142-.028l.028.141c.057.454.142.822.255 1.134.454.51.709 1.077.766 1.616.056.368 0 .737-.114 1.105.624.17 1.106.369 1.162 1.021v.113l-.311 1.418c-.227 1.077-.426 2.296-.681 3.344l-1.162-.226.284-1.559.283-1.304-1.644-.227c-.142.17-.284.312-.425.453-.199.142-.397.284-.624.369-.057.539-.085.879-.113 1.219-.029.482-.057.879-.17 1.644l-1.163-.198c.086-.681.114-1.049.142-1.531.029-.397.057-.879.142-1.644l.057-.397.396-.085c.256-.085.426-.17.567-.284.142-.113.256-.283.397-.481l.199-.341 2.494.341.142-.567c-.085-.029-.284.056-.539 0a7.004 7.004 0 0 0-.453-.142l-.766-.227.426-.652c.255-.368.34-.68.311-1.02-.056-.341-.226-.681-.567-1.049l-.085-.085-.028-.114c-.17-.396-.283-.907-.368-1.474-.085-.538-.114-1.162-.114-1.871h1.191v.057l.17.029c0 .113 0 .198.057.283l.028.028h.028c.085 0 .17-.028.284-.085.255-.17.085-.822-.057-1.474-.085-.397-.198-.822-.198-1.219v-.056c0-.142-.114-.255-.284-.34a1.091 1.091 0 0 0-.538-.057 2.067 2.067 0 0 0-.737.255c-.879.567-1.673 2.013-1.645 4.904v.142l-.056.141c-.199.369-.34.624-.51.822a2.068 2.068 0 0 1-.567.539 11.48 11.48 0 0 1-1.503.822c-.708.34-1.332.652-1.757 1.106-1.077 1.162-.624 2.579-.199 3.826.227.737.454 1.446.397 2.098l-1.19-.113c.056-.426-.142-.993-.341-1.645-.51-1.53-1.077-3.288.482-4.96.567-.624 1.276-.964 2.07-1.361.396-.198.793-.397 1.19-.652-.822.085-1.616.085-2.324.057a13.886 13.886 0 0 1-1.644-.17c.028.085.056.198.085.312.113.737.028 1.53-.284 2.324-.255 1.559-.34 2.948-.397 4.252a33.882 33.882 0 0 1-.113 1.814l-1.162-.085c.028-.623.057-1.19.085-1.786.085-1.36.142-2.806.425-4.45v-.057l.028-.056c.256-.624.341-1.219.227-1.758-.085-.595-.368-1.134-.822-1.672l-.028-.029-.029-.056c-.141-.256-.255-.681-.34-1.276-.085-.482-.141-1.106-.17-1.899l-.028-.057h.028v-.113h.199l.793-.482c.114.198.255.283.397.312.057.028.142.028.17 0 .029 0 .057-.029.057-.029-.028-.312-.369-.992-.822-1.53-.199-.227-.397-.426-.595-.539-.142-.057-.284-.085-.397-.028a1.526 1.526 0 0 0-.482.482c-.737 1.218-.85 3.77-.879 4.903l-.028.624-.425.114c-.284.084-.822 1.247-1.304 2.607-.482 1.418-.851 2.977-.652 3.714v.028c.255.766.425 1.389.51 1.871.028.113.057.227.057.34l.765-2.693 1.276.34.141.17c.085.142.199.227.369.341.113.085.227.17.397.311l.17.17.028.256a34.41 34.41 0 0 0 .142 2.012l-1.191.114s-.056-.681-.113-1.815l-.142-.085c-.113-.085-.198-.141-.283-.226l-.652 2.267-.879-.255c0 .029-.028.057-.028.114l-1.163-.256c.057-.17.029-.453-.056-.878a14.855 14.855 0 0 0-.426-1.559c-.198.17-.396.283-.595.397a4.12 4.12 0 0 1-1.842.453h-.029c-.68 0-1.389-.17-2.041-.453-.198-.114-.396-.227-.595-.369-.198.595-.34 1.105-.425 1.531-.085.425-.085.708-.057.878l-1.162.256c0-.057 0-.085-.028-.114l-.879.255-.624-2.267c-.113.085-.198.141-.311.226l-.114.085a232.477 232.477 0 0 1-.142 1.815l-1.19-.114s.085-.765.142-2.012l.028-.256.198-.17c.142-.141.284-.226.397-.311.142-.114.284-.199.369-.341l.113-.17 1.276-.34.765 2.693c.028-.113.028-.227.057-.34a35.03 35.03 0 0 1 .51-1.871l.028-.028c.17-.737-.17-2.296-.68-3.714-.482-1.36-1.02-2.523-1.304-2.607l-.397-.114-.028-.624c-.057-1.133-.17-3.685-.907-4.903-.17-.255-.312-.397-.454-.482-.141-.057-.255-.029-.397.028-.226.113-.425.312-.623.539-.454.538-.766 1.218-.822 1.53 0 0 .028.029.056.029a.185.185 0 0 0 .171 0c.141-.029.283-.114.396-.312l.794.482h.198v.113h.029l-.029.057a23.383 23.383 0 0 1-.141 1.899c-.085.595-.199 1.02-.369 1.276l-.028.056-.028.029c-.454.538-.737 1.077-.822 1.672-.086.539-.029 1.134.226 1.758l.029.056.028.057c.255 1.644.34 3.09.397 4.45.028.596.057 1.163.113 1.786l-1.19.085c-.057-.567-.085-1.19-.114-1.814-.056-1.304-.113-2.693-.368-4.252-.34-.794-.425-1.587-.284-2.324 0-.114.029-.227.057-.312-.51.085-1.049.142-1.644.17-.709.028-1.474.028-2.325-.057.397.255.823.454 1.191.652.794.397 1.531.737 2.069 1.361 1.559 1.672.992 3.43.511 4.96-.227.652-.397 1.219-.369 1.645l-1.19.113v-.227l-.964.397a5.713 5.713 0 0 1-.227-1.105c-.028-.199-.028-.397-.057-.624l-.085.17c-.085.255-.028.624.227 1.049l-1.02.567c-.426-.737-.539-1.389-.312-2.013.198-.595.708-1.077 1.502-1.446l.794-.368.028.907c.029.652.057 1.191.114 1.616 0 .142.028.255.028.368.085-.425.227-.907.397-1.389.397-1.247.85-2.664-.227-3.826-.425-.454-1.049-.766-1.729-1.106a13.851 13.851 0 0 1-1.531-.822 2.04 2.04 0 0 1-.567-.539 4.788 4.788 0 0 1-.482-.822l-.085-.141v-.142c.029-2.891-.765-4.337-1.644-4.904a1.945 1.945 0 0 0-.709-.255c-.226-.028-.396 0-.566.057-.171.085-.284.198-.256.34v.056a6.145 6.145 0 0 1-.226 1.219c-.142.652-.284 1.304-.029 1.474a.536.536 0 0 0 .255.085h.029c.028 0 .028-.028.056-.028a.822.822 0 0 0 .057-.283l.17-.029v-.057h1.191c-.029.709-.057 1.333-.142 1.871-.085.567-.198 1.078-.368 1.474l-.029.114-.085.085c-.312.368-.51.708-.538 1.049-.057.34.056.652.283 1.02l.425.652-.737.227c-.113.028-.283.085-.453.142-.255.056-.482-.029-.539 0l.114.51 2.494-.255.198.312c.142.198.256.368.397.481.142.114.312.199.596.284l.368.085.057.397c.085.765.113 1.247.141 1.644.029.482.057.85.171 1.531l-1.163.198a11.473 11.473 0 0 1-.198-1.644c0-.34-.028-.68-.085-1.219a1.91 1.91 0 0 1-.624-.369 3.343 3.343 0 0 1-.453-.453l-1.644.17.283 1.361.312 1.559-1.162.226c-.255-1.133-.482-2.267-.709-3.401l-.312-1.361v-.113c.057-.652.539-.851 1.162-1.021a2.958 2.958 0 0 1-.113-1.105c.057-.539.34-1.106.794-1.616a5.23 5.23 0 0 0 .255-1.134v-.141c-.028.028-.085.028-.142.028-.312.028-.652-.085-.992-.312-.935-.624-.68-1.672-.425-2.721.085-.34.142-.681.17-.936-.028-.68.368-1.219.992-1.474.34-.141.709-.198 1.134-.17a3.35 3.35 0 0 1 1.247.454c1.077.709 2.098 2.353 2.183 5.386 1.162.141 2.182.198 3.061.17.907-.057 1.701-.199 2.353-.425.085-.142.198-.312.34-.454.057-.142.114-.397.17-.794.057-.255.085-.567.114-.907-.227.029-.454 0-.652-.057-.255-.056-.454-.198-.624-.368a1.161 1.161 0 0 1-.283-.964c.056-.453.481-1.417 1.077-2.126.283-.34.623-.652 1.02-.85.425-.199.907-.255 1.417 0 .341.142.652.453.936.935.907 1.418 1.02 4.111 1.077 5.358.255.227.482.567.737.992-.028-.085-.028-.199-.057-.284-.085-.595-.141-1.218-.085-1.785.085-.624.284-1.191.681-1.531.028-.028.085-.057.113-.085-.028-.539.113-1.162.482-1.786.368-.652.964-1.332 1.842-1.928v-2.125a3.067 3.067 0 0 1-1.53-.794 3.058 3.058 0 0 1-.851-2.098c0-.538.142-1.02.369-1.446-.624-.34-1.219-.907-1.644-1.644-.482-.822-.737-1.927-.681-3.231l.085-1.021.851.567a31.575 31.575 0 0 1 2.664 2.098l-.028-.369 1.361-1.445 1.36 1.445v.369c.681-.595 1.616-1.389 2.637-2.098l.878-.567.057 1.021c.085 1.247-.17 2.324-.624 3.146a4.218 4.218 0 0 1-1.729 1.729zm-1.559-1.332c.284.085.51.227.737.397.595-.227 1.134-.68 1.503-1.361.226-.396.368-.85.453-1.36-1.162.879-2.098 1.786-2.466 2.126-.085.085-.142.142-.227.198zm-1.049-.198h.085l.114-1.644-.17-.142-.142.142.085 1.644h.028zM41.543 21.689l-.141-8.277 1.19-.028.142 8.277-1.191.028"/></g></svg>