<svg width="169" height="175" xmlns="http://www.w3.org/2000/svg"><path d="M134.005 47.954h10.011c.402 0 .804.2 1.062.402.344.286.488.687.488 1.09V63.18h.458v1.147l-13.626-.057.058-1.148V49.445c0-.402.2-.803.459-1.09.286-.2.688-.401 1.09-.401zm-33.506 30.682h4.677v-5.564h-4.333c-.056 0-.2 0-.258.086-.086.058-.086.115-.086.115v5.363zm5.824-5.564v5.564h4.934v-5.363s0-.057-.058-.115c-.057-.086-.2-.086-.258-.086h-4.618zm0 13.563h4.934V79.84h-4.934v6.796zm-5.824 0h4.677V79.84h-4.677v6.796zm16.582-8h4.617v-5.563h-4.273c-.144 0-.202 0-.288.086-.056.058-.056.115-.056.115v5.363zm5.822-5.563v5.564h4.934v-5.363s0-.057-.057-.115c-.057-.086-.201-.086-.344-.086h-4.533zm0 13.563h4.934V79.84h-4.934v6.796zm-5.822 0h4.617V79.84h-4.617v6.796zm16.522-8h4.676v-5.563h-4.274c-.144 0-.202 0-.288.086-.056.058-.114.115-.114.115v5.363zm5.88-5.563v5.564h4.935v-5.363s-.058-.057-.058-.115c-.086-.086-.2-.086-.344-.086h-4.532zm0 13.563h4.935V79.84h-4.934v6.796zm-5.88 0h4.676V79.84h-4.676v6.796zm-32.3-31.857h.286l1.062-1.462c.03-.057.057-.115.115-.143l.889.66c0 .057-.029.085-.057.143l-.545.802h2.123v-5.62H100.9a.547.547 0 0 0-.316.143c-.086 0-.086.058-.086.144v4.731l.804.602zm5.02-5.62v5.62h4.934v-5.333c0-.086 0-.144-.058-.144-.057-.056-.2-.143-.258-.143h-4.618zm4.934 6.767h-4.934v6.882h-1.147v-6.882h-2.984l-1.693 2.38v4.502h10.758v-6.882zm5.824-1.147h4.617v-5.62h-4.273c-.144 0-.202.087-.288.143-.056 0-.056.058-.056.144v5.333zm5.822-5.62v5.62h4.934v-5.333c0-.086 0-.144-.057-.144a.554.554 0 0 0-.344-.143h-4.533zm0 13.649h4.934v-6.882h-4.934v6.882zm-5.822 0h4.617v-6.882h-4.617v6.882zM86.53 86.72l-4.734 6.395 23.58 17.261 1.951 1.377h-.058l2.87 2.007 1.261-1.72.258-.287.546-.803.4-.516 2.411-3.27-5.336-3.87-.688-.545L90.89 89.647l-2.754-2.008-.46-.315-1.003-.746-.143.143zm-5.68 5.736l4.761-6.481a14.786 14.786 0 0 0-3.557-1.95l-2.81 3.958c.487.601.746 1.347.746 2.12 0 .546-.058 1.004-.26 1.492l1.12.86zm5.479-7.427l.086-.115.516.401v-7.971h7.372V90.65l1.12.86V65.33l-1.12 1.606v6.624h-4.761l-5.135 7.197v3.068a13.4 13.4 0 0 1 1.922 1.205zm1.807 1.147l5.02 3.612v-4.76h-5.02v1.148zm8.49 6.222l4.763 3.412h9.667c.402 0 .746.115 1.004.316.344.258.545.687.545 1.06v6.682l3.27 2.409v-9.09c0-.374.2-.803.546-1.061.258-.2.66-.316 1.06-.316h10.041c.4 0 .803.115 1.06.316.26.258.46.687.46 1.06v21.19h.488v1.148l-13.655-.086v-11.47l-3.27 4.473v3.126c.173.172.689.544.803.688l-.832.803.029.028v1.29h.401v1.148l-13.568-.086V107.48l-2.811-2.007v15.37l.087.4h52.121V40.27a11.43 11.43 0 0 1-1.147.2c-.602.088-1.262.144-1.864.144-4.074 0-7.545-1.548-10.012-3.957-2.553-2.523-4.016-5.993-4.016-10.006 0-1.263.201-2.553.516-3.729.287-.946.603-1.806 1.09-2.695h-3.556l.086-.66.056-.459v-.544c0-1.749-.602-3.412-1.75-4.617a6.984 6.984 0 0 0-4.273-2.522l-.517-.087v-3.87h-1.406v3.87l-.544.087c-1.75.314-3.213 1.203-4.36 2.522-.976 1.205-1.664 2.868-1.664 4.617v.544l.086.46.057.66h-3.557c.488.888.804 1.748 1.09 2.694.316 1.176.516 2.466.516 3.729 0 4.013-1.462 7.483-3.987 10.006-2.496 2.41-5.967 3.957-10.04 3.957-.602 0-1.262-.056-1.865-.143a15.658 15.658 0 0 1-1.147-.2v11.096l2.668 1.95v-3.87c0-.403.2-.804.545-1.09.258-.202.603-.402 1.061-.402h10.04c.402 0 .717.2 1.061.402.259.286.46.687.46 1.09V63.18h.488l-.086 1.147-13.569-.057v-4.36l-2.668 3.758v28.731zm6.369 4.53l2.381 1.75v-1.75h-2.381zm3.586 2.61L111 102.75h.401v-5.562c0-.058 0-.116-.057-.116a.454.454 0 0 0-.287-.142h-4.475v2.609zm4.82 14.51l-.345.458.344.258v-.717zm-2.926 0l-1.894-1.406v5.333h4.82v-1.806l-2.926-2.122zm-3.099-2.209l-.114-.086h-4.619v6.222h4.733v-6.136zm-1.721-1.29l-3.012-2.18v2.18h3.012zm-8.233-5.935l-1.865-1.405a191.258 191.258 0 0 0 1.865 12.358v-10.953zm-3.213-2.324l-4.79-3.498H85.41v37.765h15.634c-.861-1.549-2.611-5.019-4.418-11.24-.401-1.406-.803-2.725-1.119-4.073h.058c-1.263-4.932-2.41-11.211-3.357-18.954zm-6.396-4.702l-5.68-4.129.057-.058-1.205-.889a3.422 3.422 0 0 1-2.41 1.004c-.402 0-.802-.057-1.118-.2l-1.09 1.405 4.016 2.867h7.43zm24.842 6.366l-.976-.66.976.66zm12.392-7.025v5.82h4.79v-5.562c0-.058 0-.116-.057-.116a.301.301 0 0 0-.258-.142h-4.475zm0 13.62h4.79v-6.595h-4.79v6.594zm0 7.426h4.79v-6.222h-4.79v6.222zm-5.966 0h4.76v-6.222h-4.76v6.222zm0-7.427h4.76v-6.594h-4.76v6.594zm0-7.799h4.76v-5.82h-4.36a.53.53 0 0 0-.344.142s-.056.058-.056.116v5.562zm22.46-5.82v5.82h4.877v-5.562c0-.058-.058-.116-.058-.116a.474.474 0 0 0-.344-.142h-4.475zm0 13.62h4.877v-6.595h-4.877v6.594zm0 7.426h4.877v-6.222h-4.877v6.222zm-5.938 0h4.79v-6.222h-4.79v6.222zm0-7.427h4.79v-6.594h-4.79v6.594zm0-7.799h4.79v-5.82h-4.388c-.144 0-.202.056-.288.142-.056 0-.114.058-.114.116v5.562zm11.963 15.628h.458v1.147l-13.568-.086v-22.25c0-.374.2-.803.459-1.061.286-.2.688-.316 1.09-.316h10.011c.402 0 .804.115 1.062.316.344.258.488.687.488 1.06v21.19zm-46.27-31.399V73.273c0-.401.2-.717.544-1.003a1.386 1.386 0 0 1 1.003-.402h10.098c.402 0 .717.144 1.061.402.259.286.46.602.46 1.003v13.764h.344v1.204l-13.51-.057v-1.205zm16.58 0V73.273c0-.401.2-.717.487-1.003.258-.258.66-.402 1.062-.402h10.011c.487 0 .803.144 1.09.402.316.286.516.602.516 1.003v13.764h.402l-.058 1.204-13.51-.057v-1.205zm16.58 0V73.273c0-.401.2-.717.459-1.003a1.648 1.648 0 0 1 1.09-.402h10.011c.402 0 .804.144 1.062.402.344.286.488.602.488 1.003v13.764h.458v1.204l-13.568-.057v-1.205zm-52.122 13.506l-2.353-1.692-1.664-1.204-2.61-1.864-1.349 1.864-.802 1.204-5.135 7.083L52.996 124.6l6.597 4.731 20.74-28.846zm-.344-1.692l2.007 1.405-12.507 17.377v18.983h14.716V98.793H79.99zM68.285 119.18l-8.404 11.756-3.759-2.667c-1.462 4.416-2.811 7.025-3.528 8.288h15.691V119.18zm-13.167 8.43l-2.811-2.094-1.118 1.693c-.03 0-.03.028-.03.028l-.974-.688c.028-.029.028-.057.057-.087l2.81-4.014h-38.64v31.484h19.593v-24.918h10.96v24.918h8.232V137.76h-2.754l.66-.945s1.893-2.668 4.015-9.206zm-1.262-6.366l1.148-1.52H14.413v1.52h39.443zm2.008-2.667l2.467-3.47a137.48 137.48 0 0 0 1.606-10.35v-5.965H58.39l.2-.802c.402-1.177.89-2.38 1.348-3.527v-2.667H14.413v26.781h41.451zm4.073-5.677l3.73-5.132 4.618-6.567v-2.409h-6.483c-.516 5.362-1.119 10.036-1.865 14.108zm-18.1-46.825l-4.705 6.682 22.805 16.229 6.139 4.33 4.762-6.682-2.007-1.405-.862-.602L61.2 79.84h-.057l-.258-.2-.89-.689h-.058l-18.1-12.874zm-6.024 6.48l.058-.143H32.8v-4.129h6.023l1.866-2.552H14.413v24.86h4.274v-15.97h9.897v15.971h3.672V74.621h5.565l-2.352-1.606.344-.459zm.918-1.29l1.291-1.778h-4.074v1.778h2.783zm35.111 15.972l-5.479 7.684-3.872-2.724c-1.004 1.664-1.808 3.47-2.496 5.391h10.901l3.471-4.874-.201-.202a3.424 3.424 0 0 1-1.004-2.408c0-.516.201-1.061.402-1.52l-1.722-1.347zM61.544 91.51l-.344-.258v.803c.143-.201.2-.402.344-.545zm-1.607-1.118l-4.217-3.011v3.211h4.217v-.2zm-5.42-3.871l-5.738-4.072h-1.75v7.8h7.487V86.52zm-7.402-5.219l-.086-.057v.057h.086zm-1.29-.947l-3.672-2.608v12.845h3.671V80.355zm-4.877-3.47l-1.464-1.06h-6.023v5.477h7.487v-4.416zm59.839-21.046l-6.57-4.817-20.768 28.875 2.668 1.95 1.663 1.204 2.266 1.577.746-1.06.746-1.004 19.249-26.725zm-6.369-6.078l1.004.745V28.914h-34.28v9.692h.058l-.03 39.742 2.238 1.577v-2.35l7.344-.23v5.764c.89-.344 1.75-.66 2.611-.861v-.946l-1.607-1.147 1.607-2.122v-.688h.487l2.725-3.785h-3.212V57.703h11.044v4.961l2.524-3.555v-1.406h1.005l2.753-3.727h-3.758V38.147h7.372v11.556l.115.058zM79.444 85.718l-3.671-2.667c-1.923.114-3.873.746-5.623 1.606l4.16 2.982a3.165 3.165 0 0 1 2.265-.918c.66 0 1.263.201 1.808.46l1.061-1.463zM77.38 72.413l5.02-6.939h-7.89v6.939h2.87zm-2.87-8.143h8.75v-5.363h-8.75v5.363zm16.983-11.5l1.664-2.265V45.89h-5.02v6.882h3.356zM.328 153.933h4.389V83.051c0-11.785 3.098-22.853 8.491-32.63V38.605h8.176l.258-.258V19.51h6.282v-8.688h-2.352v-.545c.086-2.666 1.405-5.076 3.557-6.739 2.065-1.749 4.934-2.752 8.09-2.752 3.126 0 5.938 1.003 8.09 2.752 2.065 1.663 3.413 4.073 3.47 6.74v.544h-2.61v8.688h.057c10.642-5.276 22.805-8.23 35.628-8.23 11.56 0 22.604 2.41 32.501 6.739a8.353 8.353 0 0 1 1.922-4.875c1.148-1.319 2.754-2.322 4.561-2.81V6.262h3.787v4.071c1.806.488 3.413 1.491 4.56 2.81 1.205 1.491 2.009 3.356 2.009 5.42l-.086.458h3.9v.804l-.143.2c-.602.947-1.062 2.094-1.406 3.212-.344 1.06-.458 2.208-.458 3.413 0 1.06.114 2.063.316 3.068a77.97 77.97 0 0 1 9.38 9.347c1.004.2 2.065.344 3.127.344.602 0 1.204 0 1.75-.143.602-.058 1.118-.2 1.72-.316l.747-.2v5.792h-.058v5.017c5.737 10.037 9.008 21.392 9.008 33.492 0 11.67-.144 23.713-.259 35.728-.087 11.642-.2 23.255-.2 35.154h10.355v1.205H.328v-1.205zM40.23 64.557l.718-.03v-8.2H33.46v8.23h6.77zm1.923-.431l.028.401h2.983V48.5h11.962v16.028h2.811V39.811H14.413v24.716h2.869V48.5h11.962v16.028h3.012V48.5h9.897v15.627zm1.232 1.577l3.701 2.581h8.176v4.129h-2.41l7.057 5.018.028-11.699-16.552-.03zm5.221 3.785l2.697 1.778h2.754v-1.778h-5.45zm15.978 11.269l4.533 3.183c.144-.115.373-.23.516-.315v-5.133h-5.02l-.029 2.265zm28.572-12.215l-2.754 3.87h2.754v-3.87zM83.26 82.363l-.46.688c.145.058.26.114.46.2v-.888zM69.49 99.596l.602-.803h-.602v.803zm8.55-10.866c-.402-.402-.918-.689-1.464-.689-.602 0-1.118.287-1.52.689-.344.315-.602.86-.602 1.462 0 .516.258 1.06.602 1.462.402.402.918.602 1.52.602.546 0 1.062-.2 1.464-.602.344-.401.602-.946.602-1.462 0-.602-.258-1.147-.602-1.462zm.89 34.322v-3.67a1.88 1.88 0 0 0-.69-1.462c-.315-.402-.86-.66-1.462-.66-.604 0-1.12.258-1.464.66-.401.315-.66.86-.66 1.462v3.67h4.275zm1.117-3.67v4.875h-6.54v-4.875c0-.86.344-1.749.947-2.322a3.227 3.227 0 0 1 2.324-.947c.946 0 1.75.345 2.351.947.603.573.918 1.463.918 2.322zm-25.644 34.466h44.491V137.82H54.402v16.028zm42.626-31.455c.66 2.524 1.35 4.617 1.951 6.423h49.856v-6.423H97.028zm2.353 7.627c1.807 4.789 3.213 6.797 3.213 6.797l.659.945h-3.155v16.172h33.705v-19.985h11.275v19.985h3.757V130.02H99.381zm-.344-88.259h1.262c4.073-.143 7.63-1.749 10.183-4.3 2.726-2.667 4.332-6.481 4.332-10.754 0-.803-.058-1.52-.2-2.322-.058-.746-.259-1.463-.46-2.209l-.286-.802h3.097l-.286-1.95-.058-.402v-.458c0-1.463.516-2.81 1.463-3.871.86-1.061 2.152-1.863 3.614-2.15l1.062-.115 1.004.114c1.463.288 2.754 1.09 3.614 2.15a5.751 5.751 0 0 1 1.464 3.872v.458l-.058.402-.258 1.95h3.07l-.288.802c-.2.746-.402 1.463-.458 2.209-.116.803-.202 1.519-.202 2.322 0 4.273 1.607 8.087 4.36 10.753 2.668 2.696 6.483 4.301 10.816 4.301h.602l.602-.086v.086h.201v1.205h-15.52V41.76h7.775c-2.008-.803-3.815-2.007-5.365-3.498-2.868-2.867-4.675-6.939-4.675-11.556 0-.86.086-1.663.2-2.466a13.34 13.34 0 0 1 .344-1.663h-2.81l.458-3.354v-.66a4.792 4.792 0 0 0-1.118-3.126 4.835 4.835 0 0 0-2.955-1.69l-.803-.116-.86.115c-1.206.2-2.21.802-2.955 1.691a4.787 4.787 0 0 0-1.119 3.126v.344l.057.316.402 3.354h-2.811c.143.517.287 1.061.344 1.663.143.803.201 1.606.201 2.466 0 4.617-1.807 8.689-4.676 11.556a15.434 15.434 0 0 1-5.279 3.498h8.406v1.205H99.64c-.403 0-.862-.086-1.349-.086l.143-1.205.603.086zm35.972 112.173h8.892v-18.838h-8.892v18.838zm-9.237-18.638v4.387h5.336l-1.378-4.387h-3.958zm-6.684 4.387h5.48v-4.387h-5.48v4.387zm-6.426 0h5.221v-4.387h-5.22v4.387zm-1.118 0v-4.387h-4.275l-1.491 4.387h5.766zm19.19-5.075l2.066 6.28h-2.066v9.376h-24.468v-9.376h-2.094l2.094-6.28v-.459h24.468v.46zm-23.35 14.453h22.146v-8.173h-22.146v8.173zm-72.173 4.873h8.548v-23.799h-8.55v23.8zm83.734-120.26h7.573c.315 0 .66.116.86.316.258.202.402.546.402.89v7.483h-10.097V34.88c0-.344.143-.688.401-.89.2-.2.545-.315.86-.315zm7.573 1.206h-7.689v6.28h7.803v-6.28h-.115zm23.465 87.513v31.541h7.344c0-11.555.143-23.397.258-35.154.086-11.814.2-23.656.2-35.728 0-11.183-2.811-21.65-7.802-31.083v70.424zM96.627 39.065c.401.086.86.2 1.262.2.545.144 1.148.144 1.75.144 3.758 0 6.942-1.348 9.15-3.613 2.353-2.265 3.673-5.476 3.673-9.146 0-1.205-.115-2.352-.46-3.413-.344-1.118-.803-2.265-1.405-3.212l-.115-.2v-.804h3.328c-9.754-4.185-20.597-6.537-31.956-6.537-11.762 0-22.92 2.466-32.874 7.025h3.872v19.097h7.085v-9.692h-1.663V23.38H98.29v5.534h-1.664v10.151zm37.378-7.197c.602 1.462 1.52 2.867 2.667 3.928 1.062 1.147 2.41 2.007 3.93 2.61a88.455 88.455 0 0 0-6.597-6.538zM59.479 27.71h37.607v-3.211H59.479v3.21zm28.657 56.2h5.02v-5.419h-5.02v5.419zM64.614 72.413h5.02v-6.939h-5.02v6.939zm0-8.143h5.02v-5.363h-5.02v5.363zm-.602-6.567h6.74V73.56h-7.344V57.703h.604zm10.498-4.932h8.75V45.89h-8.75v6.882zm0-8.086h8.75v-5.333h-8.75v5.333zm-.602-6.538h10.499v15.829H73.363V38.147h.545zm-9.294 14.624h5.02V45.89h-5.02v6.882zm0-8.086h5.02v-5.333h-5.02v5.333zm-.602-6.538h6.74v15.829h-7.344V38.147h.604zm24.124 6.538h5.02v-5.333h-5.02v5.333zM13.208 153.933V52.915C8.532 62.06 5.922 72.27 5.922 83.05v70.882h7.286zm34.71-37.821h7.488v-7.827h-7.488v7.827zm0-9.032h7.488v-5.39h-7.488v5.39zm-.602-6.595h9.208v16.832h-9.81v-16.832h.602zM34.35 116.112h7.487v-7.827H34.35v7.827zm0-9.032h7.487v-5.39H34.35v5.39zm-.603-6.595h9.208v16.832h-9.81v-16.832h.602zm-12.966 15.627h7.488v-7.827H20.78v7.827zm0-9.032h7.488v-5.39H20.78v5.39zm-.602-6.595h9.208v16.832h-9.81v-16.832h.602zm.46-6.365h8.29v4.157h-8.894V94.12h.603zm.601 2.952h6.54v-1.749h-6.54v1.75zm15.835-85.85a4.76 4.76 0 0 1 3.356 1.405 4.628 4.628 0 0 1 1.463 3.412c0 1.32-.545 2.524-1.463 3.384-.889.89-2.008 1.405-3.356 1.405a4.79 4.79 0 0 1-3.414-1.405 4.808 4.808 0 0 1 0-6.796 4.79 4.79 0 0 1 3.414-1.405zm2.553 2.265c-.688-.658-1.55-1.06-2.553-1.06a3.765 3.765 0 0 0-2.61 1.06 3.775 3.775 0 0 0-1.004 2.552c0 .975.4 1.922 1.004 2.524a3.761 3.761 0 0 0 2.61 1.061c1.004 0 1.865-.401 2.553-1.06.66-.603 1.062-1.55 1.062-2.525a3.574 3.574 0 0 0-1.062-2.552zm-2.553-.142c.746 0 1.405.286 1.865.802.488.487.802 1.147.802 1.892 0 .718-.314 1.377-.802 1.922-.46.459-1.12.745-1.865.745-.746 0-1.463-.286-1.922-.745-.488-.545-.803-1.204-.803-1.922 0-.745.315-1.405.803-1.892.46-.516 1.176-.802 1.922-.802zm1.061 1.605c-.258-.258-.66-.458-1.061-.458-.459 0-.804.2-1.062.458-.344.287-.458.689-.458 1.09 0 .4.114.774.458 1.06.258.258.603.46 1.062.46.402 0 .803-.202 1.061-.46.287-.286.402-.66.402-1.06 0-.401-.115-.803-.402-1.09zm17.126 31.197c-.058-1.003-.545-1.92-1.205-2.608-.746-.804-1.75-1.32-2.868-1.32-1.205 0-2.21.516-2.955 1.32-.66.687-1.12 1.605-1.205 2.608h8.233zm-.344-3.412c1.004 1.004 1.606 2.495 1.606 4.014v.603H45.767v-.603c0-1.52.602-3.01 1.607-4.014.946-1.06 2.265-1.663 3.815-1.663 1.462 0 2.811.602 3.729 1.663zm-21.572-.573h8.347v4.129h-8.892v-4.13h.545zm.602 2.924h6.54v-1.749h-6.54v1.75zm-6.483 1.061a5.117 5.117 0 0 0-1.204-2.608c-.804-.804-1.808-1.32-2.955-1.32a3.85 3.85 0 0 0-2.926 1.32c-.689.687-1.09 1.605-1.205 2.608h8.29zm-.402-3.412c1.004 1.004 1.607 2.495 1.607 4.014v.603h-10.7v-.603c0-1.52.517-3.01 1.52-4.014.947-1.06 2.296-1.663 3.816-1.663 1.463 0 2.811.602 3.757 1.663zm-7.286 25.55h8.348v4.128h-8.892v-4.129h.544zm.603 2.981h6.54v-1.778h-6.54v1.778zM47.774 94.12h8.291v4.157h-8.893V94.12h.602zm.604 2.952h6.54v-1.749h-6.54v1.75zM34.207 94.12h8.29v4.157h-8.893V94.12h.603zm.602 2.952h6.54v-1.749h-6.54v1.75zm-1.348-6.824h7.487V82.45H33.46v7.8zm-13.569 0h7.487V82.45h-7.487v7.8zm0-8.946h7.487v-5.476h-7.487v5.476zm13.569-26.179h7.487v-5.42H33.46v5.42zm9.696-26.266h8.49v-8.23h-8.49v8.23zm0 9.75h8.49v-8.631h-8.49v8.63zm-20.397-9.75h8.492v-8.23H22.76v8.23zm0 9.75h8.492v-8.631H22.76v8.63zm23.609 25.95h4.217V49.703h-4.217v14.854zm5.336 0h4.217V49.703h-4.217v14.854zm-33.218 0h4.217V49.703h-4.217v14.854zm5.363 0h4.217V49.703H23.85v14.854zm16.036-26.352V33.33c0-.802-.258-1.548-.803-2.065a2.47 2.47 0 0 0-1.865-.888c-.745 0-1.405.344-1.865.888a3.038 3.038 0 0 0-.802 2.065v4.875h5.335zm1.205-4.875v5.276h.946V23.638h-9.58v14.968h.889V33.33c0-1.147.46-2.15 1.119-2.867a3.653 3.653 0 0 1 2.753-1.205c1.062 0 2.066.402 2.726 1.205a4.123 4.123 0 0 1 1.147 2.867zM29.13 19.509h3.327v3.011h9.581v-3.01h2.984v-8.688H29.129v8.688zm15.433-15.11c-1.922-1.55-4.475-2.467-7.344-2.467-2.868 0-5.478.918-7.372 2.466-1.721 1.405-2.783 3.212-3.07 5.276h20.798c-.2-2.064-1.348-3.87-3.012-5.276zm84.48 58.781h.402v1.147l-13.569-.057V49.445c0-.402.2-.803.488-1.09.258-.2.66-.401 1.062-.401h10.011c.487 0 .803.2 1.09.402.316.286.516.687.516 1.09V63.18zm4.561-8.402h4.676v-5.62h-4.274c-.144 0-.202.087-.288.143-.056 0-.114.058-.114.144v5.333zm5.88-5.62v5.62h4.935v-5.333c0-.086-.058-.144-.058-.144-.086-.056-.2-.143-.344-.143h-4.532zm0 13.649h4.935v-6.882h-4.934v6.882zm-5.88 0h4.676v-6.882h-4.676v6.882zM9.737 173.432c2.783 0 3.643-.89 4.447-1.749.975-1.033 1.922-2.036 4.905-2.036 3.327 0 4.331 1.06 5.335 2.122.804.832 1.578 1.663 4.045 1.663 2.783 0 3.643-.89 4.475-1.749.947-1.033 1.893-2.036 4.877-2.036 3.327 0 4.332 1.06 5.336 2.122.802.832 1.577 1.663 4.045 1.663 2.782 0 3.643-.89 4.475-1.749.946-1.033 1.921-2.036 4.875-2.036 3.329 0 4.333 1.06 5.336 2.122.804.832 1.578 1.663 4.045 1.663 2.782 0 3.643-.89 4.475-1.749.946-1.033 1.922-2.036 4.877-2.036 3.327 0 4.331 1.06 5.335 2.122.804.832 1.578 1.663 4.045 1.663 2.811 0 3.643-.89 4.475-1.749.947-1.033 1.922-2.036 4.877-2.036 3.327 0 4.36 1.06 5.335 2.122.803.832 1.577 1.663 4.045 1.663 2.81 0 3.643-.89 4.475-1.749.947-1.033 1.922-2.036 4.906-2.036 3.298 0 4.33 1.06 5.306 2.122.803.832 1.578 1.663 4.044 1.663 2.812 0 3.644-.89 4.476-1.749.946-1.033 1.922-2.036 4.905-2.036v1.205c-2.467 0-3.27.803-4.045 1.634-1.003 1.06-2.037 2.15-5.336 2.15-2.983 0-3.93-1.004-4.905-2.035-.832-.86-1.663-1.75-4.445-1.75-2.468 0-3.271.804-4.045 1.635-1.004 1.06-2.037 2.15-5.336 2.15-2.984 0-3.93-1.004-4.905-2.035-.832-.86-1.664-1.75-4.475-1.75-2.468 0-3.242.804-4.017 1.635-1.004 1.06-2.036 2.15-5.335 2.15-2.983 0-3.93-1.004-4.905-2.035-.832-.86-1.664-1.75-4.475-1.75-2.467 0-3.241.804-4.017 1.635-1.003 1.06-2.036 2.15-5.335 2.15-2.983 0-3.93-1.004-4.905-2.035-.833-.86-1.664-1.75-4.476-1.75-2.466 0-3.241.804-4.015 1.635-1.004 1.06-2.037 2.15-5.335 2.15-2.984 0-3.93-1.004-4.906-2.035-.832-.86-1.664-1.75-4.475-1.75-2.468 0-3.242.804-4.016 1.635-1.004 1.06-2.037 2.15-5.336 2.15-2.983 0-3.93-1.004-4.905-2.035-.832-.86-1.664-1.75-4.475-1.75-2.467 0-3.241.804-4.017 1.635-1.004 1.06-2.036 2.15-5.335 2.15-2.983 0-3.93-1.004-4.905-2.035-.832-.86-1.664-1.75-4.475-1.75v-1.204c3.328 0 4.331 1.06 5.335 2.122.804.832 1.578 1.663 4.045 1.663zm149.856 0c2.81 0 3.643-.89 4.475-1.749.975-1.033 1.921-2.036 4.905-2.036v1.205c-2.468 0-3.242.803-4.045 1.634-1.004 1.06-2.008 2.15-5.335 2.15-2.984 0-3.93-1.004-4.905-2.035-.832-.86-1.664-1.75-4.447-1.75-2.467 0-3.241.804-4.045 1.635-1.004 1.06-2.036 2.15-5.335 2.15-2.983 0-3.93-1.004-4.906-2.035-.832-.86-1.664-1.75-4.446-1.75v-1.204c3.3 0 4.332 1.06 5.307 2.122.804.832 1.578 1.663 4.045 1.663 2.811 0 3.643-.89 4.475-1.749.975-1.033 1.922-2.036 4.905-2.036 3.299 0 4.331 1.06 5.335 2.122.775.832 1.55 1.663 4.017 1.663zm-18.732-9.835c2.811 0 3.643-.89 4.475-1.778.975-1.003 1.922-2.007 4.905-2.007 3.299 0 4.331 1.06 5.335 2.122.775.831 1.55 1.663 4.017 1.663 2.81 0 3.643-.89 4.475-1.778.975-1.003 1.921-2.007 4.905-2.007v1.204c-2.468 0-3.242.803-4.045 1.635-1.004 1.061-2.036 2.15-5.335 2.15-2.984 0-3.93-1.003-4.905-2.036-.832-.86-1.664-1.749-4.447-1.749-2.467 0-3.241.803-4.045 1.635-1.004 1.061-2.036 2.15-5.335 2.15-2.983 0-3.93-1.003-4.906-2.036-.832-.86-1.664-1.749-4.446-1.749v-1.204c3.3 0 4.332 1.06 5.307 2.122.804.831 1.578 1.663 4.045 1.663zm-56.196 0c2.783 0 3.643-.89 4.475-1.778.947-1.003 1.922-2.007 4.877-2.007 3.327 0 4.36 1.06 5.335 2.122.803.831 1.577 1.663 4.045 1.663 2.81 0 3.643-.89 4.475-1.778.947-1.003 1.922-2.007 4.906-2.007 3.298 0 4.33 1.06 5.306 2.122.803.831 1.578 1.663 4.044 1.663 2.812 0 3.644-.89 4.476-1.778.946-1.003 1.922-2.007 4.905-2.007v1.204c-2.467 0-3.27.803-4.045 1.635-1.003 1.061-2.037 2.15-5.336 2.15-2.983 0-3.93-1.003-4.905-2.036-.832-.86-1.663-1.749-4.445-1.749-2.468 0-3.271.803-4.045 1.635-1.004 1.061-2.037 2.15-5.336 2.15-2.984 0-3.93-1.003-4.905-2.036-.832-.86-1.664-1.749-4.475-1.749-2.468 0-3.242.803-4.017 1.635-1.004 1.061-2.036 2.15-5.335 2.15-2.983 0-3.93-1.003-4.905-2.036-.832-.86-1.664-1.749-4.475-1.749-2.467 0-3.241.803-4.017 1.635-1.003 1.061-2.036 2.15-5.335 2.15-2.983 0-3.93-1.003-4.905-2.036-.833-.86-1.664-1.749-4.476-1.749-2.466 0-3.241.803-4.015 1.635-1.004 1.061-2.037 2.15-5.335 2.15-2.984 0-3.93-1.003-4.906-2.036-.832-.86-1.664-1.749-4.475-1.749-2.468 0-3.242.803-4.016 1.635-1.004 1.061-2.037 2.15-5.336 2.15-2.983 0-3.93-1.003-4.905-2.036-.832-.86-1.664-1.749-4.475-1.749-2.467 0-3.241.803-4.017 1.635-1.004 1.061-2.036 2.15-5.335 2.15-2.983 0-3.93-1.003-4.905-2.036-.832-.86-1.664-1.749-4.475-1.749v-1.204c3.328 0 4.331 1.06 5.335 2.122.804.831 1.578 1.663 4.045 1.663 2.783 0 3.643-.89 4.447-1.778.975-1.003 1.922-2.007 4.905-2.007 3.327 0 4.331 1.06 5.335 2.122.804.831 1.578 1.663 4.045 1.663 2.783 0 3.643-.89 4.475-1.778.947-1.003 1.893-2.007 4.877-2.007 3.327 0 4.332 1.06 5.336 2.122.802.831 1.577 1.663 4.045 1.663 2.782 0 3.643-.89 4.475-1.778.946-1.003 1.921-2.007 4.875-2.007 3.329 0 4.333 1.06 5.336 2.122.804.831 1.578 1.663 4.045 1.663 2.782 0 3.643-.89 4.475-1.778.946-1.003 1.922-2.007 4.877-2.007 3.327 0 4.331 1.06 5.335 2.122.804.831 1.578 1.663 4.045 1.663z" fill="#FE365C" fill-rule="evenodd"/></svg>