<svg width="176" height="160" xmlns="http://www.w3.org/2000/svg"><g fill="#289799" fill-rule="evenodd"><path d="M41.814 43.422c-13.47 0-24.42 10.949-24.42 24.393 0 3.808.84 7.43 2.52 10.818.08.184.29.29.474.29.105 0 .184 0 .262-.054a.555.555 0 0 0 .237-.734 23.338 23.338 0 0 1-2.39-10.32c0-12.84 10.45-23.29 23.317-23.29 7.142 0 13.812 3.202 18.25 8.796a.577.577 0 0 0 .787.105.575.575 0 0 0 .078-.788c-4.647-5.855-11.631-9.216-19.115-9.216M12.563 56.734c.105.027.237.079.342.079.367 0 .734-.236.866-.577.052-.132.078-.263.078-.368 0-.368-.21-.71-.577-.867a.941.941 0 0 0-1.208.525.806.806 0 0 0-.078.342c0 .368.236.709.577.866m-2.022 12.158c.526 0 .92-.42.92-.946v-.131a.93.93 0 0 0-.92-.92.93.93 0 0 0-.918.92v.158c0 .498.42.919.918.919m9.165-22.214a.94.94 0 0 0 .918-.92c0-.236-.078-.498-.263-.656a.919.919 0 0 0-1.312 0 .892.892 0 0 0-.29.656c0 .21.105.473.29.631a.94.94 0 0 0 .657.289m-7.091 32.376a.875.875 0 0 0-.578.84.85.85 0 0 0 .08.368c.13.366.498.577.84.577a.82.82 0 0 0 .367-.08 1.02 1.02 0 0 0 .578-.865.806.806 0 0 0-.079-.342c-.21-.472-.735-.709-1.208-.498M63.32 90.528c.183.157.42.263.656.263.236 0 .472-.106.656-.263a.909.909 0 0 0 .263-.657.868.868 0 0 0-.263-.656.919.919 0 0 0-1.575.656c0 .237.079.474.262.657m-33.715 7.063a.806.806 0 0 0 .342.079c.367 0 .709-.21.866-.577.053-.132.053-.236.053-.368 0-.368-.21-.71-.552-.84-.499-.21-1.024.026-1.234.498-.026.132-.052.236-.052.368 0 .342.21.71.577.84m24.472-59.5a.939.939 0 0 0-1.207.5c-.053.13-.053.236-.053.367 0 .368.21.709.578.84a.73.73 0 0 0 .342.079c.366 0 .708-.21.866-.578.052-.105.052-.236.052-.368 0-.368-.21-.682-.578-.84m16.621 18.643c.106 0 .21-.026.342-.053a.976.976 0 0 0 .577-.866.937.937 0 0 0-1.286-.866c-.341.158-.577.498-.577.866 0 .105.025.236.078.368.158.34.5.551.866.551m.395 22.136a.907.907 0 0 0-1.208.499.833.833 0 0 0-.079.367c0 .341.21.683.577.84a.82.82 0 0 0 .342.08c.368 0 .709-.237.866-.579a.922.922 0 0 0 .08-.368c-.027-.367-.237-.708-.578-.84m1.995-10.187a.93.93 0 0 0 .92-.92.913.913 0 0 0-.92-.918c-.525 0-.946.394-.946.919s.421.919.946.919M41.788 35.65c-.525.025-.946.42-.946.944 0 .525.42.92.946.92.5 0 .919-.395.919-.92a.936.936 0 0 0-.919-.945m20.429 102.274a.539.539 0 0 0-.552-.551c-.315 0-.551.263-.551.578l.183 7.273c0 .315.236.551.552.551.315 0 .551-.262.551-.578l-.183-7.273m-.71-6.774c.315 0 .552-.262.552-.578l-.105-4.254c0-.289-.262-.525-.578-.525-.288 0-.525.263-.525.552l.105 4.254c0 .315.236.55.551.55m-3.36 12.631a.555.555 0 0 0 .55-.552l.027-6.932.027-2.783v-2.074l.026-4.78a.554.554 0 0 0-.552-.55.554.554 0 0 0-.55.55l-.028 4.78v2.074l-.026 2.783-.025 6.906c0 .315.236.551.55.578m-.996-14.836c0-.315-.238-.551-.553-.578-.34.027-.551.236-.551.552l-.079 3.912c0 .29.236.551.551.551.29 0 .552-.236.552-.524l.08-3.913m-34.11-1.444h.026c.29 0 .525-.263.525-.551 0-.814-.026-1.681-.078-2.547 0-.315-.237-.526-.552-.526h-.026c-.29 0-.526.263-.526.578.053.866.08 1.707.08 2.495 0 .315.262.551.551.551m-1.996 2.678l-.026.446c0 .29.236.552.551.552a.533.533 0 0 0 .551-.526l.027-.472-.053-.998c-.078-3.02-.21-7.168-2.022-11.343a.519.519 0 0 0-.708-.288.52.52 0 0 0-.29.708c1.708 4.018 1.84 8.035 1.917 10.976l.053.945m.421 5.567c-.29.026-.552.236-.552.525l-.158 8.245c0 .315.236.552.552.552a.533.533 0 0 0 .551-.526l.158-8.245a.554.554 0 0 0-.551-.55M90.444 19.92c-.552.578-1.55.578-2.101 0-.998-.97-2.704-.97-3.676 0a1.521 1.521 0 0 1-2.127 0c-.971-.97-2.679-.97-3.676 0-.551.578-1.55.578-2.101 0a.572.572 0 0 0-.788 0c-.21.238-.21.578 0 .789.972.997 2.705.997 3.677 0 .577-.551 1.549-.551 2.127 0 .97.997 2.678.997 3.675 0 .552-.551 1.55-.551 2.101 0a2.584 2.584 0 0 0 1.838.761 2.54 2.54 0 0 0 1.838-.761c.578-.551 1.55-.551 2.127 0 .21.21.552.21.761 0 .237-.21.237-.551 0-.789-.97-.97-2.678-.97-3.675 0m5.671-3.15a1.49 1.49 0 0 1-2.1 0c-1.024-1.024-2.678-1.024-3.676 0a1.521 1.521 0 0 1-2.127 0c-.998-1.024-2.653-1.024-3.676 0a1.49 1.49 0 0 1-2.101 0c-.237-.236-.577-.236-.788 0a.538.538 0 0 0 0 .761 2.584 2.584 0 0 0 3.676 0 1.49 1.49 0 0 1 2.1 0c1.025 1.024 2.679 1.024 3.677 0 .604-.578 1.55-.578 2.127 0 .499.526 1.181.762 1.838.762s1.34-.236 1.838-.762a1.49 1.49 0 0 1 2.1 0c.237.237.578.237.788 0a.538.538 0 0 0 0-.761c-.998-1.024-2.652-1.024-3.676 0m36.157 9.479a1.521 1.521 0 0 1 2.127 0 2.58 2.58 0 0 0 1.838.761c.657 0 1.313-.262 1.838-.761.552-.578 1.55-.578 2.1 0 .21.21.579.21.789 0a.572.572 0 0 0 0-.787c-.999-.972-2.705-.972-3.677 0-.578.577-1.522.577-2.126 0-.972-.972-2.678-.972-3.677 0a1.49 1.49 0 0 1-2.1 0c-.998-.972-2.705-.972-3.676 0a1.523 1.523 0 0 1-2.127 0 .538.538 0 0 0-.762 0 .526.526 0 0 0 0 .787c.998.998 2.652.998 3.677 0 .551-.578 1.549-.578 2.1 0a2.632 2.632 0 0 0 3.676 0m10.556 2.074c-.604.578-1.55.578-2.127 0-.998-1.024-2.652-1.024-3.676 0a1.49 1.49 0 0 1-2.1 0c-1.025-1.024-2.679-1.024-3.677 0a1.521 1.521 0 0 1-2.127 0c-.21-.236-.551-.236-.787 0a.538.538 0 0 0 0 .761c1.023 1.025 2.678 1.025 3.675 0 .604-.577 1.55-.577 2.127 0 .999 1.025 2.652 1.025 3.677 0a1.491 1.491 0 0 1 2.1 0 2.561 2.561 0 0 0 1.838.762c.683 0 1.34-.236 1.838-.762.604-.577 1.55-.577 2.127 0 .21.21.551.21.788 0a.54.54 0 0 0 0-.761c-1.024-1.024-2.679-1.024-3.676 0M113.366 9.234a1.488 1.488 0 0 1-2.1 0c-.971-.998-2.705-.998-3.676 0-.577.578-1.523.578-2.127 0-.972-.998-2.678-.998-3.676 0a1.49 1.49 0 0 1-2.1 0 .572.572 0 0 0-.788 0c-.21.21-.21.552 0 .788 1.024.997 2.678.997 3.676 0a1.521 1.521 0 0 1 2.126 0c.998.997 2.653.997 3.677 0 .551-.578 1.549-.578 2.1 0 .5.498 1.182.735 1.838.735.683 0 1.34-.237 1.839-.735a1.521 1.521 0 0 1 2.126 0c.21.21.552.21.762 0 .236-.236.236-.578 0-.788-.972-.998-2.678-.998-3.677 0"/><path d="M175.125 43.842c-3.597.078-7.221.157-10.845.183v-5.041a.538.538 0 0 0-.55-.551h-13.786a.538.538 0 0 0-.551.551v5.068a170.242 170.242 0 0 0-3.703-.053v-1.497a.555.555 0 0 0-.551-.551.538.538 0 0 0-.552.551v1.471c-1.155-.027-2.31-.027-3.466-.053-.263 0-.552 0-.814-.026v-1.522a.539.539 0 0 0-.551-.553.556.556 0 0 0-.552.553v1.522a233.129 233.129 0 0 1-4.254-.131v-1.576a.554.554 0 0 0-.55-.551.538.538 0 0 0-.552.551v1.55c-1.418-.053-2.836-.079-4.255-.132v-1.654a.554.554 0 0 0-.55-.551.538.538 0 0 0-.552.551v1.602a114.471 114.471 0 0 1-4.254-.158v-1.733a.555.555 0 0 0-.55-.551c-.317 0-.579.236-.579.551v1.68c-1.418-.052-2.81-.13-4.227-.183V41.32a.554.554 0 0 0-.552-.551.538.538 0 0 0-.55.551v1.785c-1.419-.079-2.837-.13-4.255-.21v-1.969a.554.554 0 0 0-.551-.552.538.538 0 0 0-.552.552v1.891c-1.418-.079-2.836-.184-4.253-.263V40.48a.539.539 0 0 0-.551-.552.54.54 0 0 0-.552.552v1.995c-.972-.053-1.943-.131-2.915-.183V38.09a.568.568 0 0 0-.525-.551l-10.897-.709h-2.941a.572.572 0 0 0-.551.551v3.755a631.908 631.908 0 0 1-12.394-1.208c-2.022-.21-4.542 2.468-4.805 2.783-.184.158-.21.421-.105.63.21.368 1.97 3.52 3.99 3.73 3.23.34 6.46.655 9.69.945a1409.19 1409.19 0 0 1-.158 25.863 1367.398 1367.398 0 0 1-2.652 66.748h-8.245v-7.01h5.278a.539.539 0 0 0 .552-.553 3.462 3.462 0 0 0-6.38-1.863 3.462 3.462 0 0 0-6.38 1.864.537.537 0 0 0 .55.551h5.278v7.01h-2.652a.556.556 0 0 0-.552.552v5.33h-5.96l-.814-21.426a.898.898 0 0 0 .263.026c.315 0 .55-.21.577-.525.027-.288-.21-.551-.525-.577-.105 0-.237 0-.341-.027l-.132-3.44c0-.288.026-.577.026-.918.29-5.383.788-15.413 18.853-19.09.264-.053.421-.262.447-.525a.567.567 0 0 0-.42-.551 94.776 94.776 0 0 0-27.886-2.784h-.026a97.43 97.43 0 0 0-11.947 1.366v-3.099c1.68-.026 3.36-.21 4.962-.551 5.226-1.077 9.9-3.676 13.575-7.3a27.034 27.034 0 0 0 8.035-19.273c0-14.94-12.157-27.124-27.124-27.124-3.912 0-7.641.84-11.002 2.336C42.313 18.53 67.205 1.515 96.01 1.515c24.84 0 47.632 12.656 60.97 33.872v.026a.554.554 0 1 0 .946-.578C144.403 13.278 121.244.411 96.01.411c-29.724 0-55.351 17.83-66.747 43.378C20.598 48.306 14.69 57.39 14.69 67.815c0 7.64 3.177 14.547 8.27 19.483v19.01c-1.26 0-2.52.027-3.78.106a99.89 99.89 0 0 0-9.321.92 95.985 95.985 0 0 0-9.243 1.863.56.56 0 0 0-.42.525c.026.263.21.5.446.552 18.065 3.676 18.564 13.706 18.853 19.089 0 .316.026.63.053.867l-.131 3.492c-.132 0-.237 0-.368.026a.525.525 0 0 0-.525.578.555.555 0 0 0 .578.525c.104-.026.183-.026.288-.026l-.42 12.21a.54.54 0 0 0 .157.394.559.559 0 0 0 .394.183h155.63a.573.573 0 0 0 .552-.551v-5.882a.573.573 0 0 0-.552-.551h-1.339c-.157-2.18-.289-4.385-.42-6.591l-.052-.736c-.158-2.86-.342-5.723-.474-8.586-.157-2.888-.315-5.75-.446-8.638l-.394-8.691-.315-8.718c-.105-2.915-.183-5.856-.262-8.77-.079-2.941-.132-5.882-.21-8.823-.053-2.94-.105-5.881-.132-8.848a500.422 500.422 0 0 1-.079-8.902c-.025-2.993-.025-5.96-.025-8.954v-3.282c1.39-.027 2.782-.027 4.148-.079a.538.538 0 0 0 .552-.552v-6.065a.536.536 0 0 0-.158-.394.647.647 0 0 0-.42-.157zm-.526 6.091c-32.848.788-66.012-.524-98.545-3.965-.997-.104-2.258-1.654-2.94-2.81.97-.97 2.6-2.23 3.597-2.126 32.323 3.414 65.25 4.726 97.888 3.939v4.962zm-1.89 90.748h-8.718l8.324-6.276c.105 2.074.236 4.175.394 6.276zm1.89 5.829H71.354v-4.78h77.303a.366.366 0 0 0 .157.053h24.473a.485.485 0 0 0 .183-.052h1.13v4.779zM86.715 48.122c.499.052 1.024.079 1.549.13-.026 2.18-.026 4.36-.026 6.54 0 3.097.026 6.17.052 9.241.027 3.073.053 6.119.106 9.191.025 3.046.078 6.092.131 9.138.079 3.046.13 6.065.21 9.112.078 3.019.184 6.038.288 9.058.08 2.994.21 6.013.315 9.007.106 2.993.238 5.986.368 8.98.132 2.967.29 5.96.447 8.927.131 2.967.315 5.908.472 8.875l.106 1.865a73.5 73.5 0 0 1 .13 2.389h-6.957a1370.25 1370.25 0 0 0 2.81-92.453zm31.64 2.206v5.829c-.026 28.2-.944 56.585-2.81 84.47h-7.247c-.13-2.1-.262-4.227-.366-6.354l-.08-1.312c-.184-2.967-.341-5.934-.498-8.875a992.175 992.175 0 0 1-.814-17.882 521.009 521.009 0 0 1-.316-9.007c-.104-3.02-.183-6.04-.262-9.058-.079-3.02-.157-6.066-.21-9.085l-.158-9.164c-.026-2.259-.026-4.543-.052-6.827 0-.789-.026-1.576-.026-2.364 0-3.072-.027-6.145 0-9.242v-1.865c4.253.29 8.56.525 12.84.736zm36.5 6.17v-5.251h1.207c1.917 0 3.86 0 5.776-.027l-6.984 5.278zM153.75 57.6c0 2.993.027 5.96.027 8.954.026 2.967.052 5.934.104 8.9.053 2.942.08 5.909.158 8.85.053 2.941.131 5.882.21 8.822.079 2.915.158 5.856.262 8.77l.315 8.718c.132 2.915.237 5.803.395 8.692a917.54 917.54 0 0 0 .919 17.25l.104 1.891c.027.736.08 1.471.132 2.233h-6.959c1.97-29.54 2.889-59.632 2.784-89.461a29.64 29.64 0 0 0 1.549.027V57.6zm-5.435 83.027h-7.247c-.158-2.048-.263-4.122-.394-6.197l-.079-1.208c-.184-2.889-.342-5.777-.5-8.64-.157-2.913-.288-5.802-.42-8.69-.157-2.915-.288-5.83-.393-8.744-.13-2.914-.21-5.83-.315-8.77-.105-2.94-.184-5.882-.262-8.823-.08-2.94-.158-5.908-.21-8.849l-.158-8.9a996.053 996.053 0 0 1-.053-8.98c-.026-2.994-.026-5.987-.026-9.007v-2.784c4.28.105 8.56.158 12.84.184.105 29.829-.84 59.894-2.783 89.408zm-9.768-24.971l-8.298 6.302-6.302 4.805c-.131-2.468-.262-4.91-.367-7.379l9.06-6.88 5.592-4.253c.078 2.468.21 4.936.315 7.405zm.447 8.69l-14.574 11.055c-.13-2.441-.29-4.883-.42-7.326l14.599-11.08.395 7.352zm-15.493-6.301c-.105-2.468-.21-4.936-.289-7.405l14.678-11.16c.105 2.495.184 4.964.263 7.432l-14.652 11.133zm2.495-36.603l11.264-8.534c.026 2.52.08 5.015.131 7.536L122.583 91.71c-.079-2.495-.131-5.016-.184-7.51l3.598-2.757zm11.238-9.899l-14.862 11.29c-.052-2.52-.105-5.015-.132-7.536l14.942-11.343c0 2.521.026 5.042.052 7.589zm-15.098-5.2l15.019-11.395v7.614l-14.94 11.37-.08-7.588zm7.116 21.663l8.166-6.197c.052 2.495.105 4.99.183 7.51l-14.757 11.212c-.104-2.494-.157-4.989-.236-7.457l6.644-5.068zm8.612 10.136l-14.704 11.16c-.106-2.47-.21-4.937-.289-7.431l14.757-11.213c.078 2.495.13 4.99.236 7.484zm-13.287 40.148l-.078-1.55 14.546-11.08c.158 2.442.29 4.884.421 7.326l-3.073 2.337-6.984 5.304h-4.674l-.158-2.337zm6.67 2.337l8.298-6.302.026.183c.131 2.048.236 4.097.367 6.119h-8.691zm5.908-88.699v1.628l-15.02 11.422c-.025-2.547-.025-5.094-.025-7.614l8.586-6.539c2.152.079 4.306.132 6.459.184v.92zm-15.045 4.044c-.027-1.838 0-3.65 0-5.488 2.284.105 4.568.21 6.853.29l-6.853 5.198zm-1.104 1.103c0 3.02 0 6.013.026 9.006.027 2.993.053 5.96.106 8.954.026 2.967.079 5.934.131 8.901l.237 8.875c.078 2.941.157 5.882.262 8.823l.315 8.77c.131 2.915.237 5.83.368 8.744.131 2.914.289 5.803.446 8.69l.472 8.667.132 1.837c.026.762.079 1.523.132 2.285h-6.985c1.995-29.803 2.914-60.157 2.81-90.248.525.026 1.023.026 1.548.052 0 2.232-.026 4.438 0 6.644zm-14.179 77.25c.105 2.1.237 4.175.368 6.249h-8.743l8.35-6.511.025.262zm-15.57-6.644l14.599-11.395.394 7.562-14.574 11.37c-.157-2.521-.289-5.042-.42-7.537zm-1.76-54.196l14.914-11.658.08 7.825L89.602 81.26c-.025-2.6-.078-5.2-.105-7.773zm.131 9.139l14.89-11.606c.025 2.599.078 5.172.13 7.772L89.814 90.345c-.053-2.574-.132-5.147-.185-7.72zm.237 9.085l14.81-11.554c.051 2.6.104 5.147.183 7.72L90.076 99.403c-.079-2.546-.158-5.12-.21-7.693zm.263 9.058l3.282-2.546 11.475-8.955c.052 2.548.13 5.12.21 7.668L90.39 108.41c-.079-2.548-.184-5.094-.262-7.642zm11.212.526l3.807-2.993c.079 2.573.183 5.12.262 7.667L90.76 117.39l-.315-7.615 10.897-8.481zm2.94 6.958l1.182-.919c.105 2.52.21 5.068.342 7.589l-14.626 11.395c-.105-2.52-.236-5.041-.342-7.561l13.445-10.504zM89.394 64.297l14.994-11.712c0 2.626.025 5.225.025 7.852l-14.94 11.658-.079-7.798zm2.442 73.81l-.079-1.55 14.547-11.37c.132 2.522.29 5.043.42 7.537l-5.986 4.675-4.07 3.176h-4.7c-.026-.813-.08-1.628-.132-2.468zm12.552-86.913L89.393 62.905c-.026-2.6-.053-5.225-.053-7.825l7.799-6.092c2.416.184 4.832.368 7.248.525v1.68zM89.34 53.662c0-1.76 0-3.545.027-5.33 2.048.184 4.096.367 6.144.525l-6.17 4.805zm72.84 87.019h-4.7a68.978 68.978 0 0 1-.131-2.312l-.106-1.574 14.574-11.003c.13 2.443.262 4.857.42 7.273l-10.058 7.616zm-5.016-5.2c-.13-2.442-.262-4.858-.393-7.273l14.6-11.028c.104 2.416.235 4.857.367 7.3l-14.574 11.001zm-.472-8.612a687.148 687.148 0 0 1-.368-7.3l14.653-11.08c.104 2.441.209 4.91.315 7.351l-14.6 11.03zm14.232-19.72l-14.652 11.081c-.131-2.468-.21-4.91-.316-7.352l14.705-11.107c.078 2.468.157 4.91.263 7.378zm-.315-8.744l-14.704 11.108c-.106-2.443-.185-4.91-.264-7.38L170.373 91l.236 7.405zm-.263-8.77l-14.757 11.16c-.08-2.468-.158-4.937-.237-7.405l14.81-11.212c.052 2.495.105 4.99.184 7.457zm-.21-8.796l-14.81 11.186a690.753 690.753 0 0 1-.183-7.458l14.862-11.238c.026 2.495.079 5.015.13 7.51zm-.158-8.875l-14.862 11.238c-.052-2.495-.079-4.989-.131-7.483l14.941-11.291c.026 2.52.026 5.041.052 7.536zm-.052-8.901l-14.941 11.29a365.115 365.115 0 0 1-.078-7.536l14.992-11.343c0 2.52 0 5.067.027 7.589zM169.9 52.48v1.629l-15.02 11.343c-.026-2.52-.026-5.041-.026-7.563l8.822-6.67a480.46 480.46 0 0 0 6.223-.104v1.365zm-66.852-10.266a636.62 636.62 0 0 1-9.82-.761v-3.467l9.82.63v3.598zm-10.923-4.28v3.44c-.578-.053-1.181-.106-1.785-.159v-3.281h1.785zm68.166 1.601h2.888v4.517c-3.256.026-6.539.026-9.795 0v-4.517h6.907zm-8.01 0v4.517c-.603 0-1.181.026-1.785 0v-4.517h1.786zm-75.359 91.167c1.103 0 2.047.789 2.285 1.812H74.61c.262-1.023 1.208-1.812 2.311-1.812zm-8.14 1.812c.263-1.023 1.208-1.812 2.311-1.812 1.102 0 2.048.789 2.31 1.812h-4.621zm-48.288 2.258c.657-.025 1.34-.052 2.022-.052l-.053 11.79H20.1l.394-11.738zm-10.661-26.31c2.626 1.47 4.779 3.23 6.46 5.252a.52.52 0 0 0 .42.183.437.437 0 0 0 .341-.13.541.541 0 0 0 .08-.762c-1.498-1.812-3.362-3.414-5.568-4.779a92.283 92.283 0 0 1 7.667-.71 80.985 80.985 0 0 1 8.377-.025c-.21.472-.447.944-.63 1.47-.736 1.838-1.34 3.886-1.786 6.065-.42 0-.893-.026-1.34-.026h-.025c-.447 0-.92.026-1.366.026-.446-2.205-1.024-4.253-1.759-6.091a.54.54 0 0 0-.735-.29.532.532 0 0 0-.29.71c.683 1.732 1.235 3.65 1.681 5.724-2.232.157-4.28.5-5.724.972-.027.026-.053.026-.053.026-2.546-2.547-6.433-4.832-12.393-6.355a98.512 98.512 0 0 1 6.643-1.26zm32.534-14.625v-1.602c13.207-.289 23.867-11.133 23.867-24.42a26.04 26.04 0 0 0-.209-3.204c-.053-.314-.315-.525-.63-.472-.289.026-.5.315-.473.604.131 1.024.21 2.048.21 3.072 0 12.683-10.162 23.028-22.765 23.317V71.465a3.682 3.682 0 0 0 3.15-3.65 3.715 3.715 0 0 0-3.702-3.702 3.715 3.715 0 0 0-3.703 3.702 3.682 3.682 0 0 0 3.152 3.65v19.667a23.31 23.31 0 0 1-17.015-7.982.601.601 0 0 0-.788-.053.6.6 0 0 0-.053.787 24.49 24.49 0 0 0 17.856 8.351v1.602c-14.1-.29-25.47-11.842-25.47-26.022 0-14.337 11.658-26.021 26.02-26.021 14.364 0 26.023 11.684 26.023 26.02 0 14.18-11.37 25.734-25.47 26.023zm-.552-28.622c1.444 0 2.6 1.182 2.6 2.6 0 1.26-.867 2.285-2.048 2.547v-2.547a.556.556 0 0 0-.552-.552.555.555 0 0 0-.551.552v2.547a2.592 2.592 0 0 1-2.048-2.547c0-1.418 1.155-2.6 2.599-2.6zm-.551 29.724v3.309c-.604.105-1.182.236-1.76.368a92.952 92.952 0 0 0-3.702.84.516.516 0 0 0-.42.55c0 .264.184.473.446.526.027 0 .027 0 .079.026a40.38 40.38 0 0 1 5.357 1.444v5.935a79.1 79.1 0 0 0-3.467-.604 98.506 98.506 0 0 0-9.294-.919 135.388 135.388 0 0 0-3.309-.105c-.394 0-.761-.026-1.13-.026v-17.96a26.973 26.973 0 0 0 17.2 6.616zm19.3 51.57l-.21-21.53c.682.025 1.339.025 2.021.078l.814 21.453h-2.625zm-4.097-11.448c-.263.026-.552.237-.552.526l-.21 10.923h-.761l.71-21.453c1.207-.053 2.388-.105 3.596-.078l.21 21.53h-2.652l.21-10.896a.554.554 0 0 0-.55-.552zm-12.236 1.077a.554.554 0 0 0-.551.551v2.941a2.99 2.99 0 0 1-2.442-2.941 2.991 2.991 0 0 1 2.993-2.993c1.654 0 3.02 1.339 3.02 2.993 0 1.471-1.077 2.678-2.47 2.941v-2.941a.538.538 0 0 0-.55-.551zm-1.707-6.302h-4.595c.236-1.05 1.182-1.812 2.31-1.812 1.103 0 2.05.762 2.285 1.812zm-5.829 0H32.1a2.367 2.367 0 0 1 2.31-1.812c1.103 0 2.049.762 2.285 1.812zm-9.032 16.674h-2.364l-.026-1.13-.053-5.645a.533.533 0 0 0-.551-.525.539.539 0 0 0-.551.552l.052 5.645.026 1.103h-.63l.052-11.816c.683 0 1.34.026 2.022.026l.026.893.053 1.759.132 6.04c0 .314.262.55.55.55.316-.025.552-.262.552-.578l-.131-6.038-.052-1.76-.027-.84c.158.026.316.026.473.026l.447 11.738zm-1.025-16.306l.026-.972c.079-1.996.132-4.49.736-7.142a20.626 20.626 0 0 1 2.048-5.514c.682.105 1.286.236 1.812.394-3.782 4.385-4.018 9.321-4.175 12.367 0 .289-.026.604-.053.867v.052l.131 3.413c-.131 0-.289 0-.446-.026l-.079-3.44zm1.366-20.85c.236-.63.525-1.233.814-1.81 2.967.157 5.934.445 8.822.891a90.26 90.26 0 0 1 6.854 1.287c-5.961 1.523-9.847 3.808-12.394 6.355-.026 0-.026 0-.053-.026a21.128 21.128 0 0 0-1.97-.5 20.378 20.378 0 0 1 4.281-4.778.541.541 0 0 0 .079-.762.519.519 0 0 0-.762-.079c-1.969 1.576-3.57 3.388-4.779 5.436-.814-.132-1.68-.21-2.573-.289.42-2.048.972-3.992 1.68-5.725zm26.02-11.553c1.157 2.363 1.97 4.964 2.495 7.563-.892.053-1.733.131-2.546.262-.998-1.68-2.337-3.335-4.123-4.884a.6.6 0 0 0-.788.053.6.6 0 0 0 .053.788 19.293 19.293 0 0 1 3.676 4.227c-.736.158-1.418.315-1.995.525-.027 0-.027 0-.053.026-2.548-2.573-6.434-4.857-12.393-6.38a91.527 91.527 0 0 1 15.675-2.18zm6.33 26.074l-.054-3.44a.539.539 0 0 0-.55-.551.539.539 0 0 0-.552.552l.052 3.44c-1.208-.027-2.389.025-3.57.052l.13-3.44c-.025-.288-.052-.577-.052-.92-.158-3.019-.394-7.955-4.175-12.314a14.35 14.35 0 0 1 1.812-.42c1.864 3.335 2.39 6.696 2.599 9.27a.57.57 0 0 0 .552.524h.052a.541.541 0 0 0 .5-.604c-.211-2.6-.736-5.987-2.521-9.374a46.571 46.571 0 0 1 2.153-.21c.867 4.858.918 9.637.971 13.024v3.23c0 .315.236.551.551.551a.554.554 0 0 0 .552-.552v-3.255c-.052-3.387-.105-8.14-.971-13.05h2.335a58.944 58.944 0 0 0-.709 5.777c-.026.288.21.551.5.577h.051c.29 0 .526-.21.553-.498a58.4 58.4 0 0 1 .708-5.804c.762.053 1.47.105 2.153.21-2.442 4.622-2.573 9.427-2.678 12.84l-.053.972.027.919c.026.289.262.55.551.55h.026c.29-.025.552-.261.525-.576l-.026-.867.053-.971c.105-3.388.236-8.14 2.757-12.683.683.105 1.287.236 1.838.42-3.782 4.359-4.044 9.295-4.175 12.315-.026.315-.052.63-.052.972l.13 3.387c-.682-.027-1.338-.027-1.995-.053zm6.905-17.514c0-.026-.026-.026-.053-.026-.577-.21-1.26-.367-1.995-.525 1.627-2.547 4.096-5.015 7.772-7.09 2.232.342 4.464.762 6.67 1.261-5.96 1.523-9.82 3.807-12.394 6.38zm3.991-7.877c-3.413 2.127-5.697 4.595-7.247 7.142a24.19 24.19 0 0 0-2.52-.262 33.36 33.36 0 0 1 1.68-5.725.543.543 0 0 0-.315-.708.544.544 0 0 0-.71.314c-.734 1.838-1.312 3.834-1.759 6.066-.446-.026-.893-.026-1.365-.026h-.026c-.447 0-.893 0-1.366.026-.499-2.573-1.286-5.173-2.39-7.562 5.332-.237 10.687.026 16.018.735zm-50.651 30.827c-.158-3.046-.42-7.956-4.201-12.341 1.365-.394 3.177-.657 5.172-.788.21 1.155.368 2.363.525 3.623a.537.537 0 0 0 .526.473h.078a.522.522 0 0 0 .473-.604 45.645 45.645 0 0 0-.498-3.545c.393 0 .76-.026 1.155-.026h.026c.394 0 .761.026 1.156.026-.867 4.858-.92 9.611-.972 12.788 0 .315.262.551.551.551a.533.533 0 0 0 .551-.525c.053-3.177.106-7.93.972-12.76.761.051 1.497.104 2.18.209-.867 1.68-1.55 3.466-1.97 5.461-.604 2.758-.683 5.304-.761 7.352l-.027.999.08 3.413c-.657 0-1.314-.027-1.997-.027l.027-2.152a.573.573 0 0 0-.552-.551c-.34 0-.551.236-.551.55l-.026 2.18c-.657 0-1.34.026-1.996.052l.131-3.465a9.201 9.201 0 0 1-.052-.893zm7.72 5.514c.078 0 .157 0 .263.026h.025a.568.568 0 0 0 .552-.525c0-.315-.21-.578-.526-.578-.104-.026-.236-.026-.366-.026l-.132-3.466c.026-.29.052-.577.052-.866.237-4.753.657-13.103 13.077-17.541v15.256c-.341-.105-.683-.184-1.025-.184-1.234 0-2.31.63-2.94 1.602a3.398 3.398 0 0 0-2.888-1.602 3.463 3.463 0 0 0-3.466 3.466c0 .315.236.551.55.551h5.252v15.572h-7.982l-.447-11.685zm9.557-3.887h3.388v2.941c-.683.736-1.13 1.708-1.13 2.81 0 1.076.447 2.075 1.13 2.81v7.01h-3.388v-15.57zm4.491 9.375c.394.21.84.34 1.313.42v5.777h-1.313v-6.197zm2.415.42c2.022-.263 3.572-1.969 3.572-4.044 0-2.258-1.865-4.096-4.123-4.096a3.71 3.71 0 0 0-1.864.472v-2.127h.761a.538.538 0 0 0 .552-.55 3.39 3.39 0 0 0-1.313-2.706v-16.227a44.68 44.68 0 0 1 4.673-1.18.568.568 0 0 0 .42-.553c.027-.236-.157-.472-.42-.525a92.882 92.882 0 0 0-4.673-1.076v-5.724c11.658 4.516 12.052 12.603 12.288 17.225.026.34.026.63.052.866l-.13 3.492c-.106.027-.237.027-.368.027a.572.572 0 0 0-.525.577.568.568 0 0 0 .55.525h.054c.078 0 .183 0 .262-.026l-.709 21.427h-9.06v-5.778zm123.805 11.711c-1.234 0-1.55-.315-1.996-.683-.525-.5-1.103-1.05-2.915-1.05-1.654 0-2.231.525-2.73.997-.447.395-.815.736-2.18.736-1.234 0-1.549-.315-1.995-.683-.526-.5-1.103-1.05-2.915-1.05-1.654 0-2.232.525-2.73.997-.447.395-.815.736-2.18.736-1.208 0-1.55-.29-1.97-.683-.525-.5-1.129-1.05-2.94-1.05-1.655 0-2.206.525-2.731.997-.42.395-.788.736-2.18.736-1.208 0-1.549-.29-1.97-.683-.524-.5-1.128-1.05-2.94-1.05-1.654 0-2.206.525-2.731.997-.42.395-.787.736-2.179.736-1.208 0-1.55-.29-1.969-.683-.525-.5-1.13-1.05-2.941-1.05-1.654 0-2.206.525-2.73.997-.421.395-.79.736-2.18.736-1.208 0-1.55-.29-1.97-.683-.525-.5-1.129-1.05-2.94-1.05-1.628 0-2.206.525-2.705.997-.42.395-.814.736-2.18.736-1.233 0-1.55-.315-1.995-.683-.525-.5-1.103-1.05-2.915-1.05-1.654 0-2.231.525-2.73.997-.447.395-.815.736-2.18.736-1.234 0-1.549-.315-1.995-.683-.526-.5-1.13-1.05-2.915-1.05-1.654 0-2.232.525-2.731.997-.446.395-.814.736-2.18.736-1.207 0-1.549-.29-1.968-.683-.526-.5-1.13-1.05-2.941-1.05-1.655 0-2.206.525-2.731.997-.42.395-.788.736-2.18.736-1.208 0-1.549-.29-1.97-.683-.524-.5-1.128-1.05-2.94-1.05-1.654 0-2.206.525-2.731.997-.42.395-.787.736-2.179.736-1.208 0-1.55-.29-1.97-.683-.524-.5-1.128-1.05-2.94-1.05-1.655 0-2.206.525-2.73.997-.421.395-.79.736-2.18.736-1.208 0-1.523-.29-1.97-.683-.525-.5-1.13-1.05-2.94-1.05-1.628 0-2.206.525-2.705.997-.42.395-.814.736-2.18.736-1.234 0-1.55-.315-1.996-.683-.524-.5-1.102-1.05-2.914-1.05-1.654 0-2.231.525-2.73.997-.447.395-.815.736-2.18.736-1.234 0-1.55-.315-1.996-.683-.525-.5-1.103-1.05-2.915-1.05-1.653 0-2.205.525-2.73.997-.42.395-.788.736-2.18.736-1.207 0-1.549-.29-1.968-.683-.526-.5-1.13-1.05-2.942-1.05-1.654 0-2.205.525-2.73.997-.42.395-.789.736-2.18.736-1.208 0-1.549-.29-1.97-.683-.525-.5-1.128-1.05-2.94-1.05v1.103c1.392 0 1.759.34 2.18.761.524.447 1.076.972 2.73.972 1.812 0 2.416-.552 2.941-1.024.42-.394.762-.71 1.97-.71 1.39 0 1.759.342 2.18.762.523.447 1.075.972 2.73.972 1.812 0 2.416-.552 2.94-1.024.42-.394.761-.71 1.97-.71 1.365 0 1.732.342 2.179.762.5.447 1.076.972 2.73.972 1.813 0 2.39-.552 2.916-1.024.446-.394.761-.71 1.995-.71 1.366 0 1.733.342 2.18.762.498.447 1.076.972 2.73.972 1.812 0 2.39-.552 2.942-1.024.393-.394.734-.71 1.942-.71 1.392 0 1.76.342 2.206.762.499.447 1.077.972 2.704.972 1.812 0 2.416-.552 2.942-1.024.42-.394.76-.71 1.969-.71 1.391 0 1.759.342 2.18.762.524.447 1.076.972 2.73.972 1.811 0 2.415-.552 2.94-1.024.42-.394.762-.71 1.97-.71 1.392 0 1.76.342 2.18.762.525.447 1.076.972 2.73.972 1.812 0 2.416-.552 2.941-1.024.42-.394.762-.71 1.97-.71 1.39 0 1.759.342 2.18.762.524.447 1.076.972 2.73.972 1.812 0 2.389-.552 2.914-1.024.447-.394.762-.71 1.996-.71 1.366 0 1.733.342 2.179.762.5.447 1.076.972 2.73.972 1.813 0 2.39-.552 2.916-1.024.446-.394.761-.71 1.995-.71 1.366 0 1.733.342 2.18.762.498.447 1.076.972 2.73.972 1.812 0 2.39-.552 2.915-1.024.42-.394.761-.71 1.97-.71 1.391 0 1.76.342 2.205.762.499.447 1.077.972 2.705.972 1.811 0 2.415-.552 2.94-1.024.42-.394.762-.71 1.97-.71 1.391 0 1.759.342 2.18.762.525.447 1.076.972 2.73.972 1.812 0 2.415-.552 2.941-1.024.42-.394.762-.71 1.969-.71 1.392 0 1.76.342 2.18.762.525.447 1.076.972 2.73.972 1.812 0 2.416-.552 2.941-1.024.42-.394.762-.71 1.97-.71 1.39 0 1.759.342 2.18.762.524.447 1.076.972 2.73.972 1.812 0 2.389-.552 2.914-1.024.447-.394.762-.71 1.996-.71 1.366 0 1.76.342 2.18.762.498.447 1.076.972 2.73.972 1.812 0 2.39-.552 2.915-1.024.446-.394.761-.71 1.995-.71 1.366 0 1.733.342 2.18.762.5.447 1.076.972 2.73.972 1.813 0 2.39-.552 2.915-1.024.42-.394.761-.71 1.97-.71v-1.102c-1.628 0-2.206.525-2.705.997-.42.395-.814.736-2.18.736m.001 6.039c-1.208 0-1.55-.289-1.97-.682-.55-.5-1.129-1.05-2.94-1.05-1.655 0-2.232.524-2.731.997-.447.394-.815.735-2.18.735-1.208 0-1.549-.289-1.97-.682-.55-.5-1.128-1.05-2.94-1.05-1.654 0-2.232.524-2.73.997-.447.394-.815.735-2.18.735-1.208 0-1.55-.289-1.97-.682-.525-.5-1.129-1.05-2.94-1.05-1.655 0-2.232.524-2.731.997-.42.394-.788.735-2.18.735-1.208 0-1.549-.289-1.97-.682-.524-.5-1.128-1.05-2.94-1.05-1.654 0-2.232.524-2.731.997-.42.394-.787.735-2.179.735-1.208 0-1.55-.289-1.969-.682-.525-.5-1.13-1.05-2.941-1.05-1.654 0-2.232.524-2.73.997-.421.394-.79.735-2.18.735-1.208 0-1.523-.289-1.944-.682-.551-.5-1.155-1.05-2.967-1.05-1.627 0-2.205.524-2.704.997-.446.394-.814.735-2.18.735-1.207 0-1.55-.289-1.969-.682-.55-.5-1.129-1.05-2.94-1.05-1.655 0-2.232.524-2.732.997-.446.394-.814.735-2.18.735-1.207 0-1.548-.289-1.969-.682-.55-.5-1.129-1.05-2.94-1.05-1.654 0-2.232.524-2.731.997-.446.394-.814.735-2.18.735-1.207 0-1.549-.289-1.968-.682-.526-.5-1.13-1.05-2.941-1.05-1.655 0-2.233.524-2.731.997-.42.394-.788.735-2.18.735-1.208 0-1.549-.289-1.97-.682-.524-.5-1.128-1.05-2.94-1.05-1.654 0-2.232.524-2.731.997-.42.394-.787.735-2.179.735-1.208 0-1.55-.289-1.97-.682-.524-.5-1.128-1.05-2.94-1.05-1.655 0-2.233.524-2.73.997-.421.394-.79.735-2.18.735-1.208 0-1.523-.289-1.944-.682-.551-.5-1.155-1.05-2.967-1.05-1.627 0-2.205.524-2.704.997-.446.394-.814.735-2.18.735-1.207 0-1.55-.289-1.969-.682-.551-.5-1.129-1.05-2.94-1.05-1.655 0-2.232.524-2.732.997-.446.394-.814.735-2.18.735-1.207 0-1.548-.289-1.969-.682-.55-.5-1.129-1.05-2.94-1.05-1.654 0-2.232.524-2.731.997-.42.394-.788.735-2.18.735-1.207 0-1.549-.289-1.968-.682-.526-.5-1.13-1.05-2.942-1.05-1.654 0-2.232.524-2.73.997-.42.394-.789.735-2.18.735-1.208 0-1.549-.289-1.97-.682-.525-.5-1.128-1.05-2.94-1.05v1.102c1.392 0 1.759.341 2.18.735.499.472 1.076 1.025 2.73 1.025 1.812 0 2.416-.578 2.941-1.078.42-.393.762-.682 1.97-.682 1.39 0 1.759.341 2.18.735.497.472 1.075 1.025 2.73 1.025 1.812 0 2.416-.578 2.94-1.078.42-.393.761-.682 1.97-.682 1.365 0 1.732.341 2.179.735.5.472 1.076 1.025 2.73 1.025 1.813 0 2.39-.578 2.942-1.05.42-.421.761-.71 1.97-.71 1.365 0 1.732.341 2.179.735.498.472 1.076 1.025 2.73 1.025 1.812 0 2.416-.578 2.942-1.078.42-.393.734-.682 1.942-.682 1.392 0 1.76.341 2.206.735.499.472 1.077 1.025 2.704 1.025 1.812 0 2.416-.578 2.942-1.078.42-.393.76-.682 1.969-.682 1.391 0 1.759.341 2.18.735.498.472 1.076 1.025 2.73 1.025 1.811 0 2.415-.578 2.94-1.078.42-.393.762-.682 1.97-.682 1.392 0 1.76.341 2.18.735.499.472 1.076 1.025 2.73 1.025 1.812 0 2.416-.578 2.941-1.078.42-.393.762-.682 1.97-.682 1.39 0 1.759.341 2.18.735.498.472 1.076 1.025 2.73 1.025 1.812 0 2.389-.578 2.941-1.05.42-.421.761-.71 1.97-.71 1.365 0 1.732.341 2.178.735.5.472 1.076 1.025 2.73 1.025 1.813 0 2.39-.578 2.942-1.05.42-.421.761-.71 1.97-.71 1.365 0 1.732.341 2.179.735.498.472 1.076 1.025 2.73 1.025 1.812 0 2.416-.578 2.942-1.078.42-.393.734-.682 1.942-.682 1.392 0 1.76.341 2.206.735.499.472 1.077 1.025 2.705 1.025 1.811 0 2.415-.578 2.94-1.078.42-.393.762-.682 1.97-.682 1.391 0 1.759.341 2.18.735.498.472 1.076 1.025 2.73 1.025 1.812 0 2.415-.578 2.941-1.078.42-.393.762-.682 1.969-.682 1.392 0 1.76.341 2.18.735.499.472 1.076 1.025 2.73 1.025 1.812 0 2.416-.578 2.941-1.078.42-.393.762-.682 1.97-.682 1.39 0 1.759.341 2.18.735.498.472 1.076 1.025 2.73 1.025 1.812 0 2.389-.578 2.941-1.05.42-.421.762-.71 1.97-.71 1.365 0 1.732.341 2.178.735.5.472 1.077 1.025 2.73 1.025 1.813 0 2.39-.578 2.942-1.05.42-.421.761-.71 1.97-.71 1.365 0 1.732.341 2.179.735.5.472 1.076 1.025 2.73 1.025 1.813 0 2.417-.578 2.942-1.078.42-.393.734-.682 1.942-.682v-1.103c-1.627 0-2.205.525-2.704.998-.446.394-.814.735-2.18.735"/></g></svg>