<svg width="170" height="177" xmlns="http://www.w3.org/2000/svg"><g fill="none" fill-rule="evenodd"><path d="M141.99 65.138c0-.314-.262-.55-.576-.55H99.93a.537.537 0 0 0-.55.55c0 .314.235.55.55.55h41.484a.56.56 0 0 0 .576-.55m-23.046-3.378h25.718c.314 0 .55-.237.55-.55a.537.537 0 0 0-.55-.55h-25.718a.538.538 0 0 0-.551.55c0 .313.237.55.55.55M99.59 110.42c-.184-.419-.838-.393-.996 0l-2.907 6.704a.581.581 0 0 0 .314.734.551.551 0 0 0 .707-.314l2.384-5.5 2.356 5.5c.079.209.289.34.524.34.053 0 .131 0 .21-.026a.595.595 0 0 0 .288-.734l-2.88-6.704m-2.07 15.19a.537.537 0 0 0-.55.55v3.666c0 .315.236.55.55.55.288 0 .55-.235.55-.55v-3.666a.554.554 0 0 0-.55-.55m3.143 0a.537.537 0 0 0-.55.55v3.666c0 .315.236.55.55.55.314 0 .55-.235.55-.55v-3.666a.537.537 0 0 0-.55-.55m-1.571-4.661c-1.127 0-1.939 1.099-2.043 1.23a.55.55 0 0 0 0 .628c.104.132.916 1.258 2.043 1.258 1.126 0 1.938-1.126 2.016-1.258a.55.55 0 0 0 0-.628c-.078-.131-.89-1.23-2.016-1.23zm0 1.99c-.315 0-.629-.21-.864-.446.235-.21.55-.445.864-.445.288 0 .602.236.838.445-.236.21-.55.446-.838.446zm16.028-5.815l-2.881-6.704c-.157-.393-.838-.393-.995 0l-2.881 6.704a.547.547 0 0 0 .288.734.581.581 0 0 0 .733-.314l2.357-5.5 2.384 5.5a.51.51 0 0 0 .497.34c.052 0 .13 0 .21-.026.288-.131.419-.445.288-.734m-4.95 8.486a.537.537 0 0 0-.55.55v3.666c0 .315.235.55.55.55.314 0 .55-.235.55-.55v-3.666a.537.537 0 0 0-.55-.55m3.142 0a.553.553 0 0 0-.55.55v3.666c0 .315.262.55.55.55.289 0 .55-.235.55-.55v-3.666a.553.553 0 0 0-.55-.55m-1.572-1.545c1.127 0 1.94-1.126 2.018-1.258a.55.55 0 0 0 0-.628c-.079-.131-.89-1.23-2.017-1.23-1.126 0-1.938 1.099-2.016 1.23a.55.55 0 0 0 0 .628c.078.132.89 1.258 2.016 1.258zm-.837-1.572c.235-.21.55-.445.838-.445.315 0 .629.236.838.445-.209.21-.523.446-.838.446-.288 0-.603-.21-.838-.446zm-72.65-12.073l-2.881 6.704a.595.595 0 0 0 .288.734.582.582 0 0 0 .734-.314l2.357-5.5 2.383 5.5c.078.209.288.34.498.34.078 0 .157 0 .21-.026a.548.548 0 0 0 .288-.734l-2.855-6.704c-.184-.419-.838-.393-1.022 0m-1.073 15.19a.553.553 0 0 0-.55.55v3.666c0 .315.26.55.55.55a.537.537 0 0 0 .549-.55v-3.666a.537.537 0 0 0-.55-.55m3.143 0a.554.554 0 0 0-.55.55v3.666c0 .315.262.55.55.55.314 0 .55-.235.55-.55v-3.666a.537.537 0 0 0-.55-.55m-1.572-4.661c-1.125 0-1.938 1.099-2.016 1.23a.55.55 0 0 0 0 .628c.078.132.89 1.258 2.017 1.258 1.126 0 1.937-1.126 2.043-1.258a.55.55 0 0 0 0-.628c-.106-.131-.917-1.23-2.043-1.23zm0 1.99c-.288 0-.602-.21-.837-.446.235-.21.55-.445.838-.445.314 0 .628.236.864.445-.236.21-.55.446-.864.446zm-15.687-5.081a.582.582 0 0 0 .733-.314l2.357-5.5 2.384 5.5c.078.209.288.34.497.34.079 0 .157 0 .21-.026a.58.58 0 0 0 .314-.734l-2.88-6.704c-.184-.419-.839-.393-1.022 0l-2.88 6.704a.594.594 0 0 0 .287.734m1.519 12.518c.315 0 .55-.235.55-.55v-3.666a.537.537 0 0 0-.55-.55.554.554 0 0 0-.55.55v3.666c0 .315.262.55.55.55m3.143-4.766a.553.553 0 0 0-.55.55v3.666c0 .315.262.55.55.55.314 0 .575-.235.575-.55v-3.666c0-.315-.261-.55-.575-.55m.471-3.43c-.104-.132-.917-1.231-2.043-1.231-1.1 0-1.911 1.099-2.017 1.23a.554.554 0 0 0 0 .628c.106.132.918 1.258 2.017 1.258 1.126 0 1.939-1.126 2.043-1.258a.55.55 0 0 0 0-.628zm-2.88.313c.235-.21.549-.445.837-.445.314 0 .628.236.865.445-.237.21-.55.446-.865.446-.288 0-.602-.21-.838-.446zm-14.824-4.635a.551.551 0 0 0 .707-.314l2.383-5.5 2.357 5.5c.079.209.289.34.498.34.079 0 .157 0 .236-.026a.595.595 0 0 0 .288-.734l-2.881-6.704c-.183-.393-.838-.393-1.021 0l-2.855 6.704c-.132.289 0 .603.288.734m.969 8.302v3.666c0 .315.236.55.55.55.288 0 .55-.235.55-.55v-3.666a.553.553 0 0 0-.55-.55.537.537 0 0 0-.55.55m3.693-.55a.537.537 0 0 0-.55.55v3.666c0 .315.235.55.55.55.288 0 .55-.235.55-.55v-3.666a.553.553 0 0 0-.55-.55m.446-3.43c-.106-.132-.918-1.231-2.018-1.231-1.126 0-1.938 1.099-2.042 1.23a.55.55 0 0 0 0 .628c.104.132.916 1.258 2.042 1.258 1.1 0 1.912-1.126 2.017-1.258a.554.554 0 0 0 0-.628zm-2.881.313c.235-.21.55-.445.863-.445.289 0 .603.236.838.445-.235.21-.55.446-.838.446-.314 0-.628-.21-.863-.446zm38.655 9.141c-.21.235-.21.576 0 .785.21.21.576.21.786 0l1.99-1.99 1.99 1.99a.573.573 0 0 0 .786 0c.21-.209.21-.55 0-.785l-2.383-2.384a.536.536 0 0 0-.393-.157.536.536 0 0 0-.393.157l-2.383 2.384m32.711-2.384a.572.572 0 0 0-.786 0l-2.383 2.384c-.21.235-.21.576 0 .785.13.105.262.157.393.157a.573.573 0 0 0 .393-.157l1.99-1.99 2.017 1.99c.21.21.55.21.76 0 .235-.209.235-.55 0-.785l-2.384-2.384m-15.164-21.737c-1.99 0-2.698 5.971-2.906 8.538a61.018 61.018 0 0 0-.184 4.059.61.61 0 0 0 .184.393.517.517 0 0 0 .365.157h.027c.079 0 .13-.027.209-.027h4.846a.531.531 0 0 0 .393-.157.577.577 0 0 0 .157-.392c-.027-1.493-.079-2.828-.184-4.033-.209-2.567-.89-8.538-2.907-8.538zm-1.807 8.616c.42-5.316 1.44-7.385 1.78-7.517.42.132 1.415 2.201 1.834 7.517.079 1.021.157 2.174.183 3.405h-3.954c.026-1.23.078-2.357.157-3.405zm-1.099 19.433v1.938c0 .288.261.55.575.55.288 0 .55-.262.55-.55v-1.938a.553.553 0 0 0-.55-.55c-.314 0-.575.236-.575.55m4.713 0v1.938c0 .288.236.55.55.55.288 0 .55-.262.55-.55v-1.938a.553.553 0 0 0-.55-.55.537.537 0 0 0-.55.55m-3.588 5.473a.553.553 0 0 0-.55-.55c-.314 0-.575.236-.575.55v5.815c0 .314.261.55.575.55.288 0 .55-.236.55-.55v-5.815m4.688 0a.553.553 0 0 0-.55-.55.537.537 0 0 0-.55.55v5.815c0 .314.236.55.55.55.288 0 .55-.236.55-.55v-5.815m16.762-30.877c.288 0 .55-.262.55-.55v-7.857a.553.553 0 0 0-.55-.55.537.537 0 0 0-.55.55v7.857c0 .288.235.55.55.55m-9.48-4.269a.553.553 0 0 0 .549-.55v-7.857a.537.537 0 0 0-.55-.55.538.538 0 0 0-.55.55v7.857c0 .288.236.55.55.55M49.096 101.2a.537.537 0 0 0-.55.551v7.857c0 .288.235.55.55.55.314 0 .55-.262.55-.55v-7.857a.537.537 0 0 0-.55-.55m9.664-4.269a.537.537 0 0 0-.55.55v7.857c0 .288.235.55.55.55.287 0 .55-.262.55-.55v-7.857a.553.553 0 0 0-.55-.55M80 84.02v8.774c0 .288.235.55.55.55.314 0 .55-.262.55-.55v-8.773a.537.537 0 0 0-.55-.55.537.537 0 0 0-.55.55m-2.331 7.517c.288 0 .55-.237.55-.551v-8.774a.57.57 0 0 0-.55-.55.553.553 0 0 0-.55.55v8.774c0 .314.235.55.55.55m11.811 5.945c0 .288.236.55.55.55a.57.57 0 0 0 .55-.55V88.71a.57.57 0 0 0-.55-.55.553.553 0 0 0-.55.55v8.773m-2.88-1.808c0 .314.235.55.549.55.288 0 .55-.236.55-.55v-8.747c0-.315-.262-.576-.55-.576-.314 0-.55.261-.55.576v8.747m-29.28-2.331c.288 0 .55-.262.55-.55v-8.773a.554.554 0 0 0-.55-.55.537.537 0 0 0-.55.55v8.773c0 .288.236.55.55.55m3.431-11.131a.571.571 0 0 0-.55-.55.554.554 0 0 0-.55.55v8.774c0 .314.236.55.55.55.288 0 .55-.236.55-.55v-8.774M47.655 98.032c.315 0 .55-.262.55-.55V88.71a.553.553 0 0 0-.55-.55.553.553 0 0 0-.55.55v8.773c0 .288.235.55.55.55m2.881-11.681c-.314 0-.55.261-.55.576v8.747c0 .314.236.55.55.55.314 0 .55-.236.55-.55v-8.747c0-.315-.236-.576-.55-.576" fill="#FC833B"/><path d="M49.096 66.526v1.598m0-4.321v1.623m0-4.321v1.597m0 6.521v1.624m0 1.1v1.597m0 6.522v1.624m0-4.322v1.598m0-4.321v1.624" stroke="#FFFDFD" stroke-width=".028" stroke-linecap="round" stroke-linejoin="round"/><path d="M48.598 82.004c-.053.078-.053.158-.053.236 0 .13.053.262.158.366a.459.459 0 0 0 .183.131c.079.026.131.026.21.026a.53.53 0 0 0 .392-.157.536.536 0 0 0 0-.76.58.58 0 0 0-.392-.156.577.577 0 0 0-.393.157c-.053.026-.078.105-.105.157m-.053-5.212c0 .315.236.576.55.576.315 0 .55-.261.55-.576a.531.531 0 0 0-.55-.523.532.532 0 0 0-.55.523m0-2.697c0 .314.236.55.55.55.315 0 .55-.236.55-.55a.538.538 0 0 0-.55-.55.538.538 0 0 0-.55.55m0-2.698c0 .288.236.55.55.55.315 0 .55-.262.55-.55a.537.537 0 0 0-.55-.55.537.537 0 0 0-.55.55m1.101-10.842a.554.554 0 0 0-.55-.55.508.508 0 0 0-.42.21c-.026.052-.078.078-.078.13-.053.079-.053.132-.053.21 0 .13.053.236.131.34 0 .027.027.027.027.053a.468.468 0 0 0 .183.131c.079 0 .131.026.21.026.078 0 .157 0 .209-.053a.512.512 0 0 0 .34-.497m-1.1 2.724c0 .288.236.524.55.524.315 0 .55-.236.55-.524 0-.314-.235-.55-.55-.577-.314 0-.55.263-.55.577m0 16.237c0 .288.236.55.55.55.315 0 .55-.262.55-.55a.553.553 0 0 0-.55-.55.554.554 0 0 0-.55.55m0-13.54c0 .315.236.55.55.55.315 0 .55-.235.55-.55a.537.537 0 0 0-.55-.55.537.537 0 0 0-.55.55m0 2.698c0 .314.236.55.55.55.315 0 .55-.236.55-.55a.553.553 0 0 0-.55-.55.553.553 0 0 0-.55.55" fill="#FC833B"/><path d="M88.59 74.645v1.624m0-4.348v1.623m0 3.824v1.598m0-9.743v1.624m0 9.22v1.623m0-20.585v1.597m0 3.824v1.598m0-4.321v1.623" stroke="#FFFDFD" stroke-width=".028" stroke-linecap="round" stroke-linejoin="round"/><path d="M88.38 81.716c-.079.026-.13.079-.183.13-.053.027-.105.106-.131.158-.026.078-.026.158-.026.236 0 .052 0 .13.026.183a.468.468 0 0 0 .13.183.573.573 0 0 0 .785 0c.08-.104.158-.235.158-.366a.778.778 0 0 0-.052-.236.855.855 0 0 0-.105-.157.628.628 0 0 0-.393-.157c-.078 0-.157 0-.21.026m.761-2.2a.571.571 0 0 0-.55-.55.553.553 0 0 0-.55.55c0 .288.235.55.55.55.288 0 .55-.262.55-.55m0-5.421a.554.554 0 0 0-.55-.55.538.538 0 0 0-.55.55c0 .314.235.55.55.55.288 0 .55-.236.55-.55m0-2.698a.553.553 0 0 0-.55-.55.537.537 0 0 0-.55.55c0 .288.235.55.55.55v-.026c.288 0 .55-.236.55-.524m0-5.421a.553.553 0 0 0-.55-.55.537.537 0 0 0-.55.55c0 .315.235.55.55.55.288 0 .55-.235.55-.55m0-2.697c0-.314-.262-.577-.55-.577-.315 0-.55.263-.55.577 0 .288.235.524.55.524.288 0 .55-.236.55-.524m0 13.513c0-.287-.262-.523-.55-.523a.531.531 0 0 0-.55.523c0 .315.235.576.55.576.288 0 .55-.261.55-.576m0-8.118a.57.57 0 0 0-.55-.55.553.553 0 0 0-.55.55c0 .314.235.55.55.55.288 0 .55-.236.55-.55m0-8.119c0-.078-.027-.131-.053-.21-.026-.052-.052-.078-.078-.13a.677.677 0 0 0-.288-.184h-.079s-.027-.027-.053-.027c-.078 0-.104.027-.183.027 0 .026-.026 0-.026 0l-.079.079a.506.506 0 0 0-.261.445.535.535 0 0 0 .55.55.577.577 0 0 0 .392-.157c.079-.106.157-.236.157-.393" fill="#FC833B"/><path d="M58.76 56.313v1.597m0 11.916v1.624m0-12.44v1.597m0 1.1v1.624m0 1.1v1.597m0-12.44v1.598m0 11.943v1.597m0 3.823v1.625" stroke="#FFFDFD" stroke-width=".028" stroke-linecap="round" stroke-linejoin="round"/><path d="M58.183 74.697c0 .158.079.289.183.393a.56.56 0 0 0 .394.183.5.5 0 0 0 .366-.183.53.53 0 0 0 .157-.393c0-.13-.052-.288-.157-.366a.536.536 0 0 0-.76 0 .5.5 0 0 0-.183.366m0-5.395c0 .288.262.524.577.524a.525.525 0 0 0 .523-.524c0-.314-.236-.576-.523-.576a.58.58 0 0 0-.577.576m0-2.724c0 .315.262.55.577.55a.531.531 0 0 0 .523-.55c0-.287-.236-.55-.523-.55-.315 0-.577.263-.577.55m0 5.422c0 .314.262.55.577.55a.531.531 0 0 0 .523-.55.531.531 0 0 0-.523-.55c-.315 0-.577.235-.577.55m0-16.264c0 .314.262.577.577.577.287 0 .523-.263.523-.577 0-.288-.236-.55-.523-.55-.315 0-.577.262-.577.55m0 2.724c0 .288.262.55.577.55.287 0 .523-.262.523-.55a.531.531 0 0 0-.523-.55c-.315 0-.577.236-.577.55m0 2.697c0 .315.262.55.577.55a.531.531 0 0 0 .523-.55c0-.288-.236-.55-.523-.55-.315 0-.577.262-.577.55m0 2.724c0 .288.262.55.577.55.287 0 .523-.262.523-.55a.532.532 0 0 0-.523-.55c-.315 0-.577.236-.577.55m.943-10.451a.53.53 0 0 0 .157-.392c0-.078 0-.157-.026-.21a.538.538 0 0 0-.497-.34c-.315 0-.577.236-.577.55 0 .079.026.184.079.236a.468.468 0 0 0 .131.184c.052.025.105.078.13.078.079.052.158.052.237.052.13 0 .287-.052.366-.157" fill="#FC833B"/><path d="M79.11 57.91v-1.597m0 9.715v-1.597m0-3.824v-1.598m0 4.322v-1.624m0 7.02v-1.598m0 4.32v-1.623m0 4.32V72.55m0-17.337v-1.624" stroke="#FFFDFD" stroke-width=".028" stroke-linecap="round" stroke-linejoin="round"/><path d="M78.9 74.2a.468.468 0 0 0-.184.13c-.105.08-.158.236-.158.367a.53.53 0 0 0 .158.393.468.468 0 0 0 .183.131c.079.026.132.052.21.052a.492.492 0 0 0 .209-.052.81.81 0 0 0 .184-.13.533.533 0 0 0 .157-.394c0-.13-.053-.288-.157-.366-.053-.079-.131-.105-.184-.132-.078-.025-.13-.052-.209-.052a.5.5 0 0 0-.21.052m-.341-18.463c0 .314.237.577.551.577.314 0 .55-.263.55-.577a.531.531 0 0 0-.55-.524.532.532 0 0 0-.55.524m-.001 5.421c0 .315.237.55.551.55.314 0 .55-.235.55-.55a.554.554 0 0 0-.55-.55.554.554 0 0 0-.55.55M78.558 72c0 .314.237.55.551.55.314 0 .55-.236.55-.55a.537.537 0 0 0-.55-.55.538.538 0 0 0-.55.55m-.001-8.119c0 .288.237.55.551.55.314 0 .55-.262.55-.55a.538.538 0 0 0-.55-.55.538.538 0 0 0-.55.55m-.001-5.421c0 .288.237.55.551.55.314 0 .55-.262.55-.55a.537.537 0 0 0-.55-.55.538.538 0 0 0-.55.55m-.001 8.118c0 .315.237.55.551.55.314 0 .55-.235.55-.55a.553.553 0 0 0-.55-.55.554.554 0 0 0-.55.55m1.047-13.304a.748.748 0 0 0 .053-.236.537.537 0 0 0-.55-.55c-.053 0-.078 0-.105.026h-.026c-.131.027-.236.079-.288.184-.026.052-.079.079-.105.13-.027.053-.027.132-.027.21a.53.53 0 0 0 .158.393.53.53 0 0 0 .393.157.548.548 0 0 0 .34-.13c.053-.053.105-.106.157-.184m-1.048 16.028c0 .288.237.524.551.524.314 0 .55-.236.55-.524 0-.314-.236-.576-.55-.576a.56.56 0 0 0-.55.576m13.016 79.564h2.619c.314 0 .55-.262.55-.55 0-1.361-.812-2.436-1.86-2.436-1.047 0-1.86 1.075-1.86 2.437 0 .287.236.55.551.55zm.603-1.1c.13-.471.444-.785.707-.785.262 0 .55.314.68.785h-1.387zm2.567 3.144a.538.538 0 0 0-.551-.55.553.553 0 0 0-.55.55v3.404l-.76.76-.759-.76v-3.405a.553.553 0 0 0-.55-.55.537.537 0 0 0-.55.55v3.615a.53.53 0 0 0 .158.392l1.309 1.31a.554.554 0 0 0 .393.183.554.554 0 0 0 .392-.184l1.31-1.309a.533.533 0 0 0 .158-.392v-3.615m-48.478-2.043c.314 0 .55-.262.55-.55 0-1.361-.812-2.436-1.86-2.436-1.047 0-1.86 1.075-1.86 2.437 0 .287.236.55.551.55h2.619zm-1.99-1.1c.13-.471.42-.785.68-.785.262 0 .55.314.682.785h-1.362zm2.54 3.144a.537.537 0 0 0-.55-.55.553.553 0 0 0-.55.55v3.404l-.76.76-.759-.76v-3.405a.553.553 0 0 0-.55-.55.537.537 0 0 0-.55.55v3.615a.53.53 0 0 0 .158.392l1.309 1.31a.554.554 0 0 0 .393.183.554.554 0 0 0 .392-.184l1.31-1.309a.533.533 0 0 0 .157-.392v-3.615m55.732-2.043c.314 0 .55-.262.55-.55 0-1.361-.813-2.436-1.86-2.436-1.047 0-1.86 1.075-1.86 2.437 0 .287.236.55.55.55h2.62zm-1.31-1.885c.262 0 .55.314.682.785h-1.39c.158-.471.446-.785.709-.785zm1.86 7.543v-3.615a.537.537 0 0 0-.55-.55.553.553 0 0 0-.55.55v3.405l-.76.76-.786-.76v-3.405a.531.531 0 0 0-.523-.55.537.537 0 0 0-.55.55v3.615a.53.53 0 0 0 .157.392l1.309 1.31a.556.556 0 0 0 .394.183.61.61 0 0 0 .392-.184l1.31-1.309a.533.533 0 0 0 .157-.392m-68.355-6.207c0 .287.235.55.55.55h2.619c.314 0 .55-.263.55-.55 0-1.362-.813-2.437-1.86-2.437-1.047 0-1.86 1.075-1.86 2.437zm1.859-1.336c.262 0 .576.314.707.785h-1.388c.13-.471.42-.785.68-.785zm1.859 3.929a.537.537 0 0 0-.55-.55.553.553 0 0 0-.549.55v3.404l-.76.76-.76-.76v-3.405a.553.553 0 0 0-.55-.55.537.537 0 0 0-.55.55v3.615a.53.53 0 0 0 .158.392l1.309 1.31a.61.61 0 0 0 .393.183.558.558 0 0 0 .393-.184l1.31-1.309a.533.533 0 0 0 .157-.392v-3.615m-8.905-2.043c.314 0 .55-.262.55-.55 0-1.361-.812-2.436-1.86-2.436-1.047 0-1.86 1.075-1.86 2.437 0 .287.237.55.551.55h2.619zm-1.31-1.885c.262 0 .55.314.707.785h-1.387c.13-.471.418-.785.68-.785zm1.86 3.929a.538.538 0 0 0-.55-.55.553.553 0 0 0-.55.55v3.404l-.76.76-.759-.76v-3.405a.537.537 0 0 0-.55-.55.538.538 0 0 0-.55.55v3.615a.53.53 0 0 0 .157.392l1.31 1.31a.606.606 0 0 0 .393.183.554.554 0 0 0 .392-.184l1.31-1.309a.53.53 0 0 0 .157-.392v-3.615m-11.523-2.043h2.619c.314 0 .55-.262.55-.55 0-1.361-.813-2.436-1.86-2.436-1.047 0-1.86 1.075-1.86 2.437 0 .287.236.55.55.55zm.628-1.1c.131-.471.42-.785.68-.785.289 0 .577.314.708.785h-1.388zm.681 8.644a.556.556 0 0 0 .393-.185l1.31-1.309a.533.533 0 0 0 .157-.392v-3.615a.537.537 0 0 0-.55-.55.554.554 0 0 0-.55.55v3.405l-.76.76-.76-.76v-3.405a.537.537 0 0 0-.55-.55.537.537 0 0 0-.55.55v3.615a.53.53 0 0 0 .158.392l1.309 1.31a.61.61 0 0 0 .393.183m91.009-7.543c.315 0 .55-.262.55-.55 0-1.361-.812-2.436-1.86-2.436-1.047 0-1.885 1.075-1.885 2.437 0 .287.261.55.576.55h2.619zm-1.31-1.885c.262 0 .55.314.682.785h-1.388c.13-.471.418-.785.707-.785zm1.86 7.543v-3.615a.536.536 0 0 0-.55-.55.537.537 0 0 0-.55.55v3.405l-.76.76-.785-.76v-3.405a.531.531 0 0 0-.524-.55c-.315 0-.576.236-.576.55v3.615c0 .157.078.288.183.392l1.31 1.31a.554.554 0 0 0 .393.183.606.606 0 0 0 .392-.184l1.31-1.309a.533.533 0 0 0 .157-.392m6.495-8.644c-1.047 0-1.886 1.075-1.886 2.437 0 .287.262.55.55.55h2.646c.314 0 .55-.263.55-.55 0-1.362-.813-2.437-1.86-2.437zm-.707 1.886c.131-.471.42-.785.707-.785.262 0 .55.314.682.785h-1.39zm2.017 2.594a.537.537 0 0 0-.55.55v3.404l-.76.76-.76-.76v-3.405c0-.314-.261-.55-.575-.55a.554.554 0 0 0-.551.55v3.615c0 .157.08.288.184.392l1.309 1.31a.556.556 0 0 0 .393.183.499.499 0 0 0 .366-.184l1.336-1.309a.533.533 0 0 0 .157-.392v-3.615a.537.537 0 0 0-.55-.55m-102.27-15.216c0-1.414-1.493-2.54-3.405-2.54-1.912 0-3.431 1.126-3.431 2.54 0 1.44 1.519 2.54 3.431 2.54 1.912 0 3.405-1.1 3.405-2.54zm-5.736 0c0-.786 1.074-1.44 2.331-1.44 1.231 0 2.305.654 2.305 1.44 0 .786-1.074 1.44-2.305 1.44-1.257 0-2.33-.654-2.33-1.44zm14.902-2.54c-1.911 0-3.404 1.126-3.404 2.54 0 1.44 1.493 2.54 3.404 2.54 1.913 0 3.405-1.1 3.405-2.54 0-1.414-1.492-2.54-3.405-2.54zm0 3.98c-1.23 0-2.304-.654-2.304-1.44 0-.786 1.074-1.44 2.304-1.44 1.258 0 2.331.654 2.331 1.44 0 .786-1.073 1.44-2.33 1.44zm85.587-3.98c-1.91 0-3.404 1.126-3.404 2.54 0 1.44 1.493 2.54 3.405 2.54 1.912 0 3.405-1.1 3.405-2.54 0-1.414-1.493-2.54-3.405-2.54zm0 3.98c-1.256 0-2.303-.654-2.303-1.44 0-.786 1.047-1.44 2.304-1.44s2.305.654 2.305 1.44c0 .786-1.048 1.44-2.305 1.44zm-57.59 4.637a.537.537 0 0 0-.55.549v3.195c0 .314.235.55.55.55.315 0 .55-.236.55-.55v-3.195a.537.537 0 0 0-.55-.55m29.961.55a.537.537 0 0 0-.55-.55.554.554 0 0 0-.55.55v3.195c0 .314.262.55.55.55.315 0 .55-.236.55-.55v-3.195M69.47 101.751v-4.269a.537.537 0 0 0-.549-.55.537.537 0 0 0-.55.55v4.27c0 .314.236.55.55.55.314 0 .55-.236.55-.55" fill="#FC833B"/><path d="M165.482 121.89h-1.1a.553.553 0 0 0-.55.55c0 .316.236.551.55.551 1.388 0 2.515.995 2.515 2.173 0 1.205-1.127 2.174-2.514 2.174h-12.808c-1.387 0-2.514-.969-2.514-2.174 0-1.073.944-1.99 2.148-2.121.13-.026.236-.052.366-.052a.537.537 0 0 0 .551-.55.554.554 0 0 0-.55-.55h-1.1c-.786 0-1.519.262-2.148.68-1.178.787-1.964 2.175-1.964 3.772 0 2.462 1.833 4.453 4.112 4.453h1.519l-.603 1.1a2.098 2.098 0 0 0 0 2.042l-8.17 3.064v-32.999a.572.572 0 0 0-.55-.55.554.554 0 0 0-.551.55v2.095h-9.743a.537.537 0 0 0-.55.55v3.615H123.5c-.21 0-.42.13-.498.34a.517.517 0 0 0 .106.603l2.592 2.775-2.592 2.777c-.157.157-.21.392-.106.576.079.21.289.34.498.34h13.226c.079 0 .157 0 .236-.052.052-.026.131-.052.184-.105 0-.026.026-.052.026-.052.025-.052.078-.08.078-.13 0-.053 0-.08.026-.132 0-.026.026-.053.026-.079v-3.614h4.819v23.885l-14.142 5.317h-2.41c-1.31 0-2.357-1.074-2.357-2.383a2.364 2.364 0 0 1 2.357-2.357h4.007c.262.89 1.075 1.544 2.017 1.544.995 0 2.645-1.256 3.143-1.676.052-.052.079-.078.104-.13 0-.027.026-.027.053-.053a.772.772 0 0 0 .052-.235.493.493 0 0 0-.052-.21l-.053-.052c-.025-.053-.052-.105-.104-.132v-.026c-.498-.392-2.148-1.676-3.143-1.676-.942 0-1.755.655-2.017 1.545h-4.007a3.454 3.454 0 0 0-3.456 3.458c0 1.911 1.544 3.483 3.456 3.483h2.043l1.126 6.705-1.152 2.566a.364.364 0 0 0-.053.288l.655 4.871h-5.526v-12.597a.53.53 0 0 0-.104-.34l-3.928-5.265v-21.004a.492.492 0 0 0-.053-.209l-.498-1.153-5.84-13.618c-.157-.393-.838-.393-.995 0l-1.964 4.53-7.726-18.018a.537.537 0 0 0-.498-.34h-8.381c-.524-17.233-1.23-34.204-1.886-49.944-.157-3.902-.314-7.726-.471-11.47 1.048-.656 1.755-1.808 1.755-3.117 0-2.043-1.676-3.693-3.772-3.693-2.094 0-3.797 1.65-3.797 3.693 0 1.309.707 2.461 1.781 3.116-.157 3.719-.315 7.516-.472 11.393-.654 15.766-1.362 32.763-1.886 50.022h-.077c-.525-21.816-1.415-43.58-2.253-63.432-.105-2.75-.236-5.473-.34-8.17 1.518-.08 3.037-.158 4.556-.158 32.004 0 59.189 21.056 68.407 50.048h-29.358a.553.553 0 0 0-.55.55c0 .314.262.55.55.55h29.7a72.36 72.36 0 0 1 3.011 20.612c0 7.568-.052 25.456-.078 33.81v.08c0 .314.235.575.55.575a.57.57 0 0 0 .55-.55c.025-8.328.078-26.32.078-33.915a72.53 72.53 0 0 0-2.985-20.611h8.773c.288 0 .55-.237.55-.55a.553.553 0 0 0-.55-.55h-9.087c-9.272-29.595-36.928-51.15-69.561-51.15-1.545 0-3.064.08-4.61.158-.025-.76-.051-1.52-.078-2.279 1.048-.654 1.756-1.807 1.756-3.116 0-2.043-1.677-3.693-3.772-3.693-2.095 0-3.797 1.65-3.797 3.693 0 1.31.707 2.462 1.78 3.116-.026.891-.078 1.782-.104 2.672a73.434 73.434 0 0 0-15.95 3.798c-.105-2.174-.184-4.321-.288-6.47 1.074-.654 1.78-1.807 1.78-3.116 0-2.043-1.701-3.693-3.77-3.693-2.095 0-3.798 1.65-3.798 3.693 0 1.31.707 2.462 1.781 3.116a771.99 771.99 0 0 0-.34 8.355 56.755 56.755 0 0 0-3.117 1.467c-.314-1.755-1.86-3.064-3.746-3.064-2.068 0-3.77 1.65-3.77 3.693 0 1.125.55 2.147 1.387 2.828C30.867 38.765 18.9 55.29 14.656 74.67h-6.6a.554.554 0 0 0-.55.55c0 .289.262.55.55.55h6.339c-.132.707-.236 1.415-.367 2.121H.828a.57.57 0 0 0-.55.55c0 .314.262.577.55.577h12.99a75.04 75.04 0 0 0-.864 11.209v10.554c0 .289.262.55.55.55.288 0 .497-.21.55-.471V90.228c0-3.824.314-7.57.89-11.21H36.42c.314 0 .55-.262.55-.576a.553.553 0 0 0-.55-.55H15.154c.104-.706.236-1.414.366-2.121h5.684a.57.57 0 0 0 .55-.55.554.554 0 0 0-.55-.55h-5.422a71.602 71.602 0 0 1 11.236-25.483h19.668c-.524 13.174-1.073 27.002-1.519 41.04H24.923a.573.573 0 0 0-.524.34l-4.793 11.183-3.378 7.91-2.148-5.527c-.158-.418-.864-.418-1.021 0l-6.313 16.264s-.025.078-.025.105c-.026.052-.026.105-.026.157v37.582h-3.38a.537.537 0 0 0-.549.55c0 .314.236.55.55.55h125.03l.497 3.745H3.316a.537.537 0 0 0-.55.55c0 .314.236.55.55.55h163.816c.314 0 .55-.236.55-.55a.537.537 0 0 0-.55-.55h-4.268l3.64-20.035a.518.518 0 0 0-.027-.288l-2.985-7.726.655-.602c.707-.655.89-1.676.445-2.54l-.602-1.1h1.492c2.28 0 4.138-1.99 4.138-4.453 0-2.435-1.859-4.452-4.138-4.452zm-34.884 15.532c0-.55.445-.996.995-.996.314 0 1.126.472 1.886.996-.76.55-1.572.995-1.886.995a.995.995 0 0 1-.995-.995zM7.794 120.765l5.762-14.902 5.788 14.902v19.118l-4.06 5.422a.526.526 0 0 0-.104.34v12.597H7.794v-37.477zM49.54 23.103c1.493 0 2.698 1.152 2.698 2.594 0 1.413-1.205 2.592-2.698 2.592-1.466 0-2.67-1.179-2.67-2.592 0-1.442 1.204-2.594 2.67-2.594zm9.22-13.565c1.466 0 2.671 1.152 2.671 2.592 0 1.44-1.205 2.593-2.671 2.593-1.493 0-2.698-1.153-2.698-2.593s1.205-2.592 2.698-2.592zm0 6.285c.314 0 .628-.053.916-.131.158 3.64.315 7.307.472 11.078.969 23.362 2.042 49.394 2.488 74.981-1.205 9.245-2.2 21.266-2.934 35.173-.498-14.876-4.242-26.95-4.923-28.992.34-27.552 1.519-55.889 2.592-81.136.157-3.771.289-7.464.446-11.104.314.078.602.13.943.13zm20.35-6.285c1.465 0 2.67 1.152 2.67 2.592 0 1.44-1.205 2.593-2.67 2.593-1.494 0-2.699-1.153-2.699-2.593s1.205-2.592 2.698-2.592zm0 6.285c.313 0 .627-.053.916-.131.157 3.667.314 7.36.47 11.157 1.049 25.22 2.227 53.531 2.593 81.083-.68 2.042-4.452 14.116-4.95 28.992-.707-13.907-1.702-25.928-2.907-35.173.42-25.56 1.52-51.568 2.488-74.902.158-3.797.316-7.49.446-11.157.314.078.629.13.943.13zm8.249 13.435c.314.079.628.13.942.13a3.9 3.9 0 0 0 .943-.13c.13 3.615.289 7.307.446 11.078 1.073 26.033 2.304 55.392 2.618 83.782-.34.968-1.964 5.63-3.064 12.178-.55-13.41-3.692-24.41-4.687-27.684.47-23.44 1.466-47.01 2.356-68.354.157-3.745.315-7.412.446-11zm3.614-3.561c0 1.413-1.205 2.592-2.672 2.592-1.492 0-2.697-1.179-2.697-2.592 0-1.442 1.205-2.594 2.697-2.594 1.467 0 2.672 1.152 2.672 2.594zm30.589 132.545h-7.255V145.83l3.64-4.845 3.615 4.845v12.413zm-15.609 0V145.83l3.64-4.845 3.615 4.845v12.413h-7.255zm-8.328 0V145.83l3.615-4.845 3.613 4.845v12.413h-7.228zm-5.29 0H89.27V145.83l3.615-4.845 3.614 4.845v12.413h-4.164zm-8.093 0h-.13v-10.11a.537.537 0 0 0-.55-.549.554.554 0 0 0-.551.55v10.11h-3.823v-17.39c0-.026.026-.026.026-.026l4.478-4.48 4.505 4.48v4.609c-.026.052-.026.13-.026.209v12.597h-3.929zM54.7 148.132a.537.537 0 0 0-.55-.549.537.537 0 0 0-.55.55v10.11h-3.902v-12.598c0-.079-.027-.13-.052-.21v-4.583c0-.025 0-.025.025-.025l4.479-4.48 4.505 4.48v17.415H54.7v-10.11zm-21.71 10.11V145.83l3.613-4.845 3.64 4.845v12.413h-7.254zm-8.356 0V145.83l3.615-4.845 3.64 4.845v12.413h-7.255zm29.307-68.014c-.446-14.038-.995-27.866-1.52-41.04h2.933c-.523 13.331-1.02 27.185-1.36 41.04h-.053zm.026 1.1zm.183 18.28c1.257 4.138 4.322 15.635 4.505 29.202v.47l-4.112-4.11a.57.57 0 0 0-.786 0l-4.111 4.11v-.47c.21-13.54 3.273-25.064 4.504-29.202zm-33.732 10.868l-.026-.078v-1.257l5.761-13.461 5.789 13.461v24.933l-3.248-4.348c-.21-.261-.681-.261-.89 0l-3.72 5.002-3.64-4.845V120.66c0-.052 0-.13-.026-.184zm24.042 3.458h-.026c-.026.104-3.326 8.879-4.06 20.244l-3.326-4.452c-.21-.261-.68-.261-.89 0l-3.117 4.19V119.01l5.71-13.33 5.761 13.409c-.026 1.623-.052 3.221-.052 4.845zm.498 1.911c.942 2.882 2.855 9.664 3.43 17.888l-2.985-4.007c-.21-.261-.681-.261-.89 0l-2.986 4.007c.576-8.224 2.488-15.006 3.43-17.888zM66.72 86.22h4.4c2.383 7.282 4.4 24.148 5.683 46.409l-7.49-7.49a.525.525 0 0 0-.786 0l-7.49 7.49c1.284-22.261 3.3-39.127 5.683-46.409zm-3.51-6.835l5.16-3.195v8.931h-2.04a.57.57 0 0 0-.524.366c-.76 2.28-1.52 5.527-2.2 9.664-.105-5.263-.262-10.528-.394-15.766zm11.053 15.766c-.708-4.137-1.44-7.385-2.227-9.664a.57.57 0 0 0-.523-.366H69.47v-8.93l5.186 3.194c-.157 5.238-.288 10.502-.393 15.766zm9.428 14.457c1.257 4.138 4.322 15.662 4.505 29.202v.47l-4.112-4.11a.57.57 0 0 0-.786 0l-4.111 4.11v-.47c.208-13.54 3.273-25.064 4.504-29.202zm21.161 34.387l-3.169-4.269c-.209-.261-.68-.261-.89 0l-3.326 4.452c-.733-11.314-4.007-20.035-4.06-20.244-.025-1.624-.052-3.248-.078-4.871l5.762-13.383 5.761 13.461v24.854zm-11.968-18.15c.916 2.882 2.855 9.664 3.43 17.888l-2.985-4.007c-.21-.261-.68-.261-.89 0l-2.986 4.007c.576-8.224 2.514-15.006 3.43-17.888zm24.644 13.881h-.026l-3.745 5.002-3.719-5.002c-.21-.261-.681-.261-.89 0l-3.196 4.269V119.14l5.788-13.461 5.788 13.461v20.585zm-12.125-22.078l-5.814-13.592c-.184-.393-.838-.393-.996 0l-5.29 12.309a1985.6 1985.6 0 0 0-.602-25.037h7.987L108.677 110l-3.273 7.647zM83.876 91.59v-.261h.025c-.025.078-.025.183-.025.261zM76.62 26.796c-.68 16.185-1.414 33.628-1.938 51.332l-5.212-3.22v-6.653h1.886c.314 0 .55-.237.55-.55a.537.537 0 0 0-.55-.55H69.47V63.88a.538.538 0 0 0-.55-.55.538.538 0 0 0-.55.55v3.274h-1.885a.554.554 0 0 0-.55.55c0 .313.261.55.55.55h1.885v6.652l-5.211 3.22c-.289-9.793-.63-19.484-1.022-28.939h2.174c.314 0 .576-.261.576-.55 0-.314-.262-.55-.576-.55h-2.2c-.288-7.306-.602-14.456-.89-21.37l-.158-3.85a71.326 71.326 0 0 1 15.871-3.823c-.104 2.54-.21 5.132-.314 7.751zm-20.35-.052c-.287 6.914-.602 14.038-.89 21.345h-3.01c-.105-2.645-.21-5.265-.34-7.857-.158-3.876-.315-7.7-.472-11.419.89-.55 1.546-1.467 1.729-2.514a82.041 82.041 0 0 1 3.064-1.467l-.078 1.912zm-8.773 2.854c-.13 3.484-.288 7.02-.42 10.634a709.773 709.773 0 0 0-.34 7.857H27.804a72.396 72.396 0 0 1 19.695-18.49zm.681 10.686c.157-3.745.288-7.411.446-11.026.287.079.601.13.915.13.341 0 .655-.051.944-.13.157 3.615.314 7.28.445 11.026.916 21.345 1.886 44.889 2.384 68.328-1.022 3.275-4.165 14.3-4.688 27.735-1.1-6.52-2.698-11.183-3.065-12.204.288-28.415 1.519-57.8 2.62-83.859zm-3.614 76.107l-5.29-12.335c-.184-.393-.838-.393-1.022 0l-5.788 13.514-5.788-13.514c-.183-.393-.838-.393-1.02 0l-6.103 14.22-2.75-7.149 8.459-19.8H45.14c-.236 8.329-.445 16.736-.576 25.064zm-28.286 41.851V145.83l3.615-4.845 3.64 4.845v12.413H16.28zm29.228 0h-4.164V145.83l3.615-4.845 3.64 4.845v12.413h-3.09zm14.484 0c.235-8.485.55-16.526.969-24.016.026-.026.078-.026.104-.052l7.857-7.883 7.883 7.883c.027.026.053.026.105.052.393 7.49.733 15.531.969 24.016h-6.05v-7.857a.57.57 0 0 0-.55-.55.553.553 0 0 0-.55.55v7.857H67.14v-7.857a.57.57 0 0 0-.55-.55c-.314 0-.575.262-.575.55v7.857H59.99zm103.422-24.618l-1.518 1.388a2.108 2.108 0 0 0-.341 2.671c.445.655.393 1.52-.105 2.148-.235.34-.628.523-1.048.523h-.13a2.39 2.39 0 0 0-.655-1.335.526.526 0 0 0-.786 0 .537.537 0 0 0 0 .76c.184.157.262.367.314.575h-2.304a1.01 1.01 0 0 1 .288-.575c.21-.21.21-.55 0-.76a.526.526 0 0 0-.786 0 2.395 2.395 0 0 0-.654 1.335h-.132c-.419 0-.812-.183-1.047-.523a1.85 1.85 0 0 1-.105-2.148c.55-.863.393-1.99-.34-2.67l-1.52-1.39a.92.92 0 0 1-.182-1.177l2.147-4.007h2.933v2.775c0 .315.236.55.55.55.288 0 .55-.235.55-.55v-2.775h2.907l2.174 4.007c.21.392.13.89-.21 1.178zm-25.901 29.385h-.105l-1.152-8.485h2.41l-1.153 8.485zm-5.185-8.485h2.802l.497 3.718h-3.797l.498-3.718zm6.783 4.819h10.24c.314 0 .55-.237.55-.551a.537.537 0 0 0-.55-.55h-10.084l.498-3.718h12.178l1.153 8.563h-14.483l.498-3.744zm22.522 3.64l-1.152-8.46h1.048c.314 0 .55-.235.55-.55a.537.537 0 0 0-.55-.55h-5.448c-.261 0-.498.21-.55.471l-1.231 9.115h-.104l-1.231-9.115c-.053-.261-.288-.47-.55-.47h-20.559a.545.545 0 0 0-.55.497l-1.257 9.088h-.105l-1.31-9.612 1.18-2.592a.445.445 0 0 0 .025-.315l-1.152-6.888 23.519-8.8 1.099 1.022a.97.97 0 0 1 .184 1.257c-.681 1.074-.63 2.435.157 3.43a2.393 2.393 0 0 0 1.911.944h.263c.104.288.287.576.523.812.445.471 1.048.68 1.65.68a2.22 2.22 0 0 0 1.624-.68 2.28 2.28 0 0 0 .524-.812h.261c.76 0 1.468-.341 1.912-.944.786-.995.839-2.356.157-3.43-.235-.393-.183-.917.158-1.23l2.776 7.149-3.64 20.009-.132-.026zm-2.75-21.528c-.025 0-.025.026-.052.052a1.201 1.201 0 0 1-1.702 0c-.027-.026-.027-.052-.027-.052h1.782zm-8.406-11.76c-1.676 0-3.012-1.492-3.012-3.352 0-.785.236-1.493.655-2.068a2.53 2.53 0 0 0-.157.89c0 1.807 1.623 3.274 3.613 3.274h1.676l-.654 1.256h-2.121zm-23.624-15.347c.21-.21.21-.55 0-.76l-2.068-2.225h7.045v1.597c0 .053 0 .079.026.132.026.025 0 .051.026.078 0 0 0 .026.026.026l.079.157 3.378 3.222h-10.58l2.068-2.227zm6.889-.838h2.461v2.331l-2.461-2.33zm-.812-1.1h9.192v-5.21h-9.192v5.212zm-1.781 50.677l.523-3.744h4.112l.524 3.744h-5.16zm24.251 0l1.153-8.563h2.828l1.179 8.563h-5.16zm10.083-33.392h-2.094l-.681-1.256h1.676c1.99 0 3.614-1.467 3.614-3.275 0-.314-.053-.602-.131-.89.392.576.655 1.284.655 2.07 0 1.86-1.363 3.351-3.039 3.351z" fill="#FC833B"/><path d="M155.058 133.1h-1.361a.572.572 0 0 0-.55.55c0 .315.262.55.55.55h1.361a.94.94 0 0 1 .944.943c0 .315.235.55.55.55.288 0 .55-.235.55-.55a2.045 2.045 0 0 0-2.044-2.043m7.203 0h-1.336a2.029 2.029 0 0 0-2.042 2.043c0 .315.235.55.523.55.315 0 .55-.235.55-.55 0-.524.42-.943.97-.943h1.335c.288 0 .55-.235.55-.55a.572.572 0 0 0-.55-.55m-53.61-58.43a3.88 3.88 0 0 0-1.964.551c-.524.314-.943.76-1.283 1.257a3.93 3.93 0 0 0-1.285-1.257 3.72 3.72 0 0 0-1.937-.55.538.538 0 0 0-.55.55c0 .289.236.55.55.55a2.683 2.683 0 0 1 2.671 2.671c0 .314.262.577.55.577.315 0 .55-.263.55-.577 0-1.466 1.205-2.671 2.698-2.671.314 0 .55-.261.55-.55a.538.538 0 0 0-.55-.55m6.992-4.321c-.706 0-1.387.21-1.964.55-.524.34-.969.76-1.283 1.283-.314-.523-.76-.943-1.283-1.283a3.808 3.808 0 0 0-1.965-.55.571.571 0 0 0-.55.55c0 .314.262.576.55.576 1.493 0 2.698 1.205 2.698 2.67 0 .316.262.551.55.551.314 0 .55-.235.55-.55 0-1.466 1.204-2.671 2.697-2.671.289 0 .55-.262.55-.576a.571.571 0 0 0-.55-.55m-83.387-5.762a3.73 3.73 0 0 0-1.939.55c-.524.314-.968.76-1.283 1.283a4.27 4.27 0 0 0-1.283-1.283 3.888 3.888 0 0 0-1.965-.55.537.537 0 0 0-.55.55c0 .314.236.55.55.55a2.71 2.71 0 0 1 2.698 2.697c0 .289.236.55.55.55.288 0 .524-.261.524-.55a2.71 2.71 0 0 1 2.698-2.697c.314 0 .55-.236.55-.55a.537.537 0 0 0-.55-.55m32.056-32.135c1.493 0 2.698 1.205 2.698 2.671 0 .315.261.551.55.551a.537.537 0 0 0 .549-.55c0-1.467 1.205-2.672 2.698-2.672.288 0 .55-.262.55-.55a.553.553 0 0 0-.55-.55c-.708 0-1.388.184-1.964.55-.524.315-.97.733-1.284 1.257a3.681 3.681 0 0 0-1.283-1.256c-.577-.367-1.23-.551-1.964-.551a.553.553 0 0 0-.55.55c0 .288.261.55.55.55M70.02 1.157a2.694 2.694 0 0 1 2.698 2.698c0 .314.236.55.55.55.315 0 .55-.236.55-.55 0-1.493 1.206-2.698 2.672-2.698.314 0 .576-.236.576-.55 0-.288-.262-.55-.576-.55-.707 0-1.362.21-1.938.55a3.76 3.76 0 0 0-1.284 1.283A3.808 3.808 0 0 0 70.02.056a.554.554 0 0 0-.55.551c0 .314.236.55.55.55M5.516 59.48a2.694 2.694 0 0 1 2.698 2.698c0 .315.235.55.55.55a.552.552 0 0 0 .549-.55 2.694 2.694 0 0 1 2.698-2.697c.288 0 .55-.236.55-.55a.57.57 0 0 0-.55-.55 3.815 3.815 0 0 0-3.248 1.833 3.757 3.757 0 0 0-1.283-1.283 3.816 3.816 0 0 0-1.964-.55.57.57 0 0 0-.55.55c0 .314.261.55.55.55m152.686 109.552c-1.205 0-1.52-.314-1.965-.708-.523-.497-1.126-1.021-2.933-1.021-1.623 0-2.2.524-2.697.97-.445.392-.812.759-2.2.759-1.205 0-1.52-.314-1.964-.708-.525-.497-1.126-1.021-2.933-1.021-1.625 0-2.2.524-2.698.97-.446.392-.812.759-2.2.759-1.205 0-1.519-.314-1.938-.708-.524-.471-1.127-1.021-2.933-1.021-1.65 0-2.227.524-2.725.97-.418.392-.81.759-2.173.759-1.231 0-1.545-.314-1.964-.708-.524-.471-1.126-1.021-2.933-1.021-1.65 0-2.227.524-2.724.97-.42.392-.812.759-2.174.759-1.23 0-1.545-.314-1.964-.708-.524-.471-1.126-1.021-2.934-1.021-1.649 0-2.225.524-2.723.97-.419.392-.786.759-2.174.759-1.204 0-1.545-.314-1.965-.708-.523-.471-1.125-1.021-2.932-1.021-1.65 0-2.2.524-2.698.97-.445.392-.812.759-2.2.759-1.204 0-1.545-.314-1.964-.708-.524-.497-1.126-1.021-2.933-1.021-1.624 0-2.2.524-2.698.97-.445.392-.811.759-2.2.759-1.205 0-1.519-.314-1.964-.708-.524-.497-1.126-1.021-2.934-1.021-1.623 0-2.2.524-2.697.97-.445.392-.812.759-2.174.759-1.23 0-1.544-.314-1.964-.708-.524-.471-1.126-1.021-2.933-1.021-1.65 0-2.226.524-2.724.97-.418.392-.811.759-2.174.759-1.23 0-1.545-.314-1.964-.708-.523-.471-1.125-1.021-2.933-1.021-1.65 0-2.226.524-2.723.97-.42.392-.812.759-2.2.759-1.205 0-1.52-.314-1.939-.708-.523-.471-1.126-1.021-2.933-1.021-1.65 0-2.226.524-2.724.97-.42.392-.812.759-2.174.759-1.204 0-1.544-.314-1.964-.708-.524-.471-1.125-1.021-2.932-1.021-1.65 0-2.201.524-2.698.97-.445.392-.812.759-2.174.759-1.23 0-1.572-.314-1.99-.708-.524-.497-1.126-1.021-2.908-1.021-1.649 0-2.226.524-2.723.97-.446.392-.812.759-2.2.759-1.205 0-1.545-.314-1.965-.708-.523-.497-1.126-1.021-2.906-1.021-1.65 0-2.227.524-2.724.97-.42.392-.812.759-2.174.759-1.23 0-1.545-.314-1.964-.708-.524-.471-1.126-1.021-2.934-1.021-1.65 0-2.225.524-2.723.97-.419.392-.811.759-2.174.759-1.23 0-1.545-.314-1.964-.708-.523-.471-1.126-1.021-2.933-1.021v1.1c1.362 0 1.755.34 2.173.733.498.471 1.074.995 2.724.995 1.807 0 2.41-.55 2.933-1.048.42-.392.734-.68 1.964-.68 1.362 0 1.755.34 2.174.733.498.471 1.074.995 2.724.995 1.807 0 2.41-.55 2.934-1.048.418-.392.732-.68 1.964-.68 1.362 0 1.728.34 2.174.733.497.471 1.073.995 2.697.995 1.807 0 2.41-.55 2.933-1.048.42-.392.76-.68 1.99-.68 1.362 0 1.729.34 2.174.733.498.471 1.074.995 2.724.995 1.781 0 2.384-.55 2.907-1.048.419-.392.76-.68 1.965-.68 1.387 0 1.754.34 2.2.733.497.471 1.073.995 2.696.995 1.808 0 2.41-.55 2.934-1.048.42-.392.733-.68 1.964-.68 1.389 0 1.755.34 2.174.733.497.471 1.074.995 2.698.995 1.833 0 2.435-.55 2.96-1.048.418-.392.732-.68 1.963-.68 1.388 0 1.755.34 2.173.733.498.471 1.075.995 2.724.995 1.807 0 2.41-.55 2.934-1.048.419-.392.733-.68 1.964-.68 1.362 0 1.755.34 2.174.733.498.471 1.073.995 2.723.995 1.782 0 2.384-.55 2.907-1.048.42-.392.76-.68 1.964-.68 1.389 0 1.756.34 2.201.733.497.471 1.074.995 2.697.995 1.807 0 2.41-.55 2.933-1.048.446-.392.76-.68 1.965-.68 1.387 0 1.754.34 2.2.733.497.471 1.073.995 2.697.995 1.833 0 2.41-.55 2.934-1.048.418-.392.76-.68 1.964-.68 1.388 0 1.754.34 2.2.733.497.471 1.073.995 2.697.995 1.807 0 2.41-.55 2.933-1.048.42-.392.734-.68 1.964-.68 1.389 0 1.756.34 2.174.733.498.471 1.074.995 2.724.995 1.807 0 2.41-.55 2.933-1.048.419-.392.734-.68 1.965-.68 1.362 0 1.754.34 2.173.733.498.471 1.074.995 2.724.995 1.808 0 2.409-.55 2.934-1.048.418-.392.732-.68 1.964-.68 1.361 0 1.755.34 2.173.733.498.471 1.074.995 2.698.995 1.807 0 2.41-.55 2.933-1.048.445-.392.76-.68 1.965-.68 1.387 0 1.754.34 2.2.733.496.471 1.073.995 2.697.995 1.806 0 2.409-.55 2.933-1.048.445-.392.76-.68 1.964-.68 1.389 0 1.754.34 2.2.733.498.471 1.074.995 2.698.995 1.807 0 2.41-.55 2.933-1.048.419-.392.76-.68 1.938-.68v-1.1c-1.624 0-2.174.524-2.697.97-.42.392-.787.759-2.174.759m0 6.023c-1.205 0-1.52-.314-1.965-.707-.523-.498-1.126-1.048-2.933-1.048-1.623 0-2.2.524-2.697.995-.445.42-.839.76-2.2.76-1.205 0-1.52-.314-1.964-.707-.525-.498-1.126-1.048-2.933-1.048-1.625 0-2.2.524-2.698.995-.446.42-.812.76-2.2.76-1.205 0-1.519-.314-1.938-.707-.524-.498-1.127-1.048-2.933-1.048-1.65 0-2.227.524-2.725.995-.418.394-.81.76-2.173.76-1.231 0-1.545-.314-1.964-.707-.524-.498-1.126-1.048-2.933-1.048-1.65 0-2.227.524-2.724.995-.42.394-.812.76-2.174.76-1.23 0-1.545-.314-1.964-.707-.524-.498-1.126-1.048-2.934-1.048-1.649 0-2.225.524-2.723.995-.419.394-.786.76-2.174.76-1.204 0-1.545-.314-1.965-.707-.523-.498-1.125-1.048-2.932-1.048-1.65 0-2.2.524-2.698.995-.445.394-.812.76-2.2.76-1.204 0-1.545-.314-1.964-.707-.524-.498-1.126-1.048-2.933-1.048-1.624 0-2.2.524-2.698.995-.445.42-.811.76-2.2.76-1.205 0-1.519-.314-1.964-.707-.524-.498-1.126-1.048-2.934-1.048-1.623 0-2.2.524-2.697.995-.445.42-.812.76-2.174.76-1.23 0-1.544-.314-1.964-.707-.524-.498-1.126-1.048-2.933-1.048-1.65 0-2.226.524-2.724.995-.418.394-.811.76-2.174.76-1.23 0-1.545-.314-1.964-.707-.523-.498-1.125-1.048-2.933-1.048-1.65 0-2.226.524-2.723.995-.42.394-.812.76-2.2.76-1.205 0-1.52-.314-1.939-.707-.523-.498-1.126-1.048-2.933-1.048-1.65 0-2.226.524-2.724.995-.42.394-.812.76-2.174.76-1.204 0-1.544-.314-1.964-.707-.524-.498-1.125-1.048-2.932-1.048-1.65 0-2.201.524-2.698.995-.445.394-.812.76-2.174.76-1.23 0-1.572-.314-1.99-.707-.524-.498-1.126-1.048-2.908-1.048-1.649 0-2.226.524-2.723.995-.446.42-.812.76-2.2.76-1.205 0-1.545-.314-1.965-.707-.523-.498-1.126-1.048-2.906-1.048-1.65 0-2.227.524-2.724.995-.42.394-.812.76-2.174.76-1.23 0-1.545-.314-1.964-.707-.524-.498-1.126-1.048-2.934-1.048-1.65 0-2.225.524-2.723.995-.419.394-.811.76-2.174.76-1.23 0-1.545-.314-1.964-.707-.523-.498-1.126-1.048-2.933-1.048v1.1c1.362 0 1.755.34 2.173.76.498.471 1.074.995 2.724.995 1.807 0 2.41-.576 2.933-1.048.42-.392.734-.706 1.964-.706 1.362 0 1.755.34 2.174.759.498.471 1.074.995 2.724.995 1.807 0 2.41-.576 2.934-1.048.418-.392.732-.706 1.964-.706 1.362 0 1.728.34 2.174.759.497.471 1.073.995 2.697.995 1.807 0 2.41-.55 2.933-1.048.42-.392.76-.706 1.99-.706 1.362 0 1.729.34 2.174.759.498.471 1.074.995 2.724.995 1.807 0 2.384-.576 2.907-1.048.419-.392.76-.706 1.965-.706 1.387 0 1.754.34 2.2.759.497.471 1.047.995 2.696.995 1.808 0 2.41-.576 2.934-1.048.42-.392.733-.706 1.964-.706 1.362 0 1.755.34 2.174.759.497.471 1.074.995 2.698.995 1.833 0 2.435-.576 2.96-1.048.418-.392.732-.706 1.963-.706 1.388 0 1.755.34 2.173.759.498.471 1.075.995 2.724.995 1.807 0 2.41-.576 2.934-1.048.419-.392.733-.706 1.964-.706 1.362 0 1.755.34 2.174.759.498.471 1.073.995 2.723.995 1.782 0 2.384-.55 2.907-1.048.445-.392.76-.706 1.964-.706 1.389 0 1.756.34 2.201.759.497.471 1.074.995 2.697.995 1.807 0 2.41-.55 2.933-1.048.446-.392.76-.706 1.965-.706 1.387 0 1.754.34 2.2.759.497.471 1.073.995 2.697.995 1.833 0 2.41-.576 2.934-1.048.418-.392.76-.706 1.964-.706 1.388 0 1.754.34 2.2.759.497.471 1.073.995 2.697.995 1.807 0 2.41-.576 2.933-1.048.42-.392.734-.706 1.964-.706 1.389 0 1.756.34 2.174.759.498.471 1.074.995 2.724.995 1.807 0 2.41-.576 2.933-1.048.419-.392.734-.706 1.965-.706 1.362 0 1.754.34 2.173.759.498.471 1.074.995 2.724.995 1.808 0 2.409-.576 2.934-1.048.418-.392.732-.706 1.964-.706 1.361 0 1.755.34 2.173.759.498.471 1.074.995 2.698.995 1.807 0 2.41-.55 2.933-1.048.445-.392.76-.706 1.965-.706 1.387 0 1.754.34 2.2.759.496.471 1.073.995 2.697.995 1.806 0 2.409-.55 2.933-1.048.445-.392.76-.706 1.964-.706 1.389 0 1.754.34 2.2.759.498.471 1.048.995 2.698.995 1.807 0 2.435-.576 2.933-1.048.445-.392.76-.706 1.938-.706v-1.1c-1.624 0-2.174.523-2.697.994-.42.394-.787.76-2.174.76M12.01 140.852a.553.553 0 0 0-.549.55v11.105c0 .288.236.55.55.55a.57.57 0 0 0 .55-.55v-11.105a.57.57 0 0 0-.55-.55" fill="#FC833B"/></g></svg>