<svg width="166" height="173" xmlns="http://www.w3.org/2000/svg"><g fill="#ECA500" fill-rule="evenodd"><path d="M160.584 155.604H2.751V77.793a76.803 76.803 0 0 1 6.265-30.415 77.91 77.91 0 0 1 17.858-25.626l.822.851c-7.455 7.115-13.493 15.675-17.603 25.256-3.969 9.213-6.151 19.333-6.151 29.934v76.649h156.642v1.162zM37.277 13.419A77.628 77.628 0 0 1 57.8 3.667 76.267 76.267 0 0 1 80.222.322a76.646 76.646 0 0 1 34.214 8.023 78.648 78.648 0 0 1 27.326 22.535l-.935.737a76.793 76.793 0 0 0-26.901-22.195 75.707 75.707 0 0 0-33.704-7.909A75.82 75.82 0 0 0 58.14 4.801a75.11 75.11 0 0 0-20.183 9.581l-.68-.963z"/><path d="M60.465 109.882a28.868 28.868 0 0 1-.312-2.75 30.785 30.785 0 0 1-.114-2.778c0-10.006 4.082-19.077 10.659-25.654a36.34 36.34 0 0 1 25.71-10.601 36.34 36.34 0 0 1 25.71 10.601c6.605 6.577 10.658 15.648 10.658 25.654 0 .907-.028 1.786-.085 2.693-.085.907-.17 1.814-.311 2.693l-1.163-.17a38.44 38.44 0 0 0 .284-2.608c.056-.851.113-1.729.113-2.608 0-9.695-3.94-18.454-10.318-24.803a35.136 35.136 0 0 0-24.888-10.262A35.136 35.136 0 0 0 71.52 79.551c-6.35 6.349-10.29 15.108-10.29 24.803 0 .907.028 1.814.085 2.693.085.879.17 1.786.312 2.664l-1.162.171"/><path d="M96.238 72.011c.51 4.62 1.049 10.119 1.417 16.441.397 6.293.595 13.407.51 21.259l-1.19-.028a289.62 289.62 0 0 0-.482-21.175c-.369-6.264-.907-11.763-1.417-16.356l1.162-.141zm-19.956 37.842a57.142 57.142 0 0 1-.142-2.409c-.028-.822-.057-1.644-.057-2.438 0-7.569 1.531-14.513 4.054-20.239 2.665-6.095 6.463-10.772 10.715-13.238l.595 1.02c-4.025 2.353-7.653 6.832-10.233 12.699-2.438 5.556-3.94 12.359-3.94 19.758 0 .85.028 1.644.057 2.381.028.794.085 1.587.141 2.381l-1.19.085zm40.082-.198a31.69 31.69 0 0 0 .17-2.296c.057-.737.057-1.503.057-2.296 0-7.654-1.616-14.655-4.479-20.268-2.892-5.641-7.002-9.921-12.019-12.189l.51-1.077c5.244 2.381 9.553 6.86 12.558 12.727 2.948 5.783 4.62 12.955 4.62 20.807 0 .765-.028 1.559-.057 2.352a31.484 31.484 0 0 1-.17 2.353l-1.19-.113z"/><path d="M117.809 98.515c-6.207.085-13.606.113-21.401.113-7.767 0-15.137-.028-21.373-.113-6.265-.057-11.112-.142-13.833-.227l.056-1.191c2.693.114 7.569.199 13.805.255 5.896.057 13.266.085 21.345.085 8.107 0 15.477-.028 21.401-.085 6.208-.056 11.084-.141 13.777-.255l.057 1.191c-2.693.085-7.569.17-13.834.227zM69.252 81.989h54.425v-1.163H69.252zm41.698-9.723c-1.531.113-3.629.227-6.152.312-2.409.056-5.159.113-8.022.113-2.919 0-5.726-.057-8.22-.142-2.551-.056-4.677-.17-6.18-.312l.114-1.162c1.53.114 3.628.227 6.123.312 2.352.057 5.159.113 8.163.113 2.948 0 5.67-.056 7.994-.113 2.438-.057 4.536-.17 6.066-.312l.114 1.191M52.783 19.655l-8.022-4.592 6.831 80.985c.454-11.99.765-23.669.964-34.157.425-21.969.368-38.721.227-42.236zm-10.347 90.227c-5.244-25.286-9.212-45.808-11.962-61.654-2.806-16.129-4.309-27.496-4.592-34.158l-.028-.595 18.368-.085c3.232 1.843 6.463 3.685 9.695 5.556l.028.312c.17 2.693.227 19.871-.199 42.633-.283 14.372-.765 30.954-1.53 47.509l-1.162-.057c.056-1.276.113-2.523.17-3.799l-7.682-90.963-16.47.056c.369 6.662 1.871 17.774 4.564 33.393 2.75 15.873 6.718 36.368 11.962 61.596l-1.162.256z"/><path d="M42.38 109.456c-2.467-11.905-4.593-22.28-6.322-31.096a1208.642 1208.642 0 0 1-3.061-16.015c-.057 7.37-.028 14.513.057 21.458.113 8.901.368 17.461.708 25.682l-1.19.028a892.333 892.333 0 0 1-.681-25.682c-.141-8.901-.141-18.17-.028-27.779l.085-6.378 1.106 6.264c1.02 5.925 2.409 13.323 4.166 22.195 1.758 8.93 3.884 19.304 6.322 31.097l-1.162.226"/><path d="M51.139 110.137l-12.898-20.41 9.921-15.08-16.186-17.943 13.55-12.303-17.858-15.477L43.655 13.56l.822.851-15.052 14.456 17.887 15.506-13.663 12.416 16.016 17.744L39.63 89.727l12.529 19.786-1.02.624M.087 154.442h3.855v1.162l-3.855.029v-1.191m138.614.652h21.203v-97.2h-21.203v97.2zm-.596-98.39h22.989v98.9H137.51v-98.9h.595zm11.254-41.868h-.057a.646.646 0 0 0-.34.17.597.597 0 0 0-.142.368c0 .142.029.256.114.341.085.085.198.17.34.17h.113c.142 0 .256-.085.341-.17a.47.47 0 0 0 .141-.341.596.596 0 0 0-.141-.368.74.74 0 0 0-.369-.17c-.028 0 0 0 0 0zm-.028 3.656l-.114.142c-.708.851-1.814 2.155-1.871 2.863-.028.51.171.822.397 1.162.34.539.737 1.134.737 2.353.029 1.021.029 1.333.029 1.333v.226l-.17.17a68.93 68.93 0 0 0-3.317 3.855h8.617a58.432 58.432 0 0 0-3.316-3.855l-.17-.17v-.226s0-.312.028-1.333c0-1.219.397-1.814.737-2.353.227-.34.425-.652.397-1.162-.057-.708-1.134-2.012-1.871-2.863l-.113-.142zm.595-12.472v.851c0 .736 0 1.814.028 2.976 0 1.389.029 2.891.029 3.94.226.113.425.255.595.425.283.312.453.709.453 1.162 0 .426-.17.822-.425 1.134-.17.17-.34.312-.567.397l.029.624c.085.113.17.227.283.34.822.992 2.069 2.466 2.126 3.572.057.878-.227 1.332-.567 1.842-.255.425-.538.879-.567 1.758v1.077a63.402 63.402 0 0 1 3.317 3.883c.312.369.51.624.652.766l.992 1.02h-13.947l.993-1.02c.141-.142.34-.397.652-.766a62.918 62.918 0 0 1 3.316-3.883v-1.077c-.028-.879-.312-1.333-.567-1.758-.34-.51-.623-.964-.567-1.842.085-1.106 1.304-2.58 2.126-3.572.114-.113.199-.227.312-.34v-.624c-.227-.085-.397-.227-.567-.397a1.806 1.806 0 0 1-.425-1.134c0-.453.17-.85.453-1.162.171-.17.369-.312.596-.425.028-1.049.028-2.551.056-3.94V6.02h1.191z"/><path d="M146.269 6.389c.057 1.02.766 1.389 1.503 1.785.963.539 1.956 1.049 2.126 2.608l-1.163.142c-.113-.935-.822-1.332-1.53-1.701-1.021-.567-2.041-1.105-2.098-2.778l1.162-.056"/><path d="M153.526 6.445c-.057 1.673-1.077 2.211-2.098 2.778-.708.369-1.417.766-1.53 1.701l-1.163-.142c.17-1.559 1.163-2.069 2.126-2.608.737-.396 1.446-.765 1.503-1.785l1.162.056m-11.962 27.099h15.534v-1.757h-15.534v1.757zm-.596-2.948h17.32v4.139h-17.886v-4.139h.566z"/><path d="M144.03 47.293h1.927V34.82h-1.927v12.473zm-.595-13.663h3.713v14.853h-4.309V33.63h.596zm9.269 13.663h1.927V34.82h-1.927v12.473zm-.595-13.663h3.713v14.853h-4.309V33.63h.596z"/><path d="M156.417 48.483h-14.173v2.381c.028.51.142.936.284 1.247.085.171.141.284.17.284h13.266c.028 0 .085-.113.17-.284.142-.311.255-.737.283-1.247v-2.381zm-14.768-1.19h15.959v3.628c-.057.68-.199 1.275-.425 1.729-.284.567-.709.907-1.219.907h-13.266c-.511 0-.936-.34-1.219-.907-.227-.454-.369-1.049-.397-1.729 0-1.219-.028-2.41-.028-3.628h.595z"/><path d="M140.288 56.675l18 .057c-.113-.057-.227-.142-.312-.199-1.219-.765-2.069-1.785-2.267-2.919-1.446-.029-5.783-.057-12.785-.057-.226 1.106-1.077 2.126-2.267 2.92-.142.056-.255.142-.369.198zm22.507 1.247l-27.014-.085h-.198v-1.162c1.7 0 3.288-.482 4.422-1.219 1.105-.68 1.786-1.587 1.786-2.494v-.595h.595c9.071 0 13.833.056 13.861.056l.567.029v.566c0 .936.709 1.843 1.786 2.523 1.162.709 2.721 1.191 4.422 1.191v1.19h-.227zM46.121 150.899h-.028v4.11h4.337v-4.11h-.624v-1.247a1.638 1.638 0 0 0-.482-1.049 1.598 1.598 0 0 0-1.077-.425c-.425 0-.793.17-1.077.453a1.501 1.501 0 0 0-.453 1.077v1.191h-.596zm-.623-1.191h.028c0-.737.312-1.417.822-1.899a2.589 2.589 0 0 1 1.899-.794c.737 0 1.389.284 1.899.737.341.341.624.794.737 1.276h.085v.68h.624v5.84h-6.69v-5.84h.596zm13.493 1.191h-.029v4.11h4.337v-4.11h-.623v-1.247a1.583 1.583 0 0 0-.482-1.049 1.6 1.6 0 0 0-1.077-.425c-.426 0-.794.17-1.078.453a1.501 1.501 0 0 0-.453 1.077v1.191h-.595zm-.624-1.191h.028c0-.737.312-1.417.822-1.899a2.59 2.59 0 0 1 1.9-.794c.737 0 1.388.284 1.899.737.34.341.623.794.737 1.276h.085v.68h.623v5.84h-6.689v-5.84h.595zm13.493 1.191h-.029v4.11h4.337v-4.11h-.623v-1.247a1.643 1.643 0 0 0-.482-1.049 1.598 1.598 0 0 0-1.077-.425 1.5 1.5 0 0 0-1.077.453 1.498 1.498 0 0 0-.454 1.077v1.191h-.595zm-.624-1.191h.029c0-.737.311-1.417.822-1.899.481-.51 1.162-.794 1.899-.794.737 0 1.389.284 1.899.737.34.341.624.794.737 1.276h.085v.68h.624v5.84h-6.69v-5.84h.595zm13.521 1.191h-.056v4.11h4.337v-4.11h-.624v-1.247a1.574 1.574 0 0 0-.482-1.049 1.598 1.598 0 0 0-1.077-.425 1.5 1.5 0 0 0-1.077.453 1.498 1.498 0 0 0-.454 1.077v1.191h-.567zm-.652-1.191h.029c0-.737.312-1.417.822-1.899a2.589 2.589 0 0 1 1.899-.794c.737 0 1.417.284 1.899.737.34.341.624.794.737 1.276h.085v.68h.624v5.84h-6.69v-5.84h.595zm13.522 1.191h-.057v4.11h4.337v-4.11h-.624v-1.247a1.642 1.642 0 0 0-.481-1.049 1.6 1.6 0 0 0-1.078-.425c-.425 0-.793.17-1.077.453a1.501 1.501 0 0 0-.453 1.077v1.191h-.567zm-.652-1.191h.028c0-.737.312-1.417.822-1.899a2.589 2.589 0 0 1 1.899-.794c.737 0 1.418.284 1.9.737.34.341.623.794.737 1.276h.085v.68h.623v5.84H96.38v-5.84h.595zm13.521 1.191h-.057v4.11h4.337v-4.11h-.623v-1.247a1.583 1.583 0 0 0-.482-1.049 1.6 1.6 0 0 0-1.077-.425c-.426 0-.794.17-1.077.453a1.498 1.498 0 0 0-.454 1.077v1.191h-.567zm-.652-1.191h.028c0-.737.312-1.417.822-1.899a2.59 2.59 0 0 1 1.9-.794c.737 0 1.417.284 1.899.737.34.341.624.794.737 1.276h.085v.68h.624v5.84h-6.69v-5.84h.595zm13.521 1.191h-.056v4.11h4.337v-4.11h-.624v-1.247a1.574 1.574 0 0 0-.482-1.049 1.598 1.598 0 0 0-1.077-.425 1.5 1.5 0 0 0-1.077.453 1.498 1.498 0 0 0-.454 1.077v1.191h-.567zm-.652-1.191h.029c.028-.737.312-1.417.822-1.899a2.589 2.589 0 0 1 1.899-.794c.737 0 1.417.284 1.899.737.369.341.624.794.737 1.276h.085v.68h.624v5.84h-6.69v-5.84h.595zm-89.461 1.191h-.028v4.11h4.337v-4.11h-.624v-1.247a1.574 1.574 0 0 0-.482-1.049 1.598 1.598 0 0 0-1.077-.425 1.5 1.5 0 0 0-1.077.453 1.498 1.498 0 0 0-.454 1.077v1.191h-.595zm-.624-1.191h.029c0-.737.312-1.417.793-1.899a2.703 2.703 0 0 1 1.928-.794c.737 0 1.389.284 1.899.737.34.341.624.794.737 1.276h.085v.68h.624v5.84h-6.69v-5.84h.595zm-12.132-40.649h118.091v11.736H24.181v-1.191h113.244v-9.382H20.496v-1.163"/><path d="M13.948 154.952v-37.247h10.913v37.247h-1.19v-36.085h-8.532v36.085h-1.191"/><path d="M6.833 155.094h7.115v-34.271H6.833v34.271zm-.595-35.461h8.901v35.319H5.643v-35.319h.595z"/><path d="M5.643 119.633c1.445-.851 1.218-1.191.963-1.588-.283-.425-.567-.85-.538-1.502.028-1.389.85-1.843 1.672-2.268.34-.198.709-.368.907-.652-.085-.113-.141-.227-.227-.368a2.215 2.215 0 0 1-.17-.879c0-.595.227-1.106.624-1.502a2.14 2.14 0 0 1 1.531-.624c.595 0 1.105.227 1.502.624.397.396.652.907.652 1.502 0 .312-.085.624-.198.879a1.624 1.624 0 0 1-.227.368c.227.284.567.454.907.652.822.425 1.644.879 1.701 2.268 0 .652-.284 1.077-.539 1.502-.227.34-.425.624.199 1.106l-.709.907c-1.474-1.134-1.021-1.843-.482-2.665.17-.255.369-.538.34-.822 0-.708-.538-.992-1.077-1.275-.652-.341-1.304-.681-1.587-1.588l-.142-.368.312-.255c.085-.085.17-.199.226-.312a.923.923 0 0 0-.198-1.049.99.99 0 0 0-.68-.283c-.284 0-.511.113-.709.283a.898.898 0 0 0-.255.652c0 .142.028.283.057.397a.875.875 0 0 0 .255.312l.283.255-.113.368c-.312.907-.964 1.247-1.616 1.588-.538.283-1.049.567-1.077 1.275 0 .284.17.567.368.822.624.964 1.163 1.786-1.36 3.26l-.595-1.02m12.585-12.388v-6.066h7.37v8.447h-1.19v-7.256h-4.989v4.875h-1.191"/><path d="M25.202 102.313c-.851-.255-1.361-.595-1.673-.992-.34-.425-.453-.85-.51-1.332-.085-.879.255-1.815.624-2.778.68-1.815 1.417-3.799-1.758-5.074-3.175 1.275-2.438 3.259-1.757 5.074.368.935.708 1.87.623 2.721-.028.482-.142.935-.482 1.389-.34.397-.85.737-1.7.992l-.312-1.134c.567-.17.907-.368 1.077-.595.17-.199.227-.454.255-.737.028-.624-.255-1.418-.567-2.24-.879-2.352-1.871-4.96 2.665-6.661l.198-.057.198.057c4.536 1.701 3.544 4.309 2.665 6.661-.312.851-.624 1.645-.567 2.24.057.283.085.538.255.737.17.227.51.425 1.077.595l-.311 1.134"/><path d="M21.346 91.598h1.163V82.3h-1.163z"/><path d="M25.202 81.28c-.199.51-.567.964-1.021 1.247a2.587 2.587 0 0 1-1.531.482 2.718 2.718 0 0 1-1.927-.794 2.742 2.742 0 0 1-.822-1.956c0-.538.17-1.02.425-1.445.283-.454.68-.794 1.134-1.021l.51 1.078a1.555 1.555 0 0 0-.652.566 1.55 1.55 0 0 0-.227.822c0 .426.17.822.454 1.106.283.283.68.454 1.105.454.341 0 .624-.086.879-.256s.454-.425.567-.708l1.106.425m131.244-6.208h1.19v-2.636h-1.19v2.636zm-15.449 0h1.19v-2.636h-1.19v2.636zm7.71 8.277h1.191v-2.636h-1.191v2.636zm-.992-21.6a1.906 1.906 0 0 0-.595-.085c-.227 0-.426.029-.567.085v5.556h1.162v-5.556zm4.365 0a1.901 1.901 0 0 0-.595-.085c-.227 0-.425.029-.567.085v5.556h1.162v-5.556zm-.595-1.275c.397 0 .737.085 1.02.17.454.141.737.453.737.85v7.002h-3.514v-7.002c0-.397.283-.709.737-.85.283-.085.652-.17 1.02-.17zm-4.365 0c.397 0 .737.085 1.02.17.454.141.737.453.737.85v7.002h-3.515v-7.002c0-.397.284-.709.737-.85a3.66 3.66 0 0 1 1.021-.17zm1.587 43.256h1.191v-6.434h-1.191v6.434zM14.005 117.705c1.786-1.077 1.502-1.559 1.134-2.098-.284-.481-.624-1.02-.596-1.757.057-1.587.992-2.098 1.956-2.636.567-.312 1.134-.624 1.304-1.304 0-.028-.028-.057-.028-.085a1.84 1.84 0 0 1-.255-.539 2.399 2.399 0 0 1-.114-.652c0-.567.227-1.077.596-1.445a1.945 1.945 0 0 1 1.445-.624 1.95 1.95 0 0 1 1.446.624c.34.368.567.878.567 1.445a2.4 2.4 0 0 1-.085.652c-.085.199-.17.397-.284.539 0 .028-.028.057-.028.085.17.68.765.992 1.332 1.304.936.538 1.899 1.049 1.928 2.636.028.737-.284 1.276-.595 1.757-.341.539-.624 1.021 1.133 2.098l-.623.992c-2.778-1.7-2.211-2.608-1.503-3.713.199-.34.426-.709.426-1.106-.029-.907-.681-1.275-1.333-1.615-.907-.511-1.842-.993-1.984-2.495l-.028-.34.227-.142v-.028l.056-.057c.057-.085.114-.17.142-.255.028-.113.028-.198.028-.312 0-.255-.085-.482-.226-.652-.171-.141-.369-.255-.596-.255a.887.887 0 0 0-.595.255.898.898 0 0 0-.255.652c0 .114.028.199.057.312.028.085.056.17.113.255l.057.057v.028l.226.142-.028.34c-.142 1.502-1.049 1.984-1.984 2.495-.652.34-1.276.708-1.304 1.615-.028.397.198.766.425 1.106.68 1.105 1.247 2.013-1.531 3.713l-.623-.992m18 12.104l-3.203.028v-.907c-.029-.567-.029-1.162.226-1.7.142-.312.34-.596.596-.794.255-.199.567-.34.935-.454l.142-.028.17.028c.368.114.652.255.907.454.255.198.453.453.595.765.255.539.227 1.134.227 1.701v.907h-.595zm-2.041-1.162l1.445-.028c0-.341 0-.681-.113-.936a1.756 1.756 0 0 0-.255-.34 1.875 1.875 0 0 0-.34-.17c-.114.057-.227.113-.34.198a.767.767 0 0 0-.255.34c-.114.256-.142.596-.142.936zm10.063 1.162l-3.203.028v-.907c-.029-.567-.029-1.162.226-1.7.142-.312.341-.596.596-.794.255-.199.567-.34.935-.454l.142-.028.17.028c.368.114.652.255.907.454.255.198.425.453.567.765.283.539.255 1.134.255 1.701v.907h-.595zm-2.041-1.162l1.446-.028c0-.341 0-.681-.114-.936a1.756 1.756 0 0 0-.255-.34 1.875 1.875 0 0 0-.34-.17c-.114.057-.227.113-.34.198a.767.767 0 0 0-.255.34c-.114.256-.142.596-.142.936zm10.063 1.162l-3.203.028v-.907c-.029-.567-.029-1.162.226-1.7.142-.312.341-.596.596-.794.255-.199.567-.34.935-.454l.142-.028.17.028c.368.114.652.255.907.454.255.198.425.453.567.765.255.539.255 1.134.255 1.701v.907h-.595zm-2.041-1.162l1.446-.028c0-.341 0-.681-.142-.936a1.021 1.021 0 0 0-.227-.34 1.875 1.875 0 0 0-.34-.17.981.981 0 0 0-.34.198.767.767 0 0 0-.255.34c-.114.256-.142.596-.142.936zm12.075 1.162l-3.231.028v-.907c0-.567-.028-1.162.255-1.7.142-.312.34-.596.595-.794.255-.199.567-.34.907-.454l.171-.028.141.028c.369.114.681.255.907.454.255.198.454.453.596.765.255.539.255 1.134.226 1.701v.907h-.567zm-2.04-1.162l1.445-.028c0-.341-.028-.681-.142-.936a.762.762 0 0 0-.255-.34 1.547 1.547 0 0 0-.311-.17.987.987 0 0 0-.341.198 1.146 1.146 0 0 0-.283.34c-.113.256-.113.596-.113.936zm9.269 1.162l-3.203.028v-.907c-.029-.567-.029-1.162.226-1.7.142-.312.341-.596.596-.794.255-.199.567-.34.935-.454l.142-.028.17.028c.34.114.652.255.907.454.255.198.425.453.567.765.255.539.255 1.134.255 1.701v.907h-.595zm-2.041-1.162l1.446-.028c0-.341 0-.681-.142-.936a1.021 1.021 0 0 0-.227-.34 1.875 1.875 0 0 0-.34-.17.981.981 0 0 0-.34.198.767.767 0 0 0-.255.34c-.114.256-.142.596-.142.936zm11.65 1.02l-3.231.029v-.907c0-.567 0-1.163.255-1.701.142-.312.34-.595.595-.794.255-.198.567-.34.936-.453l.141-.029.17.029c.341.113.652.255.879.453.255.199.454.454.595.765.256.539.256 1.134.227 1.701v.907h-.567zm-2.041-1.162l1.446-.028c0-.34 0-.681-.142-.936a.767.767 0 0 0-.255-.34 1.531 1.531 0 0 0-.312-.17.976.976 0 0 0-.34.199.777.777 0 0 0-.255.34c-.142.255-.142.595-.142.935zm10.063 1.162l-3.231.029v-.907c0-.567-.029-1.163.255-1.701.142-.312.34-.595.595-.794.255-.198.567-.34.907-.453l.17-.029.142.029c.369.113.68.255.907.453.255.199.454.454.595.765.256.539.256 1.134.227 1.701v.907h-.567zm-2.041-1.162l1.446-.028c0-.34-.028-.681-.142-.936a.767.767 0 0 0-.255-.34 1.531 1.531 0 0 0-.312-.17.976.976 0 0 0-.34.199 1.134 1.134 0 0 0-.283.34c-.114.255-.114.595-.114.935zm10.035 1.162l-3.203.029v-.907c0-.567-.028-1.163.227-1.701.17-.312.368-.595.623-.794.255-.198.539-.34.907-.453l.17-.029.142.029c.369.113.68.255.907.453.255.199.454.454.596.765.255.539.255 1.134.226 1.701v.907h-.595zm-2.013-1.162l1.446-.028c0-.34-.028-.681-.142-.936a.767.767 0 0 0-.255-.34c-.085-.057-.198-.113-.312-.17a.976.976 0 0 0-.34.199 1.134 1.134 0 0 0-.283.34c-.114.255-.114.595-.114.935zm15.534 1.446l-3.203.028v-.879c0-.567-.028-1.162.227-1.729.17-.312.368-.567.623-.765.256-.198.539-.369.908-.454l.17-.056.141.056c.369.085.681.227.907.426.256.226.454.453.596.765.255.567.255 1.162.227 1.729v.879h-.596zm-2.012-1.162h1.445c0-.341-.028-.681-.141-.936a.771.771 0 0 0-.256-.34.672.672 0 0 0-.311-.17c-.142.028-.255.113-.341.17-.113.085-.198.227-.283.369-.113.226-.113.566-.113.907zm9.354 1.162l-3.203.028v-.879c-.029-.567-.029-1.162.227-1.729.141-.312.34-.567.595-.765a2.41 2.41 0 0 1 .935-.454l.142-.056.17.056c.369.085.652.227.907.426.255.226.454.453.595.765.256.567.227 1.162.227 1.729v.879h-.595zm-2.041-1.162h1.446c.028-.341 0-.681-.114-.936-.085-.142-.141-.255-.255-.34a.643.643 0 0 0-.34-.17c-.113.028-.227.113-.34.17a.86.86 0 0 0-.255.369c-.114.226-.142.566-.142.907zm9.383 1.162l-3.203.028v-.595c0-.199-.029-.255-.029-.284 0-.567 0-1.162.255-1.729.142-.312.34-.567.596-.765a2.41 2.41 0 0 1 .935-.454l.142-.056.17.056c.34.085.652.227.879.426.283.226.453.453.595.765.255.567.255 1.162.255 1.729-.028.057-.028.113-.028.312v.567h-.567zm-2.041-1.162h1.445c0-.341 0-.681-.141-.936a1.021 1.021 0 0 0-.227-.34.643.643 0 0 0-.34-.17c-.142.028-.255.113-.34.17a.862.862 0 0 0-.256.369c-.141.226-.141.566-.141.907zm8.787 1.133l-3.203.029v-.907c0-.539-.028-1.134.227-1.701.142-.312.34-.567.623-.765.256-.199.539-.369.908-.454l.17-.057.141.057c.369.085.652.227.907.425a2 2 0 0 1 .596.766c.255.567.255 1.162.226 1.729v.878h-.595zm-2.041-1.162h1.474c0-.34-.028-.68-.141-.935a.771.771 0 0 0-.256-.34.672.672 0 0 0-.311-.17c-.142.028-.256.113-.341.17a1.07 1.07 0 0 0-.283.34c-.113.255-.142.595-.142.935zm9.383 1.162l-3.203.029v-.907c-.029-.539-.029-1.134.227-1.701.141-.312.34-.567.595-.765.255-.199.567-.369.935-.454l.142-.057.17.057c.369.085.652.227.907.425.255.199.425.454.567.766.284.567.255 1.162.255 1.729v.878h-.595zm-2.041-1.162h1.446c0-.34 0-.68-.114-.935a1.756 1.756 0 0 0-.255-.34.643.643 0 0 0-.34-.17c-.113.028-.227.113-.34.17a.955.955 0 0 0-.255.34c-.114.255-.142.595-.142.935zM29.964 141.941h1.049v-6.548h-1.049v6.548zm-.596-7.738h2.807v8.929h-3.373v-8.929h.566zm13.295 7.738h1.049v-6.548h-1.049v6.548zm-.567-7.738h2.806v8.929h-3.401v-8.929h.595zm13.295 7.738h1.02v-6.548h-1.02v6.548zm-.596-7.738h2.807v8.929H54.2v-8.929h.595zm13.295 7.738h1.02v-6.548h-1.02v6.548zm-.596-7.738h2.807v8.929h-3.402v-8.929h.595zm13.295 7.738h1.02v-6.548h-1.02v6.548zm-.595-7.738H83v8.929h-3.402v-8.929h.596zm13.294 7.738h1.049v-6.548h-1.049v6.548zm-.595-7.738h2.806v8.929h-3.373v-8.929h.567zm13.294 7.738h1.049v-6.548h-1.049v6.548zm-.567-7.738h2.807v8.929h-3.402v-8.929h.595zm13.295 7.738h1.02v-6.548h-1.02v6.548zm-.595-7.738h2.806v8.929h-3.402v-8.929h.596zm13.294 7.738h1.021v-6.548h-1.021v6.548zm-.595-7.738h2.806v8.929h-3.401v-8.929h.595zM104.203 32.496c.227.17.425.368.624.538a24.7 24.7 0 0 1-.794-2.324c-.567-1.928-.935-4.025-.737-5.925.17-1.502.652-2.891 1.644-3.968-.765.34-1.446.794-1.984 1.361-1.219 1.218-1.928 2.863-1.928 4.733v.199c.029 2.664 1.616 4.025 3.175 5.386zm2.438 6.548c.057-2.835-1.559-4.252-3.203-5.641-1.786-1.531-3.572-3.062-3.6-6.293v-.199c.028-2.182.85-4.138 2.267-5.555 1.418-1.418 3.402-2.297 5.726-2.325h.227v.595l.142.567c-.595.17-1.077.426-1.531.709-1.389.907-2.012 2.353-2.182 3.997-.199 1.729.141 3.685.68 5.471.624 2.211 1.587 4.167 2.268 5.187l-.312.199c.453.907.708 1.984.68 3.344l-1.162-.056z"/><path d="M110.553 33.715c.453-.426.907-.822 1.389-1.248 1.587-1.36 3.175-2.721 3.203-5.386v-.255c-.057-1.842-.794-3.486-2.013-4.648a6.927 6.927 0 0 0-2.466-1.531c3.175 3.26 1.247 9.099-.113 13.068zm-2.211 5.357c-.029-1.332.226-2.381.652-3.26l-.34-.113c.17-.595.425-1.332.708-2.126 1.474-4.309 3.855-11.225-1.531-13.38l.227-.567-.028-.595h.283a8.211 8.211 0 0 1 5.641 2.296 7.795 7.795 0 0 1 2.353 5.499v.255c-.028 3.232-1.814 4.763-3.6 6.293-1.616 1.389-3.26 2.807-3.175 5.67l-1.19.028z"/><path d="M109.164 40.745v-.539h-2.126v.539c0 .028.028.056.056.085.029 0 .057.028.086.028h1.87c.029 0 .057-.028.085-.028.029-.029.029-.057.029-.085zm1.19-1.134v1.134c0 .34-.141.68-.368.907h-.029a1.284 1.284 0 0 1-.907.396h-1.87c-.369 0-.681-.17-.936-.396a1.31 1.31 0 0 1-.368-.907v-1.73h4.478v.596zm-3.911-4.139c.566-.142 1.105-.227 1.644-.198.567 0 1.105.085 1.615.255l-.34 1.105c-.425-.113-.85-.198-1.275-.198-.426 0-.879.057-1.333.198l-.311-1.162m-34.612 18.85a3.988 3.988 0 0 0 2.835 1.191h17.008a3.145 3.145 0 0 0 2.183-.992 3.148 3.148 0 0 0 .907-2.239c0-.624-.199-1.219-.51-1.73-.341-.51-.794-.935-1.361-1.19l-.425-.199.085-.453c.028-.085.028-.17.028-.255.028-.057.028-.17.028-.255a2.96 2.96 0 0 0-.878-2.098 2.937 2.937 0 0 0-2.07-.85c-.311 0-.595.028-.85.113-.283.085-.539.227-.794.368l-.453.312-.34-.425a4.249 4.249 0 0 0-1.446-1.191 4.384 4.384 0 0 0-1.843-.396c-.198 0-.368 0-.567.028-.17.028-.368.057-.538.113l-.539.142-.17-.51a5.307 5.307 0 0 0-1.871-2.495 5.003 5.003 0 0 0-2.948-.935c-1.36 0-2.551.51-3.486 1.361a5.145 5.145 0 0 0-1.616 3.344l-.028.539h-.539c-.368.028-.709.17-.935.425a1.352 1.352 0 0 0-.397.964c0 .284.085.567.227.765.141.227.368.426.623.511l.68.283-.425.624a3.841 3.841 0 0 0-.538 1.077 3.542 3.542 0 0 0-.199 1.219 4.03 4.03 0 0 0 1.162 2.834zm2.835 2.353a5.168 5.168 0 0 1-3.657-1.502 5.207 5.207 0 0 1-1.53-3.685c0-.539.085-1.049.255-1.559.085-.312.227-.596.368-.879a2.422 2.422 0 0 1-.567-.624 2.608 2.608 0 0 1-.425-1.417c0-.68.284-1.332.737-1.786.312-.34.766-.595 1.247-.708.199-1.446.908-2.693 1.928-3.657 1.134-1.021 2.636-1.673 4.28-1.673 1.333 0 2.608.426 3.629 1.163a6.223 6.223 0 0 1 2.097 2.579c.057 0 .142-.028.199-.028.255-.028.482-.057.708-.057.851 0 1.644.199 2.353.539.567.283 1.106.652 1.531 1.105.198-.085.425-.17.652-.255.368-.113.765-.17 1.19-.17 1.134 0 2.155.454 2.92 1.219a4.086 4.086 0 0 1 1.191 2.92v.283c.595.369 1.105.85 1.474 1.446.453.68.708 1.474.708 2.353 0 1.19-.482 2.267-1.247 3.061a4.253 4.253 0 0 1-2.466 1.276v.056H74.666zM9.271 171.45c2.749 0 3.572-.765 4.394-1.531.935-.907 1.87-1.786 4.762-1.786 3.231 0 4.223.936 5.216 1.871.765.737 1.53 1.446 3.968 1.446 2.778 0 3.6-.765 4.394-1.531.964-.907 1.899-1.786 4.79-1.786 3.232 0 4.224.936 5.216 1.871.765.737 1.531 1.446 3.969 1.446 2.749 0 3.571-.765 4.393-1.531.936-.907 1.871-1.786 4.762-1.786 3.232 0 4.224.936 5.216 1.871.766.737 1.531 1.446 3.969 1.446 2.749 0 3.6-.765 4.393-1.531.964-.907 1.871-1.786 4.791-1.786 3.231 0 4.224.936 5.187 1.871.794.737 1.559 1.446 3.997 1.446 2.75 0 3.572-.765 4.394-1.531.935-.907 1.871-1.786 4.762-1.786 3.232 0 4.224.936 5.216 1.871.765.737 1.531 1.446 3.968 1.446 2.75 0 3.6-.765 4.394-1.531.964-.907 1.871-1.786 4.791-1.786 3.231 0 4.223.936 5.187 1.871.794.737 1.559 1.446 3.997 1.446 2.749 0 3.571-.765 4.394-1.531.935-.907 1.87-1.786 4.762-1.786v1.191c-2.438 0-3.175.709-3.969 1.446-.964.935-1.984 1.871-5.187 1.871-2.92 0-3.855-.879-4.791-1.786-.822-.766-1.644-1.531-4.393-1.531-2.438 0-3.204.709-3.969 1.446-.992.935-1.984 1.871-5.216 1.871-2.891 0-3.826-.879-4.79-1.786-.794-.766-1.616-1.531-4.394-1.531-2.438 0-3.175.709-3.968 1.446-.964.935-1.985 1.871-5.188 1.871-2.92 0-3.855-.879-4.79-1.786-.822-.766-1.644-1.531-4.394-1.531-2.438 0-3.203.709-3.969 1.446-.992.935-1.984 1.871-5.215 1.871-2.892 0-3.827-.879-4.791-1.786-.794-.766-1.616-1.531-4.394-1.531-2.437 0-3.174.709-3.968 1.446-.964.935-1.984 1.871-5.187 1.871-2.92 0-3.856-.879-4.791-1.786-.822-.766-1.644-1.531-4.394-1.531-2.438 0-3.203.709-3.968 1.446-.992.935-1.984 1.871-5.216 1.871-2.891 0-3.827-.879-4.791-1.786-.793-.766-1.615-1.531-4.393-1.531-2.438 0-3.175.709-3.969 1.446-.964.935-1.984 1.871-5.187 1.871-2.92 0-3.855-.879-4.791-1.786-.822-.766-1.644-1.531-4.393-1.531v-1.191c3.231 0 4.223.936 5.215 1.871.766.737 1.531 1.446 3.969 1.446zm146.834 0c2.75 0 3.572-.765 4.394-1.531.936-.907 1.871-1.786 4.762-1.786v1.191c-2.437 0-3.174.709-3.968 1.446-.964.935-1.984 1.871-5.188 1.871-2.919 0-3.855-.879-4.79-1.786-.822-.766-1.644-1.531-4.394-1.531-2.438 0-3.203.709-3.968 1.446-.992.935-1.985 1.871-5.216 1.871-2.891 0-3.827-.879-4.791-1.786-.793-.766-1.615-1.531-4.393-1.531v-1.191c3.231 0 4.223.936 5.215 1.871.766.737 1.531 1.446 3.969 1.446 2.75 0 3.6-.765 4.394-1.531.963-.907 1.871-1.786 4.79-1.786 3.232 0 4.224.936 5.188 1.871.793.737 1.559 1.446 3.996 1.446zm-18.368-9.439c2.75 0 3.6-.794 4.394-1.559.963-.879 1.871-1.758 4.79-1.758 3.232 0 4.224.936 5.188 1.871.793.737 1.559 1.446 3.996 1.446 2.75 0 3.572-.794 4.394-1.559.936-.879 1.871-1.758 4.762-1.758v1.191c-2.437 0-3.174.708-3.968 1.445-.964.907-1.984 1.871-5.188 1.871-2.919 0-3.855-.879-4.79-1.786-.822-.765-1.644-1.53-4.394-1.53-2.438 0-3.203.708-3.968 1.445-.992.907-1.985 1.871-5.216 1.871-2.891 0-3.827-.879-4.791-1.786-.793-.765-1.615-1.53-4.393-1.53v-1.191c3.231 0 4.223.936 5.215 1.871.766.737 1.531 1.446 3.969 1.446zm-55.049 0c2.75 0 3.572-.794 4.394-1.559.935-.879 1.871-1.758 4.762-1.758 3.232 0 4.224.936 5.216 1.871.765.737 1.531 1.446 3.968 1.446 2.75 0 3.6-.794 4.394-1.559.964-.879 1.871-1.758 4.791-1.758 3.231 0 4.223.936 5.187 1.871.794.737 1.559 1.446 3.997 1.446 2.749 0 3.571-.794 4.394-1.559.935-.879 1.87-1.758 4.762-1.758v1.191c-2.438 0-3.175.708-3.969 1.445-.964.907-1.984 1.871-5.187 1.871-2.92 0-3.855-.879-4.791-1.786-.822-.765-1.644-1.53-4.393-1.53-2.438 0-3.204.708-3.969 1.445-.992.907-1.984 1.871-5.216 1.871-2.891 0-3.826-.879-4.79-1.786-.794-.765-1.616-1.53-4.394-1.53-2.438 0-3.175.708-3.968 1.445-.964.907-1.985 1.871-5.188 1.871-2.92 0-3.855-.879-4.79-1.786-.822-.765-1.644-1.53-4.394-1.53-2.438 0-3.203.708-3.969 1.445-.992.907-1.984 1.871-5.215 1.871-2.892 0-3.827-.879-4.791-1.786-.794-.765-1.616-1.53-4.394-1.53-2.437 0-3.174.708-3.968 1.445-.964.907-1.984 1.871-5.187 1.871-2.92 0-3.856-.879-4.791-1.786-.822-.765-1.644-1.53-4.394-1.53-2.438 0-3.203.708-3.968 1.445-.992.907-1.984 1.871-5.216 1.871-2.891 0-3.827-.879-4.791-1.786-.793-.765-1.615-1.53-4.393-1.53-2.438 0-3.175.708-3.969 1.445-.964.907-1.984 1.871-5.187 1.871-2.92 0-3.855-.879-4.791-1.786-.822-.765-1.644-1.53-4.393-1.53v-1.191c3.231 0 4.223.936 5.215 1.871.766.737 1.531 1.446 3.969 1.446 2.749 0 3.572-.794 4.394-1.559.935-.879 1.87-1.758 4.762-1.758 3.231 0 4.223.936 5.216 1.871.765.737 1.53 1.446 3.968 1.446 2.778 0 3.6-.794 4.394-1.559.964-.879 1.899-1.758 4.79-1.758 3.232 0 4.224.936 5.216 1.871.765.737 1.531 1.446 3.969 1.446 2.749 0 3.571-.794 4.393-1.559.936-.879 1.871-1.758 4.762-1.758 3.232 0 4.224.936 5.216 1.871.766.737 1.531 1.446 3.969 1.446 2.749 0 3.6-.794 4.393-1.559.964-.879 1.871-1.758 4.791-1.758 3.231 0 4.224.936 5.187 1.871.794.737 1.559 1.446 3.997 1.446zm78.01-6.407h4.62v-1.162h-4.62z"/></g></svg>