<svg width="167" height="173" xmlns="http://www.w3.org/2000/svg"><g fill="#0C67AC" fill-rule="evenodd"><path d="M154.709 154.946H3.48V77.589A76.37 76.37 0 0 1 9.603 47.57v3.146C6.4 59.078 4.671 68.121 4.671 77.589v76.195h150.038v1.162zM80.526.543c21.175 0 40.422 8.674 54.397 22.649 9.241 9.241 16.157 20.806 19.786 33.704V61.8c-3.118-14.542-10.432-27.61-20.637-37.786-13.748-13.748-32.711-22.281-53.546-22.281-20.296 0-38.778 8.051-52.413 21.147v-1.616C41.861 8.423 60.315.543 80.526.543z"/><path d="M.362 154.946h166.167v-1.162H.362zm135.156-19.871h4.762V54.826h-4.762v80.249zm-.595-81.439h6.548v82.601h-7.143V53.636h.595zM35.03 84.987a47.315 47.315 0 0 1 12.217-21.288c8.504-8.476 20.211-13.72 33.166-13.72a46.765 46.765 0 0 1 33.165 13.72c8.504 8.504 13.748 20.211 13.748 33.165 0 9.383-2.806 18.142-7.597 25.512-4.932 7.625-11.99 13.748-20.296 17.49l-.482-1.077c8.107-3.629 14.995-9.61 19.814-17.037 4.649-7.2 7.37-15.732 7.37-24.888 0-12.614-5.102-24.038-13.379-32.315-8.277-8.277-19.701-13.408-32.343-13.408-12.615 0-24.038 5.131-32.315 13.408-7.03 7.002-11.792 16.299-13.068 26.674v-6.236zm26.362 54.765a47.255 47.255 0 0 1-20.324-17.348 47.196 47.196 0 0 1-6.038-13.634v-6.237a45.567 45.567 0 0 0 7.03 19.219 45.667 45.667 0 0 0 19.814 16.923l-.482 1.077zm33.704 1.644c-2.324.737-4.819 1.361-7.342 1.758a45.263 45.263 0 0 1-7.341.624c-1.928 0-3.827-.114-5.698-.341a53.075 53.075 0 0 1-5.613-1.048l.284-1.134c1.786.453 3.6.794 5.471 1.02 1.814.199 3.685.312 5.556.312 2.409 0 4.79-.198 7.143-.567a52.363 52.363 0 0 0 7.2-1.757l.34 1.133z"/><path d="M82.198 100.918l15.081 53.291-1.134.312-15.052-53.263c.397-.057.765-.17 1.105-.34zm-18.567 53.291l15.052-53.263c.369.142.737.255 1.134.312l-15.08 53.263-1.106-.312zM82 17.126a4.448 4.448 0 0 0-1.389-.227 4.725 4.725 0 0 0-3.09 1.162 4.675 4.675 0 0 0-1.53 2.92l-.114.765-.709-.283a3.93 3.93 0 0 0-.822-.256 4.664 4.664 0 0 0-.878-.085 4.673 4.673 0 0 0-3.317 1.389 4.648 4.648 0 0 0-1.36 3.289c0 1.275.538 2.437 1.36 3.288a4.648 4.648 0 0 0 3.317 1.36h21.571v-.028l.624.028h.198a3.937 3.937 0 0 0 2.722-1.105 3.883 3.883 0 0 0 1.105-2.721c0-.539-.113-1.049-.312-1.503a3.384 3.384 0 0 0-.907-1.275l-.255-.227.085-.34c.085-.312.142-.595.17-.907.029-.312.057-.624.057-.936 0-2.154-.85-4.082-2.268-5.471a7.69 7.69 0 0 0-5.442-2.267 7.666 7.666 0 0 0-3.855 1.02 7.763 7.763 0 0 0-2.835 2.835l-.34.567-.51-.369A4.432 4.432 0 0 0 82 17.126zm-1.389-1.389a5.8 5.8 0 0 1 1.729.255c.397.113.737.283 1.077.482a8.838 8.838 0 0 1 2.948-2.75 8.785 8.785 0 0 1 4.451-1.191c2.438 0 4.677.993 6.293 2.608a8.917 8.917 0 0 1 2.608 6.293c0 .34-.029.709-.086 1.049-.028.255-.056.51-.113.737.397.425.709.907.936 1.417.255.624.396 1.304.396 1.985a4.966 4.966 0 0 1-1.445 3.543 5.02 5.02 0 0 1-3.203 1.446v.028H73.468a5.758 5.758 0 0 1-4.139-1.729 5.782 5.782 0 0 1-1.701-4.11c0-1.616.652-3.062 1.701-4.139a5.85 5.85 0 0 1 4.139-1.701c.368 0 .737.029 1.077.114.142.028.283.056.397.085.283-1.162.935-2.183 1.814-2.977a5.788 5.788 0 0 1 3.855-1.445z"/><path d="M108.306 69a39.31 39.31 0 0 0-27.893-11.537c-10.885 0-20.75 4.393-27.865 11.537-7.143 7.143-11.565 16.979-11.565 27.864 0 10.885 4.422 20.75 11.565 27.893 7.115 7.115 16.98 11.537 27.865 11.537 10.885 0 20.749-4.422 27.893-11.537 7.114-7.143 11.536-17.008 11.536-27.893 0-10.885-4.422-20.721-11.536-27.864zM80.413 56.272a40.373 40.373 0 0 1 28.715 11.906c7.341 7.341 11.877 17.489 11.877 28.686a40.468 40.468 0 0 1-11.877 28.715c-7.342 7.342-17.49 11.906-28.715 11.906-11.197 0-21.345-4.564-28.687-11.906A40.373 40.373 0 0 1 39.82 96.864c0-11.197 4.536-21.345 11.906-28.686 7.342-7.37 17.49-11.906 28.687-11.906z"/><path d="M82.567 94.965a2.95 2.95 0 0 0-2.154-.907c-.822 0-1.588.34-2.126.907a2.933 2.933 0 0 0-.907 2.126c0 .85.34 1.616.907 2.154.538.567 1.304.879 2.126.879.85 0 1.615-.312 2.154-.879a3.042 3.042 0 0 0 0-4.28zm-2.154-2.069c1.162 0 2.211.482 2.976 1.219a4.2 4.2 0 0 1 1.247 2.976 4.151 4.151 0 0 1-1.247 2.976 4.197 4.197 0 0 1-2.976 1.248 4.2 4.2 0 0 1-2.977-1.248c-.765-.737-1.219-1.814-1.219-2.976s.454-2.211 1.219-2.976a4.298 4.298 0 0 1 2.977-1.219zm-2.467-53.603l-.963-.624 3.174-4.932.993.623-3.204 4.933zm7.824 0l-.992-.624 3.203-4.932.992.623-3.203 4.933zm7.824 0l-.992-.624 3.203-4.932.963.623-3.174 4.933zm-23.443 0l-.992-.624 3.203-4.932.964.623-3.175 4.933zm15.137 100.601c-12.274 1.814-22.535 3.487-30.756 5.074-8.249 1.559-14.485 3.005-18.737 4.309l-.34-1.106c4.28-1.332 10.573-2.806 18.851-4.365 6.462-1.219 14.144-2.523 23.045-3.884H35.625v-1.19h49.578v.595l.085.567m48.898-85.805l3.005-11.537h1.332l3.26 12.274h-7.796l.199-.737zm3.656-9.467l-2.352 9.042h4.762l-2.41-9.042zm3.629 20.239h12.047v-2.665h-12.047v2.665zm-.595-3.855h13.833v5.046H140.28v-5.046h.596zm14.229-6.18h3.686v-1.19h-3.686z"/><path d="M154.709 135.075h4.762V54.826h-4.762v80.249zm-.596-81.439h6.548v82.601h-7.143V53.636h.595z"/><path d="M153.376 54.089l3.005-11.537h1.332l3.26 12.274h-7.795l.198-.737zm3.657-9.467l-2.353 9.042h4.763l-2.41-9.042zm-7.71 85.266c.397.425.652.907.68 1.531v4.875h-5.017v-4.875a2.21 2.21 0 0 1 .737-1.588c.397-.368.964-.652 1.587-.879l.17-.056.199.056c.623.199 1.219.511 1.644.936zm-.51 1.531c0-.256-.114-.482-.341-.709-.226-.227-.595-.425-.963-.567-.397.142-.737.34-.992.567-.199.198-.341.425-.341.709v3.713h2.637v-3.713z"/><path d="M129.225 153.784h36.539v-17.433h-36.539v17.433zm-.595-18.595h38.324v19.757h-38.919v-19.757h.595z"/><path d="M135.518 135.075h4.762V54.826h-4.762v80.249zm-.595-81.439h6.548v82.601h-7.143V53.636h.595zm-124.64 100.12h24.548V71.891H10.283v81.865zm-.566-83.027h26.305v84.189H9.121V70.729h.596z"/><path d="M34.831 71.891H10.283l.029 81.893h24.519V71.891zM9.717 70.729h26.305c-.028 28.063 0 56.154 0 84.217H9.121V70.729h.596z"/><path d="M10.283 91.819h24.548V71.891H10.283v19.928zm-.566-21.09h26.305v22.28H9.121v-22.28h.596zm.566 58.592h24.548v-18.425H10.283v18.425zm-.566-19.588h26.305v20.778H9.121v-20.778h.596zm24.122-71.348l-5.584-9.042c-1.729-.028-3.628-.028-5.698-.028-2.069 0-3.94 0-5.697.028l-5.556 9.042v.086h22.535v-.086zm-4.762-9.921l5.925 9.61v1.559H10.113v-1.559c2.041-3.289 4.082-6.605 6.095-9.893h.34c2.239-.029 4.224-.029 6.009-.029 1.786 0 3.799 0 6.038.029h.312l.17.283z"/><path d="M17.739 28.152h9.666v-6.463h-9.666v6.463zm-.596-7.653h11.424v8.816H16.576v-8.816h.567z"/><path d="M16.576 20.867L21.537.004h1.672l5.216 21.572H16.406l.17-.709zm5.783-19.332L17.88 20.414h9.071L22.359 1.535zM11.871 44.65h21.401v-5.017H11.871v5.017zm-.595-6.179h23.159v7.37H10.68v-7.37h.596z"/><path d="M9.405 70.729h26.22V45.841H9.405v24.888zM8.809 44.65h28.007v27.241H8.214V44.65h.595z"/><path d="M15.414 63.756h14.202V49.072H15.414v14.684zm-.595-15.874h15.987v17.064H14.224V47.882h.595z"/><path d="M26.498 52.275c-1.021-1.049-2.438-1.701-3.969-1.701a5.568 5.568 0 0 0-3.997 1.701 5.95 5.95 0 0 0-1.672 4.139c0 1.615.652 3.09 1.672 4.138a5.568 5.568 0 0 0 3.997 1.701c1.531 0 2.948-.652 3.969-1.701a5.947 5.947 0 0 0 1.672-4.138 5.95 5.95 0 0 0-1.672-4.139zm-3.969-2.863c1.871 0 3.572.794 4.819 2.041a7.18 7.18 0 0 1 1.984 4.961 7.178 7.178 0 0 1-1.984 4.96c-1.247 1.276-2.948 2.07-4.819 2.07-1.899 0-3.6-.794-4.847-2.07a7.178 7.178 0 0 1-1.984-4.96 7.18 7.18 0 0 1 1.984-4.961c1.247-1.247 2.948-2.041 4.847-2.041z"/><path d="M23.011 58.341l-4.054-3.061.709-.935 4.054 3.061-.709.935"/><path d="M22.104 57.519l1.757-2.069.879.737-1.729 2.098-.907-.766M18.872 44.99h1.191v-3.798h-1.191v3.798zm3.119 0h1.162v-3.798h-1.162v3.798zm3.089 0h1.163v-3.798H25.08v3.798zm3.09 0h1.191v-3.798H28.17v3.798zm-12.387 0h1.162v-3.798h-1.162v3.798zm2.891 25.937h1.162v-3.798h-1.162v3.798zm3.09 0h1.19v-3.798h-1.19v3.798zm3.118 0h1.162v-3.798h-1.162v3.798zm3.09 0h1.19v-3.798h-1.19v3.798zm-12.388 0h1.162v-3.798h-1.162v3.798zm3.288 21.175h1.191V75.689h-1.191v16.413zm6.208 0h1.163V75.689H25.08v16.413zm3.09 0h1.191V75.689H28.17v16.413zm-12.387 0h1.162V75.689h-1.162v16.413zm3.089 18.17h1.191v-9.156h-1.191v9.156zm6.208 0h1.163v-9.156H25.08v9.156zm3.09 0h1.191v-9.156H28.17v9.156zm-12.387 0h1.162v-9.156h-1.162v9.156zm3.089 19.332h1.191v-9.156h-1.191v9.156zm6.208 0h1.163v-9.156H25.08v9.156zm3.09 0h1.191v-9.156H28.17v9.156zm-12.387 0h1.162v-9.156h-1.162v9.156zm3.089 19.333h1.191v-9.128h-1.191v9.128zm6.208 0h1.163v-9.128H25.08v9.128zm3.09 0h1.191v-9.128H28.17v9.128zm-12.387 0h1.162v-9.128h-1.162v9.128zm77.045-9.015a756.15 756.15 0 0 1 17.972 2.949c7.285 1.303 13.266 2.522 17.972 3.685l-.284 1.133c-4.649-1.133-10.601-2.352-17.886-3.656-7.285-1.304-15.846-2.693-25.682-4.139l.085-.567v-.595h43.625v1.19H92.828m47.906-78.548l5.868-14.796h1.672l6.321 15.618h-14.173l.312-.822zm6.661-13.606l-5.272 13.238h10.715l-5.358-13.238h-.085zM123.839 33.17a4.434 4.434 0 0 1 2.296-.652c1.248 0 2.382.51 3.204 1.332a4.521 4.521 0 0 1 1.332 3.203c0 1.247-.51 2.381-1.332 3.203a4.523 4.523 0 0 1-3.204 1.333h-4.422a3.6 3.6 0 0 1-2.551-1.049 3.6 3.6 0 0 1-1.049-2.551 3.583 3.583 0 0 1 3.6-3.572c.17 0 .369.028.567.057l.114.028a4.971 4.971 0 0 1 1.445-1.332zm2.296.538c-.623 0-1.218.17-1.7.454a3.368 3.368 0 0 0-1.248 1.275l-.226.454-.482-.17c-.114-.028-.255-.085-.369-.085-.142-.029-.255-.029-.397-.029a2.374 2.374 0 0 0-2.409 2.382c0 .68.255 1.275.709 1.7.425.454 1.02.709 1.7.709h4.422c.936 0 1.758-.369 2.382-.964a3.411 3.411 0 0 0 .963-2.381c0-.935-.368-1.757-.963-2.381a3.416 3.416 0 0 0-2.382-.964zm9.383 44.844h23.953v-12.5h-23.953v12.5zm-.595-13.691h25.738v14.854h-26.333V64.861h.595zm.595 49.181h23.953V98.055h-23.953v15.987zm-.595-17.178h25.738v18.34h-26.333v-18.34h.595zm-58.451-.623l-34.299-9.156.312-1.134 34.271 9.156-.284 1.134zm4.337-3.26l9.27-34.441 1.134.312-9.27 34.412-1.134-.283zm3.742 4.223l34.243 9.128-.312 1.134-34.214-9.128.283-1.134zm-7.994 1.134l-34.185 9.128-.284-1.134 34.158-9.128.311 1.134zm2.353-5.045l-9.297-34.526 1.133-.312 9.298 34.554-1.134.284zm5.159 1.814l34.299-9.156.312 1.134-34.299 9.156-.312-1.134zm-6.321 5.074l-24.973 24.888-.822-.822L76.926 99.33l.822.851zm-.425-5.726l-25.257-25.2.822-.822 25.285 25.171-.85.851zm5.357-.851l25.229-25.143.85.822-25.257 25.172-.822-.851zm1.276 5.783l25.03 24.945-.822.822-25.03-24.945.822-.822zM9.603 171.756c2.778 0 3.6-.879 4.422-1.73.964-1.02 1.899-2.012 4.847-2.012 3.26 0 4.281 1.077 5.273 2.126.765.822 1.531 1.616 3.968 1.616 2.778 0 3.6-.879 4.422-1.73.964-1.02 1.9-2.012 4.848-2.012 3.26 0 4.28 1.077 5.272 2.126.765.822 1.531 1.616 3.969 1.616 2.778 0 3.6-.879 4.422-1.73.963-1.02 1.899-2.012 4.847-2.012 3.26 0 4.28 1.077 5.272 2.126.766.822 1.531 1.616 3.969 1.616 2.778 0 3.6-.879 4.422-1.73.964-1.02 1.899-2.012 4.847-2.012 3.26 0 4.28 1.077 5.273 2.126.765.822 1.53 1.616 3.968 1.616 2.778 0 3.6-.879 4.422-1.73.964-1.02 1.899-2.012 4.847-2.012 3.26 0 4.281 1.077 5.273 2.126.765.822 1.531 1.616 3.968 1.616 2.778 0 3.6-.879 4.422-1.73.964-1.02 1.9-2.012 4.848-2.012 3.259 0 4.28 1.077 5.272 2.126.765.822 1.531 1.616 3.969 1.616 2.778 0 3.6-.879 4.422-1.73.963-1.02 1.899-2.012 4.847-2.012v1.19c-2.438 0-3.203.822-3.997 1.644-.992 1.021-1.984 2.098-5.272 2.098-2.948 0-3.884-.992-4.848-2.012-.793-.851-1.644-1.73-4.393-1.73-2.438 0-3.204.822-3.997 1.644-.992 1.021-1.984 2.098-5.273 2.098-2.948 0-3.883-.992-4.847-2.012-.794-.851-1.644-1.73-4.394-1.73-2.437 0-3.203.822-3.996 1.644-.993 1.021-1.985 2.098-5.273 2.098-2.948 0-3.883-.992-4.847-2.012-.794-.851-1.644-1.73-4.394-1.73-2.438 0-3.203.822-3.997 1.644-.992 1.021-1.984 2.098-5.272 2.098-2.948 0-3.884-.992-4.847-2.012-.794-.851-1.644-1.73-4.394-1.73-2.438 0-3.203.822-3.997 1.644-.992 1.021-1.984 2.098-5.272 2.098-2.948 0-3.884-.992-4.848-2.012-.793-.851-1.644-1.73-4.393-1.73-2.438 0-3.203.822-3.997 1.644-.992 1.021-1.984 2.098-5.273 2.098-2.948 0-3.883-.992-4.847-2.012-.794-.851-1.644-1.73-4.394-1.73-2.437 0-3.203.822-3.996 1.644-.993 1.021-1.985 2.098-5.273 2.098-2.948 0-3.883-.992-4.847-2.012-.794-.851-1.644-1.73-4.394-1.73v-1.19c3.26 0 4.281 1.077 5.273 2.126.765.822 1.53 1.616 3.968 1.616zm148.082 0c2.778 0 3.6-.879 4.422-1.73.964-1.02 1.899-2.012 4.847-2.012v1.19c-2.437 0-3.203.822-3.997 1.644-.992 1.021-1.984 2.098-5.272 2.098-2.92 0-3.883-.992-4.819-2.012-.822-.851-1.672-1.73-4.422-1.73-2.438 0-3.203.822-3.997 1.644-.992 1.021-1.984 2.098-5.272 2.098-2.948 0-3.884-.992-4.819-2.012-.822-.851-1.673-1.73-4.422-1.73v-1.19c3.26 0 4.28 1.077 5.272 2.126.766.822 1.531 1.616 3.969 1.616 2.778 0 3.6-.879 4.422-1.73.964-1.02 1.899-2.012 4.847-2.012 3.26 0 4.28 1.077 5.273 2.126.765.822 1.53 1.616 3.968 1.616zm-18.51-9.723c2.778 0 3.6-.879 4.422-1.729.964-1.021 1.899-2.013 4.847-2.013 3.26 0 4.28 1.049 5.273 2.098.765.822 1.53 1.644 3.968 1.644 2.778 0 3.6-.879 4.422-1.729.964-1.021 1.899-2.013 4.847-2.013v1.19c-2.437 0-3.203.794-3.997 1.616-.992 1.049-1.984 2.126-5.272 2.126-2.92 0-3.883-.992-4.819-2.012-.822-.851-1.672-1.73-4.422-1.73-2.438 0-3.203.794-3.997 1.616-.992 1.049-1.984 2.126-5.272 2.126-2.948 0-3.884-.992-4.819-2.012-.822-.851-1.673-1.73-4.422-1.73v-1.19c3.26 0 4.28 1.049 5.272 2.098.766.822 1.531 1.644 3.969 1.644zm-55.531 0c2.778 0 3.6-.879 4.422-1.729.964-1.021 1.899-2.013 4.847-2.013 3.26 0 4.281 1.049 5.273 2.098.765.822 1.531 1.644 3.968 1.644 2.778 0 3.6-.879 4.422-1.729.964-1.021 1.9-2.013 4.848-2.013 3.259 0 4.28 1.049 5.272 2.098.765.822 1.531 1.644 3.969 1.644 2.778 0 3.6-.879 4.422-1.729.963-1.021 1.899-2.013 4.847-2.013v1.19c-2.438 0-3.203.794-3.997 1.616-.992 1.049-1.984 2.126-5.272 2.126-2.948 0-3.884-.992-4.848-2.012-.793-.851-1.644-1.73-4.393-1.73-2.438 0-3.204.794-3.997 1.616-.992 1.049-1.984 2.126-5.273 2.126-2.948 0-3.883-.992-4.847-2.012-.794-.851-1.644-1.73-4.394-1.73-2.437 0-3.203.794-3.996 1.616-.993 1.049-1.985 2.126-5.273 2.126-2.948 0-3.883-.992-4.847-2.012-.794-.851-1.644-1.73-4.394-1.73-2.438 0-3.203.794-3.997 1.616-.992 1.049-1.984 2.126-5.272 2.126-2.948 0-3.884-.992-4.847-2.012-.794-.851-1.644-1.73-4.394-1.73-2.438 0-3.203.794-3.997 1.616-.992 1.049-1.984 2.126-5.272 2.126-2.948 0-3.884-.992-4.848-2.012-.793-.851-1.644-1.73-4.393-1.73-2.438 0-3.203.794-3.997 1.616-.992 1.049-1.984 2.126-5.273 2.126-2.948 0-3.883-.992-4.847-2.012-.794-.851-1.644-1.73-4.394-1.73-2.437 0-3.203.794-3.996 1.616-.993 1.049-1.985 2.126-5.273 2.126-2.948 0-3.883-.992-4.847-2.012-.794-.851-1.644-1.73-4.394-1.73v-1.19c3.26 0 4.281 1.049 5.273 2.098.765.822 1.53 1.644 3.968 1.644 2.778 0 3.6-.879 4.422-1.729.964-1.021 1.899-2.013 4.847-2.013 3.26 0 4.281 1.049 5.273 2.098.765.822 1.531 1.644 3.968 1.644 2.778 0 3.6-.879 4.422-1.729.964-1.021 1.9-2.013 4.848-2.013 3.26 0 4.28 1.049 5.272 2.098.765.822 1.531 1.644 3.969 1.644 2.778 0 3.6-.879 4.422-1.729.963-1.021 1.899-2.013 4.847-2.013 3.26 0 4.28 1.049 5.272 2.098.766.822 1.531 1.644 3.969 1.644 2.778 0 3.6-.879 4.422-1.729.964-1.021 1.899-2.013 4.847-2.013 3.26 0 4.28 1.049 5.273 2.098.765.822 1.53 1.644 3.968 1.644z"/></g></svg>