<svg width="165" height="198" xmlns="http://www.w3.org/2000/svg"><g fill="#FF5B54" fill-rule="evenodd"><path d="M156.364 111.252c0 5.938-.026 12.533-.078 19.444v.709c0 .316.262.552.551.552a.533.533 0 0 0 .552-.525c.053-7.2.078-14.032.078-20.18 0-39.757-32.345-72.55-72.102-73.1a.539.539 0 0 0-.551.55c0 .29.236.552.551.552.132 0 .29.027.447.027 38.942.762 70.552 32.95 70.552 71.97m-145.098.001v13.82a.54.54 0 0 0 .553.552.539.539 0 0 0 .551-.551v-13.821c0-1.577.08-3.128.158-4.678l12.403-.026 6.07-.027c.183 0 .315-.052.42-.183a.566.566 0 0 0 .131-.447 4.474 4.474 0 0 0-3.573-3.68 4.24 4.24 0 0 0-1.814.08c-.893-1.708-2.785-2.733-4.756-2.338a6.193 6.193 0 0 0-6.174-5.729c-.29 0-.579.026-.841.08 6.542-27.275 28.614-48.77 57.282-53.92.183-.026.368-.079.551-.105.316-.052.526-.342.473-.63-.052-.316-.367-.5-.656-.447-16.738 2.864-32.136 11.667-43.277 24.726a73.314 73.314 0 0 0-15.53 30.638 6.238 6.238 0 0 0-4.15 5.07 5.552 5.552 0 0 0-2.655-.681c-3.18 0-5.781 2.6-5.781 5.78 0 .499.184 1.314.21 1.418a.512.512 0 0 0 .526.421h10.038c-.08 1.55-.159 3.1-.159 4.678zm-9.511-6.517a4.688 4.688 0 0 1 4.677-4.677c1.025 0 1.997.342 2.838.998a.517.517 0 0 0 .578.053.542.542 0 0 0 .315-.5c0-.026-.026-.157-.026-.183a5.102 5.102 0 0 1 5.098-5.098c2.811 0 5.071 2.286 5.071 5.15 0 .08 0 .131-.027.184 0 .184.079.368.237.473a.616.616 0 0 0 .525.079c1.84-.71 3.652.263 4.284 1.944.131.263.42.42.709.316.394-.132.762-.21 1.13-.21 1.419 0 2.654.867 3.126 2.154l-28.43.052a4.176 4.176 0 0 1-.105-.735zm155.319 85.818c-1.21 0-1.551-.315-1.971-.71-.526-.472-1.13-1.025-2.943-1.025-1.656 0-2.207.526-2.733 1-.42.394-.815.735-2.181.735-1.209 0-1.55-.315-1.97-.71-.527-.472-1.13-1.025-2.943-1.025-1.656 0-2.208.526-2.733 1-.42.394-.815.735-2.181.735-1.209 0-1.55-.315-1.97-.71-.526-.472-1.13-1.025-2.944-1.025-1.655 0-2.207.526-2.707.973-.446.42-.813.762-2.207.762-1.208 0-1.55-.315-1.97-.71-.526-.472-1.13-1.025-2.944-1.025-1.654 0-2.207.526-2.705.973-.447.42-.815.762-2.207.762-1.21 0-1.551-.315-1.971-.71-.526-.472-1.13-1.025-2.943-1.025-1.656 0-2.207.526-2.707.973-.447.42-.815.762-2.207.762-1.209 0-1.524-.315-1.945-.71-.551-.472-1.129-1.025-2.969-1.025-1.629 0-2.207.526-2.706.973-.42.42-.815.762-2.18.762-1.21 0-1.552-.315-1.972-.71-.525-.472-1.13-1.025-2.943-1.025-1.655 0-2.207.526-2.732 1-.421.394-.815.735-2.182.735-1.208 0-1.55-.315-1.97-.71-.526-.472-1.13-1.025-2.943-1.025-1.655 0-2.208.526-2.733 1-.42.394-.814.735-2.18.735-1.21 0-1.551-.315-1.971-.71-.526-.472-1.13-1.025-2.943-1.025-1.656 0-2.207.526-2.707.973-.447.42-.815.762-2.207.762-1.209 0-1.55-.315-1.97-.71-.526-.472-1.13-1.025-2.944-1.025-1.656 0-2.207.526-2.706.973-.447.42-.815.762-2.207.762-1.209 0-1.55-.315-1.97-.71-.526-.472-1.13-1.025-2.944-1.025-1.655 0-2.207.526-2.706.973-.447.42-.815.762-2.208.762-1.208 0-1.523-.315-1.944-.71-.552-.472-1.13-1.025-2.97-1.025-1.628 0-2.207.526-2.706.973-.42.42-.814.762-2.18.762-1.21 0-1.551-.315-1.971-.71-.526-.472-1.13-1.025-2.943-1.025-1.656 0-2.207.526-2.733 1-.42.394-.815.735-2.181.735-1.209 0-1.55-.315-1.97-.71-.526-.472-1.13-1.025-2.944-1.025-1.655 0-2.207.526-2.706.973-.447.42-.815.762-2.207.762-1.209 0-1.55-.315-1.97-.71-.526-.472-1.13-1.025-2.944-1.025-1.655 0-2.207.526-2.706.973-.447.42-.815.762-2.208.762-1.208 0-1.55-.315-1.97-.71-.526-.472-1.13-1.025-2.943-1.025v1.104c1.393 0 1.76.342 2.207.736.5.473 1.05.999 2.706.999 1.814 0 2.418-.552 2.944-1.051.42-.368.762-.684 1.97-.684 1.393 0 1.76.342 2.207.736.5.473 1.052.999 2.707.999 1.812 0 2.417-.552 2.942-1.051.421-.368.762-.684 1.971-.684 1.366 0 1.761.342 2.181.736.526.473 1.077.999 2.733.999 1.813 0 2.417-.552 2.943-1.051.42-.368.762-.684 1.97-.684 1.367 0 1.761.342 2.182.736.526.473 1.077.999 2.733.999 1.813 0 2.417-.552 2.943-1.051.42-.368.735-.684 1.944-.684 1.393 0 1.787.342 2.207.736.5.473 1.077.999 2.706.999 1.814 0 2.418-.552 2.944-1.051.42-.368.762-.684 1.97-.684 1.393 0 1.76.342 2.207.736.5.473 1.052.999 2.707.999 1.812 0 2.417-.552 2.942-1.051.421-.368.762-.684 1.971-.684 1.393 0 1.761.342 2.207.736.5.473 1.051.999 2.707.999 1.813 0 2.417-.552 2.943-1.051.42-.368.762-.684 1.97-.684 1.393 0 1.761.342 2.208.736.5.473 1.051.999 2.707.999 1.813 0 2.417-.552 2.942-1.051.42-.368.763-.684 1.97-.684 1.367 0 1.762.342 2.182.736.525.473 1.077.999 2.732.999 1.814 0 2.418-.552 2.943-1.051.421-.368.762-.684 1.971-.684 1.367 0 1.76.342 2.181.736.526.473 1.078.999 2.733.999 1.813 0 2.418-.552 2.943-1.051.42-.368.735-.684 1.944-.684 1.393 0 1.787.342 2.207.736.5.473 1.078.999 2.707.999 1.813 0 2.417-.552 2.943-1.051.42-.368.762-.684 1.97-.684 1.393 0 1.761.342 2.208.736.5.473 1.051.999 2.707.999 1.813 0 2.417-.552 2.942-1.051.42-.368.762-.684 1.97-.684 1.394 0 1.762.342 2.209.736.498.473 1.05.999 2.705.999 1.813 0 2.418-.552 2.943-1.051.421-.368.762-.684 1.971-.684 1.393 0 1.76.342 2.207.736.5.473 1.051.999 2.707.999 1.813 0 2.418-.552 2.943-1.051.42-.368.762-.684 1.97-.684 1.367 0 1.761.342 2.181.736.526.473 1.078.999 2.733.999 1.813 0 2.417-.552 2.943-1.051.42-.368.762-.684 1.97-.684 1.367 0 1.761.342 2.182.736.525.473 1.077.999 2.733.999 1.813 0 2.417-.552 2.943-1.051.42-.368.735-.684 1.943-.684v-1.104c-1.628 0-2.207.526-2.705.973-.421.42-.79.762-2.181.762m0 6.044c-1.21 0-1.551-.316-1.971-.71-.526-.5-1.13-1.05-2.943-1.05-1.656 0-2.233.525-2.733.998-.42.42-.815.762-2.181.762-1.209 0-1.55-.316-1.97-.71-.527-.5-1.13-1.05-2.943-1.05-1.656 0-2.234.525-2.733.998-.42.42-.815.762-2.181.762-1.209 0-1.55-.316-1.97-.71-.526-.5-1.105-1.05-2.944-1.05-1.655 0-2.207.525-2.707.998-.446.42-.813.762-2.207.762-1.208 0-1.55-.316-1.97-.71-.526-.5-1.13-1.05-2.944-1.05-1.654 0-2.207.525-2.705.998-.447.42-.815.762-2.207.762-1.21 0-1.551-.316-1.971-.71-.526-.5-1.104-1.05-2.943-1.05-1.656 0-2.207.525-2.707.998-.447.42-.815.762-2.207.762-1.209 0-1.524-.316-1.945-.71-.525-.5-1.129-1.05-2.969-1.05-1.629 0-2.207.525-2.706.998-.42.42-.815.762-2.18.762-1.21 0-1.552-.316-1.972-.71-.525-.5-1.13-1.05-2.943-1.05-1.655 0-2.233.525-2.732.998-.421.42-.815.762-2.182.762-1.208 0-1.55-.316-1.97-.71-.526-.5-1.13-1.05-2.943-1.05-1.655 0-2.234.525-2.733.998-.42.42-.814.762-2.18.762-1.21 0-1.551-.316-1.971-.71-.526-.5-1.104-1.05-2.943-1.05-1.656 0-2.207.525-2.707.998-.447.42-.815.762-2.207.762-1.209 0-1.55-.316-1.97-.71-.526-.5-1.104-1.05-2.944-1.05-1.656 0-2.207.525-2.706.998-.447.42-.815.762-2.207.762-1.209 0-1.55-.316-1.97-.71-.526-.5-1.105-1.05-2.944-1.05-1.655 0-2.207.525-2.706.998-.447.42-.815.762-2.208.762-1.182 0-1.523-.316-1.944-.71-.526-.5-1.13-1.05-2.97-1.05-1.628 0-2.207.525-2.706.998-.42.42-.814.762-2.18.762-1.21 0-1.551-.316-1.971-.71-.526-.5-1.13-1.05-2.943-1.05-1.656 0-2.234.525-2.733.998-.42.42-.815.762-2.181.762-1.209 0-1.55-.316-1.97-.71-.526-.5-1.13-1.05-2.944-1.05-1.655 0-2.207.525-2.706.998-.447.42-.815.762-2.207.762-1.209 0-1.55-.316-1.97-.71-.526-.5-1.105-1.05-2.944-1.05-1.655 0-2.207.525-2.706.998-.447.42-.815.762-2.208.762-1.208 0-1.55-.316-1.97-.71-.526-.5-1.104-1.05-2.943-1.05v1.102c1.393 0 1.76.342 2.207.762.5.474 1.05.999 2.706.999 1.84 0 2.418-.552 2.944-1.05.42-.395.762-.71 1.97-.71 1.393 0 1.76.341 2.207.761.5.474 1.052.999 2.707.999 1.84 0 2.417-.552 2.942-1.05.421-.395.762-.71 1.971-.71 1.366 0 1.761.341 2.181.761.5.474 1.077.999 2.733.999 1.813 0 2.417-.552 2.943-1.05.42-.395.762-.71 1.97-.71 1.367 0 1.761.341 2.182.761.499.474 1.077.999 2.733.999 1.813 0 2.417-.552 2.943-1.05.42-.395.735-.71 1.944-.71 1.393 0 1.76.367 2.207.761.5.474 1.077.999 2.706.999 1.84 0 2.418-.552 2.944-1.05.42-.395.762-.71 1.97-.71 1.393 0 1.76.341 2.207.761.5.474 1.052.999 2.707.999 1.84 0 2.417-.552 2.942-1.05.421-.395.762-.71 1.971-.71 1.393 0 1.761.341 2.207.761.5.474 1.051.999 2.707.999 1.839 0 2.417-.552 2.943-1.05.42-.395.762-.71 1.97-.71 1.393 0 1.761.341 2.208.761.5.474 1.051.999 2.707.999 1.813 0 2.417-.552 2.942-1.05.42-.395.763-.71 1.97-.71 1.367 0 1.762.341 2.182.761.5.474 1.077.999 2.732.999 1.814 0 2.418-.552 2.943-1.05.421-.395.762-.71 1.971-.71 1.367 0 1.76.341 2.181.761.5.474 1.078.999 2.733.999 1.813 0 2.418-.552 2.943-1.05.42-.395.735-.71 1.944-.71 1.393 0 1.76.367 2.207.761.5.474 1.078.999 2.707.999 1.839 0 2.417-.552 2.943-1.05.42-.395.762-.71 1.97-.71 1.393 0 1.761.341 2.208.761.5.474 1.051.999 2.707.999 1.839 0 2.417-.552 2.942-1.05.42-.395.762-.71 1.97-.71 1.394 0 1.762.341 2.209.761.498.474 1.05.999 2.705.999 1.84 0 2.418-.552 2.943-1.05.421-.395.762-.71 1.971-.71 1.393 0 1.76.341 2.207.761.5.474 1.051.999 2.707.999 1.813 0 2.418-.552 2.943-1.05.42-.395.762-.71 1.97-.71 1.367 0 1.761.341 2.181.761.5.474 1.078.999 2.733.999 1.813 0 2.417-.552 2.943-1.05.42-.395.762-.71 1.97-.71 1.367 0 1.761.341 2.182.761.499.474 1.077.999 2.733.999 1.813 0 2.417-.552 2.943-1.05.42-.395.735-.71 1.943-.71v-1.104c-1.628 0-2.207.526-2.705.999-.421.42-.815.762-2.181.762"/><path d="M10.4 130.117h22.255v-.814H10.4v.814zm-.788 1.104h23.832l-.368 1.918H9.953l-.341-1.918zm41.778 30.664h1.577v-27.642H51.39v27.642zm-.63-31.768h22.256v-.814H50.76v.814zm-.788 1.104h23.832l-.342 1.918H50.34l-.368-1.918zm29.166-16.028c.027 0 .053-.027.079-.027l17.736-17.762a.539.539 0 0 0 0-.762.57.57 0 0 0-.788 0l-17.027 17.027V101.24l25.698-25.698h.63a8.512 8.512 0 0 1 8.515 8.513v39.809l-12.535 12.56V89.442a.555.555 0 0 0-.551-.551.539.539 0 0 0-.552.551v48.375c0 .053.026.079.026.131.027.08.079.131.132.184l2.969 2.969-10.826 10.826v-25.96a.555.555 0 0 0-.552-.553.573.573 0 0 0-.551.552v27.301s.026.026.026.052c0 .053 0 .106.027.158a.806.806 0 0 0 .13.184l2.76 2.759-10.169 10.169v-28.115a.54.54 0 0 0-.552-.553.555.555 0 0 0-.552.553v29.061c0 .052.026.079.026.131l-4.072 4.1-.027-56.573zm-32.95-5.807c0-3.022 2.47-5.492 5.491-5.492a5.36 5.36 0 0 1 3.337 1.156.635.635 0 0 0 .605.08c.184-.106.315-.316.289-.526 0-.053 0-.105-.026-.21 0-3.285 2.706-5.965 5.991-5.965 3.284 0 5.991 2.68 5.964 6.043 0 .079 0 .132-.026.21 0 .184.079.342.237.473a.535.535 0 0 0 .525.053c2.181-.815 4.336.315 5.097 2.312.106.289.394.42.684.316.473-.158.92-.237 1.34-.237.867 0 1.682.289 2.339.762v1.918l-31.715.053a4.529 4.529 0 0 1-.132-.946zm36.13-16.028v-5.519a.539.539 0 0 0-.552-.551.555.555 0 0 0-.552.551v3.022c-2.312-.289-4.126-2.234-4.126-4.65V74.99a.555.555 0 0 0-.551-.552.539.539 0 0 0-.552.552l-.027 3.574c-1.181-.236-2.05-1.314-2.05-2.55v-11.85c0-1.68.763-3.179 1.972-4.177v2.417a3.454 3.454 0 0 0 3.442 3.442 3.437 3.437 0 0 0 3.442-3.442V60.04c.132.078.263.184.368.316a5.321 5.321 0 0 1 1.577 3.81v9.064a2.333 2.333 0 0 0 2.312 2.313h5.36l2.47 2.418-1.603 1.602a.54.54 0 0 0 0 .762.583.583 0 0 0 .395.158c.13 0 .288-.053.394-.158l3.363-3.363 1.445-1.419h4.441L82.317 96.484v-3.126zm-7.41-63.615c0-.946.762-1.709 1.708-1.709h2.522c.946 0 1.708.763 1.708 1.709v1.208a4.228 4.228 0 0 1-4.23 4.231 1.704 1.704 0 0 1-1.708-1.708v-3.731zm9.301-11.85v.945c-.683-.341-1.602-.263-2.154.315a.745.745 0 0 1-1.051 0 1.856 1.856 0 0 0-2.601 0 .745.745 0 0 1-1.051 0 1.857 1.857 0 0 0-2.602 0 .744.744 0 0 1-1.05 0c-.553-.578-1.473-.656-2.156-.315v-.946H84.21zm-12.323 2.049a.745.745 0 0 1 1.051 0c.71.709 1.892.709 2.601 0a.745.745 0 0 1 1.052 0c.709.709 1.865.709 2.6 0a.714.714 0 0 1 1.026 0c.71.683 1.918.683 2.601 0a.745.745 0 0 1 1.051 0c.079.079.184.157.263.21-.368 1.944-2.076 3.442-4.125 3.442h-4.257c-2.05 0-3.758-1.498-4.126-3.442a1.86 1.86 0 0 0 .263-.21zm5.098 6.99h1.786v-2.235h-1.786v2.234zm22.44 24.883l2.102-2.68-1.288 3.18c-.263-.185-.525-.369-.814-.5zm3.126 2.837l3.048-1.235-2.6 2.05a8.263 8.263 0 0 0-.448-.815zm-7.515-2.654v1.813h-.157a9.39 9.39 0 0 0-1.498.264V52.34a6.85 6.85 0 0 1 1.655-.342zm2.654.29v1.76c-.447-.105-.893-.21-1.366-.237h-.184v-1.813c.525.053 1.05.132 1.55.29zm4.914 5.334a7.38 7.38 0 0 0-1.209-1.498l.026-.027v-1.156a7.483 7.483 0 0 1 1.183 2.681zm-6.99 19.549l-2.522-2.496v-3.836c.788.473 1.63.762 2.523.762.867 0 1.707-.29 2.495-.762V74.7l-2.495 2.47zm-7.199-2.733V62.614h.13c.237 0 .5-.026.737-.052-.053.84 0 1.734.183 2.6.421 1.972 1.34 3.627 2.523 4.783v4.494h-3.573zm12.244-9.511c-.683 3.205-2.811 5.57-5.044 5.57-2.26 0-4.388-2.365-5.072-5.57a7.609 7.609 0 0 1-.131-2.55 8.326 8.326 0 0 0 5.203-3.705c1.156 1.892 3.02 3.207 5.176 3.705a7.593 7.593 0 0 1-.132 2.55zm-4.546-7.673a.556.556 0 0 0-.498-.315.527.527 0 0 0-.5.315 7.246 7.246 0 0 1-6.57 4.257h-.104c.262-3.469 3.048-6.306 6.543-6.596.21-.026.393-.026.604-.026.027 0 .027 0 .027-.027.21.027.42.027.604.053a7.68 7.68 0 0 1 1.786.368c0 .026 0 .026.026.026a7.089 7.089 0 0 1 4.73 6.202h-.105c-2.811 0-5.387-1.682-6.543-4.257zm4.205-3.521v1.498c-.5-.316-1-.605-1.525-.815v-1.682a7.29 7.29 0 0 1 1.525.999zm-8.04.761c-.5.21-.947.474-1.367.762v-1.523c.42-.342.867-.684 1.367-.92v1.681zm-2.47 1.603v.079a7.634 7.634 0 0 0-1.235 1.525c.21-1 .63-1.945 1.234-2.76v1.156zm-2.497 3.049v15.292h-.29a1.223 1.223 0 0 1-1.208-1.209v-9.064a6.547 6.547 0 0 0-1.892-4.6c-.367-.34-.735-.656-1.156-.893v-6.07l4.993 3.916a7.88 7.88 0 0 0-.447 2.628zm11.903 15.292v-4.493c1.183-1.156 2.103-2.811 2.522-4.782a7.96 7.96 0 0 0 .185-2.601c.236.026.499.052.735.052h.132v11.824h-3.574zm4.65-15.555l3.26.473-3.232.473v-.683c0-.079-.027-.158-.027-.263zm-8.25-8.014h-.026c-.158 0-.341.026-.526.026l.526-3.547.5 3.547c-.158 0-.316-.026-.473-.026zm-4.65 1.445l-1.288-3.18 2.102 2.68c-.29.158-.551.316-.815.5zm-2.76 3.153l-2.6-2.05 3.047 1.235c-.157.263-.315.526-.446.815zm-11.22-19.208a5.078 5.078 0 0 0 1.787-.42v2.838h-1.786v-2.418zm1.787 3.52v.79a.885.885 0 0 1-.893.892.886.886 0 0 1-.893-.892v-.79h1.786zm-1.786 2.576a1.996 1.996 0 0 0 2.89-1.786v-.79h.604c.29 0 .552-.262.552-.55a.555.555 0 0 0-.552-.552h-.604v-3.522a5.019 5.019 0 0 0 1.787-2.496v29.745a2.343 2.343 0 0 1-2.339 2.338 2.343 2.343 0 0 1-2.338-2.338v-20.05zm51.79 59.384v3.731c0 .947-.762 1.709-1.708 1.709a4.228 4.228 0 0 1-4.23-4.231v-1.209c0-.945.762-1.707 1.707-1.707h2.523c.946 0 1.708.762 1.708 1.707zm.158-2.075a2.813 2.813 0 0 0-1.866-.736h-2.523a2.815 2.815 0 0 0-2.811 2.811v1.209a5.28 5.28 0 0 0 2.05 4.205l-4.415 6.437-4.283-2.917V96.642l6.096-8.881 10.826 7.41-3.074 4.493zm-13.848-4.993v-5.57l2.602 1.786-2.602 3.784zm17.474 15.845a9.453 9.453 0 0 0-2.155 2.628v-2.628h2.155zm5.885-17.92c1.052 0 2.47 3.258 2.707 8.67-.815-.63-1.734-.998-2.707-.998-.972 0-1.892.368-2.705.998.236-5.412 1.654-8.67 2.705-8.67zm0 8.775c2.55 0 4.757 3.574 5.072 8.04h-.841a7.76 7.76 0 0 0-2.339-.84l-1.392-4.335c-.053-.21-.263-.368-.526-.368a.571.571 0 0 0-.525.368l-1.367 4.335a9.97 9.97 0 0 0-2.338.84h-.815c.316-4.466 2.496-8.04 5.071-8.04zm8.015 9.145v2.628a9.36 9.36 0 0 0-2.128-2.628h2.128zm-8.015-2.155c-.236 0-.472.026-.709.026l.683-2.155.71 2.155c-.237 0-.447-.026-.684-.026zm-8.04 9.118c0-4.414 3.6-8.014 8.04-8.014 4.415 0 8.015 3.6 8.015 8.014v4.834a12.14 12.14 0 0 0-3.416-2.154v-4.546a.571.571 0 0 0-.368-.525.536.536 0 0 0-.63.21l-2.865 3.994c-.262-.027-.5-.027-.736-.027-.262 0-.498 0-.762.027l-2.864-3.994a.536.536 0 0 0-.63-.21.571.571 0 0 0-.368.525v4.546c-1.261.526-2.39 1.262-3.416 2.154v-4.834zm25.856 52.84h-2.68v-25.013c0-3.364-1.104-6.438-2.943-8.96h5.623v33.974zm-8.697-28.456l-1.262 1.366a7.84 7.84 0 0 0-.63-.972l1.892-.394zm1.97-.499a.604.604 0 0 0 .08-.657.564.564 0 0 0-.605-.262l-4.152.84a7.928 7.928 0 0 0-1.63-1.314l.264-4.65a.594.594 0 0 0-.368-.552.537.537 0 0 0-.605.183l-2.969 3.705a7.758 7.758 0 0 0-1.104-.078c-.472 0-.945.026-1.418.104l-2.97-3.73c-.157-.184-.42-.263-.63-.184-.237.105-.368.315-.341.551l.236 4.861c-.5.342-.946.736-1.366 1.156l-4.415-.892a.562.562 0 0 0-.604.262.6.6 0 0 0 .079.657l2.969 3.206c-.315.92-.526 1.918-.526 2.969v22.755h-5.071v-24.988c0-7.753 6.306-14.059 14.057-14.059 7.753 0 14.032 6.306 14.032 14.059v24.988h-5.072v-22.755a8.82 8.82 0 0 0-.604-3.233l2.734-2.942zm-7.252-4.388l-.106 2.417a8.778 8.778 0 0 0-1.392-.5l1.498-1.917zm-8.014 0l1.576 1.97c-.5.158-.972.369-1.445.605l-.131-2.575zm-5.255 4.887l2.154.447a10.28 10.28 0 0 0-.71 1.13l-1.444-1.577zm-8.96 29.614h3.205c-.29 3.074-2.733 5.544-5.808 5.806v-5.806h2.602zm11.876-42.016l1.472 1.577c-.394.13-.79.288-1.183.473l-.29-2.05zm6.516.683c-.236 0-.446.026-.683.026l.657-2.05.658 2.05c-.21 0-.421-.026-.632-.026zm5.913 1.209c-.368-.158-.736-.29-1.13-.42l1.419-1.472-.29 1.892zm12.454 40.124h2.602v5.806a6.4 6.4 0 0 1-5.807-5.806h3.205zm-7.33-36.525a15.664 15.664 0 0 0-4.073-3.1l.578-3.942a.55.55 0 0 0-.315-.551c-.21-.105-.474-.08-.631.104l-2.995 3.128a20.944 20.944 0 0 0-1.76-.316l-1.341-4.125c-.053-.236-.263-.394-.526-.394a.56.56 0 0 0-.525.394l-1.314 4.125c-.683.08-1.34.21-1.997.395l-3.048-3.207a.564.564 0 0 0-.656-.104c-.21.104-.343.315-.29.551l.578 4.1a15.298 15.298 0 0 0-3.757 2.942v-3.573c0-6.07 4.94-11.01 11.035-11.01 6.07 0 11.037 4.94 11.037 11.01v3.573zm-7.542-15.187c-.499-.132-.998-.236-1.497-.342l1.497-2.102v2.444zm-7.015-2.444l1.498 2.102c-.5.106-1 .21-1.498.342v-2.444zm14.557 9.04a12.353 12.353 0 0 0-1.918-2.944v-1.183h1.918v4.126zm-20.18-2.944a12.234 12.234 0 0 0-1.892 2.943v-4.126h1.892v1.183zm-6.018 21.889v25.014h-2.68v-33.974h5.623c-1.84 2.522-2.943 5.596-2.943 8.96zm1.051 26.118h5.676a.539.539 0 0 0 .551-.552V147.54c0-4.336 3.548-7.856 7.883-7.856a7.861 7.861 0 0 1 7.857 7.856v23.333c0 .315.263.552.552.552h5.65c.262 3.705 3.231 6.7 6.936 6.963v5.991h-10.011v-6.333c0-1.392-1.156-2.548-2.575-2.548a2.568 2.568 0 0 0-2.548 2.548v6.333h-3.075v-34.605a2.804 2.804 0 0 0-2.786-2.786 2.786 2.786 0 0 0-2.784 2.786v34.605h-3.233v-6.333a2.568 2.568 0 0 0-2.549-2.548c-1.418 0-2.575 1.156-2.575 2.548v6.333h-6.043a6.132 6.132 0 0 0-3.81-5.124v-.867c3.679-.289 6.648-3.258 6.884-6.963zm4.073 12.98v-6.359c0-.788.657-1.445 1.471-1.445.79 0 1.445.657 1.445 1.445v6.36h-2.916zm8.356-34.631c0-.92.736-1.683 1.681-1.683.92 0 1.682.762 1.682 1.683v34.605h-3.363v-34.605zm8.645 34.631v-6.359c0-.788.657-1.445 1.445-1.445.815 0 1.472.657 1.472 1.445v6.36h-2.917zm-25.252-.026h-47.06c.288-2.496 2.418-4.467 4.992-4.467h37.076c2.575 0 4.703 1.97 4.992 4.467zm-59.042 0h1.576v-50.135h-1.576v50.135zm-9.723.315h1.577v-18.551H51.39v18.551zm-20.942-.315h1.577v-18.236h-1.577v18.236zm-9.722 0h1.577v-50.135h-1.577v50.135zm57.335-21.389v1.182h-3.995l.21-1.182h3.785zm2.313 9.748v1.446l-1-.999 1-.998v.551zm-2.313.342c0 .053-.026.08-.026.105 0 .158.052.29.157.394l2.182 2.155v3.074h-2.287c-1.84 0-3.468.815-4.572 2.077V166.09a.55.55 0 0 0 .29-.394l.078-.42h4.178v7.803zm-9.092-10.09l.185 1.182h-5.361v-1.182h5.176zm.447-1.104h-5.623v-18.103c0-2.996 2.075-5.597 2.969-6.57.868.973 2.969 3.574 2.969 6.57v18.103h-.315zM67.13 136.03c-.21-.21-.526-.21-.762 0-.079.078-1.524 1.445-2.575 3.521v-5.308h5.938v5.308c-1.051-2.076-2.496-3.443-2.601-3.521zm3.705 30.112h1.577v16.555a5.901 5.901 0 0 0-.421 1.654h-1.156v-18.209zm1.97-1.103h-2.364l-.368-2.05h3.074l-.341 2.05zm-23.28-2.05l.184 1.182H33.706l.185-1.182h15.634zm4.546-19.207c0-2.996 2.075-5.597 2.969-6.57.867.973 2.969 3.574 2.969 6.57v18.103h-5.938v-18.103zm0-4.23v-5.309h5.938v5.308c-1.051-2.076-2.496-3.443-2.601-3.521a.54.54 0 0 0-.762 0c-.079.078-1.524 1.445-2.575 3.521zm.762 23.437h5.176v1.182h-5.387l.21-1.182zm-1.472 2.05h-2.365l-.368-2.05h3.075l-.342 2.05zm-24.778-2.05l.21 1.182h-5.387v-1.182h5.177zm3.836 2.05h-2.365l-.341-2.05h3.074l-.368 2.05zm-3.363-3.154h-5.65v-18.103c0-2.996 2.102-5.597 2.97-6.57.893.973 2.969 3.574 2.969 6.57v18.103h-.29zM26.77 136.03c-.237-.21-.552-.21-.762 0-.106.078-1.55 1.445-2.602 3.521v-5.308h5.939v5.308c-1.051-2.076-2.496-3.443-2.575-3.521zm-13.086 7.752c0-2.996 2.102-5.597 2.969-6.57.894.973 2.97 3.574 2.97 6.57v18.103h-5.94v-18.103zm0-4.23v-5.309h5.939v5.308c-1.051-2.076-2.496-3.443-2.575-3.521-.237-.21-.553-.21-.762 0-.106.078-1.55 1.445-2.602 3.521zm.762 23.437h5.177v1.182h-5.36l.183-1.182zm-1.103 0l-.368 2.05H10.61l-.342-2.05h3.075zm.34 3.101c.158-.079.29-.236.316-.394l.053-.42h5.57v19.075h-5.938v-18.26zm9.723-.815h5.571l.079.421a.55.55 0 0 0 .289.394v18.261h-5.94v-19.076zm9.723.815c.157-.079.29-.236.315-.394l.053-.42h16.422l.053.42a.585.585 0 0 0 .315.394v18.261H33.129v-18.26zm20.942 0a.552.552 0 0 0 .29-.394l.078-.42h5.57v19.075h-5.938v-18.26zm9.722-.815h5.57l.053.421a.585.585 0 0 0 .315.394v18.261h-5.938v-19.076zm48.007-30.69v44.222h-4.152v-41.62a.555.555 0 0 0-.552-.553.573.573 0 0 0-.551.552v41.621h-4.126v-29.481a.54.54 0 0 0-.552-.553.54.54 0 0 0-.551.553v29.481H97.19v-18.55a.573.573 0 0 0-.552-.552.555.555 0 0 0-.551.552v18.55h-4.152V166.51a.539.539 0 0 0-.552-.552.555.555 0 0 0-.551.552v12.297h-4.126v-6.07a.555.555 0 0 0-.552-.551.555.555 0 0 0-.551.551v6.07h-4.126v-7.803l14.189-14.19a.57.57 0 0 0 0-.788l-2.785-2.759 11.772-11.772a.535.535 0 0 0 .157-.394.58.58 0 0 0-.157-.394l-2.996-2.97 10.143-10.116v6.963zm-40.965 27.3h1.577v-27.642h-1.577v27.642zm-20.548 0h-4.31a9.536 9.536 0 0 0 4.31-4.203v4.203zm-16.843 0h-.315v-4.203a9.527 9.527 0 0 0 4.31 4.203h-3.995zm-2.996 0h1.577v-27.642h-1.577v27.642zm-19.444 0h1.577v-27.642h-1.577v27.642zm0 22.493h1.577v-18.236h-1.577v18.236zM81.819 9.588c0 1.078-.315 2.05-.841 2.839 0-.027.026-.079.026-.106 0-1.55-2.26-4.23-2.707-4.755a.585.585 0 0 0-.84 0c-.447.525-2.707 3.205-2.707 4.755 0 .027.027.079.027.106a5.091 5.091 0 0 1-.841-2.838c0-1.971 2.548-5.965 3.941-7.962 1.418 1.997 3.942 5.99 3.942 7.962zm-5.965 2.733c0-.762 1.13-2.39 2.023-3.52.92 1.13 2.023 2.758 2.023 3.52 0 1.104-.92 2.024-2.023 2.024a2.041 2.041 0 0 1-2.023-2.024zm2.207 148.96v.604h-4.546v-5.597a11.432 11.432 0 0 0 4.546 4.993zm-13.532-38.1c-.132.21-.132.499 0 .683l.525.657h-2.602v-1.97h2.602l-.525.63zM78.06.156h-.368c-.105.026-.184.104-.263.183-.184.264-4.598 6.228-4.598 9.25 0 2.706 1.63 4.966 3.81 5.597.237.078.446.157.683.183v1.42h-6.332a.555.555 0 0 0-.552.55v1.998a.7.7 0 0 1-.368-.184.574.574 0 0 0-.789 0c-.21.21-.21.552 0 .789.342.315.79.499 1.262.499.5 2.417 2.654 4.256 5.203 4.256h.13v2.339a2.822 2.822 0 0 0-2.075 2.707v3.73c0 1.288.894 2.365 2.076 2.707v2.497h-.578a.54.54 0 0 0-.552.551c0 .29.237.552.552.552h.578v18.866c-1.84 1.156-3.101 3.206-3.101 5.519v11.85c0 1.866 1.393 3.416 3.206 3.68v6.516a5.817 5.817 0 0 0 5.23 5.78v5.596l-3.023 3.022a.578.578 0 0 0-.157.394v6.044a4.817 4.817 0 0 0-3.548-.394 5.028 5.028 0 0 0-5.544-2.707 7.076 7.076 0 0 0-7.068-6.621 7.086 7.086 0 0 0-7.042 6.28 6.628 6.628 0 0 0-3.154-.815c-3.626 0-6.595 2.97-6.595 6.596 0 .551.21 1.524.236 1.63.053.236.264.42.526.42l32.189-.054.026 48.585c-2.759-1.865-4.546-4.992-4.546-8.54v-17.184h.394c.29 0 .5-.184.552-.447l.552-3.047a.552.552 0 0 0-.105-.447c-.106-.132-.263-.185-.447-.185h-.342v-1.366a.539.539 0 0 0-.551-.552H62.453v-2.575h3.705a.56.56 0 0 0 .5-.315.518.518 0 0 0-.054-.578l-.92-1.209.92-1.209a.511.511 0 0 0 .053-.577c-.079-.185-.289-.29-.5-.29h-4.256a.539.539 0 0 0-.552.552v6.201H50.21a.555.555 0 0 0-.552.552v1.366h-.342a.521.521 0 0 0-.42.185.563.563 0 0 0-.132.447l.578 3.047c.026.263.263.447.525.447h.421v18.972c0 4.729-3.837 8.592-8.592 8.592-4.73 0-8.566-3.863-8.566-8.592v-18.972h.42c.263 0 .5-.184.525-.447l.579-3.047a.57.57 0 0 0-.132-.447.521.521 0 0 0-.42-.185h-.342v-1.366a.555.555 0 0 0-.551-.552H22.066v-2.575h3.731a.59.59 0 0 0 .5-.315.578.578 0 0 0-.079-.578l-.92-1.209.92-1.209a.567.567 0 0 0 .08-.577.563.563 0 0 0-.5-.29h-4.283a.555.555 0 0 0-.553.552v6.201H9.848a.54.54 0 0 0-.552.552v1.366h-.367a.523.523 0 0 0-.421.185.549.549 0 0 0-.105.447l.551 3.047a.542.542 0 0 0 .552.447H9.9v27.642h-.288a.548.548 0 0 0-.421.21.57.57 0 0 0-.132.448l.553 3.153c.026.158.13.315.288.394v18.288H3.147v1.103H50.34a.528.528 0 0 0 .499.316h2.68c.21 0 .394-.131.499-.316h73.705c.026.027.079.027.132.027h4.02c.052 0 .105 0 .13-.027h12.693c.051.027.104.027.157.027h4.02c.053 0 .08 0 .132-.027h15.24v-1.103h-3.705v-13.506a.54.54 0 0 0-.552-.552h-2.627v-34.527a.573.573 0 0 0-.553-.551h-6.227v-13.56a.555.555 0 0 0-.552-.55h-2.47v-11.168a.54.54 0 0 0-.552-.552h-2.39c-.185-2.864-1.051-5.334-2.339-6.99-.053-5.071-1.183-10.063-3.284-10.825V75.2a.555.555 0 0 0-.553-.551.539.539 0 0 0-.551.551v16.397c-2.103.762-3.233 5.754-3.311 10.825 0 .027-.026.053-.052.053-1.262 1.656-2.103 4.1-2.26 6.937h-2.392c-.315 0-.577.237-.577.552v11.167h-2.445a.539.539 0 0 0-.551.552v13.559h-6.254a.573.573 0 0 0-.552.551v34.527h-2.601a.54.54 0 0 0-.552.552v8.067a6.036 6.036 0 0 0-1.182-.132h-2.26v-52.29l2.023-2.049a.532.532 0 0 0 .158-.394v-12.06l4.099 2.811c.106.052.21.105.315.105a.54.54 0 0 0 .447-.262l4.756-6.91c.71.34 1.524.525 2.365.525a2.815 2.815 0 0 0 2.811-2.813v-3.73c0-.395-.105-.789-.262-1.157l1.629-2.364 1.97-2.89a.465.465 0 0 0 .08-.422.581.581 0 0 0-.21-.34l-9.854-6.754-1.892-1.287c-.236-.185-.578-.106-.762.13l-2.26 3.312-3.232-2.207v-3.706c0-5.307-4.31-9.617-9.617-9.617h-1.576V60.932l7.2-1.024c.262-.053.472-.263.472-.552 0-.263-.21-.5-.473-.552l-7.331-1.051a9.405 9.405 0 0 0-.315-1.235l5.833-4.599a.544.544 0 0 0 .158-.709c-.158-.236-.447-.34-.683-.236l-6.91 2.759a5.917 5.917 0 0 0-.684-.71l2.811-7.042a.546.546 0 0 0-.236-.683.568.568 0 0 0-.71.132l-4.65 5.938a5.855 5.855 0 0 0-1.156-.341l-1.105-7.62a.544.544 0 0 0-1.077 0L94.09 50l-.158 1.052a8.687 8.687 0 0 0-1.103.315l-4.65-5.938a.568.568 0 0 0-.71-.132.545.545 0 0 0-.237.683l2.812 7.042c-.237.237-.473.447-.683.71l-6.596-2.627v-20.68c0-1.709-1.235-3.1-2.864-3.39h-.026v-2.339h.132a5.323 5.323 0 0 0 5.202-4.23c.473 0 .92-.184 1.261-.525.21-.237.21-.579 0-.789-.21-.21-.551-.21-.788 0a.62.62 0 0 1-.368.184V17.34a.555.555 0 0 0-.552-.552H78.43V15.37c.236-.026.473-.105.683-.183 2.181-.63 3.81-2.89 3.81-5.597 0-3.022-4.414-8.986-4.598-9.25a.48.48 0 0 0-.263-.183zM24.169 123.18c-.159.21-.159.499 0 .683l.498.657h-2.6v-1.97h2.6l-.498.63z"/><path d="M43.113 80.823c-.026.185-.079.368-.079.553 0 2.575 2.129 4.703 4.704 4.703 2.602 0 4.703-2.128 4.703-4.703a4.698 4.698 0 0 0-4.703-4.704c-.735 0-1.418.184-2.05.499a4.632 4.632 0 0 0-2.575 3.652zm4.625-3.048c1.997 0 3.6 1.603 3.6 3.6 0 1.971-1.603 3.6-3.6 3.6-1.97 0-3.6-1.629-3.6-3.6 0-1.997 1.63-3.6 3.6-3.6zm0-8.46c-.288 0-.552.262-.552.577v3.811c0 .288.264.552.552.552h.027a.57.57 0 0 0 .525-.552v-3.81c0-.316-.237-.578-.552-.578M43.14 75.2a.578.578 0 0 0 .447.263c.105 0 .21-.026.315-.105.262-.158.315-.499.158-.762l-2.05-3.206c-.184-.236-.525-.315-.762-.157a.554.554 0 0 0-.184.762L43.14 75.2m-6.07 1.892l3.468 1.577c.079.053.158.053.237.053.21 0 .394-.106.5-.315a.56.56 0 0 0-.263-.736l-3.495-1.577c-.263-.132-.604 0-.736.263-.106.288 0 .604.29.735m-.684 6.464h.079l3.757-.552c.315-.053.526-.315.473-.63a.542.542 0 0 0-.63-.447l-3.758.526c-.316.053-.525.315-.473.63a.545.545 0 0 0 .552.473m5.203 2.417l-2.891 2.497a.55.55 0 0 0-.053.789c.106.13.263.183.421.183a.63.63 0 0 0 .368-.132l2.864-2.496a.576.576 0 0 0 .08-.788.55.55 0 0 0-.79-.053m3.469 2.602l-1.077 3.653c-.079.315.079.604.368.683.052.026.105.026.157.026.237 0 .473-.158.526-.394l1.077-3.652c.079-.29-.079-.605-.368-.684-.29-.105-.604.08-.683.368m4.703-.368a.533.533 0 0 0-.368.684l1.052 3.652a.56.56 0 0 0 .525.394c.053 0 .105 0 .158-.026.315-.079.473-.368.394-.683l-1.077-3.653c-.08-.289-.394-.473-.684-.368m6.307 1.103a.63.63 0 0 0 .368.132.563.563 0 0 0 .42-.183.602.602 0 0 0-.052-.79l-2.89-2.496a.55.55 0 0 0-.79.053.6.6 0 0 0 .053.788l2.89 2.496m3.048-5.754c.264 0 .5-.21.553-.473.052-.315-.158-.577-.474-.63l-3.784-.526a.517.517 0 0 0-.603.447.543.543 0 0 0 .446.63l3.784.552h.078m-4.887-5.149c.08.209.29.315.5.315.079 0 .158 0 .236-.053l3.468-1.577c.29-.13.395-.447.264-.735a.53.53 0 0 0-.71-.263L54.49 77.67a.56.56 0 0 0-.263.736m.027-7.173a.572.572 0 0 0-.762.157l-2.05 3.206a.526.526 0 0 0 .159.762.397.397 0 0 0 .289.105.587.587 0 0 0 .472-.263l2.05-3.205a.525.525 0 0 0-.158-.762m37.838 51.947a.539.539 0 0 0 .552-.55v-7.306a.555.555 0 0 0-.552-.552.573.573 0 0 0-.551.552v7.305c0 .315.262.552.551.552m-3.494-25.698l-7.2 7.225a.498.498 0 0 0 0 .762.517.517 0 0 0 .368.158.53.53 0 0 0 .394-.158l7.2-7.2c.236-.209.236-.551 0-.787a.539.539 0 0 0-.762 0M76.432 67.238a.539.539 0 0 0-.552.553v3.258c0 .315.236.552.552.552a.539.539 0 0 0 .552-.552v-3.258a.539.539 0 0 0-.552-.553"/></g></svg>