<svg xmlns="http://www.w3.org/2000/svg" viewBox="0 0 500 500"><g id="freepik--background-complete--inject-46"><rect y="382.4" width="500" height="0.25" style="fill:#ebebeb"></rect><rect x="416.78" y="398.49" width="33.12" height="0.25" style="fill:#ebebeb"></rect><rect x="322.53" y="401.21" width="8.69" height="0.25" style="fill:#ebebeb"></rect><rect x="396.59" y="389.21" width="19.19" height="0.25" style="fill:#ebebeb"></rect><rect x="52.46" y="390.89" width="43.19" height="0.25" style="fill:#ebebeb"></rect><rect x="104.56" y="390.89" width="6.33" height="0.25" style="fill:#ebebeb"></rect><rect x="131.47" y="395.11" width="93.68" height="0.25" style="fill:#ebebeb"></rect><path d="M237,337.8H43.91a5.71,5.71,0,0,1-5.7-5.71V60.66A5.71,5.71,0,0,1,43.91,55H237a5.71,5.71,0,0,1,5.71,5.71V332.09A5.71,5.71,0,0,1,237,337.8ZM43.91,55.2a5.46,5.46,0,0,0-5.45,5.46V332.09a5.46,5.46,0,0,0,5.45,5.46H237a5.47,5.47,0,0,0,5.46-5.46V60.66A5.47,5.47,0,0,0,237,55.2Z" style="fill:#ebebeb"></path><path d="M453.31,337.8H260.21a5.72,5.72,0,0,1-5.71-5.71V60.66A5.72,5.72,0,0,1,260.21,55h193.1A5.71,5.71,0,0,1,459,60.66V332.09A5.71,5.71,0,0,1,453.31,337.8ZM260.21,55.2a5.47,5.47,0,0,0-5.46,5.46V332.09a5.47,5.47,0,0,0,5.46,5.46h193.1a5.47,5.47,0,0,0,5.46-5.46V60.66a5.47,5.47,0,0,0-5.46-5.46Z" style="fill:#ebebeb"></path><path d="M198.87,310.42c4.23-4.24,9.86-4.81,12.6-1.27s1.52,9.84-2.7,14.08-9.86,4.81-12.59,1.27S194.65,314.66,198.87,310.42Z" style="fill:#e6e6e6"></path><path d="M178.37,287.6c11-10.36,25.6-11.75,32.7-3.11s4,24.05-7,34.41-25.6,11.75-32.69,3.11S167.41,298,178.37,287.6Z" style="fill:#ebebeb"></path><ellipse cx="236.07" cy="299.81" rx="19.45" ry="14.3" transform="translate(-144.76 275.66) rotate(-48.15)" style="fill:#e6e6e6"></ellipse><ellipse cx="244.57" cy="314.21" rx="19.45" ry="14.3" transform="translate(-152.66 286.78) rotate(-48.15)" style="fill:#ebebeb"></ellipse><ellipse cx="222.44" cy="295.86" rx="26.83" ry="19.73" transform="translate(-146.35 264.16) rotate(-48.15)" style="fill:#f0f0f0"></ellipse><path d="M189.17,297.43c5.84-5.87,13.64-6.66,17.42-1.76s2.12,13.61-3.72,19.48-13.65,6.66-17.43,1.76S183.33,303.3,189.17,297.43Z" style="fill:#f0f0f0"></path><path d="M237.38,317c4.22-4.24,9.86-4.81,12.6-1.28s1.52,9.85-2.7,14.09-9.86,4.81-12.59,1.27S233.16,321.2,237.38,317Z" style="fill:#f0f0f0"></path><path d="M236.94,332.87l-7.41,6.19c.59,8.73,1.08,28.84,1.08,28.84L233.25,382l-23.24.19s1.05-11.87,1.05-12.52,4.49-23.39,4.49-23.39l1.59-12.74-12-3.28L203,324.54l-8.81-4.48-4.31-5.94,1.67-.36,4.75,5.48,5.55,1.09-2.38-5.06h2.64L208.69,327l8.5,1.57-1.11-16.44c8.19,2.31,9-1.9,9-1.9s2.81,22.12,3.8,24.64l4.39-2,4.75-6.75h2.12Z" style="fill:#e0e0e0"></path><rect x="54.65" y="296.76" width="96.52" height="85.39" style="fill:#ebebeb"></rect><rect x="64.35" y="309.11" width="7.55" height="7.55" style="fill:#e0e0e0"></rect><rect x="81.74" y="309.11" width="7.55" height="7.55" style="fill:#e0e0e0"></rect><rect x="99.13" y="309.11" width="7.55" height="7.55" style="fill:#e0e0e0"></rect><rect x="116.52" y="309.11" width="7.55" height="7.55" style="fill:#e0e0e0"></rect><rect x="133.92" y="309.11" width="7.55" height="7.55" style="fill:#e0e0e0"></rect><rect x="88.74" y="322.17" width="96.52" height="59.98" style="fill:#f0f0f0"></rect><rect x="98.44" y="334.52" width="7.55" height="7.55" style="fill:#e6e6e6"></rect><rect x="115.83" y="334.52" width="7.55" height="7.55" style="fill:#e6e6e6"></rect><rect x="133.22" y="334.52" width="7.55" height="7.55" style="fill:#e6e6e6"></rect><rect x="150.62" y="334.52" width="7.55" height="7.55" style="fill:#e6e6e6"></rect><rect x="168.01" y="334.52" width="7.55" height="7.55" style="fill:#e6e6e6"></rect><path d="M385.48,310.42c4.22-4.24,9.86-4.81,12.59-1.27s1.53,9.84-2.69,14.08-9.86,4.81-12.6,1.27S381.26,314.66,385.48,310.42Z" style="fill:#e6e6e6"></path><ellipse cx="377.83" cy="303.25" rx="27.39" ry="20.14" transform="translate(-100.14 382.39) rotate(-48.15)" style="fill:#ebebeb"></ellipse><path d="M413.55,288.7c7.78-7.36,18.18-8.35,23.22-2.21s2.82,17.08-5,24.44-18.18,8.34-23.22,2.21S405.76,296.06,413.55,288.7Z" style="fill:#e6e6e6"></path><ellipse cx="431.18" cy="314.21" rx="19.45" ry="14.3" transform="translate(-90.54 425.79) rotate(-48.15)" style="fill:#ebebeb"></ellipse><ellipse cx="409.04" cy="295.86" rx="26.83" ry="19.73" transform="translate(-84.24 403.16) rotate(-48.15)" style="fill:#f0f0f0"></ellipse><ellipse cx="382.62" cy="306.29" rx="15.14" ry="10.99" transform="translate(-90.61 433.82) rotate(-53.76)" style="fill:#f0f0f0"></ellipse><ellipse cx="428.94" cy="323.36" rx="10.94" ry="7.95" transform="translate(-85.45 478.15) rotate(-53.76)" style="fill:#f0f0f0"></ellipse><path d="M423.55,332.87l-7.41,6.19c.59,8.73,1.07,28.84,1.07,28.84L419.85,382l-23.24.19s1.06-11.87,1.06-12.52,4.49-23.39,4.49-23.39l1.58-12.74-12-3.28-2.19-5.68-8.8-4.48-4.31-5.94,1.66-.36,4.76,5.48,5.54,1.09-2.37-5.06h2.64l6.6,11.71,8.51,1.57-1.11-16.44c8.19,2.31,9-1.9,9-1.9s2.81,22.12,3.8,24.64l4.38-2,4.76-6.75h2.11Z" style="fill:#e0e0e0"></path><path d="M292.73,293c5.24-5.27,12.25-6,15.65-1.58s1.9,12.23-3.35,17.5-12.26,6-15.65,1.59S287.48,298.27,292.73,293Z" style="fill:#e6e6e6"></path><path d="M267.25,264.65c13.62-12.88,31.81-14.61,40.63-3.87s4.93,29.88-8.7,42.76-31.81,14.61-40.63,3.87S253.63,277.52,267.25,264.65Z" style="fill:#ebebeb"></path><ellipse cx="338.95" cy="279.82" rx="24.18" ry="17.78" transform="translate(-95.62 345.64) rotate(-48.15)" style="fill:#e6e6e6"></ellipse><ellipse cx="349.52" cy="297.71" rx="24.18" ry="17.78" transform="translate(-105.43 359.47) rotate(-48.15)" style="fill:#ebebeb"></ellipse><path d="M306.37,255.85c13.34-12.61,31.16-14.31,39.8-3.79S351,281.34,337.65,294s-31.16,14.31-39.8,3.79S293,268.47,306.37,255.85Z" style="fill:#f0f0f0"></path><path d="M280.67,276.86c7.26-7.29,16.95-8.27,21.65-2.19s2.63,16.92-4.63,24.21-17,8.27-21.66,2.19S273.41,284.15,280.67,276.86Z" style="fill:#f0f0f0"></path><path d="M340.58,301.13c5.25-5.27,12.26-6,15.66-1.59s1.89,12.24-3.35,17.51-12.26,6-15.66,1.58S335.34,306.4,340.58,301.13Z" style="fill:#f0f0f0"></path><path d="M340,320.9l-9.21,7.69c.73,10.86,1.34,35.85,1.34,35.85l3.27,17.47-28.88.24s1.31-14.75,1.31-15.56,5.58-29.07,5.58-29.07l2-15.83-14.89-4.08-2.72-7.06L286.87,305l-5.35-7.38,2.06-.45,5.91,6.82,6.9,1.34-3-6.28h3.29l8.2,14.55,10.57,1.95-1.38-20.43c10.18,2.87,11.16-2.36,11.16-2.36s3.49,27.5,4.72,30.63l5.45-2.47,5.92-8.39H344Z" style="fill:#e0e0e0"></path><circle cx="121.07" cy="101.19" r="27.79" style="fill:#fafafa"></circle><path d="M106.65,100.88a4.8,4.8,0,0,0-6.21-4.63A10.21,10.21,0,0,0,90.32,84.54a10.63,10.63,0,0,0-1.89.17,8.94,8.94,0,0,0-16.58,4.52h-.14a8.24,8.24,0,0,0,0,16.48H102A4.82,4.82,0,0,0,106.65,100.88Z" style="fill:#f0f0f0"></path><path d="M444.79,162.7a4.83,4.83,0,0,0-4.83-4.83,4.92,4.92,0,0,0-1.39.2,10.21,10.21,0,0,0-10.12-11.71,10.6,10.6,0,0,0-1.88.18A8.94,8.94,0,0,0,410,151.06h-.15a8.24,8.24,0,1,0,0,16.48H440.1A4.82,4.82,0,0,0,444.79,162.7Z" style="fill:#f0f0f0"></path><path d="M253.39,119.15a7.65,7.65,0,0,1,9.84-7.32,16.56,16.56,0,0,1-.17-2.35,16.16,16.16,0,0,1,19.16-15.9,14.14,14.14,0,0,1,26.23,7.15h.24a13,13,0,0,1,0,26.07H260.82A7.64,7.64,0,0,1,253.39,119.15Z" style="fill:#f0f0f0"></path><path d="M68.6,214.22a9.19,9.19,0,0,1,11.84-8.8,20.38,20.38,0,0,1-.2-2.83,19.47,19.47,0,0,1,19.47-19.47,19.25,19.25,0,0,1,3.59.33,17,17,0,0,1,31.57,8.61l.28,0a15.69,15.69,0,0,1,0,31.38H77.54A9.19,9.19,0,0,1,68.6,214.22Z" style="fill:#f0f0f0"></path><path d="M167.26,115.35a3,3,0,0,0-3.86-2.88,7,7,0,0,0,.07-.92,6.36,6.36,0,0,0-6.36-6.36,6.56,6.56,0,0,0-1.18.11,5.55,5.55,0,0,0-10.3,2.81h-.09a5.13,5.13,0,1,0,0,10.25h18.8A3,3,0,0,0,167.26,115.35Z" style="fill:#f0f0f0"></path><path d="M368.57,83a3,3,0,0,1,3.87-2.88,7,7,0,0,1-.07-.92,6.36,6.36,0,0,1,6.36-6.36,6.45,6.45,0,0,1,1.17.11,5.56,5.56,0,0,1,10.31,2.81h.09a5.13,5.13,0,1,1,0,10.25H371.49A3,3,0,0,1,368.57,83Z" style="fill:#f0f0f0"></path></g><g id="freepik--Shadow--inject-46"><ellipse id="freepik--path--inject-46" cx="250" cy="416.24" rx="193.89" ry="11.32" style="fill:#f5f5f5"></ellipse></g><g id="freepik--Parthenon--inject-46"><path d="M246.65,203c.09,0,.17-.12.26-.16H130.61a1.34,1.34,0,0,1,.27,2.08v.87a1.34,1.34,0,0,1,.34,1.29,4.81,4.81,0,0,0,0,3.76,1.53,1.53,0,0,1,.09.4h112a4.19,4.19,0,0,1,1.06-1.82,2.89,2.89,0,0,1,.6-1.32C243.45,206.53,244,203.3,246.65,203Z" style="fill:#4F46E5"></path><path d="M246.65,203c.09,0,.17-.12.26-.16H130.61a1.34,1.34,0,0,1,.27,2.08v.87a1.34,1.34,0,0,1,.34,1.29,4.81,4.81,0,0,0,0,3.76,1.53,1.53,0,0,1,.09.4h112a4.19,4.19,0,0,1,1.06-1.82,2.89,2.89,0,0,1,.6-1.32C243.45,206.53,244,203.3,246.65,203Z" style="fill:#fff;opacity:0.1"></path><path d="M248.19,202.58a3.12,3.12,0,0,1,.63.07,4.34,4.34,0,0,1,1.15-1.34,3.56,3.56,0,0,1,.2-1L250,200l0-.08c0-.15-.06-.3-.09-.46l-.15,0a2.32,2.32,0,0,1-1.16-.25,2.37,2.37,0,0,1-.53-.26,2,2,0,0,1-.22-.09l-.61-.47a3,3,0,0,1-.77-1.33c0-.27-.07-.53-.11-.8a2.25,2.25,0,0,1,.22-1,3,3,0,0,1-.19-1.3,3.24,3.24,0,0,1-.5-1,2.34,2.34,0,0,1-.09-1H201.35a3.1,3.1,0,0,1-2.18,1.66l-.24,0-.12.16a1.42,1.42,0,0,1-.58.34h0a1.24,1.24,0,0,1-.84.3,1.2,1.2,0,0,1-1.2-.85,1.62,1.62,0,0,1-.55-.49c-.08-.13-.17-.25-.26-.38h0a1.27,1.27,0,0,1-.55-.13,1.46,1.46,0,0,1-.41.38,1.33,1.33,0,0,1-1,.14,4.73,4.73,0,0,1-1.09-.57,1.45,1.45,0,0,1-.52-.58h-62v10.91H246.91A3,3,0,0,1,248.19,202.58Z" style="fill:#4F46E5"></path><path d="M248.19,202.58a3.12,3.12,0,0,1,.63.07,4.34,4.34,0,0,1,1.15-1.34,3.56,3.56,0,0,1,.2-1L250,200l0-.08c0-.15-.06-.3-.09-.46l-.15,0a2.32,2.32,0,0,1-1.16-.25,2.37,2.37,0,0,1-.53-.26,2,2,0,0,1-.22-.09l-.61-.47a3,3,0,0,1-.77-1.33c0-.27-.07-.53-.11-.8a2.25,2.25,0,0,1,.22-1,3,3,0,0,1-.19-1.3,3.24,3.24,0,0,1-.5-1,2.34,2.34,0,0,1-.09-1H201.35a3.1,3.1,0,0,1-2.18,1.66l-.24,0-.12.16a1.42,1.42,0,0,1-.58.34h0a1.24,1.24,0,0,1-.84.3,1.2,1.2,0,0,1-1.2-.85,1.62,1.62,0,0,1-.55-.49c-.08-.13-.17-.25-.26-.38h0a1.27,1.27,0,0,1-.55-.13,1.46,1.46,0,0,1-.41.38,1.33,1.33,0,0,1-1,.14,4.73,4.73,0,0,1-1.09-.57,1.45,1.45,0,0,1-.52-.58h-62v10.91H246.91A3,3,0,0,1,248.19,202.58Z" style="fill:#fff;opacity:0.1"></path><path d="M247.61,202.91a3.21,3.21,0,0,1,.24-.45H129.69a1.24,1.24,0,0,1,.6.69H247.53Z" style="fill:#4F46E5"></path><path d="M247.61,202.91a3.21,3.21,0,0,1,.24-.45H129.69a1.24,1.24,0,0,1,.6.69H247.53Z" style="fill:#fff;opacity:0.2"></path><path d="M190.92,194.53v-3.36c0-.25-.06-.5-.08-.75a1,1,0,0,1,0-.3,1.25,1.25,0,0,1-.3-.21.52.52,0,0,1-.1-.11H122.78v4.82H190.9A.29.29,0,0,1,190.92,194.53Z" style="fill:#4F46E5"></path><path d="M250.27,192.2l.47-.61a3,3,0,0,1,.85-.57,2.62,2.62,0,0,1,1.08-.44v-.78h-54.5l-.1.12a2.08,2.08,0,0,1-.39,1.89v.41a1.46,1.46,0,0,1,0,1.92v.48h51a7.36,7.36,0,0,1,1.21-1.15A3.06,3.06,0,0,1,250.27,192.2Z" style="fill:#4F46E5"></path><path d="M250.27,192.2l.47-.61a3,3,0,0,1,.85-.57,2.62,2.62,0,0,1,1.08-.44v-.78h-54.5l-.1.12a2.08,2.08,0,0,1-.39,1.89v.41a1.46,1.46,0,0,1,0,1.92v.48h51a7.36,7.36,0,0,1,1.21-1.15A3.06,3.06,0,0,1,250.27,192.2Z" style="fill:#fff;opacity:0.2"></path><path d="M190.92,194.53v-3.36c0-.25-.06-.5-.08-.75a1,1,0,0,1,0-.3,1.25,1.25,0,0,1-.3-.21.52.52,0,0,1-.1-.11H122.78v4.82H190.9A.29.29,0,0,1,190.92,194.53Z" style="fill:#fff;opacity:0.2"></path><path d="M352.42,283.34q-1,42.11-1,84.26h17.43q0-42.15-1-84.26Z" style="fill:#4F46E5"></path><path d="M352.42,283.34q-1,42.11-1,84.26h17.43q0-42.15-1-84.26Z" style="fill:#fff;opacity:0.1"></path><path d="M366.69,283.34q.81,42.11.84,84.26h1.33q0-42.15-1-84.26Z" style="fill:#fff;opacity:0.1"></path><path d="M363.38,283.34q.4,42.11.44,84.26h2.66q0-42.15-.72-84.26Z" style="fill:#fff;opacity:0.1"></path><path d="M358.27,283.34Q358,325.45,358,367.6h4.25q0-42.15-.25-84.26Z" style="fill:#fff;opacity:0.1"></path><path d="M354.53,283.34q-.69,42.11-.72,84.26h2.66q0-42.15.44-84.26Z" style="fill:#fff;opacity:0.1"></path><path d="M352.42,283.34q-1,42.11-1,84.26h1.33q0-42.15.84-84.26Z" style="fill:#fff;opacity:0.1"></path><rect x="350.57" y="365.56" width="19.14" height="4.97" style="fill:#4F46E5"></rect><rect x="350.57" y="365.56" width="19.14" height="4.97" style="fill:#fff;opacity:0.1"></rect><path d="M348.86,367h22.58a.92.92,0,0,1,.92.92V372a0,0,0,0,1,0,0H347.94a0,0,0,0,1,0,0V368A.92.92,0,0,1,348.86,367Z" style="fill:#4F46E5"></path><path d="M348.86,367h22.58a.92.92,0,0,1,.92.92V372a0,0,0,0,1,0,0H347.94a0,0,0,0,1,0,0V368A.92.92,0,0,1,348.86,367Z" style="fill:#fff;opacity:0.2"></path><path d="M310.15,278.08q-1.08,44.73-1.11,89.52h17.44q0-44.78-1.1-89.52Z" style="fill:#4F46E5"></path><path d="M310.15,278.08q-1.08,44.73-1.11,89.52h17.44q0-44.78-1.1-89.52Z" style="fill:#fff;opacity:0.1"></path><path d="M324.21,278.08q.92,44.73.94,89.52h1.33q0-44.78-1.1-89.52Z" style="fill:#fff;opacity:0.1"></path><path d="M321,278.08q.46,44.73.48,89.52h2.67q0-44.78-.8-89.52Z" style="fill:#fff;opacity:0.1"></path><path d="M315.91,278.08q-.26,44.73-.27,89.52h4.25q0-44.78-.28-89.52Z" style="fill:#fff;opacity:0.1"></path><path d="M312.23,278.08q-.78,44.73-.81,89.52h2.67q0-44.78.48-89.52Z" style="fill:#fff;opacity:0.1"></path><path d="M310.15,278.08q-1.08,44.73-1.11,89.52h1.34q0-44.78.93-89.52Z" style="fill:#fff;opacity:0.1"></path><rect x="308.19" y="365.56" width="19.14" height="4.97" style="fill:#4F46E5"></rect><rect x="308.19" y="365.56" width="19.14" height="4.97" style="fill:#fff;opacity:0.1"></rect><path d="M306.47,367h22.58a.92.92,0,0,1,.92.92V372a0,0,0,0,1,0,0H305.55a0,0,0,0,1,0,0V368A.92.92,0,0,1,306.47,367Z" style="fill:#4F46E5"></path><path d="M306.47,367h22.58a.92.92,0,0,1,.92.92V372a0,0,0,0,1,0,0H305.55a0,0,0,0,1,0,0V368A.92.92,0,0,1,306.47,367Z" style="fill:#fff;opacity:0.2"></path><path d="M268.19,261.77q-1.49,52.86-1.53,105.83H284.1q0-53-1.54-105.83Z" style="fill:#4F46E5"></path><path d="M268.19,261.77q-1.49,52.86-1.53,105.83H284.1q0-53-1.54-105.83Z" style="fill:#fff;opacity:0.1"></path><path d="M281.46,261.77q1.28,52.86,1.3,105.83h1.34q0-53-1.54-105.83Z" style="fill:#fff;opacity:0.1"></path><path d="M278.4,261.77q.63,52.88.65,105.83h2.67q0-53-1.12-105.83Z" style="fill:#fff;opacity:0.1"></path><path d="M273.63,261.77q-.36,52.88-.38,105.83h4.26q0-53-.38-105.83Z" style="fill:#fff;opacity:0.1"></path><path d="M270.16,261.77q-1.1,52.86-1.12,105.83h2.67q0-53,.65-105.83Z" style="fill:#fff;opacity:0.1"></path><path d="M268.19,261.77q-1.49,52.86-1.53,105.83H268q0-53,1.3-105.83Z" style="fill:#fff;opacity:0.1"></path><rect x="265.81" y="365.56" width="19.14" height="4.97" style="fill:#4F46E5"></rect><rect x="265.81" y="365.56" width="19.14" height="4.97" style="fill:#fff;opacity:0.1"></rect><path d="M264.09,367h22.58a.92.92,0,0,1,.92.92V372a0,0,0,0,1,0,0H263.17a0,0,0,0,1,0,0V368A.92.92,0,0,1,264.09,367Z" style="fill:#4F46E5"></path><path d="M264.09,367h22.58a.92.92,0,0,1,.92.92V372a0,0,0,0,1,0,0H263.17a0,0,0,0,1,0,0V368A.92.92,0,0,1,264.09,367Z" style="fill:#fff;opacity:0.2"></path><polygon points="238.05 219.38 228.1 219.38 223.12 213.98 242.87 213.98 238.05 219.38" style="fill:#4F46E5"></polygon><rect x="223.12" y="210.44" width="19.76" height="3.54" style="fill:#4F46E5"></rect><polygon points="238.05 219.38 228.1 219.38 223.12 213.98 242.87 213.98 238.05 219.38" style="fill:#fff;opacity:0.1"></polygon><rect x="223.12" y="210.44" width="19.76" height="3.54" style="fill:#fff;opacity:0.2"></rect><path d="M241.71,367.6q0-74.6-3-149.07H227.28q-3,74.41-3,149.07Z" style="fill:#4F46E5"></path><path d="M241.71,367.6q0-74.6-3-149.07H227.28q-3,74.41-3,149.07Z" style="fill:#fff;opacity:0.1"></path><path d="M241.71,367.6q0-74.6-3-149.07h-.88q2.52,74.41,2.54,149.07Z" style="fill:#fff;opacity:0.1"></path><path d="M239.33,367.6q0-74.6-2.18-149.07h-1.74q1.25,74.41,1.26,149.07Z" style="fill:#fff;opacity:0.1"></path><path d="M235.12,367.6q0-74.6-.73-149.07H231.6q-.72,74.41-.73,149.07Z" style="fill:#fff;opacity:0.1"></path><path d="M229.32,367.6q0-74.6,1.27-149.07h-1.75q-2.16,74.41-2.18,149.07Z" style="fill:#fff;opacity:0.1"></path><path d="M225.61,367.6q0-74.6,2.54-149.07h-.87q-3,74.41-3,149.07Z" style="fill:#fff;opacity:0.1"></path><path d="M238.71,219.17H227.28a.64.64,0,0,1-.64-.64h0a.64.64,0,0,1,.64-.63h11.43a.63.63,0,0,1,.64.63h0A.64.64,0,0,1,238.71,219.17Z" style="fill:#4F46E5"></path><path d="M238.71,219.17H227.28a.64.64,0,0,1-.64-.64h0a.64.64,0,0,1,.64-.63h11.43a.63.63,0,0,1,.64.63h0A.64.64,0,0,1,238.71,219.17Z" style="fill:#fff;opacity:0.1"></path><rect x="223.42" y="365.56" width="19.14" height="4.97" style="fill:#4F46E5"></rect><rect x="223.42" y="365.56" width="19.14" height="4.97" style="fill:#fff;opacity:0.1"></rect><path d="M221.71,367h22.58a.92.92,0,0,1,.92.92V372a0,0,0,0,1,0,0H220.79a0,0,0,0,1,0,0V368A.92.92,0,0,1,221.71,367Z" style="fill:#4F46E5"></path><path d="M221.71,367h22.58a.92.92,0,0,1,.92.92V372a0,0,0,0,1,0,0H220.79a0,0,0,0,1,0,0V368A.92.92,0,0,1,221.71,367Z" style="fill:#fff;opacity:0.2"></path><polygon points="195.67 219.38 185.72 219.38 180.73 213.98 200.49 213.98 195.67 219.38" style="fill:#4F46E5"></polygon><rect x="180.73" y="210.44" width="19.76" height="3.54" style="fill:#4F46E5"></rect><polygon points="195.67 219.38 185.72 219.38 180.73 213.98 200.49 213.98 195.67 219.38" style="fill:#fff;opacity:0.1"></polygon><rect x="180.73" y="210.44" width="19.76" height="3.54" style="fill:#fff;opacity:0.2"></rect><path d="M199.33,367.6q0-74.6-3-149.07H184.89q-3,74.41-3,149.07Z" style="fill:#4F46E5"></path><path d="M199.33,367.6q0-74.6-3-149.07H184.89q-3,74.41-3,149.07Z" style="fill:#fff;opacity:0.1"></path><path d="M199.33,367.6q0-74.6-3-149.07h-.87Q198,292.95,198,367.6Z" style="fill:#fff;opacity:0.1"></path><path d="M197,367.6q0-74.6-2.18-149.07H193q1.24,74.41,1.26,149.07Z" style="fill:#fff;opacity:0.1"></path><path d="M192.74,367.6q0-74.6-.73-149.07h-2.79q-.72,74.41-.73,149.07Z" style="fill:#fff;opacity:0.1"></path><path d="M186.94,367.6q0-74.6,1.26-149.07h-1.75q-2.14,74.41-2.18,149.07Z" style="fill:#fff;opacity:0.1"></path><path d="M183.23,367.6q0-74.6,2.54-149.07h-.88q-3,74.41-3,149.07Z" style="fill:#fff;opacity:0.1"></path><path d="M196.33,219.17H184.89a.64.64,0,0,1-.63-.64h0a.63.63,0,0,1,.63-.63h11.44a.64.64,0,0,1,.64.63h0A.64.64,0,0,1,196.33,219.17Z" style="fill:#4F46E5"></path><path d="M196.33,219.17H184.89a.64.64,0,0,1-.63-.64h0a.63.63,0,0,1,.63-.63h11.44a.64.64,0,0,1,.64.63h0A.64.64,0,0,1,196.33,219.17Z" style="fill:#fff;opacity:0.1"></path><rect x="181.04" y="365.56" width="19.14" height="4.97" style="fill:#4F46E5"></rect><rect x="181.04" y="365.56" width="19.14" height="4.97" style="fill:#fff;opacity:0.1"></rect><path d="M179.32,367H201.9a.92.92,0,0,1,.92.92V372a0,0,0,0,1,0,0H178.4a0,0,0,0,1,0,0V368A.92.92,0,0,1,179.32,367Z" style="fill:#4F46E5"></path><path d="M179.32,367H201.9a.92.92,0,0,1,.92.92V372a0,0,0,0,1,0,0H178.4a0,0,0,0,1,0,0V368A.92.92,0,0,1,179.32,367Z" style="fill:#fff;opacity:0.2"></path><polygon points="153.29 219.38 143.33 219.38 138.35 213.98 158.11 213.98 153.29 219.38" style="fill:#4F46E5"></polygon><rect x="138.35" y="210.44" width="19.76" height="3.54" style="fill:#4F46E5"></rect><polygon points="153.29 219.38 143.33 219.38 138.35 213.98 158.11 213.98 153.29 219.38" style="fill:#fff;opacity:0.1"></polygon><rect x="138.35" y="210.44" width="19.76" height="3.54" style="fill:#fff;opacity:0.2"></rect><path d="M157,367.6q0-74.6-3-149.07H142.51q-3,74.41-3,149.07Z" style="fill:#4F46E5"></path><path d="M157,367.6q0-74.6-3-149.07H142.51q-3,74.41-3,149.07Z" style="fill:#fff;opacity:0.1"></path><path d="M157,367.6q0-74.6-3-149.07h-.87q2.5,74.41,2.53,149.07Z" style="fill:#fff;opacity:0.1"></path><path d="M154.57,367.6q0-74.6-2.18-149.07h-1.75q1.25,74.41,1.26,149.07Z" style="fill:#fff;opacity:0.1"></path><path d="M150.36,367.6q0-74.6-.73-149.07h-2.8q-.72,74.41-.73,149.07Z" style="fill:#fff;opacity:0.1"></path><path d="M144.56,367.6q0-74.6,1.26-149.07h-1.75q-2.16,74.41-2.18,149.07Z" style="fill:#fff;opacity:0.1"></path><path d="M140.84,367.6q0-74.6,2.54-149.07h-.87q-3,74.41-3,149.07Z" style="fill:#fff;opacity:0.1"></path><path d="M154,219.17H142.51a.64.64,0,0,1-.63-.64h0a.63.63,0,0,1,.63-.63H154a.63.63,0,0,1,.63.63h0A.64.64,0,0,1,154,219.17Z" style="fill:#4F46E5"></path><path d="M154,219.17H142.51a.64.64,0,0,1-.63-.64h0a.63.63,0,0,1,.63-.63H154a.63.63,0,0,1,.63.63h0A.64.64,0,0,1,154,219.17Z" style="fill:#fff;opacity:0.1"></path><rect x="138.66" y="365.56" width="19.14" height="4.97" style="fill:#4F46E5"></rect><rect x="138.66" y="365.56" width="19.14" height="4.97" style="fill:#fff;opacity:0.1"></rect><path d="M136.94,367h22.58a.92.92,0,0,1,.92.92V372a0,0,0,0,1,0,0H136a0,0,0,0,1,0,0V368A.92.92,0,0,1,136.94,367Z" style="fill:#4F46E5"></path><path d="M136.94,367h22.58a.92.92,0,0,1,.92.92V372a0,0,0,0,1,0,0H136a0,0,0,0,1,0,0V368A.92.92,0,0,1,136.94,367Z" style="fill:#fff;opacity:0.2"></path><polygon points="440.22 130.36 442.88 121.48 408.23 110.22 405.87 119.82 440.22 130.36" style="fill:#4F46E5"></polygon><polygon points="440.22 130.36 442.88 121.48 408.23 110.22 405.87 119.82 440.22 130.36" style="fill:#fff;opacity:0.30000000000000004"></polygon><path d="M387.71,103.18a70.79,70.79,0,0,1-3.12,8.86l6.71,2.06,2.67-8.88Z" style="fill:#4F46E5"></path><path d="M387.71,103.18a70.79,70.79,0,0,1-3.12,8.86l6.71,2.06,2.67-8.88Z" style="fill:#fff;opacity:0.30000000000000004"></path><path d="M431.79,132.93l-55.22-18c.78,1.73-.8,4.24-2.84,4.38a5.19,5.19,0,0,0-1.65.19c2.77,3.16,4.81,6.7,1.93,10.76-1.26,1.78-1.9,2.48-2.15,4.67-.11,1-.19,2-.38,3H437l1.47-3.37Z" style="fill:#4F46E5"></path><path d="M431.79,132.93l-55.22-18c.78,1.73-.8,4.24-2.84,4.38a5.19,5.19,0,0,0-1.65.19c2.77,3.16,4.81,6.7,1.93,10.76-1.26,1.78-1.9,2.48-2.15,4.67-.11,1-.19,2-.38,3H437l1.47-3.37Z" style="fill:#fff;opacity:0.2"></path><path d="M417.77,133.29l-3.21-.1s-7,.39-7,.29-.34-2.53,0-2.62-6-4-6-4l-2.72.29-1.56,2.92.68,4.64-3.33.52-2-2.73.78-1.75.77-2.06v-5.34l-8.45-.09-.79,6.22-.73,4.42-4.82-2.08-1.2-4.28-.65-1.23.65-2.76-.94-2-3.05.81a6.65,6.65,0,0,1-.23,7.84c-1.26,1.78-1.9,2.48-2.15,4.67,0,.15,0,.31-.05.46l3.63.37h26.18l20.83-.48Z" style="fill:#fff;opacity:0.2"></path><polygon points="442.09 137.93 443.77 128.99 369.02 105.77 366.41 113.26 442.09 137.93" style="fill:#4F46E5"></polygon><polygon points="442.09 137.93 443.77 128.99 369.02 105.77 366.41 113.26 442.09 137.93" style="fill:#fff;opacity:0.5"></polygon><path d="M70.13,119.16a2.87,2.87,0,0,1-.76.09c.39,1.13.77,2.27,1.16,3.4l3.6-1.11-.88-3.61A15,15,0,0,1,70.13,119.16Z" style="fill:#4F46E5"></path><path d="M51.76,124.35a30.62,30.62,0,0,0,1.6,3.57l11.46-3.52c-.69-2-1.35-4-2.09-6L50.8,122.28A22,22,0,0,1,51.76,124.35Z" style="fill:#4F46E5"></path><path d="M70.13,119.16a2.87,2.87,0,0,1-.76.09c.39,1.13.77,2.27,1.16,3.4l3.6-1.11-.88-3.61A15,15,0,0,1,70.13,119.16Z" style="fill:#fff;opacity:0.30000000000000004"></path><path d="M51.76,124.35a30.62,30.62,0,0,0,1.6,3.57l11.46-3.52c-.69-2-1.35-4-2.09-6L50.8,122.28A22,22,0,0,1,51.76,124.35Z" style="fill:#fff;opacity:0.30000000000000004"></path><polygon points="60.8 132.93 122.6 112.75 125.22 118.58 129.7 118 130.28 123.55 131.45 126.66 135.41 127.71 137.78 124.52 141.7 126.95 137.78 137.93 55.56 137.93 54.09 134.56 60.8 132.93" style="fill:#4F46E5"></polygon><polygon points="60.8 132.93 122.6 112.75 125.22 118.58 129.7 118 130.28 123.55 131.45 126.66 135.41 127.71 137.78 124.52 141.7 126.95 137.78 137.93 55.56 137.93 54.09 134.56 60.8 132.93" style="fill:#fff;opacity:0.2"></polygon><path d="M120.07,122.84l-4.77-1.27-.94,2,.65,2.76-.65,1.23-1.2,4.28-4.82,2.08-.73-4.42-.79-6.22-8.46.09v5.34l.78,2.06.78,1.75-2,2.73-3.32-.52.68-4.64-1.56-2.92L91,126.87s-6.31,3.89-6,4,0,2.53,0,2.62-7-.29-7-.29l-3.21.1-4.68,2,20.83.48h26.18l5.74-.58V132.8l-1.66-.19-1.94-3.6,1.55-1.56Z" style="fill:#fff;opacity:0.2"></path><polygon points="50.5 137.93 48.82 128.99 123.57 105.77 126.18 113.26 50.5 137.93" style="fill:#4F46E5"></polygon><polygon points="50.5 137.93 48.82 128.99 123.57 105.77 126.18 113.26 50.5 137.93" style="fill:#fff;opacity:0.5"></polygon><path d="M65.77,165.81h0a3,3,0,0,1,.61,4.73v2a3,3,0,0,1,.77,2.93,11,11,0,0,0,0,8.52,2.76,2.76,0,0,1,.22.89H435.14a1.55,1.55,0,0,0,1.55-1.48l.91-17.57Z" style="fill:#4F46E5"></path><path d="M65.77,165.81h0a3,3,0,0,1,.61,4.73v2a3,3,0,0,1,.77,2.93,11,11,0,0,0,0,8.52,2.76,2.76,0,0,1,.22.89H435.14a1.55,1.55,0,0,0,1.55-1.48l.91-17.57Z" style="fill:#fff;opacity:0.30000000000000004"></path><path d="M226.09,141.09a7.09,7.09,0,0,1-4.93,3.76,4.93,4.93,0,0,1-.54.05l-.27.35A3,3,0,0,1,219,146H219a2.82,2.82,0,0,1-1.91.68,2.71,2.71,0,0,1-2.71-1.93,3.54,3.54,0,0,1-1.25-1.12c-.19-.28-.4-.56-.6-.84h-.11a3,3,0,0,1-1.25-.3,3.15,3.15,0,0,1-.93.86,3,3,0,0,1-2.31.3,11,11,0,0,1-2.48-1.27,3.4,3.4,0,0,1-1.18-1.32H63.64v24.72H435.43V141.09Z" style="fill:#4F46E5"></path><path d="M226.09,141.09a7.09,7.09,0,0,1-4.93,3.76,4.93,4.93,0,0,1-.54.05l-.27.35A3,3,0,0,1,219,146H219a2.82,2.82,0,0,1-1.91.68,2.71,2.71,0,0,1-2.71-1.93,3.54,3.54,0,0,1-1.25-1.12c-.19-.28-.4-.56-.6-.84h-.11a3,3,0,0,1-1.25-.3,3.15,3.15,0,0,1-.93.86,3,3,0,0,1-2.31.3,11,11,0,0,1-2.48-1.27,3.4,3.4,0,0,1-1.18-1.32H63.64v24.72H435.43V141.09Z" style="fill:#fff;opacity:0.30000000000000004"></path><path d="M51.47,372H448.53a1.2,1.2,0,0,1,1.2,1.2v6.5a0,0,0,0,1,0,0H50.26a0,0,0,0,1,0,0v-6.5A1.2,1.2,0,0,1,51.47,372Z" style="fill:#4F46E5"></path><path d="M51.47,372H448.53a1.2,1.2,0,0,1,1.2,1.2v6.5a0,0,0,0,1,0,0H50.26a0,0,0,0,1,0,0v-6.5A1.2,1.2,0,0,1,51.47,372Z" style="fill:#fff;opacity:0.30000000000000004"></path><path d="M44.52,376.95h411a1.26,1.26,0,0,1,1.26,1.26v4.31a0,0,0,0,1,0,0H43.26a0,0,0,0,1,0,0v-4.31A1.26,1.26,0,0,1,44.52,376.95Z" style="fill:#4F46E5"></path><path d="M44.52,376.95h411a1.26,1.26,0,0,1,1.26,1.26v4.31a0,0,0,0,1,0,0H43.26a0,0,0,0,1,0,0v-4.31A1.26,1.26,0,0,1,44.52,376.95Z" style="fill:#fff;opacity:0.5"></path><polygon points="428.06 194.84 416.5 194.84 410.72 188.57 433.66 188.57 428.06 194.84" style="fill:#4F46E5"></polygon><rect x="410.72" y="184.47" width="22.93" height="4.1" style="fill:#4F46E5"></rect><polygon points="428.06 194.84 416.5 194.84 410.72 188.57 433.66 188.57 428.06 194.84" style="fill:#fff;opacity:0.30000000000000004"></polygon><rect x="410.72" y="184.47" width="22.93" height="4.1" style="fill:#fff;opacity:0.5"></rect><path d="M432.31,366.88q0-86.58-3.48-173H415.55q-3.44,86.39-3.48,173Z" style="fill:#4F46E5"></path><path d="M432.31,366.88q0-86.58-3.48-173H415.55q-3.44,86.39-3.48,173Z" style="fill:#fff;opacity:0.4"></path><path d="M432.31,366.88q0-86.58-3.48-173h-1q2.93,86.39,2.95,173Z" style="fill:#fff;opacity:0.2"></path><path d="M429.55,366.88q0-86.58-2.53-173h-2q1.44,86.39,1.46,173Z" style="fill:#fff;opacity:0.2"></path><path d="M424.66,366.88q0-86.58-.85-173h-3.24q-.84,86.39-.85,173Z" style="fill:#fff;opacity:0.2"></path><path d="M417.93,366.88q0-86.58,1.46-173h-2q-2.5,86.39-2.53,173Z" style="fill:#fff;opacity:0.2"></path><path d="M413.62,366.88q0-86.58,2.94-173h-1q-3.44,86.39-3.48,173Z" style="fill:#fff;opacity:0.2"></path><path d="M428.83,194.59H415.55a.74.74,0,0,1-.74-.73h0a.74.74,0,0,1,.74-.74h13.28a.74.74,0,0,1,.73.74h0A.73.73,0,0,1,428.83,194.59Z" style="fill:#4F46E5"></path><path d="M428.83,194.59H415.55a.74.74,0,0,1-.74-.73h0a.74.74,0,0,1,.74-.74h13.28a.74.74,0,0,1,.73.74h0A.73.73,0,0,1,428.83,194.59Z" style="fill:#fff;opacity:0.4"></path><rect x="411.08" y="364.51" width="22.22" height="5.77" style="fill:#4F46E5"></rect><rect x="411.08" y="364.51" width="22.22" height="5.77" style="fill:#fff;opacity:0.30000000000000004"></rect><path d="M408.94,366.24h26.5a.92.92,0,0,1,.92.92V372a0,0,0,0,1,0,0H408a0,0,0,0,1,0,0v-4.86A.92.92,0,0,1,408.94,366.24Z" style="fill:#4F46E5"></path><path d="M408.94,366.24h26.5a.92.92,0,0,1,.92.92V372a0,0,0,0,1,0,0H408a0,0,0,0,1,0,0v-4.86A.92.92,0,0,1,408.94,366.24Z" style="fill:#fff;opacity:0.5"></path><polygon points="378.86 194.84 367.31 194.84 361.52 188.57 384.46 188.57 378.86 194.84" style="fill:#4F46E5"></polygon><rect x="361.53" y="184.47" width="22.93" height="4.1" style="fill:#4F46E5"></rect><polygon points="378.86 194.84 367.31 194.84 361.52 188.57 384.46 188.57 378.86 194.84" style="fill:#fff;opacity:0.30000000000000004"></polygon><rect x="361.53" y="184.47" width="22.93" height="4.1" style="fill:#fff;opacity:0.5"></rect><path d="M383.11,366.88q0-86.58-3.48-173H366.35q-3.44,86.39-3.48,173Z" style="fill:#4F46E5"></path><path d="M383.11,366.88q0-86.58-3.48-173H366.35q-3.44,86.39-3.48,173Z" style="fill:#fff;opacity:0.4"></path><path d="M383.11,366.88q0-86.58-3.48-173h-1q2.91,86.39,2.94,173Z" style="fill:#fff;opacity:0.2"></path><path d="M380.35,366.88q0-86.58-2.53-173h-2q1.45,86.39,1.46,173Z" style="fill:#fff;opacity:0.2"></path><path d="M375.46,366.88q0-86.58-.85-173h-3.24q-.84,86.39-.84,173Z" style="fill:#fff;opacity:0.2"></path><path d="M368.73,366.88q0-86.58,1.47-173h-2q-2.49,86.39-2.52,173Z" style="fill:#fff;opacity:0.2"></path><path d="M364.42,366.88q0-86.58,2.95-173h-1q-3.44,86.39-3.48,173Z" style="fill:#fff;opacity:0.2"></path><path d="M379.63,194.59H366.35a.73.73,0,0,1-.73-.73h0a.74.74,0,0,1,.73-.74h13.28a.74.74,0,0,1,.74.74h0A.74.74,0,0,1,379.63,194.59Z" style="fill:#4F46E5"></path><path d="M379.63,194.59H366.35a.73.73,0,0,1-.73-.73h0a.74.74,0,0,1,.73-.74h13.28a.74.74,0,0,1,.74.74h0A.74.74,0,0,1,379.63,194.59Z" style="fill:#fff;opacity:0.4"></path><rect x="361.88" y="364.51" width="22.22" height="5.77" style="fill:#4F46E5"></rect><rect x="361.88" y="364.51" width="22.22" height="5.77" style="fill:#fff;opacity:0.30000000000000004"></rect><path d="M359.74,366.24h26.5a.92.92,0,0,1,.92.92V372a0,0,0,0,1,0,0H358.82a0,0,0,0,1,0,0v-4.86A.92.92,0,0,1,359.74,366.24Z" style="fill:#4F46E5"></path><path d="M359.74,366.24h26.5a.92.92,0,0,1,.92.92V372a0,0,0,0,1,0,0H358.82a0,0,0,0,1,0,0v-4.86A.92.92,0,0,1,359.74,366.24Z" style="fill:#fff;opacity:0.5"></path><polygon points="329.67 194.84 318.11 194.84 312.33 188.57 335.26 188.57 329.67 194.84" style="fill:#4F46E5"></polygon><rect x="312.33" y="184.47" width="22.93" height="4.1" style="fill:#4F46E5"></rect><polygon points="329.67 194.84 318.11 194.84 312.33 188.57 335.26 188.57 329.67 194.84" style="fill:#fff;opacity:0.30000000000000004"></polygon><rect x="312.33" y="184.47" width="22.93" height="4.1" style="fill:#fff;opacity:0.5"></rect><path d="M333.91,366.88q0-86.58-3.47-173H317.15q-3.43,86.39-3.47,173Z" style="fill:#4F46E5"></path><path d="M333.91,366.88q0-86.58-3.47-173H317.15q-3.43,86.39-3.47,173Z" style="fill:#fff;opacity:0.4"></path><path d="M333.91,366.88q0-86.58-3.47-173h-1q2.91,86.39,2.95,173Z" style="fill:#fff;opacity:0.2"></path><path d="M331.15,366.88q0-86.58-2.53-173h-2q1.46,86.39,1.47,173Z" style="fill:#fff;opacity:0.2"></path><path d="M326.26,366.88q0-86.58-.84-173h-3.24q-.84,86.39-.85,173Z" style="fill:#fff;opacity:0.2"></path><path d="M319.53,366.88q0-86.58,1.47-173h-2q-2.5,86.39-2.53,173Z" style="fill:#fff;opacity:0.2"></path><path d="M315.22,366.88q0-86.58,2.95-173h-1q-3.43,86.39-3.47,173Z" style="fill:#fff;opacity:0.2"></path><path d="M330.43,194.59H317.16a.74.74,0,0,1-.74-.73h0a.74.74,0,0,1,.74-.74h13.27a.74.74,0,0,1,.74.74h0A.74.74,0,0,1,330.43,194.59Z" style="fill:#4F46E5"></path><path d="M330.43,194.59H317.16a.74.74,0,0,1-.74-.73h0a.74.74,0,0,1,.74-.74h13.27a.74.74,0,0,1,.74.74h0A.74.74,0,0,1,330.43,194.59Z" style="fill:#fff;opacity:0.4"></path><rect x="312.69" y="364.51" width="22.22" height="5.77" style="fill:#4F46E5"></rect><rect x="312.69" y="364.51" width="22.22" height="5.77" style="fill:#fff;opacity:0.30000000000000004"></rect><path d="M310.54,366.24H337a.92.92,0,0,1,.92.92V372a0,0,0,0,1,0,0H309.62a0,0,0,0,1,0,0v-4.86A.92.92,0,0,1,310.54,366.24Z" style="fill:#4F46E5"></path><path d="M310.54,366.24H337a.92.92,0,0,1,.92.92V372a0,0,0,0,1,0,0H309.62a0,0,0,0,1,0,0v-4.86A.92.92,0,0,1,310.54,366.24Z" style="fill:#fff;opacity:0.5"></path><polygon points="280.47 194.84 268.91 194.84 263.13 188.57 286.06 188.57 280.47 194.84" style="fill:#4F46E5"></polygon><rect x="263.13" y="184.47" width="22.93" height="4.1" style="fill:#4F46E5"></rect><polygon points="280.47 194.84 268.91 194.84 263.13 188.57 286.06 188.57 280.47 194.84" style="fill:#fff;opacity:0.30000000000000004"></polygon><rect x="263.13" y="184.47" width="22.93" height="4.1" style="fill:#fff;opacity:0.5"></rect><path d="M284.72,366.88q0-86.58-3.48-173H268q-3.45,86.39-3.48,173Z" style="fill:#4F46E5"></path><path d="M284.72,366.88q0-86.58-3.48-173H268q-3.45,86.39-3.48,173Z" style="fill:#fff;opacity:0.4"></path><path d="M284.72,366.88q0-86.58-3.48-173h-1q2.92,86.39,2.95,173Z" style="fill:#fff;opacity:0.2"></path><path d="M282,366.88q0-86.58-2.53-173h-2q1.44,86.39,1.46,173Z" style="fill:#fff;opacity:0.2"></path><path d="M277.07,366.88q0-86.58-.85-173H273q-.84,86.39-.85,173Z" style="fill:#fff;opacity:0.2"></path><path d="M270.34,366.88q0-86.58,1.46-173h-2q-2.5,86.39-2.53,173Z" style="fill:#fff;opacity:0.2"></path><path d="M266,366.88q0-86.58,2.94-173h-1q-3.45,86.39-3.48,173Z" style="fill:#fff;opacity:0.2"></path><path d="M281.24,194.59H268a.74.74,0,0,1-.74-.73h0a.74.74,0,0,1,.74-.74h13.28a.74.74,0,0,1,.73.74h0A.73.73,0,0,1,281.24,194.59Z" style="fill:#4F46E5"></path><path d="M281.24,194.59H268a.74.74,0,0,1-.74-.73h0a.74.74,0,0,1,.74-.74h13.28a.74.74,0,0,1,.73.74h0A.73.73,0,0,1,281.24,194.59Z" style="fill:#fff;opacity:0.4"></path><rect x="263.49" y="364.51" width="22.22" height="5.77" style="fill:#4F46E5"></rect><rect x="263.49" y="364.51" width="22.22" height="5.77" style="fill:#fff;opacity:0.30000000000000004"></rect><path d="M261.35,366.24h26.5a.92.92,0,0,1,.92.92V372a0,0,0,0,1,0,0H260.43a0,0,0,0,1,0,0v-4.86A.92.92,0,0,1,261.35,366.24Z" style="fill:#4F46E5"></path><path d="M261.35,366.24h26.5a.92.92,0,0,1,.92.92V372a0,0,0,0,1,0,0H260.43a0,0,0,0,1,0,0v-4.86A.92.92,0,0,1,261.35,366.24Z" style="fill:#fff;opacity:0.5"></path><polygon points="231.27 194.84 219.72 194.84 213.94 188.57 236.87 188.57 231.27 194.84" style="fill:#4F46E5"></polygon><rect x="213.93" y="184.47" width="22.93" height="4.1" style="fill:#4F46E5"></rect><polygon points="231.27 194.84 219.72 194.84 213.94 188.57 236.87 188.57 231.27 194.84" style="fill:#fff;opacity:0.30000000000000004"></polygon><rect x="213.93" y="184.47" width="22.93" height="4.1" style="fill:#fff;opacity:0.5"></rect><path d="M235.52,366.88q0-86.58-3.48-173H218.76q-3.44,86.39-3.48,173Z" style="fill:#4F46E5"></path><path d="M235.52,366.88q0-86.58-3.48-173H218.76q-3.44,86.39-3.48,173Z" style="fill:#fff;opacity:0.4"></path><path d="M235.52,366.88q0-86.58-3.48-173h-1q2.91,86.39,2.94,173Z" style="fill:#fff;opacity:0.2"></path><path d="M232.76,366.88q0-86.58-2.53-173h-2q1.44,86.39,1.46,173Z" style="fill:#fff;opacity:0.2"></path><path d="M227.87,366.88q0-86.58-.85-173h-3.24q-.84,86.39-.85,173Z" style="fill:#fff;opacity:0.2"></path><path d="M221.14,366.88q0-86.58,1.47-173h-2q-2.49,86.39-2.52,173Z" style="fill:#fff;opacity:0.2"></path><path d="M216.83,366.88q0-86.58,2.95-173h-1q-3.44,86.39-3.48,173Z" style="fill:#fff;opacity:0.2"></path><path d="M232,194.59H218.76a.73.73,0,0,1-.73-.73h0a.74.74,0,0,1,.73-.74H232a.74.74,0,0,1,.74.74h0A.74.74,0,0,1,232,194.59Z" style="fill:#4F46E5"></path><path d="M232,194.59H218.76a.73.73,0,0,1-.73-.73h0a.74.74,0,0,1,.73-.74H232a.74.74,0,0,1,.74.74h0A.74.74,0,0,1,232,194.59Z" style="fill:#fff;opacity:0.4"></path><rect x="214.29" y="364.51" width="22.22" height="5.77" style="fill:#4F46E5"></rect><rect x="214.29" y="364.51" width="22.22" height="5.77" style="fill:#fff;opacity:0.30000000000000004"></rect><path d="M212.15,366.24h26.5a.92.92,0,0,1,.92.92V372a0,0,0,0,1,0,0H211.23a0,0,0,0,1,0,0v-4.86A.92.92,0,0,1,212.15,366.24Z" style="fill:#4F46E5"></path><path d="M212.15,366.24h26.5a.92.92,0,0,1,.92.92V372a0,0,0,0,1,0,0H211.23a0,0,0,0,1,0,0v-4.86A.92.92,0,0,1,212.15,366.24Z" style="fill:#fff;opacity:0.5"></path><polygon points="182.07 194.84 170.52 194.84 164.74 188.57 187.67 188.57 182.07 194.84" style="fill:#4F46E5"></polygon><rect x="164.74" y="184.47" width="22.93" height="4.1" style="fill:#4F46E5"></rect><polygon points="182.07 194.84 170.52 194.84 164.74 188.57 187.67 188.57 182.07 194.84" style="fill:#fff;opacity:0.30000000000000004"></polygon><rect x="164.74" y="184.47" width="22.93" height="4.1" style="fill:#fff;opacity:0.5"></rect><path d="M186.32,366.88q0-86.58-3.47-173H169.56q-3.44,86.39-3.47,173Z" style="fill:#4F46E5"></path><path d="M186.32,366.88q0-86.58-3.47-173H169.56q-3.44,86.39-3.47,173Z" style="fill:#fff;opacity:0.4"></path><path d="M186.32,366.88q0-86.58-3.47-173h-1q2.91,86.39,2.95,173Z" style="fill:#fff;opacity:0.2"></path><path d="M183.56,366.88q0-86.58-2.53-173h-2q1.45,86.39,1.47,173Z" style="fill:#fff;opacity:0.2"></path><path d="M178.67,366.88q0-86.58-.85-173h-3.24q-.83,86.39-.84,173Z" style="fill:#fff;opacity:0.2"></path><path d="M171.94,366.88q0-86.58,1.47-173h-2q-2.5,86.39-2.53,173Z" style="fill:#fff;opacity:0.2"></path><path d="M167.63,366.88q0-86.58,3-173h-1q-3.44,86.39-3.47,173Z" style="fill:#fff;opacity:0.2"></path><path d="M182.84,194.59H169.57a.74.74,0,0,1-.74-.73h0a.74.74,0,0,1,.74-.74h13.27a.74.74,0,0,1,.74.74h0A.74.74,0,0,1,182.84,194.59Z" style="fill:#4F46E5"></path><path d="M182.84,194.59H169.57a.74.74,0,0,1-.74-.73h0a.74.74,0,0,1,.74-.74h13.27a.74.74,0,0,1,.74.74h0A.74.74,0,0,1,182.84,194.59Z" style="fill:#fff;opacity:0.4"></path><rect x="165.09" y="364.51" width="22.22" height="5.77" style="fill:#4F46E5"></rect><rect x="165.09" y="364.51" width="22.22" height="5.77" style="fill:#fff;opacity:0.30000000000000004"></rect><path d="M163,366.24h26.5a.92.92,0,0,1,.92.92V372a0,0,0,0,1,0,0H162a0,0,0,0,1,0,0v-4.86A.92.92,0,0,1,163,366.24Z" style="fill:#4F46E5"></path><path d="M163,366.24h26.5a.92.92,0,0,1,.92.92V372a0,0,0,0,1,0,0H162a0,0,0,0,1,0,0v-4.86A.92.92,0,0,1,163,366.24Z" style="fill:#fff;opacity:0.5"></path><polygon points="132.88 194.84 121.32 194.84 115.54 188.57 138.47 188.57 132.88 194.84" style="fill:#4F46E5"></polygon><rect x="115.54" y="184.47" width="22.93" height="4.1" style="fill:#4F46E5"></rect><polygon points="132.88 194.84 121.32 194.84 115.54 188.57 138.47 188.57 132.88 194.84" style="fill:#fff;opacity:0.30000000000000004"></polygon><rect x="115.54" y="184.47" width="22.93" height="4.1" style="fill:#fff;opacity:0.5"></rect><path d="M137.13,366.88q0-86.58-3.48-173H120.37q-3.45,86.39-3.48,173Z" style="fill:#4F46E5"></path><path d="M137.13,366.88q0-86.58-3.48-173H120.37q-3.45,86.39-3.48,173Z" style="fill:#fff;opacity:0.4"></path><path d="M137.13,366.88q0-86.58-3.48-173h-1q2.93,86.39,3,173Z" style="fill:#fff;opacity:0.2"></path><path d="M134.36,366.88q0-86.58-2.52-173h-2q1.45,86.39,1.47,173Z" style="fill:#fff;opacity:0.2"></path><path d="M129.48,366.88q0-86.58-.85-173h-3.24q-.84,86.39-.85,173Z" style="fill:#fff;opacity:0.2"></path><path d="M122.75,366.88q0-86.58,1.46-173h-2q-2.5,86.39-2.53,173Z" style="fill:#fff;opacity:0.2"></path><path d="M118.44,366.88q0-86.58,2.94-173h-1q-3.45,86.39-3.48,173Z" style="fill:#fff;opacity:0.2"></path><path d="M133.65,194.59H120.37a.74.74,0,0,1-.74-.73h0a.74.74,0,0,1,.74-.74h13.28a.74.74,0,0,1,.73.74h0A.73.73,0,0,1,133.65,194.59Z" style="fill:#4F46E5"></path><path d="M133.65,194.59H120.37a.74.74,0,0,1-.74-.73h0a.74.74,0,0,1,.74-.74h13.28a.74.74,0,0,1,.73.74h0A.73.73,0,0,1,133.65,194.59Z" style="fill:#fff;opacity:0.4"></path><rect x="115.9" y="364.51" width="22.22" height="5.77" style="fill:#4F46E5"></rect><rect x="115.9" y="364.51" width="22.22" height="5.77" style="fill:#fff;opacity:0.30000000000000004"></rect><path d="M113.76,366.24h26.5a.92.92,0,0,1,.92.92V372a0,0,0,0,1,0,0H112.84a0,0,0,0,1,0,0v-4.86A.92.92,0,0,1,113.76,366.24Z" style="fill:#4F46E5"></path><path d="M113.76,366.24h26.5a.92.92,0,0,1,.92.92V372a0,0,0,0,1,0,0H112.84a0,0,0,0,1,0,0v-4.86A.92.92,0,0,1,113.76,366.24Z" style="fill:#fff;opacity:0.5"></path><polygon points="83.68 194.84 72.13 194.84 66.34 188.57 89.28 188.57 83.68 194.84" style="fill:#4F46E5"></polygon><rect x="66.34" y="184.47" width="22.93" height="4.1" style="fill:#4F46E5"></rect><polygon points="83.68 194.84 72.13 194.84 66.34 188.57 89.28 188.57 83.68 194.84" style="fill:#fff;opacity:0.30000000000000004"></polygon><rect x="66.34" y="184.47" width="22.93" height="4.1" style="fill:#fff;opacity:0.5"></rect><path d="M87.93,366.88q0-86.58-3.48-173H71.17q-3.44,86.39-3.48,173Z" style="fill:#4F46E5"></path><path d="M87.93,366.88q0-86.58-3.48-173H71.17q-3.44,86.39-3.48,173Z" style="fill:#fff;opacity:0.4"></path><path d="M87.93,366.88q0-86.58-3.48-173h-1q2.91,86.39,2.94,173Z" style="fill:#fff;opacity:0.2"></path><path d="M85.17,366.88q0-86.58-2.53-173h-2q1.44,86.39,1.46,173Z" style="fill:#fff;opacity:0.2"></path><path d="M80.28,366.88q0-86.58-.85-173H76.19q-.84,86.39-.85,173Z" style="fill:#fff;opacity:0.2"></path><path d="M73.55,366.88q0-86.58,1.46-173H73q-2.49,86.39-2.53,173Z" style="fill:#fff;opacity:0.2"></path><path d="M69.24,366.88q0-86.58,3-173h-1q-3.44,86.39-3.48,173Z" style="fill:#fff;opacity:0.2"></path><path d="M84.45,194.59H71.17a.73.73,0,0,1-.73-.73h0a.74.74,0,0,1,.73-.74H84.45a.74.74,0,0,1,.74.74h0A.74.74,0,0,1,84.45,194.59Z" style="fill:#4F46E5"></path><path d="M84.45,194.59H71.17a.73.73,0,0,1-.73-.73h0a.74.74,0,0,1,.73-.74H84.45a.74.74,0,0,1,.74.74h0A.74.74,0,0,1,84.45,194.59Z" style="fill:#fff;opacity:0.4"></path><rect x="66.7" y="364.51" width="22.22" height="5.77" style="fill:#4F46E5"></rect><rect x="66.7" y="364.51" width="22.22" height="5.77" style="fill:#fff;opacity:0.30000000000000004"></rect><path d="M64.56,366.24h26.5a.92.92,0,0,1,.92.92V372a0,0,0,0,1,0,0H63.64a0,0,0,0,1,0,0v-4.86A.92.92,0,0,1,64.56,366.24Z" style="fill:#4F46E5"></path><path d="M64.56,366.24h26.5a.92.92,0,0,1,.92.92V372a0,0,0,0,1,0,0H63.64a0,0,0,0,1,0,0v-4.86A.92.92,0,0,1,64.56,366.24Z" style="fill:#fff;opacity:0.5"></path><path d="M63.72,164.92a2.74,2.74,0,0,1,1.34,1.56h373.2v-1.56Z" style="fill:#4F46E5"></path><path d="M63.72,164.92a2.74,2.74,0,0,1,1.34,1.56h373.2v-1.56Z" style="fill:#fff;opacity:0.5"></path><path d="M70.75,147.71H65a.87.87,0,0,0-.87.87v14.23a.87.87,0,0,0,.87.87h5.77a.87.87,0,0,0,.88-.87V148.58A.87.87,0,0,0,70.75,147.71ZM67.12,162H65.63V149.41h1.49Zm2.67,0H68.3V149.41h1.49Z" style="fill:#4F46E5"></path><path d="M70.75,147.71H65a.87.87,0,0,0-.87.87v14.23a.87.87,0,0,0,.87.87h5.77a.87.87,0,0,0,.88-.87V148.58A.87.87,0,0,0,70.75,147.71ZM67.12,162H65.63V149.41h1.49Zm2.67,0H68.3V149.41h1.49Z" style="fill:#fff;opacity:0.5"></path><path d="M96.61,147.71H90.84a.87.87,0,0,0-.88.87v14.23a.87.87,0,0,0,.88.87h5.77a.87.87,0,0,0,.87-.87V148.58A.87.87,0,0,0,96.61,147.71ZM93,162H91.49V149.41H93Zm2.67,0H94.16V149.41h1.49Z" style="fill:#4F46E5"></path><path d="M96.61,147.71H90.84a.87.87,0,0,0-.88.87v14.23a.87.87,0,0,0,.88.87h5.77a.87.87,0,0,0,.87-.87V148.58A.87.87,0,0,0,96.61,147.71ZM93,162H91.49V149.41H93Zm2.67,0H94.16V149.41h1.49Z" style="fill:#fff;opacity:0.5"></path><path d="M122.46,147.71h-5.77a.87.87,0,0,0-.88.87v14.23a.87.87,0,0,0,.88.87h5.77a.87.87,0,0,0,.87-.87V148.58A.87.87,0,0,0,122.46,147.71ZM118.83,162h-1.49V149.41h1.49Zm2.67,0H120V149.41h1.49Z" style="fill:#4F46E5"></path><path d="M122.46,147.71h-5.77a.87.87,0,0,0-.88.87v14.23a.87.87,0,0,0,.88.87h5.77a.87.87,0,0,0,.87-.87V148.58A.87.87,0,0,0,122.46,147.71ZM118.83,162h-1.49V149.41h1.49Zm2.67,0H120V149.41h1.49Z" style="fill:#fff;opacity:0.5"></path><path d="M148.31,147.71h-5.77a.87.87,0,0,0-.87.87v14.23a.87.87,0,0,0,.87.87h5.77a.87.87,0,0,0,.87-.87V148.58A.87.87,0,0,0,148.31,147.71ZM144.68,162h-1.49V149.41h1.49Zm2.67,0h-1.49V149.41h1.49Z" style="fill:#4F46E5"></path><path d="M148.31,147.71h-5.77a.87.87,0,0,0-.87.87v14.23a.87.87,0,0,0,.87.87h5.77a.87.87,0,0,0,.87-.87V148.58A.87.87,0,0,0,148.31,147.71ZM144.68,162h-1.49V149.41h1.49Zm2.67,0h-1.49V149.41h1.49Z" style="fill:#fff;opacity:0.5"></path><path d="M174.16,147.71h-5.77a.87.87,0,0,0-.87.87v14.23a.87.87,0,0,0,.87.87h5.77a.88.88,0,0,0,.88-.87V148.58A.88.88,0,0,0,174.16,147.71ZM170.53,162H169V149.41h1.49Zm2.67,0h-1.49V149.41h1.49Z" style="fill:#4F46E5"></path><path d="M174.16,147.71h-5.77a.87.87,0,0,0-.87.87v14.23a.87.87,0,0,0,.87.87h5.77a.88.88,0,0,0,.88-.87V148.58A.88.88,0,0,0,174.16,147.71ZM170.53,162H169V149.41h1.49Zm2.67,0h-1.49V149.41h1.49Z" style="fill:#fff;opacity:0.5"></path><path d="M200,147.71h-5.77a.87.87,0,0,0-.87.87v14.23a.87.87,0,0,0,.87.87H200a.87.87,0,0,0,.88-.87V148.58A.87.87,0,0,0,200,147.71ZM196.38,162h-1.49V149.41h1.49Zm2.67,0h-1.49V149.41h1.49Z" style="fill:#4F46E5"></path><path d="M200,147.71h-5.77a.87.87,0,0,0-.87.87v14.23a.87.87,0,0,0,.87.87H200a.87.87,0,0,0,.88-.87V148.58A.87.87,0,0,0,200,147.71ZM196.38,162h-1.49V149.41h1.49Zm2.67,0h-1.49V149.41h1.49Z" style="fill:#fff;opacity:0.5"></path><path d="M225.87,147.71h-5.78a.87.87,0,0,0-.87.87v14.23a.87.87,0,0,0,.87.87h5.78a.87.87,0,0,0,.87-.87V148.58A.87.87,0,0,0,225.87,147.71ZM222.24,162h-1.49V149.41h1.49Zm2.67,0h-1.49V149.41h1.49Z" style="fill:#4F46E5"></path><path d="M225.87,147.71h-5.78a.87.87,0,0,0-.87.87v14.23a.87.87,0,0,0,.87.87h5.78a.87.87,0,0,0,.87-.87V148.58A.87.87,0,0,0,225.87,147.71ZM222.24,162h-1.49V149.41h1.49Zm2.67,0h-1.49V149.41h1.49Z" style="fill:#fff;opacity:0.5"></path><path d="M251.72,147.71H246a.87.87,0,0,0-.88.87v14.23a.87.87,0,0,0,.88.87h5.77a.87.87,0,0,0,.87-.87V148.58A.87.87,0,0,0,251.72,147.71ZM248.09,162H246.6V149.41h1.49Zm2.67,0h-1.49V149.41h1.49Z" style="fill:#4F46E5"></path><path d="M251.72,147.71H246a.87.87,0,0,0-.88.87v14.23a.87.87,0,0,0,.88.87h5.77a.87.87,0,0,0,.87-.87V148.58A.87.87,0,0,0,251.72,147.71ZM248.09,162H246.6V149.41h1.49Zm2.67,0h-1.49V149.41h1.49Z" style="fill:#fff;opacity:0.5"></path><path d="M277.57,147.71H271.8a.87.87,0,0,0-.87.87v14.23a.87.87,0,0,0,.87.87h5.77a.87.87,0,0,0,.87-.87V148.58A.87.87,0,0,0,277.57,147.71ZM273.94,162h-1.49V149.41h1.49Zm2.67,0h-1.49V149.41h1.49Z" style="fill:#4F46E5"></path><path d="M277.57,147.71H271.8a.87.87,0,0,0-.87.87v14.23a.87.87,0,0,0,.87.87h5.77a.87.87,0,0,0,.87-.87V148.58A.87.87,0,0,0,277.57,147.71ZM273.94,162h-1.49V149.41h1.49Zm2.67,0h-1.49V149.41h1.49Z" style="fill:#fff;opacity:0.5"></path><path d="M303.42,147.71h-5.77a.87.87,0,0,0-.87.87v14.23a.87.87,0,0,0,.87.87h5.77a.88.88,0,0,0,.88-.87V148.58A.88.88,0,0,0,303.42,147.71ZM299.79,162H298.3V149.41h1.49Zm2.67,0H301V149.41h1.49Z" style="fill:#4F46E5"></path><path d="M303.42,147.71h-5.77a.87.87,0,0,0-.87.87v14.23a.87.87,0,0,0,.87.87h5.77a.88.88,0,0,0,.88-.87V148.58A.88.88,0,0,0,303.42,147.71ZM299.79,162H298.3V149.41h1.49Zm2.67,0H301V149.41h1.49Z" style="fill:#fff;opacity:0.5"></path><path d="M329.27,147.71H323.5a.87.87,0,0,0-.87.87v14.23a.87.87,0,0,0,.87.87h5.77a.87.87,0,0,0,.88-.87V148.58A.87.87,0,0,0,329.27,147.71ZM325.64,162h-1.49V149.41h1.49Zm2.67,0h-1.49V149.41h1.49Z" style="fill:#4F46E5"></path><path d="M329.27,147.71H323.5a.87.87,0,0,0-.87.87v14.23a.87.87,0,0,0,.87.87h5.77a.87.87,0,0,0,.88-.87V148.58A.87.87,0,0,0,329.27,147.71ZM325.64,162h-1.49V149.41h1.49Zm2.67,0h-1.49V149.41h1.49Z" style="fill:#fff;opacity:0.5"></path><path d="M355.13,147.71h-5.78a.87.87,0,0,0-.87.87v14.23a.87.87,0,0,0,.87.87h5.78a.87.87,0,0,0,.87-.87V148.58A.87.87,0,0,0,355.13,147.71ZM351.5,162H350V149.41h1.49Zm2.67,0h-1.49V149.41h1.49Z" style="fill:#4F46E5"></path><path d="M355.13,147.71h-5.78a.87.87,0,0,0-.87.87v14.23a.87.87,0,0,0,.87.87h5.78a.87.87,0,0,0,.87-.87V148.58A.87.87,0,0,0,355.13,147.71ZM351.5,162H350V149.41h1.49Zm2.67,0h-1.49V149.41h1.49Z" style="fill:#fff;opacity:0.5"></path><path d="M381,147.71h-5.77a.87.87,0,0,0-.88.87v14.23a.87.87,0,0,0,.88.87H381a.87.87,0,0,0,.87-.87V148.58A.87.87,0,0,0,381,147.71ZM377.35,162h-1.49V149.41h1.49Zm2.67,0h-1.49V149.41H380Z" style="fill:#4F46E5"></path><path d="M381,147.71h-5.77a.87.87,0,0,0-.88.87v14.23a.87.87,0,0,0,.88.87H381a.87.87,0,0,0,.87-.87V148.58A.87.87,0,0,0,381,147.71ZM377.35,162h-1.49V149.41h1.49Zm2.67,0h-1.49V149.41H380Z" style="fill:#fff;opacity:0.5"></path><path d="M432.68,147.71h-5.77a.87.87,0,0,0-.87.87v14.23a.87.87,0,0,0,.87.87h5.77a.88.88,0,0,0,.88-.87V148.58A.88.88,0,0,0,432.68,147.71ZM429.05,162h-1.49V149.41h1.49Zm2.67,0h-1.49V149.41h1.49Z" style="fill:#4F46E5"></path><path d="M432.68,147.71h-5.77a.87.87,0,0,0-.87.87v14.23a.87.87,0,0,0,.87.87h5.77a.88.88,0,0,0,.88-.87V148.58A.88.88,0,0,0,432.68,147.71ZM429.05,162h-1.49V149.41h1.49Zm2.67,0h-1.49V149.41h1.49Z" style="fill:#fff;opacity:0.5"></path><path d="M406.83,147.71h-5.77a.87.87,0,0,0-.87.87v14.23a.87.87,0,0,0,.87.87h5.77a.87.87,0,0,0,.87-.87V148.58A.87.87,0,0,0,406.83,147.71ZM403.2,162h-1.49V149.41h1.49Zm2.67,0h-1.49V149.41h1.49Z" style="fill:#4F46E5"></path><path d="M406.83,147.71h-5.77a.87.87,0,0,0-.87.87v14.23a.87.87,0,0,0,.87.87h5.77a.87.87,0,0,0,.87-.87V148.58A.87.87,0,0,0,406.83,147.71ZM403.2,162h-1.49V149.41h1.49Zm2.67,0h-1.49V149.41h1.49Z" style="fill:#fff;opacity:0.5"></path><path d="M202.46,147v-7.61c-.09-.57-.14-1.13-.18-1.69a2.54,2.54,0,0,1-.1-.68,4,4,0,0,1-.68-.48c-.08-.08-.14-.16-.21-.24H48.05v10.9H202.4Z" style="fill:#4F46E5"></path><path d="M218.88,136.25c-.07.09-.15.16-.23.25a4.71,4.71,0,0,1-.88,4.3v.93a3.28,3.28,0,0,1,0,4.33v1.09h228v-10.9Z" style="fill:#4F46E5"></path><path d="M218.88,136.25c-.07.09-.15.16-.23.25a4.71,4.71,0,0,1-.88,4.3v.93a3.28,3.28,0,0,1,0,4.33v1.09h228v-10.9Z" style="fill:#fff;opacity:0.5"></path><path d="M202.46,147v-7.61c-.09-.57-.14-1.13-.18-1.69a2.54,2.54,0,0,1-.1-.68,4,4,0,0,1-.68-.48c-.08-.08-.14-.16-.21-.24H48.05v10.9H202.4Z" style="fill:#fff;opacity:0.5"></path></g><g id="freepik--character-1--inject-46"><path d="M194.92,196.63c10.84-8.46,20.16-15.6,19.67-23.18-.4-6.11-18.46-17.58-18.46-17.58s-5.9-6-6.26-6a28.11,28.11,0,0,0-7.35,1.27c-1.19.49,4.85,6.24,7.35,7.69,2.28,1.31,3.58.66,3.58.66s12.77,12.25,12.61,16S193.22,186,193.22,186s-2.21,2.53-.94,7.06C193.08,195.91,194.92,196.63,194.92,196.63Z" style="fill:#eec1bb"></path><path d="M156.12,190.67a.25.25,0,0,1-.22-.12,2.45,2.45,0,0,1-.33-2.32c.43-.92,1.62-1.54,3.66-1.9s3.26-1.1,3.86-2.28c.75-1.48.42-3.7-1-6.6-.89-1.82-1-3.41-.33-4.7,1.16-2.25,4.23-2.78,4.36-2.8a.24.24,0,0,1,.29.2.25.25,0,0,1-.21.29s-2.95.52-4,2.54a4.68,4.68,0,0,0,.34,4.25c1.51,3.09,1.83,5.39,1,7.05-.66,1.3-2.08,2.16-4.22,2.54-1.83.33-2.94.87-3.29,1.62a2,2,0,0,0,.31,1.86.25.25,0,0,1-.09.34A.27.27,0,0,1,156.12,190.67Z" style="fill:#263238"></path><path d="M165.7,169.58a8.56,8.56,0,0,0-1.62,8.49c1.76,5,.76,8.11-5.39,10.28s11.72,19.78,24.3,10.33,8.57-11.07,6.18-13.51-.4-3,1.63-6.58,5.13-12.92-2.18-18.49S165.75,163.49,165.7,169.58Z" style="fill:#263238"></path><path d="M157.79,397.79l4.56,2.68a86.36,86.36,0,0,1,6.92-8.21h0c1.32-1.4,2.71-2.94,4.15-4.6,2.89-3.31,6-7.09,9.28-11.16l2.93-3.67C197,358.48,209.36,341.61,214,330.21c1.43-3.55,2.13-6.56,1.82-8.81-.94-6.81-3.59-17.06-6.61-27C204.58,279.29,199.4,265,199.4,265L186.68,286.5s3.91,9.31,7.46,19.22c3.5,9.74,6.66,20.06,5.49,22.75-.11.27-.25.58-.41.91-2.12,4.37-8,14.29-14.61,25.24-.66,1.1-1.34,2.21-2,3.33-3.57,5.84-7.27,11.85-10.71,17.37L168,381.56C162.16,391,157.79,397.79,157.79,397.79Z" style="fill:#eec1bb"></path><path d="M185.89,372.82c-6,7.57-11.8,14.43-16.1,19.43-.61-3.07-1.23-6.71-1.72-10.69,5-8,11.05-17.82,16.58-26.94A104.25,104.25,0,0,0,185.89,372.82Z" style="opacity:0.2;isolation:isolate"></path><path d="M163.19,310.46c1.57,10.74,3.82,20.47,5.28,26.27.87,3.49,1.47,5.54,1.47,5.54a289.76,289.76,0,0,0,1.94,33.05c.48,4.32,1,8.47,1.54,12.33,2,14.28,4.06,24.53,4.06,24.53l5.43-.71-.21-35L182.59,358l-.15-25.23-.06-4.4-.26-19.18-.39-28.3-18.87-8.49C160.34,283.1,161.28,297.52,163.19,310.46Z" style="fill:#eec1bb"></path><path d="M158.21,394.81c.55-.4,5.25,6.63,5.25,6.63s-1,7.34,1.07,12.07-2,4.33-5.42-.16l-8.46-11.08C148.21,399.09,152.45,399,158.21,394.81Z" style="fill:#263238"></path><path d="M165.05,406.75c-1.06-.25-1.76-3.29-1.88-3.89a.14.14,0,0,1,0-.09h0a.14.14,0,0,1,0-.07h0l.05-.06h0l.08,0c.09,0,2.08-.66,3.15,0a1.28,1.28,0,0,1,.64.89.77.77,0,0,1-.23.87c-.37.25-1.08,0-1.79-.28a3.39,3.39,0,0,1,1,1.63,1,1,0,0,1-.87,1.1Zm.1-.43s.18,0,.39-.23a.46.46,0,0,0,.09-.37c-.09-.69-1.14-1.71-1.88-2.34C164.08,404.69,164.65,406.2,165.15,406.32Zm-1.22-3.42c1.13.7,2.39,1.26,2.7,1.05.1-.07.07-.29,0-.41a.85.85,0,0,0-.42-.6,2.19,2.19,0,0,0-1-.21A6,6,0,0,0,163.93,402.9Z" style="fill:#4F46E5"></path><path d="M175.56,408.72c0-.69,8.46-.15,8.46-.15s5.2,5.28,10.24,6.47,2.23,4.21-3.41,4.21H176.9C172.89,419.25,175.4,415.84,175.56,408.72Z" style="fill:#263238"></path><path d="M185,409.66a.13.13,0,0,1-.07-.05h0l0-.06h0a.25.25,0,0,1,0-.07h0a.22.22,0,0,1,0-.09c0-.11.75-2.06,1.89-2.53a1.26,1.26,0,0,1,1.09,0c.38.18.57.42.55.71s-.62.88-1.31,1.25a3.42,3.42,0,0,1,1.89.21.88.88,0,0,1,.45.57.82.82,0,0,1-.2.9,1.21,1.21,0,0,1-.75.2A10.61,10.61,0,0,1,185,409.66Zm.77-.14c1.24.53,2.79,1,3.19.67,0,0,.14-.12,0-.45a.5.5,0,0,0-.24-.3,2.14,2.14,0,0,0-1-.18A10,10,0,0,0,185.74,409.52Zm1.17-2.25a3.64,3.64,0,0,0-1.45,1.81c1.25-.47,2.46-1.13,2.48-1.51,0-.12-.19-.23-.3-.28a.94.94,0,0,0-.39-.1A.84.84,0,0,0,186.91,407.27Z" style="fill:#4F46E5"></path><path d="M183.77,240.46a1.53,1.53,0,1,0,1.53-1.53A1.53,1.53,0,0,0,183.77,240.46Z" style="fill:#fff;opacity:0.6000000000000001;isolation:isolate"></path><path d="M211.58,283.67l-23.17,8.24-.78-2.12-.95-2.62-.4,3.78-.3,2.89H157.85s-.09-.81-.17-2.26a142.7,142.7,0,0,1,1.13-27.71,99.35,99.35,0,0,1,6-23.2c.24-.59.48-1.17.73-1.74l30.18-2.33.25,1.45,1.9,10.84,3.6,9.11,8.9,22.5Z" style="fill:#4F46E5"></path><path d="M172.12,241.67s-3.43,18.91-13.31,22.2a99.35,99.35,0,0,1,6-23.2Z" style="opacity:0.2"></path><path d="M201.43,258c-7.91-3.86-7.78-19.07-7.78-19.07l2.28-.88,1.9,10.84Z" style="opacity:0.2"></path><path d="M186.28,291l-.3,2.89H157.85s-.09-.81-.17-2.26Z" style="opacity:0.2"></path><polygon points="211.58 283.68 188.41 291.91 187.63 289.79 210.33 280.5 211.58 283.68" style="opacity:0.2"></polygon><path d="M186.68,287.18l.6-7.71,6.37-12.5s2,7.21-1.16,13.63S186.68,287.18,186.68,287.18Z" style="opacity:0.2"></path><polygon points="165.5 238.93 164.22 242.07 196.35 240.46 195.68 236.6 165.5 238.93" style="opacity:0.5;isolation:isolate"></polygon><path d="M182.46,237.76l.37,3.53a.73.73,0,0,0,.77.64l4.71-.37a.73.73,0,0,0,.66-.79l-.33-3.47a.72.72,0,0,0-.77-.65l-4.75.32A.72.72,0,0,0,182.46,237.76Z" style="fill:#fff"></path><polygon points="174.58 238.19 174.2 242.34 173.04 242.34 173.22 238.19 174.58 238.19" style="fill:#4F46E5"></polygon><polygon points="191.51 236.92 191.97 241.27 193.05 241.27 192.67 236.74 191.51 236.92" style="fill:#4F46E5"></polygon><path d="M176.49,165.14a.31.31,0,0,1-.13,0,.26.26,0,0,1-.08-.34c4-6.7.9-10,.77-10.18a.25.25,0,0,1,.35-.35c.15.15,3.56,3.74-.69,10.78A.25.25,0,0,1,176.49,165.14Z" style="fill:#263238"></path><path d="M195.29,236.84l-30.18,2.09s-.41-16.16-2.82-24.58c-.78-2.72-1.76-5.78-3-9.33-.53-1.51-1.11-3.1-1.74-4.8s-1.21-3.26-1.9-5a99.81,99.81,0,0,1,12.62-2.73c4.51-.72,8.92-1,13.38-2A63.23,63.23,0,0,0,193.22,186a51.63,51.63,0,0,1,3,11.59C196.78,202.84,196.52,217.64,195.29,236.84Z" style="fill:#4F46E5"></path><path d="M195.29,236.84l-30.18,2.09s-.41-16.16-2.82-24.58c-.78-2.72-1.76-5.78-3-9.33-.53-1.51-1.11-3.1-1.74-4.8s-1.21-3.26-1.9-5a99.81,99.81,0,0,1,12.62-2.73c4.51-.72,8.92-1,13.38-2A63.23,63.23,0,0,0,193.22,186a51.63,51.63,0,0,1,3,11.59C196.78,202.84,196.52,217.64,195.29,236.84Z" style="fill:#fff;opacity:0.8;isolation:isolate"></path><path d="M156.36,195c-6.44,2.56-17.11,21.12-15.92,28.62,1,6,20,15.78,20,15.78s-4.56,5.42-4.33,5.69,4.11,3,5.25,2.37,4.24-6.38,4.55-9-3.14-2.95-3.14-2.95-13.86-11-14-14.73,10.5-15.88,10.5-15.88,1.8-2.22.12-6.6C158.3,195.5,156.36,195,156.36,195Z" style="fill:#eec1bb"></path><path d="M180.92,197.56c-7.62-1.37-9.75-4.76-9.75-4.76,5.09-4.34,1.46-12.49,1.46-12.49l9.13,2.19a27.14,27.14,0,0,0-.55,3.86c-.36,5.6,2.17,5.78,2.17,5.78C184.84,195.26,180.92,197.56,180.92,197.56Z" style="fill:#eec1bb"></path><path d="M182.72,181.47a29,29,0,0,0,0,3.91c-4.53-.57-9.41-4.67-9.41-4.67Z" style="opacity:0.2;isolation:isolate"></path><path d="M178,155.74c8-.52,10.88,3.6,12,11.83,1.41,10.29-.4,17.78-10.58,16.23C165.63,181.69,164.69,156.61,178,155.74Z" style="fill:#eec1bb"></path><path d="M184.82,167.46a16.55,16.55,0,0,0,2.55,3.18,2.22,2.22,0,0,1-2.06,1Z" style="fill:#d4827d"></path><path d="M179.86,167.13c.06.66-.25,1.22-.69,1.26s-.84-.46-.9-1.12.25-1.22.69-1.26S179.8,166.47,179.86,167.13Z" style="fill:#263238"></path><path d="M178.78,166.06l1.38-.69S179.56,166.63,178.78,166.06Z" style="fill:#263238"></path><path d="M188,166.27c.06.65-.25,1.22-.69,1.26s-.84-.47-.9-1.12.25-1.23.69-1.27S188,165.61,188,166.27Z" style="fill:#263238"></path><path d="M187,165.19l1.38-.69S187.73,165.77,187,165.19Z" style="fill:#263238"></path><path d="M176,163.4a.4.4,0,0,1-.21-.07.38.38,0,0,1-.09-.51,4.54,4.54,0,0,1,3.72-1.59.37.37,0,0,1,0,.73,3.85,3.85,0,0,0-3.09,1.28A.36.36,0,0,1,176,163.4Z" style="fill:#263238"></path><path d="M188.47,161.69a.41.41,0,0,1-.18-.05,3.42,3.42,0,0,0-2.91-.44.36.36,0,0,1-.48-.18.37.37,0,0,1,.18-.48,4.08,4.08,0,0,1,3.57.47.37.37,0,0,1-.18.68Z" style="fill:#263238"></path><path d="M170.13,169.84s3.32-6.84,2.42-11.89c0,0,15.48-7.54,17.32,8.55,0,0,.61-14.43-13.2-13.85s-12.44,20.75-4.92,26.3C171.75,179,168.08,174.11,170.13,169.84Z" style="fill:#263238"></path><path d="M171.55,171.44a3.53,3.53,0,0,0-4-3c-2.46.44-3.32,5.62,2.95,6.44C171.4,175,171.84,174.13,171.55,171.44Z" style="fill:#eec1bb"></path><path d="M184.32,175.54a4.23,4.23,0,0,1-4-2.42.34.34,0,0,1,.16-.47.35.35,0,0,1,.47.16,3.82,3.82,0,0,0,4.29,1.95.35.35,0,0,1,.16.68A4.47,4.47,0,0,1,184.32,175.54Z" style="fill:#263238"></path><path d="M189,160.7s-1.21-7.24-6.45-9.54-15.94,3.09-17.8,8,1,10.44,1,10.44,1.47-6.1,20.39-12.23A7.84,7.84,0,0,1,189,160.7Z" style="fill:#4F46E5"></path><path d="M189,160.7s-1.21-7.24-6.45-9.54-15.94,3.09-17.8,8,1,10.44,1,10.44,1.47-6.1,20.39-12.23A7.84,7.84,0,0,1,189,160.7Z" style="opacity:0.30000000000000004;isolation:isolate"></path><path d="M169.86,164.92a79.14,79.14,0,0,1,16.22-7.56h0A7.85,7.85,0,0,1,189,160.7h0c.45-.22,7-3.46,8.12-6.11a1.44,1.44,0,0,0-.21-1.65c-.81-.9-16.54,2.28-16.54,2.28S171.37,157.89,169.86,164.92Z" style="fill:#4F46E5"></path><path d="M186.09,157.35A7.85,7.85,0,0,1,189,160.7h0c.45-.22,7-3.46,8.12-6.11.22-.8,0-1.37-.47-1.49C194.9,152.72,186.09,157.35,186.09,157.35Z" style="opacity:0.30000000000000004;isolation:isolate"></path><path d="M190.36,162.93s-1.76-.64-5,.52h0a3.65,3.65,0,0,0-2.92.33,16.43,16.43,0,0,0-6,1.16l-6.25,2.37V168l6.38-1.64c.52,1.57,1.95,4,4.1,3.52,2.86-.59,2.68-3.55,2.47-4.93.6-.71,1.74-.81,2-.27.24,1.23,1,4.05,4,3.89S190.36,162.93,190.36,162.93Z" style="fill:#263238"></path><g style="opacity:0.30000000000000004"><path d="M189.29,163.33,188,168s1.77.6,2.25-.82a8.67,8.67,0,0,0-.13-3.83A2.55,2.55,0,0,0,189.29,163.33Z" style="fill:#fff"></path><path d="M188.88,163.29,187.63,168s-.8-.24-.81-.54l1-4Z" style="fill:#fff"></path><path d="M181.29,164.48,180,169.13s1.78.6,2.25-.83a8.64,8.64,0,0,0-.13-3.82A2.53,2.53,0,0,0,181.29,164.48Z" style="fill:#fff"></path><path d="M180.88,164.44l-1.25,4.69s-.79-.24-.8-.55l1-4Z" style="fill:#fff"></path></g></g><g id="freepik--character-2--inject-46"><g id="freepik--group--inject-46"><path d="M269.37,167.86v8.35a.9.9,0,0,1-.91.9H253.9a.9.9,0,0,1-.9-.9v-8.35a.9.9,0,0,1,.9-.9h14.56A.9.9,0,0,1,269.37,167.86Z" style="fill:#263238"></path><path d="M269.37,167.86v8.35a.9.9,0,0,1-.91.9H254.9a.9.9,0,0,1-.9-.9v-8.35a.9.9,0,0,1,.9-.9h13.56A.9.9,0,0,1,269.37,167.86Z" style="fill:#fff;opacity:0.1"></path><rect x="255.26" y="167.45" width="12.86" height="9.16" style="fill:#4F46E5"></rect><rect x="255.26" y="167.45" width="12.86" height="9.16" style="fill:#fff;opacity:0.8;isolation:isolate"></rect><path d="M324.25,183s-15.92,6.74-21.67,7.34-26.12-18.92-26.12-18.92l-9.3-.53s-.75-6.69,1.48-7.84,9.47,2.74,10.52,3.81,21.62,12.76,22.7,13.41S321.75,172,321.75,172Z" style="fill:#e4897b"></path><path d="M324.25,183s-15.92,6.74-21.67,7.34-26.12-18.92-26.12-18.92l-9.3-.53s-.75-6.69,1.48-7.84,9.47,2.74,10.52,3.81,21.62,12.76,22.7,13.41S321.75,172,321.75,172Z" style="opacity:0.1;isolation:isolate"></path><path d="M339.66,412.18s-17.07-92-17.27-143.8l17.31-.55s-2.48,47.54,7.42,144Z" style="fill:#e4897b"></path><path d="M297.08,411.49s-4.66-93.42,2-144.82l17.23,1.76s-8.79,46.79-11.84,143.69Z" style="fill:#e4897b"></path><path d="M338.54,410.3h9.55a.71.71,0,0,1,.67.54l1.55,7a1.17,1.17,0,0,1-.89,1.38.76.76,0,0,1-.26,0c-3.09-.05-5.34-.24-9.22-.24-2.39,0-9.6.25-12.9.25s-3.73-3.26-2.38-3.56c6.06-1.32,10.62-3.15,12.56-4.89A1.94,1.94,0,0,1,338.54,410.3Z" style="fill:#263238"></path><path d="M296,410.05h9.55a.71.71,0,0,1,.67.54l1.55,7a1.17,1.17,0,0,1-.89,1.38.76.76,0,0,1-.26,0c-3.09-.05-5.34-.24-9.22-.24-2.39,0-9.6.25-12.9.25s-3.73-3.26-2.38-3.56c6.06-1.32,10.62-3.15,12.56-4.89A1.94,1.94,0,0,1,296,410.05Z" style="fill:#263238"></path><path d="M345.79,323.94l-20.63,2.89c-.3-2.08-.58-4-.84-5.77-.57-3.88-1.17-9-1.78-14.9-1-9.58-2-21.08-2.84-32.16-4.36,11.7-7.08,31.43-8.77,52.14l-17.44-3.41c1.38-41,6-76.33,8.4-89h41.72C343.67,238.77,344.31,297.21,345.79,323.94Z" style="fill:#4F46E5"></path><path d="M319.7,274c.88,11.08,1.87,22.6,2.84,32.18,1.42-13.83,3.16-23.69,3.16-23.69s1.63-1.34,6.11-8.49,0-20.5,0-20.5C332,265.86,319.7,274,319.7,274Z" style="opacity:0.2;isolation:isolate"></path><path d="M320.92,138.8s-11.06-2.9-12.93-5.64,6.88-3.12,12.79-.66S320.92,138.8,320.92,138.8Z" style="fill:#4F46E5"></path><path d="M320.92,138.8s-11.06-2.9-12.93-5.64,6.88-3.12,12.79-.66S320.92,138.8,320.92,138.8Z" style="fill:#fff;opacity:0.6000000000000001;isolation:isolate"></path><path d="M317,151.65a8.38,8.38,0,0,0,.34,1.11,10.84,10.84,0,0,0,3.89,5.18,10.25,10.25,0,0,0,9.93,1.26,10.12,10.12,0,0,0,3.26-2.25c3.93-4,3.83-8.57,4.27-16.34A10.65,10.65,0,0,0,324,130C316.4,133.08,315.35,144.65,317,151.65Z" style="fill:#e4897b"></path><path d="M321.27,157.94a10.25,10.25,0,0,0,9.93,1.26,11.57,11.57,0,0,0-1.38-2.64A15.42,15.42,0,0,0,321.27,157.94Z" style="opacity:0.2;isolation:isolate"></path><path d="M336.91,168c-3.83,3.48-13.21,2.19-13.21,2.19s-5.86-1.6-4.63-3.43c3.45-.57,5.12-2.18,5.81-4.24a10,10,0,0,0,.35-3.94,20.71,20.71,0,0,0-.29-2.2l11.6-8.59C335,153.49,333.16,163.92,336.91,168Z" style="fill:#e4897b"></path><path d="M326.24,126.62s-2.06-1.26-5.57,2c-3,2.79,0,5-1.77,8.6s.62,7.1.62,7.1,1.71,3.68,4.68,3.45c0,0,2.42,2.93,2,6s2.54,4.34,8.48,4.26a18.35,18.35,0,0,0,9.09-9.34,25.25,25.25,0,0,0,1.69-9.29,12.42,12.42,0,0,0-3.43-9C338.11,126,328.67,123.72,326.24,126.62Z" style="fill:#263238"></path><path d="M325.68,146.13a5,5,0,0,1-2.58,3.45c-1.59.67-2.63-1.56-2.4-3.9.22-2.07,1.29-5,3-4.6S326.24,144,325.68,146.13Z" style="fill:#e4897b"></path><path d="M345.3,144.36s-11.84,1.55-28.82-7.82c0,0,1.76-11.22,11.79-12,5.09-.39,15.28,2.71,17.66,8.73C347,136,345.3,144.36,345.3,144.36Z" style="fill:#4F46E5"></path><path d="M345.3,144.36s-11.84,1.55-28.82-7.82c0,0,1.76-11.22,11.79-12,5.09-.39,15.28,2.71,17.66,8.73C347,136,345.3,144.36,345.3,144.36Z" style="opacity:0.30000000000000004;isolation:isolate"></path><path d="M344.59,142.09s.25-3.86-.59-4.35-4.83-1.31-5.5-.71-1.51,4.19-1.51,4.19S341.43,142.72,344.59,142.09Z" style="fill:#263238"></path><path d="M320.92,138.8s-3.77-2.36-3.66-4.58L308,133.16S308.93,136.07,320.92,138.8Z" style="fill:#4F46E5"></path><path d="M320.92,138.8s-3.77-2.36-3.66-4.58L308,133.16S308.93,136.07,320.92,138.8Z" style="fill:#fff;opacity:0.6000000000000001;isolation:isolate"></path><path d="M344.64,235.14s-1.61-17.78.78-44.82c.62-6.95,1.5-14.52,2.74-22.56,0,0-22.69-4.91-38.51,0,0,0-1.67,8.45-3.35,21.3h0c-1.55,11.79-4.65,29.31-4.94,45.37Z" style="fill:#263238"></path><path d="M331.2,171.69s-7.34-9.56-16.75-5.1a18.68,18.68,0,0,1,8.38,8.61Z" style="fill:#4F46E5"></path><path d="M338.56,166.27s4.28,1,4.37,5.42l8.78,1.57S350.71,167,338.56,166.27Z" style="fill:#4F46E5"></path><path d="M315.59,212.44s-9.43-1.34-11.7-6.33l-1.56,4.16s1.65,11.41,13.26,15.37Z" style="fill:#4F46E5"></path><path d="M331.2,171.69s-7.34-9.56-16.75-5.1a18.68,18.68,0,0,1,8.38,8.61Z" style="fill:#fff;opacity:0.6000000000000001;isolation:isolate"></path><path d="M338.56,166.27s4.28,1,4.37,5.42l8.78,1.57S350.71,167,338.56,166.27Z" style="fill:#fff;opacity:0.6000000000000001;isolation:isolate"></path><path d="M315.59,212.44s-9.43-1.34-11.7-6.33l-1.56,4.16s1.65,11.41,13.26,15.37Z" style="fill:#fff;opacity:0.6000000000000001;isolation:isolate"></path><path d="M326.75,170.75s26-3,32.62,4.45c0,0,6.45,51-2.33,59.94s-36.18,9.5-41.45,0S313.11,173.09,326.75,170.75Z" style="fill:#4F46E5"></path><path d="M326.75,170.75s26-3,32.62,4.45c0,0,6.45,51-2.33,59.94s-36.18,9.5-41.45,0S313.11,173.09,326.75,170.75Z" style="fill:#fff;opacity:0.8;isolation:isolate"></path><path d="M320.67,175.92s-1.58-4.65.72-5.17,20.66-5.65,40.27,2.6c0,0,4.48,23.06,0,27s-22.2,5.5-28.47-5.05S325.48,177.1,320.67,175.92Z" style="fill:#4F46E5"></path><path d="M331.2,209s-5,23.75-2.38,26.12,17.64,3.21,18.3,1.6,4.37-22.72,3.17-24.3S331.2,209,331.2,209Z" style="fill:#4F46E5"></path><path d="M352.78,212.44V236.6s6.15-2,8.88-4.63,0-21.1,0-21.63S352.78,212.44,352.78,212.44Z" style="fill:#4F46E5"></path><path d="M320.67,175.92s-1.58-4.65.72-5.17,20.66-5.65,40.27,2.6c0,0,4.48,23.06,0,27s-22.2,5.5-28.47-5.05S325.48,177.1,320.67,175.92Z" style="fill:#fff;opacity:0.7000000000000001;isolation:isolate"></path><path d="M331.2,209s-5,23.75-2.38,26.12,17.64,3.21,18.3,1.6,4.37-22.72,3.17-24.3S331.2,209,331.2,209Z" style="fill:#fff;opacity:0.7000000000000001;isolation:isolate"></path><path d="M352.78,212.44V236.6s6.15-2,8.88-4.63,0-21.1,0-21.63S352.78,212.44,352.78,212.44Z" style="fill:#fff;opacity:0.7000000000000001;isolation:isolate"></path><path d="M307.76,184.12s-14.78,9-20.38,10.41-28.59-14.93-28.59-14.93l-9.27.82s-1.72-6.5.32-8,9.76,1.34,11,2.25,23.24,9.48,24.41,10,18.48-11,18.48-11Z" style="fill:#e4897b"></path><path d="M312.94,167s4.18,9-3,20.2l-14.15,7.16-6.94-14.51S304.62,167.81,312.94,167Z" style="fill:#263238"></path></g></g></svg>