<?xml version="1.0"?>
<svg xmlns="http://www.w3.org/2000/svg" xmlns:xlink="http://www.w3.org/1999/xlink" xmlns:svgjs="http://svgjs.com/svgjs" version="1.1" width="512" height="512" x="0" y="0" viewBox="0 0 512.693 512.693" style="enable-background:new 0 0 512 512" xml:space="preserve"><g><g xmlns="http://www.w3.org/2000/svg"><path d="m314.623 114.519c9.666-12.373 15.058-27.695 15.058-43.618 0-39.095-31.806-70.901-70.901-70.901s-70.901 31.806-70.901 70.901c0 15.383 5.071 30.291 14.17 42.467-85.848 23.814-149.051 102.648-149.051 195.976 0 112.127 91.222 203.349 203.349 203.349s203.349-91.222 203.349-203.349c0-91.88-61.258-169.708-145.073-194.825zm-111.744-43.618c0-30.824 25.077-55.901 55.901-55.901s55.901 25.077 55.901 55.901c0 14.83-5.925 29.009-16.351 39.463-6.745-1.421-13.611-2.511-20.582-3.243 13.025-6.849 21.933-20.51 21.933-36.22 0-1.42-.077-2.866-.227-4.298-.434-4.12-4.134-7.105-8.244-6.674-4.12.434-7.107 4.125-6.674 8.244.096.913.145 1.831.145 2.728 0 14.282-11.619 25.901-25.901 25.901s-25.901-11.619-25.901-25.901 11.619-25.901 25.901-25.901c4.083 0 8.001.935 11.645 2.779 3.697 1.871 8.208.392 10.079-3.304 1.871-3.695.392-8.208-3.304-10.079-5.764-2.917-11.961-4.396-18.42-4.396-22.553 0-40.901 18.348-40.901 40.901 0 15.417 8.577 28.866 21.208 35.835-6.993.591-13.885 1.537-20.66 2.82-9.915-10.364-15.548-24.248-15.548-38.655zm53.468 426.792c-103.856 0-188.349-84.493-188.349-188.349s84.493-188.349 188.349-188.349 188.349 84.493 188.349 188.349-84.493 188.349-188.349 188.349z" fill="#3182ce" data-original="#000000" style=""/><path d="m378.454 186.418c-2.938-2.919-7.687-2.904-10.606.035-2.919 2.938-2.903 7.687.035 10.606 30.188 29.989 46.813 69.865 46.813 112.284 0 87.314-71.035 158.349-158.349 158.349s-158.349-71.034-158.349-158.348 71.035-158.349 158.349-158.349c31.43 0 61.827 9.235 87.903 26.708 3.442 2.307 8.1 1.386 10.405-2.056 2.306-3.441 1.385-8.1-2.056-10.405-28.555-19.133-61.838-29.247-96.252-29.247-95.585 0-173.349 77.764-173.349 173.349s77.764 173.349 173.349 173.349 173.349-77.764 173.349-173.349c0-46.444-18.198-90.1-51.242-122.926z" fill="#3182ce" data-original="#000000" style=""/><path d="m177.224 397.894c1.713 0 3.445-.434 5.044-1.324l101.778-56.618c1.21-.673 2.21-1.668 2.889-2.875l57.054-101.323c2.297-4.081 1.616-9.046-1.695-12.357s-8.277-3.993-12.357-1.695l-101.323 57.054c-1.184.667-2.164 1.642-2.836 2.821l-57.489 100.868v.001c-2.318 4.068-1.662 9.038 1.632 12.366 2.006 2.027 4.632 3.082 7.303 3.082zm101.49-76.788-34.129-34.129 78.114-43.985zm-44.772-23.56 34.129 34.128-78.455 43.643z" fill="#3182ce" data-original="#000000" style=""/><path d="m256.347 243.386c.565 0 1.126.021 1.687.041l.502.017c4.169.129 7.605-3.112 7.74-7.252s-3.112-7.605-7.252-7.74l-.469-.016c-.734-.025-1.468-.049-2.208-.049-44.835 0-81.312 36.477-81.312 81.312 0 .626.02 1.247.041 1.868l.019.563c.118 4.066 3.451 7.282 7.493 7.282.074 0 .148-.001.222-.003 4.141-.121 7.399-3.575 7.278-7.715l-.02-.634c-.016-.453-.032-.905-.032-1.361-.001-36.565 29.746-66.313 66.311-66.313z" fill="#3182ce" data-original="#000000" style=""/><path d="m337.658 309.698c0-1.126-.029-2.305-.093-3.709-.186-4.138-3.69-7.322-7.829-7.156-4.138.187-7.341 3.691-7.155 7.83.053 1.174.077 2.139.077 3.036 0 36.564-29.747 66.312-66.312 66.312-1.155 0-2.364-.035-3.694-.108-4.147-.229-7.672 2.943-7.898 7.08-.226 4.136 2.944 7.672 7.08 7.898 1.605.088 3.082.13 4.512.13 44.836-.001 81.312-36.477 81.312-81.313z" fill="#3182ce" data-original="#000000" style=""/><path d="m147.176 297.341h2.022c3.618 0 6.721-2.583 7.376-6.142 8.853-48.071 50.813-82.961 99.773-82.961 15.143 0 29.709 3.256 43.294 9.677 3.744 1.771 8.216.17 9.986-3.576 1.77-3.745.169-8.216-3.576-9.986-15.604-7.376-32.327-11.116-49.704-11.116-54.201 0-100.93 37.26-113.299 89.42-12.815 1.991-22.654 13.1-22.654 26.464 0 13.269 9.699 24.315 22.379 26.42 1.829 8.063 4.518 15.914 8.021 23.412 1.274 2.726 3.977 4.327 6.799 4.327 1.063 0 2.144-.228 3.17-.708 3.752-1.753 5.373-6.217 3.619-9.97-3.784-8.098-6.476-16.67-8-25.478-.622-3.595-3.742-6.221-7.39-6.221h-1.817c-6.497 0-11.782-5.286-11.782-11.782s5.286-11.78 11.783-11.78z" fill="#3182ce" data-original="#000000" style=""/><path d="m351.413 255.907c-3.735 1.79-5.313 6.269-3.522 10.005 3.85 8.033 6.618 16.541 8.229 25.287.655 3.559 3.758 6.142 7.376 6.142h2.729c6.497 0 11.782 5.286 11.782 11.782s-5.286 11.782-11.782 11.782h-2.524c-3.649 0-6.768 2.626-7.39 6.221-4.278 24.723-17.578 46.913-37.45 62.484-3.26 2.555-3.833 7.269-1.277 10.529 1.479 1.888 3.682 2.875 5.908 2.875 1.618 0 3.249-.521 4.621-1.597 21.191-16.605 35.872-39.781 41.783-65.762 13.038-1.794 23.111-13.009 23.111-26.532 0-13.619-10.217-24.896-23.389-26.568-1.904-7.966-4.653-15.722-8.2-23.125-1.79-3.736-6.268-5.314-10.005-3.523z" fill="#3182ce" data-original="#000000" style=""/><path d="m205.319 414.403c15.975 7.8 33.143 11.754 51.027 11.754 14.478 0 28.618-2.633 42.029-7.825 3.863-1.496 5.782-5.839 4.286-9.702-1.495-3.862-5.838-5.781-9.702-4.286-11.676 4.521-23.995 6.813-36.613 6.813-15.584 0-30.538-3.443-44.446-10.234-3.721-1.817-8.213-.273-10.03 3.449-1.817 3.723-.273 8.214 3.449 10.031z" fill="#3182ce" data-original="#000000" style=""/></g></g></svg>
