<svg xmlns="http://www.w3.org/2000/svg" xmlns:xlink="http://www.w3.org/1999/xlink" viewBox="0 0 500 500"><defs><clipPath id="freepik--clip-path--inject-64"><path d="M231.22,337.26a50.35,50.35,0,0,0-8.75-1.38c-.95-3.51-15.49-2.91-36.2-6S154,328.7,154,328.7c-6.1-5.75-16.7,5.14-17.28,7s3.28,2,3.28,2a2.92,2.92,0,0,1-3.27.74,1.75,1.75,0,0,0-1.93.06s-15.57-8.17-13.24-11.6c2.76-4.06,19.22-14.91,19.22-14.91-.91-7.69-8.15-5.91-8.15-5.91-16.92,8.43-24.73,15.35-24.73,21.57,0,12.41,28.22,29.41,28.22,29.41,5.95,7.47,13.65,4.9,13.65,4.9s34.33,7.88,61.62,7.93c9.26,0,15.66-.6,20.37-1.67C233.86,354.29,232.78,344,231.22,337.26Z" style="fill:#4F46E5;stroke:#263238;stroke-linecap:round;stroke-linejoin:round"></path></clipPath><clipPath id="freepik--clip-path-2--inject-64"><path d="M200.74,320.16c-5.66-2.08-29.14,3.68-34.74,3.82s-12,4.72-12,4.72,11.6-2,32.3,1.14c1.93.29,3.78.54,5.59.78l2.39-.78,4.67,4.6C202.5,329.3,207,333,207,333,207.15,328.09,206.4,322.24,200.74,320.16Z" style="fill:#4F46E5;stroke:#263238;stroke-linecap:round;stroke-linejoin:round"></path></clipPath><clipPath id="freepik--clip-path-3--inject-64"><path d="M409.83,171.56c0-20.8-22.73-37.67-50.77-37.67a65,65,0,0,0-23.67,4.35,20.57,20.57,0,0,0,3.95-11.83c0-17.06-23.23-30.89-51.88-30.89-17.51,0-33,5.18-42.37,13.09a69.28,69.28,0,0,0-28.36-5.76c-26.84,0-48.61,13.71-48.61,30.61a20.08,20.08,0,0,0,1.36,7.19c-34,.39-61.47,19.47-61.47,43,0,22.45,25,40.86,57,42.81,2.41,19.61,32,35.12,68.13,35.12,23.63,0,44.45-6.63,56.72-16.69a113.28,113.28,0,0,0,23.76,2.47c37,0,67-17,67-38.09a22.13,22.13,0,0,0-.29-3.46C397.73,199.81,409.83,186.74,409.83,171.56Z" style="fill:#fff;stroke:#263238;stroke-linecap:round;stroke-linejoin:round"></path></clipPath><clipPath id="freepik--clip-path-4--inject-64"><path d="M149.13,221.25s70.62,5.44,94.34.11c0,0,38,4.58,48.16-1.14,0,0,35.6,1.55,36.78-3.83,0,0,20.66,1.85,22.18-1.68,0,0,20.86,1.18,29.92-3.69L149.13,221.25Z" style="fill:#4F46E5;stroke:#263238;stroke-linecap:round;stroke-linejoin:round"></path></clipPath><clipPath id="freepik--clip-path-5--inject-64"><path d="M219.78,129a23.31,23.31,0,0,0-2.55.15c-.91-3.06-5.18-5.38-10.32-5.38-.39,0-.77,0-1.14,0a19.2,19.2,0,0,0-8.32-1.77c-7.12,0-12.89,3.34-12.89,7.47a4.26,4.26,0,0,0,.24,1.41c-.37,0-.73,0-1.11,0-4.47,0-8.1,1.79-8.1,4s3.63,4,8.1,4h36.09c5.78,0,10.46-2.21,10.46-4.93S225.56,129,219.78,129Z" style="fill:#4F46E5"></path></clipPath><clipPath id="freepik--clip-path-6--inject-64"><path d="M383.62,147.2a21.7,21.7,0,0,0-2.59.16c-.92-3.1-5.24-5.45-10.44-5.45-.39,0-.77,0-1.15,0a19.44,19.44,0,0,0-8.41-1.78c-7.21,0-13,3.38-13,7.55a4.61,4.61,0,0,0,.24,1.43c-.36,0-.74,0-1.12,0-4.52,0-8.19,1.81-8.19,4s3.67,4,8.19,4h36.52c5.84,0,10.57-2.23,10.57-5S389.46,147.2,383.62,147.2Z" style="fill:#4F46E5"></path></clipPath><clipPath id="freepik--clip-path-7--inject-64"><path d="M272.65,126.05a26.52,26.52,0,0,0-6.34.74,4.78,4.78,0,0,0,.61-2.29c0-3.79-4.63-6.86-10.33-6.86a13.32,13.32,0,0,0-7.38,2.06c-2.07-4.07-8.42-7-15.93-7-9.2,0-16.65,4.43-16.65,9.89a6.56,6.56,0,0,0,1.27,3.8,19.87,19.87,0,0,0-3.52-.31c-6.33,0-11.47,2.87-11.47,6.4s5.14,6.4,11.47,6.4h58.27c7.49,0,13.57-2.86,13.57-6.4S280.14,126.05,272.65,126.05Z" style="fill:#4F46E5"></path></clipPath><clipPath id="freepik--clip-path-8--inject-64"><path d="M288.51,139a14,14,0,0,0-3.42.4,2.61,2.61,0,0,0,.33-1.24c0-2-2.49-3.7-5.57-3.7a7.21,7.21,0,0,0-4,1.11c-1.12-2.19-4.54-3.79-8.59-3.79-5,0-9,2.39-9,5.33a3.49,3.49,0,0,0,.69,2,11.62,11.62,0,0,0-1.91-.16c-3.41,0-6.18,1.54-6.18,3.45s2.77,3.45,6.18,3.45h31.43c4,0,7.32-1.55,7.32-3.45S292.55,139,288.51,139Z" style="fill:#4F46E5"></path></clipPath><clipPath id="freepik--clip-path-9--inject-64"><path d="M280.47,185.89c-1.53-6-3.39-8.93-4.79-10.36L258,178.92a75,75,0,0,1-8.18,3c-2.46.5-10,.48-10,.48l2.84,20.26c14.14.92,16.76-4.94,21.16-8.58C266.19,192.1,274.51,188.41,280.47,185.89Z" style="fill:#4F46E5;stroke:#263238;stroke-linecap:round;stroke-linejoin:round"></path></clipPath><clipPath id="freepik--clip-path-10--inject-64"><path d="M191.55,178.9a68.51,68.51,0,0,0,4.66-10.39c1.25-3.67,1.06-7.59,3.1-10.44,0,0-1.5,2.46-7.71,5.63-4.93,2.53-11.54,6.94-11.54,6.94l-2.36-5.3s24.22-19.66,27.75-16.76c4.12,3.38-2.6,29.11-2.6,29.11Z" style="fill:#fff;stroke:#263238;stroke-linecap:round;stroke-linejoin:round"></path></clipPath><clipPath id="freepik--clip-path-11--inject-64"><path d="M285.91,155.82c-7.68.88-36.08,28.28-36.08,28.28-20-5.61-21.43-3.75-28.57-5-6.48-1.12-11.59-5.11-26.18-2.66a25.77,25.77,0,0,0-6.91,2l-.67-.27s3.71-5,3.85-5.57-7.76-5-7.76-5,.34-2.16-.12-2.42c-.86-.49-1.83-.45-3.88-.32s-6-1.29-6-1.29-3,3.85-3.18,4.27-2.33,3-2.51,3.3,3.84,9.91,8.78,10.08c3.78.13,6.53,1.58,7,2.69a4.7,4.7,0,0,1,.38,2s49.09,25.08,69.68,14.31c4.53-2.37,8-8.21,11.82-11.4a138.43,138.43,0,0,0,21.87-23.1c7,6.52,29.65,15.65,29.65,15.65l3.57-5.61S293.59,154.94,285.91,155.82Z" style="fill:#fff;stroke:#263238;stroke-linecap:round;stroke-linejoin:round"></path></clipPath><clipPath id="freepik--clip-path-12--inject-64"><path d="M268.63,167.21c-9.43,7.86-18.8,16.89-18.8,16.89-3.25-.91-6-1.62-8.37-2.18.16,2.77.66,14.5-1.66,21,5.31.08,10.12-.68,13.95-2.68,4.53-2.37,8-8.21,11.82-11.39a140.11,140.11,0,0,0,13.09-12.55A19.85,19.85,0,0,0,268.63,167.21Z" style="fill:#4F46E5;stroke:#263238;stroke-linecap:round;stroke-linejoin:round"></path></clipPath><clipPath id="freepik--clip-path-13--inject-64"><path d="M268.63,167.21c-9.43,7.86-18.8,16.89-18.8,16.89-3.25-.91-6-1.62-8.37-2.18.16,2.77.66,14.5-1.66,21,5.31.08,10.12-.68,13.95-2.68,4.53-2.37,8-8.21,11.82-11.39a140.11,140.11,0,0,0,13.09-12.55A19.85,19.85,0,0,0,268.63,167.21Z" style="fill:none"></path></clipPath><clipPath id="freepik--clip-path-14--inject-64"><path d="M155.48,169.4s41,28.16,93.47,27.36c29.3-.45,62.18-14.38,93.47-36.55C342.42,160.21,253.52,293.81,155.48,169.4Z" style="fill:#4F46E5;stroke:#263238;stroke-linecap:round;stroke-linejoin:round"></path></clipPath><clipPath id="freepik--clip-path-15--inject-64"><path d="M101.06,75.4S88.08,79,79.63,85c0,0,5.91,2.07,36.53-4.56,0,0-19,9.33-18.08,12.16s27.41-6.7,27.41-6.7-14.42,8.88-12.89,11.37,21-6.71,21-6.71-12.21,9.14-10.47,11.52S141,95.13,141,95.13s-9.25,9.4-8.15,11.09,15.71-8.43,15.71-8.43a40.8,40.8,0,0,0-17.8-21.18A38.91,38.91,0,0,0,101.06,75.4Z" style="fill:#4F46E5;stroke:#263238;stroke-linecap:round;stroke-linejoin:round"></path></clipPath><clipPath id="freepik--clip-path-16--inject-64"><path d="M120.06,57.77s-13.28-2.29-23.47-.52c0,0,4.46,4.4,35,11.52,0,0-21.12.32-21.54,3.25s27.64,5.67,27.64,5.67-16.83,1.86-16.51,4.77,21.79,2.9,21.79,2.9-14.94,3-14.39,5.93,19.18,1.42,19.18,1.42-12.39,4.52-12.11,6.53,17.8-.9,17.8-.9a40.84,40.84,0,0,0-7-26.76A38.89,38.89,0,0,0,120.06,57.77Z" style="fill:#4F46E5;stroke:#263238;stroke-linecap:round;stroke-linejoin:round"></path></clipPath><clipPath id="freepik--clip-path-17--inject-64"><path d="M197.21,64.85s13.48.13,23.18,3.7c0,0-5.17,3.53-36.46,5.06,0,0,20.73,4.1,20.62,7.06s-28.22.62-28.22.62,16.23,4.85,15.4,7.65-22-1-22-1,14.16,5.66,13.1,8.41-19.12-2-19.12-2,11.37,6.68,10.74,8.6-17.35-4.08-17.35-4.08a40.81,40.81,0,0,1,11.7-25.07A38.94,38.94,0,0,1,197.21,64.85Z" style="fill:#4F46E5;stroke:#263238;stroke-linecap:round;stroke-linejoin:round"></path></clipPath><clipPath id="freepik--clip-path-18--inject-64"><path d="M211.79,85.05S224,90.69,231.42,97.93c0,0-6.17,1.09-35.33-10.34,0,0,17.22,12.24,15.9,14.9s-26-11-26-11,12.81,11.07,10.9,13.28-19.6-10-19.6-10,10.59,11,8.49,13-16.6-9.7-16.6-9.7,7.64,10.75,6.28,12.24-14.16-10.83-14.16-10.83a40.83,40.83,0,0,1,21-18.07A38.94,38.94,0,0,1,211.79,85.05Z" style="fill:#4F46E5;stroke:#263238;stroke-linecap:round;stroke-linejoin:round"></path></clipPath><clipPath id="freepik--clip-path-19--inject-64"><path d="M398.66,86.68s13.15,3.67,21.71,9.71c0,0-6,2.09-37-4.62,0,0,19.2,9.45,18.31,12.31s-27.76-6.79-27.76-6.79,14.6,9,13.05,11.52S365.77,102,365.77,102s12.36,9.25,10.6,11.66-18.17-7-18.17-7,9.38,9.51,8.26,11.23-15.91-8.55-15.91-8.55a41.37,41.37,0,0,1,18-21.44A39.44,39.44,0,0,1,398.66,86.68Z" style="fill:#4F46E5;stroke:#263238;stroke-linecap:round;stroke-linejoin:round"></path></clipPath><clipPath id="freepik--clip-path-20--inject-64"><path d="M379.42,68.83s13.46-2.32,23.77-.53c0,0-4.51,4.46-35.4,11.67,0,0,21.39.32,21.81,3.29s-28,5.74-28,5.74,17.05,1.88,16.73,4.83-22.08,2.94-22.08,2.94,15.13,3.07,14.58,6-19.43,1.44-19.43,1.44,12.55,4.58,12.27,6.61-18-.91-18-.91a41.33,41.33,0,0,1,7.11-27.1A39.4,39.4,0,0,1,379.42,68.83Z" style="fill:#4F46E5;stroke:#263238;stroke-linecap:round;stroke-linejoin:round"></path></clipPath><clipPath id="freepik--clip-path-21--inject-64"><path d="M301.29,76s-13.65.13-23.47,3.75c0,0,5.23,3.56,36.92,5.12,0,0-21,4.15-20.88,7.15s28.58.63,28.58.63S306,97.56,306.85,100.4s22.24-1.07,22.24-1.07-14.34,5.73-13.26,8.52,19.36-2.07,19.36-2.07-11.52,6.76-10.88,8.71,17.58-4.13,17.58-4.13A41.42,41.42,0,0,0,330,85,39.42,39.42,0,0,0,301.29,76Z" style="fill:#4F46E5;stroke:#263238;stroke-linecap:round;stroke-linejoin:round"></path></clipPath><clipPath id="freepik--clip-path-22--inject-64"><path d="M286.53,96.45s-12.4,5.72-19.88,13c0,0,6.24,1.11,35.78-10.47,0,0-17.44,12.4-16.11,15.08S312.64,103,312.64,103s-13,11.22-11,13.46,19.85-10.09,19.85-10.09-10.73,11.1-8.61,13.21,16.82-9.83,16.82-9.83-7.74,10.89-6.36,12.4,14.34-11,14.34-11a41.35,41.35,0,0,0-21.22-18.3A39.45,39.45,0,0,0,286.53,96.45Z" style="fill:#4F46E5;stroke:#263238;stroke-linecap:round;stroke-linejoin:round"></path></clipPath></defs><g id="freepik--background-simple--inject-64"><path d="M272.7,406.87S63.82,421.38,48.84,338.24c-12-66.48,92.32-33,103.8-70.25s-67-106.86,8-131.49,70.92,71.3,120.27,75S361,127.29,411.76,173.87c58.49,53.64-58.49,85.64-43.83,120s96.61-.84,84.83,50.63C441.51,393.64,272.7,406.87,272.7,406.87Z" style="fill:#4F46E5"></path><path d="M272.7,406.87S63.82,421.38,48.84,338.24c-12-66.48,92.32-33,103.8-70.25s-67-106.86,8-131.49,70.92,71.3,120.27,75S361,127.29,411.76,173.87c58.49,53.64-58.49,85.64-43.83,120s96.61-.84,84.83,50.63C441.51,393.64,272.7,406.87,272.7,406.87Z" style="fill:#fff;opacity:0.7000000000000001"></path></g><g id="freepik--Plants--inject-64"><path d="M78.82,372.93a3.91,3.91,0,0,0,5.07,2c3.73-1.59,9.2-4.56,10.06-8.61,1.32-6.23-6.39-2.25-6.78-5.18s9-4.63,9-9.07-5.85-.94-6.42-3,6-4.36,6.42-9.24-4.34-.24-4.15-2.27,4.34-12,.75-12.22-7.17,9.88-9.06,11.64-4.53-3.05-6.41.58,4.71,13.21,1.88,16c-2.11,2.1-3-3.07-5.47-.71S76.13,367.11,78.82,372.93Z" style="fill:#4F46E5"></path><path d="M78.82,372.93a3.91,3.91,0,0,0,5.07,2c3.73-1.59,9.2-4.56,10.06-8.61,1.32-6.23-6.39-2.25-6.78-5.18s9-4.63,9-9.07-5.85-.94-6.42-3,6-4.36,6.42-9.24-4.34-.24-4.15-2.27,4.34-12,.75-12.22-7.17,9.88-9.06,11.64-4.53-3.05-6.41.58,4.71,13.21,1.88,16c-2.11,2.1-3-3.07-5.47-.71S76.13,367.11,78.82,372.93Z" style="opacity:0.2"></path><path d="M79.22,389.51a193.45,193.45,0,0,1,11.33-59.23" style="fill:none;stroke:#263238;stroke-linecap:round;stroke-linejoin:round;stroke-width:0.75px"></path><path d="M73.05,368.58a4,4,0,0,1-5.13,2c-4.87-2-13.19-6.07-14.42-11.85-1.75-8.25,8.46-3,9-6.87s-12-6.13-12-12,7.75-1.26,8.5-3.94-8-5.77-8.5-12.23,5.75-.32,5.5-3-5.75-15.91-1-16.17,9.5,13.08,12,15.41,6-4,8.5.76-6.25,17.5-2.5,21.25c2.79,2.79,3.93-4.07,7.25-.94C83.85,344.39,76.45,361.34,73.05,368.58Z" style="fill:#4F46E5"></path><path d="M73.05,368.58a4,4,0,0,1-5.13,2c-4.87-2-13.19-6.07-14.42-11.85-1.75-8.25,8.46-3,9-6.87s-12-6.13-12-12,7.75-1.26,8.5-3.94-8-5.77-8.5-12.23,5.75-.32,5.5-3-5.75-15.91-1-16.17,9.5,13.08,12,15.41,6-4,8.5.76-6.25,17.5-2.5,21.25c2.79,2.79,3.93-4.07,7.25-.94C83.85,344.39,76.45,361.34,73.05,368.58Z" style="fill:#fff;opacity:0.2"></path><path d="M73,389.51s0-37.09-15-78.43" style="fill:none;stroke:#263238;stroke-linecap:round;stroke-linejoin:round;stroke-width:0.75px"></path><path d="M87.75,380.76H64.12A21.89,21.89,0,0,0,54,399.23c0,8.15,4.45,23.31,11,32.36H86.82c6.6-9,11-24.21,11-32.36A21.91,21.91,0,0,0,87.75,380.76Z" style="fill:#fff;stroke:#263238;stroke-linecap:round;stroke-linejoin:round;stroke-width:0.75px"></path><path d="M419.6,407.36s2.71-54,27.51-73.17c0,0-20.23,33.67-22.05,73.8Z" style="fill:#4F46E5"></path><path d="M421.12,410.29s-2.37-47-23.94-63.65c0,0,17.6,29.29,19.18,64.2Z" style="fill:#4F46E5"></path><path d="M421.12,410.29s-2.37-47-23.94-63.65c0,0,17.6,29.29,19.18,64.2Z" style="opacity:0.2"></path><path d="M422.56,409.82S427,353,403.61,329.65c0,0,16.64,37.9,13.15,80.09Z" style="fill:#4F46E5"></path><path d="M422.56,409.82S427,353,403.61,329.65c0,0,16.64,37.9,13.15,80.09Z" style="fill:#fff;opacity:0.2"></path><path d="M409.79,404.1h23.63c6.08,2.1,10.11,5.79,10.11,10,0,4.4-4.44,12.6-11,17.5H410.71c-6.59-4.9-11-13.1-11-17.5C399.67,409.89,403.7,406.2,409.79,404.1Z" style="fill:#fff;stroke:#263238;stroke-linecap:round;stroke-linejoin:round;stroke-width:0.75px"></path></g><g id="freepik--Character--inject-64"><path d="M155,284.72H345a32.34,32.34,0,0,1,32.34,32.34v70.45a0,0,0,0,1,0,0H122.63a0,0,0,0,1,0,0V317.06A32.34,32.34,0,0,1,155,284.72Z" style="fill:#999;stroke:#263238;stroke-linecap:round;stroke-linejoin:round"></path><path d="M351.5,300.72h-203a9.88,9.88,0,0,0-9.87,9.87v60.92H361.37V310.59A9.88,9.88,0,0,0,351.5,300.72Z" style="opacity:0.2"></path><path d="M137.75,311.9l4.08-2.23a9.57,9.57,0,0,0,5,1.32c2.38-.28,9.27-.51,9.65-1.78s-1.29-1.73-3.15-1.36c1.15-.63,1.75-1.15,1.75-1.77,0-1.05-1.88-1.19-1.88-1.19.06-1.1-1.3-1.78-1.3-1.78a2.43,2.43,0,0,0-2.34-.53c.58-.39-.62-1.75-3.24-1.91s-7.6,3.95-7.6,3.95l-5.88,2.53Z" style="fill:#fff;stroke:#263238;stroke-linecap:round;stroke-linejoin:round"></path><path d="M152.78,308.55c-1.06.47-2.49.75-2.79.29-.51-.78,1.78-1.7,2.42-2.54s-4.22,2.62-4.51.8c0,0-1.31-.51-.87-1.39s1.62-1.33,2-2-2.37,2-2.79.95,1.57-1.55,1.29-2.1-3,3.43-5.22,3.16" style="fill:none;stroke:#263238;stroke-linecap:round;stroke-linejoin:round"></path><path d="M148.38,306.56a5.92,5.92,0,0,0,3-2.17" style="fill:none;stroke:#263238;stroke-linecap:round;stroke-linejoin:round"></path><path d="M143.25,306.88s3.37-.54,5.36,1.14" style="fill:none;stroke:#263238;stroke-linecap:round;stroke-linejoin:round"></path><path d="M231.22,337.26a50.35,50.35,0,0,0-8.75-1.38c-.95-3.51-15.49-2.91-36.2-6S154,328.7,154,328.7c-6.1-5.75-16.7,5.14-17.28,7s3.28,2,3.28,2a2.92,2.92,0,0,1-3.27.74,1.75,1.75,0,0,0-1.93.06s-15.57-8.17-13.24-11.6c2.76-4.06,19.22-14.91,19.22-14.91-.91-7.69-8.15-5.91-8.15-5.91-16.92,8.43-24.73,15.35-24.73,21.57,0,12.41,28.22,29.41,28.22,29.41,5.95,7.47,13.65,4.9,13.65,4.9s34.33,7.88,61.62,7.93c9.26,0,15.66-.6,20.37-1.67C233.86,354.29,232.78,344,231.22,337.26Z" style="fill:#4F46E5"></path><g style="clip-path:url(#freepik--clip-path--inject-64)"><path d="M222.12,356.69c-1.34,2.71-14.36,8.58-34.8,6.48s.94-5.6,0-7.37-14.06,1.47-27.46,1.07-16.8-14.6-19.43-13.86-5-2.46-6.26,1.13c-1.71,5-20.7-17.18-24-15.7-1.28.57-1.44,2.08-1.16,3.73,5.17,11.64,27.13,24.87,27.13,24.87,5.95,7.47,13.65,4.9,13.65,4.9s34.33,7.88,61.62,7.93c2.67,0,5.09,0,7.32-.14l.77-.44C220.67,364.54,221.54,360.36,222.12,356.69Z" style="opacity:0.30000000000000004"></path><path d="M156.38,332.07a35.19,35.19,0,0,0-12.07,3.27.51.51,0,0,1-.61-.8c2.84-2.9,8-6.74,12.9-3.4A.51.51,0,0,1,156.38,332.07Z" style="opacity:0.30000000000000004"></path></g><path d="M231.22,337.26a50.35,50.35,0,0,0-8.75-1.38c-.95-3.51-15.49-2.91-36.2-6S154,328.7,154,328.7c-6.1-5.75-16.7,5.14-17.28,7s3.28,2,3.28,2a2.92,2.92,0,0,1-3.27.74,1.75,1.75,0,0,0-1.93.06s-15.57-8.17-13.24-11.6c2.76-4.06,19.22-14.91,19.22-14.91-.91-7.69-8.15-5.91-8.15-5.91-16.92,8.43-24.73,15.35-24.73,21.57,0,12.41,28.22,29.41,28.22,29.41,5.95,7.47,13.65,4.9,13.65,4.9s34.33,7.88,61.62,7.93c9.26,0,15.66-.6,20.37-1.67C233.86,354.29,232.78,344,231.22,337.26Z" style="fill:none;stroke:#263238;stroke-linecap:round;stroke-linejoin:round"></path><path d="M138.75,358.17c1.63.66,3.85,1.51,6.23,2.27" style="fill:none;stroke:#263238;stroke-linecap:round;stroke-linejoin:round"></path><path d="M143.7,346.52a16.66,16.66,0,0,1,1.28,1.9" style="fill:none;stroke:#263238;stroke-linecap:round;stroke-linejoin:round"></path><path d="M136.91,340a44.64,44.64,0,0,1,5.33,4.77" style="fill:none;stroke:#263238;stroke-linecap:round;stroke-linejoin:round"></path><path d="M142,335.87a29.79,29.79,0,0,1,9.29-6" style="fill:none;stroke:#263238;stroke-linecap:round;stroke-linejoin:round"></path><polygon points="354.57 337.3 362.8 341.48 358.9 348.19 350.33 345.21 354.57 337.3" style="fill:#fff;stroke:#263238;stroke-linecap:round;stroke-linejoin:round"></polygon><path d="M357.05,347.07l3.12-6.4a1.86,1.86,0,0,1,.71-.76s4.85-3.4,6.7-5,5.63-6.46,7.79-7.58a1.4,1.4,0,0,1,.48-.12,1.59,1.59,0,0,1,1.65,2.2l-9.87,22.77a2.48,2.48,0,0,1-3.57,1.13l-6.33-3.88A1.83,1.83,0,0,1,357.05,347.07Z" style="fill:#4F46E5;stroke:#263238;stroke-linecap:round;stroke-linejoin:round"></path><path d="M377.5,329.41a1.59,1.59,0,0,0-1.65-2.2,1.4,1.4,0,0,0-.48.12c1.69,1.79-8,21.18-10.63,26.25a2.47,2.47,0,0,0,2.89-1.4Z" style="fill:#fff;stroke:#263238;stroke-linecap:round;stroke-linejoin:round"></path><path d="M297.67,309.57c-9.51.1-42.41,18.63-55.68,26.33a14,14,0,0,1-10.64,1.39,51.1,51.1,0,0,0-8.88-1.41,1.78,1.78,0,0,0-.57-.83c1.48,4.51,2.7,14.52-2.56,34.65,19.88-1,21.74-7.17,29.33-11.46,22.27-12.58,50.17-33,50.17-33,8.17,8.63,54,21.91,54,21.91a18.31,18.31,0,0,0,4.25-9.43S309.67,309.44,297.67,309.57Z" style="fill:#263238;stroke:#263238;stroke-linecap:round;stroke-linejoin:round"></path><path d="M145.76,328c1.52-1.78,5.53-6.48,5.76-7.17.28-.86-11-8.29-11-8.29s.74-3.16.09-3.6c-1.23-.82-2.67-.88-5.73-.91s-8.77-2.58-8.77-2.58-4.9,5.38-5.2,6-3.8,4.19-4.1,4.63,4.6,15.16,11.92,16a16.69,16.69,0,0,1,8.22,3.12A23.88,23.88,0,0,1,145.76,328Z" style="fill:#fff"></path><path d="M145.76,328c1.52-1.78,5.53-6.48,5.76-7.17.28-.86-11-8.29-11-8.29s.74-3.16.09-3.6c-1.23-.82-2.67-.88-5.73-.91s-8.77-2.58-8.77-2.58-4.9,5.38-5.2,6-3.8,4.19-4.1,4.63,4.6,15.16,11.92,16a16.69,16.69,0,0,1,8.22,3.12A23.88,23.88,0,0,1,145.76,328Z" style="fill:none;stroke:#263238;stroke-linecap:round;stroke-linejoin:round"></path><path d="M130.76,309.74s-1.32,1-.35,3.39" style="fill:none;stroke:#263238;stroke-linecap:round;stroke-linejoin:round"></path><path d="M135.19,311.18s1,.8-.82,2.3" style="fill:none;stroke:#263238;stroke-linecap:round;stroke-linejoin:round"></path><path d="M144.64,318.28a5.31,5.31,0,0,1-3.65,3.43" style="fill:none;stroke:#263238;stroke-linecap:round;stroke-linejoin:round"></path><path d="M135.06,333.94s-5.33-10.41-5.73-11.69,1.67.51,2.41-.69-3.07-1.93-5-4-.34-2.9-1.2-5c0,0,10.07-16.44-2.4-17.51-10.87-.94-5.94,11.86-7.94,14.13s-12.59,10.37-1.73,17.8C122.87,333.39,135.06,333.94,135.06,333.94Z" style="fill:#263238;stroke:#263238;stroke-linecap:round;stroke-linejoin:round"></path><path d="M130.41,322s-5.07.6-3,3.65c2.44,3.53,6.52,2.67,6.92.7" style="fill:#fff;stroke:#263238;stroke-linecap:round;stroke-linejoin:round"></path><path d="M121.18,317.16a3.29,3.29,0,0,0,.67,1.53" style="fill:none;stroke:#7f7f7f;stroke-linecap:round;stroke-linejoin:round;stroke-width:0.75px"></path><path d="M121.52,297.17a2.49,2.49,0,0,1,1.78.39c3.59,2.33-1.34,11.28-2.11,17.1" style="fill:none;stroke:#7f7f7f;stroke-linecap:round;stroke-linejoin:round;stroke-width:0.75px"></path><path d="M118.43,299.43a7.61,7.61,0,0,1,1.13-1.23" style="fill:none;stroke:#7f7f7f;stroke-linecap:round;stroke-linejoin:round;stroke-width:0.75px"></path><path d="M119.09,326.37a19.63,19.63,0,0,0,2,.79" style="fill:none;stroke:#7f7f7f;stroke-linecap:round;stroke-linejoin:round;stroke-width:0.75px"></path><path d="M121.85,302.5c-1.53,4.84-13.77,16.84-4.39,23" style="fill:none;stroke:#7f7f7f;stroke-linecap:round;stroke-linejoin:round;stroke-width:0.75px"></path><path d="M119.16,301.63s1.81-2.06,2.69-.6" style="fill:none;stroke:#7f7f7f;stroke-linecap:round;stroke-linejoin:round;stroke-width:0.75px"></path><path d="M198.27,332.51,199.8,335a25.88,25.88,0,0,1-1.2,3.67c-.44,1.08-3.46,4.62-2,5,2.15.58,3.7-4.62,5.9-3.69,1.07.46,2.21,2.45,2.37,4.44s-1.05,3.73-.23,4.5c1.08,1,1.93-2.4,1.93-2.4a10,10,0,0,1,.22,2c0,.82-.65,1.26.18,1.75s1.2-.72,1.2-.72a2.23,2.23,0,0,0,1.47-.61,9.31,9.31,0,0,0,1.69-4.27c.44-2.8-4.9-11-4.9-11l-.79-3.5A7.34,7.34,0,0,0,198.27,332.51Z" style="fill:#fff;stroke:#263238;stroke-linecap:round;stroke-linejoin:round"></path><path d="M205.83,340.63a8.93,8.93,0,0,1,.9,4.28" style="fill:none;stroke:#263238;stroke-linecap:round;stroke-linejoin:round"></path><path d="M208.2,349.59s.8-2-.8-8.67" style="fill:none;stroke:#263238;stroke-linecap:round;stroke-linejoin:round"></path><path d="M208.8,340.63a18.31,18.31,0,0,1,1.17,4.06c.1,1.45.34,3.26-.1,4" style="fill:none;stroke:#263238;stroke-linecap:round;stroke-linejoin:round"></path><path d="M129.07,335.15c-4.41-3-14.94-9.49-18-7.41" style="fill:#4F46E5;stroke:#263238;stroke-linecap:round;stroke-linejoin:round"></path><path d="M227.49,343.54c-.19-1.8-.45-3.68-.82-5.66l-2.5-.44s.37,2.31.58,5.86Z" style="fill:#4F46E5;stroke:#263238;stroke-linecap:round;stroke-linejoin:round"></path><path d="M223.6,361a38.79,38.79,0,0,1-2.21,7l2.88-.59a25.89,25.89,0,0,0,2.23-6.2Z" style="fill:#4F46E5;stroke:#263238;stroke-linecap:round;stroke-linejoin:round"></path><path d="M224,358.84h3a52.27,52.27,0,0,0,.67-12.9l-2.84-.28A67.7,67.7,0,0,1,224,358.84Z" style="fill:#4F46E5;stroke:#263238;stroke-linecap:round;stroke-linejoin:round"></path><path d="M178.76,358.49c-.77.11-1.56.2-2.37.25" style="fill:none;stroke:#263238;stroke-linecap:round;stroke-linejoin:round"></path><path d="M202,341.84s-6.7,12.61-20.4,16.08" style="fill:none;stroke:#263238;stroke-linecap:round;stroke-linejoin:round"></path><polygon points="352.26 351.32 361.33 353.04 359.46 360.57 350.39 360.11 352.26 351.32" style="fill:#fff;stroke:#263238;stroke-linecap:round;stroke-linejoin:round"></polygon><path d="M357.92,359.66l1.33-7a1.93,1.93,0,0,1,.48-.93s3.79-4.54,5.15-6.58,3.74-7.71,5.52-9.36a1.38,1.38,0,0,1,.44-.24,1.58,1.58,0,0,1,2.16,1.69l-3.53,24.56a2.48,2.48,0,0,1-3.15,2l-7.12-2.08A1.82,1.82,0,0,1,357.92,359.66Z" style="fill:#4F46E5;stroke:#263238;stroke-linecap:round;stroke-linejoin:round"></path><path d="M373,337.24a1.58,1.58,0,0,0-2.16-1.69,1.38,1.38,0,0,0-.44.24c2.11,1.28-2.18,22.55-3.35,28.13a2.48,2.48,0,0,0,2.42-2.12Z" style="fill:#fff;stroke:#263238;stroke-linecap:round;stroke-linejoin:round"></path><path d="M235.73,345.66s56.26-9.08,62.93-7.78,56.8,12.38,56.8,12.38,1.1,6.11-2.4,10.74c0,0-44.53-2.07-56.27-8.75,0,0-25.6,8-42.93,9.59,0,0-14.36,6.26-26.37,7.13Z" style="fill:#263238;stroke:#263238;stroke-linecap:round;stroke-linejoin:round"></path><path d="M274.77,341.94l2.68-1.79" style="fill:none;stroke:#7f7f7f;stroke-linecap:round;stroke-linejoin:round"></path><path d="M251.86,356.37c6.59-3.85,13.52-8.24,20-12.49" style="fill:none;stroke:#7f7f7f;stroke-linecap:round;stroke-linejoin:round"></path><path d="M236.14,366.4c5.51-2.4,8-5.64,12.53-8.2" style="fill:none;stroke:#7f7f7f;stroke-linecap:round;stroke-linejoin:round"></path><path d="M200.74,320.16c-5.66-2.08-29.14,3.68-34.74,3.82s-12,4.72-12,4.72,11.6-2,32.3,1.14c1.93.29,3.78.54,5.59.78l2.39-.78,4.67,4.6C202.5,329.3,207,333,207,333,207.15,328.09,206.4,322.24,200.74,320.16Z" style="fill:#4F46E5"></path><g style="clip-path:url(#freepik--clip-path-2--inject-64)"><g style="opacity:0.30000000000000004"><path d="M197.15,332.7c-3.28-3.93-2.84-8.77-3.85-9s-17.88,3-25.19,4.4a154.3,154.3,0,0,1,18.16,1.7c1.93.29,3.78.54,5.59.78l2.39-.78Z"></path><path d="M198.78,334.31l.14.13v0Z"></path></g></g><path d="M200.74,320.16c-5.66-2.08-29.14,3.68-34.74,3.82s-12,4.72-12,4.72,11.6-2,32.3,1.14c1.93.29,3.78.54,5.59.78l2.39-.78,4.67,4.6C202.5,329.3,207,333,207,333,207.15,328.09,206.4,322.24,200.74,320.16Z" style="fill:none;stroke:#263238;stroke-linecap:round;stroke-linejoin:round"></path><path d="M195,322a4.74,4.74,0,0,0-1.64,6.42" style="fill:none;stroke:#263238;stroke-linecap:round;stroke-linejoin:round"></path><rect x="122.63" y="387" width="254.74" height="37.35" style="fill:none;stroke:#000;stroke-miterlimit:10"></rect><path d="M146.05,430.83H127.3a3.93,3.93,0,0,1-3.81-3l-.86-3.5h28.09l-.86,3.5A3.93,3.93,0,0,1,146.05,430.83Z" style="fill:#263238;stroke:#263238;stroke-linecap:round;stroke-linejoin:round"></path><path d="M372.51,430.83H353.76a3.91,3.91,0,0,1-3.8-3l-.87-3.5h28.09l-.86,3.5A3.92,3.92,0,0,1,372.51,430.83Z" style="fill:#263238;stroke:#263238;stroke-linecap:round;stroke-linejoin:round"></path><rect x="122.63" y="387" width="254.74" height="37.35" style="fill:#858585;stroke:#263238;stroke-linecap:round;stroke-linejoin:round"></rect><path d="M250,387H138V370.46a9.12,9.12,0,0,1,9.12-9.13s35.09,5.6,46.89,5.6,46.89-5.6,46.89-5.6a9.13,9.13,0,0,1,9.12,9.13Z" style="fill:#858585;stroke:#263238;stroke-linecap:round;stroke-linejoin:round"></path><path d="M261.41,361.33h89.21A11.41,11.41,0,0,1,362,372.74V387a0,0,0,0,1,0,0H250a0,0,0,0,1,0,0V372.74A11.41,11.41,0,0,1,261.41,361.33Z" style="fill:#858585;stroke:#263238;stroke-linecap:round;stroke-linejoin:round"></path><path d="M371.72,424.35h12.33a9.7,9.7,0,0,0,9.7-9.7V348.46a6.61,6.61,0,0,0-6.61-6.61h0A25.12,25.12,0,0,0,362,367v47.69A9.7,9.7,0,0,0,371.72,424.35Z" style="fill:#999;stroke:#263238;stroke-linecap:round;stroke-linejoin:round"></path><path d="M128.28,424.35H116a9.7,9.7,0,0,1-9.7-9.7V348.46a6.61,6.61,0,0,1,6.61-6.61h0A25.12,25.12,0,0,1,138,367v47.69A9.7,9.7,0,0,1,128.28,424.35Z" style="fill:#999;stroke:#263238;stroke-linecap:round;stroke-linejoin:round"></path></g><g id="freepik--Dream--inject-64"><path d="M409.83,171.56c0-20.8-22.73-37.67-50.77-37.67a65,65,0,0,0-23.67,4.35,20.57,20.57,0,0,0,3.95-11.83c0-17.06-23.23-30.89-51.88-30.89-17.51,0-33,5.18-42.37,13.09a69.28,69.28,0,0,0-28.36-5.76c-26.84,0-48.61,13.71-48.61,30.61a20.08,20.08,0,0,0,1.36,7.19c-34,.39-61.47,19.47-61.47,43,0,22.45,25,40.86,57,42.81,2.41,19.61,32,35.12,68.13,35.12,23.63,0,44.45-6.63,56.72-16.69a113.28,113.28,0,0,0,23.76,2.47c37,0,67-17,67-38.09a22.13,22.13,0,0,0-.29-3.46C397.73,199.81,409.83,186.74,409.83,171.56Z" style="fill:#fff"></path><g style="clip-path:url(#freepik--clip-path-3--inject-64)"><path d="M380.5,211l-.45,0-47.19,2.46-182.92,7.85h-9.28a83.85,83.85,0,0,0,24.3,5.06c2.41,19.61,32,35.12,68.13,35.12,23.63,0,44.45-6.63,56.72-16.69a113.28,113.28,0,0,0,23.76,2.47C349.52,247.32,378.85,231.23,380.5,211Z" style="fill:#999"></path></g><path d="M409.83,171.56c0-20.8-22.73-37.67-50.77-37.67a65,65,0,0,0-23.67,4.35,20.57,20.57,0,0,0,3.95-11.83c0-17.06-23.23-30.89-51.88-30.89-17.51,0-33,5.18-42.37,13.09a69.28,69.28,0,0,0-28.36-5.76c-26.84,0-48.61,13.71-48.61,30.61a20.08,20.08,0,0,0,1.36,7.19c-34,.39-61.47,19.47-61.47,43,0,22.45,25,40.86,57,42.81,2.41,19.61,32,35.12,68.13,35.12,23.63,0,44.45-6.63,56.72-16.69a113.28,113.28,0,0,0,23.76,2.47c37,0,67-17,67-38.09a22.13,22.13,0,0,0-.29-3.46C397.73,199.81,409.83,186.74,409.83,171.56Z" style="fill:none;stroke:#263238;stroke-linecap:round;stroke-linejoin:round"></path><path d="M149.13,221.25,380.51,211s-1.44,9-26.14,8.13c0,0-3.21,3.9-22,2.1,0,0,.47,5.77-36.65,3.69,0,0-1.32,7.34-49.22,3C246.5,227.9,234.49,239.9,149.13,221.25Z" style="fill:#4F46E5;stroke:#263238;stroke-linecap:round;stroke-linejoin:round"></path><path d="M149.13,221.25s70.62,5.44,94.34.11c0,0,38,4.58,48.16-1.14,0,0,35.6,1.55,36.78-3.83,0,0,20.66,1.85,22.18-1.68,0,0,20.86,1.18,29.92-3.69L149.13,221.25Z" style="fill:#4F46E5"></path><g style="clip-path:url(#freepik--clip-path-4--inject-64)"><path d="M149.13,221.25s70.62,5.44,94.34.11c0,0,38,4.58,48.16-1.14,0,0,35.6,1.55,36.78-3.83,0,0,20.66,1.85,22.18-1.68,0,0,20.86,1.18,29.92-3.69L149.13,221.25Z" style="opacity:0.2"></path></g><path d="M149.13,221.25s70.62,5.44,94.34.11c0,0,38,4.58,48.16-1.14,0,0,35.6,1.55,36.78-3.83,0,0,20.66,1.85,22.18-1.68,0,0,20.86,1.18,29.92-3.69L149.13,221.25Z" style="fill:none;stroke:#263238;stroke-linecap:round;stroke-linejoin:round"></path><path d="M246.5,227.9c47.9,4.38,49.22-3,49.22-3,37.12,2.08,36.65-3.69,36.65-3.69,18.79,1.8,22-2.1,22-2.1,24.7.91,26.14-8.13,26.14-8.13-6.88,7.23-28.91,5.37-28.91,5.37-2.8,4.22-21.18,2-21.18,2-4-.76-5,1.27-5,1.27-4.35-3.63-5,1.68-5,1.68a106.14,106.14,0,0,1-27,0c-4.55-3.69-6.56-.14-6.56-.14-2.77-2-5.54,2.68-5.54,2.68-3-1.06-8.32,1.31-8.32,1.31-8.32.26-28.73-1.29-28.73-1.29-10.33-6.08-14.62,0-14.62,0-8.31-2-16.13,2.55-16.13,2.55-18.4,1-64.35-5.22-64.35-5.22C234.49,239.9,246.5,227.9,246.5,227.9Z" style="fill:#fff;stroke:#263238;stroke-linecap:round;stroke-linejoin:round"></path><path d="M219.78,129a23.31,23.31,0,0,0-2.55.15c-.91-3.06-5.18-5.38-10.32-5.38-.39,0-.77,0-1.14,0a19.2,19.2,0,0,0-8.32-1.77c-7.12,0-12.89,3.34-12.89,7.47a4.26,4.26,0,0,0,.24,1.41c-.37,0-.73,0-1.11,0-4.47,0-8.1,1.79-8.1,4s3.63,4,8.1,4h36.09c5.78,0,10.46-2.21,10.46-4.93S225.56,129,219.78,129Z" style="fill:#4F46E5"></path><g style="clip-path:url(#freepik--clip-path-5--inject-64)"><path d="M219.78,129a23.31,23.31,0,0,0-2.55.15c-.91-3.06-5.18-5.38-10.32-5.38-.39,0-.77,0-1.14,0a19.2,19.2,0,0,0-8.32-1.77c-7.12,0-12.89,3.34-12.89,7.47a4.26,4.26,0,0,0,.24,1.41c-.37,0-.73,0-1.11,0-4.47,0-8.1,1.79-8.1,4s3.63,4,8.1,4h36.09c5.78,0,10.46-2.21,10.46-4.93S225.56,129,219.78,129Z" style="fill:#fff;opacity:0.7000000000000001"></path></g><path d="M383.62,147.2a21.7,21.7,0,0,0-2.59.16c-.92-3.1-5.24-5.45-10.44-5.45-.39,0-.77,0-1.15,0a19.44,19.44,0,0,0-8.41-1.78c-7.21,0-13,3.38-13,7.55a4.61,4.61,0,0,0,.24,1.43c-.36,0-.74,0-1.12,0-4.52,0-8.19,1.81-8.19,4s3.67,4,8.19,4h36.52c5.84,0,10.57-2.23,10.57-5S389.46,147.2,383.62,147.2Z" style="fill:#4F46E5"></path><g style="clip-path:url(#freepik--clip-path-6--inject-64)"><path d="M383.62,147.2a21.7,21.7,0,0,0-2.59.16c-.92-3.1-5.24-5.45-10.44-5.45-.39,0-.77,0-1.15,0a19.44,19.44,0,0,0-8.41-1.78c-7.21,0-13,3.38-13,7.55a4.61,4.61,0,0,0,.24,1.43c-.36,0-.74,0-1.12,0-4.52,0-8.19,1.81-8.19,4s3.67,4,8.19,4h36.52c5.84,0,10.57-2.23,10.57-5S389.46,147.2,383.62,147.2Z" style="fill:#fff;opacity:0.5"></path></g><path d="M272.65,126.05a26.52,26.52,0,0,0-6.34.74,4.78,4.78,0,0,0,.61-2.29c0-3.79-4.63-6.86-10.33-6.86a13.32,13.32,0,0,0-7.38,2.06c-2.07-4.07-8.42-7-15.93-7-9.2,0-16.65,4.43-16.65,9.89a6.56,6.56,0,0,0,1.27,3.8,19.87,19.87,0,0,0-3.52-.31c-6.33,0-11.47,2.87-11.47,6.4s5.14,6.4,11.47,6.4h58.27c7.49,0,13.57-2.86,13.57-6.4S280.14,126.05,272.65,126.05Z" style="fill:#4F46E5"></path><g style="clip-path:url(#freepik--clip-path-7--inject-64)"><path d="M272.65,126.05a26.52,26.52,0,0,0-6.34.74,4.78,4.78,0,0,0,.61-2.29c0-3.79-4.63-6.86-10.33-6.86a13.32,13.32,0,0,0-7.38,2.06c-2.07-4.07-8.42-7-15.93-7-9.2,0-16.65,4.43-16.65,9.89a6.56,6.56,0,0,0,1.27,3.8,19.87,19.87,0,0,0-3.52-.31c-6.33,0-11.47,2.87-11.47,6.4s5.14,6.4,11.47,6.4h58.27c7.49,0,13.57-2.86,13.57-6.4S280.14,126.05,272.65,126.05Z" style="fill:#fff;opacity:0.5"></path></g><path d="M288.51,139a14,14,0,0,0-3.42.4,2.61,2.61,0,0,0,.33-1.24c0-2-2.49-3.7-5.57-3.7a7.21,7.21,0,0,0-4,1.11c-1.12-2.19-4.54-3.79-8.59-3.79-5,0-9,2.39-9,5.33a3.49,3.49,0,0,0,.69,2,11.62,11.62,0,0,0-1.91-.16c-3.41,0-6.18,1.54-6.18,3.45s2.77,3.45,6.18,3.45h31.43c4,0,7.32-1.55,7.32-3.45S292.55,139,288.51,139Z" style="fill:#4F46E5"></path><g style="clip-path:url(#freepik--clip-path-8--inject-64)"><path d="M288.51,139a14,14,0,0,0-3.42.4,2.61,2.61,0,0,0,.33-1.24c0-2-2.49-3.7-5.57-3.7a7.21,7.21,0,0,0-4,1.11c-1.12-2.19-4.54-3.79-8.59-3.79-5,0-9,2.39-9,5.33a3.49,3.49,0,0,0,.69,2,11.62,11.62,0,0,0-1.91-.16c-3.41,0-6.18,1.54-6.18,3.45s2.77,3.45,6.18,3.45h31.43c4,0,7.32-1.55,7.32-3.45S292.55,139,288.51,139Z" style="fill:#fff;opacity:0.2"></path></g><path d="M331.35,172.69c1.15-1.52-.49-5.72-.48-7.64,0-5.24-.92-7.12-1.36-9.48-.47-2.58-1.35-3.42-2.31-3.67a.61.61,0,0,0-.75.7A29.31,29.31,0,0,1,327,156a24.33,24.33,0,0,1-1,6.29c-.61,1.67-2.37,6.64-3.75,7.08-7.92,2.53-33.84,4-35.91,4.17a1.15,1.15,0,0,0-.26,0L258,178.92a75,75,0,0,1-8.18,3c-2.46.5-10,.48-10,.48l2.84,20.26c14.14.92,16.76-4.94,21.16-8.58,3.85-3.2,23.07-10.84,23.07-10.84,26.36-1,36.56-8.4,37-8.6C325.6,173.81,330.18,174.24,331.35,172.69Z" style="fill:#fff;stroke:#263238;stroke-linecap:round;stroke-linejoin:round"></path><path d="M280.47,185.89c-1.53-6-3.39-8.93-4.79-10.36L258,178.92a75,75,0,0,1-8.18,3c-2.46.5-10,.48-10,.48l2.84,20.26c14.14.92,16.76-4.94,21.16-8.58C266.19,192.1,274.51,188.41,280.47,185.89Z" style="fill:#4F46E5"></path><g style="clip-path:url(#freepik--clip-path-9--inject-64)"><path d="M280.47,185.89c-1.53-6-3.39-8.93-4.79-10.36L258,178.92a75,75,0,0,1-8.18,3c-2.46.5-10,.48-10,.48l2.84,20.26c14.14.92,16.76-4.94,21.16-8.58C266.19,192.1,274.51,188.41,280.47,185.89Z" style="opacity:0.30000000000000004"></path></g><path d="M280.47,185.89c-1.53-6-3.39-8.93-4.79-10.36L258,178.92a75,75,0,0,1-8.18,3c-2.46.5-10,.48-10,.48l2.84,20.26c14.14.92,16.76-4.94,21.16-8.58C266.19,192.1,274.51,188.41,280.47,185.89Z" style="fill:none;stroke:#263238;stroke-linecap:round;stroke-linejoin:round"></path><path d="M191.55,178.9a68.51,68.51,0,0,0,4.66-10.39c1.25-3.67,1.06-7.59,3.1-10.44,0,0-1.5,2.46-7.71,5.63-4.93,2.53-11.54,6.94-11.54,6.94l-2.36-5.3s24.22-19.66,27.75-16.76c4.12,3.38-2.6,29.11-2.6,29.11Z" style="fill:#fff"></path><g style="clip-path:url(#freepik--clip-path-10--inject-64)"><path d="M190.62,176.6s8.53-5.5,15.6-4.88-4.41,9.7-4.41,9.7l-9,1.06Z" style="opacity:0.2"></path></g><path d="M191.55,178.9a68.51,68.51,0,0,0,4.66-10.39c1.25-3.67,1.06-7.59,3.1-10.44,0,0-1.5,2.46-7.71,5.63-4.93,2.53-11.54,6.94-11.54,6.94l-2.36-5.3s24.22-19.66,27.75-16.76c4.12,3.38-2.6,29.11-2.6,29.11Z" style="fill:none;stroke:#263238;stroke-linecap:round;stroke-linejoin:round"></path><path d="M285.91,155.82c-7.68.88-36.08,28.28-36.08,28.28-20-5.61-21.43-3.75-28.57-5-6.48-1.12-11.59-5.11-26.18-2.66a25.77,25.77,0,0,0-6.91,2l-.67-.27s3.71-5,3.85-5.57-7.76-5-7.76-5,.34-2.16-.12-2.42c-.86-.49-1.83-.45-3.88-.32s-6-1.29-6-1.29-3,3.85-3.18,4.27-2.33,3-2.51,3.3,3.84,9.91,8.78,10.08c3.78.13,6.53,1.58,7,2.69a4.7,4.7,0,0,1,.38,2s49.09,25.08,69.68,14.31c4.53-2.37,8-8.21,11.82-11.4a138.43,138.43,0,0,0,21.87-23.1c7,6.52,29.65,15.65,29.65,15.65l3.57-5.61S293.59,154.94,285.91,155.82Z" style="fill:#fff"></path><g style="clip-path:url(#freepik--clip-path-11--inject-64)"><path d="M176.52,182.73s5.06-.06,7.83-1.73c1.09-.66.94.78,2.27,2.18s4-2,11.36,3.14,13.16,5.4,16.34,3.27c4.34-2.91,9.64,11.12,31.31,8.24,15.89-2.11,19.94-8.94,19.94-8.94l9.83,5-1.53,6.65-27,23.29-54.65-6.3L175.07,204l-1.73-12.49Z" style="opacity:0.2"></path></g><path d="M285.91,155.82c-7.68.88-36.08,28.28-36.08,28.28-20-5.61-21.43-3.75-28.57-5-6.48-1.12-11.59-5.11-26.18-2.66a25.77,25.77,0,0,0-6.91,2l-.67-.27s3.71-5,3.85-5.57-7.76-5-7.76-5,.34-2.16-.12-2.42c-.86-.49-1.83-.45-3.88-.32s-6-1.29-6-1.29-3,3.85-3.18,4.27-2.33,3-2.51,3.3,3.84,9.91,8.78,10.08c3.78.13,6.53,1.58,7,2.69a4.7,4.7,0,0,1,.38,2s49.09,25.08,69.68,14.31c4.53-2.37,8-8.21,11.82-11.4a138.43,138.43,0,0,0,21.87-23.1c7,6.52,29.65,15.65,29.65,15.65l3.57-5.61S293.59,154.94,285.91,155.82Z" style="fill:none;stroke:#263238;stroke-linecap:round;stroke-linejoin:round"></path><path d="M176.9,166.25s-.83.74-.06,2.29" style="fill:none;stroke:#263238;stroke-linecap:round;stroke-linejoin:round"></path><path d="M186.62,171.27a3.56,3.56,0,0,1-2.27,2.47" style="fill:none;stroke:#263238;stroke-linecap:round;stroke-linejoin:round"></path><path d="M181,182.22s-4.09-6.69-4.42-7.53,1.14.26,1.57-.58-2.15-1.14-3.54-2.42-.37-1.93-1.06-3.3c0,0,5.91-11.51-2.48-11.6-7.32-.08-3.38,8.24-4.6,9.85s-7.91,7.57-.27,12C172.81,182.47,181,182.22,181,182.22Z" style="fill:#263238;stroke:#263238;stroke-linecap:round;stroke-linejoin:round"></path><path d="M177.28,174.46s-3.36.65-1.79,2.59c1.81,2.24,4.49,1.45,4.66.12" style="fill:#fff;stroke:#263238;stroke-linecap:round;stroke-linejoin:round"></path><path d="M170.87,171.7a2.11,2.11,0,0,0,.53,1" style="fill:none;stroke:#7f7f7f;stroke-linecap:round;stroke-linejoin:round;stroke-width:0.75px"></path><path d="M170.09,158.31a1.62,1.62,0,0,1,1.21.17c2.52,1.38-.32,7.61-.55,11.55" style="fill:none;stroke:#7f7f7f;stroke-linecap:round;stroke-linejoin:round;stroke-width:0.75px"></path><path d="M168.14,160a5.2,5.2,0,0,1,.69-.88" style="fill:none;stroke:#7f7f7f;stroke-linecap:round;stroke-linejoin:round;stroke-width:0.75px"></path><path d="M169.93,178a13.27,13.27,0,0,0,1.38.43" style="fill:none;stroke:#7f7f7f;stroke-linecap:round;stroke-linejoin:round;stroke-width:0.75px"></path><path d="M170.58,161.85c-.78,3.32-8.37,12-1.79,15.59" style="fill:none;stroke:#7f7f7f;stroke-linecap:round;stroke-linejoin:round;stroke-width:0.75px"></path><path d="M168.74,161.41s1.1-1.47,1.77-.54" style="fill:none;stroke:#7f7f7f;stroke-linecap:round;stroke-linejoin:round;stroke-width:0.75px"></path><path d="M178.84,161.47s-2,8.49-1.17,8.95l-.45,3.25.91.06.89-3.12s2.66,0,3-2-2-3-1.94-3.73,2.51.26,2.64-1.32S178.84,161.47,178.84,161.47Z" style="fill:#263238;stroke:#263238;stroke-linecap:round;stroke-linejoin:round;stroke-width:0.5px"></path><path d="M268.63,167.21c-9.43,7.86-18.8,16.89-18.8,16.89-3.25-.91-6-1.62-8.37-2.18.16,2.77.66,14.5-1.66,21,5.31.08,10.12-.68,13.95-2.68,4.53-2.37,8-8.21,11.82-11.39a140.11,140.11,0,0,0,13.09-12.55A19.85,19.85,0,0,0,268.63,167.21Z" style="fill:#4F46E5"></path><g style="clip-path:url(#freepik--clip-path-12--inject-64)"><path d="M250.46,193.61s-1-3.6-3.59-2.52-2.76,3.74-.36,5.59c0,0-5.09,1-2.8,4.12,2.56,3.48,5-1.08,5-1.08s1.48,3.84,4.48,1.8-.48-4.84-.48-4.84,4-1.16,2.4-3.79S250.46,193.61,250.46,193.61Z" style="fill:#fff;opacity:0.5"></path><path d="M256.34,180.09s1.51-3.4-1.22-4.22-4.5,1.19-3.79,4.13c0,0-4.59-2.41-4.76,1.45-.19,4.31,4.59,2.32,4.59,2.32s-1.25,3.92,2.36,4.21,2.67-4.07,2.67-4.07,3.8,1.59,4.24-1.44S256.34,180.09,256.34,180.09Z" style="fill:#fff;opacity:0.5"></path><path d="M278.61,182.93c-.39-3-4.58-1.18-4.58-1.18s.54-3.69-2.31-3.74-4,2.35-2.54,5c0,0-5.07-1.08-4.2,2.69,1,4.2,5,1,5,1s-.16,4.11,3.4,3.43,1.48-4.64,1.48-4.64S279,186,278.61,182.93Z" style="fill:#fff;opacity:0.5"></path><path d="M269.36,171.24s1.51,3.83,4.49,1.77-.51-4.84-.51-4.84,4-1.18,2.37-3.81-4.67.75-4.67.75-1-3.59-3.62-2.49-2.73,3.77-.32,5.59c0,0-5.07,1-2.76,4.15C266.92,175.82,269.36,171.24,269.36,171.24Z" style="fill:#fff;opacity:0.5"></path></g><path d="M268.63,167.21c-9.43,7.86-18.8,16.89-18.8,16.89-3.25-.91-6-1.62-8.37-2.18.16,2.77.66,14.5-1.66,21,5.31.08,10.12-.68,13.95-2.68,4.53-2.37,8-8.21,11.82-11.39a140.11,140.11,0,0,0,13.09-12.55A19.85,19.85,0,0,0,268.63,167.21Z" style="fill:none;stroke:#263238;stroke-linecap:round;stroke-linejoin:round"></path><g style="clip-path:url(#freepik--clip-path-13--inject-64)"><path d="M176.52,182.73s6.22-.15,8.6-2.34.17,1.39,1.5,2.79,4-2,11.36,3.14,13.16,5.4,16.34,3.27c4.34-2.91,9.64,11.12,31.31,8.24,15.89-2.11,19.94-8.94,19.94-8.94l9.83,5-1.53,6.65-27,23.29-54.65-6.3L175.07,204l-1.73-12.49Z" style="opacity:0.2"></path></g><path d="M243.09,181.52s1.62-4.78-1-4.58c-2.15.16-.53,3.95.18,5.41a.72.72,0,0,0,.89.38c1.76-.55,6.63-2.27,5.17-3.77C246.52,177.15,243.09,181.52,243.09,181.52Zm-.92-3.75c1-.22.18,3.36.18,3.36S241.19,178,242.17,177.77Zm2,3.83s2.4-3,3.2-2.28S244.12,181.6,244.12,181.6Z" style="fill:#263238"></path><path d="M182.51,187.31s4.5-4.45,9.71-2.22c1,.44,2.39,1.78,3.89,2.53,6,3,14.74,7.28,17.33,11Z" style="fill:#fff;stroke:#263238;stroke-linecap:round;stroke-linejoin:round"></path><path d="M155.48,169.4s41,28.16,93.47,27.36c29.3-.45,62.18-14.38,93.47-36.55C342.42,160.21,253.52,293.81,155.48,169.4Z" style="fill:#4F46E5"></path><g style="clip-path:url(#freepik--clip-path-14--inject-64)"><path d="M155.48,169.4S184.12,212,241,212c70.13,0,101.46-51.74,101.46-51.74l23.35,28.94L373,238.21,307.86,286,228,288.92,168.74,281l-13.26-21.22s-26.38,33.09-20.63-30.58-7.55-51-7.55-51l13.31-12.63Z" style="opacity:0.2"></path></g><path d="M155.48,169.4s41,28.16,93.47,27.36c29.3-.45,62.18-14.38,93.47-36.55C342.42,160.21,253.52,293.81,155.48,169.4Z" style="fill:none;stroke:#263238;stroke-linecap:round;stroke-linejoin:round"></path><path d="M155.7,225.36c-5.6-50.44,6.91-125.47,6.91-125.47l-15.42-2.66C130.36,159,127.38,197.83,127,214.45A73.92,73.92,0,0,0,155.7,225.36Z" style="fill:#4F46E5;stroke:#263238;stroke-linecap:round;stroke-linejoin:round"></path><path d="M154.26,198.07c-1.09-.14-2.25-.25-3.45-.34-6.61-.45-12,.2-12.12,1.45s5.2,2.64,11.81,3.1c1.33.09,2.61.13,3.81.14C154.29,201,154.27,199.53,154.26,198.07Z" style="fill:#999;stroke:#263238;stroke-linecap:round;stroke-linejoin:round"></path><path d="M142.52,169.27c.08-1.17-4.56-2.47-10.58-3-.25,1.53-.49,3-.71,4.5C137.46,171.12,142.44,170.48,142.52,169.27Z" style="fill:#999;stroke:#263238;stroke-linecap:round;stroke-linejoin:round"></path><path d="M141.17,130.43c5.28.79,9.66.72,9.79-.15s-4-2.21-9.32-3c-.67-.1-1.32-.18-1.95-.25q-.36,1.53-.69,3C139.7,130.19,140.42,130.32,141.17,130.43Z" style="fill:#999;stroke:#263238;stroke-linecap:round;stroke-linejoin:round"></path><path d="M144.79,157.21c-.08,1.19,4.7,2.5,10.86,3,.11-1.52.23-3,.35-4.53C149.81,155.37,144.87,156,144.79,157.21Z" style="fill:#999;stroke:#263238;stroke-linecap:round;stroke-linejoin:round"></path><path d="M101.06,75.4S88.08,79,79.63,85c0,0,5.91,2.07,36.53-4.56,0,0-19,9.33-18.08,12.16s27.41-6.7,27.41-6.7-14.42,8.88-12.89,11.37,21-6.71,21-6.71-12.21,9.14-10.47,11.52S141,95.13,141,95.13s-9.25,9.4-8.15,11.09,15.71-8.43,15.71-8.43a40.8,40.8,0,0,0-17.8-21.18A38.91,38.91,0,0,0,101.06,75.4Z" style="fill:#4F46E5"></path><g style="clip-path:url(#freepik--clip-path-15--inject-64)"><path d="M101.06,75.4S88.08,79,79.63,85c0,0,5.91,2.07,36.53-4.56,0,0-19,9.33-18.08,12.16s27.41-6.7,27.41-6.7-14.42,8.88-12.89,11.37,21-6.71,21-6.71-12.21,9.14-10.47,11.52S141,95.13,141,95.13s-9.25,9.4-8.15,11.09,15.71-8.43,15.71-8.43a40.8,40.8,0,0,0-17.8-21.18A38.91,38.91,0,0,0,101.06,75.4Z" style="opacity:0.30000000000000004"></path></g><path d="M101.06,75.4S88.08,79,79.63,85c0,0,5.91,2.07,36.53-4.56,0,0-19,9.33-18.08,12.16s27.41-6.7,27.41-6.7-14.42,8.88-12.89,11.37,21-6.71,21-6.71-12.21,9.14-10.47,11.52S141,95.13,141,95.13s-9.25,9.4-8.15,11.09,15.71-8.43,15.71-8.43a40.8,40.8,0,0,0-17.8-21.18A38.91,38.91,0,0,0,101.06,75.4Z" style="fill:none;stroke:#263238;stroke-linecap:round;stroke-linejoin:round"></path><path d="M150.94,101.81a1.65,1.65,0,0,1-2.51-.87C146,92.85,131.7,56.5,79.63,85c0,0,21.58-16,44.15-11.69C143.67,77,150.3,95.54,151.6,99.88a1.72,1.72,0,0,1-.58,1.87Z" style="fill:#4F46E5;stroke:#263238;stroke-linecap:round;stroke-linejoin:round"></path><path d="M120.06,57.77s-13.28-2.29-23.47-.52c0,0,4.46,4.4,35,11.52,0,0-21.12.32-21.54,3.25s27.64,5.67,27.64,5.67-16.83,1.86-16.51,4.77,21.79,2.9,21.79,2.9-14.94,3-14.39,5.93,19.18,1.42,19.18,1.42-12.39,4.52-12.11,6.53,17.8-.9,17.8-.9a40.84,40.84,0,0,0-7-26.76A38.89,38.89,0,0,0,120.06,57.77Z" style="fill:#4F46E5"></path><g style="clip-path:url(#freepik--clip-path-16--inject-64)"><path d="M120.06,57.77s-13.28-2.29-23.47-.52c0,0,4.46,4.4,35,11.52,0,0-21.12.32-21.54,3.25s27.64,5.67,27.64,5.67-16.83,1.86-16.51,4.77,21.79,2.9,21.79,2.9-14.94,3-14.39,5.93,19.18,1.42,19.18,1.42-12.39,4.52-12.11,6.53,17.8-.9,17.8-.9a40.84,40.84,0,0,0-7-26.76A38.89,38.89,0,0,0,120.06,57.77Z" style="opacity:0.30000000000000004"></path></g><path d="M120.06,57.77s-13.28-2.29-23.47-.52c0,0,4.46,4.4,35,11.52,0,0-21.12.32-21.54,3.25s27.64,5.67,27.64,5.67-16.83,1.86-16.51,4.77,21.79,2.9,21.79,2.9-14.94,3-14.39,5.93,19.18,1.42,19.18,1.42-12.39,4.52-12.11,6.53,17.8-.9,17.8-.9a40.84,40.84,0,0,0-7-26.76A38.89,38.89,0,0,0,120.06,57.77Z" style="fill:none;stroke:#263238;stroke-linecap:round;stroke-linejoin:round"></path><path d="M153.83,103a1.64,1.64,0,0,1-1.89-1.87c1.24-8.35,3.9-47.32-55.35-43.87,0,0,26.34-5.18,44.91,8.33,16.36,11.91,14.44,31.47,13.75,36a1.73,1.73,0,0,1-1.33,1.44Z" style="fill:#4F46E5;stroke:#263238;stroke-linecap:round;stroke-linejoin:round"></path><path d="M197.21,64.85s13.48.13,23.18,3.7c0,0-5.17,3.53-36.46,5.06,0,0,20.73,4.1,20.62,7.06s-28.22.62-28.22.62,16.23,4.85,15.4,7.65-22-1-22-1,14.16,5.66,13.1,8.41-19.12-2-19.12-2,11.37,6.68,10.74,8.6-17.35-4.08-17.35-4.08a40.81,40.81,0,0,1,11.7-25.07A38.94,38.94,0,0,1,197.21,64.85Z" style="fill:#4F46E5"></path><g style="clip-path:url(#freepik--clip-path-17--inject-64)"><path d="M197.21,64.85s13.48.13,23.18,3.7c0,0-5.17,3.53-36.46,5.06,0,0,20.73,4.1,20.62,7.06s-28.22.62-28.22.62,16.23,4.85,15.4,7.65-22-1-22-1,14.16,5.66,13.1,8.41-19.12-2-19.12-2,11.37,6.68,10.74,8.6-17.35-4.08-17.35-4.08a40.81,40.81,0,0,1,11.7-25.07A38.94,38.94,0,0,1,197.21,64.85Z" style="opacity:0.30000000000000004"></path></g><path d="M197.21,64.85s13.48.13,23.18,3.7c0,0-5.17,3.53-36.46,5.06,0,0,20.73,4.1,20.62,7.06s-28.22.62-28.22.62,16.23,4.85,15.4,7.65-22-1-22-1,14.16,5.66,13.1,8.41-19.12-2-19.12-2,11.37,6.68,10.74,8.6-17.35-4.08-17.35-4.08a40.81,40.81,0,0,1,11.7-25.07A38.94,38.94,0,0,1,197.21,64.85Z" style="fill:none;stroke:#263238;stroke-linecap:round;stroke-linejoin:round"></path><path d="M155.88,103.28a1.65,1.65,0,0,0,2.2-1.5c.27-8.44,4.65-47.25,62.31-33.23,0,0-25-9.83-45.67.14-18.23,8.78-19.85,28.37-20,32.89a1.71,1.71,0,0,0,1,1.66Z" style="fill:#4F46E5;stroke:#263238;stroke-linecap:round;stroke-linejoin:round"></path><path d="M211.79,85.05S224,90.69,231.42,97.93c0,0-6.17,1.09-35.33-10.34,0,0,17.22,12.24,15.9,14.9s-26-11-26-11,12.81,11.07,10.9,13.28-19.6-10-19.6-10,10.59,11,8.49,13-16.6-9.7-16.6-9.7,7.64,10.75,6.28,12.24-14.16-10.83-14.16-10.83a40.83,40.83,0,0,1,21-18.07A38.94,38.94,0,0,1,211.79,85.05Z" style="fill:#4F46E5"></path><g style="clip-path:url(#freepik--clip-path-18--inject-64)"><path d="M211.79,85.05S224,90.69,231.42,97.93c0,0-6.17,1.09-35.33-10.34,0,0,17.22,12.24,15.9,14.9s-26-11-26-11,12.81,11.07,10.9,13.28-19.6-10-19.6-10,10.59,11,8.49,13-16.6-9.7-16.6-9.7,7.64,10.75,6.28,12.24-14.16-10.83-14.16-10.83a40.83,40.83,0,0,1,21-18.07A38.94,38.94,0,0,1,211.79,85.05Z" style="opacity:0.30000000000000004"></path></g><path d="M211.79,85.05S224,90.69,231.42,97.93c0,0-6.17,1.09-35.33-10.34,0,0,17.22,12.24,15.9,14.9s-26-11-26-11,12.81,11.07,10.9,13.28-19.6-10-19.6-10,10.59,11,8.49,13-16.6-9.7-16.6-9.7,7.64,10.75,6.28,12.24-14.16-10.83-14.16-10.83a40.83,40.83,0,0,1,21-18.07A38.94,38.94,0,0,1,211.79,85.05Z" style="fill:none;stroke:#263238;stroke-linecap:round;stroke-linejoin:round"></path><path d="M158.34,103.15a1.64,1.64,0,0,0,2.61-.46c3.72-7.59,23.62-41.2,70.47-4.76,0,0-18.75-19.21-41.71-18.6C169.47,79.86,160,97.06,158,101.14a1.73,1.73,0,0,0,.27,1.94Z" style="fill:#4F46E5;stroke:#263238;stroke-linecap:round;stroke-linejoin:round"></path><path d="M151.14,171.06c-12.54,0-19.45-5.54-19.77-5.81A1.44,1.44,0,1,1,133.2,163c.12.09,8.06,6.37,22.13,4.94a1.44,1.44,0,1,1,.29,2.86A44.1,44.1,0,0,1,151.14,171.06Z" style="fill:#fff;stroke:#263238;stroke-linecap:round;stroke-linejoin:round"></path><path d="M342.93,243.48c12.64-3.51,23.06-9.22,29.7-16.25-.67-18.55-4.32-57.56-20.7-117.74L336,112.22S349.26,191.52,342.93,243.48Z" style="fill:#4F46E5;stroke:#263238;stroke-linecap:round;stroke-linejoin:round"></path><path d="M344.64,213.37c1.12-.14,2.32-.26,3.56-.34,6.8-.47,12.39.2,12.48,1.49s-5.36,2.72-12.16,3.19c-1.38.1-2.7.14-3.94.15C344.61,216.37,344.63,214.87,344.64,213.37Z" style="fill:#999;stroke:#263238;stroke-linecap:round;stroke-linejoin:round"></path><path d="M356.73,183.71c-.08-1.22,4.7-2.55,10.91-3.1.25,1.58.5,3.13.73,4.64C362,185.61,356.82,185,356.73,183.71Z" style="fill:#999;stroke:#263238;stroke-linecap:round;stroke-linejoin:round"></path><path d="M358.12,143.69c-5.43.81-9.95.74-10.08-.15s4.17-2.28,9.6-3.09l2-.27c.25,1,.48,2.1.71,3.13C359.65,143.45,358.9,143.57,358.12,143.69Z" style="fill:#999;stroke:#263238;stroke-linecap:round;stroke-linejoin:round"></path><path d="M354.4,171.28c.08,1.23-4.85,2.58-11.19,3.11-.12-1.57-.24-3.12-.36-4.66C349.23,169.38,354.32,170,354.4,171.28Z" style="fill:#999;stroke:#263238;stroke-linecap:round;stroke-linejoin:round"></path><path d="M398.66,86.68s13.15,3.67,21.71,9.71c0,0-6,2.09-37-4.62,0,0,19.2,9.45,18.31,12.31s-27.76-6.79-27.76-6.79,14.6,9,13.05,11.52S365.77,102,365.77,102s12.36,9.25,10.6,11.66-18.17-7-18.17-7,9.38,9.51,8.26,11.23-15.91-8.55-15.91-8.55a41.37,41.37,0,0,1,18-21.44A39.44,39.44,0,0,1,398.66,86.68Z" style="fill:#4F46E5"></path><g style="clip-path:url(#freepik--clip-path-19--inject-64)"><path d="M398.66,86.68s13.15,3.67,21.71,9.71c0,0-6,2.09-37-4.62,0,0,19.2,9.45,18.31,12.31s-27.76-6.79-27.76-6.79,14.6,9,13.05,11.52S365.77,102,365.77,102s12.36,9.25,10.6,11.66-18.17-7-18.17-7,9.38,9.51,8.26,11.23-15.91-8.55-15.91-8.55a41.37,41.37,0,0,1,18-21.44A39.44,39.44,0,0,1,398.66,86.68Z" style="opacity:0.30000000000000004"></path></g><path d="M398.66,86.68s13.15,3.67,21.71,9.71c0,0-6,2.09-37-4.62,0,0,19.2,9.45,18.31,12.31s-27.76-6.79-27.76-6.79,14.6,9,13.05,11.52S365.77,102,365.77,102s12.36,9.25,10.6,11.66-18.17-7-18.17-7,9.38,9.51,8.26,11.23-15.91-8.55-15.91-8.55a41.37,41.37,0,0,1,18-21.44A39.44,39.44,0,0,1,398.66,86.68Z" style="fill:none;stroke:#263238;stroke-linecap:round;stroke-linejoin:round"></path><path d="M348.15,113.43a1.66,1.66,0,0,0,2.54-.89c2.49-8.18,16.95-45,69.68-16.15,0,0-21.86-16.17-44.71-11.85-20.14,3.81-26.86,22.54-28.17,26.93a1.74,1.74,0,0,0,.59,1.9Z" style="fill:#4F46E5;stroke:#263238;stroke-linecap:round;stroke-linejoin:round"></path><path d="M379.42,68.83s13.46-2.32,23.77-.53c0,0-4.51,4.46-35.4,11.67,0,0,21.39.32,21.81,3.29s-28,5.74-28,5.74,17.05,1.88,16.73,4.83-22.08,2.94-22.08,2.94,15.13,3.07,14.58,6-19.43,1.44-19.43,1.44,12.55,4.58,12.27,6.61-18-.91-18-.91a41.33,41.33,0,0,1,7.11-27.1A39.4,39.4,0,0,1,379.42,68.83Z" style="fill:#4F46E5"></path><g style="clip-path:url(#freepik--clip-path-20--inject-64)"><path d="M379.42,68.83s13.46-2.32,23.77-.53c0,0-4.51,4.46-35.4,11.67,0,0,21.39.32,21.81,3.29s-28,5.74-28,5.74,17.05,1.88,16.73,4.83-22.08,2.94-22.08,2.94,15.13,3.07,14.58,6-19.43,1.44-19.43,1.44,12.55,4.58,12.27,6.61-18-.91-18-.91a41.33,41.33,0,0,1,7.11-27.1A39.4,39.4,0,0,1,379.42,68.83Z" style="opacity:0.30000000000000004"></path></g><path d="M379.42,68.83s13.46-2.32,23.77-.53c0,0-4.51,4.46-35.4,11.67,0,0,21.39.32,21.81,3.29s-28,5.74-28,5.74,17.05,1.88,16.73,4.83-22.08,2.94-22.08,2.94,15.13,3.07,14.58,6-19.43,1.44-19.43,1.44,12.55,4.58,12.27,6.61-18-.91-18-.91a41.33,41.33,0,0,1,7.11-27.1A39.4,39.4,0,0,1,379.42,68.83Z" style="fill:none;stroke:#263238;stroke-linecap:round;stroke-linejoin:round"></path><path d="M345.22,114.62a1.66,1.66,0,0,0,1.92-1.89c-1.26-8.46-3.95-47.92,56.05-44.43,0,0-26.67-5.25-45.47,8.44-16.58,12.06-14.63,31.86-13.93,36.4a1.73,1.73,0,0,0,1.34,1.46Z" style="fill:#4F46E5;stroke:#263238;stroke-linecap:round;stroke-linejoin:round"></path><path d="M301.29,76s-13.65.13-23.47,3.75c0,0,5.23,3.56,36.92,5.12,0,0-21,4.15-20.88,7.15s28.58.63,28.58.63S306,97.56,306.85,100.4s22.24-1.07,22.24-1.07-14.34,5.73-13.26,8.52,19.36-2.07,19.36-2.07-11.52,6.76-10.88,8.71,17.58-4.13,17.58-4.13A41.42,41.42,0,0,0,330,85,39.42,39.42,0,0,0,301.29,76Z" style="fill:#4F46E5"></path><g style="clip-path:url(#freepik--clip-path-21--inject-64)"><path d="M301.29,76s-13.65.13-23.47,3.75c0,0,5.23,3.56,36.92,5.12,0,0-21,4.15-20.88,7.15s28.58.63,28.58.63S306,97.56,306.85,100.4s22.24-1.07,22.24-1.07-14.34,5.73-13.26,8.52,19.36-2.07,19.36-2.07-11.52,6.76-10.88,8.71,17.58-4.13,17.58-4.13A41.42,41.42,0,0,0,330,85,39.42,39.42,0,0,0,301.29,76Z" style="opacity:0.30000000000000004"></path></g><path d="M301.29,76s-13.65.13-23.47,3.75c0,0,5.23,3.56,36.92,5.12,0,0-21,4.15-20.88,7.15s28.58.63,28.58.63S306,97.56,306.85,100.4s22.24-1.07,22.24-1.07-14.34,5.73-13.26,8.52,19.36-2.07,19.36-2.07-11.52,6.76-10.88,8.71,17.58-4.13,17.58-4.13A41.42,41.42,0,0,0,330,85,39.42,39.42,0,0,0,301.29,76Z" style="fill:none;stroke:#263238;stroke-linecap:round;stroke-linejoin:round"></path><path d="M343.15,114.91a1.65,1.65,0,0,1-2.22-1.51c-.28-8.55-4.71-47.86-63.11-33.65,0,0,25.29-10,46.25.14,18.46,8.89,20.1,28.72,20.23,33.31a1.75,1.75,0,0,1-1.06,1.68Z" style="fill:#4F46E5;stroke:#263238;stroke-linecap:round;stroke-linejoin:round"></path><path d="M286.53,96.45s-12.4,5.72-19.88,13c0,0,6.24,1.11,35.78-10.47,0,0-17.44,12.4-16.11,15.08S312.64,103,312.64,103s-13,11.22-11,13.46,19.85-10.09,19.85-10.09-10.73,11.1-8.61,13.21,16.82-9.83,16.82-9.83-7.74,10.89-6.36,12.4,14.34-11,14.34-11a41.35,41.35,0,0,0-21.22-18.3A39.45,39.45,0,0,0,286.53,96.45Z" style="fill:#4F46E5"></path><g style="clip-path:url(#freepik--clip-path-22--inject-64)"><path d="M286.53,96.45s-12.4,5.72-19.88,13c0,0,6.24,1.11,35.78-10.47,0,0-17.44,12.4-16.11,15.08S312.64,103,312.64,103s-13,11.22-11,13.46,19.85-10.09,19.85-10.09-10.73,11.1-8.61,13.21,16.82-9.83,16.82-9.83-7.74,10.89-6.36,12.4,14.34-11,14.34-11a41.35,41.35,0,0,0-21.22-18.3A39.45,39.45,0,0,0,286.53,96.45Z" style="opacity:0.30000000000000004"></path></g><path d="M286.53,96.45s-12.4,5.72-19.88,13c0,0,6.24,1.11,35.78-10.47,0,0-17.44,12.4-16.11,15.08S312.64,103,312.64,103s-13,11.22-11,13.46,19.85-10.09,19.85-10.09-10.73,11.1-8.61,13.21,16.82-9.83,16.82-9.83-7.74,10.89-6.36,12.4,14.34-11,14.34-11a41.35,41.35,0,0,0-21.22-18.3A39.45,39.45,0,0,0,286.53,96.45Z" style="fill:none;stroke:#263238;stroke-linecap:round;stroke-linejoin:round"></path><path d="M340.66,114.78a1.66,1.66,0,0,1-2.65-.46c-3.76-7.69-23.92-41.72-71.36-4.82,0,0,19-19.45,42.24-18.84,20.49.54,30.12,18,32.12,22.09a1.77,1.77,0,0,1-.28,2Z" style="fill:#4F46E5;stroke:#263238;stroke-linecap:round;stroke-linejoin:round"></path><path d="M360.83,162c-12,3.68-20.22.41-20.6.26a1.45,1.45,0,0,1-.78-1.88,1.43,1.43,0,0,1,1.87-.79c.14.06,9.58,3.73,22.61-1.78a1.45,1.45,0,0,1,1.88.77,1.43,1.43,0,0,1-.76,1.88A42.84,42.84,0,0,1,360.83,162Z" style="fill:#fff;stroke:#263238;stroke-linecap:round;stroke-linejoin:round"></path><path d="M189.15,253.31c0-2.66,3.33-5,8.25-6.19a3.5,3.5,0,0,1-.07-.65c0-3.77,6.45-6.83,14.39-6.83,7.24,0,13.21,2.54,14.22,5.85,5.23.55,9.25,3.83,9.25,7.82s-4.12,7.36-9.44,7.84c-2.43,2.43-6.95,4.07-12.14,4.07-5.91,0-11-2.12-13-5.12C194,259.21,189.15,256.5,189.15,253.31Z" style="fill:#fff;stroke:#263238;stroke-linecap:round;stroke-linejoin:round"></path><path d="M213.43,280.17c0-1.95-2.44-3.65-6.05-4.54a2.5,2.5,0,0,0,.05-.47c0-2.77-4.72-5-10.54-5-5.31,0-9.68,1.86-10.42,4.28-3.83.41-6.78,2.82-6.78,5.74s3,5.39,6.92,5.75c1.78,1.77,5.09,3,8.9,3,4.33,0,8-1.55,9.54-3.74C209.9,284.49,213.43,282.51,213.43,280.17Z" style="fill:#fff;stroke:#263238;stroke-linecap:round;stroke-linejoin:round"></path><path d="M157.06,297.57c0,1.4,1.57,2.62,3.89,3.27a1.86,1.86,0,0,0,0,.34c0,2,3,3.61,6.78,3.61,3.41,0,6.22-1.34,6.7-3.09,2.46-.29,4.35-2,4.35-4.13s-1.94-3.89-4.44-4.15a7.77,7.77,0,0,0-5.72-2.15c-2.79,0-5.16,1.13-6.13,2.71C159.33,294.45,157.06,295.88,157.06,297.57Z" style="fill:#fff;stroke:#263238;stroke-linecap:round;stroke-linejoin:round"></path></g><g id="freepik--Floor--inject-64"><line x1="43.22" y1="431.59" x2="456.78" y2="431.59" style="fill:none;stroke:#263238;stroke-linecap:round;stroke-linejoin:round"></line></g></svg>