<svg xmlns="http://www.w3.org/2000/svg" viewBox="0 0 500 500"><g id="freepik--Buildings--inject-48"><path id="freepik--buildings--inject-48" d="M444.71,381.48l-7.5,4.33V355.49l-3.75-2.17-3.35,1.94c-.09-6.75-.26-17.7-.4-17.7s-.32,11.47-.41,18.16L426,357.65v8.67l-7.5,4.33v-26l-7.5-4.33-7.51,4.33V377l-7.5,4.33V356.16l-7.5-4.34-7.51,4.34V334.5l-3.4-2c-.09-6.38-.23-13.8-.35-13.8s-.25,7.11-.34,13.4l-3.41-2-11.26,6.5V341l-6.53,3.77.11,14.19-8.58-5V332.33L340,328.21c-.09-6.73-.24-16-.38-16s-.28,9.25-.37,16l-7.13,4.12v9.18l-7.5-4.33-7.51,4.33v5.11l-7.5,4.34V321.7l-3.75-2.17-3.75,2.17v8.66l-3.76-2.17-7.5,4.34v-13l-3.75-2.17-7.5,4.34v18.83l-3.76-2.17V334l-3.78-2.18c-.08-6.1-.27-20.08-.43-20.08s-.35,13.26-.43,19.58l-2.86-1.65-7.5,4.33v-7.35l-11.26-6.5-7.5,4.33v-8.66l-4.73-2.73c-.08-6.41-.26-19.34-.42-19.34s-.33,12.31-.42,18.86l-1.94-1.12-7.5,4.33v21.66l-3.75,2.17V331l-7.5-4.33L208.35,331v13l-11.25-6.5v-8.66l-7.51-4.34-7.5,4.34v13l-3.75-2.16-7.5,4.33v17.33l-7.51,4.33V351.84l-7.5-4.33L144.57,354V343.35l-3.32-1.92a108.1,108.1,0,0,0-.43-11.17c-.16,0-.34,4.27-.42,10.68L137.07,339l-11.26,6.5v6.7l-11.25-6.5L95.64,356.45V330.76l-7.07-4.08c-.08-5.94-.27-20.35-.44-20.35s-.36,14.41-.43,20.35l-7.07,4.08v30l-7.5,4.33v18.5l-7.34,4.44v-7.88l-3.38-1.95c-.09-6.71-.24-15.78-.38-15.78s-.27,8.69-.36,15.35l-3.39-1.95L47,382.35v20.23H452.22V385.81Z" style="fill:#e0e0e0"></path></g><g id="freepik--Sun--inject-48"><g id="freepik--sun--inject-48"><circle cx="171.99" cy="77.2" r="15.34" transform="translate(57.34 226.85) rotate(-76.72)" style="fill:#f0997a"></circle></g></g><g id="freepik--Clouds--inject-48"><path id="freepik--Cloud--inject-48" d="M113,113.84c-1.14.81-2.81.78-4.26.62-1.71-.2-3.63-.41-4.94.7a13.56,13.56,0,0,0-1.61,2.06c-1.52,1.86-4.5.61-5.74,3.12-.18.37-.15,1.52-.62,1.65s-1.47-.6-2-.67a17,17,0,0,0-4.82.33,5.57,5.57,0,0,0-3.65,2.3c-.41.61-.77,1.36-1.5,1.54a2.3,2.3,0,0,1-1.24-.13,14.78,14.78,0,0,0-4.33-.89,3.93,3.93,0,0,0-3.63,2c-.08.19-.17.41-.37.46s-.39-.1-.55-.24a4.47,4.47,0,0,0-4-.87,2.21,2.21,0,0,0-1.17.69c-.4.51-.38,1.24-.78,1.76-.69.89-2.1.67-3.22.4-1.49-.35-3.22-.56-4.41.37-.32.25-.59.57-.92.81a5.16,5.16,0,0,1-3.27.41c-.74,0-9.33.52-9.19,1.24s2.31.5,2.79.53c.72,0,1.43.17,2.16.17a5.91,5.91,0,0,1,2.18.09c.45.18.75.55,1.25.69a5.66,5.66,0,0,0,3.44-.36,11.62,11.62,0,0,1,4-1.24,6.25,6.25,0,0,1,1.9.63,6.71,6.71,0,0,0,3.87-.06,6.3,6.3,0,0,1,2.66-.6c.45.1,1,.54,1.42.69a9.34,9.34,0,0,0,1.9.42c2.3.24,4.52-1.09,6.67-1.69,2.75-.77,4.3-.22,6.41,1.34a6.66,6.66,0,0,0,6.27.78,16.43,16.43,0,0,1,1.85-.77,7.24,7.24,0,0,1,4.84.2,12.1,12.1,0,0,0,2.79,1.28c3.29.65,6.3-3.27,9.54-2.41a9.1,9.1,0,0,1,1.85.85,28.6,28.6,0,0,0,5.63,2,3.15,3.15,0,0,0,1.09.17,3.1,3.1,0,0,0,1.4-.54,14.69,14.69,0,0,1,2.56-1.38,3.56,3.56,0,0,1,2.83.08,6,6,0,0,0,1.36.79c1.31.35,2.39-1.15,3.72-1.35s2.5.83,3.83.69,2.7-.89,4.15-1c3.26-.26,6.58.5,9.8-.35a17,17,0,0,1,3.69-.84c2.33-.06,4.63,1.37,6.89.82a.71.71,0,0,0,.25-.11c.24-.18.11-.61-.15-.76a1.56,1.56,0,0,0-.91-.11,7.54,7.54,0,0,1-2.83-.37,28.78,28.78,0,0,0-2.82-1c-3-.64-6.29,1.58-9.12.35a22.46,22.46,0,0,0-2.24-1.14c-1.62-.48-3.36.48-5,.15a5.92,5.92,0,0,1-3.19-2.36,10.74,10.74,0,0,0-2.83-2.87,2.89,2.89,0,0,0-3.68.46,11.05,11.05,0,0,0-1.24-3.06,3.69,3.69,0,0,0-2.7-1.74,2.65,2.65,0,0,1-1.41-.22c-.42-.3-.48-.89-.57-1.4a6.2,6.2,0,0,0-2.93-4.23,11.58,11.58,0,0,0-3.33-1.34,2.64,2.64,0,0,0-2.32.54,14.56,14.56,0,0,0-1,1.41A2.77,2.77,0,0,1,113,113.84Z" style="fill:#f0f0f0"></path><path id="freepik--cloud--inject-48" d="M208.31,141.09l-.26.13c-1.44.66-3.1.11-4.67.13a6.34,6.34,0,0,0-4.15,1.6c-.67.6-1.22,1.34-1.87,2A7.81,7.81,0,0,1,191,147a18.48,18.48,0,0,0-2.2-.31,9.68,9.68,0,0,0-3.86,1.21c-1.15.51-2.61,1.31-3.88.88a5.45,5.45,0,0,1-.77-.37c-1.22-.64-2.79-1-3.89-.13a3.9,3.9,0,0,0-3.56-.94,10.55,10.55,0,0,0-2.07.9c-3.25,1.62-6.93,2.09-10.53,2.53a.4.4,0,0,0,.15.52,1,1,0,0,0,.57.15,18.75,18.75,0,0,0,4.23-.23,1.46,1.46,0,0,1,.55,0,1.59,1.59,0,0,1,.4.18,3.77,3.77,0,0,0,2.86.17,7.93,7.93,0,0,0,2.52-1.48,5.37,5.37,0,0,0,5.8.72,1.53,1.53,0,0,1,.95-.28,1.66,1.66,0,0,1,.55.31,16.47,16.47,0,0,0,5.38,2.43,11.17,11.17,0,0,0,6.86.17c1.33-.47,2.52-1.31,3.88-1.66,2.28-.59,4.49.26,6.53,1.23a7.34,7.34,0,0,0,6-.26,3.49,3.49,0,0,1,1.62-.53c.81,0,1.47.76,2.28.8s1.6-.7,2.47-.81a3.82,3.82,0,0,1,2.28.73c1.88,1.06,4.13,1.93,6.15,1.18a8,8,0,0,1,2.68-1,6.26,6.26,0,0,1,1.91.53,5.74,5.74,0,0,0,3.75-.13c1.12-.43,2.06-1.69,3.27-1.82a2.39,2.39,0,0,1,1.4.46,5.25,5.25,0,0,0,2,.7,2.21,2.21,0,0,0,1.92-.75c.22-.28.39-.65.74-.73a1.29,1.29,0,0,1,.82.26,4.08,4.08,0,0,0,3.06.36c.5-.15,1-.53,1-1a9.5,9.5,0,0,1-4.59-.68,4,4,0,0,0-1.91-.77c-.82,0-1.5.78-2.32.74a3.5,3.5,0,0,1-1.11-.39,5.25,5.25,0,0,0-3.6-.23,1.31,1.31,0,0,1-.51.09c-.38,0-.63-.38-.89-.66a3.66,3.66,0,0,0-4.53-.67,3.7,3.7,0,0,0-2-2.83,9,9,0,0,0-3.84-.72,2.26,2.26,0,0,1-.9-.13c-.41-.22-.53-.73-.65-1.17a8.35,8.35,0,0,0-3.87-4.55,3.2,3.2,0,0,0-3.85.43A12.78,12.78,0,0,1,208.31,141.09Z" style="fill:#f0f0f0"></path></g><g id="freepik--burj-al-arab--inject-48"><g id="freepik--burj-al-arab--inject-48"><polygon points="149.49 318.93 127.42 331.67 120.06 327.43 142.13 314.68 149.49 318.93" style="fill:#e0e0e0"></polygon><polygon points="149.49 318.93 127.42 331.67 120.06 327.43 142.13 314.68 149.49 318.93" style="opacity:0.2"></polygon><polygon points="142.13 314.68 142.13 312.82 149.49 317.07 149.49 318.93 142.13 314.68" style="fill:#f0f0f0"></polygon><polygon points="142.13 312.8 142.13 314.68 120.06 327.43 120.06 325.55 142.13 312.8" style="fill:#e0e0e0"></polygon><path d="M130,263a1.74,1.74,0,0,1,1.57,0,.57.57,0,0,1,.32.46V400.69a.55.55,0,0,1-.32.45,1.74,1.74,0,0,1-1.57,0,.55.55,0,0,1-.33-.45V263.43A.56.56,0,0,1,130,263Z" style="fill:#ebebeb"></path><path d="M131.59,400.24a1.74,1.74,0,0,0-1.57,0,.47.47,0,0,0,0,.9,1.74,1.74,0,0,0,1.57,0,.48.48,0,0,0,0-.9Z" style="fill:#e0e0e0"></path><polygon points="138.71 282.68 138.71 284.22 127.42 290.74 127.42 289.2 138.71 282.68" style="fill:#fafafa"></polygon><polygon points="138.71 288.41 138.71 289.95 127.42 296.47 127.42 294.93 138.71 288.41" style="fill:#fafafa"></polygon><polygon points="138.71 294.14 138.71 295.68 127.42 302.2 127.42 300.66 138.71 294.14" style="fill:#fafafa"></polygon><polygon points="138.71 299.88 138.71 301.41 127.42 307.93 127.42 306.39 138.71 299.88" style="fill:#fafafa"></polygon><polygon points="138.71 305.61 138.71 307.14 127.42 313.66 127.42 312.12 138.71 305.61" style="fill:#fafafa"></polygon><polygon points="138.71 311.34 138.71 312.88 127.42 319.39 127.42 317.86 138.71 311.34" style="fill:#fafafa"></polygon><polygon points="138.71 317.07 138.71 318.61 127.42 325.13 127.42 323.59 138.71 317.07" style="fill:#fafafa"></polygon><polygon points="138.71 322.8 138.71 324.34 127.42 330.86 127.42 329.32 138.71 322.8" style="fill:#fafafa"></polygon><polygon points="138.71 328.53 138.71 330.07 127.42 336.59 127.42 335.05 138.71 328.53" style="fill:#fafafa"></polygon><polygon points="138.71 334.26 138.71 335.8 127.42 342.32 127.42 340.78 138.71 334.26" style="fill:#fafafa"></polygon><polygon points="138.71 339.99 138.71 341.53 127.42 348.05 127.42 346.51 138.71 339.99" style="fill:#fafafa"></polygon><polygon points="138.71 345.73 138.71 347.26 127.42 353.78 127.42 352.24 138.71 345.73" style="fill:#fafafa"></polygon><polygon points="138.71 351.46 138.71 353 127.42 359.51 127.42 357.97 138.71 351.46" style="fill:#fafafa"></polygon><polygon points="138.71 357.19 138.71 358.73 127.42 365.24 127.42 363.7 138.71 357.19" style="fill:#fafafa"></polygon><polygon points="138.71 362.92 138.71 364.46 127.42 370.97 127.42 369.44 138.71 362.92" style="fill:#fafafa"></polygon><polygon points="138.71 368.65 138.71 370.19 127.42 376.71 127.42 375.17 138.71 368.65" style="fill:#fafafa"></polygon><polygon points="138.71 374.38 138.71 375.92 127.42 382.44 127.42 380.9 138.71 374.38" style="fill:#fafafa"></polygon><polygon points="138.71 380.11 138.71 381.65 127.42 388.17 127.42 386.63 138.71 380.11" style="fill:#fafafa"></polygon><polygon points="138.71 385.84 138.71 387.38 127.42 393.9 127.42 392.36 138.71 385.84" style="fill:#fafafa"></polygon><polygon points="138.71 391.57 138.71 393.11 127.42 399.63 127.42 398.09 138.71 391.57" style="fill:#fafafa"></polygon><path d="M124.57,282.35l2.85-1.65V399.64l-2.85,1.64H121V291.87c-16.31,19.78-32.77,62.27-34,99.26,0,.1,0,6.51,0,8.51l-2.85,1.64H80.44C80.44,355.3,104.45,296.2,124.57,282.35Z" style="fill:#fafafa"></path><path d="M83.29,399.64H87c0-2,0-8.41,0-8.51,1.27-39.14,19.63-84.47,36.82-102.49v111h3.62V280.7C107.3,294.56,83.29,353.65,83.29,399.64Z" style="fill:#e0e0e0"></path><path d="M83.29,399.64H87c0-2,0-8.41,0-8.51,1.27-39.14,19.63-84.47,36.82-102.49v111h3.62V280.7C107.3,294.56,83.29,353.65,83.29,399.64Z" style="opacity:0.1"></path><path d="M101.18,291.44a3.45,3.45,0,0,1,2-2.84,10.85,10.85,0,0,1,9.83,0,3.45,3.45,0,0,1,2,2.84v.76a3.45,3.45,0,0,1-2,2.84,10.85,10.85,0,0,1-9.83,0,3.45,3.45,0,0,1-2-2.84Z" style="fill:#455a64"></path><path d="M113.05,289.36a10.91,10.91,0,0,0-9.83,0,3,3,0,0,0,0,5.68,10.85,10.85,0,0,0,9.83,0,3,3,0,0,0,0-5.68Z" style="fill:#263238"></path><path d="M134.78,395.38H86.23c0-7.17,4.74-14.34,14.22-19.81Z" style="fill:#263238"></path><path d="M116.59,291.44c-7.54,10.5-16.14,43.48-16.14,84.13l34.33,19.81V301.94Z" style="fill:#455a64"></path><path d="M134.77,362v2.26l-32.71-18.89c.07-.71.15-1.42.23-2.12Z" style="fill:#37474f"></path><path d="M134.77,349.5v2.27l-31.19-18c.1-.7.22-1.38.33-2.06Z" style="fill:#37474f"></path><path d="M134.77,355.73V358l-32-18.48c.1-.71.19-1.41.29-2.1Z" style="fill:#37474f"></path><path d="M134.77,380.66v2.26l-34.06-19.66c0-.74.06-1.47.1-2.2Z" style="fill:#37474f"></path><path d="M134.77,368.2v2.26l-33.29-19.22c.07-.72.13-1.43.2-2.14Z" style="fill:#37474f"></path><path d="M134.77,343.27v2.27l-30.24-17.46c.13-.69.26-1.36.38-2Z" style="fill:#37474f"></path><path d="M100.52,369.38l.06-2.23,34.19,19.74v2.26Z" style="fill:#37474f"></path><path d="M134.77,374.43v2.26L101,357.21l.15-2.16Z" style="fill:#37474f"></path><path d="M134.77,305.89v2.26l-20.9-12.06c.31-.61.61-1.19.91-1.74Z" style="fill:#37474f"></path><path d="M134.77,337v2.27l-29.14-16.83c.14-.68.28-1.34.43-2Z" style="fill:#37474f"></path><path d="M134.77,312.12v2.26l-23.06-13.31c.25-.63.49-1.24.74-1.83Z" style="fill:#37474f"></path><path d="M134.77,393.12v2.26l-34.33-19.81c0-.76,0-1.5,0-2.25Z" style="fill:#37474f"></path><path d="M134.77,330.81v2.27L106.88,317c.16-.67.32-1.33.49-2Z" style="fill:#37474f"></path><path d="M134.77,318.35v2.26l-24.89-14.37.63-1.89Z" style="fill:#37474f"></path><path d="M134.77,324.58v2.26l-26.49-15.29c.18-.66.36-1.31.55-1.94Z" style="fill:#37474f"></path><path d="M116.59,291.44c-7.54,10.5-16.14,43.48-16.14,84.13C91,381,86.23,388.21,86.23,395.38c0-30.66,17.14-87.59,24.55-98.8a17.17,17.17,0,0,1,5.81-5.14" style="fill:#37474f"></path><path d="M108.71,303a16.2,16.2,0,0,0-2.06,2.08c.19-.47.38-.91.57-1.35a16.19,16.19,0,0,1,2.33-2.42,21.23,21.23,0,0,1,2.91-2h0l0,0-.25.6c-.14.37-.27.75-.45,1.13l0,.05A15.89,15.89,0,0,0,108.71,303Z" style="fill:#263238"></path><path d="M103.92,331.7l-.33,2.06a38.61,38.61,0,0,0-6.22,4.4,26.47,26.47,0,0,0-2,1.93c.27-1,.55-2.07.83-3.1.38-.36.77-.72,1.18-1.08A30.28,30.28,0,0,1,103.92,331.7Z" style="fill:#263238"></path><path d="M101,320.69c.27-.84.55-1.68.82-2.5a34,34,0,0,1,5.53-3.2l-.05.18c-.15.6-.3,1.19-.44,1.8A44.5,44.5,0,0,0,101,320.69Z" style="fill:#263238"></path><path d="M113.88,296.09a21.74,21.74,0,0,0-2.84,2,16.1,16.1,0,0,0-2.41,2.47v0c.28-.57.54-1.1.8-1.59h0a15.52,15.52,0,0,1,2.44-2.55,20.64,20.64,0,0,1,2.91-2h0c-.3.54-.59,1.11-.89,1.72Z" style="fill:#263238"></path><path d="M106.27,308.06c-.41.3-.8.63-1.19,1,.16-.42.32-.84.48-1.24a16,16,0,0,1,1.66-1.41,23.27,23.27,0,0,1,3.3-2h0l-.09.26-.54,1.63A18.31,18.31,0,0,0,106.27,308.06Z" style="fill:#263238"></path><path d="M89.86,378.65a19.52,19.52,0,0,0-3.15,7c.11-1.19.23-2.41.37-3.64a20.13,20.13,0,0,1,2.78-5.59,27.75,27.75,0,0,1,4.44-4.87,39.65,39.65,0,0,1,6.28-4.38l-.06,2.23h0a39,39,0,0,0-6.22,4.39A28.16,28.16,0,0,0,89.86,378.65Z" style="fill:#263238"></path><path d="M104.67,313.36a17.19,17.19,0,0,0-1.67,1.4c.17-.48.34-.95.5-1.42a11.44,11.44,0,0,1,1.89-1.69,25.05,25.05,0,0,1,3.45-2h0c-.2.55-.54,1.86-.55,1.92h0A19,19,0,0,0,104.67,313.36Z" style="fill:#263238"></path><path d="M102.07,345.34a39.25,39.25,0,0,0-6.22,4.4A27.6,27.6,0,0,0,92,353.83c.23-1.05.48-2.11.72-3.15a29.28,29.28,0,0,1,3.13-3.19,30.89,30.89,0,0,1,6.45-4.27c-.08.68-.15,1.36-.22,2Z" style="fill:#263238"></path><path d="M105.64,322.48a38.57,38.57,0,0,0-6.29,4.07l-.22.21c.25-.85.51-1.7.77-2.53a31.85,31.85,0,0,1,6.17-3.75c-.15.66-.29,1.32-.43,2Z" style="fill:#263238"></path><path d="M95.27,355.64a27.41,27.41,0,0,0-4.44,4.88c-.14.19-.26.39-.39.59.22-1.07.44-2.14.67-3.21a28,28,0,0,1,4.16-4.51,41.65,41.65,0,0,1,6.42-4.29v0c-.06.7-.13,1.4-.19,2.1A39.71,39.71,0,0,0,95.27,355.64Z" style="fill:#263238"></path><path d="M94.5,367.66a27,27,0,0,0-4.44,4.87,20.1,20.1,0,0,0-2.33,4.3c.16-1.12.32-2.26.5-3.4a20.24,20.24,0,0,1,1.83-3.15,27.33,27.33,0,0,1,4.44-4.87,40,40,0,0,1,6.32-4.35c0,.73-.07,1.46-.1,2.2A39.06,39.06,0,0,0,94.5,367.66Z" style="fill:#263238"></path><path d="M94.82,361.61a27.33,27.33,0,0,0-4.44,4.87A22.3,22.3,0,0,0,89,368.73q.28-1.64.6-3.27c.25-.41.49-.82.78-1.22a27.38,27.38,0,0,1,4.44-4.88,40.44,40.44,0,0,1,6.37-4.31l-.15,2.16A39.71,39.71,0,0,0,94.82,361.61Z" style="fill:#263238"></path><path d="M98.32,332.48c-.41.36-.8.72-1.18,1.09q.44-1.54.87-3.06l.31-.28a31.46,31.46,0,0,1,6.6-4.19h0c-.13.67-.25,1.35-.38,2A39.06,39.06,0,0,0,98.32,332.48Z" style="fill:#263238"></path><path d="M96.54,343.91a29.53,29.53,0,0,0-2.9,2.92l.78-3.11c.66-.7,1.36-1.39,2.12-2.06a31.28,31.28,0,0,1,6.51-4.24c-.1.69-.19,1.39-.29,2.1A39,39,0,0,0,96.54,343.91Z" style="fill:#263238"></path><path d="M89.79,382.59a27.38,27.38,0,0,1,4.44-4.88,39.69,39.69,0,0,1,6.22-4.39v2.25c-.59.34-1.16.69-1.72,1a38.14,38.14,0,0,0-4.5,3.35c-.44.39-.87.78-1.28,1.18s-.79.8-1.16,1.21a24,24,0,0,0-2,2.49,18.25,18.25,0,0,0-3.56,10.54c0-1.25,0-2.56.1-3.9A18.68,18.68,0,0,1,89.79,382.59Z" style="fill:#263238"></path><path d="M135.71,275.85a21.73,21.73,0,0,1,3-1.65V393.12l-2,1.13-3.62-2.08V282.59c-14.56,14.52-26.91,52-27.54,86.57,0,.14,0,22.11,0,24l-2,1.13-3.64-2.1V371.64C100.33,330.28,117,285.4,135.71,275.85Z" style="fill:#e0e0e0"></path><path d="M101.93,371c0,.31,0,19.74,0,20l3.64,2.1c0-1.85,0-23.82,0-24,.65-36.1,14.11-75.43,29.5-88.4V391l3.63,2.08V274.2C119.45,282.64,102.17,328.73,101.93,371Z" style="fill:#fafafa"></path><polygon points="135.08 391.04 133.12 392.17 133.12 282.59 135.08 280.76 135.08 391.04" style="opacity:0.1"></polygon><polygon points="138.71 312.7 119.26 301.48 119.26 298.8 138.71 310.02 138.71 312.7" style="fill:#fafafa"></polygon><polygon points="120.41 302.14 135.09 310.62 133.12 310.62 120 303.04 120.41 302.14" style="fill:#e0e0e0"></polygon><polygon points="120.41 302.14 135.09 310.62 133.12 310.62 120 303.04 120.41 302.14" style="opacity:0.2"></polygon><polygon points="138.71 340.87 109.79 324.18 109.79 321.5 138.71 338.19 138.71 340.87" style="fill:#fafafa"></polygon><polygon points="112.01 325.46 135.09 338.78 133.12 338.78 111.75 326.44 112.01 325.46" style="fill:#e0e0e0"></polygon><polygon points="112.01 325.46 135.09 338.78 133.12 338.78 111.75 326.44 112.01 325.46" style="opacity:0.2"></polygon><polygon points="138.71 372.16 104.39 352.35 104.39 349.67 138.71 369.47 138.71 372.16" style="fill:#fafafa"></polygon><polygon points="106.6 353.63 135.09 370.06 133.12 370.06 106.49 354.7 106.6 353.63" style="fill:#e0e0e0"></polygon><polygon points="106.6 353.63 135.09 370.06 133.12 370.06 106.49 354.7 106.6 353.63" style="opacity:0.2"></polygon></g></g><g id="freepik--burj-khalifa--inject-48"><g id="freepik--burj-khalifa--inject-48"><path d="M371.26,115.36h0l.5-17.24h.77l0-13.3h.36l.22-13.69h.27l.08-13.52h.23l-.07-12.45h.45l.05-11.24h.65V24.49a.36.36,0,0,1,.21-.3,1.14,1.14,0,0,1,1,0,.36.36,0,0,1,.21.3v9.43h.28V45.16h.24l.15,12.45h.3l.11,13.52h.41l.33,13.69h.25l.17,13.3h.82l.47,15.9h0a1.9,1.9,0,0,1-.95,1.59c-1,.67-4.05,1.34-7.38,1h0A3.58,3.58,0,0,1,371.26,115.36Z" style="fill:#4F46E5"></path><path d="M371.26,115.36h0l.5-17.24h.77l0-13.3h.36l.22-13.69h.27l.08-13.52h.23l-.07-12.45h.45l.05-11.24h.65V24.49a.36.36,0,0,1,.21-.3,1.14,1.14,0,0,1,1,0,.36.36,0,0,1,.21.3v9.43h.28V45.16h.24l.15,12.45h.3l.11,13.52h.41l.33,13.69h.25l.17,13.3h.82l.47,15.9h0a1.9,1.9,0,0,1-.95,1.59c-1,.67-4.05,1.34-7.38,1h0A3.58,3.58,0,0,1,371.26,115.36Z" style="opacity:0.1"></path><path d="M373.33,98.19h.42V84.87h.46V57.68h.46V34.29h.46V24.15l-.11,0a.36.36,0,0,0-.21.3v9.43h-.65l-.05,11.24h-.45l.07,12.45h-.23l-.08,13.52h-.27l-.22,13.69h-.36l0,13.3h-.36v14.31h1.16Z" style="fill:#fff;opacity:0.2"></path><g style="opacity:0.1"><path d="M373.33,112.43c-.08-2.38-.13-4.75-.19-7.12s-.09-4.75-.12-7.12v-.31h.74l-.32.32-.09-6.66c0-2.22,0-4.44,0-6.66v-.45h.92l-.45.45,0-6.8c0-2.26,0-4.53,0-6.79l.07-13.6v-.43h.89l-.43.42L374.4,46c0-2,.08-3.9.12-5.85s.08-3.9.15-5.85c.07,2,.11,3.9.15,5.85s.1,3.9.12,5.85l.16,11.69v.43h-.89l.43-.43.06,13.6c0,2.26,0,4.53,0,6.79l0,6.8v.45h-.91l.44-.45c0,2.22,0,4.44,0,6.66l-.09,6.66v.31h-.72l.3-.3c0,2.37-.06,4.74-.12,7.12S373.41,110.05,373.33,112.43Z" style="fill:#fff"></path></g><path d="M375.52,24.07a1.08,1.08,0,0,1,.52.12.36.36,0,0,1,.21.3v9.43h.28V45.16h.24l.15,12.45h.3l.11,13.52h.41l.33,13.69h.25l.17,13.3h.82l.47,15.9h0a1.88,1.88,0,0,1-.95,1.59,8.52,8.52,0,0,1-3.31.94Z" style="opacity:0.1"></path><path d="M377.93,98.12h-.58V84.82h-.51V71.13h-.58v-26h-.38V33.92h-.36V24.07a1.08,1.08,0,0,1,.52.12.36.36,0,0,1,.21.3v9.43h.28V45.16h.24l.15,12.45h.3l.11,13.52h.41l.33,13.69h.25l.17,13.3h.82l.47,15.9h0a1.76,1.76,0,0,1-.56,1.28l-1.29.21Z" style="opacity:0.1"></path><path d="M378.08,111.4c-1.28-.84-3.36-1.19-6.65-.35a2.77,2.77,0,0,0-.48,1.87h0V137h0a5.06,5.06,0,0,0,3.07,4.79c1.93.12,4.78-.12,5.83-.73a4.55,4.55,0,0,0,.21-1.61h0v-24.3h0A4.42,4.42,0,0,0,378.08,111.4Z" style="fill:#4F46E5"></path><path d="M377.21,141.74V111l-.49-.16h-.06a6.6,6.6,0,0,0-1.57-.22h-.32l-.41,0c-.16,0-.32,0-.48,0l-.4,0-.63.09-.35.06-1.07.24h0v28.28h0c.06.12.12.24.19.36l.06.1c.05.08.1.16.16.24l.09.12.16.21.11.13.17.19.13.13.19.17.14.12.22.16.14.11.27.16a.57.57,0,0,0,.13.08,3.42,3.42,0,0,0,.43.21h0l.74,0h0A18.27,18.27,0,0,0,377.21,141.74Z" style="fill:#fff;opacity:0.2"></path><path d="M375.27,110.59a11,11,0,0,0-1.94.09v30.77a4.55,4.55,0,0,0,.69.38c.39,0,.81,0,1.25,0Z" style="fill:#fff;opacity:0.2"></path><path d="M371,137h0a4.8,4.8,0,0,0,.48,2.29V111.05a2.77,2.77,0,0,0-.48,1.87Z" style="opacity:0.1"></path><path d="M371.43,135.63c-1.07,1.31-.46,4.86,2.59,6.2,1.93.12,4.78-.12,5.83-.73a4.48,4.48,0,0,0-1.77-5.12C376.8,135.14,374.72,134.79,371.43,135.63Z" style="fill:#4F46E5"></path><path d="M382.49,136.75a1.49,1.49,0,0,0-.12-.7,14.61,14.61,0,0,0-11.46-1.65,3.12,3.12,0,0,0-.87,2.28h0v23a1.82,1.82,0,0,0,0,.33h0c.07,1.18.89,2.72,3.73,4.35a10.45,10.45,0,0,0,6.35-1.3c2-1.17,2.38-2.34,2.37-3Z" style="fill:#4F46E5"></path><path d="M382.49,136.75a1.49,1.49,0,0,0-.12-.7,14.61,14.61,0,0,0-11.46-1.65,3.12,3.12,0,0,0-.87,2.28h0v23a1.82,1.82,0,0,0,0,.33h0c.07,1.18.89,2.72,3.73,4.35a10.45,10.45,0,0,0,6.35-1.3c2-1.17,2.38-2.34,2.37-3Z" style="opacity:0.1"></path><path d="M377.49,134.19a13.55,13.55,0,0,0-6.58.21h0v27.71a9.67,9.67,0,0,0,2.86,2.29,10.11,10.11,0,0,0,3.72-.25Z" style="fill:#fff;opacity:0.2"></path><path d="M372.45,163.55a14.5,14.5,0,0,0,1.32.85,3.83,3.83,0,0,0,.43,0V133.9a13.46,13.46,0,0,0-1.75.16Z" style="fill:#fff;opacity:0.2"></path><path d="M370,136.68v23a1.82,1.82,0,0,0,0,.33h0a3.71,3.71,0,0,0,.87,2.06V134.4a3.12,3.12,0,0,0-.87,2.28Z" style="opacity:0.1"></path><path d="M380.12,163.1c3.16-1.83,2.25-3.67,2.25-3.67a14.58,14.58,0,0,0-11.46-1.64s-3.28,3.07,2.86,6.61A10.45,10.45,0,0,0,380.12,163.1Z" style="fill:#4F46E5"></path><path d="M372.3,157.21c-5.35,1.13-6.91,4.81-6.91,4.81v18.13s4.88,3.08,9.66,2.32c6.86-1.1,7.88-4.94,7.88-4.94V159.4S377.65,156.09,372.3,157.21Z" style="fill:#4F46E5"></path><path d="M379.28,157.78a13.77,13.77,0,0,0-7-.57,11.72,11.72,0,0,0-3.57,1.37V181.7a13.16,13.16,0,0,0,6.32.77,14.54,14.54,0,0,0,4.23-1.29Z" style="fill:#fff;opacity:0.2"></path><path d="M371.38,157.44v25a12.52,12.52,0,0,0,2.14.19V157a10.22,10.22,0,0,0-1.22.17Z" style="fill:#fff;opacity:0.2"></path><path d="M374.44,182.54l.61-.07.22,0V157c-.28,0-.55,0-.83,0Z" style="fill:#fff;opacity:0.2"></path><path d="M365.39,180.15s1.56-3.69,6.91-4.81,10.63,2.19,10.63,2.19-1,3.84-7.88,4.94C370.27,183.23,365.39,180.15,365.39,180.15Z" style="fill:#4F46E5"></path><path d="M384,199.37V180.23h0c-.06-1.95-1.22-4.58-6.72-5.36-9.06-1.29-11.87,4.53-11.87,4.53v19.13a15.37,15.37,0,0,0,9.44,2.35c4.06,2.27,8.77.74,8.77.74a5.82,5.82,0,0,0,.38-2.25Z" style="fill:#4F46E5"></path><path d="M384,199.37V180.23h0c-.06-1.95-1.22-4.58-6.72-5.36-9.06-1.29-11.87,4.53-11.87,4.53v19.13a15.37,15.37,0,0,0,9.44,2.35c4.06,2.27,8.77.74,8.77.74a5.82,5.82,0,0,0,.38-2.25Z" style="opacity:0.1"></path><path d="M367.07,199.5a16,16,0,0,0,7.09,1.42V174.7a10.87,10.87,0,0,0-7.09,2.64Z" style="fill:#fff;opacity:0.2"></path><path d="M368.73,200.16a17.34,17.34,0,0,0,1.88.48V175.31a11.3,11.3,0,0,0-1.88.83Z" style="fill:#fff;opacity:0.2"></path><path d="M377.26,174.87h-.05v26.94a13,13,0,0,0,6.39-.19,5.82,5.82,0,0,0,.38-2.25V180.23h0C383.92,178.28,382.76,175.65,377.26,174.87Z" style="opacity:0.1"></path><path d="M380.53,175.73v26.38a13,13,0,0,0,3.07-.49,5.82,5.82,0,0,0,.38-2.25V180.23h0C383.93,178.75,383.25,176.89,380.53,175.73Z" style="opacity:0.1"></path><path d="M374.83,200.88a15.37,15.37,0,0,1-9.44-2.35s2.81-5.81,11.87-4.52,6.34,7.61,6.34,7.61S378.89,203.15,374.83,200.88Z" style="fill:#4F46E5"></path><path d="M384.08,199h0a4.38,4.38,0,0,0-1.84-3.43v-.87h0c-.09-2-3.57-4.11-3.57-4.11-5.74.64-7.7,3.28-7.7,3.28s-4.67,1.34-5.69,4.45v15.61s4.74,2.57,8.44,2a16,16,0,0,0,9.62.73,3.1,3.1,0,0,0,.73-2.18h0Z" style="fill:#4F46E5"></path><path d="M378.67,217a14.73,14.73,0,0,0,4.67-.38,3.1,3.1,0,0,0,.73-2.18h0V199h0a4.38,4.38,0,0,0-1.84-3.43v-.87h0c-.09-2-3.57-4.11-3.57-4.11V217Z" style="opacity:0.1"></path><path d="M383.34,216.63a3.1,3.1,0,0,0,.73-2.18h0V199h0a4.38,4.38,0,0,0-1.84-3.43v21.3C382.62,216.8,383,216.72,383.34,216.63Z" style="opacity:0.1"></path><path d="M365.28,198.32v15.61a19.75,19.75,0,0,0,5.69,1.93v-22S366.3,195.21,365.28,198.32Z" style="fill:#fff;opacity:0.2"></path><path d="M367.38,214.87a19.77,19.77,0,0,0,2.09.68V194.44a11.35,11.35,0,0,0-2.09,1.22Z" style="fill:#fff;opacity:0.2"></path><path d="M373.56,215.92l.16,0a8.13,8.13,0,0,0,1.89.66V191.2a13.42,13.42,0,0,0-2.05.78Z" style="fill:#fff;opacity:0.2"></path><path d="M383.34,216.63c1.62-1.94.3-4.62-1.25-5.56,1-2.14-3.42-4.87-3.42-4.87-5.74.64-7.7,3.28-7.7,3.28s-4.67,1.34-5.69,4.45c0,0,4.74,2.57,8.44,2A16,16,0,0,0,383.34,216.63Z" style="fill:#4F46E5"></path><path d="M384.08,213.89h0a6.86,6.86,0,0,0-1-3c-2.25-4.05-3.23-5.08-4.45-5.34s-3.38.44-8.69,3.51c-3.54,2.05-4.73,3.44-4.63,4.22h0l0,20.11h0c-.13,1.39,1.34,3.1,6.12,5.36,6.76-.06,10.89-3.55,10.66-5a1.86,1.86,0,0,0,2-2.11h0Z" style="fill:#4F46E5"></path><path d="M384.08,213.89h0a6.86,6.86,0,0,0-1-3c-2.25-4.05-3.23-5.08-4.45-5.34s-3.38.44-8.69,3.51c-3.54,2.05-4.73,3.44-4.63,4.22h0l0,20.11h0c-.13,1.39,1.34,3.1,6.12,5.36,6.76-.06,10.89-3.55,10.66-5a1.86,1.86,0,0,0,2-2.11h0Z" style="opacity:0.1"></path><path d="M383.08,210.87c-2.22-4-3.2-5.06-4.41-5.33v31.59c2.32-1.13,3.56-2.59,3.43-3.41a1.86,1.86,0,0,0,2-2.11h0V213.89h0A6.86,6.86,0,0,0,383.08,210.87Z" style="opacity:0.1"></path><path d="M383.08,210.87c-.51-.91-.94-1.66-1.34-2.29v26.19a1.52,1.52,0,0,0,.36-1.05,1.86,1.86,0,0,0,2-2.11h0V213.89h0A6.86,6.86,0,0,0,383.08,210.87Z" style="opacity:0.1"></path><path d="M374.83,206.46c-1.24.56-2.82,1.39-4.89,2.58-3.54,2.05-4.73,3.44-4.63,4.22h0l0,20.11c-.13,1.39,1.34,3.1,6.12,5.36a18.71,18.71,0,0,0,3.39-.34Z" style="fill:#fff;opacity:0.2"></path><path d="M368.26,237a25.11,25.11,0,0,0,2.42,1.35V208.62l-.74.42c-.64.37-1.19.71-1.68,1Z" style="fill:#fff;opacity:0.2"></path><path d="M378.67,223s-3.83-1.58-8.48,2.18c-3.57,1.47-4.37,2.8-4.36,3.7,0,.75.05,1.73.05,1.73a2,2,0,0,0-.57,1.7v14.5c-.26,1.43,1.3,3.11,6.24,5.44,6.76-.06,10.89-3.56,10.67-5,2.53.13,8.58-2.25,8.68-6.16v-15.1C385.25,221.93,381.82,221.75,378.67,223Z" style="fill:#4F46E5"></path><path d="M390.36,225.55c-.66-.45-1.28-.84-1.87-1.18v20h.63a6.09,6.09,0,0,0,1.24-1.51Z" style="fill:#fff;opacity:0.2"></path><path d="M382.22,247.18a9.41,9.41,0,0,0,3.61-.77V223.08a9.36,9.36,0,0,0-7.16-.13v27.7C381.06,249.51,382.35,248,382.22,247.18Z" style="opacity:0.1"></path><path d="M381.74,248.38V222.3a9.3,9.3,0,0,0-3.07.65v27.7A8.43,8.43,0,0,0,381.74,248.38Z" style="opacity:0.1"></path><path d="M374.18,223a11.4,11.4,0,0,0-4,2.16c-3.11,1.28-4.12,2.45-4.32,3.33v2.1h0V248.5c.84,1.05,2.6,2.24,5.68,3.7a19.6,19.6,0,0,0,2.63-.21Z" style="fill:#fff;opacity:0.2"></path><path d="M367.07,249.63a17,17,0,0,0,2.09,1.34V225.59a10.46,10.46,0,0,0-2.09,1.26Z" style="fill:#fff;opacity:0.2"></path><path d="M365.31,232.26v14.5a2.13,2.13,0,0,0,.57,1.75V230.56A2,2,0,0,0,365.31,232.26Z" style="opacity:0.2"></path><path d="M382.22,247.18c2.53.13,8.58-2.25,8.68-6.16-5.65-4-9.08-4.17-12.23-3,0,0-3.83-1.58-8.48,2.19-6.52,2.68-3.79,4.9-3.79,4.9-2.07,1.81-1.76,3.79,5.15,7.06C378.31,252.14,382.44,248.64,382.22,247.18Z" style="fill:#4F46E5"></path><path d="M391.68,258.19v-18.4a22.1,22.1,0,0,0-6.18-2.41,45.45,45.45,0,0,0-7.83,0,31,31,0,0,0-6.73-2.36,31.85,31.85,0,0,0-7.44.3,8.94,8.94,0,0,0-.76,3h0V257h0a2.84,2.84,0,0,0,.22,1.25c.61,1.3,2.9,3.13,3.66,3.72v1.9q0,.39,0,.81h0a4.21,4.21,0,0,0,.33,1.48c.72,1.58,4.18,3.57,4.18,3.57s4.72-.73,6.7-1.88a14.68,14.68,0,0,0,3.66-3.37s4.92-1,6.92-2.19a9.91,9.91,0,0,0,3.26-3.87l-.28-.15Z" style="fill:#4F46E5"></path><path d="M391.68,258.19v-18.4a22.1,22.1,0,0,0-6.18-2.41,45.45,45.45,0,0,0-7.83,0,31,31,0,0,0-6.73-2.36,31.85,31.85,0,0,0-7.44.3,8.94,8.94,0,0,0-.76,3h0V257h0a2.84,2.84,0,0,0,.22,1.25c.61,1.3,2.9,3.13,3.66,3.72v1.9q0,.39,0,.81h0a4.21,4.21,0,0,0,.33,1.48c.72,1.58,4.18,3.57,4.18,3.57s4.72-.73,6.7-1.88a14.68,14.68,0,0,0,3.66-3.37s4.92-1,6.92-2.19a9.91,9.91,0,0,0,3.26-3.87l-.28-.15Z" style="opacity:0.1"></path><path d="M387.05,262h1.81a6.53,6.53,0,0,0,1.06-1V238.89a22.26,22.26,0,0,0-2.87-1.15Z" style="fill:#fff;opacity:0.2"></path><path d="M384.62,262.26v-25a52.23,52.23,0,0,0-6.95.1l.11,19.53Z" style="opacity:0.1"></path><path d="M377.93,267.8a15,15,0,0,0,3.52-3.25V237.2c-2,0-3.78.18-3.78.18V267.8Z" style="opacity:0.1"></path><path d="M377.67,237.38s-1.34-.64-3-1.27V267.8h3V237.38Z" style="opacity:0.1"></path><path d="M366.63,262v0h4.89V235.13c-.2,0-.39-.08-.58-.11a31.85,31.85,0,0,0-7.44.3v23.74A21,21,0,0,0,366.63,262Z" style="fill:#fff;opacity:0.2"></path><path d="M365.87,261.36c.31.26.58.47.76.61v1.21h1.63V234.89c-.83,0-1.65.08-2.39.15Z" style="fill:#fff;opacity:0.2"></path><path d="M381.5,264.48a14.68,14.68,0,0,1-3.66,3.37c-2,1.15-6.7,1.88-6.7,1.88s-3.46-2-4.18-3.57a7.18,7.18,0,0,1-.07-4s-3.18-2.34-3.92-3.91.53-4.3.53-4.3a31.85,31.85,0,0,1,7.44-.3,31,31,0,0,1,6.73,2.36,45.45,45.45,0,0,1,7.83,0,22.44,22.44,0,0,1,6.18,2.41,9.91,9.91,0,0,1-3.26,3.87C386.42,263.44,381.5,264.48,381.5,264.48Z" style="fill:#4F46E5"></path><path d="M383.05,254.87c-3.5.3-5.27.64-5.27.64s-.85-.31-3.62-1.42a16,16,0,0,0-10.54-.22,5.56,5.56,0,0,0-1.32,3.25v15.5a3.51,3.51,0,0,0,1.27,2.8c.72.66,1.34,1.23,1.77,1.64v6.07c-.3,2.35,5.16,4.62,5.16,4.62s6.09-.75,7.31-2.06a68.44,68.44,0,0,0,4.77-5.78s2.05-.51,5-1.55c2.21-.79,4.13-4.56,4.13-4.56V258.19S387,254.53,383.05,254.87Z" style="fill:#4F46E5"></path><path d="M388.71,256.35a17,17,0,0,0-1.66-.76v20h1.66Z" style="fill:#fff;opacity:0.2"></path><path d="M384.18,277V254.89a6.11,6.11,0,0,0-1.13,0c-3.5.3-5.27.64-5.27.64V277Z" style="opacity:0.1"></path><path d="M380.57,277v-21.9c-1.86.21-2.79.39-2.79.39V277Z" style="opacity:0.1"></path><path d="M373.56,253.86V277h4.22V255.51s-.85-.31-3.62-1.42Z" style="opacity:0.1"></path><path d="M369.47,253.09a16.45,16.45,0,0,0-5.85.78l-.12.14v17.44h6Z" style="fill:#fff;opacity:0.2"></path><path d="M367.38,253.13a16.18,16.18,0,0,0-1.64.21v21.35h1.64Z" style="fill:#fff;opacity:0.2"></path><path d="M363.62,269.48s-2.95,3.3-.05,5.94l2.43,2.25s-.36,3.11-.66,5.46,5.16,4.62,5.16,4.62,6.09-.75,7.31-2.06a68.44,68.44,0,0,0,4.77-5.78s2.05-.51,5-1.55c2.21-.79,4.13-4.56,4.13-4.56s-4.71-3.66-8.63-3.32c-3.5.3-5.27.64-5.27.64s-.85-.31-3.62-1.42A16,16,0,0,0,363.62,269.48Z" style="fill:#4F46E5"></path><path d="M386,269.4c-6.72.53-7.9.58-7.9.58s-.8-.37-3.4-1.44c-4.62-1.9-10.51.32-10.51.32a5.85,5.85,0,0,0-1.88,3.41h0v.06s0,.05,0,.08v15h0a3.07,3.07,0,0,0,1.33,2.6l1.29,1v6.26a2.16,2.16,0,0,0,0,.36h0c.21,2.89,5.17,4.85,5.17,4.85s6.06-.54,7.81-2.73,4.44-5.36,4.44-5.36,5.46-1.49,9.26-2.5a6.94,6.94,0,0,0,4.75-4.57V272.27A17.15,17.15,0,0,0,386,269.4Z" style="fill:#4F46E5"></path><path d="M386,269.4c-6.72.53-7.9.58-7.9.58s-.8-.37-3.4-1.44c-4.62-1.9-10.51.32-10.51.32a5.85,5.85,0,0,0-1.88,3.41h0v.06s0,.05,0,.08v15h0a3.07,3.07,0,0,0,1.33,2.6l1.29,1v6.26a2.16,2.16,0,0,0,0,.36h0c.21,2.89,5.17,4.85,5.17,4.85s6.06-.54,7.81-2.73,4.44-5.36,4.44-5.36,5.46-1.49,9.26-2.5a6.94,6.94,0,0,0,4.75-4.57V272.27A17.15,17.15,0,0,0,386,269.4Z" style="opacity:0.1"></path><path d="M393,291.42a6.65,6.65,0,0,0,2.2-1.85v-18a18.81,18.81,0,0,0-2.2-1Z" style="fill:#fff;opacity:0.2"></path><path d="M387.24,292.34v-23c-.41,0-.82,0-1.25,0-6.72.53-7.9.58-7.9.58v22.36Z" style="opacity:0.1"></path><path d="M381.55,292.34v-22.6c-2.85.22-3.46.24-3.46.24v22.36Z" style="opacity:0.1"></path><path d="M374.5,268.47v23.87h3.59V270s-.8-.37-3.4-1.44Z" style="opacity:0.1"></path><path d="M364.92,291.07v.46h5.66V267.77a19.74,19.74,0,0,0-6.4,1.09v21.62Z" style="fill:#fff;opacity:0.2"></path><path d="M364.92,291.07v2h1.67V268.19a16.9,16.9,0,0,0-2.41.67v21.62Z" style="fill:#fff;opacity:0.2"></path><path d="M382.34,294.45s5.46-1.49,9.26-2.5a6.94,6.94,0,0,0,4.75-4.57A17.2,17.2,0,0,0,386,284.5c-6.72.54-7.9.59-7.9.59s-.8-.37-3.4-1.44c-4.62-1.91-10.51.31-10.51.31s-3.85,3.4-.55,6.07c1.85,1.5,2.5,2,2.5,2s-.22,1-1.15,4.9c-.78,3.32,5.11,5.64,5.11,5.64s6.06-.54,7.81-2.73S382.34,294.45,382.34,294.45Z" style="fill:#4F46E5"></path><path d="M390.32,284.27c-2.73-.41-11.93.64-11.93.64s-7.45-3.92-10.17-4.35a32.24,32.24,0,0,0-7.44.31A8.67,8.67,0,0,0,360,284h0v15.6h.05a2,2,0,0,0,.19.65c.5,1.07,3.76,3.44,5.76,4.82v7.32a2.62,2.62,0,0,0,.15,1c.72,1.57,4.18,3.57,4.18,3.57s4.72-.73,6.7-1.89,5.17-6.62,5.17-6.62,9-1.67,11-2.82a9.89,9.89,0,0,0,3.26-3.87V286.68A22.31,22.31,0,0,0,390.32,284.27Z" style="fill:#4F46E5"></path><path d="M392,306.18a7.42,7.42,0,0,0,1.26-.52,5.38,5.38,0,0,0,.75-.53V285.44a18.25,18.25,0,0,0-2-.77Z" style="fill:#fff;opacity:0.2"></path><path d="M382.22,308.48s3.39-.63,6.47-1.38V284.18c-3.67,0-10.3.73-10.3.73v29A39.71,39.71,0,0,0,382.22,308.48Z" style="opacity:0.1"></path><path d="M382.22,308.48l1.06-.2V284.44c-2.62.21-4.89.47-4.89.47v29A39.71,39.71,0,0,0,382.22,308.48Z" style="opacity:0.1"></path><path d="M373.33,316.39a15.23,15.23,0,0,0,3.72-1.29,5.87,5.87,0,0,0,1.34-1.17v-29s-2.46-1.29-5.06-2.48Z" style="opacity:0.1"></path><path d="M369.47,280.88a10,10,0,0,0-1.25-.32,32.24,32.24,0,0,0-7.44.31A8.67,8.67,0,0,0,360,284h0v15.6h.05a2,2,0,0,0,.19.65,11.5,11.5,0,0,0,2.85,2.71h6.36Z" style="fill:#fff;opacity:0.2"></path><path d="M361.29,301.47c.61.56,1.4,1.2,2.23,1.82V280.55c-.94.08-1.74.18-2.23.24Z" style="fill:#fff;opacity:0.2"></path><path d="M378.39,300s9.2-1.05,11.93-.63a22.31,22.31,0,0,1,6.17,2.41,9.89,9.89,0,0,1-3.26,3.87c-2,1.15-11,2.82-11,2.82S379,314,377.05,315.1s-6.7,1.89-6.7,1.89-3.46-2-4.18-3.57,1.44-7.26,1.44-7.26-6.62-4.32-7.35-5.89.52-4.3.52-4.3a31.85,31.85,0,0,1,7.44-.3C370.94,296.09,378.39,300,378.39,300Z" style="fill:#4F46E5"></path><path d="M388.61,298.6c-3.54.14-10.32.71-10.32.71s-4.14-1.8-6.91-2.91a19.07,19.07,0,0,0-10.74-.75,5.6,5.6,0,0,0-1,3.52v14.15a3.71,3.71,0,0,0,1.6,3.54c1.94,1.48,3.43,2.64,4.33,3.35V330.8h0c.21,2.2,4.23,4.25,4.23,4.25s4-.82,5.69-2,7.61-9.88,7.61-9.88,7.66-1.61,10.08-2.16,4.23-4.28,4.23-4.28V301.65S392.56,298.44,388.61,298.6Z" style="fill:#4F46E5"></path><path d="M388.61,298.6c-3.54.14-10.32.71-10.32.71s-4.14-1.8-6.91-2.91a19.07,19.07,0,0,0-10.74-.75,5.6,5.6,0,0,0-1,3.52v14.15a3.71,3.71,0,0,0,1.6,3.54c1.94,1.48,3.43,2.64,4.33,3.35V330.8h0c.21,2.2,4.23,4.25,4.23,4.25s4-.82,5.69-2,7.61-9.88,7.61-9.88,7.66-1.61,10.08-2.16,4.23-4.28,4.23-4.28V301.65S392.56,298.44,388.61,298.6Z" style="opacity:0.1"></path><path d="M395.18,300.4a21.08,21.08,0,0,0-2.4-1v18.46h2.4Z" style="fill:#fff;opacity:0.2"></path><path d="M378.27,299.3l.06,18.79h7.5V298.75c-3.47.22-7.54.56-7.54.56Z" style="opacity:0.1"></path><path d="M378.29,299.31l0,0v26.06h3.29v-26.3Z" style="opacity:0.1"></path><path d="M378.26,299.29c-.28-.11-3.52-1.52-6.11-2.58V327h6.11Z" style="opacity:0.1"></path><path d="M367.43,295.37a19.69,19.69,0,0,0-6.79.28,5.6,5.6,0,0,0-1,3.52v14.15a3.71,3.71,0,0,0,1.6,3.54c1.66,1.26,3,2.29,3.89,3h2.31Z" style="fill:#fff;opacity:0.2"></path><path d="M362.3,295.36v21h3.08V295.21A21.06,21.06,0,0,0,362.3,295.36Z" style="fill:#fff;opacity:0.2"></path><path d="M360.64,310.76s-2.68,3.62.59,6.1,5.28,4.1,5.28,4.1-.65,7.09-.95,9.44,4.23,4.64,4.23,4.64,4-.82,5.69-2,7.61-9.88,7.61-9.88,7.66-1.61,10.08-2.16,4.23-4.28,4.23-4.28-4.84-3.22-8.79-3.06c-3.54.15-10.32.71-10.32.71s-4.14-1.79-6.91-2.91A19,19,0,0,0,360.64,310.76Z" style="fill:#4F46E5"></path><path d="M391.27,313c-6.72.53-13.23.92-13.23.92s-5.16-1.89-7.76-3c-4.62-1.9-9.64-.18-9.64-.18a4.35,4.35,0,0,0-1.23,2.77h0v15.11h0a3.58,3.58,0,0,0,1.55,2.79c1,.8,2.4,2,3.48,3v9.4a3.37,3.37,0,0,0,0,.84h0c.38,2.71,4.33,4.53,4.33,4.53s5.5-.66,7.25-2.86,6.27-8,6.27-8,10-2.61,13.83-3.62a7.39,7.39,0,0,0,4.95-4.18V315.45A15.89,15.89,0,0,0,391.27,313Z" style="fill:#4F46E5"></path><path d="M396.35,313.42A15.46,15.46,0,0,0,394,313v20.2h2.33Z" style="fill:#fff;opacity:0.2"></path><path d="M388.52,334.85V313.19c-5.65.42-10.48.71-10.48.71v21Z" style="opacity:0.1"></path><path d="M381.55,334.85V313.68l-3.51.22v21Z" style="opacity:0.1"></path><path d="M373.33,342.2H378V313.9s-2.37-.87-4.71-1.76Z" style="opacity:0.1"></path><path d="M368.06,326.72V310.29a16.06,16.06,0,0,0-7.42.47,4.35,4.35,0,0,0-1.23,2.77h0v13.19Z" style="fill:#fff;opacity:0.2"></path><path d="M361.62,332c.86.72,1.87,1.6,2.71,2.35V310.09a17.05,17.05,0,0,0-2.71.4Z" style="fill:#fff;opacity:0.2"></path><path d="M382.29,338.36s10-2.61,13.83-3.62a7.39,7.39,0,0,0,4.95-4.18,15.82,15.82,0,0,0-9.8-2.47c-6.72.53-13.23.91-13.23.91s-5.16-1.88-7.76-2.95c-4.62-1.9-9.64-.19-9.64-.19s-3,2.9.32,5.57c1.86,1.5,5.12,4.48,5.12,4.48s-.66,3.76-1.59,7.64c-.78,3.32,4.28,5.65,4.28,5.65s5.5-.66,7.25-2.86S382.29,338.36,382.29,338.36Z" style="fill:#4F46E5"></path><path d="M394.89,327.1c-2.72-.41-17.29,1.47-17.29,1.47s-10.93-5.94-13.65-6.36a31.85,31.85,0,0,0-7.44.3,8.57,8.57,0,0,0-.75,3.13h0v15.5h0a2.43,2.43,0,0,0,.2.77c.49,1,5,4.13,8.07,6.13v10.58a2.48,2.48,0,0,0,.06,1.21c.72,1.57,4.18,3.57,4.18,3.57s4.72-.73,6.7-1.89,6.45-9.37,6.45-9.37,14.37-2.5,16.37-3.65a9.89,9.89,0,0,0,3.26-3.87V329.51A22.44,22.44,0,0,0,394.89,327.1Z" style="fill:#4F46E5"></path><path d="M394.89,327.1c-2.72-.41-17.29,1.47-17.29,1.47s-10.93-5.94-13.65-6.36a31.85,31.85,0,0,0-7.44.3,8.57,8.57,0,0,0-.75,3.13h0v15.5h0a2.43,2.43,0,0,0,.2.77c.49,1,5,4.13,8.07,6.13v10.58a2.48,2.48,0,0,0,.06,1.21c.72,1.57,4.18,3.57,4.18,3.57s4.72-.73,6.7-1.89,6.45-9.37,6.45-9.37,14.37-2.5,16.37-3.65a9.89,9.89,0,0,0,3.26-3.87V329.51A22.44,22.44,0,0,0,394.89,327.1Z" style="opacity:0.1"></path><path d="M371.39,362.77a15.08,15.08,0,0,0,3.6-1.26,11.32,11.32,0,0,0,2.61-3V328.57s-3-1.62-6.21-3.22Z" style="opacity:0.05"></path><path d="M364.33,322.29a2.16,2.16,0,0,0-.38-.08,31.85,31.85,0,0,0-7.44.3,8.57,8.57,0,0,0-.75,3.13h0v15.5h0a2.21,2.21,0,0,0,.14.59l8.41-1.62Z" style="fill:#fff;opacity:0.2"></path><path d="M357.36,343.31c.65.53,1.47,1.15,2.36,1.78V322.16c-.93.07-1.77.16-2.36.23Z" style="fill:#fff;opacity:0.2"></path><path d="M396.85,327.6a12.27,12.27,0,0,0-2-.5l-.25,0v22.29h.49c.67-.17,1.26-.33,1.72-.49Z" style="fill:#fff;opacity:0.2"></path><path d="M381.44,352.14s2.92-.51,6.3-1.17V327.43c-4.81.45-10.14,1.14-10.14,1.14v29.91C379.5,355.72,381.44,352.14,381.44,352.14Z" style="opacity:0.1"></path><path d="M381.44,352.14s.93-.16,2.35-.43V327.83c-3.38.37-6.19.74-6.19.74v29.91C379.5,355.72,381.44,352.14,381.44,352.14Z" style="opacity:0.1"></path><path d="M366.82,349.82s-10.1-6.34-10.84-7.91.53-4.29.53-4.29a32.24,32.24,0,0,1,7.44-.31c2.72.43,13.65,6.36,13.65,6.36s14.57-1.88,17.29-1.46a22.1,22.1,0,0,1,6.18,2.41,10,10,0,0,1-3.26,3.87c-2,1.15-16.37,3.65-16.37,3.65s-4.46,8.22-6.45,9.37-6.7,1.89-6.7,1.89-3.46-2-4.18-3.57S366.82,349.82,366.82,349.82Z" style="fill:#4F46E5"></path><path d="M391.73,342l-13.91,1.11s-9.21-4.22-11.81-5.29c-4.62-1.9-9.64-.19-9.64-.19a4.4,4.4,0,0,0-1.23,2.67h0v15.45h0a3.65,3.65,0,0,0,1.54,2.54c.95.77,3.34,2.55,5.43,4.09l.65.61V376.8c-.26,3.08,4.34,5.21,4.34,5.21s5.5-.67,7.25-2.87,7.7-11.53,7.7-11.53,10.72-2.8,14.51-3.81a7.35,7.35,0,0,0,4.95-4.18V344.51A15.88,15.88,0,0,0,391.73,342Z" style="fill:#4F46E5"></path><path d="M377.82,343.15c-1-.47-5.72-2.62-9-4.06v29l9,1.13Z" style="opacity:0.05"></path><path d="M396.3,363.87l.27-.07a7.59,7.59,0,0,0,2.63-1.27V343.28a16.86,16.86,0,0,0-2.9-.92Z" style="fill:#fff;opacity:0.2"></path><path d="M365.67,337.73a15.45,15.45,0,0,0-9.3-.06,4.4,4.4,0,0,0-1.23,2.67h0v15.45h0a3.65,3.65,0,0,0,1.54,2.54c.59.48,1.72,1.33,3,2.28h6Z" style="fill:#fff;opacity:0.2"></path><path d="M358.82,360l2.4,1.78V337a17,17,0,0,0-2.4.17Z" style="fill:#fff;opacity:0.2"></path><path d="M389.77,342.2l-11.95.95v31c2.09-3.17,4.24-6.54,4.24-6.54l7.71-2Z" style="opacity:0.1"></path><path d="M381.55,342.85l-3.73.3v31c1.47-2.23,3-4.56,3.73-5.74Z" style="opacity:0.1"></path><path d="M382.06,367.61s10.72-2.8,14.51-3.81a7.35,7.35,0,0,0,4.95-4.18,15.8,15.8,0,0,0-9.79-2.47l-13.91,1.1S368.61,354,366,353c-4.62-1.9-9.64-.18-9.64-.18s-3,2.9.32,5.56c1.86,1.51,9.16,6.82,9.16,6.82s-2.09,7.31-3,11.19c-.79,3.32,4.27,5.66,4.27,5.66s5.5-.67,7.25-2.87S382.06,367.61,382.06,367.61Z" style="fill:#4F46E5"></path><path d="M397.17,356.51c-6.72.54-19.37,1.74-19.37,1.74S368.59,354,366,353c-4.62-1.9-9.64-.18-9.64-.18a4.24,4.24,0,0,0-1.22,3h0v15.13h0a3.73,3.73,0,0,0,1.54,2.52c1.05.85,3.85,2.93,6.08,4.57v13.81c-.34,3.12,4.34,5.28,4.34,5.28s5.5-.67,7.25-2.86,7.7-11.53,7.7-11.53,16.18-3.44,20-4.45a7.39,7.39,0,0,0,5-4.18V359A15.89,15.89,0,0,0,397.17,356.51Z" style="fill:#4F46E5"></path><path d="M397.17,356.51c-6.72.54-19.37,1.74-19.37,1.74S368.59,354,366,353c-4.62-1.9-9.64-.18-9.64-.18a4.24,4.24,0,0,0-1.22,3h0v15.13h0a3.73,3.73,0,0,0,1.54,2.52c1.05.85,3.85,2.93,6.08,4.57v13.81c-.34,3.12,4.34,5.28,4.34,5.28s5.5-.67,7.25-2.86,7.7-11.53,7.7-11.53,16.18-3.44,20-4.45a7.39,7.39,0,0,0,5-4.18V359A15.89,15.89,0,0,0,397.17,356.51Z" style="opacity:0.1"></path><path d="M369.67,354.57V383H378V358.23l-.2,0S373.27,356.18,369.67,354.57Z" style="opacity:0.05"></path><path d="M364.33,386.22V352.43a16,16,0,0,0-8,.35,4.24,4.24,0,0,0-1.22,3h0v15.13h0a3.73,3.73,0,0,0,1.54,2.52c1.05.85,3.85,2.93,6.08,4.57v8.2Z" style="fill:#fff;opacity:0.2"></path><path d="M357.31,374c.77.59,1.86,1.41,3,2.26V352.09a17.47,17.47,0,0,0-3,.43Z" style="fill:#fff;opacity:0.2"></path><path d="M378,388.92c2-3.07,4-6.2,4-6.2s6-1.28,11.55-2.5V356.81c-6.22.54-14.16,1.29-15.57,1.42Z" style="opacity:0.1"></path><path d="M396.3,379.62c1.72-.39,3.28-.75,4.43-1V356.65a15.24,15.24,0,0,0-3.56-.14l-.87.07Z" style="fill:#fff;opacity:0.2"></path><path d="M378,388.92c2-3.07,4-6.2,4-6.2l.71-.15V357.79l-4.73.44Z" style="opacity:0.1"></path><path d="M382,382.72s16.18-3.44,20-4.45a7.39,7.39,0,0,0,5-4.19,15.85,15.85,0,0,0-9.8-2.46c-6.72.53-19.37,1.74-19.37,1.74s-9.21-4.22-11.81-5.29c-4.62-1.9-9.64-.19-9.64-.19s-3,2.9.32,5.57c1.86,1.5,9.16,6.81,9.16,6.81s-2.09,7.31-3,11.19c-.79,3.32,4.27,5.66,4.27,5.66s5.5-.67,7.25-2.86S382,382.72,382,382.72Z" style="fill:#4F46E5"></path><path d="M397.87,371.28l-18.13,1.77-3.44-.4s-11.16-5.32-14.16-6.77c-3.77-1.82-9.85-.91-9.85-.91a5.47,5.47,0,0,0-.38,2.4h0v15.19h0a4.28,4.28,0,0,0,1.95,3.21l9.5,6.62.18.15v14.17a2.81,2.81,0,0,0,0,.71h0c.33,2.34,3.65,4.29,3.65,4.29s6.06-1,7.75-3.63c1.34-2.12,6.4-9.95,6.4-9.95l2.32-1.52,17.24-3.7a9.16,9.16,0,0,0,6.28-4.47v-15.1A17.63,17.63,0,0,0,397.87,371.28Z" style="fill:#4F46E5"></path><path d="M398.69,393.39l2.21-.48a9.43,9.43,0,0,0,1.88-.59V371.68a15.17,15.17,0,0,0-4.09-.46Z" style="fill:#fff;opacity:0.2"></path><path d="M376.3,372.65l-7.33-3.5v30.23l7.33-.65Z" style="opacity:0.05"></path><path d="M362.82,366.21l-.68-.33c-3.77-1.82-9.85-.91-9.85-.91a5.47,5.47,0,0,0-.38,2.4h0v15.19h0a4.28,4.28,0,0,0,1.95,3.21l9,6.24Z" style="fill:#fff;opacity:0.2"></path><path d="M355.64,364.74V387l3.18,2.22V364.94A22.25,22.25,0,0,0,355.64,364.74Z" style="fill:#fff;opacity:0.2"></path><path d="M381.34,398.13l2.32-1.52,11-2.36V371.6l-14.9,1.45-3.44-.4V406Z" style="opacity:0.1"></path><path d="M379.74,400.61V373.05l-3.44-.4V406Z" style="opacity:0.1"></path><path d="M383.66,396.61l17.24-3.7a9.16,9.16,0,0,0,6.28-4.47,17.63,17.63,0,0,0-9.31-2.06c-3.85.39-18.13,1.78-18.13,1.78l-3.44-.4s-11.16-5.33-14.16-6.78c-3.77-1.82-9.85-.9-9.85-.9a4.66,4.66,0,0,0,1.57,5.69c2.5,1.73,11.73,8.17,11.73,8.17l1.11,1.92s-2.41,8.24-3.08,10.47c-.84,2.79,3.57,5.38,3.57,5.38s6.06-1,7.75-3.63c1.34-2.12,6.4-9.95,6.4-9.95Z" style="fill:#4F46E5"></path><path d="M429.56,385.4S419,382.87,412.42,383c-4.56.07-15.29,2-21.48,3.14v-1s-.59-2.62-6.17-4.24a21.76,21.76,0,0,0-2.92-.65,23.74,23.74,0,0,0-3.2-.29c-6.21-.21-9,1.89-9,1.89v1.48c-4.11-2.66-12.61-8-16.79-9.5-5.63-2-16.94-2.84-16.94-2.84v8.93s1.47,6.53,4.92,9.78c1.7,1.59,6.32,4.28,10.6,6.6v7.83h0c0,.14,0,.29,0,.44a4.7,4.7,0,0,0,.51,1.85,6.49,6.49,0,0,0,1.12,1.68,10.66,10.66,0,0,0,4.88,3,13.46,13.46,0,0,0-1.18,4v8.82s0,.08,0,.12c-.17,3.81,4.2,9.89,4.2,9.89h0s9.06-4,12.21-7.35,7-15.08,7-15.08l.59.09v3.19h0a17.36,17.36,0,0,0,9.17-.87,14.48,14.48,0,0,0,2.74-1.25,10.6,10.6,0,0,0,2.16-1.57,5,5,0,0,0,1.95-3.77h0v-2.59c6.47-.8,16.23-2.14,20-3.31,5.81-1.82,12.74-7.05,12.74-7.05h0V385.4Z" style="fill:#4F46E5"></path><path d="M351.46,404.06h0c0,.14,0,.29,0,.44a4.7,4.7,0,0,0,.51,1.85,6.49,6.49,0,0,0,1.12,1.68,10.66,10.66,0,0,0,4.88,3,13.46,13.46,0,0,0-1.18,4v8.82s0,.08,0,.12c-.17,3.81,4.2,9.89,4.2,9.89h0s9.06-4,12.21-7.35,7-15.08,7-15.08l.59.09v3.19a17.36,17.36,0,0,0,9.17-.87,14.48,14.48,0,0,0,2.74-1.25,10.6,10.6,0,0,0,2.16-1.57,5,5,0,0,0,1.95-3.77h0v-2.59l-45.39-8.46Z" style="opacity:0.30000000000000004"></path><path d="M412.42,383c-4.56.07-15.29,2-21.48,3.14v-1s-.53-2.34-5.29-4v16.77h38.56c3.05-1.82,5.35-3.55,5.35-3.55h0V385.4h0S419,382.87,412.42,383Z" style="opacity:0.1"></path><path d="M395.61,385.25l-4.67.86v-1s-.53-2.34-5.29-4v16.77h10Z" style="opacity:0.1"></path><path d="M413.12,383v14.91h11.09c3.05-1.82,5.35-3.55,5.35-3.55h0V385.4h0S419.73,383,413.12,383Z" style="fill:#4F46E5"></path><path d="M416.8,397.88h4.54V383.79c-1.48-.24-3-.45-4.54-.6Z" style="fill:#fff;opacity:0.2"></path><path d="M373.42,380.32a10.53,10.53,0,0,0-3.75,1.46v1.48c-4.11-2.66-12.61-8-16.79-9.5-5.63-2-16.94-2.84-16.94-2.84v8.93s1.47,6.53,4.92,9.78a42.89,42.89,0,0,0,6.61,4.37h25.95Z" style="fill:#fff;opacity:0.2"></path><path d="M351.46,373.31a53.44,53.44,0,0,0-6-1.25v20h6Z" style="fill:#fff;opacity:0.2"></path><path d="M390.94,394v-7.89h0v-1s-.59-2.62-6.17-4.24a21.76,21.76,0,0,0-2.92-.65,23.74,23.74,0,0,0-3.2-.29c-6.21-.21-9,1.89-9,1.89v8.93Z" style="fill:#4F46E5"></path><path d="M390.94,394v-7.89h0v-1s-.59-2.62-6.17-4.24a21.76,21.76,0,0,0-2.92-.65,23.74,23.74,0,0,0-3.2-.29c-6.21-.21-9,1.89-9,1.89v8.93Z" style="fill:#fff;opacity:0.45"></path><path d="M375.13,391.56l6.53,1V380.16a22.23,22.23,0,0,0-3-.27,22.55,22.55,0,0,0-3.52.15Z" style="fill:#fff;opacity:0.45"></path><path d="M412.42,391.9c-6.6.1-26.1,4-26.1,4l-.53-1.14,5.15-.8s-.59-2.62-6.17-4.23a20.31,20.31,0,0,0-2.92-.65,21,21,0,0,0-3.2-.29c-6.21-.21-9,1.88-9,1.88l3.77,2.18-1.45.84s-13.48-9.05-19.11-11-16.94-2.84-16.94-2.84,1.47,6.53,4.92,9.78,19.12,11,19.12,11l-1.45.84-3.77-2.18s-3.63,1.6-3.27,5.19a4.7,4.7,0,0,0,.51,1.85,6.49,6.49,0,0,0,1.12,1.68,11.9,11.9,0,0,0,7.34,3.56l1.38-3,2,.3s-6.82,11.27-7,15.08,4.2,9.89,4.2,9.89h0s9.06-4,12.21-7.35,7-15.08,7-15.08l2,.31-1.38,3a17.36,17.36,0,0,0,9.17-.87,14.48,14.48,0,0,0,2.74-1.25,10.6,10.6,0,0,0,2.16-1.57c3.2-2.94,1.51-5.3,1.51-5.3l-5.16.8-.53-1.14s20.31-2.22,26.11-4,12.74-7.05,12.74-7.05h0S419,391.8,412.42,391.9Z" style="fill:#4F46E5"></path></g></g><g id="freepik--Trees--inject-48"><g id="freepik--Palms--inject-48"><g id="freepik--Palm--inject-48"><path d="M316.28,376.26c1.63-7.81,1.7-66.65.48-96.66l-1.37.06c1.32,32.41,1.06,89.11-.45,96.32Z" style="fill:#4F46E5"></path><g style="opacity:0.5"><path d="M316.28,376.26c1.63-7.81,1.7-66.65.48-96.66l-1.37.06c1.32,32.41,1.06,89.11-.45,96.32Z"></path></g><path d="M331,281.05c-3.69-4.32-6.67-6.51-10.55-7.49a18.61,18.61,0,0,1,9.76-.12A15.29,15.29,0,0,0,319.45,272c2.74-1.89,4.05-2.85,8.49-3-4.09-.38-6.18.11-8.55,1.36,2.49-2.51,4.88-4,10-2.59-3.17-1.29-9-2-12.29,2.22,0,0,.26-3.66,2.5-4.84a7.59,7.59,0,0,0-3,2.58,10.51,10.51,0,0,0-1.68-5.46,10.06,10.06,0,0,1,.38,6.44s-1.36-3.24-4-4.31c1.18.68,2.33,2.84,2.65,4.84a12.35,12.35,0,0,0-6.08-2.8,8.28,8.28,0,0,0-6.7,1.77,8.7,8.7,0,0,1,8.63.55,14.09,14.09,0,0,0-7.47.4c4.4-.62,7.1.21,8.31,1.3a22.69,22.69,0,0,0-5.33.47,12.2,12.2,0,0,0-7.56,5.72,11.06,11.06,0,0,1,5.65-3.88,16.51,16.51,0,0,0-5.26,5.67,16.3,16.3,0,0,1,8.19-5.11c-2.36,1.13-5.19,5.39-5.84,8.1,2.71-4.5,4.83-5.15,7.31-6.19a13.91,13.91,0,0,0-4.31,7.25,14,14,0,0,1,4.72-5.84c-2.51,2.89-3.47,7.55-3.08,11.82.41-3.85,1.76-9.8,5.24-11.48a16.62,16.62,0,0,0-1.62,8.08c.75-3.94,2-7.25,3.86-9-1.3,2.48-1.15,5.09-1,7.25.37-2.84,2.32-7.37,4.25-8.84,1.84.9,3.42,6.07,3.33,10.38a25.76,25.76,0,0,0-.49-8.47,23.91,23.91,0,0,1,3.59,8.28,24.27,24.27,0,0,0-2-7s1.32.22,3.65,2.72,4.17,7.49,4.17,7.49S326.9,281,322,276.35C324.42,276.59,328.22,278.64,331,281.05Z" style="fill:#4F46E5;opacity:0.49"></path><path d="M318.12,275.46c.15,3.61.64,14.38-.95,18.6-.36.45-.92.62-1.34,0-1.1-1.59-1.92-9-2-18.56,0,0,.29-1,2.15-1S318.12,275.46,318.12,275.46Z" style="fill:#4F46E5"></path><path d="M318.12,275.46c.15,3.61.64,14.38-.95,18.6-.36.45-.92.62-1.34,0-1.1-1.59-1.92-9-2-18.56,0,0,.29-1,2.15-1S318.12,275.46,318.12,275.46Z" style="fill:#fff;opacity:0.2"></path><path d="M315.94,274.48c2.05,1.18,5.07,5.56,5.35,12.06a20.07,20.07,0,0,0-.47-7,19.43,19.43,0,0,1,3.85,6.72c-1.36-5.52-3.68-8.71-5.95-10.66A31.77,31.77,0,0,1,330,283.39c-1.49-3.06-6.54-7.86-9.64-9.07,3.66-.63,6.69-.66,11.56,2.77-1.94-2.18-6.8-5.28-11.91-4.76a15.65,15.65,0,0,1,14.81.65c-2.36-2.34-10-4.66-14.67-2.36,2.05-2.27,4.8-2.14,6.13-2.11a9.71,9.71,0,0,0-8.84,1.9c1.13-2.76,2.52-4.84,5.8-5.31-3.53.16-5.29,1.64-6.9,4.28a7.27,7.27,0,0,0-4-5.75,9.56,9.56,0,0,1,2.3,4.79,5.92,5.92,0,0,0-5.73-2.69c2.21.43,3.65,2.53,4.47,4.52a17,17,0,0,0-7.13-.52,13,13,0,0,0-9.82,6.09c1.43-1.85,5.4-4.43,12-3.76-3,.21-9.39,4.4-10.85,10.61,1.64-3.87,4.21-5.94,9.22-7.74-3.42,2.89-5.63,5.58-5.48,11.11a11.55,11.55,0,0,1,9.93-10.82,12.93,12.93,0,0,0-4.1,11.29c.06-3.65.89-4.92,3-7.49-.47,3.71,1.17,8.47,1.17,8.47s-.7-6.18.76-9.2a15.64,15.64,0,0,0,.92,5.82C312.25,278.55,314.06,274.91,315.94,274.48Z" style="fill:#4F46E5"></path><path d="M315.94,274.48c2.05,1.18,5.07,5.56,5.35,12.06a20.07,20.07,0,0,0-.47-7,19.43,19.43,0,0,1,3.85,6.72c-1.36-5.52-3.68-8.71-5.95-10.66A31.77,31.77,0,0,1,330,283.39c-1.49-3.06-6.54-7.86-9.64-9.07,3.66-.63,6.69-.66,11.56,2.77-1.94-2.18-6.8-5.28-11.91-4.76a15.65,15.65,0,0,1,14.81.65c-2.36-2.34-10-4.66-14.67-2.36,2.05-2.27,4.8-2.14,6.13-2.11a9.71,9.71,0,0,0-8.84,1.9c1.13-2.76,2.52-4.84,5.8-5.31-3.53.16-5.29,1.64-6.9,4.28a7.27,7.27,0,0,0-4-5.75,9.56,9.56,0,0,1,2.3,4.79,5.92,5.92,0,0,0-5.73-2.69c2.21.43,3.65,2.53,4.47,4.52a17,17,0,0,0-7.13-.52,13,13,0,0,0-9.82,6.09c1.43-1.85,5.4-4.43,12-3.76-3,.21-9.39,4.4-10.85,10.61,1.64-3.87,4.21-5.94,9.22-7.74-3.42,2.89-5.63,5.58-5.48,11.11a11.55,11.55,0,0,1,9.93-10.82,12.93,12.93,0,0,0-4.1,11.29c.06-3.65.89-4.92,3-7.49-.47,3.71,1.17,8.47,1.17,8.47s-.7-6.18.76-9.2a15.64,15.64,0,0,0,.92,5.82C312.25,278.55,314.06,274.91,315.94,274.48Z" style="opacity:0.2"></path><path d="M316.17,273.41c1.73,1.86.7,7.89.29,9.43.28-2.7.38-7.68-.88-8.64-.66,1.5-.8,4.51-.73,6.68-.5-3-.2-6.86.18-7.65a9.64,9.64,0,0,0-3.87,5.25c.44-2,1.08-4.13,2.73-5.5-4.53.2-5.8,2.35-6.27,3,.83-1.57,2.1-3.15,6.13-3.59a7,7,0,0,0-6.19-1.38c1.87-1.08,5.21-.38,7,.84a4.34,4.34,0,0,0-3.34-3.22c1.07,0,2.57.59,3.87,3a6.47,6.47,0,0,1,1.22-4.13,7,7,0,0,0-.72,4.13c.72-1.33,1.25-2.18,3-2.49a4.13,4.13,0,0,0-2.38,2.83,9.79,9.79,0,0,1,4.94-2.22,9.58,9.58,0,0,0-4.47,2.6,7.1,7.1,0,0,1,5.64.39,8.51,8.51,0,0,0-5.56.14,4.84,4.84,0,0,1,3.77,3.93A5,5,0,0,0,316.17,273.41Z" style="fill:#4F46E5"></path><path d="M316.17,273.41c1.73,1.86.7,7.89.29,9.43.28-2.7.38-7.68-.88-8.64-.66,1.5-.8,4.51-.73,6.68-.5-3-.2-6.86.18-7.65a9.64,9.64,0,0,0-3.87,5.25c.44-2,1.08-4.13,2.73-5.5-4.53.2-5.8,2.35-6.27,3,.83-1.57,2.1-3.15,6.13-3.59a7,7,0,0,0-6.19-1.38c1.87-1.08,5.21-.38,7,.84a4.34,4.34,0,0,0-3.34-3.22c1.07,0,2.57.59,3.87,3a6.47,6.47,0,0,1,1.22-4.13,7,7,0,0,0-.72,4.13c.72-1.33,1.25-2.18,3-2.49a4.13,4.13,0,0,0-2.38,2.83,9.79,9.79,0,0,1,4.94-2.22,9.58,9.58,0,0,0-4.47,2.6,7.1,7.1,0,0,1,5.64.39,8.51,8.51,0,0,0-5.56.14,4.84,4.84,0,0,1,3.77,3.93A5,5,0,0,0,316.17,273.41Z" style="opacity:0.30000000000000004"></path></g><g id="freepik--palm--inject-48"><path d="M165.46,381.1c1.26-6,1.31-51.61.36-74.85l-1.06,0c1,25.1.82,69-.34,74.6Z" style="fill:#4F46E5"></path><g style="opacity:0.5"><path d="M165.46,381.1c1.26-6,1.31-51.61.36-74.85l-1.06,0c1,25.1.82,69-.34,74.6Z"></path></g><path d="M176.83,307.37c-2.86-3.34-5.17-5.05-8.17-5.8a14.19,14.19,0,0,1,7.55-.09,11.78,11.78,0,0,0-8.3-1.1c2.12-1.47,3.14-2.21,6.58-2.34-3.17-.3-4.79.08-6.63,1,1.94-1.94,3.79-3.1,7.76-2-2.45-1-7-1.55-9.52,1.72,0,0,.2-2.83,1.94-3.75a6,6,0,0,0-2.3,2,8.18,8.18,0,0,0-1.31-4.23,7.83,7.83,0,0,1,.3,5,6.83,6.83,0,0,0-3.07-3.34,5.79,5.79,0,0,1,2,3.75,9.61,9.61,0,0,0-4.71-2.17,6.37,6.37,0,0,0-5.18,1.38,6.73,6.73,0,0,1,6.68.42,11,11,0,0,0-5.79.31c3.42-.48,5.5.16,6.44,1a16.68,16.68,0,0,0-4.12.36,9.43,9.43,0,0,0-5.86,4.43,8.48,8.48,0,0,1,4.37-3,12.86,12.86,0,0,0-4.07,4.38,12.63,12.63,0,0,1,6.34-3.95c-1.82.87-4,4.17-4.52,6.27a9.55,9.55,0,0,1,5.66-4.79,10.77,10.77,0,0,0-3.34,5.62,10.86,10.86,0,0,1,3.66-4.53c-1.95,2.24-2.69,5.85-2.38,9.16.32-3,1.35-7.6,4.06-8.89a12.68,12.68,0,0,0-1.26,6.25c.58-3.05,1.57-5.61,3-7a10.11,10.11,0,0,0-.77,5.61c.28-2.19,1.8-5.7,3.3-6.84,1.42.69,2.64,4.7,2.57,8a19.88,19.88,0,0,0-.38-6.56,18.56,18.56,0,0,1,2.78,6.42,18.8,18.8,0,0,0-1.56-5.44s1,.16,2.82,2.1a21.39,21.39,0,0,1,3.23,5.8,18.25,18.25,0,0,0-4.78-8.91C171.76,303.92,174.7,305.51,176.83,307.37Z" style="fill:#4F46E5;opacity:0.49"></path><path d="M166.88,303c.12,2.79.5,11.13-.74,14.41-.27.34-.71.48-1,0-.85-1.23-1.49-7-1.58-14.38,0,0,.22-.74,1.67-.8S166.88,303,166.88,303Z" style="fill:#4F46E5"></path><path d="M166.88,303c.12,2.79.5,11.13-.74,14.41-.27.34-.71.48-1,0-.85-1.23-1.49-7-1.58-14.38,0,0,.22-.74,1.67-.8S166.88,303,166.88,303Z" style="fill:#fff;opacity:0.2"></path><path d="M165.2,302.28c1.58.92,3.92,4.31,4.14,9.34a15.75,15.75,0,0,0-.37-5.4,15.17,15.17,0,0,1,3,5.21c-1.06-4.28-2.85-6.75-4.62-8.26a24.57,24.57,0,0,1,8.71,6c-1.15-2.37-5.07-6.09-7.46-7,2.83-.49,5.18-.52,8.95,2.14a11.94,11.94,0,0,0-9.23-3.69,12.13,12.13,0,0,1,11.48.51c-1.83-1.82-7.75-3.61-11.37-1.83a5.75,5.75,0,0,1,4.75-1.64,7.54,7.54,0,0,0-6.84,1.47c.87-2.13,1.95-3.74,4.49-4.1a5.89,5.89,0,0,0-5.35,3.31,5.6,5.6,0,0,0-3.11-4.45,7.38,7.38,0,0,1,1.79,3.7,4.61,4.61,0,0,0-4.44-2.08c1.71.34,2.83,2,3.46,3.5a13.11,13.11,0,0,0-5.52-.4,10.09,10.09,0,0,0-7.6,4.72c1.1-1.44,4.17-3.43,9.3-2.92-2.35.17-7.27,3.41-8.4,8.23,1.27-3,3.26-4.61,7.14-6-2.64,2.24-4.36,4.32-4.24,8.6a8.94,8.94,0,0,1,7.69-8.38,10,10,0,0,0-3.18,8.74c0-2.82.69-3.81,2.3-5.79a17.55,17.55,0,0,0,.9,6.56s-.54-4.79.59-7.13a12.14,12.14,0,0,0,.71,4.51C162.33,305.43,163.74,302.61,165.2,302.28Z" style="fill:#4F46E5"></path><path d="M165.2,302.28c1.58.92,3.92,4.31,4.14,9.34a15.75,15.75,0,0,0-.37-5.4,15.17,15.17,0,0,1,3,5.21c-1.06-4.28-2.85-6.75-4.62-8.26a24.57,24.57,0,0,1,8.71,6c-1.15-2.37-5.07-6.09-7.46-7,2.83-.49,5.18-.52,8.95,2.14a11.94,11.94,0,0,0-9.23-3.69,12.13,12.13,0,0,1,11.48.51c-1.83-1.82-7.75-3.61-11.37-1.83a5.75,5.75,0,0,1,4.75-1.64,7.54,7.54,0,0,0-6.84,1.47c.87-2.13,1.95-3.74,4.49-4.1a5.89,5.89,0,0,0-5.35,3.31,5.6,5.6,0,0,0-3.11-4.45,7.38,7.38,0,0,1,1.79,3.7,4.61,4.61,0,0,0-4.44-2.08c1.71.34,2.83,2,3.46,3.5a13.11,13.11,0,0,0-5.52-.4,10.09,10.09,0,0,0-7.6,4.72c1.1-1.44,4.17-3.43,9.3-2.92-2.35.17-7.27,3.41-8.4,8.23,1.27-3,3.26-4.61,7.14-6-2.64,2.24-4.36,4.32-4.24,8.6a8.94,8.94,0,0,1,7.69-8.38,10,10,0,0,0-3.18,8.74c0-2.82.69-3.81,2.3-5.79a17.55,17.55,0,0,0,.9,6.56s-.54-4.79.59-7.13a12.14,12.14,0,0,0,.71,4.51C162.33,305.43,163.74,302.61,165.2,302.28Z" style="opacity:0.2"></path><path d="M165.37,301.45c1.34,1.45.54,6.11.23,7.3.21-2.09.29-5.95-.69-6.69a15,15,0,0,0-.56,5.17,15.67,15.67,0,0,1,.14-5.92,7.48,7.48,0,0,0-3,4.07,7.2,7.2,0,0,1,2.12-4.26c-3.51.15-4.5,1.82-4.86,2.31.64-1.22,1.62-2.44,4.75-2.78a5.4,5.4,0,0,0-4.8-1.06c1.45-.85,4-.3,5.39.64a3.35,3.35,0,0,0-2.58-2.49c.82,0,2,.46,3,2.33a5,5,0,0,1,.95-3.2,5.44,5.44,0,0,0-.56,3.19,3,3,0,0,1,2.31-1.93,3.19,3.19,0,0,0-1.84,2.2,7.56,7.56,0,0,1,3.82-1.72,7.29,7.29,0,0,0-3.46,2,5.46,5.46,0,0,1,4.37.3,6.52,6.52,0,0,0-4.31.11,3.75,3.75,0,0,1,2.92,3A3.88,3.88,0,0,0,165.37,301.45Z" style="fill:#4F46E5"></path><path d="M165.37,301.45c1.34,1.45.54,6.11.23,7.3.21-2.09.29-5.95-.69-6.69a15,15,0,0,0-.56,5.17,15.67,15.67,0,0,1,.14-5.92,7.48,7.48,0,0,0-3,4.07,7.2,7.2,0,0,1,2.12-4.26c-3.51.15-4.5,1.82-4.86,2.31.64-1.22,1.62-2.44,4.75-2.78a5.4,5.4,0,0,0-4.8-1.06c1.45-.85,4-.3,5.39.64a3.35,3.35,0,0,0-2.58-2.49c.82,0,2,.46,3,2.33a5,5,0,0,1,.95-3.2,5.44,5.44,0,0,0-.56,3.19,3,3,0,0,1,2.31-1.93,3.19,3.19,0,0,0-1.84,2.2,7.56,7.56,0,0,1,3.82-1.72,7.29,7.29,0,0,0-3.46,2,5.46,5.46,0,0,1,4.37.3,6.52,6.52,0,0,0-4.31.11,3.75,3.75,0,0,1,2.92,3A3.88,3.88,0,0,0,165.37,301.45Z" style="opacity:0.30000000000000004"></path></g><g id="freepik--palm--inject-48"><path d="M444.46,401.45c1.63-7.8,1.7-66.64.47-96.65l-1.36.06c1.32,32.4,1.05,89.11-.45,96.31Z" style="fill:#4F46E5"></path><g style="opacity:0.5"><path d="M444.46,401.45c1.63-7.8,1.7-66.64.47-96.65l-1.36.06c1.32,32.4,1.05,89.11-.45,96.31Z"></path></g><path d="M459.14,306.25c-3.69-4.32-6.67-6.52-10.55-7.49a18.51,18.51,0,0,1,9.76-.12,15.3,15.3,0,0,0-10.72-1.42c2.74-1.89,4.05-2.85,8.49-3-4.09-.38-6.18.11-8.55,1.35,2.49-2.5,4.88-4,10-2.58-3.17-1.29-9-2-12.29,2.22,0,0,.25-3.66,2.5-4.85a7.7,7.7,0,0,0-3,2.59,10.41,10.41,0,0,0-1.69-5.46,10.12,10.12,0,0,1,.39,6.44s-1.36-3.24-4-4.31c1.18.67,2.33,2.84,2.65,4.84a12.35,12.35,0,0,0-6.09-2.8,8.22,8.22,0,0,0-6.69,1.77,8.7,8.7,0,0,1,8.63.54,14.25,14.25,0,0,0-7.48.41c4.41-.62,7.11.2,8.31,1.3a21.57,21.57,0,0,0-5.32.47,12.14,12.14,0,0,0-7.56,5.72,11.06,11.06,0,0,1,5.65-3.88,16.58,16.58,0,0,0-5.26,5.66,16.35,16.35,0,0,1,8.19-5.1c-2.36,1.12-5.19,5.39-5.84,8.1,2.71-4.5,4.83-5.15,7.31-6.2a14,14,0,0,0-4.31,7.26,14,14,0,0,1,4.72-5.84c-2.51,2.89-3.47,7.55-3.08,11.82.41-3.85,1.75-9.81,5.24-11.48a16.62,16.62,0,0,0-1.62,8.08c.75-3.95,2-7.25,3.86-9-1.3,2.48-1.15,5.09-1,7.24.36-2.83,2.32-7.36,4.25-8.83,1.84.89,3.42,6.06,3.32,10.38a25.58,25.58,0,0,0-.48-8.47,24,24,0,0,1,3.59,8.28,24.82,24.82,0,0,0-2-7s1.32.21,3.65,2.72,4.17,7.49,4.17,7.49-1.28-6.87-6.18-11.51C452.6,301.79,456.4,303.84,459.14,306.25Z" style="fill:#4F46E5;opacity:0.49"></path><path d="M446.3,300.66c.15,3.6.64,14.37-1,18.6a.76.76,0,0,1-1.33,0c-1.1-1.6-1.92-9-2-18.57,0,0,.28-.95,2.15-1S446.3,300.66,446.3,300.66Z" style="fill:#4F46E5"></path><path d="M446.3,300.66c.15,3.6.64,14.37-1,18.6a.76.76,0,0,1-1.33,0c-1.1-1.6-1.92-9-2-18.57,0,0,.28-.95,2.15-1S446.3,300.66,446.3,300.66Z" style="fill:#fff;opacity:0.2"></path><path d="M444.12,299.68c2.05,1.18,5.07,5.56,5.35,12.06a20.31,20.31,0,0,0-.47-7,19.59,19.59,0,0,1,3.85,6.72c-1.36-5.52-3.68-8.71-6-10.66a31.86,31.86,0,0,1,11.24,7.76c-1.49-3.06-6.55-7.86-9.64-9.07,3.65-.63,6.69-.67,11.56,2.77-1.94-2.18-6.81-5.28-11.92-4.76a15.65,15.65,0,0,1,14.82.65c-2.36-2.35-10-4.66-14.67-2.36,2-2.27,4.8-2.14,6.13-2.11a9.73,9.73,0,0,0-8.84,1.89c1.13-2.76,2.52-4.84,5.8-5.3-3.53.16-5.29,1.64-6.91,4.28a7.23,7.23,0,0,0-4-5.75,9.56,9.56,0,0,1,2.3,4.79,5.92,5.92,0,0,0-5.73-2.69c2.21.43,3.65,2.53,4.46,4.52a17,17,0,0,0-7.13-.52,13,13,0,0,0-9.81,6.09c1.42-1.86,5.4-4.43,12-3.77-3,.22-9.39,4.41-10.85,10.62,1.64-3.87,4.21-5.94,9.22-7.74-3.42,2.89-5.63,5.58-5.48,11.11.33-4.63,3.2-9.56,9.93-10.82a12.89,12.89,0,0,0-4.1,11.28c.06-3.65.89-4.92,3-7.48-.47,3.71,1.17,8.47,1.17,8.47s-.7-6.19.76-9.2a15.8,15.8,0,0,0,.91,5.81C440.43,303.74,442.24,300.1,444.12,299.68Z" style="fill:#4F46E5"></path><path d="M444.12,299.68c2.05,1.18,5.07,5.56,5.35,12.06a20.31,20.31,0,0,0-.47-7,19.59,19.59,0,0,1,3.85,6.72c-1.36-5.52-3.68-8.71-6-10.66a31.86,31.86,0,0,1,11.24,7.76c-1.49-3.06-6.55-7.86-9.64-9.07,3.65-.63,6.69-.67,11.56,2.77-1.94-2.18-6.81-5.28-11.92-4.76a15.65,15.65,0,0,1,14.82.65c-2.36-2.35-10-4.66-14.67-2.36,2-2.27,4.8-2.14,6.13-2.11a9.73,9.73,0,0,0-8.84,1.89c1.13-2.76,2.52-4.84,5.8-5.3-3.53.16-5.29,1.64-6.91,4.28a7.23,7.23,0,0,0-4-5.75,9.56,9.56,0,0,1,2.3,4.79,5.92,5.92,0,0,0-5.73-2.69c2.21.43,3.65,2.53,4.46,4.52a17,17,0,0,0-7.13-.52,13,13,0,0,0-9.81,6.09c1.42-1.86,5.4-4.43,12-3.77-3,.22-9.39,4.41-10.85,10.62,1.64-3.87,4.21-5.94,9.22-7.74-3.42,2.89-5.63,5.58-5.48,11.11.33-4.63,3.2-9.56,9.93-10.82a12.89,12.89,0,0,0-4.1,11.28c.06-3.65.89-4.92,3-7.48-.47,3.71,1.17,8.47,1.17,8.47s-.7-6.19.76-9.2a15.8,15.8,0,0,0,.91,5.81C440.43,303.74,442.24,300.1,444.12,299.68Z" style="opacity:0.2"></path><path d="M444.35,298.61c1.73,1.86.7,7.89.29,9.42.28-2.69.38-7.67-.88-8.63-.66,1.5-.8,4.51-.74,6.68-.49-3-.19-6.86.19-7.66a9.68,9.68,0,0,0-3.87,5.25c.44-2,1.07-4.13,2.73-5.49-4.53.2-5.8,2.35-6.27,3,.83-1.57,2.1-3.14,6.13-3.58a7,7,0,0,0-6.19-1.38c1.86-1.09,5.21-.38,7,.84a4.35,4.35,0,0,0-3.34-3.23c1.06,0,2.56.6,3.87,3a6.47,6.47,0,0,1,1.22-4.13,7,7,0,0,0-.72,4.12c.72-1.32,1.25-2.17,3-2.48a4.11,4.11,0,0,0-2.38,2.83,9.8,9.8,0,0,1,4.93-2.22,9.59,9.59,0,0,0-4.46,2.6,7.1,7.1,0,0,1,5.64.39,8.51,8.51,0,0,0-5.56.14,4.84,4.84,0,0,1,3.77,3.93A5,5,0,0,0,444.35,298.61Z" style="fill:#4F46E5"></path><path d="M444.35,298.61c1.73,1.86.7,7.89.29,9.42.28-2.69.38-7.67-.88-8.63-.66,1.5-.8,4.51-.74,6.68-.49-3-.19-6.86.19-7.66a9.68,9.68,0,0,0-3.87,5.25c.44-2,1.07-4.13,2.73-5.49-4.53.2-5.8,2.35-6.27,3,.83-1.57,2.1-3.14,6.13-3.58a7,7,0,0,0-6.19-1.38c1.86-1.09,5.21-.38,7,.84a4.35,4.35,0,0,0-3.34-3.23c1.06,0,2.56.6,3.87,3a6.47,6.47,0,0,1,1.22-4.13,7,7,0,0,0-.72,4.12c.72-1.32,1.25-2.17,3-2.48a4.11,4.11,0,0,0-2.38,2.83,9.8,9.8,0,0,1,4.93-2.22,9.59,9.59,0,0,0-4.46,2.6,7.1,7.1,0,0,1,5.64.39,8.51,8.51,0,0,0-5.56.14,4.84,4.84,0,0,1,3.77,3.93A5,5,0,0,0,444.35,298.61Z" style="opacity:0.30000000000000004"></path></g><g id="freepik--palm--inject-48"><path d="M329.56,375.22c1.46-15.58,1.88-31-.63-46.5l-.63.11c2.39,15.38,2,30.76.65,46.23Z" style="fill:#4F46E5"></path><g style="opacity:0.5"><path d="M329.56,375.22c1.46-15.58,1.88-31-.63-46.5l-.63.11c2.39,15.38,2,30.76.65,46.23Z"></path></g><path d="M336,329.1c-1.88-1.94-3.36-2.9-5.23-3.25a8.69,8.69,0,0,1,4.63-.34,7.31,7.31,0,0,0-5.14-.36,6,6,0,0,1,3.95-1.68,6.41,6.41,0,0,0-4,.89,4.16,4.16,0,0,1,4.67-1.52c-1.54-.52-4.33-.69-5.77,1.41,0,0,0-1.74,1.05-2.37a3.63,3.63,0,0,0-1.33,1.31,5,5,0,0,0-1-2.54,4.83,4.83,0,0,1,.38,3.05,4.19,4.19,0,0,0-2-1.93A3.49,3.49,0,0,1,327.6,324a5.86,5.86,0,0,0-3-1.15,3.89,3.89,0,0,0-3.12,1,4.13,4.13,0,0,1,4.11,0,6.76,6.76,0,0,0-3.54.41c2.08-.42,3.38-.11,4,.38a10,10,0,0,0-2.52.38,5.78,5.78,0,0,0-3.42,2.93,5.32,5.32,0,0,1,2.57-2,7.89,7.89,0,0,0-2.33,2.85,7.73,7.73,0,0,1,3.74-2.66,7,7,0,0,0-2.54,4,5.89,5.89,0,0,1,3.29-3.16,6.69,6.69,0,0,0-1.83,3.58,6.64,6.64,0,0,1,2.07-2.92,7.78,7.78,0,0,0-1.12,5.71c.09-1.84.55-4.71,2.15-5.61a7.92,7.92,0,0,0-.53,3.89,8.19,8.19,0,0,1,1.57-4.39,6.28,6.28,0,0,0-.26,3.47,7.78,7.78,0,0,1,1.76-4.32c.9.37,1.8,2.78,1.89,4.83a12.3,12.3,0,0,0-.48-4,11.42,11.42,0,0,1,1.94,3.83,11.49,11.49,0,0,0-1.16-3.27s.63.06,1.81,1.18a13.13,13.13,0,0,1,2.2,3.43,11.29,11.29,0,0,0-3.27-5.28A9.19,9.19,0,0,1,336,329.1Z" style="fill:#4F46E5;opacity:0.49"></path><path d="M329.74,326.82c.17,1.71.72,6.81.09,8.86-.16.22-.42.32-.63.05-.57-.73-1.18-4.23-1.52-8.76,0,0,.11-.46,1-.55S329.74,326.82,329.74,326.82Z" style="fill:#4F46E5"></path><path d="M329.74,326.82c.17,1.71.72,6.81.09,8.86-.16.22-.42.32-.63.05-.57-.73-1.18-4.23-1.52-8.76,0,0,.11-.46,1-.55S329.74,326.82,329.74,326.82Z" style="fill:#fff;opacity:0.2"></path><path d="M328.67,326.42c1,.5,2.57,2.49,2.9,5.57a9.82,9.82,0,0,0-.43-3.3,9.16,9.16,0,0,1,2,3.08,9.31,9.31,0,0,0-3.14-4.89,15,15,0,0,1,5.57,3.36,11.66,11.66,0,0,0-4.84-4,6.36,6.36,0,0,1,5.57,1,7.33,7.33,0,0,0-5.8-1.91,7.42,7.42,0,0,1,7.05-.13c-1.19-1-4.88-1.92-7-.69a3.52,3.52,0,0,1,2.85-1.18,4.63,4.63,0,0,0-4.14,1.16c.45-1.34,1.05-2.37,2.59-2.69a3.64,3.64,0,0,0-3.15,2.24,3.45,3.45,0,0,0-2.07-2.61,4.61,4.61,0,0,1,1.23,2.2,2.82,2.82,0,0,0-2.8-1.11,3.28,3.28,0,0,1,2.26,2,8.14,8.14,0,0,0-3.41,0,6.17,6.17,0,0,0-4.47,3.18c.62-.92,2.43-2.26,5.59-2.14-1.44.19-4.33,2.37-4.84,5.36.67-1.89,1.83-3,4.15-4-1.54,1.47-2.51,2.82-2.27,5.44a5.48,5.48,0,0,1,4.39-5.43,6.13,6.13,0,0,0-1.61,5.48,4.74,4.74,0,0,1,1.18-3.64,10.92,10.92,0,0,0,.81,4s-.52-2.92.09-4.4a7.38,7.38,0,0,0,.6,2.74C327,328.46,327.79,326.68,328.67,326.42Z" style="fill:#4F46E5"></path><path d="M328.67,326.42c1,.5,2.57,2.49,2.9,5.57a9.82,9.82,0,0,0-.43-3.3,9.16,9.16,0,0,1,2,3.08,9.31,9.31,0,0,0-3.14-4.89,15,15,0,0,1,5.57,3.36,11.66,11.66,0,0,0-4.84-4,6.36,6.36,0,0,1,5.57,1,7.33,7.33,0,0,0-5.8-1.91,7.42,7.42,0,0,1,7.05-.13c-1.19-1-4.88-1.92-7-.69a3.52,3.52,0,0,1,2.85-1.18,4.63,4.63,0,0,0-4.14,1.16c.45-1.34,1.05-2.37,2.59-2.69a3.64,3.64,0,0,0-3.15,2.24,3.45,3.45,0,0,0-2.07-2.61,4.61,4.61,0,0,1,1.23,2.2,2.82,2.82,0,0,0-2.8-1.11,3.28,3.28,0,0,1,2.26,2,8.14,8.14,0,0,0-3.41,0,6.17,6.17,0,0,0-4.47,3.18c.62-.92,2.43-2.26,5.59-2.14-1.44.19-4.33,2.37-4.84,5.36.67-1.89,1.83-3,4.15-4-1.54,1.47-2.51,2.82-2.27,5.44a5.48,5.48,0,0,1,4.39-5.43,6.13,6.13,0,0,0-1.61,5.48,4.74,4.74,0,0,1,1.18-3.64,10.92,10.92,0,0,0,.81,4s-.52-2.92.09-4.4a7.38,7.38,0,0,0,.6,2.74C327,328.46,327.79,326.68,328.67,326.42Z" style="opacity:0.2"></path><path d="M328.75,325.91c.87.83.56,3.72.42,4.46.05-1.29-.05-3.66-.68-4.07a9.13,9.13,0,0,0-.15,3.19,9.9,9.9,0,0,1-.14-3.64,4.6,4.6,0,0,0-1.68,2.61,4.45,4.45,0,0,1,1.13-2.69,3.31,3.31,0,0,0-2.89,1.6c.35-.77.91-1.56,2.81-1.88a3.34,3.34,0,0,0-3-.48,3.59,3.59,0,0,1,3.33.2,2.07,2.07,0,0,0-1.68-1.44c.51,0,1.23.21,1.92,1.32a3.13,3.13,0,0,1,.46-2,3.34,3.34,0,0,0-.22,2c.31-.65.53-1.07,1.34-1.27a2,2,0,0,0-1,1.42A4.61,4.61,0,0,1,331,324a4.66,4.66,0,0,0-2,1.36,3.39,3.39,0,0,1,2.69,0,4.12,4.12,0,0,0-2.64.23,2.31,2.31,0,0,1,1.91,1.76A2.37,2.37,0,0,0,328.75,325.91Z" style="fill:#4F46E5"></path><path d="M328.75,325.91c.87.83.56,3.72.42,4.46.05-1.29-.05-3.66-.68-4.07a9.13,9.13,0,0,0-.15,3.19,9.9,9.9,0,0,1-.14-3.64,4.6,4.6,0,0,0-1.68,2.61,4.45,4.45,0,0,1,1.13-2.69,3.31,3.31,0,0,0-2.89,1.6c.35-.77.91-1.56,2.81-1.88a3.34,3.34,0,0,0-3-.48,3.59,3.59,0,0,1,3.33.2,2.07,2.07,0,0,0-1.68-1.44c.51,0,1.23.21,1.92,1.32a3.13,3.13,0,0,1,.46-2,3.34,3.34,0,0,0-.22,2c.31-.65.53-1.07,1.34-1.27a2,2,0,0,0-1,1.42A4.61,4.61,0,0,1,331,324a4.66,4.66,0,0,0-2,1.36,3.39,3.39,0,0,1,2.69,0,4.12,4.12,0,0,0-2.64.23,2.31,2.31,0,0,1,1.91,1.76A2.37,2.37,0,0,0,328.75,325.91Z" style="opacity:0.30000000000000004"></path></g><g id="freepik--palm--inject-48"><path d="M295.32,386c-1.46-15.58-1.88-31,.64-46.5l.62.11c-2.38,15.38-2,30.77-.64,46.23Z" style="fill:#4F46E5"></path><g style="opacity:0.5"><path d="M295.32,386c-1.46-15.58-1.88-31,.64-46.5l.62.11c-2.38,15.38-2,30.77-.64,46.23Z"></path></g><path d="M293.28,337.94a11.29,11.29,0,0,0-3.27,5.28,13.3,13.3,0,0,1,2.2-3.43c1.18-1.12,1.81-1.18,1.81-1.18a11.61,11.61,0,0,0-1.16,3.27,11.35,11.35,0,0,1,1.95-3.83,12.06,12.06,0,0,0-.48,4c.08-2.05,1-4.46,1.88-4.83a7.81,7.81,0,0,1,1.76,4.32,6.19,6.19,0,0,0-.26-3.47,8.23,8.23,0,0,1,1.57,4.39,7.86,7.86,0,0,0-.53-3.88c1.6.89,2.06,3.76,2.15,5.6a7.75,7.75,0,0,0-1.12-5.7,6.55,6.55,0,0,1,2.07,2.91,6.55,6.55,0,0,0-1.83-3.57,5.9,5.9,0,0,1,3.29,3.15,7.06,7.06,0,0,0-2.53-4,7.77,7.77,0,0,1,3.73,2.66,7.87,7.87,0,0,0-2.33-2.84,5.22,5.22,0,0,1,2.57,2,5.79,5.79,0,0,0-3.42-2.94,10.54,10.54,0,0,0-2.52-.38c.61-.49,1.91-.8,4-.38a6.85,6.85,0,0,0-3.54-.41,4.15,4.15,0,0,1,4.11,0,3.9,3.9,0,0,0-3.12-1,5.86,5.86,0,0,0-3,1.15,3.57,3.57,0,0,1,1.4-2.22,4.24,4.24,0,0,0-2,1.93,4.84,4.84,0,0,1,.38-3.05,5,5,0,0,0-1,2.55,3.68,3.68,0,0,0-1.34-1.32c1,.63,1.05,2.38,1.05,2.38-1.44-2.1-4.23-1.94-5.77-1.42a4.18,4.18,0,0,1,4.68,1.52,6.43,6.43,0,0,0-4-.89,6,6,0,0,1,3.94,1.68,7.28,7.28,0,0,0-5.13.36,8.87,8.87,0,0,1,4.62.34c-1.86.35-3.35,1.31-5.22,3.25A9.22,9.22,0,0,1,293.28,337.94Z" style="fill:#4F46E5;opacity:0.49"></path><path d="M295.15,337.63c-.18,1.71-.73,6.81-.1,8.86.16.22.42.33.64.05.56-.72,1.17-4.23,1.51-8.75,0,0-.11-.46-1-.56S295.15,337.63,295.15,337.63Z" style="fill:#4F46E5"></path><path d="M295.15,337.63c-.18,1.71-.73,6.81-.1,8.86.16.22.42.33.64.05.56-.72,1.17-4.23,1.51-8.75,0,0-.11-.46-1-.56S295.15,337.63,295.15,337.63Z" style="fill:#fff;opacity:0.2"></path><path d="M296.21,337.23c-1,.5-2.57,2.49-2.9,5.57a9.8,9.8,0,0,1,.43-3.29,9.22,9.22,0,0,0-2,3.07,9.24,9.24,0,0,1,3.14-4.88,15.09,15.09,0,0,0-5.57,3.35,11.57,11.57,0,0,1,4.84-4,6.29,6.29,0,0,0-5.56,1,7.29,7.29,0,0,1,5.79-1.91,7.46,7.46,0,0,0-7.05-.12c1.19-1.05,4.88-1.92,7-.69a3.53,3.53,0,0,0-2.84-1.19,4.68,4.68,0,0,1,4.14,1.16c-.46-1.34-1.06-2.37-2.6-2.68a3.63,3.63,0,0,1,3.15,2.23,3.45,3.45,0,0,1,2.07-2.61,4.61,4.61,0,0,0-1.23,2.2,2.82,2.82,0,0,1,2.8-1.1,3.21,3.21,0,0,0-2.25,2,8.08,8.08,0,0,1,3.4,0,6.22,6.22,0,0,1,4.48,3.19c-.62-.93-2.43-2.27-5.6-2.15,1.44.2,4.33,2.37,4.84,5.36-.66-1.88-1.82-2.94-4.15-3.94,1.54,1.47,2.51,2.81,2.27,5.43a5.48,5.48,0,0,0-4.39-5.43A6.14,6.14,0,0,1,300,343.2a4.72,4.72,0,0,0-1.18-3.64,10.86,10.86,0,0,1-.81,4s.52-2.92-.09-4.39a7.33,7.33,0,0,1-.6,2.73C297.84,339.27,297.09,337.49,296.21,337.23Z" style="fill:#4F46E5"></path><path d="M296.21,337.23c-1,.5-2.57,2.49-2.9,5.57a9.8,9.8,0,0,1,.43-3.29,9.22,9.22,0,0,0-2,3.07,9.24,9.24,0,0,1,3.14-4.88,15.09,15.09,0,0,0-5.57,3.35,11.57,11.57,0,0,1,4.84-4,6.29,6.29,0,0,0-5.56,1,7.29,7.29,0,0,1,5.79-1.91,7.46,7.46,0,0,0-7.05-.12c1.19-1.05,4.88-1.92,7-.69a3.53,3.53,0,0,0-2.84-1.19,4.68,4.68,0,0,1,4.14,1.16c-.46-1.34-1.06-2.37-2.6-2.68a3.63,3.63,0,0,1,3.15,2.23,3.45,3.45,0,0,1,2.07-2.61,4.61,4.61,0,0,0-1.23,2.2,2.82,2.82,0,0,1,2.8-1.1,3.21,3.21,0,0,0-2.25,2,8.08,8.08,0,0,1,3.4,0,6.22,6.22,0,0,1,4.48,3.19c-.62-.93-2.43-2.27-5.6-2.15,1.44.2,4.33,2.37,4.84,5.36-.66-1.88-1.82-2.94-4.15-3.94,1.54,1.47,2.51,2.81,2.27,5.43a5.48,5.48,0,0,0-4.39-5.43A6.14,6.14,0,0,1,300,343.2a4.72,4.72,0,0,0-1.18-3.64,10.86,10.86,0,0,1-.81,4s.52-2.92-.09-4.39a7.33,7.33,0,0,1-.6,2.73C297.84,339.27,297.09,337.49,296.21,337.23Z" style="opacity:0.2"></path><path d="M296.13,336.72c-.87.83-.56,3.72-.41,4.46-.06-1.28,0-3.65.67-4.07a8.91,8.91,0,0,1,.15,3.19,9.67,9.67,0,0,0,.14-3.64,4.6,4.6,0,0,1,1.68,2.61,4.47,4.47,0,0,0-1.13-2.69,3.36,3.36,0,0,1,2.89,1.6c-.35-.77-.91-1.55-2.81-1.88a3.33,3.33,0,0,1,3-.47A3.58,3.58,0,0,0,297,336a2.07,2.07,0,0,1,1.68-1.43c-.5,0-1.23.21-1.92,1.31a3.13,3.13,0,0,0-.46-2,3.35,3.35,0,0,1,.22,2c-.3-.65-.53-1.07-1.34-1.27a2,2,0,0,1,1,1.42,4.61,4.61,0,0,0-2.27-1.2,4.54,4.54,0,0,1,2,1.37,3.39,3.39,0,0,0-2.69,0,4,4,0,0,1,2.64.23A2.31,2.31,0,0,0,294,338.2,2.38,2.38,0,0,1,296.13,336.72Z" style="fill:#4F46E5"></path><path d="M296.13,336.72c-.87.83-.56,3.72-.41,4.46-.06-1.28,0-3.65.67-4.07a8.91,8.91,0,0,1,.15,3.19,9.67,9.67,0,0,0,.14-3.64,4.6,4.6,0,0,1,1.68,2.61,4.47,4.47,0,0,0-1.13-2.69,3.36,3.36,0,0,1,2.89,1.6c-.35-.77-.91-1.55-2.81-1.88a3.33,3.33,0,0,1,3-.47A3.58,3.58,0,0,0,297,336a2.07,2.07,0,0,1,1.68-1.43c-.5,0-1.23.21-1.92,1.31a3.13,3.13,0,0,0-.46-2,3.35,3.35,0,0,1,.22,2c-.3-.65-.53-1.07-1.34-1.27a2,2,0,0,1,1,1.42,4.61,4.61,0,0,0-2.27-1.2,4.54,4.54,0,0,1,2,1.37,3.39,3.39,0,0,0-2.69,0,4,4,0,0,1,2.64.23A2.31,2.31,0,0,0,294,338.2,2.38,2.38,0,0,1,296.13,336.72Z" style="opacity:0.30000000000000004"></path></g><g id="freepik--palm--inject-48"><path d="M70.22,397.67c.69-15.63.34-31.07-2.93-46.41l-.62.14c3.14,15.24,3.53,30.63,2.93,46.14Z" style="fill:#4F46E5"></path><g style="opacity:0.5"><path d="M70.22,397.67c.69-15.63.34-31.07-2.93-46.41l-.62.14c3.14,15.24,3.53,30.63,2.93,46.14Z"></path></g><path d="M74.37,351.29c-2-1.85-3.5-2.73-5.38-3a8.81,8.81,0,0,1,4.6-.57,7.23,7.23,0,0,0-5.14-.1,6,6,0,0,1,3.85-1.88,6.48,6.48,0,0,0-4,1.09,4.18,4.18,0,0,1,4.6-1.75c-1.57-.44-4.37-.47-5.69,1.7,0,0-.08-1.75.92-2.42a3.76,3.76,0,0,0-1.27,1.38,5,5,0,0,0-1.08-2.5,4.84,4.84,0,0,1,.52,3,4.19,4.19,0,0,0-2.1-1.83,3.55,3.55,0,0,1,1.5,2.15,5.81,5.81,0,0,0-3-1,3.88,3.88,0,0,0-3.07,1.19,4.12,4.12,0,0,1,4.11-.2,6.79,6.79,0,0,0-3.52.58c2.06-.52,3.37-.27,4,.18a10.64,10.64,0,0,0-2.49.5A5.8,5.8,0,0,0,58.47,351a5.22,5.22,0,0,1,2.46-2.13,7.84,7.84,0,0,0-2.18,2.95,7.71,7.71,0,0,1,3.6-2.84A7,7,0,0,0,60,353.07a5.86,5.86,0,0,1,3.12-3.31,6.68,6.68,0,0,0-1.65,3.66,6.61,6.61,0,0,1,1.93-3,7.77,7.77,0,0,0-.84,5.76c0-1.85.31-4.73,1.87-5.71a7.88,7.88,0,0,0-.34,3.91,8.27,8.27,0,0,1,1.35-4.46,6.15,6.15,0,0,0-.08,3.47,7.79,7.79,0,0,1,1.54-4.4c.92.33,1.94,2.69,2.12,4.74a12,12,0,0,0-.68-4,11.49,11.49,0,0,1,2.14,3.72,11.81,11.81,0,0,0-1.33-3.21A3.76,3.76,0,0,1,71,351.33a13.46,13.46,0,0,1,2.37,3.32,11.27,11.27,0,0,0-3.53-5.11A9.16,9.16,0,0,1,74.37,351.29Z" style="fill:#4F46E5;opacity:0.49"></path><path d="M68,349.32c.26,1.7,1.07,6.76.53,8.84-.14.23-.4.35-.63.08-.6-.69-1.38-4.16-1.94-8.66,0,0,.08-.47,1-.61S68,349.32,68,349.32Z" style="fill:#4F46E5"></path><path d="M68,349.32c.26,1.7,1.07,6.76.53,8.84-.14.23-.4.35-.63.08-.6-.69-1.38-4.16-1.94-8.66,0,0,.08-.47,1-.61S68,349.32,68,349.32Z" style="fill:#fff;opacity:0.2"></path><path d="M66.92,349c1,.45,2.69,2.36,3.17,5.42a9.91,9.91,0,0,0-.59-3.27,9.4,9.4,0,0,1,2.17,3,9.27,9.27,0,0,0-3.38-4.72A15.09,15.09,0,0,1,74,352.45a11.51,11.51,0,0,0-5-3.78,6.35,6.35,0,0,1,5.61.69,7.37,7.37,0,0,0-5.88-1.62,7.47,7.47,0,0,1,7-.47c-1.24-1-5-1.68-7.06-.34a3.54,3.54,0,0,1,2.78-1.33A4.63,4.63,0,0,0,67.4,347c.38-1.36.93-2.42,2.46-2.81a3.61,3.61,0,0,0-3,2.38,3.44,3.44,0,0,0-2.2-2.5A4.55,4.55,0,0,1,66,346.18a2.83,2.83,0,0,0-2.85-1,3.27,3.27,0,0,1,2.35,1.9,8,8,0,0,0-3.4.13,6.18,6.18,0,0,0-4.31,3.4c.57-.95,2.31-2.38,5.48-2.41-1.43.26-4.21,2.57-4.57,5.59.57-1.92,1.67-3,4-4.15-1.46,1.55-2.37,2.94-2,5.54a5.47,5.47,0,0,1,4.12-5.64,6.13,6.13,0,0,0-1.34,5.55,4.71,4.71,0,0,1,1-3.69,10.72,10.72,0,0,0,1,3.94s-.66-2.89-.13-4.39a7.61,7.61,0,0,0,.74,2.7C65.39,351.09,66.05,349.27,66.92,349Z" style="fill:#4F46E5"></path><path d="M66.92,349c1,.45,2.69,2.36,3.17,5.42a9.91,9.91,0,0,0-.59-3.27,9.4,9.4,0,0,1,2.17,3,9.27,9.27,0,0,0-3.38-4.72A15.09,15.09,0,0,1,74,352.45a11.51,11.51,0,0,0-5-3.78,6.35,6.35,0,0,1,5.61.69,7.37,7.37,0,0,0-5.88-1.62,7.47,7.47,0,0,1,7-.47c-1.24-1-5-1.68-7.06-.34a3.54,3.54,0,0,1,2.78-1.33A4.63,4.63,0,0,0,67.4,347c.38-1.36.93-2.42,2.46-2.81a3.61,3.61,0,0,0-3,2.38,3.44,3.44,0,0,0-2.2-2.5A4.55,4.55,0,0,1,66,346.18a2.83,2.83,0,0,0-2.85-1,3.27,3.27,0,0,1,2.35,1.9,8,8,0,0,0-3.4.13,6.18,6.18,0,0,0-4.31,3.4c.57-.95,2.31-2.38,5.48-2.41-1.43.26-4.21,2.57-4.57,5.59.57-1.92,1.67-3,4-4.15-1.46,1.55-2.37,2.94-2,5.54a5.47,5.47,0,0,1,4.12-5.64,6.13,6.13,0,0,0-1.34,5.55,4.71,4.71,0,0,1,1-3.69,10.72,10.72,0,0,0,1,3.94s-.66-2.89-.13-4.39a7.61,7.61,0,0,0,.74,2.7C65.39,351.09,66.05,349.27,66.92,349Z" style="opacity:0.2"></path><path d="M67,348.46c.92.78.75,3.69.64,4.44,0-1.29-.23-3.65-.88-4a9.28,9.28,0,0,0,0,3.2,9.89,9.89,0,0,1-.32-3.63,4.6,4.6,0,0,0-1.55,2.68,4.45,4.45,0,0,1,1-2.74,3.34,3.34,0,0,0-2.81,1.75c.31-.79.83-1.6,2.71-2a3.33,3.33,0,0,0-3-.33,3.62,3.62,0,0,1,3.34,0,2.07,2.07,0,0,0-1.75-1.35,2.25,2.25,0,0,1,2,1.22,3.08,3.08,0,0,1,.36-2,3.29,3.29,0,0,0-.13,2c.28-.66.48-1.1,1.28-1.33a1.92,1.92,0,0,0-1,1.46,4.66,4.66,0,0,1,2.21-1.31,4.49,4.49,0,0,0-2,1.47,3.4,3.4,0,0,1,2.69-.12,4.07,4.07,0,0,0-2.63.36,2.3,2.3,0,0,1,2,1.66A2.35,2.35,0,0,0,67,348.46Z" style="fill:#4F46E5"></path><path d="M67,348.46c.92.78.75,3.69.64,4.44,0-1.29-.23-3.65-.88-4a9.28,9.28,0,0,0,0,3.2,9.89,9.89,0,0,1-.32-3.63,4.6,4.6,0,0,0-1.55,2.68,4.45,4.45,0,0,1,1-2.74,3.34,3.34,0,0,0-2.81,1.75c.31-.79.83-1.6,2.71-2a3.33,3.33,0,0,0-3-.33,3.62,3.62,0,0,1,3.34,0,2.07,2.07,0,0,0-1.75-1.35,2.25,2.25,0,0,1,2,1.22,3.08,3.08,0,0,1,.36-2,3.29,3.29,0,0,0-.13,2c.28-.66.48-1.1,1.28-1.33a1.92,1.92,0,0,0-1,1.46,4.66,4.66,0,0,1,2.21-1.31,4.49,4.49,0,0,0-2,1.47,3.4,3.4,0,0,1,2.69-.12,4.07,4.07,0,0,0-2.63.36,2.3,2.3,0,0,1,2,1.66A2.35,2.35,0,0,0,67,348.46Z" style="opacity:0.30000000000000004"></path></g></g></g><g id="freepik--Floor--inject-48"><g id="freepik--Beach--inject-48"><g id="freepik--Sand--inject-48"><path d="M46.92,403.94q5.09,5.64,10.79,11,2.35,2.22,4.83,4.37c43.62,38.16,110.93,62.62,186.43,62.62,73.69,0,139.57-23.3,183.26-59.9q2.53-2.11,4.95-4.31a175.84,175.84,0,0,0,15-15.13c-1.52-.62-3.07-1.24-4.63-1.84C420.83,390.39,390,382.58,357,377.34h0q-9.28-1.5-18.8-2.69h0c-62.52-8-130.89-7.1-192.15,2.59h0q-10.54,1.66-20.79,3.69h0c-25.37,5-49.17,11.61-70.39,19.82C52.13,401.8,49.49,402.86,46.92,403.94Z" style="fill:#ffbda7"></path></g><g id="freepik--Sea--inject-48"><path d="M47,403.89c2.53-1.06,5.14-2.11,7.81-3.15Q65,396.8,76,393.35c18.73,12.65,46.94,8.21,66.9,8.21,52.56,0,60.8,7.06,77.07,31.48,13.57,20.37,59.48,7.48,99.16,8.91,23.07.84,29,12,38.49,21.75C325,475.35,288.11,481.92,249,481.92c-75.5,0-142.81-24.46-186.43-62.62q-2.48-2.15-4.83-4.37c-3.77-3.52-7.33-7.16-10.69-10.88C47,404,47,404,47,403.89Z" style="fill:#4F46E5;opacity:0.30000000000000004"></path><path d="M47,403.89q3.8-1.59,7.8-3.15,4.47-1.73,9.1-3.36c18,14.86,50.33,9.66,70.58,9.66,50.44,0,58.68,6.68,74,30.22s69.95,9.48,95.18,8.55c23.72-.87,28.61,12.69,38.94,22.78A328.59,328.59,0,0,1,249,481.92c-75.5,0-142.81-24.46-186.43-62.62q-2.48-2.15-4.83-4.37Q52.05,409.65,47,404.06A1,1,0,0,1,47,403.89Z" style="fill:#4F46E5;opacity:0.5"></path><path d="M249,481.92c-75.5,0-142.81-24.46-186.43-62.62-1.18-1-2.33-2.06-3.47-3.11,15.47,6.17,39.77,4.22,54.73,4.22,50.45,0,58.69,6.68,74,30.22s57.1,7.17,95.18,8.55c18.48.67,25.53,8.24,32.62,16.16A336,336,0,0,1,249,481.92Z" style="fill:#4F46E5"></path><path d="M77.08,393a53.46,53.46,0,0,0,12.56,5.2,82.12,82.12,0,0,0,20.55,2.8c19.85.35,42.23-1.9,61.37,1.66-13.46-1.53-29.55-.69-43.19-.23-10.07.34-22,1.29-30.91-.08-9.25-1.43-17.54-3.44-24.51-8C74.32,393.88,75.69,393.44,77.08,393Z" style="fill:#fafafa"></path><path d="M203.56,413.16c10.36,8.58,15.25,20.73,24.88,26s27.9,5.29,61.43,3.57c0,0-27.51,3.27-43.15,2.39-11.89-.67-18.18-.6-25.49-6.44C213.39,432.44,210.47,421.06,203.56,413.16Z" style="fill:#fafafa"></path><path d="M361,462.45c-1.73.64-3.46,1.27-5.21,1.88-3.24-3.64-6.25-8.25-10.16-11.84-6-5.46-16.13-10-23.15-10.33,0,0,15.71,0,25.26,8C356.2,457.14,358.12,460.09,361,462.45Z" style="fill:#fafafa"></path><path d="M320.8,447.42c-4.74-2-10.62-2.38-16.22-2.22a171,171,0,0,0-22.86,2.8,206.07,206.07,0,0,1,22.09-.63c6.69.27,13.43,1.39,19,3.89,4.48,2,7.6,4.76,10.73,7.64a60.25,60.25,0,0,0-4.89-6A25.21,25.21,0,0,0,320.8,447.42Z" style="fill:#fafafa"></path><path d="M231.18,449.59c-4.45-.72-14.92-4.13-19.09-10.46s-10.58-16.05-19.91-21.4a51.68,51.68,0,0,1,11.38,14.87C208.78,442.45,210.92,448.54,231.18,449.59Z" style="fill:#fafafa"></path><path d="M166.3,427.83s-8.64-6.55-26.7-8.6c-17.74-2-47.57,3.3-61.34.78,0,0,10,2.51,32.09,1.73C137.34,420.8,146.34,420.41,166.3,427.83Z" style="fill:#fafafa"></path><path d="M293.45,460.52c-7-2.68-17.1-3.1-32.26-1.75s-40.78,5.88-54.18,3.66c0,0,4.1,2.07,20,1.82s36.38-4.33,47.08-4.56A151.46,151.46,0,0,1,293.45,460.52Z" style="fill:#fafafa"></path></g></g></g><g id="freepik--Shadow--inject-48"><path id="freepik--shadow--inject-48" d="M260,415.66a33.83,33.83,0,0,1-7.17.53c-5.51-.13-11-1.13-16.51-.64a45.5,45.5,0,0,0-14,3.92c-5.72,2.46-9.64,7.36-13.63,12a45.05,45.05,0,0,1-6.54,6.7c-3.71,2.81-11.21,3.92-14.55-.27a7.92,7.92,0,0,1-1.31-4.58c-.5-10.31,3.92-19.91,11-27.19,5.54-5.67,12.69-10,20.55-11a54.8,54.8,0,0,1,9.06-.17c7.33.26,14.82,1,21.86,3.1a111.48,111.48,0,0,1,17,6.86c2.71,1.34,5.6,4.35,2.59,7A17.88,17.88,0,0,1,260,415.66Z" style="opacity:0.2"></path></g><g id="freepik--Character--inject-48"><g id="freepik--character--inject-48"><ellipse id="freepik--Hat--inject-48" cx="223.32" cy="206.53" rx="34.59" ry="24.38" transform="translate(-71.37 131.16) rotate(-28.42)" style="fill:#4F46E5"></ellipse><path id="freepik--Hair--inject-48" d="M237.46,228.91a227.3,227.3,0,0,0,.59-23.69,20.11,20.11,0,0,0,2.55-2.36c.85-6.38-2.31-14.92-13-15.65s-13.82,5.17-14.15,7c-2.36,1.27-4.89,4.5-5,11s-.15,22.4.13,26.57a79.4,79.4,0,0,1-.38,13.44,61.83,61.83,0,0,1-1.54,9c-.81,3.13-2.61,5.82-3.39,8.93a8.49,8.49,0,0,0,.3,5.52c2.92,6.39,12,2.13,16.24-.44C231.23,261.24,236.05,248.38,237.46,228.91Z" style="fill:#263238"></path><path d="M269.46,248.83s-13.87-10.7-19-15.07c-3.65-3.09-6-4.7-9-5.22-1.94-.35-4.71-.56-4.71-.56l9.52,20.83s13.94,9.29,16.08,10.41c3.17,1.65,8.7,3.9,10.69-.21,2.22-4.59,4-12.47,5.06-18s1.53-8.83,2.3-10.79,2.45-2.34,3.58-2.88a18.87,18.87,0,0,0,4.4-2.74,17.48,17.48,0,0,0,3.23-3.2,5.49,5.49,0,0,0,1.15-1.88,16.35,16.35,0,0,1,.07-1.84,18.94,18.94,0,0,0,.82-2,6.37,6.37,0,0,0-.14-1.68,2.87,2.87,0,0,1,.92-2.15,2.52,2.52,0,0,0,.64-1c.15-.64-.31-.88-.84-.94a3.84,3.84,0,0,0-2.24.51,24.55,24.55,0,0,0-3,2.29c-1.53,1.15-4,3-5.92,3.22-.39,0-1.22,0-.76-.56A16.31,16.31,0,0,0,284,213.1a3.42,3.42,0,0,0,.41-2.74,1.18,1.18,0,0,0-.5-.67c-.36-.19-.56,0-.79.22a7.07,7.07,0,0,1-.78.65c-.55.43-1.11.86-1.65,1.3-3.2,2.55-6.34,5.46-7.88,9.34-.23.57-1.43,4.93-2.26,7.41-.64,2.24-5.89,16.48-5.89,16.48" style="fill:#f28f8f"></path><path d="M264.65,245.09a55.6,55.6,0,0,0-2.71,8s-1.05-3.59,1.21-9.19Z" style="fill:#b16668"></path><path d="M281.13,218a12.53,12.53,0,0,1-3.5,6,5.2,5.2,0,0,0,3-2.1A4.85,4.85,0,0,0,281.13,218Z" style="fill:#b16668"></path><path d="M198.21,402a39.12,39.12,0,0,1,3.79-4.37,48.25,48.25,0,0,1,4.82-4.28c5.47-4.24,13.29-8.35,22.73-7.89,2.36.12,4.5.34,6.45.63a40.71,40.71,0,0,1,10.7,3c5.17,2.31,6.9,4.87,6.9,4.87l-2.06-42.48-3.65-75.5-4.5,3.64-39.59,32-.43.35c1.43,13.67,2.81,37,3,38.67v.06c0,.07,0,.11,0,.11S200.34,385,199,396.14C198.7,398.4,198.44,400.36,198.21,402Z" style="fill:#4F46E5"></path><path d="M198.21,402a39.12,39.12,0,0,1,3.79-4.37,48.25,48.25,0,0,1,4.82-4.28c5.47-4.24,13.29-8.35,22.73-7.89,2.36.12,4.5.34,6.45.63a40.71,40.71,0,0,1,10.7,3c5.17,2.31,6.9,4.87,6.9,4.87l-2.06-42.48-3.65-75.5-4.5,3.64-39.59,32-.43.35c1.43,13.67,2.81,37,3,38.67v.06c0,.07,0,.11,0,.11S200.34,385,199,396.14C198.7,398.4,198.44,400.36,198.21,402Z" style="opacity:0.45"></path><g id="freepik--Body--inject-48"><path d="M262,404.06c-3.6-2.07-9.6-8.3-11.33-11.08s-1.62-7.09-1.3-10.18c1.74-16.68,3.16-32.37,3.74-41.6a246.21,246.21,0,0,0,0-29.89c-1.08-15.47-4-31.35-4.87-34.12-2.07-6.28-2.26-9.23-2.23-12.76l0,0c.15-1.36.54-5.22.54-8.18A10.68,10.68,0,0,0,251.11,246c-.4-3.79-2.47-6.1-7-10.85-3.68-3.86-7.43-7.16-7.43-7.16l-6.29-.85L217.5,224c.12,1.93-2.55,2.15-7.79,2.87-1.88.26-2.89,10.83-1,17.3,1.63,5.45,5.19,12,5.39,16.58A16.09,16.09,0,0,1,212,267.2c-1.69,3.07-4.3,6.68-6.19,11s-4.13,9.62-2.23,30.94c1.36,15.31,2.5,41.75,2.5,41.75a59.15,59.15,0,0,0-3.91,6.65,35,35,0,0,0-3.75,11.15c-1,7.68-.6,24-1.92,33.93a26.69,26.69,0,0,1-1.61,6.28c-1.24,3.07-3,7.64-4,9.56a10.59,10.59,0,0,0-1,8.25c.83,3.18,5.7,6.05,5.7,6.05.55,1.32,3.83,1.9,5.24-2a25.31,25.31,0,0,0,1.33-8.22c.18-1.83.62-4.14,1.2-7.07s2.62-12.07,4.28-16.34c4.06-10.05,11.55-28.73,14.28-36.51,2.2-6.29,6.11-26.1,8-39.88l4.87,22.43a40.88,40.88,0,0,0-1,14.19c.8,6.62,3,15.38,4,23.9a19.29,19.29,0,0,1-.84,9.38c-.83,3-.55,6.4,2.23,7.4,4.25,1.54,5.79,5.27,7.74,7.06a11.18,11.18,0,0,0,5.64,3.26,19.29,19.29,0,0,0,7.43.5c4.24-.44,5.15-1.56,5.32-3.25S263.88,405.17,262,404.06Z" style="fill:#f28f8f"></path><path d="M228.65,312l-7.29,11.52a438.8,438.8,0,0,1-3.45,49.67c1.64-4.25,3.07-8,4-10.59,1.79-5.12,4.72-19.22,6.77-31.72Z" style="opacity:0.2"></path><path d="M229.9,322.71l2.16-22.85s10.37-4.75,12.56-9.55c0,0,0,5.24-9.39,11.46L232,322.68l2.81,22.47Z" style="fill:#b16668"></path><path d="M213.46,226.38c-1.05.17-2.3.33-3.75.53-1.88.26-3.05,10.8-1.11,17.27,1.63,5.44,4.38,12.07,4.58,16.69a10.2,10.2,0,0,1-1.41,6.33c-1.68,3.06-4.25,6.67-6.14,11a29.23,29.23,0,0,0-1.91,6.29,10.05,10.05,0,0,1,12-5.07c8.59,2.28,15.94,12.51,16.33,20.46,9.91-2.75,16.38-12.11,17-19.16a20.45,20.45,0,0,0-.73-3.53c-2.06-6.28-2.17-9.07-2.14-12.6h0c.15-1.36.47-5.34.47-8.3A10.74,10.74,0,0,0,251.19,246c-.41-3.79-2.51-6.2-7-10.94-3.68-3.87-7.47-7.07-7.47-7.07l-1.61-.22C238.69,234.78,224.32,234.51,213.46,226.38Z" style="fill:#f0f0f0"></path><path d="M215.72,243.3c-.51-4.28-.88-11.7-4.85-16.55l-1.16.16c-1.88.26-4.05,11.82-2.11,18.29,1.34,4.48,4.25,8.66,5.25,12.93h0C215.06,254.42,216.23,247.58,215.72,243.3Z" style="fill:#f28f8f"></path><polygon points="209.43 249.79 212.4 242.88 210.52 252.11 209.43 249.79" style="fill:#b16668"></polygon><path d="M221.11,254.83a9.56,9.56,0,0,0,9.46,4.31,10.08,10.08,0,0,0,8.12-6s.3,7-8,7.71S221.11,254.83,221.11,254.83Z" style="fill:#e0e0e0"></path></g><g id="freepik--Skirt--inject-48"><path d="M247.88,275.93c-4.16,16.57-13.9,33.35-25.27,46.48h0c-5.14,4.27-15.21,17-16.85,21.66-.69-9.54-2.06-20.16-3-29.09-1.56-14.46-3-30.09,4.63-40.29a38.19,38.19,0,0,0,9.44,5.12C225.94,283.55,242.55,283.29,247.88,275.93Z" style="fill:#4F46E5"></path><path d="M247.88,275.93c-4.16,16.57-13.9,33.35-25.27,46.48h0c-5.14,4.27-15.21,17-16.85,21.66-.69-9.54-2.06-20.16-3-29.09-1.56-14.46-3-30.09,4.63-40.29a38.19,38.19,0,0,0,9.44,5.12C225.94,283.55,242.55,283.29,247.88,275.93Z" style="fill:#fff;opacity:0.1"></path><path d="M215.41,296.83c-1.89-1.46-3.87-4-6.24-5a3.9,3.9,0,0,1-2-1.94c-1.08-2.33-1.83-6.71-2.35-10.83-3.33,7.11-3.66,16-3.08,25,.24.39.46.78.72,1.15.35.53.72,1,1.12,1.54s.71,1,1.24,1.12c.28.07.56.08.83.17a4.9,4.9,0,0,1,.94.48,3.31,3.31,0,0,0,1.85.35,6.11,6.11,0,0,1,1-.11c.81,0,1.49.63,2.29.78a4,4,0,0,0,1.91-.25,2.94,2.94,0,0,1,.78-.17,2.9,2.9,0,0,1,1.13.31,2.14,2.14,0,0,0,1.13.24,1.16,1.16,0,0,0,1.07-.67c.11-.22-.08-.69-.22-.89-.31-.41-.72-.86-1-1.28-2.23-3-4.59-5.44-6.1-8.88.64.09,3.13,1.74,3.94,2,1.8.5,3-.43,3.15-1C217.74,298.11,216.89,298,215.41,296.83Z" style="opacity:0.1"></path><path d="M206,277.21h0l8,1.45a39.2,39.2,0,0,0,9.72,3l6,31.63c-1.81,2.67-3.63,5.24-5.43,7.67-1.05.85-2,1.7-3,2.55a195.19,195.19,0,0,0-.59-21.23C219.61,288.42,208.76,281.14,206,277.21Z" style="opacity:0.30000000000000004"></path><path d="M206,277.2c6.11,6.66,11.12,6.61,15.31,20.44s-2.79,115.54-2.79,115.54,28.32,1,40-11.66c0,0-1.34-44.67-2.51-68.54-1.16-23.66-5.28-50.6-8.12-57.07,0,0-8.17,5.72-22.32,4s-18.2-5.21-18.2-5.21Z" style="fill:#4F46E5"></path><path d="M206,277.2c6.11,6.66,11.12,6.61,15.31,20.44s-2.79,115.54-2.79,115.54,28.32,1,40-11.66c0,0-1.34-44.67-2.51-68.54-1.16-23.66-5.28-50.6-8.12-57.07,0,0-8.17,5.72-22.32,4s-18.2-5.21-18.2-5.21Z" style="fill:#fff;opacity:0.30000000000000004"></path><path d="M258.34,395.63c0-.38,0-.78,0-1.19a.54.54,0,0,0-.2.1c-7.64,7.18-25.58,13.66-39.1,11.49H219q0,.5-.06,1a33.82,33.82,0,0,0,3.39.35l-3.74,5c0,.57-.06.88-.06.88h.6l4.14-5.49,4.17,5.17,1.17-.1,3.2-5.59,4.62,4.51,1.16-.22,2.54-6.09,4.68,4.2,1.07-.36,1.57-6.44,4.75,3.62c.35-.2.7-.4,1-.61l1.72-7,3.27,3.06c.11-.11.23-.22.34-.34s0-.24,0-.68l-3.12-2.92A30.67,30.67,0,0,0,258.34,395.63ZM227.91,412l-3.68-4.56h.34a46.45,46.45,0,0,0,6.18-.44Zm8.88-1.23-4.13-4a58.83,58.83,0,0,0,6.42-1.42Zm8.22-2.23-4.18-3.76c1.93-.6,3.8-1.28,5.59-2Zm7.31-3.2L248,402a48.89,48.89,0,0,0,5.87-3.12Z" style="fill:#fafafa;opacity:0.4"></path><path d="M258.07,387.22c-.11-3.3-.23-7-.37-11-8.5,6.91-26.28,11.57-37.6,10.75-.24,4.08-.46,7.84-.66,11.18C230.88,399.28,249.55,394.42,258.07,387.22Z" style="fill:#4F46E5"></path><path d="M257.58,372.69c0-1-.07-2-.1-3.07-9.15,6.37-28,10.27-37,10.29-.06,1.06-.12,2.1-.17,3.13C229.28,383.08,248.42,379.14,257.58,372.69Z" style="fill:#4F46E5"></path><path d="M257.58,372.69c0-1-.07-2-.1-3.07-9.15,6.37-28,10.27-37,10.29-.06,1.06-.12,2.1-.17,3.13C229.28,383.08,248.42,379.14,257.58,372.69Z" style="opacity:0.25"></path></g><path d="M240.76,200.07c.22,1.05.45,2.08.58,3.14a50.16,50.16,0,0,1,.33,6.37c0,9.33-2.26,11.78-4.79,12.9a10.33,10.33,0,0,1-6.16.49v5.85L217.4,227.3l-.07-10.5s-1.53,1.76-4.57-.48c-2.5-1.85-3.57-5.23-1.9-7.23a4.22,4.22,0,0,1,6.73.72,3,3,0,0,0,3.1-3c0-.72.14-4.09.14-4.09a6.49,6.49,0,0,1,4.21-6.11c2.41-.89,4.22-.78,7.09,1.59C233.51,195.6,238.24,192.22,240.76,200.07Z" style="fill:#f28f8f"></path><path d="M229.25,214.47l4.32,1.14a2.2,2.2,0,0,1-2.69,1.67A2.35,2.35,0,0,1,229.25,214.47Z" style="fill:#b16668"></path><path d="M229.33,215.83a1.88,1.88,0,0,1,2.75,1.41,2.22,2.22,0,0,1-1.2,0A2.3,2.3,0,0,1,229.33,215.83Z" style="fill:#b16668"></path><path d="M239.32,203.36,236.77,202a1.39,1.39,0,0,1,1.91-.64A1.52,1.52,0,0,1,239.32,203.36Z" style="fill:#263238"></path><path d="M229,203.35l-2.67,1.08a1.38,1.38,0,0,1,.74-1.87A1.51,1.51,0,0,1,229,203.35Z" style="fill:#263238"></path><polygon points="232.55 204.7 233.42 213.26 237.58 212.06 232.55 204.7" style="fill:#b16668"></polygon><path d="M230.72,223c-7.68-1.33-9.4-3.38-10.55-5.74a6.77,6.77,0,0,0,3,5.05,27.5,27.5,0,0,0,7.54,2.51Z" style="fill:#b16668"></path><path d="M226.51,208c.18.69.49-.46,1.27-.72s1.78.44,1.57-.24a1.39,1.39,0,0,0-1.83-.74A1.35,1.35,0,0,0,226.51,208Z" style="fill:#263238"></path><path d="M239.28,206.8c-.11.71-.54-.4-1.35-.57s-1.72.64-1.58-.06a1.37,1.37,0,0,1,1.73-.94A1.35,1.35,0,0,1,239.28,206.8Z" style="fill:#263238"></path><path d="M238.58,193.15c-7.76-3.62-29.26,4.92-30.14,18.86l-2.78-15.1s1.74-6.56,11.54-10.67,14.88-2.45,14.88-2.45C238,189.7,238.58,193.15,238.58,193.15Z" style="fill:#4F46E5"></path><path d="M190,263.12c2.07-8.07,5.49-19.48,7.84-26.27,2.84-8.19,6.1-9.29,13.05-10.1,1.95,2.51,3.74,11.25-.5,20.76-2.5,6-8.17,20-8.17,20,.19,1.45,1.49,16.06,3.76,21a4,4,0,0,0,2,1.94c2.37,1,4.36,3.58,6.24,5,1.48,1.15,2.33,1.27,2.09,2-.18.57-1.34,1.07-3.14.57-.81-.22-3.48-1.83-4.12-1.92a49.83,49.83,0,0,0,6,9.46l.93,1.24a1.29,1.29,0,0,1,.3.65.82.82,0,0,1-.75.76,2.28,2.28,0,0,1-1.14-.24,2.81,2.81,0,0,0-1.13-.31,2.59,2.59,0,0,0-.78.17,4,4,0,0,1-1.91.25c-.79-.15-1.48-.75-2.29-.78a5.89,5.89,0,0,0-1,.11,3.41,3.41,0,0,1-1.86-.35,5.91,5.91,0,0,0-.93-.49c-.27-.08-.56-.09-.84-.16-.53-.15-.91-.71-1.24-1.12s-.77-1-1.12-1.54a39.7,39.7,0,0,1-2.3-3.94,71,71,0,0,1-3.1-8.06,147.48,147.48,0,0,1-5.21-18C189.37,268.84,189.18,266.24,190,263.12Z" style="fill:#f28f8f"></path></g></g></svg>