<svg xmlns="http://www.w3.org/2000/svg" viewBox="0 0 500 500"><g id="freepik--background-complete--inject-11"><rect y="382.4" width="500" height="0.25" style="fill:#ebebeb"></rect><rect x="416.78" y="398.49" width="33.12" height="0.25" style="fill:#ebebeb"></rect><rect x="322.53" y="401.21" width="8.69" height="0.25" style="fill:#ebebeb"></rect><rect x="396.59" y="389.21" width="19.19" height="0.25" style="fill:#ebebeb"></rect><rect x="52.46" y="390.89" width="43.19" height="0.25" style="fill:#ebebeb"></rect><rect x="104.56" y="390.89" width="6.33" height="0.25" style="fill:#ebebeb"></rect><rect x="131.47" y="395.11" width="93.68" height="0.25" style="fill:#ebebeb"></rect><path d="M237,337.8H43.91a5.71,5.71,0,0,1-5.7-5.71V60.66A5.71,5.71,0,0,1,43.91,55H237a5.71,5.71,0,0,1,5.71,5.71V332.09A5.71,5.71,0,0,1,237,337.8ZM43.91,55.2a5.46,5.46,0,0,0-5.45,5.46V332.09a5.46,5.46,0,0,0,5.45,5.46H237a5.47,5.47,0,0,0,5.46-5.46V60.66A5.47,5.47,0,0,0,237,55.2Z" style="fill:#ebebeb"></path><path d="M453.31,337.8H260.21a5.72,5.72,0,0,1-5.71-5.71V60.66A5.72,5.72,0,0,1,260.21,55h193.1A5.71,5.71,0,0,1,459,60.66V332.09A5.71,5.71,0,0,1,453.31,337.8ZM260.21,55.2a5.47,5.47,0,0,0-5.46,5.46V332.09a5.47,5.47,0,0,0,5.46,5.46h193.1a5.47,5.47,0,0,0,5.46-5.46V60.66a5.47,5.47,0,0,0-5.46-5.46Z" style="fill:#ebebeb"></path><circle cx="155.99" cy="127.73" r="35.13" style="fill:#f5f5f5"></circle><path d="M137.77,127.33a6.12,6.12,0,0,0-6.11-6.11,5.93,5.93,0,0,0-1.75.26,13,13,0,0,0-12.8-14.81,12.47,12.47,0,0,0-2.38.23,11.3,11.3,0,0,0-21,5.71h-.19a10.42,10.42,0,0,0,0,20.84h38.25A6.11,6.11,0,0,0,137.77,127.33Z" style="fill:#f0f0f0"></path><path d="M353.88,153.09a4.83,4.83,0,0,0-4.83-4.83,4.52,4.52,0,0,0-1.38.21,10.45,10.45,0,0,0,.11-1.49,10.23,10.23,0,0,0-10.23-10.23,10.62,10.62,0,0,0-1.89.18,8.94,8.94,0,0,0-16.58,4.52h-.14a8.24,8.24,0,0,0,0,16.48h30.25A4.84,4.84,0,0,0,353.88,153.09Z" style="fill:#f5f5f5"></path><path d="M98.47,211.64A4.83,4.83,0,0,0,92.26,207,10.21,10.21,0,0,0,82.14,195.3a9.77,9.77,0,0,0-1.89.18A8.94,8.94,0,0,0,63.67,200h-.14a8.24,8.24,0,0,0,0,16.48H93.78A4.82,4.82,0,0,0,98.47,211.64Z" style="fill:#f5f5f5"></path><path d="M271.74,108.54a4.83,4.83,0,0,1,4.83-4.83,4.92,4.92,0,0,1,1.39.2A10.21,10.21,0,0,1,288.08,92.2a10.6,10.6,0,0,1,1.88.18,8.94,8.94,0,0,1,16.58,4.52h.15a8.24,8.24,0,1,1,0,16.48H276.43A4.82,4.82,0,0,1,271.74,108.54Z" style="fill:#f5f5f5"></path><path d="M214.39,145.62a3.8,3.8,0,0,0-3.8-3.79,4,4,0,0,0-1.09.16,7.49,7.49,0,0,0,.09-1.17,8,8,0,0,0-9.52-7.9,7,7,0,0,0-13,3.55h-.12a6.48,6.48,0,0,0,0,12.95H210.7A3.8,3.8,0,0,0,214.39,145.62Z" style="fill:#f0f0f0"></path><path d="M182.34,206.43a4,4,0,0,1,5.1-3.79,8.15,8.15,0,0,1-.09-1.22,8.38,8.38,0,0,1,8.38-8.38,8.76,8.76,0,0,1,1.55.14,7.33,7.33,0,0,1,13.59,3.71H211a6.76,6.76,0,0,1,0,13.51h-24.8A4,4,0,0,1,182.34,206.43Z" style="fill:#f5f5f5"></path><path d="M404.64,182.34a3,3,0,0,1,3-3,3,3,0,0,1,.86.13,7,7,0,0,1-.07-.92,6.36,6.36,0,0,1,6.36-6.36,5.66,5.66,0,0,1,1.17.11,5.56,5.56,0,0,1,10.31,2.81h.09a5.13,5.13,0,1,1,0,10.25H407.55A3,3,0,0,1,404.64,182.34Z" style="fill:#f5f5f5"></path><rect x="52.94" y="326.35" width="40.09" height="56.86" style="fill:#e0e0e0"></rect><rect x="413.19" y="301.79" width="33.87" height="81.41" style="fill:#ebebeb"></rect><rect x="174.97" y="305.52" width="104.65" height="77.69" style="fill:#e6e6e6"></rect><rect x="276.38" y="301.79" width="33.87" height="81.41" style="fill:#ebebeb"></rect><rect x="307.2" y="291.72" width="29.31" height="91.49" style="fill:#f0f0f0"></rect><rect x="358.47" y="294.11" width="72.02" height="89.09" style="fill:#f0f0f0"></rect><rect x="378.76" y="273.49" width="37.47" height="109.71" style="fill:#f5f5f5"></rect><rect x="393.22" y="309.88" width="8.55" height="73.33" style="fill:#ebebeb"></rect><rect x="408.64" y="291.45" width="1.67" height="91.75" style="fill:#ebebeb"></rect><rect x="384.68" y="291.45" width="1.67" height="91.75" style="fill:#ebebeb"></rect><rect x="405.33" y="291.45" width="1.67" height="91.75" style="fill:#ebebeb"></rect><rect x="387.99" y="291.45" width="1.67" height="91.75" style="fill:#ebebeb"></rect><rect x="333.38" y="281.15" width="26.43" height="102.05" style="fill:#f5f5f5"></rect><rect x="202.96" y="292.28" width="37.47" height="90.93" style="fill:#ebebeb"></rect><rect x="81.29" y="314.08" width="93.67" height="69.12" transform="translate(256.26 697.29) rotate(180)" style="fill:#e6e6e6"></rect><rect x="111.6" y="305.52" width="40.78" height="77.69" transform="translate(263.98 688.72) rotate(180)" style="fill:#ebebeb"></rect></g><g id="freepik--Shadow--inject-11"><ellipse id="freepik--path--inject-11" cx="250" cy="416.24" rx="193.89" ry="11.32" style="fill:#f5f5f5"></ellipse></g><g id="freepik--Pyramids--inject-11"><polygon points="456.98 383.21 242.15 383.21 349.29 246.29 456.98 383.21" style="fill:#407BFF"></polygon><polygon points="456.98 383.21 242.15 383.21 349.29 246.29 456.98 383.21" style="fill:#fff;opacity:0.1"></polygon><polygon points="413.9 374.03 449.76 374.03 429.97 348.86 364.31 346.69 428.26 346.69 409.21 322.47 392.46 320.69 407.81 320.69 395.39 304.89 340.73 302.74 393.69 302.74 385.95 292.9 378.93 291.21 384.63 291.21 373.06 276.51 354.13 275.4 372.19 275.4 349.29 246.29 342.23 268.7 358.95 268.7 341.55 270.85 335.13 291.21 370.75 291.21 334.42 293.47 328.88 311.05 348.1 311.05 328.15 313.36 322.62 330.88 410.14 330.88 321.71 333.79 311.98 364.65 427.3 364.65 311.01 367.74 306.13 383.21 456.98 383.21 451.03 375.65 413.9 374.03" style="fill:#fff;opacity:0.2"></polygon><polygon points="411.49 383.21 102 383.21 220.66 231.56 256.35 185.96 290.6 229.5 411.49 383.21" style="fill:#407BFF"></polygon><polygon points="285.99 229.99 288.85 231.24 284.16 231.24 278.72 232.71 282.35 232.94 275.08 234.99 265.76 233.85 272.52 232.48 261.2 232.48 249.87 230.66 253.95 229.53 242.51 229.87 236.23 228.43 239.63 228.43 234.63 227.48 230.31 228.43 232.36 228.43 220.66 231.56 256.35 185.96 290.6 229.5 285.99 229.99" style="fill:#fff;opacity:0.2"></polygon><polygon points="272.51 206.51 256.35 185.96 249.88 206.51 272.51 206.51" style="fill:#fff;opacity:0.2"></polygon><polygon points="390.65 356.7 307.72 353.44 388.08 353.44 356.28 313.01 247.13 310.12 354.01 310.12 338.49 290.39 299.85 288 336.61 288 320.29 267.24 274.4 266.14 319.42 266.14 298.27 239.25 267.13 237.41 296.82 237.41 273.21 207.4 249 209.27 243.95 225.29 268.64 225.29 243.11 227.96 234.98 253.77 286.21 253.77 234.26 256.03 228.58 274.07 315.9 274.07 227.57 277.25 220.08 301.03 260.3 301.03 219.02 304.37 210.31 332.02 315.9 332.02 209.67 334.06 197.44 372.83 378.3 372.83 196.16 376.91 194.17 383.21 411.49 383.21 390.65 356.7" style="fill:#fff;opacity:0.2"></polygon><polygon points="272.87 383.21 58.03 383.21 165.18 246.29 272.87 383.21" style="fill:#407BFF"></polygon><polygon points="272.87 383.21 58.03 383.21 165.18 246.29 272.87 383.21" style="fill:#fff;opacity:0.1"></polygon><polygon points="229.78 374.03 265.65 374.03 245.86 348.86 180.2 346.69 244.15 346.69 225.1 322.47 208.34 320.69 223.7 320.69 211.27 304.89 156.62 302.74 209.58 302.74 201.84 292.9 194.81 291.21 200.51 291.21 188.95 276.51 170.02 275.4 188.08 275.4 165.18 246.29 158.11 268.7 174.84 268.7 157.44 270.85 151.01 291.21 186.63 291.21 150.31 293.47 144.76 311.05 163.99 311.05 144.03 313.36 138.51 330.88 226.03 330.88 137.59 333.79 127.87 364.65 243.18 364.65 126.89 367.74 122.02 383.21 272.87 383.21 266.92 375.65 229.78 374.03" style="fill:#fff;opacity:0.2"></polygon><polygon points="293.63 388.21 205.05 388.21 213.45 376.31 217.9 376.31 225.51 365.88 230.63 365.88 237.95 353.81 242.4 353.81 245.45 348.29 249.34 346.64 253.22 348.29 256.27 353.81 260.72 353.81 268.04 365.88 273.16 365.88 280.77 376.31 285.22 376.31 293.63 388.21" style="fill:#407BFF"></polygon><polygon points="293.63 388.21 205.05 388.21 213.45 376.31 217.9 376.31 225.51 365.88 230.63 365.88 237.95 353.81 242.4 353.81 245.45 348.29 249.34 346.64 253.22 348.29 256.27 353.81 260.72 353.81 268.04 365.88 273.16 365.88 280.77 376.31 285.22 376.31 293.63 388.21" style="fill:#fff;opacity:0.4"></polygon><polygon points="289.45 382.3 235.7 382.3 288.3 380.67 285.22 376.31 280.77 376.31 270.38 376.31 280.34 375.72 277.6 371.97 237.05 371.97 277.15 371.36 273.16 365.88 268.04 365.88 252.44 365.88 267.26 364.59 265.4 361.53 255.16 361.53 265.1 361.03 262.24 356.31 258.27 356.31 261.82 355.62 260.72 353.81 256.27 353.81 253.56 348.92 248.09 348.92 253.06 348.23 249.34 346.64 247.02 348.29 245.6 352.58 251.79 353.81 245.2 353.81 242.54 353.81 240.91 358.33 253.05 358.81 240.73 358.81 239.46 362.34 245.27 362.73 239.32 362.73 238.18 365.88 235.13 365.88 234.37 367.62 245.27 368.38 234.04 368.38 231.12 375.08 255.16 376.31 230.58 376.31 229.39 376.31 227.93 376.31 224.24 385.07 245.85 385.78 223.94 385.78 222.91 388.21 293.63 388.21 289.45 382.3" style="fill:#fff;opacity:0.2"></polygon><polygon points="209.99 388.21 121.41 388.21 129.82 376.31 134.27 376.31 141.88 365.88 147 365.88 154.31 353.81 158.77 353.81 161.82 348.29 165.7 346.64 169.59 348.29 172.64 353.81 177.09 353.81 184.41 365.88 189.53 365.88 197.14 376.31 201.59 376.31 209.99 388.21" style="fill:#407BFF"></polygon><polygon points="209.99 388.21 121.41 388.21 129.82 376.31 134.27 376.31 141.88 365.88 147 365.88 154.31 353.81 158.77 353.81 161.82 348.29 165.7 346.64 169.59 348.29 172.64 353.81 177.09 353.81 184.41 365.88 189.53 365.88 197.14 376.31 201.59 376.31 209.99 388.21" style="fill:#fff;opacity:0.4"></polygon><polygon points="205.82 382.3 152.06 382.3 204.67 380.67 201.59 376.31 197.14 376.31 186.75 376.31 196.71 375.72 193.97 371.97 153.42 371.97 193.52 371.36 189.53 365.88 184.41 365.88 168.81 365.88 183.63 364.59 181.77 361.53 171.53 361.53 181.47 361.03 178.6 356.31 174.64 356.31 178.19 355.62 177.09 353.81 172.64 353.81 169.93 348.92 164.46 348.92 169.43 348.23 165.7 346.64 163.38 348.29 161.97 352.58 168.16 353.81 161.56 353.81 158.91 353.81 157.28 358.33 169.42 358.81 157.1 358.81 155.82 362.34 161.63 362.73 155.68 362.73 154.55 365.88 151.49 365.88 150.74 367.62 161.63 368.38 150.4 368.38 147.49 375.08 171.53 376.31 146.95 376.31 145.76 376.31 144.3 376.31 140.6 385.07 162.22 385.78 140.31 385.78 139.28 388.21 209.99 388.21 205.82 382.3" style="fill:#fff;opacity:0.2"></polygon><polygon points="126.36 388.21 37.78 388.21 46.18 376.31 50.64 376.31 58.25 365.88 63.37 365.88 70.68 353.81 75.14 353.81 78.19 348.29 82.07 346.64 85.95 348.29 89 353.81 93.46 353.81 100.77 365.88 105.89 365.88 113.5 376.31 117.96 376.31 126.36 388.21" style="fill:#407BFF"></polygon><polygon points="126.36 388.21 37.78 388.21 46.18 376.31 50.64 376.31 58.25 365.88 63.37 365.88 70.68 353.81 75.14 353.81 78.19 348.29 82.07 346.64 85.95 348.29 89 353.81 93.46 353.81 100.77 365.88 105.89 365.88 113.5 376.31 117.96 376.31 126.36 388.21" style="fill:#fff;opacity:0.4"></polygon><polygon points="122.19 382.3 68.43 382.3 121.03 380.67 117.96 376.31 113.5 376.31 103.12 376.31 113.07 375.72 110.33 371.97 69.79 371.97 109.89 371.36 105.89 365.88 100.77 365.88 85.18 365.88 100 364.59 98.14 361.53 87.9 361.53 97.83 361.03 94.97 356.31 91 356.31 94.56 355.62 93.46 353.81 89 353.81 86.3 348.92 80.83 348.92 85.8 348.23 82.07 346.64 79.75 348.29 78.34 352.58 84.53 353.81 77.93 353.81 75.28 353.81 73.64 358.33 85.78 358.81 73.47 358.81 72.19 362.34 78 362.73 72.05 362.73 70.91 365.88 67.86 365.88 67.1 367.62 78 368.38 66.77 368.38 63.85 375.08 87.9 376.31 63.32 376.31 62.13 376.31 60.66 376.31 56.97 385.07 78.59 385.78 56.67 385.78 55.65 388.21 126.36 388.21 122.19 382.3" style="fill:#fff;opacity:0.2"></polygon></g><g id="freepik--Stones--inject-11"><rect x="202.95" y="394.44" width="31.86" height="10.87" style="fill:#407BFF"></rect><polygon points="234.81 402.64 213.3 404.32 213.3 394.44 234.81 394.44 234.81 402.64" style="fill:#fff;opacity:0.2"></polygon><rect x="128.67" y="403.87" width="31.86" height="10.87" transform="translate(38.92 -11.73) rotate(5.37)" style="fill:#407BFF"></rect><rect x="138.99" y="404.35" width="21.52" height="10.87" transform="translate(38.99 -12.21) rotate(5.37)" style="fill:#fff;opacity:0.2"></rect><rect x="210.71" y="404.35" width="31.86" height="10.87" transform="translate(-18.6 10.85) rotate(-2.64)" style="fill:#407BFF"></rect><rect x="221.05" y="404.12" width="21.52" height="10.87" transform="translate(-18.58 11.09) rotate(-2.64)" style="fill:#fff;opacity:0.2"></rect><rect x="114.36" y="393.68" width="31.86" height="10.87" transform="translate(-18.11 6.37) rotate(-2.62)" style="fill:#407BFF"></rect><polygon points="146.38 402.13 124.89 403.17 124.46 393.94 145.96 392.96 146.38 402.13" style="fill:#fff;opacity:0.2"></polygon><rect x="102.42" y="404.03" width="31.86" height="10.87" style="fill:#407BFF"></rect><rect x="112.76" y="404.03" width="21.52" height="10.87" style="fill:#fff;opacity:0.2"></rect><path d="M76.65,416.42s38.1-2.22,43.55-2.22,14.35-4.84,19.49-3.85,12.66-1.78,14.44-2.37,8.9-3.11,10.29-2.15a92.46,92.46,0,0,0,12.66,5.31c1.78.4,8.9,1,13.25,1.19s23.34,1.18,24.92,1.87,19.78-6.28,22.95-7,19.94,7,24.61,6.08,23.85,3.18,23.85,3.18Z" style="fill:#407BFF"></path><path d="M76.65,416.42s38.1-2.22,43.55-2.22,14.35-4.84,19.49-3.85,12.66-1.78,14.44-2.37,8.9-3.11,10.29-2.15a92.46,92.46,0,0,0,12.66,5.31c1.78.4,8.9,1,13.25,1.19s23.34,1.18,24.92,1.87,19.78-6.28,22.95-7,19.94,7,24.61,6.08,23.85,3.18,23.85,3.18Z" style="fill:#fff;opacity:0.7000000000000001"></path><path d="M406.66,416.42H349.32s15.44-3.29,19.2-2.56,17.26-5.51,19.81-4.9S406.66,416.42,406.66,416.42Z" style="fill:#407BFF"></path><path d="M406.66,416.42H349.32s15.44-3.29,19.2-2.56,17.26-5.51,19.81-4.9S406.66,416.42,406.66,416.42Z" style="fill:#fff;opacity:0.7000000000000001"></path></g><g id="freepik--Character--inject-11"><rect x="354.15" y="177.94" width="81.46" height="2" transform="translate(104.33 500.7) rotate(-72.3)" style="fill:#263238"></rect><g style="opacity:0.2"><rect x="354.15" y="177.94" width="81.46" height="2" transform="translate(104.33 500.7) rotate(-72.3)" style="fill:#fff"></rect></g><path d="M402.17,230.82c-.76,1.93-2.21,1.83-4.65-1.52a76.53,76.53,0,0,1-6.38-11.47q-.81-1.72-1.71-3.69l5.13-10C400.8,207.81,403.54,227.33,402.17,230.82Z" style="fill:#b97964"></path><path d="M397.52,229.3a76.53,76.53,0,0,1-6.38-11.47c0-.23,0-.36,0-.36s3.58-2.34,3.39-4.51C394.56,213,398.67,223.37,397.52,229.3Z" style="opacity:0.2;isolation:isolate"></path><path d="M358.75,168a3.88,3.88,0,0,1,2.1-1.57c1.18-.2,8.5-1.38,9.39-1.18s3.72,4.4,3.74,5-10.56,3.28-11.25,3.28a14,14,0,0,1-3.17-1.38Z" style="fill:#b97964"></path><path d="M382.77,191a1.3,1.3,0,0,1-.26.14,11.14,11.14,0,0,1-4.16,1.4c-4.25.42-7-.51-8.6-2.62h0c-2.21-3.14-2.21-8.19-1.07-14.14a22.75,22.75,0,0,1,2.22-6.82s0-.09,0-.11.08-.17.13-.24a8.26,8.26,0,0,1,6.66-4.21,16.23,16.23,0,0,1,3.59.07C393,165.84,392.6,185.47,382.77,191Z" style="fill:#b97964"></path><path d="M382.51,191.12a10.81,10.81,0,0,1-4.14,1.24c-4.25.42-7-.65-8.58-2.79a11.75,11.75,0,0,0,7.49.36A6.12,6.12,0,0,1,382.51,191.12Z" style="opacity:0.2;isolation:isolate"></path><path d="M383.38,200.69c1.05,3.26-3.14,5.05-3.14,5.05-7.36-2.33-9.05-6-9.05-6,5.6-3.66,3-12.19,3-12.19l1.26.47,8.58.82s-1.89,4.72-2.1,5.77c0,0,0,0,0,0C380.9,200.18,383.38,200.69,383.38,200.69Z" style="fill:#b97964"></path><path d="M370.9,168.86s-1.71,8.11,5.59,12.64c0,0,2.23,8.94,7.12,9.7,6.67,1,13.81-7.72,12.75-17.72C395,160.52,376.08,157,370.9,168.86Z" style="fill:#263238"></path><path d="M372.87,178.63c.17-1.28,1.47-3.29,3.42-2.74s2.5,5.79-2.7,6.26C372.84,182.22,372.52,181.3,372.87,178.63Z" style="fill:#b97964"></path><path d="M394.56,204.11a103.12,103.12,0,0,0-3.9,16.12s0,.05,0,.07c-1.25,7.19-4.13,16.68-4.48,28.28H357.88s-4.48-18-2.54-34.15c.77-6.48,2.33-12.64,5.2-17.19,0,0,2.39-.15,6.11,0l1.88.09h.05c.83.06,1.7.12,2.61.21a69.46,69.46,0,0,1,14.93,2.91l.07,0c1.27.41,2.54.87,3.78,1.39l.15.07A40.63,40.63,0,0,1,394.56,204.11Z" style="fill:#b97964"></path><path d="M392.07,167.09s6.79-5.77,13.53-2.14-1.11,17.62.86,21.9,6.24,4,.85,6.8-.17,5.15-.17,5.15-4.82,1.64-5.22-2.33-2.13-7.26-3.7-7.94,2.65-8.22,1.19-11.95-5.69-3.41-5.69-3.41Z" style="fill:#263238"></path><path d="M381.31,164.45s-8.56-5.37-12.59-1.55c-6.22,5.88,2.65,14.34,12,18.35Z" style="fill:#263238"></path><path d="M390.66,220.23s0,.05,0,.07c-1.25,7.19-4.13,16.68-4.48,28.28H357.88s-4.48-18-2.54-34.15c17.81.78,17.39-8.69,11.31-17.2,0,0,0,0,0-.06l1.89.15h.05l2.61.21s3.05,4.35,7.83,4.74,7.1-1.83,7.1-1.83l.07,0,3.78,1.39.15.06h0a37,37,0,0,0-4,9C384.38,217.47,390.65,220.3,390.66,220.23Z" style="fill:#407BFF"></path><path d="M390.66,220.23s0,.05,0,.07c-1.25,7.19-4.13,16.68-4.48,28.28H357.88s-4.48-18-2.54-34.15c17.81.78,17.39-8.69,11.31-17.2,0,0,0,0,0-.06l1.89.15h.05l2.61.21s3.05,4.35,7.83,4.74,7.1-1.83,7.1-1.83l.07,0,3.78,1.39.15.06h0a37,37,0,0,0-4,9C384.38,217.47,390.65,220.3,390.66,220.23Z" style="fill:#fff;opacity:0.4"></path><path d="M365.2,197.19c-15.53-8.86-20.38-14.79-18-18.21s14.24-6.67,14.24-6.67l-1.61-4.41s-20.2,3.49-21.52,13.09c-1.17,8.52,21.23,24.26,21.23,24.26Z" style="fill:#b97964"></path><path d="M371.76,398.82l-5.1.08c-5.19-24.36-8.85-54.5-11.14-77.23-.35-3.57-.68-6.94-1-10.09-.14-1.5-.27-2.93-.39-4.32-.61-6.83-1-12.25-1.28-15.6-.19-2.45-.28-3.79-.28-3.79h18.44l-.18,4.69-.57,15.51-.06,1.77-.38,10.24-.65,17.43C375.54,362.05,371.76,398.82,371.76,398.82Z" style="fill:#b97964"></path><path d="M413.12,397.51l-5,.95c-10.06-25.13-19.5-57.31-25.64-79.79-.95-3.48-1.83-6.74-2.61-9.7,0-.15-.07-.29-.11-.43C378.19,302.67,377,298,376.25,295c-.57-2.32-.88-3.6-.88-3.6l18.17-3.13,1,7.64,1.52,11.22.29,2.2,1,7.65,2.76,20.52C410.58,360.63,413.12,397.51,413.12,397.51Z" style="fill:#b97964"></path><path d="M396.09,307.16,379.85,309c0-.15-.07-.29-.11-.43C378.19,302.67,377,298,376.25,295l18.32.91Z" style="opacity:0.2;isolation:isolate"></path><path d="M370.87,292.56l-.57,15.51-.06,1.77-15.68,1.74c-.14-1.5-.27-2.93-.39-4.32-.61-6.83-1-12.25-1.28-15.6Z" style="opacity:0.2;isolation:isolate"></path><path d="M356.69,415.75a10.07,10.07,0,0,1,3.2-1.74h0s3.47-3.44,5.14-13.82l4.55-1.18a3.88,3.88,0,0,1,4.14,1.61,2.56,2.56,0,0,1,.29.6,27.34,27.34,0,0,1,.48,3.37,93.45,93.45,0,0,1,.07,11.39h-.82a44.26,44.26,0,0,1-9.83,1.41C357.7,417.51,355.13,417.27,356.69,415.75Z" style="fill:#263238"></path><path d="M373.88,400.7c.29-2.42.39-6.64.39-6.64l-10.11,1.12s1.23,4.8.22,8.4C369.47,402.25,373.88,400.7,373.88,400.7Z" style="fill:#263238"></path><path d="M397.81,415.75A10,10,0,0,1,401,414h0s3.47-3.44,5.14-13.82l4.55-1.18a3.88,3.88,0,0,1,4.14,1.61,2.56,2.56,0,0,1,.29.6,27.34,27.34,0,0,1,.48,3.37,93.45,93.45,0,0,1,.07,11.39h-.82a44.13,44.13,0,0,1-9.83,1.41C398.81,417.51,396.24,417.27,397.81,415.75Z" style="fill:#263238"></path><path d="M415,400.7c.3-2.42.39-6.64.39-6.64l-10.1,1.12s1.22,4.8.21,8.4C410.58,402.25,415,400.7,415,400.7Z" style="fill:#263238"></path><path d="M397.84,302.16l-19.22,2.45-.75.1-3.95-14.49-1,15.52-20.6-1.07c-7.65-37.52,4.48-61.52,4.48-61.52l29.63,1.44c12.66,21.51,10,45.63,10,45.63Z" style="fill:#263238"></path><path d="M378.62,304.61l-.75.1-3.95-14.49s8.48-14.47,5.83-22C380.12,268.74,389.25,282.28,378.62,304.61Z" style="opacity:0.2;isolation:isolate"></path><path d="M379,221.69s-5.67-21.28-12.37-24.46l3-.57s8.4,5.89,11.63,25Z" style="fill:#407BFF"></path><path d="M387,200.59s-2.48,9.91,0,19.6l2.47.68s-3.07-10.59,0-19.24Z" style="fill:#407BFF"></path><path d="M355.42,232.77s6.74,14.11,15.77,14.21v10s-13.63-11.14-16.34-21.79Z" style="fill:#407BFF"></path><path d="M379,221.69s-5.67-21.28-12.37-24.46l3-.57s8.4,5.89,11.63,25Z" style="opacity:0.2;isolation:isolate"></path><path d="M387,200.59s-2.48,9.91,0,19.6l2.47.68s-3.07-10.59,0-19.24Z" style="opacity:0.2;isolation:isolate"></path><path d="M355.42,232.77s6.74,14.11,15.77,14.21v10s-13.63-11.14-16.34-21.79Z" style="opacity:0.2;isolation:isolate"></path><path d="M402,256.87c-1.39,5.14-30.57,8.11-32.2-1,0,0-1.19-29.08,4.13-35,.15-.16.3-.32.46-.46,5.68-5.16,19.86.46,19.86.46s6.59,20.57,2.23,19.58a62.16,62.16,0,0,1,3.32,6.39C401.33,250.28,402.67,254.33,402,256.87Z" style="fill:#407BFF"></path><path d="M399.79,246.84c-5.07,1.71-16.83,5.13-21,1.74-5.33-4.37-8.06-13.67-4.92-27.71.17-.75.31-.85.46-.46.76,2.07,1.48,18,5.65,19.58,5,1.85,16.44.46,16.44.46A62.16,62.16,0,0,1,399.79,246.84Z" style="opacity:0.2;isolation:isolate"></path><path d="M357.43,203.85s3.22,1.6,3.71,2.69S357.39,209.18,357.43,203.85Z" style="opacity:0.2;isolation:isolate"></path><path d="M412.61,124.47a.34.34,0,0,0-.23-.36.33.33,0,0,0-.4.16l-1.18,2.35,1.41.44Z" style="fill:#263238"></path><path d="M469.53,186.08a22.05,22.05,0,0,0-16-5.09,2,2,0,0,0-.2-.26l-.21-.25,0,0-.26-.28a1.07,1.07,0,0,0-.18-.19c-.11-.13-.25-.27-.39-.41s-.52-.5-.83-.78l-.32-.28c-.11-.1-.21-.19-.33-.28l-.37-.3c-.37-.31-.79-.62-1.23-.94l-.47-.33c-.47-.32-1-.66-1.54-1l-.56-.34c-.39-.23-.79-.45-1.21-.68-.64-.34-1.31-.67-2-1a49.65,49.65,0,0,0-14-3.9l-.13,0c-2.15-.27-4.46-.47-7-.54l-1.54,0c-1.05,0-2.12,0-3.23.05v.09l-.13-.1h-.17l0-.14A50.35,50.35,0,0,0,382.43,158l-.1.1-.13-.09H382l0-.08c-.87-.67-1.74-1.3-2.6-1.9-.43-.3-.85-.59-1.28-.87a67.43,67.43,0,0,0-6-3.59l-.12-.06a50,50,0,0,0-13.46-4.91l-.3-.06c-.75-.14-1.48-.25-2.18-.35l-.7-.07a5.61,5.61,0,0,0-.68-.07l-.66-.06c-1.1-.07-2.1-.09-3-.07l-.58,0-.38,0-.46,0c-.9.07-1.66.19-2.26.29l-.29.05c-.44.08-.76.17-1,.23a1.64,1.64,0,0,0-.25.07l-.08,0a22.13,22.13,0,0,0-16-5.11c35.78-18.79,63.56-17.71,75.51-15.91a54.77,54.77,0,0,1,5.83,1.17v0l.25.09h.05l0,0,.24.07v0a50.75,50.75,0,0,1,5.44,2.42C428,134.83,451.26,150,469.53,186.08Z" style="fill:#407BFF"></path><path d="M453.56,181a2,2,0,0,0-.2-.26l-.21-.26,0-.05c-.07-.08-.15-.18-.25-.28l-.18-.19a5.16,5.16,0,0,0-.4-.42c-.24-.23-.51-.51-.82-.79l-.32-.28c-.11-.1-.21-.2-.33-.29l-.37-.3c-.37-.31-.78-.63-1.23-1a5.33,5.33,0,0,0-.46-.32c-.47-.34-1-.67-1.54-1-.18-.12-.36-.24-.56-.35-.38-.23-.79-.46-1.21-.68-.64-.33-1.3-.68-2-1a48.1,48.1,0,0,0-14-3.88.27.27,0,0,0-.13,0,61.34,61.34,0,0,0-7-.5c-.5,0-1,0-1.54,0-1.05,0-2.12,0-3.24.07h-.3l0-.14h0a49.47,49.47,0,0,0-34.76-11.09h0l-.1.1-.13-.09-.12-.08c-.88-.69-1.73-1.33-2.59-1.93-.43-.31-.85-.6-1.28-.87a61.36,61.36,0,0,0-6-3.62.34.34,0,0,0-.12-.06,48.09,48.09,0,0,0-13.46-4.93l-.29-.05c-.76-.15-1.5-.26-2.19-.34a5.56,5.56,0,0,0-.7-.08l-.68-.07a5,5,0,0,0-.66,0c-1.1-.08-2.11-.09-3-.07l-.59,0h-.38l-.46,0c-.9.07-1.67.2-2.27.3a2.47,2.47,0,0,0-.29.06,7.77,7.77,0,0,0-1,.24,1.64,1.64,0,0,0-.25.07l-.08,0c25.91-19.14,48.72-21.31,59.53-21a54.77,54.77,0,0,1,5.83,1.17v0l.25.09h.05l0,0,.24.07v0a50.75,50.75,0,0,1,5.44,2.42C426.2,135.39,443.53,150.39,453.56,181Z" style="fill:#fff;opacity:0.2"></path><path d="M411.5,126.84C401.3,123.58,382,158,382,158h0a50.37,50.37,0,0,1,35.45,11.32h0S421.71,130.1,411.5,126.84Z" style="fill:#fff;opacity:0.2"></path></g></svg>