<svg xmlns="http://www.w3.org/2000/svg" viewBox="0 0 500 500"><g id="freepik--background-simple--inject-37"><path d="M239.74,459.73C346.17,463.66,423.09,359,446.64,266.44,462.29,205,456.8,136.51,424.39,85.17,400.65,47.56,357.3,14.28,307.63,20.28c-55.34,6.68-84.35,70.35-141,78S50,140.72,29.55,190s-5.48,131,38.66,189.39c25.17,33.27,61,59.54,102,72.48,22.5,7.11,44.65,6.67,68.28,7.77Z" style="fill:#4F46E5"></path><path d="M239.74,459.73C346.17,463.66,423.09,359,446.64,266.44,462.29,205,456.8,136.51,424.39,85.17,400.65,47.56,357.3,14.28,307.63,20.28c-55.34,6.68-84.35,70.35-141,78S50,140.72,29.55,190s-5.48,131,38.66,189.39c25.17,33.27,61,59.54,102,72.48,22.5,7.11,44.65,6.67,68.28,7.77Z" style="fill:#fff;opacity:0.8"></path></g><g id="freepik--Clouds--inject-37"><path d="M256.12,107.85s5.56-17.48-15.1-26.22-54.05,4-52.46,12.71,17.49,17.49,6.36,18.28-18.28-15.89-41.33-8S157.57,123,152,123s-20.66-4-34.17,0,0,11.13,50.86,15.1,38.95-6.35,58-7.94,16.69,7.15,57.22,0S310.16,98.32,256.12,107.85Z" style="opacity:0.15"></path><path d="M161,213.24s2.58-8.11-7-12.17-25.07,1.84-24.33,5.9,8.11,8.11,2.95,8.48-8.49-7.37-19.18-3.69,1.84,8.48-.74,8.48-9.59-1.84-15.85,0,0,5.17,23.6,7,18.07-2.95,26.92-3.69,7.74,3.32,26.55,0S186,208.81,161,213.24Z" style="opacity:0.15"></path><path d="M126.43,88.66s1.94-6.09-5.26-9.14S102.34,80.91,102.89,84s6.1,6.1,2.22,6.37-6.37-5.54-14.4-2.77,1.38,6.37-.56,6.37-7.2-1.38-11.9,0,0,3.88,17.72,5.26,13.57-2.21,20.22-2.77,5.81,2.5,19.93,0S145.26,85.34,126.43,88.66Z" style="opacity:0.15"></path><path d="M451.44,147.4s1.93-6.09-5.27-9.14-18.83,1.39-18.27,4.43,6.09,6.1,2.21,6.37-6.37-5.54-14.4-2.77,1.39,6.37-.55,6.37-7.2-1.38-11.91,0,0,3.88,17.72,5.27,13.57-2.22,20.22-2.77,5.81,2.49,19.94,0S470.27,144.08,451.44,147.4Z" style="opacity:0.15"></path></g><g id="freepik--Floor--inject-37"><line x1="115.35" y1="354.53" x2="155.6" y2="354.53" style="fill:none;stroke:#263238;stroke-linecap:round;stroke-linejoin:round"></line><line x1="163.34" y1="354.53" x2="264.74" y2="354.53" style="fill:none;stroke:#263238;stroke-linecap:round;stroke-linejoin:round"></line><line x1="91.36" y1="385.5" x2="138.57" y2="385.5" style="fill:none;stroke:#263238;stroke-linecap:round;stroke-linejoin:round"></line><line x1="33.3" y1="332.09" x2="80.52" y2="332.09" style="fill:none;stroke:#263238;stroke-linecap:round;stroke-linejoin:round"></line><line x1="174.18" y1="383.95" x2="199.72" y2="383.95" style="fill:none;stroke:#263238;stroke-linecap:round;stroke-linejoin:round"></line><line x1="279.45" y1="383.95" x2="304.99" y2="383.95" style="fill:none;stroke:#263238;stroke-linecap:round;stroke-linejoin:round"></line><line x1="163.34" y1="417.23" x2="202.82" y2="417.23" style="fill:none;stroke:#263238;stroke-linecap:round;stroke-linejoin:round"></line><line x1="224.49" y1="417.23" x2="237.65" y2="417.23" style="fill:none;stroke:#263238;stroke-linecap:round;stroke-linejoin:round"></line><line x1="407.94" y1="417.23" x2="421.1" y2="417.23" style="fill:none;stroke:#263238;stroke-linecap:round;stroke-linejoin:round"></line><line x1="326.67" y1="417.23" x2="339.83" y2="417.23" style="fill:none;stroke:#263238;stroke-linecap:round;stroke-linejoin:round"></line><line x1="406.4" y1="379.3" x2="376.21" y2="379.3" style="fill:none;stroke:#263238;stroke-linecap:round;stroke-linejoin:round"></line><line x1="363.05" y1="379.3" x2="352.21" y2="379.3" style="fill:none;stroke:#263238;stroke-linecap:round;stroke-linejoin:round"></line><line x1="52.65" y1="447.42" x2="78.2" y2="447.42" style="fill:none;stroke:#263238;stroke-linecap:round;stroke-linejoin:round"></line><line x1="179.6" y1="442.78" x2="149.41" y2="442.78" style="fill:none;stroke:#263238;stroke-linecap:round;stroke-linejoin:round"></line><line x1="136.25" y1="442.78" x2="125.41" y2="442.78" style="fill:none;stroke:#263238;stroke-linecap:round;stroke-linejoin:round"></line><line x1="319.7" y1="447.42" x2="345.25" y2="447.42" style="fill:none;stroke:#263238;stroke-linecap:round;stroke-linejoin:round"></line><line x1="446.65" y1="442.78" x2="416.46" y2="442.78" style="fill:none;stroke:#263238;stroke-linecap:round;stroke-linejoin:round"></line><line x1="403.3" y1="442.78" x2="392.46" y2="442.78" style="fill:none;stroke:#263238;stroke-linecap:round;stroke-linejoin:round"></line><line x1="280.22" y1="339.83" x2="195.08" y2="339.83" style="fill:none;stroke:#263238;stroke-linecap:round;stroke-linejoin:round"></line><line x1="298.8" y1="339.83" x2="285.64" y2="339.83" style="fill:none;stroke:#263238;stroke-linecap:round;stroke-linejoin:round"></line><line x1="473.74" y1="306.54" x2="424.2" y2="306.54" style="fill:none;stroke:#263238;stroke-linecap:round;stroke-linejoin:round"></line><line x1="479.16" y1="293.38" x2="469.09" y2="293.38" style="fill:none;stroke:#263238;stroke-linecap:round;stroke-linejoin:round"></line><line x1="131.61" y1="293.38" x2="121.54" y2="293.38" style="fill:none;stroke:#263238;stroke-linecap:round;stroke-linejoin:round"></line><line x1="267.84" y1="293.38" x2="257.78" y2="293.38" style="fill:none;stroke:#263238;stroke-linecap:round;stroke-linejoin:round"></line><line x1="432.22" y1="293.38" x2="401.09" y2="293.38" style="fill:none;stroke:#263238;stroke-linecap:round;stroke-linejoin:round"></line><line x1="213.93" y1="293.38" x2="182.8" y2="293.38" style="fill:none;stroke:#263238;stroke-linecap:round;stroke-linejoin:round"></line><line x1="373.11" y1="293.38" x2="363.05" y2="293.38" style="fill:none;stroke:#263238;stroke-linecap:round;stroke-linejoin:round"></line><line x1="81.29" y1="293.38" x2="71.23" y2="293.38" style="fill:none;stroke:#263238;stroke-linecap:round;stroke-linejoin:round"></line><line x1="468.32" y1="286.42" x2="442" y2="286.42" style="fill:none;stroke:#263238;stroke-linecap:round;stroke-linejoin:round"></line><line x1="347.57" y1="286.42" x2="321.25" y2="286.42" style="fill:none;stroke:#263238;stroke-linecap:round;stroke-linejoin:round"></line><line x1="126.96" y1="304.99" x2="163.34" y2="304.99" style="fill:none;stroke:#263238;stroke-linecap:round;stroke-linejoin:round"></line><line x1="281" y1="304.99" x2="317.38" y2="304.99" style="fill:none;stroke:#263238;stroke-linecap:round;stroke-linejoin:round"></line><line x1="363.82" y1="336.73" x2="400.2" y2="336.73" style="fill:none;stroke:#263238;stroke-linecap:round;stroke-linejoin:round"></line><line x1="121.36" y1="267.18" x2="14.33" y2="267.18" style="fill:none;stroke:#263238;stroke-linecap:round;stroke-linejoin:round"></line><line x1="445.58" y1="269.55" x2="487" y2="269.55" style="fill:none;stroke:#263238;stroke-linecap:round;stroke-linejoin:round"></line></g><g id="freepik--Pyramids--inject-37"><path d="M349.35,233.72s21.32-18.65,22.5-18.95,3.26-.89,4.44,0,69.29,54.78,69.29,54.78H379.85Z" style="fill:#4F46E5;stroke:#263238;stroke-linecap:round;stroke-linejoin:round"></path><polygon points="371.85 214.77 361.49 249.12 349.35 233.72 371.85 214.77" style="fill:#263238;stroke:#263238;stroke-linecap:round;stroke-linejoin:round"></polygon><path d="M243.72,235.42l53.22-55.59a2,2,0,0,1,2.37,0c1.18.89,94.45,90.61,94.45,90.61H282.43Z" style="fill:#4F46E5;stroke:#263238;stroke-linecap:round;stroke-linejoin:round"></path><path d="M296.94,179.83l-9.18,18.36V200l5.92-.3s5,.89,5.93.89a25.6,25.6,0,0,1,3.85.89l.88,1.77s.3.6,3.56.89,5.92,1.48,6.81,1.48h5.92l-5.92,1.19-11.85-2.37-2.07-2.07-10.07-1.49-3.55.3-22.8,53-20.65-18.73Z" style="fill:#263238;stroke:#263238;stroke-linecap:round;stroke-linejoin:round"></path><path d="M121.36,267.18l76.39-79.35a7.94,7.94,0,0,1,2.66.59c1.49.59,84.39,78.76,84.39,78.76H132l-6.52.3Z" style="fill:#4F46E5;stroke:#263238;stroke-linecap:round;stroke-linejoin:round"></path><path d="M125.5,267.48l6.52-.3h10.46c1.84-1.8,3.54-3.51,4.05-4.15,1.18-1.48,3.25-7.4,4.14-8.29s4.15-5.62,5.63-7.4,3.55-8.88,4.73-10.66,3.85-6.81,3.85-6.81l5-6.51,5.62-6.81s4.74-6.22,6.22-7.7,3.85-5.63,4.74-6.81,11.25-14.21,11.25-14.21l-76.39,79.35Z" style="fill:#263238;stroke:#263238;stroke-linecap:round;stroke-linejoin:round"></path><line x1="185.23" y1="214.2" x2="195.69" y2="214.2" style="fill:none;stroke:#263238;stroke-linecap:round;stroke-linejoin:round;stroke-width:0.5px"></line><line x1="190.76" y1="215.38" x2="202.6" y2="215.38" style="fill:none;stroke:#263238;stroke-linecap:round;stroke-linejoin:round;stroke-width:0.5px"></line><line x1="196.87" y1="217.55" x2="182.67" y2="217.55" style="fill:none;stroke:#263238;stroke-linecap:round;stroke-linejoin:round;stroke-width:0.5px"></line><line x1="193.1" y1="215.52" x2="193.1" y2="217.26" style="fill:none;stroke:#263238;stroke-linecap:round;stroke-linejoin:round;stroke-width:0.5px"></line><line x1="188.18" y1="214.5" x2="188.18" y2="215.32" style="fill:none;stroke:#263238;stroke-linecap:round;stroke-linejoin:round;stroke-width:0.5px"></line><line x1="184.9" y1="217.26" x2="184.9" y2="216.44" style="fill:none;stroke:#263238;stroke-linecap:round;stroke-linejoin:round;stroke-width:0.5px"></line><line x1="199.35" y1="215.73" x2="199.35" y2="216.55" style="fill:none;stroke:#263238;stroke-linecap:round;stroke-linejoin:round;stroke-width:0.5px"></line><line x1="189" y1="217.65" x2="189" y2="219.02" style="fill:none;stroke:#263238;stroke-linecap:round;stroke-linejoin:round;stroke-width:0.5px"></line><line x1="196.75" y1="218.27" x2="196.75" y2="219.27" style="fill:none;stroke:#263238;stroke-linecap:round;stroke-linejoin:round;stroke-width:0.5px"></line><line x1="206.23" y1="214.2" x2="216.69" y2="214.2" style="fill:none;stroke:#263238;stroke-linecap:round;stroke-linejoin:round;stroke-width:0.5px"></line><line x1="211.76" y1="215.38" x2="223.6" y2="215.38" style="fill:none;stroke:#263238;stroke-linecap:round;stroke-linejoin:round;stroke-width:0.5px"></line><line x1="217.87" y1="217.55" x2="203.67" y2="217.55" style="fill:none;stroke:#263238;stroke-linecap:round;stroke-linejoin:round;stroke-width:0.5px"></line><line x1="214.1" y1="215.52" x2="214.1" y2="217.26" style="fill:none;stroke:#263238;stroke-linecap:round;stroke-linejoin:round;stroke-width:0.5px"></line><line x1="209.18" y1="214.5" x2="209.18" y2="215.32" style="fill:none;stroke:#263238;stroke-linecap:round;stroke-linejoin:round;stroke-width:0.5px"></line><line x1="205.9" y1="217.26" x2="205.9" y2="216.44" style="fill:none;stroke:#263238;stroke-linecap:round;stroke-linejoin:round;stroke-width:0.5px"></line><line x1="220.35" y1="215.73" x2="220.35" y2="216.55" style="fill:none;stroke:#263238;stroke-linecap:round;stroke-linejoin:round;stroke-width:0.5px"></line><line x1="210" y1="217.65" x2="210" y2="219.02" style="fill:none;stroke:#263238;stroke-linecap:round;stroke-linejoin:round;stroke-width:0.5px"></line><line x1="217.75" y1="218.27" x2="217.75" y2="219.27" style="fill:none;stroke:#263238;stroke-linecap:round;stroke-linejoin:round;stroke-width:0.5px"></line><line x1="215.86" y1="223.95" x2="226.32" y2="223.95" style="fill:none;stroke:#263238;stroke-linecap:round;stroke-linejoin:round;stroke-width:0.5px"></line><line x1="221.38" y1="225.13" x2="233.22" y2="225.13" style="fill:none;stroke:#263238;stroke-linecap:round;stroke-linejoin:round;stroke-width:0.5px"></line><line x1="227.5" y1="227.3" x2="213.29" y2="227.3" style="fill:none;stroke:#263238;stroke-linecap:round;stroke-linejoin:round;stroke-width:0.5px"></line><line x1="223.73" y1="225.27" x2="223.73" y2="227.01" style="fill:none;stroke:#263238;stroke-linecap:round;stroke-linejoin:round;stroke-width:0.5px"></line><line x1="218.81" y1="224.25" x2="218.81" y2="225.07" style="fill:none;stroke:#263238;stroke-linecap:round;stroke-linejoin:round;stroke-width:0.5px"></line><line x1="215.53" y1="227.01" x2="215.53" y2="226.19" style="fill:none;stroke:#263238;stroke-linecap:round;stroke-linejoin:round;stroke-width:0.5px"></line><line x1="229.98" y1="225.48" x2="229.98" y2="226.3" style="fill:none;stroke:#263238;stroke-linecap:round;stroke-linejoin:round;stroke-width:0.5px"></line><line x1="219.63" y1="227.4" x2="219.63" y2="228.77" style="fill:none;stroke:#263238;stroke-linecap:round;stroke-linejoin:round;stroke-width:0.5px"></line><line x1="227.38" y1="228.02" x2="227.38" y2="229.02" style="fill:none;stroke:#263238;stroke-linecap:round;stroke-linejoin:round;stroke-width:0.5px"></line><line x1="176.86" y1="242.45" x2="187.32" y2="242.45" style="fill:none;stroke:#263238;stroke-linecap:round;stroke-linejoin:round;stroke-width:0.5px"></line><line x1="182.38" y1="243.63" x2="194.22" y2="243.63" style="fill:none;stroke:#263238;stroke-linecap:round;stroke-linejoin:round;stroke-width:0.5px"></line><line x1="188.5" y1="245.8" x2="174.29" y2="245.8" style="fill:none;stroke:#263238;stroke-linecap:round;stroke-linejoin:round;stroke-width:0.5px"></line><line x1="184.73" y1="243.77" x2="184.73" y2="245.51" style="fill:none;stroke:#263238;stroke-linecap:round;stroke-linejoin:round;stroke-width:0.5px"></line><line x1="179.81" y1="242.75" x2="179.81" y2="243.57" style="fill:none;stroke:#263238;stroke-linecap:round;stroke-linejoin:round;stroke-width:0.5px"></line><line x1="176.53" y1="245.51" x2="176.53" y2="244.69" style="fill:none;stroke:#263238;stroke-linecap:round;stroke-linejoin:round;stroke-width:0.5px"></line><line x1="190.98" y1="243.98" x2="190.98" y2="244.8" style="fill:none;stroke:#263238;stroke-linecap:round;stroke-linejoin:round;stroke-width:0.5px"></line><line x1="180.63" y1="245.9" x2="180.63" y2="247.27" style="fill:none;stroke:#263238;stroke-linecap:round;stroke-linejoin:round;stroke-width:0.5px"></line><line x1="188.38" y1="246.52" x2="188.38" y2="247.52" style="fill:none;stroke:#263238;stroke-linecap:round;stroke-linejoin:round;stroke-width:0.5px"></line><line x1="198.48" y1="248.07" x2="208.94" y2="248.07" style="fill:none;stroke:#263238;stroke-linecap:round;stroke-linejoin:round;stroke-width:0.5px"></line><line x1="204.01" y1="249.26" x2="215.85" y2="249.26" style="fill:none;stroke:#263238;stroke-linecap:round;stroke-linejoin:round;stroke-width:0.5px"></line><line x1="210.12" y1="251.43" x2="195.92" y2="251.43" style="fill:none;stroke:#263238;stroke-linecap:round;stroke-linejoin:round;stroke-width:0.5px"></line><line x1="206.35" y1="249.4" x2="206.35" y2="251.14" style="fill:none;stroke:#263238;stroke-linecap:round;stroke-linejoin:round;stroke-width:0.5px"></line><line x1="201.43" y1="248.37" x2="201.43" y2="249.19" style="fill:none;stroke:#263238;stroke-linecap:round;stroke-linejoin:round;stroke-width:0.5px"></line><line x1="198.15" y1="251.14" x2="198.15" y2="250.32" style="fill:none;stroke:#263238;stroke-linecap:round;stroke-linejoin:round;stroke-width:0.5px"></line><line x1="212.6" y1="249.6" x2="212.6" y2="250.42" style="fill:none;stroke:#263238;stroke-linecap:round;stroke-linejoin:round;stroke-width:0.5px"></line><line x1="202.25" y1="251.52" x2="202.25" y2="252.9" style="fill:none;stroke:#263238;stroke-linecap:round;stroke-linejoin:round;stroke-width:0.5px"></line><line x1="210" y1="252.15" x2="210" y2="253.15" style="fill:none;stroke:#263238;stroke-linecap:round;stroke-linejoin:round;stroke-width:0.5px"></line><line x1="167.11" y1="235.07" x2="177.57" y2="235.07" style="fill:none;stroke:#263238;stroke-linecap:round;stroke-linejoin:round;stroke-width:0.5px"></line><line x1="172.63" y1="236.26" x2="184.47" y2="236.26" style="fill:none;stroke:#263238;stroke-linecap:round;stroke-linejoin:round;stroke-width:0.5px"></line><line x1="178.75" y1="238.43" x2="164.54" y2="238.43" style="fill:none;stroke:#263238;stroke-linecap:round;stroke-linejoin:round;stroke-width:0.5px"></line><line x1="174.98" y1="236.4" x2="174.98" y2="238.14" style="fill:none;stroke:#263238;stroke-linecap:round;stroke-linejoin:round;stroke-width:0.5px"></line><line x1="170.06" y1="235.37" x2="170.06" y2="236.19" style="fill:none;stroke:#263238;stroke-linecap:round;stroke-linejoin:round;stroke-width:0.5px"></line><line x1="166.78" y1="238.14" x2="166.78" y2="237.32" style="fill:none;stroke:#263238;stroke-linecap:round;stroke-linejoin:round;stroke-width:0.5px"></line><line x1="181.23" y1="236.6" x2="181.23" y2="237.42" style="fill:none;stroke:#263238;stroke-linecap:round;stroke-linejoin:round;stroke-width:0.5px"></line><line x1="170.88" y1="238.52" x2="170.88" y2="239.9" style="fill:none;stroke:#263238;stroke-linecap:round;stroke-linejoin:round;stroke-width:0.5px"></line><line x1="178.63" y1="239.15" x2="178.63" y2="240.15" style="fill:none;stroke:#263238;stroke-linecap:round;stroke-linejoin:round;stroke-width:0.5px"></line><line x1="194.48" y1="232.32" x2="204.94" y2="232.32" style="fill:none;stroke:#263238;stroke-linecap:round;stroke-linejoin:round;stroke-width:0.5px"></line><line x1="200.01" y1="233.51" x2="211.85" y2="233.51" style="fill:none;stroke:#263238;stroke-linecap:round;stroke-linejoin:round;stroke-width:0.5px"></line><line x1="206.12" y1="235.68" x2="191.92" y2="235.68" style="fill:none;stroke:#263238;stroke-linecap:round;stroke-linejoin:round;stroke-width:0.5px"></line><line x1="202.35" y1="233.65" x2="202.35" y2="235.39" style="fill:none;stroke:#263238;stroke-linecap:round;stroke-linejoin:round;stroke-width:0.5px"></line><line x1="197.43" y1="232.62" x2="197.43" y2="233.44" style="fill:none;stroke:#263238;stroke-linecap:round;stroke-linejoin:round;stroke-width:0.5px"></line><line x1="194.15" y1="235.39" x2="194.15" y2="234.57" style="fill:none;stroke:#263238;stroke-linecap:round;stroke-linejoin:round;stroke-width:0.5px"></line><line x1="208.6" y1="233.85" x2="208.6" y2="234.67" style="fill:none;stroke:#263238;stroke-linecap:round;stroke-linejoin:round;stroke-width:0.5px"></line><line x1="198.25" y1="235.77" x2="198.25" y2="237.15" style="fill:none;stroke:#263238;stroke-linecap:round;stroke-linejoin:round;stroke-width:0.5px"></line><line x1="206" y1="236.4" x2="206" y2="237.4" style="fill:none;stroke:#263238;stroke-linecap:round;stroke-linejoin:round;stroke-width:0.5px"></line><line x1="174.86" y1="223.45" x2="185.32" y2="223.45" style="fill:none;stroke:#263238;stroke-linecap:round;stroke-linejoin:round;stroke-width:0.5px"></line><line x1="180.38" y1="224.63" x2="192.22" y2="224.63" style="fill:none;stroke:#263238;stroke-linecap:round;stroke-linejoin:round;stroke-width:0.5px"></line><line x1="186.5" y1="226.8" x2="172.29" y2="226.8" style="fill:none;stroke:#263238;stroke-linecap:round;stroke-linejoin:round;stroke-width:0.5px"></line><line x1="182.73" y1="224.77" x2="182.73" y2="226.51" style="fill:none;stroke:#263238;stroke-linecap:round;stroke-linejoin:round;stroke-width:0.5px"></line><line x1="177.81" y1="223.75" x2="177.81" y2="224.57" style="fill:none;stroke:#263238;stroke-linecap:round;stroke-linejoin:round;stroke-width:0.5px"></line><line x1="174.53" y1="226.51" x2="174.53" y2="225.69" style="fill:none;stroke:#263238;stroke-linecap:round;stroke-linejoin:round;stroke-width:0.5px"></line><line x1="188.98" y1="224.98" x2="188.98" y2="225.8" style="fill:none;stroke:#263238;stroke-linecap:round;stroke-linejoin:round;stroke-width:0.5px"></line><line x1="178.63" y1="226.9" x2="178.63" y2="228.27" style="fill:none;stroke:#263238;stroke-linecap:round;stroke-linejoin:round;stroke-width:0.5px"></line><line x1="186.38" y1="227.52" x2="186.38" y2="228.52" style="fill:none;stroke:#263238;stroke-linecap:round;stroke-linejoin:round;stroke-width:0.5px"></line><line x1="209.01" y1="239.3" x2="219.46" y2="239.3" style="fill:none;stroke:#263238;stroke-linecap:round;stroke-linejoin:round;stroke-width:0.5px"></line><line x1="214.53" y1="240.48" x2="226.37" y2="240.48" style="fill:none;stroke:#263238;stroke-linecap:round;stroke-linejoin:round;stroke-width:0.5px"></line><line x1="220.65" y1="242.65" x2="206.44" y2="242.65" style="fill:none;stroke:#263238;stroke-linecap:round;stroke-linejoin:round;stroke-width:0.5px"></line><line x1="216.87" y1="240.62" x2="216.87" y2="242.37" style="fill:none;stroke:#263238;stroke-linecap:round;stroke-linejoin:round;stroke-width:0.5px"></line><line x1="211.95" y1="239.6" x2="211.95" y2="240.42" style="fill:none;stroke:#263238;stroke-linecap:round;stroke-linejoin:round;stroke-width:0.5px"></line><line x1="208.68" y1="242.37" x2="208.68" y2="241.55" style="fill:none;stroke:#263238;stroke-linecap:round;stroke-linejoin:round;stroke-width:0.5px"></line><line x1="223.13" y1="240.83" x2="223.13" y2="241.65" style="fill:none;stroke:#263238;stroke-linecap:round;stroke-linejoin:round;stroke-width:0.5px"></line><line x1="212.77" y1="242.75" x2="212.77" y2="244.13" style="fill:none;stroke:#263238;stroke-linecap:round;stroke-linejoin:round;stroke-width:0.5px"></line><line x1="220.52" y1="243.38" x2="220.52" y2="244.38" style="fill:none;stroke:#263238;stroke-linecap:round;stroke-linejoin:round;stroke-width:0.5px"></line><line x1="223.51" y1="233.05" x2="233.96" y2="233.05" style="fill:none;stroke:#263238;stroke-linecap:round;stroke-linejoin:round;stroke-width:0.5px"></line><line x1="229.03" y1="234.23" x2="240.87" y2="234.23" style="fill:none;stroke:#263238;stroke-linecap:round;stroke-linejoin:round;stroke-width:0.5px"></line><line x1="235.15" y1="236.4" x2="220.94" y2="236.4" style="fill:none;stroke:#263238;stroke-linecap:round;stroke-linejoin:round;stroke-width:0.5px"></line><line x1="231.37" y1="234.37" x2="231.37" y2="236.12" style="fill:none;stroke:#263238;stroke-linecap:round;stroke-linejoin:round;stroke-width:0.5px"></line><line x1="226.45" y1="233.35" x2="226.45" y2="234.17" style="fill:none;stroke:#263238;stroke-linecap:round;stroke-linejoin:round;stroke-width:0.5px"></line><line x1="223.18" y1="236.12" x2="223.18" y2="235.3" style="fill:none;stroke:#263238;stroke-linecap:round;stroke-linejoin:round;stroke-width:0.5px"></line><line x1="237.63" y1="234.58" x2="237.63" y2="235.4" style="fill:none;stroke:#263238;stroke-linecap:round;stroke-linejoin:round;stroke-width:0.5px"></line><line x1="227.27" y1="236.5" x2="227.27" y2="237.88" style="fill:none;stroke:#263238;stroke-linecap:round;stroke-linejoin:round;stroke-width:0.5px"></line><line x1="235.02" y1="237.13" x2="235.02" y2="238.13" style="fill:none;stroke:#263238;stroke-linecap:round;stroke-linejoin:round;stroke-width:0.5px"></line><line x1="196.38" y1="207.05" x2="206.84" y2="207.05" style="fill:none;stroke:#263238;stroke-linecap:round;stroke-linejoin:round;stroke-width:0.5px"></line><line x1="201.91" y1="208.23" x2="213.74" y2="208.23" style="fill:none;stroke:#263238;stroke-linecap:round;stroke-linejoin:round;stroke-width:0.5px"></line><line x1="208.02" y1="210.4" x2="193.82" y2="210.4" style="fill:none;stroke:#263238;stroke-linecap:round;stroke-linejoin:round;stroke-width:0.5px"></line><line x1="204.25" y1="208.37" x2="204.25" y2="210.12" style="fill:none;stroke:#263238;stroke-linecap:round;stroke-linejoin:round;stroke-width:0.5px"></line><line x1="199.33" y1="207.35" x2="199.33" y2="208.17" style="fill:none;stroke:#263238;stroke-linecap:round;stroke-linejoin:round;stroke-width:0.5px"></line><line x1="196.05" y1="210.12" x2="196.05" y2="209.3" style="fill:none;stroke:#263238;stroke-linecap:round;stroke-linejoin:round;stroke-width:0.5px"></line><line x1="210.5" y1="208.58" x2="210.5" y2="209.4" style="fill:none;stroke:#263238;stroke-linecap:round;stroke-linejoin:round;stroke-width:0.5px"></line><line x1="200.15" y1="210.5" x2="200.15" y2="211.88" style="fill:none;stroke:#263238;stroke-linecap:round;stroke-linejoin:round;stroke-width:0.5px"></line><line x1="207.9" y1="211.13" x2="207.9" y2="212.13" style="fill:none;stroke:#263238;stroke-linecap:round;stroke-linejoin:round;stroke-width:0.5px"></line><line x1="191.51" y1="199.68" x2="201.96" y2="199.68" style="fill:none;stroke:#263238;stroke-linecap:round;stroke-linejoin:round;stroke-width:0.5px"></line><line x1="197.03" y1="200.86" x2="208.87" y2="200.86" style="fill:none;stroke:#263238;stroke-linecap:round;stroke-linejoin:round;stroke-width:0.5px"></line><line x1="203.15" y1="203.03" x2="188.94" y2="203.03" style="fill:none;stroke:#263238;stroke-linecap:round;stroke-linejoin:round;stroke-width:0.5px"></line><line x1="199.37" y1="201" x2="199.37" y2="202.74" style="fill:none;stroke:#263238;stroke-linecap:round;stroke-linejoin:round;stroke-width:0.5px"></line><line x1="194.45" y1="199.97" x2="194.45" y2="200.79" style="fill:none;stroke:#263238;stroke-linecap:round;stroke-linejoin:round;stroke-width:0.5px"></line><line x1="191.18" y1="202.74" x2="191.18" y2="201.92" style="fill:none;stroke:#263238;stroke-linecap:round;stroke-linejoin:round;stroke-width:0.5px"></line><line x1="205.63" y1="201.2" x2="205.63" y2="202.02" style="fill:none;stroke:#263238;stroke-linecap:round;stroke-linejoin:round;stroke-width:0.5px"></line><line x1="195.27" y1="203.13" x2="195.27" y2="204.5" style="fill:none;stroke:#263238;stroke-linecap:round;stroke-linejoin:round;stroke-width:0.5px"></line><line x1="203.02" y1="203.75" x2="203.02" y2="204.75" style="fill:none;stroke:#263238;stroke-linecap:round;stroke-linejoin:round;stroke-width:0.5px"></line><path d="M164.59,245.27s-11.25,0-11.25,1.18a6.47,6.47,0,0,1-.89,2.67l-2.37.89s-1.48.88-1.48,1.77a15.74,15.74,0,0,1-.3,2.37s-5,3.55-5.92,4.15-2.07.29-2.37,1.77a32.07,32.07,0,0,0-.29,4.44s-3,1.49-4.15,1.49a5.16,5.16,0,0,0-3.55,2.36,16,16,0,0,0-1.19,4.45,8,8,0,0,0,.3,2.36h64.55l-1.19-4.44-5.33-2.66-2.07-1.19-3-7.69-1.78-2.08-3.85-1.48-1.77-1.18a39.12,39.12,0,0,0-1.78-3.56c-.59-.88-2.07-3.25-3-3.55s-3.85-1.18-3.85-1.18Z" style="fill:#4F46E5;stroke:#263238;stroke-linecap:round;stroke-linejoin:round"></path><path d="M146.23,267.77l-3.55-.89a19.92,19.92,0,0,1,.29-3.25c.3-1.48,3.56-4.15,3.56-4.15l-2.67-.29a17.57,17.57,0,0,0,1.78-2.08c.59-.89,3.25-1.18,3.25-1.18l13.92-.59-10.07-.3-1.18-1.78,1.18-2.37,4.15-1.48-2.07-1.18,1.18-2.37v-.21c-1.54.17-2.66.43-2.66.8a6.47,6.47,0,0,1-.89,2.67l-2.37.89s-1.48.88-1.48,1.77a15.74,15.74,0,0,1-.3,2.37s-5,3.55-5.92,4.15-2.07.29-2.37,1.77a32.07,32.07,0,0,0-.29,4.44s-3,1.49-4.15,1.49l2.66.88Z" style="fill:#263238;stroke:#263238;stroke-linecap:round;stroke-linejoin:round"></path><path d="M132,268.36l3.55-2.36A5.16,5.16,0,0,0,132,268.36Z" style="fill:none;stroke:#263238;stroke-linecap:round;stroke-linejoin:round"></path><path d="M138.83,269.84h-3.56L132,268.36a16,16,0,0,0-1.19,4.45,8,8,0,0,0,.3,2.36h5.62Z" style="fill:#263238;stroke:#263238;stroke-linecap:round;stroke-linejoin:round"></path><path d="M141.79,269.55s23.39-1.78,25.46-1.78,5-.89,7.4-.89H185" style="fill:none;stroke:#263238;stroke-linecap:round;stroke-linejoin:round"></path><path d="M146.53,259.48s17.17-.59,19.83-.59h15.1" style="fill:none;stroke:#263238;stroke-linecap:round;stroke-linejoin:round"></path><path d="M244.24,234.91,236,243.2c-1.19,1.18-5.93,6.81-7.41,7.69s-4.44,3.56-5.62,4.45-5.33,4.44-5.33,4.44l-2.37,2.07-.59,4.74L210.19,269l-1.78,1.77-.89,1.48,7.4.3,3.56.59c1.77.3,2.66,1.19,6.21,1.19s6.81.59,9.78.59h10.36c4.74,0,6.81.29,10.36.29s.59,0,8.59-.29,10.07-.89,12.43-1.78,6.22-1.77,8.59-2.37a27.59,27.59,0,0,1,7.11-.89h3.85a1.2,1.2,0,0,0-.89-1.48c-1.19-.29-3-2.36-4.74-2.66s-4.44-1.48-5.33-1.48-6.81-5-6.81-5-14.51-11.85-15.69-13.33-8.59-8-9.18-8.88a16.7,16.7,0,0,0-3.26-3.26C248.68,232.83,244.24,234.91,244.24,234.91Z" style="fill:#4F46E5;stroke:#263238;stroke-linecap:round;stroke-linejoin:round"></path><path d="M222.92,271a26.33,26.33,0,0,0-5,0,2.18,2.18,0,0,1-1.77-1.19l1.48-.29h3.26l5.33.59h45.3l-2.67-1.78a61.88,61.88,0,0,0-6.81-.59H243.94c-1.78,0-2.07.59-3.55.59s-3.26.6-4.44.3-2.37,0-4.15,0a31.29,31.29,0,0,1-5.33-.89l.3-2.37-.89-2.66.3-1.78,4.14-1.18,8.88-.3s-2.07-.89-3.55-1.48-4.74-1.48-4.74-1.48l.89-3,3.26-.3-2.67-1.18.3-2.07,5.92-.6-2.37-.88.3-1.78,6.22-.59H239.5l-.89-2.08,8-2.66h-2.37s-2.67.3-2.67-.59a4.59,4.59,0,0,1,.89-2.08l1.78-1.77-.52-1.56L236,243.2c-1.19,1.18-5.93,6.81-7.41,7.69s-4.44,3.56-5.62,4.45-5.33,4.44-5.33,4.44l-2.37,2.07-.59,4.74L210.19,269l-1.78,1.77-.89,1.48,7.4.3,3.56.59c1.77.3,2.66,1.19,6.21,1.19l3-2.08A15,15,0,0,0,222.92,271Z" style="fill:#263238;stroke:#263238;stroke-linecap:round;stroke-linejoin:round"></path><path d="M86.42,248.53s-19.25-.3-20.73-.3a8.87,8.87,0,0,0-3.26.89,23.93,23.93,0,0,1-.59,3c-.29.89-.59,2.37-.59,2.37a3.28,3.28,0,0,1-1.48,1.48c-.89.29-4.15.89-4.15.89l-3,1.48-1.48,2.07s-1.77,1.78-3,1.78-3.55.29-3.55.29a21.29,21.29,0,0,0-.89,2.07,17,17,0,0,1-1.18,2.37s-.6,1.78-1.48,1.78a20.26,20.26,0,0,0-3.85,1.18l-2.08.6-3.85,1.48L30.46,274l-.3,2.07h77.58l-.89-4.73s-2.07-.6-3.55-1.19-3-.59-3.26-1.48-3.85-9.77-3.85-9.77L90,256.22l-1.48-4.14Z" style="fill:#4F46E5;stroke:#263238;stroke-linecap:round;stroke-linejoin:round"></path><line x1="41.12" y1="268.66" x2="96.19" y2="268.66" style="fill:none;stroke:#263238;stroke-linecap:round;stroke-linejoin:round"></line><line x1="56.81" y1="259.48" x2="93.52" y2="259.48" style="fill:none;stroke:#263238;stroke-linecap:round;stroke-linejoin:round"></line><path d="M62.43,249.12s1.19,3.26,2.08,3.85a8.93,8.93,0,0,1,1.77,1.77,1.61,1.61,0,0,1-1.48,1.48c-1.48.3-10.06,2.67-10.06,2.67l-3.56,1.48,1.48-2.07a23.72,23.72,0,0,1,3-1.48c1.48-.6,5.63-2.37,5.63-2.37Z" style="fill:#263238;stroke:#263238;stroke-linecap:round;stroke-linejoin:round"></path></g><g id="freepik--Character--inject-37"><ellipse cx="299.5" cy="471" rx="182.5" ry="10" style="fill:#263238;stroke:#263238;stroke-linecap:round;stroke-linejoin:round"></ellipse><path d="M295,340s1.69,49.14,1.35,51.84-1.35,5.06-.67,8.1,1.34,5.39,1,6.74-5.06,50.26-6.41,52.62a59.31,59.31,0,0,1-3.37,5.06s-3.71.68-5.74,3a11.16,11.16,0,0,0-2.36,5.39h15.52s2.69-6.07,3.37-8.43.34-14.45.34-16.82,6.74-39.51,7.42-40.86,4-7.42,4-11.13,0-8.09.68-10.12S319,343,319,343,304.15,335.27,295,340Z" style="fill:#263238;stroke:#263238;stroke-linecap:round;stroke-linejoin:round"></path><path d="M430.28,385.43s10.8,17.54,12.15,20.24-2.36,24.62-2.7,28.33-3,21-5.06,23.66a17.14,17.14,0,0,0-2.7,6.07,11.36,11.36,0,0,0-4.38,2.7,17.25,17.25,0,0,0-3,4.05l-.34,2.36,16.19.67s2-4.72,2.7-7.08-.67-4.38,0-7.08,2.7-22.65,4.72-28.72,4.39-20.91,5.74-25.3,3-11.46,2.36-13.49-9.45-11.8-10.46-14.5-3.37-33.3-3.37-33.3S431.63,375.32,430.28,385.43Z" style="fill:#263238;stroke:#263238;stroke-linecap:round;stroke-linejoin:round"></path><path d="M346,229.5s-18,.25-22.25-1-9.25-1.5-12,1-4.25,11-6.5,14.25-20,38.25-24.5,43.5-8.25,9.5-19.5,10-23-2.5-28.75-10.5S223,261,223,261s-4.5-12-8.25-13.75-16-2.5-18.75-2.25-4.75,3.75-9.25,5.25-17.5,2.25-23.5,5-5.75,9-5.75,11.25a39.1,39.1,0,0,0,.5,5.25,6.16,6.16,0,0,0,.75,3c.75,1,4.5-.25,5.5-.5s-.75,1,3.75,1,5.5-.25,8.25-.25,7.25-1,12,2,11.25,5,15,13,10.75,26.75,26.5,40.25S261.25,344,275,344s21.25-2,24.75-.75,12,5.75,12,5.75,9,37.09,9.25,41.34-3,7.5.5,12.75,5,11,5.75,13.25,4,39.83,3.5,41.33-1.25,4.25-1.25,4.25-8.5,3-10,6.5a39.1,39.1,0,0,0-1.75,4.5s17,.25,19.25.25,5.75-4,6.75-6.75.75-4.25-1.75-10.25-6.75-38.08-6.5-44.08.25-13.5-1.75-18.25-3.25-6.75-3.5-7.5-.5-31.34.5-33.59S335.5,343,335.5,343s24,6.5,42.25,3.75S405.5,342,405.5,342s9,32.59,12,39.84,2.25,24.5,2.25,28.5,1.75,8,0,16-3.75,21.58-4,24.08,0,4.75-1.25,6.25-9.75,8-11.75,10-2.25,5.5-2.25,5.5l.75,1s10.75.5,11.75.5,4.75-4,4.75-4,1.75-3.75,1.75-5.75-.25-3.75.5-6,4.5-21.58,7-28.83,6.5-16.5,7.5-20.5,0-22,1.25-28,6-24.84,9.5-35.09,2.25-26.75,2.25-26.75,1.5,25.5,1.5,29.5v11c0,3,3.25,13.5,3.25,13.5s3.5-14.5,2.5-19.25-3-5.75-3.75-10.5-1.25-25.25-1.75-28.25-3-12-3.75-13-12.75-18-15.25-23.75-6-16.75-6-16.75S413,236.75,406.75,234s-7.75-2-15-1.75S346,229.5,346,229.5Z" style="fill:#999;stroke:#263238;stroke-linecap:round;stroke-linejoin:round"></path><polyline points="185.61 253.65 185.01 255.42 195.35 257.3" style="fill:none;stroke:#263238;stroke-linecap:round;stroke-linejoin:round"></polyline><path d="M186.56,255.68s-.26,2.84,3.37,3.62,3.33-2.52,3.33-2.52Z" style="fill:#263238;stroke:#263238;stroke-linecap:round;stroke-linejoin:round"></path><path d="M164.3,257.75s-3.88,1.55-3.1,2.84,6.21,0,7.24-.26S166.89,257.49,164.3,257.75Z" style="fill:#263238;stroke:#263238;stroke-linecap:round;stroke-linejoin:round"></path><path d="M164.25,274.25s4.71-3,7.3-3,5.43.51,6.73.51" style="fill:none;stroke:#263238;stroke-linecap:round;stroke-linejoin:round"></path><path d="M221.74,257.93c-17,6.85-30.42,7.94-33.66,8.1-1.16-3.44-5.38-10.9-7.49-14.52l-2.12.32c2.57,4.4,7.34,12.89,7.89,15.44.41,2-.3,5.6-1,8.35a14.58,14.58,0,0,1,1.86.79,31,31,0,0,0,1.23-8.39c3.83-.23,17.27-1.48,34.07-8.25C222.31,259.27,222.05,258.64,221.74,257.93Z" style="fill:#263238"></path><path d="M210.37,252.31S216.07,249,221,249s11.39.26,11.39.26-.78,1.81-3.88,4.4-8.28,5.43-10.35,5.69-7.25-3.37-7.25-3.37" style="fill:#999;stroke:#263238;stroke-linecap:round;stroke-linejoin:round"></path><path d="M212.44,256.45s1.3-2.59,6-3.88a52.23,52.23,0,0,1,11.38-1.29S225.9,256.71,222,258,214.51,258.78,212.44,256.45Z" style="fill:#263238;stroke:#263238;stroke-linecap:round;stroke-linejoin:round"></path><path d="M171.55,271.21s2.59,29.5,6.21,42.18,21.22,21.23,35.46,18.38,21.22-23.29,22-31.32.77-10.61.77-10.61" style="fill:none;stroke:#263238;stroke-linecap:round;stroke-linejoin:round;stroke-width:2px"></path><path d="M227.45,276.12s-6.73,14-23,16.05" style="fill:none;stroke:#263238;stroke-linecap:round;stroke-linejoin:round;stroke-width:2px"></path><path d="M208.3,291.39s1.81,45.3,13.2,55.91,27.95,0,31.06-18.12a135.74,135.74,0,0,0,1.81-32.09" style="fill:none;stroke:#263238;stroke-linecap:round;stroke-linejoin:round;stroke-width:2px"></path><path d="M442.27,314.17a80.63,80.63,0,0,0,1.5-14.86c-3.58-5.12-11.54-16.75-13.52-21.31-2.5-5.75-6-16.75-6-16.75S413,236.75,406.75,234s-7.75-2-15-1.75S346,229.5,346,229.5s-18,.25-22.25-1-9.25-1.5-12,1-4.25,11-6.5,14.25c-1.69,2.44-12.12,22.78-19.11,35,5.52,5.75,23.15,23.44,36.3,29.48,15.79,7.24,24.07,10.35,40.64,12.42s67,20.45,67,20.45S439.43,328.15,442.27,314.17Z" style="fill:#595959;stroke:#263238;stroke-linecap:round;stroke-linejoin:round"></path><path d="M427,277.68c-.08-3.5-.29-6.79-.59-9.93-1.24-3.6-2.16-6.5-2.16-6.5S413,236.75,406.75,234s-7.75-2-15-1.75S346,229.5,346,229.5s-18,.25-22.25-1a23.58,23.58,0,0,0-3.91-.8v0a240.54,240.54,0,0,1,12.94,31.84c6.47,19.41,14,52.8,14.76,59.27s1,11.13,1,11.13,8,2.84,32.87,2.84a293.69,293.69,0,0,0,43.48-3.1S427.52,298.64,427,277.68Z" style="fill:#4F46E5;stroke:#263238;stroke-linecap:round;stroke-linejoin:round"></path><path d="M351.81,251.31l-7.91,8.27a.42.42,0,0,0,0,.62l8.67,7.47a.44.44,0,0,0,.33.11.43.43,0,0,0,.32-.14l7.91-8.27a.47.47,0,0,0,.12-.32.44.44,0,0,0-.15-.3l-8.67-7.47A.48.48,0,0,0,351.81,251.31Zm1.07,15.41-8-6.88,7.28-7.61,8,6.88Z" style="fill:#263238"></path><path d="M384.56,310.52a.42.42,0,0,0,0,.62l5.82,5a.45.45,0,0,0,.34.11.47.47,0,0,0,.32-.14l5.31-5.56a.42.42,0,0,0,0-.62l-5.82-5a.49.49,0,0,0-.66,0Zm5.68-4.64,5.14,4.43-4.68,4.9-5.14-4.43Z" style="fill:#263238"></path><path d="M366.87,311.38a.42.42,0,0,0,0,.62l5.82,5a.5.5,0,0,0,.34.11.55.55,0,0,0,.32-.14l5.31-5.56a.47.47,0,0,0,.12-.32.44.44,0,0,0-.15-.3l-5.83-5a.48.48,0,0,0-.65,0Zm5.68-4.64,5.14,4.43-4.69,4.9-5.13-4.43Z" style="fill:#263238"></path><path d="M389.75,302.38l-7.91,8.27a.42.42,0,0,0,0,.62l8.67,7.47a.44.44,0,0,0,.33.11.43.43,0,0,0,.32-.14l7.91-8.27a.42.42,0,0,0,0-.62l-8.67-7.47A.48.48,0,0,0,389.75,302.38Zm1.07,15.41-8-6.87,7.28-7.62,8,6.88Z" style="fill:#263238"></path><path d="M334.49,253.08l8,6.88-7.19,7.53c.09.33.19.66.29,1l7.89-8.26a.44.44,0,0,0,.13-.32.43.43,0,0,0-.16-.31l-8.66-7.46a.48.48,0,0,0-.66,0l-2.83,3,.33.95Z" style="fill:#263238"></path><path d="M340.75,260.36a.47.47,0,0,0,.12-.32.42.42,0,0,0-.15-.3l-5.83-5a.49.49,0,0,0-.65,0L332,257.13l.33,1,2.31-2.42,5.14,4.42L335.06,265l-.73-.64c.16.53.32,1.07.49,1.61a.5.5,0,0,0,.29.09.51.51,0,0,0,.33-.15Z" style="fill:#263238"></path><path d="M425.13,300.67l-7.9,8.27a.42.42,0,0,0,0,.62l8.58,7.4c0-.37.05-.75.07-1.13l-7.69-6.63,7.28-7.61,1.11,1c0-.38,0-.76.05-1.15l-.88-.75A.48.48,0,0,0,425.13,300.67Z" style="fill:#263238"></path><path d="M343.59,299.49c.06.29.13.58.2.87l83.06-4c0-.29,0-.58,0-.88Z" style="fill:#263238"></path><path d="M425.26,303.25,420,308.81a.37.37,0,0,0-.12.31.39.39,0,0,0,.15.31l5.82,5a.56.56,0,0,0,.19.09c0-.35,0-.7.06-1.07l-5.11-4.4,4.69-4.9.87.75.06-1.14-.65-.56A.48.48,0,0,0,425.26,303.25Z" style="fill:#263238"></path><path d="M425.45,322.79c0-.29,0-.58.06-.89l-77.26,3.74c0,.31.06.6.08.88Z" style="fill:#263238"></path><path d="M426.59,269.82c0-.29,0-.58-.08-.88l-89.57,4.34.24.87Z" style="fill:#263238"></path><path d="M407.44,301.53l-7.9,8.27a.42.42,0,0,0,0,.62l8.66,7.46a.48.48,0,0,0,.33.12.53.53,0,0,0,.33-.15l7.9-8.27a.42.42,0,0,0,0-.62l-8.67-7.47A.48.48,0,0,0,407.44,301.53Zm1.07,15.41-8-6.88,7.28-7.62,8,6.88Z" style="fill:#263238"></path><path d="M402.25,309.66a.47.47,0,0,0-.12.32.46.46,0,0,0,.15.31l5.83,5a.5.5,0,0,0,.33.12.5.5,0,0,0,.32-.15l5.31-5.56a.41.41,0,0,0,.12-.31.42.42,0,0,0-.15-.31l-5.82-5a.48.48,0,0,0-.66,0Zm5.69-4.64,5.13,4.43-4.68,4.91-5.14-4.43Z" style="fill:#263238"></path><path d="M369.5,250.46l-7.91,8.26a.44.44,0,0,0,0,.63l8.67,7.46a.5.5,0,0,0,.33.12.46.46,0,0,0,.32-.15l7.91-8.27a.42.42,0,0,0,0-.62l-8.67-7.47A.47.47,0,0,0,369.5,250.46Zm1.07,15.41-8-6.88,7.28-7.62,8,6.88Z" style="fill:#263238"></path><path d="M399.7,256.88a.39.39,0,0,0-.12.32.42.42,0,0,0,.15.3l5.82,5a.44.44,0,0,0,.33.11.47.47,0,0,0,.32-.14l5.31-5.56a.39.39,0,0,0,.12-.32.42.42,0,0,0-.15-.3l-5.82-5a.48.48,0,0,0-.65,0Zm5.68-4.64,5.14,4.43-4.69,4.9-5.14-4.43Z" style="fill:#263238"></path><path d="M328.4,247.31l.33.87,86.4-4.19c-.17-.29-.35-.57-.53-.85Z" style="fill:#263238"></path><path d="M387.19,249.6l-7.9,8.27a.42.42,0,0,0,0,.62L388,266a.45.45,0,0,0,.34.11.55.55,0,0,0,.32-.14l7.9-8.27a.44.44,0,0,0,0-.63l-8.67-7.46A.47.47,0,0,0,387.19,249.6ZM388.26,265l-8-6.88,7.28-7.62,8,6.88Z" style="fill:#263238"></path><path d="M404.88,248.74,397,257a.42.42,0,0,0,0,.62l8.66,7.47a.47.47,0,0,0,.34.11.43.43,0,0,0,.32-.14l7.9-8.27a.42.42,0,0,0,0-.62l-8.66-7.47A.49.49,0,0,0,404.88,248.74ZM406,264.15l-8-6.88,7.28-7.61,8,6.88Z" style="fill:#263238"></path><path d="M382,257.74a.42.42,0,0,0,0,.62l5.82,5a.5.5,0,0,0,.33.12.48.48,0,0,0,.32-.15l5.31-5.55a.43.43,0,0,0,.12-.32.38.38,0,0,0-.15-.3l-5.82-5a.49.49,0,0,0-.65,0Zm5.68-4.64,5.14,4.42-4.69,4.91L383,258Z" style="fill:#263238"></path><path d="M364.31,258.59a.42.42,0,0,0,0,.62l5.83,5a.44.44,0,0,0,.33.11.43.43,0,0,0,.32-.14l5.31-5.56a.41.41,0,0,0,.12-.31.46.46,0,0,0-.15-.31l-5.82-5a.49.49,0,0,0-.66,0ZM370,254l5.13,4.43-4.68,4.9-5.14-4.42Z" style="fill:#263238"></path><path d="M414.7,256.78l8.67,7.46a.5.5,0,0,0,.33.12.48.48,0,0,0,.32-.15l.89-.93-.32-1-.94,1-8-6.88,4.07-4.26-.45-.84-4.62,4.83A.44.44,0,0,0,414.7,256.78Z" style="fill:#263238"></path><path d="M346.62,259.45a.42.42,0,0,0,0,.62l5.82,5a.45.45,0,0,0,.34.11.55.55,0,0,0,.32-.14l5.31-5.56a.47.47,0,0,0,.12-.32.46.46,0,0,0-.15-.3l-5.82-5a.51.51,0,0,0-.66,0Zm5.68-4.64,5.14,4.43-4.68,4.9-5.14-4.43Z" style="fill:#263238"></path><path d="M361,312.29a.41.41,0,0,0,.12-.32.42.42,0,0,0-.15-.31l-5.82-5a.47.47,0,0,0-.65,0l-5.31,5.56a.42.42,0,0,0,0,.62l5.82,5a.5.5,0,0,0,.33.12.46.46,0,0,0,.32-.15Zm-5.68,4.64-5.14-4.43,4.69-4.9L360,312Z" style="fill:#263238"></path><path d="M417.27,256.34a.38.38,0,0,0,.15.3l5.82,5a.44.44,0,0,0,.33.11.45.45,0,0,0,.33-.14l.35-.37h0l-.41-.87-.32.33-5.13-4.42,2.26-2.37-.44-.85L417.39,256A.43.43,0,0,0,417.27,256.34Z" style="fill:#263238"></path><path d="M355.49,320.57a.5.5,0,0,0,.32-.15l7.9-8.27a.37.37,0,0,0,.12-.31.42.42,0,0,0-.15-.31L355,304.07a.48.48,0,0,0-.66,0l-7.9,8.27,0,.07.12.58,8.62,7.44A.53.53,0,0,0,355.49,320.57ZM354.73,305l8,6.88-7.28,7.62-8-6.88Z" style="fill:#263238"></path><path d="M372.05,303.24l-7.9,8.27a.42.42,0,0,0,0,.62l8.67,7.47a.44.44,0,0,0,.33.11.45.45,0,0,0,.32-.14l7.9-8.27a.42.42,0,0,0,0-.62l-8.66-7.47A.49.49,0,0,0,372.05,303.24Zm1.08,15.41-8-6.88,7.28-7.61,8,6.87Z" style="fill:#263238"></path><path d="M323,235s-5.95-3.36-8.54-2.59a32,32,0,0,0-6.21,3.11s2.58-15,2.58-18.64,4.92-3.36,6-1.81,2.58,11.13,3.1,12.68S323,235,323,235Z" style="fill:#fff;stroke:#263238;stroke-linecap:round;stroke-linejoin:round"></path><polyline points="287.24 288.29 282.06 300.71 285.43 301.23 287.24 303.82 290.61 304.33 290.28 300.26 289.44 289.84 291.12 299.42 294.49 298.12 291.38 288.55" style="fill:#595959;stroke:#263238;stroke-linecap:round;stroke-linejoin:round"></polyline><path d="M292.42,286.61a3,3,0,1,1-3-3.24A3.12,3.12,0,0,1,292.42,286.61Z" style="fill:#595959;stroke:#263238;stroke-linecap:round;stroke-linejoin:round"></path><polyline points="298.89 298.9 293.71 311.32 297.08 311.84 298.89 314.43 302.25 314.95 301.93 310.87 301.09 300.45 302.77 310.03 306.13 308.73 303.03 299.16" style="fill:#595959;stroke:#263238;stroke-linecap:round;stroke-linejoin:round"></polyline><path d="M304.06,297.22a3,3,0,1,1-3-3.24A3.11,3.11,0,0,1,304.06,297.22Z" style="fill:#595959;stroke:#263238;stroke-linecap:round;stroke-linejoin:round"></path><polyline points="309.5 306.66 304.32 319.09 307.69 319.61 309.5 322.19 312.86 322.71 312.54 318.64 311.7 308.22 313.38 317.79 316.75 316.5 313.64 306.92" style="fill:#595959;stroke:#263238;stroke-linecap:round;stroke-linejoin:round"></polyline><path d="M314.68,305a3,3,0,1,1-3-3.23A3.12,3.12,0,0,1,314.68,305Z" style="fill:#595959;stroke:#263238;stroke-linecap:round;stroke-linejoin:round"></path><polyline points="320.89 313.13 315.71 325.56 319.08 326.07 320.89 328.66 324.25 329.18 323.93 325.11 323.09 314.69 324.77 324.26 328.13 322.97 325.03 313.39" style="fill:#595959;stroke:#263238;stroke-linecap:round;stroke-linejoin:round"></polyline><path d="M326.06,311.45a3,3,0,1,1-3-3.23A3.11,3.11,0,0,1,326.06,311.45Z" style="fill:#595959;stroke:#263238;stroke-linecap:round;stroke-linejoin:round"></path><polyline points="333.31 318.57 328.13 330.99 331.5 331.51 333.31 334.1 336.68 334.62 336.35 330.54 335.51 320.12 337.19 329.7 340.56 328.4 337.45 318.83" style="fill:#595959;stroke:#263238;stroke-linecap:round;stroke-linejoin:round"></polyline><path d="M338.49,316.89a3,3,0,1,1-3-3.24A3.12,3.12,0,0,1,338.49,316.89Z" style="fill:#595959;stroke:#263238;stroke-linecap:round;stroke-linejoin:round"></path><path d="M344.69,127.23s.69,10.31-2.52,14.89-12.83,9.4-14.44,16.74,7.34,11.91,6.65,15.58-2.75,4.81-2.75,7.79a29.77,29.77,0,0,0,1.61,7.57s8.48-5.28,21.08-2.75,23.38,6.41,27.5,6.41,9.17-3,12.38-3a9.56,9.56,0,0,1,5.5,1.84s5.27-8,.23-15.13-9.17-9.63-8-14.21,5.27-7.79.68-13.75-8-4.81-15.12-12.61,0-8.71-11.46-12.83S347.22,120.58,344.69,127.23Z" style="fill:#263238;stroke:#263238;stroke-linecap:round;stroke-linejoin:round"></path><path d="M345.15,122.87a12,12,0,0,1,.69-4.58c.92-3.21,9.17-6.19,12.84-6.19s9.39,1.61,14.2,5,6.42,8,4.82,9.63a6.22,6.22,0,0,1-3,1.83,38.11,38.11,0,0,0-15.36-3.44A41.81,41.81,0,0,1,345.15,122.87Z" style="fill:#4F46E5;stroke:#263238;stroke-linecap:round;stroke-linejoin:round"></path><path d="M337.24,203.47s-4.95,13.71-6.3,15.95-3.14,5-3.14,5-2.7,0-3.82.9-2.25,4.27-2.25,5.39,1.8,1.8,3.82,1.8a18.75,18.75,0,0,0,6.07-1.35c.9-.45,1.79-5.62,1.79-5.62l5.62-7.86Z" style="fill:#263238;stroke:#263238;stroke-linecap:round;stroke-linejoin:round"></path><path d="M352,148.16s1.59,7.07.7,9.36-3.7,4.42-9,7.78-6.54,5.29-6.54,7.24v3c0,.53-3.88,5.47-3.53,11.3S337,202.56,337,209.27s-.35,18.73-.35,18.73,6,8.65,24.2,10.07,21.72-.18,24.55-4.07,4.06-10.42,1.41-16.95-6-10.6-6.18-12.9,3-20.84,2.12-29.14-3.35-10.6-7.59-13.78-7.95-3.88-8.66-6.71-.71-9.18-.71-9.18a15.08,15.08,0,0,1-6.71,2.29,13.27,13.27,0,0,1-6.71-1.76S352,146.22,352,148.16Z" style="fill:#fff;stroke:#263238;stroke-linecap:round;stroke-linejoin:round"></path><path d="M378.23,163.79a30.74,30.74,0,0,0-3.08-2.56c-4.24-3.18-7.95-3.88-8.66-6.71s-.71-9.18-.71-9.18a15.08,15.08,0,0,1-6.71,2.29,13.27,13.27,0,0,1-6.71-1.76s-.35.35-.35,2.29c0,0,1.59,7.07.7,9.36s-3.7,4.42-9,7.78a37.31,37.31,0,0,0-3.14,2.17c.55.69,6.44,7.54,22.39,4.18A30.08,30.08,0,0,0,378.23,163.79Z" style="fill:#fff;stroke:#263238;stroke-linecap:round;stroke-linejoin:round"></path><path d="M385.39,234c2.83-3.88,4.06-10.42,1.41-16.95s-6-10.6-6.18-12.9,3-20.84,2.12-29.14-3.35-10.6-7.59-13.78c-2.73-2-5.23-3.07-6.86-4.29l-.39.05s-7.06,9.19-9.36,18.9-3,28.44-3,35-.71,15.37-.71,15.37l-.35,11,0,0a56.67,56.67,0,0,0,6.32.85C379,239.48,382.56,237.89,385.39,234Z" style="fill:#fff;stroke:#263238;stroke-linecap:round;stroke-linejoin:round"></path><path d="M347.22,129.29s.45,11.46,1.14,13.06,6.2,9.31,8.95,10.23,3.34-.73,4.94-1.42,5.36-4.91,6.51-7.66,1.15-12.38,1.15-12.38-.69-3.89-1.61-3.21-19-.68-19-.68A1.85,1.85,0,0,0,347.22,129.29Z" style="fill:#fff;stroke:#263238;stroke-linecap:round;stroke-linejoin:round"></path><path d="M357.14,129.05s-7.52-.22-9.24-.22-1.29,1.29-1.29,1.94.43,3.65,1.5,4.72,6,.65,6.88.22,2.36-3.66,2.36-4.3S357.14,129.05,357.14,129.05Z" style="fill:#263238;stroke:#263238;stroke-linecap:round;stroke-linejoin:round"></path><path d="M358.68,129.06s8-.23,9.85-.23,1.38,1.38,1.38,2.06-.46,3.9-1.61,5.05-6.42.68-7.33.23-2.52-3.9-2.52-4.59S358.68,129.06,358.68,129.06Z" style="fill:#263238;stroke:#263238;stroke-linecap:round;stroke-linejoin:round"></path><path d="M354.92,142.1a18.27,18.27,0,0,0,3.77.87,7.68,7.68,0,0,0,3.06-1.3,5.72,5.72,0,0,1-2.76,3.05C357.14,145.43,355.06,143,354.92,142.1Z" style="fill:none;stroke:#263238;stroke-linecap:round;stroke-linejoin:round"></path><path d="M356.84,134.56l-1.37,3.21a6.3,6.3,0,0,0,2.75,1.15,3.32,3.32,0,0,0,2.06-.92" style="fill:none;stroke:#263238;stroke-linecap:round;stroke-linejoin:round"></path><path d="M344.69,127.23s.23-3.21,7.11-.69,9.85,3.44,13.29,3.67,5.5,2.29,9.63,5.73,7.56,6.87,11.23,9.62a24.43,24.43,0,0,0,6.64,3.67s-13.29-11.92-15.35-15.59-.92-4.58-5.27-6.64-12.84-5-20.86-5S342.78,123.69,344.69,127.23Z" style="fill:#4F46E5;stroke:#263238;stroke-linecap:round;stroke-linejoin:round"></path><path d="M350.64,160.32a49,49,0,0,1-6.93,5c-5.3,3.35-6.54,5.29-6.54,7.24v3s5.48-5.65,9.72-10.24A28.51,28.51,0,0,0,350.64,160.32Z" style="fill:#fff;stroke:#263238;stroke-linecap:round;stroke-linejoin:round"></path><path d="M371.26,164.59s-6.36,5.3-8.3,12.36a90.21,90.21,0,0,0-3,16.25A68.8,68.8,0,0,1,358,203.62a45.8,45.8,0,0,1-2.82,6c-.71.88-21.9,17-21.9,17a38.46,38.46,0,0,1-6.36-.53c-2.48-.53-3.18.53-3.18.53l-1.24,5.3a4.25,4.25,0,0,0,1.77,1.24,23.83,23.83,0,0,0,4.41.35l1.95-1.06h2.47c1.59,0,5.65-2.82,5.65-2.82s23.32-11.13,25.26-12.72a33.64,33.64,0,0,0,7.06-8.3c1.59-3,9-26,9-26" style="fill:#fff;stroke:#263238;stroke-linecap:round;stroke-linejoin:round"></path><path d="M347.31,215.87c-6.28,4.84-14,10.71-14,10.71a38.46,38.46,0,0,1-6.36-.53c-2.48-.53-3.18.53-3.18.53l-1.24,5.3a4.25,4.25,0,0,0,1.77,1.24,23.83,23.83,0,0,0,4.41.35l1.95-1.06h2.47c1.59,0,5.65-2.82,5.65-2.82s7.51-3.59,14.36-7A33.91,33.91,0,0,0,347.31,215.87Z" style="fill:#fff;stroke:#263238;stroke-linecap:round;stroke-linejoin:round"></path><path d="M334.72,299.17s-3,1.06.59,2.3,22.61.89,28.9.89,5.9-3.19,4.33-4.08-22,0-26,0A40.81,40.81,0,0,0,334.72,299.17Z" style="fill:#263238;stroke:#263238;stroke-linecap:round;stroke-linejoin:round"></path><path d="M379.75,219.28s-21.63-2.31-33-.53S328.82,227.6,331.57,237s10,19.31,12.59,23.92,8.06,20,8.65,22.49,1.18,5.85,1.18,5.85a60.77,60.77,0,0,1-9.05,4.25c-5.9,2.3-9.43,2.3-9.83,3.9s2.36,2.48,4.52,2.83,13.77.53,15.93.53,11.21-.88,12.19-1.41,1.38-1.6.2-5.14-2.16-4.25-3.15-8.15-5.5-25.69-5.5-32.59a59.31,59.31,0,0,0-1.38-12.58s14.36,2.48,23.2,0,7.48-16.65,6.49-20.37" style="fill:#fff;stroke:#263238;stroke-linecap:round;stroke-linejoin:round"></path><path d="M359.3,253.47a59.31,59.31,0,0,0-1.38-12.58s14.36,2.48,23.2,0a8.13,8.13,0,0,0,4.23-2.81c-8.45-.52-10.91-6-20.35-11.54a67.86,67.86,0,0,0-19-7.66c-10.95,2-17.12,8.92-14.43,18.11,2.76,9.39,10,19.31,12.59,23.92,1.84,3.32,5.21,12.25,7.18,17.91l11.8-.42C361.48,270.22,359.3,258.26,359.3,253.47Z" style="fill:#263238;stroke:#263238;stroke-linecap:round;stroke-linejoin:round"></path><path d="M349.47,291.73s8.84.71,9.24,8.86H354s-1.38-4.61-2.95-6.2S343,296,343,296l2-2.48A29.79,29.79,0,0,1,349.47,291.73Z" style="fill:#263238;stroke:#263238;stroke-linecap:round;stroke-linejoin:round"></path></g></svg>