<svg xmlns="http://www.w3.org/2000/svg" viewBox="0 0 750 500"><g id="freepik--background-complete--inject-79"><path d="M464.64,63.25H391.49s7.25-19.81,18.41-19.81,14.66,13.67,14.66,13.67,7.53-7.43,13.72-7.43,11.57,9.82,11.57,9.82S458.59,54.22,464.64,63.25Z" style="fill:#ebebeb"></path><path d="M310.25,175.13H237.1s7.25-19.81,18.42-19.81S270.18,169,270.18,169s7.53-7.43,13.71-7.43,11.57,9.82,11.57,9.82S304.2,166.1,310.25,175.13Z" style="fill:#ebebeb"></path><path d="M212.58,74.31H178.4S186,63.25,192.06,63.25s7.79,7.38,7.79,7.38,4.25-3.45,8.18-2.83S212.58,74.31,212.58,74.31Z" style="fill:#ebebeb"></path><path d="M593.81,139H559.62s7.64-11.06,13.66-11.06,7.79,7.38,7.79,7.38,4.25-3.45,8.19-2.83S593.81,139,593.81,139Z" style="fill:#ebebeb"></path><path d="M392,114.52H357.84s7.64-11.07,13.66-11.07,7.79,7.38,7.79,7.38,4.25-3.44,8.19-2.83S392,114.52,392,114.52Z" style="fill:#ebebeb"></path><path d="M148,116H81.41s9.12-20.35,18.87-21.63,14.42,15.13,14.42,15.13,6.29-5.79,11.24-5.79,8.77,7.63,8.77,7.63S144.6,106.15,148,116Z" style="fill:#ebebeb"></path><path d="M668.59,98.78H602s9.11-20.36,18.87-21.63S635.3,92.27,635.3,92.27s6.29-5.79,11.24-5.79,8.76,7.63,8.76,7.63S665.2,88.88,668.59,98.78Z" style="fill:#ebebeb"></path><circle cx="301.55" cy="74.31" r="25.21" transform="translate(-5.18 123.03) rotate(-22.87)" style="fill:#ebebeb"></circle></g><g id="freepik--Shadow--inject-79"><ellipse cx="269.29" cy="436.75" rx="213.95" ry="27.54" style="fill:#ebebeb"></ellipse></g><g id="freepik--Floor--inject-79"><path d="M487,245.65c4.47.21,8.93.69,13.37,1.24s8.88,1.22,13.29,2,8.81,1.7,13.15,2.81a70.37,70.37,0,0,1,12.73,4.37,21.5,21.5,0,0,1,2.94,1.69,10,10,0,0,1,2.52,2.33,4.15,4.15,0,0,1,.78,3.38,6.3,6.3,0,0,1-1.84,2.93,23.73,23.73,0,0,1-5.67,3.72c-2,1-4.1,1.85-6.2,2.64-8.44,3.14-17.22,5-25.77,7.67a259,259,0,0,0-25.33,8.83,101.87,101.87,0,0,0-12,5.86,41.42,41.42,0,0,0-5.46,3.78,13.57,13.57,0,0,0-4.07,5,5.1,5.1,0,0,0-.3,3.05,6.29,6.29,0,0,0,1.48,2.74,17.84,17.84,0,0,0,5.32,3.75,64.85,64.85,0,0,0,12.59,4.35c8.69,2.06,17.47,3.87,26.27,5.47C540,329.9,575.44,335,610.57,342.14c8.77,1.87,17.53,3.8,26.13,6.37l3.2,1.05c1.06.36,2.15.66,3.18,1.11l6.24,2.51c2.11.77,4.09,1.83,6.13,2.77s4.07,1.89,6,3.05A88.51,88.51,0,0,1,683,374.92l2.31,2.45c.74.84,1.42,1.74,2.13,2.6l1,1.31,1,1.39c.61.94,1.31,1.82,1.83,2.82s1.16,1.92,1.63,2.94,1,2,1.39,3.06l.61,1.56c.19.53.34,1.07.51,1.61a20.3,20.3,0,0,1,.72,3.27,20.38,20.38,0,0,0-.75-3.27c-.17-.53-.33-1.06-.52-1.59l-.62-1.56c-.38-1.05-.95-2-1.42-3s-1.11-1.94-1.65-2.92-1.24-1.86-1.86-2.79l-1-1.38-1.06-1.29c-.71-.86-1.4-1.75-2.14-2.58l-2.33-2.42a88.27,88.27,0,0,0-21.64-15.66c-1.92-1.14-4-2.05-6-3s-4-2-6.12-2.75l-6.23-2.48c-1-.44-2.11-.73-3.16-1.09l-3.19-1c-8.58-2.53-17.33-4.43-26.09-6.26-35.13-7-70.63-12-105.87-18.56q-13.21-2.44-26.32-5.56a65.62,65.62,0,0,1-12.75-4.46,18.51,18.51,0,0,1-5.57-4,7.1,7.1,0,0,1-1.66-3.12,5.92,5.92,0,0,1,.35-3.53,14.32,14.32,0,0,1,4.32-5.32,41.54,41.54,0,0,1,5.58-3.84,101.06,101.06,0,0,1,12.13-5.87,261.44,261.44,0,0,1,25.43-8.77c8.58-2.62,17.37-4.49,25.76-7.58a66.64,66.64,0,0,0,6.15-2.6,22.88,22.88,0,0,0,5.54-3.61,5.79,5.79,0,0,0,1.71-2.66,3.7,3.7,0,0,0-.69-3,9.39,9.39,0,0,0-2.39-2.22,24,24,0,0,0-2.86-1.67,71.22,71.22,0,0,0-12.61-4.45c-4.32-1.15-8.7-2.09-13.1-2.92s-8.82-1.53-13.26-2.12S491.44,245.9,487,245.65Z" style="fill:#ebebeb"></path><path d="M525.13,245.65c8.44.43,16.86,1.31,25.25,2.27s16.78,2.16,25.11,3.64c4.16.74,8.31,1.58,12.43,2.56a100.71,100.71,0,0,1,12.19,3.61,31.4,31.4,0,0,1,5.75,2.78,10.1,10.1,0,0,1,2.46,2.12,3.69,3.69,0,0,1,.84,3.21,5.71,5.71,0,0,1-1.85,2.74,16.53,16.53,0,0,1-2.63,1.87,41.63,41.63,0,0,1-5.78,2.71A120,120,0,0,1,586.78,277l-12.25,3.25L550,286.74c-8.16,2.2-16.31,4.43-24.38,6.9-4,1.24-8.06,2.54-12,4-2,.73-3.93,1.5-5.84,2.36a29.61,29.61,0,0,0-5.44,3,5.1,5.1,0,0,0-1.85,2.14c-.29.78.25,1.56,1.06,2.12a19.08,19.08,0,0,0,5.67,2.3,112,112,0,0,0,12.41,2.28c8.36,1.16,16.77,2,25.18,2.83,16.83,1.58,33.69,2.93,50.5,4.8s33.58,4.2,50.13,7.72,32.88,8.35,48.17,15.6c-15.36-7.1-31.75-11.67-48.27-15.11S612,322,595.23,320.17s-33.66-3.1-50.5-4.63c-8.42-.76-16.84-1.61-25.23-2.75A112.37,112.37,0,0,1,507,310.53a19,19,0,0,1-6-2.45,4.13,4.13,0,0,1-1.22-1.3,2.39,2.39,0,0,1-.19-1.92,6,6,0,0,1,2.2-2.62,31.43,31.43,0,0,1,5.64-3.11c1.94-.87,3.92-1.64,5.91-2.37,4-1.45,8-2.74,12.07-4,8.1-2.45,16.26-4.66,24.43-6.83l24.54-6.41,12.27-3.21a117.06,117.06,0,0,0,12.06-3.78,41.47,41.47,0,0,0,5.69-2.65,15.26,15.26,0,0,0,2.54-1.79,5.11,5.11,0,0,0,1.67-2.42,3.09,3.09,0,0,0-.72-2.7,9.68,9.68,0,0,0-2.31-2,31,31,0,0,0-5.64-2.74,99.63,99.63,0,0,0-12.1-3.63c-4.1-1-8.24-1.83-12.39-2.62-8.31-1.55-16.67-2.79-25-3.86S533.57,246.16,525.13,245.65Z" style="fill:#ebebeb"></path><path d="M597,245.65c7.19.35,14.35,1,21.51,1.81s14.29,1.69,21.4,2.8,14.2,2.43,21.2,4.15a94.18,94.18,0,0,1,10.37,3.09,38.53,38.53,0,0,1,5,2.2,10.84,10.84,0,0,1,4.22,3.55,3.5,3.5,0,0,1,.33,2.88,5.7,5.7,0,0,1-1.62,2.33,19.62,19.62,0,0,1-4.59,3,71.25,71.25,0,0,1-10.12,3.87c-3.45,1.08-6.94,2-10.42,2.89s-7,1.77-10.47,2.62c-14,3.37-28.07,6.42-42.14,9.38-7,1.48-14.08,2.95-21.1,4.52-3.51.78-7,1.59-10.49,2.46s-7,1.8-10.31,3a24.21,24.21,0,0,0-2.44,1.05,7.89,7.89,0,0,0-1.09.66c-.32.24-.6.56-.6.77s.23.47.58.67a6.11,6.11,0,0,0,1.16.52,21.22,21.22,0,0,0,2.55.68c3.5.71,7.08,1,10.66,1.4L592,308.14c14.31,1.52,28.6,3.37,42.72,6.19q10.57,2.16,21,5.05c6.93,2,13.76,4.22,20.52,6.68-6.78-2.39-13.64-4.56-20.58-6.46s-14-3.45-21-4.82c-14.12-2.71-28.39-4.54-42.7-6l-21.48-2.1a106,106,0,0,1-10.73-1.37,21.23,21.23,0,0,1-2.66-.69,7.94,7.94,0,0,1-1.31-.58,2.53,2.53,0,0,1-.61-.5,1.24,1.24,0,0,1-.35-.88,2,2,0,0,1,.91-1.37,8.52,8.52,0,0,1,1.2-.75c.83-.42,1.67-.76,2.52-1.09,3.41-1.25,6.9-2.17,10.39-3.08s7-1.71,10.5-2.5c7-1.6,14.06-3.1,21.09-4.6,14.07-3,28.16-5.93,42.14-9.27q5.25-1.25,10.48-2.57c3.48-.9,7-1.78,10.39-2.84a70.23,70.23,0,0,0,10-3.79,19.35,19.35,0,0,0,4.44-2.85,5.3,5.3,0,0,0,1.44-2,2.8,2.8,0,0,0-.27-2.32,10.25,10.25,0,0,0-3.94-3.31,37.55,37.55,0,0,0-4.88-2.18A98.94,98.94,0,0,0,660.92,255c-7-1.75-14-3.07-21.14-4.23s-14.21-2.18-21.35-3S604.13,246.08,597,245.65Z" style="fill:#ebebeb"></path><path d="M464.65,245.65c4.29.2,8.57.66,12.83,1.17s8.51,1.16,12.74,1.89,8.45,1.58,12.62,2.6a86.07,86.07,0,0,1,12.31,3.86,25.52,25.52,0,0,1,5.68,3.11,7.87,7.87,0,0,1,2.21,2.45,3.87,3.87,0,0,1,.21,3.32,7.35,7.35,0,0,1-2,2.64,17.59,17.59,0,0,1-2.63,1.93,42.88,42.88,0,0,1-5.79,2.9c-8,3.32-16.36,5.33-24.64,7.57C471.62,283.56,455,288,438.67,293.2a199.65,199.65,0,0,0-24,9.07,48,48,0,0,0-5.57,3.1,20.58,20.58,0,0,0-2.49,1.92,7.18,7.18,0,0,0-1.82,2.4,2.74,2.74,0,0,0,.23,2.67,6.84,6.84,0,0,0,2.22,2,26.26,26.26,0,0,0,5.8,2.5c33.26,8.23,66.92,15.46,100,24.84,8.26,2.38,16.48,4.89,24.58,7.77A145.82,145.82,0,0,1,561.08,360a88.1,88.1,0,0,1,20.41,15.65A57.89,57.89,0,0,1,589.26,386a34.64,34.64,0,0,1,4.55,12,34.47,34.47,0,0,0-4.68-11.9,57.6,57.6,0,0,0-7.84-10.16,90.06,90.06,0,0,0-20.47-15.39,146.06,146.06,0,0,0-23.47-10.42c-8.09-2.84-16.31-5.32-24.56-7.66-16.53-4.64-33.22-8.7-49.92-12.66l-25.08-5.86-12.54-3L419,319.42c-2.09-.49-4.19-1-6.25-1.68a27.87,27.87,0,0,1-6-2.62,7.75,7.75,0,0,1-2.49-2.29,3.85,3.85,0,0,1-.6-1.7,3.79,3.79,0,0,1,.3-1.77,8,8,0,0,1,2-2.7,20.77,20.77,0,0,1,2.61-2,50.77,50.77,0,0,1,5.68-3.14,199.48,199.48,0,0,1,24.16-9c16.4-5.17,33-9.56,49.6-14,8.29-2.23,16.67-4.2,24.59-7.48a44.24,44.24,0,0,0,5.73-2.84,17.49,17.49,0,0,0,2.56-1.87,6.86,6.86,0,0,0,1.85-2.45,3.32,3.32,0,0,0-.17-2.9,7.42,7.42,0,0,0-2.06-2.31,25.31,25.31,0,0,0-5.55-3.1,85.27,85.27,0,0,0-12.22-3.93c-4.16-1.06-8.36-1.93-12.59-2.7s-8.46-1.43-12.72-2S468.94,245.88,464.65,245.65Z" style="fill:#ebebeb"></path><path d="M290.71,245.65c4.47.21,8.93.69,13.37,1.24s8.88,1.22,13.29,2,8.81,1.7,13.15,2.81a70.37,70.37,0,0,1,12.73,4.37,21.5,21.5,0,0,1,2.94,1.69,9.79,9.79,0,0,1,2.52,2.33,4.15,4.15,0,0,1,.78,3.38,6.3,6.3,0,0,1-1.84,2.93,23.54,23.54,0,0,1-5.67,3.72c-2,1-4.1,1.85-6.2,2.64-8.44,3.14-17.22,5-25.77,7.67a259,259,0,0,0-25.33,8.83,101,101,0,0,0-12,5.86,40.88,40.88,0,0,0-5.47,3.78,13.57,13.57,0,0,0-4.07,5,5.17,5.17,0,0,0-.29,3.05,6.27,6.27,0,0,0,1.47,2.74,17.84,17.84,0,0,0,5.32,3.75,64.85,64.85,0,0,0,12.59,4.35q13,3.09,26.28,5.47c35.19,6.64,70.68,11.76,105.81,18.88,8.77,1.87,17.53,3.8,26.13,6.37l3.2,1.05c1.06.36,2.15.66,3.18,1.11l6.24,2.51c2.11.77,4.1,1.83,6.13,2.77s4.07,1.89,6,3.05a88.51,88.51,0,0,1,21.58,15.92l2.31,2.45c.74.84,1.42,1.74,2.13,2.6l1.05,1.31.95,1.39c.61.94,1.31,1.82,1.83,2.82s1.16,1.92,1.63,2.94,1,2,1.39,3.06l.61,1.56c.19.53.34,1.07.51,1.61a20.3,20.3,0,0,1,.72,3.27,20.38,20.38,0,0,0-.75-3.27c-.17-.53-.33-1.06-.52-1.59l-.62-1.56c-.38-1.05-.95-2-1.42-3s-1.1-1.94-1.65-2.92-1.24-1.86-1.86-2.79l-.95-1.38-1.07-1.29c-.71-.86-1.39-1.75-2.14-2.58l-2.32-2.42A88.52,88.52,0,0,0,465,359.43c-1.92-1.14-4-2.05-6-3s-4-2-6.12-2.75l-6.23-2.48c-1-.44-2.11-.73-3.16-1.09l-3.19-1c-8.57-2.53-17.33-4.43-26.09-6.26-35.13-7-70.63-12-105.87-18.56Q295.1,321.8,282,318.68a65.62,65.62,0,0,1-12.75-4.46,18.51,18.51,0,0,1-5.57-4,7.2,7.2,0,0,1-1.66-3.12,6,6,0,0,1,.35-3.53,14.32,14.32,0,0,1,4.32-5.32,41.64,41.64,0,0,1,5.59-3.84,99.62,99.62,0,0,1,12.13-5.87,260.33,260.33,0,0,1,25.42-8.77c8.58-2.62,17.37-4.49,25.76-7.58,2.09-.78,4.16-1.62,6.16-2.6a23,23,0,0,0,5.53-3.61,5.79,5.79,0,0,0,1.71-2.66,3.7,3.7,0,0,0-.69-3,9.52,9.52,0,0,0-2.38-2.22A24.11,24.11,0,0,0,343,256.5a71.22,71.22,0,0,0-12.61-4.45c-4.32-1.15-8.7-2.09-13.1-2.92s-8.82-1.53-13.26-2.12S295.18,245.9,290.71,245.65Z" style="fill:#ebebeb"></path><path d="M100.73,245.65c8.45.43,16.86,1.31,25.26,2.27s16.78,2.16,25.11,3.64c4.16.74,8.31,1.58,12.43,2.56a100,100,0,0,1,12.18,3.61,31.4,31.4,0,0,1,5.75,2.78,10.15,10.15,0,0,1,2.47,2.12,3.69,3.69,0,0,1,.83,3.21,5.69,5.69,0,0,1-1.84,2.74,16.53,16.53,0,0,1-2.63,1.87,42.17,42.17,0,0,1-5.78,2.71A120,120,0,0,1,162.39,277l-12.26,3.25-24.51,6.49c-8.16,2.2-16.31,4.43-24.39,6.9-4,1.24-8,2.54-12,4-2,.73-3.94,1.5-5.85,2.36a29.94,29.94,0,0,0-5.44,3,5.08,5.08,0,0,0-1.84,2.14c-.29.78.25,1.56,1.05,2.12a19.25,19.25,0,0,0,5.68,2.3,112,112,0,0,0,12.41,2.28c8.36,1.16,16.76,2,25.18,2.83,16.82,1.58,33.68,2.93,50.49,4.8s33.59,4.2,50.14,7.72,32.87,8.35,48.17,15.6c-15.37-7.1-31.75-11.67-48.27-15.11s-33.31-5.73-50.11-7.53-33.66-3.1-50.5-4.63c-8.42-.76-16.84-1.61-25.23-2.75a112,112,0,0,1-12.53-2.26,19,19,0,0,1-6-2.45,4,4,0,0,1-1.22-1.3,2.39,2.39,0,0,1-.19-1.92,6,6,0,0,1,2.2-2.62A31,31,0,0,1,83,299.13c2-.87,3.93-1.64,5.92-2.37,4-1.45,8-2.74,12.06-4,8.1-2.45,16.27-4.66,24.44-6.83L150,279.55l12.27-3.21a117.65,117.65,0,0,0,12.05-3.78,41,41,0,0,0,5.7-2.65,15.69,15.69,0,0,0,2.54-1.79,5.18,5.18,0,0,0,1.67-2.42,3.09,3.09,0,0,0-.72-2.7,9.88,9.88,0,0,0-2.31-2,31.27,31.27,0,0,0-5.64-2.74,99.25,99.25,0,0,0-12.11-3.63c-4.1-1-8.24-1.83-12.39-2.62-8.3-1.55-16.66-2.79-25-3.86S109.17,246.16,100.73,245.65Z" style="fill:#ebebeb"></path><path d="M83.34,245.65c4.47.21,8.93.69,13.37,1.24s8.88,1.22,13.29,2,8.81,1.7,13.15,2.81a70.37,70.37,0,0,1,12.73,4.37,21.5,21.5,0,0,1,2.94,1.69,9.79,9.79,0,0,1,2.52,2.33,4.15,4.15,0,0,1,.78,3.38,6.3,6.3,0,0,1-1.84,2.93,23.54,23.54,0,0,1-5.67,3.72c-2,1-4.1,1.85-6.2,2.64-8.44,3.14-17.22,5-25.77,7.67a259,259,0,0,0-25.33,8.83,101,101,0,0,0-12,5.86,40.88,40.88,0,0,0-5.47,3.78,13.57,13.57,0,0,0-4.07,5,5.25,5.25,0,0,0-.3,3.05,6.39,6.39,0,0,0,1.48,2.74,17.84,17.84,0,0,0,5.32,3.75,64.85,64.85,0,0,0,12.59,4.35q13.05,3.09,26.28,5.47c35.19,6.64,70.68,11.76,105.81,18.88,8.77,1.87,17.53,3.8,26.13,6.37l3.2,1.05c1.06.36,2.15.66,3.18,1.11l6.24,2.51c2.11.77,4.1,1.83,6.13,2.77s4.07,1.89,6,3.05a88.51,88.51,0,0,1,21.58,15.92l2.31,2.45c.74.84,1.42,1.74,2.13,2.6l1.05,1.31.95,1.39c.61.94,1.31,1.82,1.83,2.82s1.16,1.92,1.63,2.94,1,2,1.39,3.06l.61,1.56c.19.53.34,1.07.51,1.61a20.3,20.3,0,0,1,.72,3.27,20.38,20.38,0,0,0-.75-3.27c-.17-.53-.33-1.06-.52-1.59l-.62-1.56c-.38-1.05-.95-2-1.42-3s-1.1-1.94-1.65-2.92-1.24-1.86-1.86-2.79l-.95-1.38-1.07-1.29c-.71-.86-1.39-1.75-2.14-2.58l-2.32-2.42a88.52,88.52,0,0,0-21.65-15.66c-1.92-1.14-4-2.05-6-3s-4-2-6.12-2.75l-6.23-2.48c-1-.44-2.11-.73-3.16-1.09l-3.19-1c-8.57-2.53-17.33-4.43-26.09-6.26-35.13-7-70.63-12-105.87-18.56q-13.22-2.44-26.32-5.56a65.62,65.62,0,0,1-12.75-4.46,18.51,18.51,0,0,1-5.57-4,7.2,7.2,0,0,1-1.66-3.12A6,6,0,0,1,55,303.6a14.32,14.32,0,0,1,4.32-5.32,41,41,0,0,1,5.59-3.84A99.62,99.62,0,0,1,77,288.57a260.33,260.33,0,0,1,25.42-8.77c8.58-2.62,17.37-4.49,25.76-7.58,2.09-.78,4.16-1.62,6.16-2.6A23,23,0,0,0,139.9,266a5.79,5.79,0,0,0,1.71-2.66,3.7,3.7,0,0,0-.69-3,9.52,9.52,0,0,0-2.38-2.22,24.11,24.11,0,0,0-2.87-1.67,71.22,71.22,0,0,0-12.61-4.45c-4.32-1.15-8.7-2.09-13.1-2.92S101.14,247.6,96.7,247,87.81,245.9,83.34,245.65Z" style="fill:#ebebeb"></path><path d="M257.28,245.65c4.29.2,8.57.66,12.83,1.17s8.51,1.16,12.74,1.89,8.45,1.58,12.62,2.6a86.07,86.07,0,0,1,12.31,3.86,25.52,25.52,0,0,1,5.68,3.11,7.87,7.87,0,0,1,2.21,2.45,3.87,3.87,0,0,1,.21,3.32,7.35,7.35,0,0,1-2,2.64,17.59,17.59,0,0,1-2.63,1.93,42.88,42.88,0,0,1-5.79,2.9c-8,3.32-16.36,5.33-24.64,7.57-16.58,4.47-33.17,8.91-49.53,14.11a199.65,199.65,0,0,0-24,9.07,48,48,0,0,0-5.57,3.1,20.58,20.58,0,0,0-2.49,1.92,7.18,7.18,0,0,0-1.82,2.4,2.74,2.74,0,0,0,.23,2.67,6.84,6.84,0,0,0,2.22,2,26.26,26.26,0,0,0,5.8,2.5c33.26,8.23,66.92,15.46,100,24.84,8.26,2.38,16.48,4.89,24.58,7.77A145.82,145.82,0,0,1,353.71,360a88.1,88.1,0,0,1,20.41,15.65A57.89,57.89,0,0,1,381.89,386a34.64,34.64,0,0,1,4.55,12,34.47,34.47,0,0,0-4.68-11.9,57.6,57.6,0,0,0-7.84-10.16,90.06,90.06,0,0,0-20.47-15.39A146.06,146.06,0,0,0,330,350.06c-8.09-2.84-16.31-5.32-24.56-7.66-16.53-4.64-33.22-8.7-49.92-12.66l-25.08-5.86-12.54-3-6.27-1.49c-2.09-.49-4.19-1-6.25-1.68a27.87,27.87,0,0,1-6-2.62,7.75,7.75,0,0,1-2.49-2.29,3.85,3.85,0,0,1-.6-1.7,3.79,3.79,0,0,1,.3-1.77,8,8,0,0,1,2-2.7,20.77,20.77,0,0,1,2.61-2,50.77,50.77,0,0,1,5.68-3.14,199.48,199.48,0,0,1,24.16-9c16.4-5.17,33-9.56,49.6-14,8.29-2.23,16.67-4.2,24.59-7.48a44.24,44.24,0,0,0,5.73-2.84,17.49,17.49,0,0,0,2.56-1.87,6.86,6.86,0,0,0,1.85-2.45,3.32,3.32,0,0,0-.17-2.9,7.42,7.42,0,0,0-2.06-2.31,25.31,25.31,0,0,0-5.55-3.1,85.27,85.27,0,0,0-12.22-3.93c-4.16-1.06-8.36-1.93-12.59-2.7s-8.46-1.43-12.72-2S261.57,245.88,257.28,245.65Z" style="fill:#ebebeb"></path><polygon points="56.39 244.97 136.04 244.72 215.69 244.63 375 244.47 534.31 244.63 613.96 244.72 693.61 244.97 613.96 245.21 534.31 245.3 375 245.46 215.69 245.3 136.04 245.21 56.39 244.97" style="fill:#263238"></polygon></g><g id="freepik--Pyramids--inject-79"><polygon points="693.61 244.83 546.28 244.83 601.98 122.28 693.61 244.83" style="fill:#4F46E5"></polygon><polygon points="693.61 244.83 546.28 244.83 601.98 122.28 693.61 244.83" style="opacity:0.1"></polygon><polygon points="601.98 122.28 510.28 244.83 546.28 244.83 601.98 122.28" style="fill:#4F46E5"></polygon><polygon points="601.98 122.28 510.28 244.83 546.28 244.83 601.98 122.28" style="opacity:0.2"></polygon><g style="opacity:0.2"><path d="M621.78,199l-3.81.08-1.87,0c-.63,0-1.25,0-1.87,0l.13-.13v3.19l-.14-.14,3.78,0c1.25,0,2.51,0,3.77,0l-.08.08c0-.52,0-1,0-1.58Zm0,0,0,1.58c0,.53,0,1.07,0,1.61v.08h-.08c-1.26,0-2.52.05-3.77.05h-3.92v-3.47h.13l1.91,0,1.9,0Z"></path><path d="M635.74,181.4l-3.81.08-1.87,0-1.87,0,.13-.13v3.19l-.14-.14,3.77,0c1.26,0,2.52,0,3.78,0l-.08.08c0-.52,0-1.05,0-1.58Zm0,0,0,1.58c0,.53,0,1.07,0,1.61v.08h-.08c-1.26,0-2.52,0-3.78,0l-3.77,0h-.14v-3.46h.13c.64,0,1.27,0,1.91,0l1.9,0Z"></path><path d="M631.53,177.37l-3.81.08-1.88,0H624l.12-.13,0,3.2-.14-.15,3.77,0c1.26,0,2.52,0,3.78.05l-.08.08c0-.53,0-1,0-1.58Zm0,0,0,1.58c0,.54,0,1.07,0,1.62v.07h-.08c-1.26,0-2.52.05-3.78.05l-3.77,0h-.15v-.14l0-3.2v-.12h2l1.89,0Z"></path><path d="M640,177.37l-3.8.08-1.88,0H632.4l.13-.13v3.2l-.14-.15,3.78,0c1.26,0,2.52,0,3.77.05l-.07.08c0-.53,0-1,0-1.58Zm0,0,0,1.58c0,.54,0,1.07,0,1.62v.07H640c-1.25,0-2.51.05-3.77.05l-3.78,0h-.14v-3.46h2l1.9,0Z"></path><path d="M605.79,152.09l-3.81.08-1.88,0c-.62,0-1.24,0-1.87,0l.13-.13,0,3.19-.15-.14,3.78,0c1.26,0,2.52,0,3.78.05l-.08.07c0-.52,0-1,0-1.57Zm0,0,0,1.58c0,.53,0,1.07,0,1.61v.08h-.08c-1.26,0-2.52,0-3.78,0l-3.78,0h-.14v-.15l0-3.19V152h2l1.9,0Z"></path><path d="M607.9,232.29l-3.81.08-1.88,0-1.87,0,.13-.13,0,3.19-.15-.14,3.78,0c1.26,0,2.52,0,3.78,0l-.08.08c0-.52,0-1,0-1.58Zm0,0,0,1.58c0,.53,0,1.07,0,1.61v.08h-.07c-1.26,0-2.52,0-3.78,0l-3.78,0h-.14v-.14l0-3.19v-.13h.12c.64,0,1.28,0,1.91,0l1.9,0Z"></path><path d="M577.68,207.05l3.81-.08,1.88,0,1.87,0-.13.13,0-3.19.15.14-3.78,0c-1.26,0-2.52,0-3.78,0l.08-.08c0,.52,0,1,0,1.58Zm0,0,0-1.58c0-.53,0-1.07,0-1.61v-.08h.07c1.26,0,2.52,0,3.78,0l3.78,0h.14v.14l0,3.19v.13h-.12c-.64,0-1.28,0-1.91,0l-1.9,0Z"></path><path d="M581.9,211.08l3.81-.08,1.87,0h1.87l-.13.13v-3.2l.14.15-3.78,0c-1.25,0-2.51,0-3.77,0l.08-.08c0,.53,0,1.05,0,1.58Zm0,0,0-1.58c0-.54,0-1.07,0-1.62v-.07h.08c1.26,0,2.52-.05,3.77-.05l3.78,0h.14v3.46h-2l-1.9,0Z"></path><path d="M658.76,232.73l3.81-.08,1.88,0h1.86l-.12.12,0-3.19.14.15-3.77,0c-1.26,0-2.52,0-3.78,0l.08-.08c0,.52,0,1.05,0,1.58Zm0,0,0-1.57c0-.54,0-1.08,0-1.62v-.07h.08c1.26,0,2.52,0,3.78,0l3.77,0h.15v3.46h-2l-1.9,0Z"></path><path d="M663,236.76l3.81-.08,1.88,0c.62,0,1.24,0,1.87,0l-.13.13,0-3.19.15.14-3.78,0c-1.26,0-2.52,0-3.78-.05l.08-.07c0,.52,0,1,0,1.58Zm0,0,0-1.58c0-.53,0-1.07,0-1.61v-.08H663c1.26,0,2.52-.05,3.78-.05l3.78,0h.14v.15l0,3.19v.13h-.12l-1.91,0-1.9,0Z"></path></g><polygon points="630.15 244.83 399.95 244.83 486.97 53.34 630.15 244.83" style="fill:#4F46E5"></polygon><polygon points="630.15 244.83 399.95 244.83 486.97 53.34 630.15 244.83" style="opacity:0.1"></polygon><polygon points="486.97 53.34 343.69 244.83 399.95 244.83 486.97 53.34" style="fill:#4F46E5"></polygon><polygon points="486.97 53.34 343.69 244.83 399.95 244.83 486.97 53.34" style="opacity:0.2"></polygon><g style="opacity:0.2"><path d="M552,230.72l3.81-.08,1.87,0,1.87,0-.13.13v-3.19l.14.14-3.78,0c-1.25,0-2.51,0-3.77,0l.08-.08c0,.52,0,1.05,0,1.58Zm0,0,0-1.58c0-.53,0-1.07,0-1.61v-.08H552c1.26,0,2.52,0,3.77,0l3.78,0h.14v3.46h-.13c-.64,0-1.27,0-1.91,0l-1.9,0Z"></path><path d="M570.05,214.7l3.81-.08,1.88,0c.62,0,1.24,0,1.87,0l-.13.13,0-3.19.15.14-3.78,0c-1.26,0-2.52,0-3.78,0l.08-.07c0,.52,0,1,0,1.58Zm0,0,0-1.58c0-.53,0-1.07,0-1.61v-.08h.08c1.26,0,2.52-.05,3.78-.05l3.78,0h.14v.15l0,3.19v.13h-2l-1.9,0Z"></path><path d="M556.25,234.75l3.81-.08,1.88,0h1.86l-.12.13,0-3.2.14.15-3.77,0c-1.26,0-2.52,0-3.78-.05l.08-.08c0,.53,0,1,0,1.58Zm0,0,0-1.58c0-.54,0-1.07,0-1.62v-.07h.08c1.26,0,2.52,0,3.78,0l3.77,0H564v.14l0,3.2v.12h-2l-1.9,0Z"></path><path d="M547.83,234.75l3.8-.08,1.88,0h1.87l-.13.13v-3.2l.14.15-3.78,0c-1.26,0-2.52,0-3.77-.05l.07-.08c0,.53,0,1,0,1.58Zm0,0-.05-1.58c0-.54,0-1.07,0-1.62v-.07h.08c1.25,0,2.51,0,3.77,0l3.78,0h.14v.14l0,3.2v.12h-2l-1.9,0Z"></path><path d="M435.85,203.92l3.81-.08,1.87,0c.63,0,1.25,0,1.87,0l-.13.13v-3.19l.14.14-3.78,0c-1.25,0-2.51,0-3.77,0l.08-.08c0,.52,0,1.05,0,1.58Zm0,0,0-1.58c0-.53,0-1.07,0-1.61v-.08h.08c1.26,0,2.52-.05,3.77-.05h3.92v3.47h-.13l-1.91,0-1.9,0Z"></path><path d="M440.06,207.94l3.81-.08,1.88,0h1.86l-.12.12,0-3.19.14.14h-3.77l-3.78,0,.08-.08c0,.52,0,1.05,0,1.58Zm0,0,0-1.58c0-.53,0-1.07,0-1.61v-.08h.08c1.26,0,2.52,0,3.78,0l3.77,0h.15v.14l0,3.19v.13h-.13c-.63,0-1.27,0-1.91,0l-1.9,0Z"></path><path d="M431.64,207.94l3.8-.08,1.88,0h1.87l-.13.12v-3.19l.14.14h-3.78l-3.77,0,.07-.08c0,.52,0,1.05,0,1.58Zm0,0-.05-1.58c0-.53,0-1.07,0-1.61v-.08h.08c1.25,0,2.51,0,3.77,0l3.78,0h.14v.14l0,3.19v.13h-.12c-.64,0-1.28,0-1.91,0l-1.9,0Z"></path><path d="M456.27,234.75l3.81-.08,1.88,0h1.86l-.12.13,0-3.2.14.15-3.77,0c-1.26,0-2.52,0-3.78-.05l.08-.08c0,.53,0,1,0,1.58Zm0,0,0-1.58c0-.54,0-1.07,0-1.62v-.07h.08c1.26,0,2.52,0,3.78,0l3.77,0H464v.14l0,3.2v.12h-2l-1.9,0Z"></path><path d="M460.49,148.63l3.8-.08,1.88,0H468l-.13.13v-3.2l.14.15-3.78,0c-1.26,0-2.52,0-3.77-.05l.07-.08c0,.53,0,1,0,1.58Zm0,0-.05-1.58c0-.54,0-1.07,0-1.62v-.07h.08c1.25,0,2.51-.05,3.77-.05l3.78,0h.14v.14l0,3.2v.12h-2l-1.9,0Z"></path><path d="M456.27,152.65l3.81-.08,1.88,0,1.86,0-.12.13,0-3.19.14.14-3.77,0c-1.26,0-2.52,0-3.78,0l.08-.08c0,.52,0,1,0,1.58Zm0,0,0-1.58c0-.53,0-1.07,0-1.61v-.08h.08l3.78,0H464v.14l0,3.19v.13h-.13c-.63,0-1.27,0-1.9,0l-1.9,0Z"></path><path d="M526.91,148.63l3.81-.08,1.87,0c.63,0,1.25,0,1.87,0l-.13.13v-3.19l.14.14-3.77,0c-1.26,0-2.52,0-3.78,0l.08-.08c0,.52,0,1.05,0,1.58Zm0,0,0-1.58c0-.53,0-1.07,0-1.61v-.08h.08c1.26,0,2.52-.05,3.78-.05h3.91v3.46h-.13l-1.91,0-1.9,0Z"></path><path d="M507,183.41l-3.81.08-1.88,0c-.62,0-1.24,0-1.87,0l.13-.13,0,3.19-.15-.14,3.78,0c1.26,0,2.52,0,3.78,0l-.08.08c0-.52,0-1,0-1.58Zm0,0,0,1.58c0,.53,0,1.07,0,1.61v.08H507c-1.26,0-2.52,0-3.78,0h-3.92v-.15l0-3.19v-.13h.12l1.91,0,1.9,0Z"></path><path d="M502.76,179.39l-3.81.08-1.87,0h-1.87l.13-.12v3.19l-.14-.14H499c1.26,0,2.51,0,3.77.05l-.08.08c0-.52,0-1.05,0-1.58Zm0,0,0,1.58c0,.53,0,1.07,0,1.61v.07h-.08c-1.26,0-2.51,0-3.77,0l-3.78,0h-.14v-3.46h.13c.64,0,1.28,0,1.91,0l1.9,0Z"></path><path d="M492.32,87.93l-3.81.08-1.88,0h-1.86l.12-.12,0,3.19-.14-.14h3.77c1.26,0,2.52,0,3.78.05l-.08.08c0-.52,0-1.05,0-1.58Zm0,0,0,1.58c0,.53,0,1.07,0,1.61v.07h-.08c-1.26,0-2.52,0-3.78,0l-3.77,0h-.15v-.14l0-3.19V87.8h.13c.63,0,1.27,0,1.91,0l1.9,0Z"></path><path d="M488.11,83.9,484.3,84l-1.88,0c-.62,0-1.24,0-1.87,0l.13-.13,0,3.19-.15-.14,3.78,0c1.26,0,2.52,0,3.78,0l-.08.07c0-.52,0-1,0-1.58Zm0,0,0,1.58c0,.53,0,1.07,0,1.61v.08h-.07c-1.26,0-2.52,0-3.78,0l-3.78,0h-.14v-.15l0-3.19v-.13h2l1.9,0Z"></path></g><path d="M578,175.13c4.51,5.68,8.93,11.43,13.33,17.19l13.13,17.36,12.93,17.49,6.41,8.8,6.32,8.86-6.71-8.57-6.63-8.62-13.12-17.36-12.94-17.5C586.47,186.93,582.21,181.06,578,175.13Z" style="opacity:0.2"></path><polygon points="447.76 244.83 294.37 244.83 352.35 117.24 447.76 244.83" style="fill:#4F46E5"></polygon><polygon points="447.76 244.83 294.37 244.83 352.35 117.24 447.76 244.83" style="opacity:0.1"></polygon><polygon points="352.35 117.24 256.88 244.83 294.37 244.83 352.35 117.24" style="fill:#4F46E5"></polygon><polygon points="352.35 117.24 256.88 244.83 294.37 244.83 352.35 117.24" style="opacity:0.2"></polygon><g style="opacity:0.2"><path d="M419.14,233.89l-3.81.08-1.88,0c-.62,0-1.24,0-1.87,0l.13-.13,0,3.19-.15-.14,3.78,0c1.26,0,2.52,0,3.78,0l-.08.07c0-.52,0-1,0-1.58Zm0,0,0,1.58c0,.53,0,1.07,0,1.61v.08h-.07c-1.26,0-2.52.05-3.78.05l-3.78,0h-.14v-.15l0-3.19v-.13h.12l1.91,0,1.9,0Z"></path><path d="M414.92,229.87l-3.81.08-1.87,0h-1.87l.13-.12v3.19l-.14-.14h3.78l3.77,0-.08.08c0-.52,0-1.05,0-1.58Zm0,0,0,1.58c0,.53,0,1.07,0,1.61v.08h-.08c-1.26,0-2.52,0-3.77,0l-3.78,0h-.14v-3.46h.13c.64,0,1.27,0,1.91,0l1.9,0Z"></path><path d="M423.35,229.87l-3.81.08-1.88,0H415.8l.12-.12,0,3.19-.14-.14h3.77l3.78,0-.08.08c0-.52,0-1.05,0-1.58Zm0,0,0,1.58c0,.53,0,1.07,0,1.61v.08h-.08c-1.26,0-2.52,0-3.78,0l-3.77,0h-.15v-.14l0-3.19v-.13h.13c.63,0,1.27,0,1.91,0l1.9,0Z"></path><path d="M376.05,231.88l-3.81.08-1.87,0-1.87,0,.13-.13v3.19l-.14-.14,3.78,0c1.26,0,2.52,0,3.77,0l-.07.08c0-.52,0-1,0-1.58Zm0,0,0,1.58c0,.53,0,1.07,0,1.61v.08h-.08l-3.77,0h-3.92v-3.46h.13c.64,0,1.28,0,1.91,0l1.9,0Z"></path><path d="M395.28,187.58l-3.81.08-1.87,0-1.87,0,.13-.13v3.19l-.14-.14,3.77,0c1.26,0,2.52,0,3.78,0l-.08.08c0-.52,0-1.05,0-1.58Zm0,0,0,1.58c0,.53,0,1.07,0,1.61v.08h-.08c-1.26,0-2.52,0-3.78,0l-3.77,0h-.14v-3.46h.13c.63,0,1.27,0,1.91,0l1.9,0Z"></path><path d="M399.49,183.55l-3.81.08-1.87,0h-1.87l.13-.13v3.2l-.14-.15,3.78,0c1.26,0,2.52,0,3.77,0l-.07.08c0-.53,0-1.05,0-1.58Zm0,0,0,1.58c0,.54,0,1.07,0,1.62v.07h-.08c-1.25,0-2.51.05-3.77.05l-3.78,0h-.14v-3.46h2l1.9,0Z"></path><path d="M334.89,197.3l-3.8.08-1.88,0h-1.87l.13-.12v3.19l-.14-.14h3.78l3.77,0-.07.08c0-.52,0-1.05,0-1.58Zm0,0,0,1.58c0,.53,0,1.07,0,1.61v.08h-.08c-1.25,0-2.51,0-3.77,0l-3.78,0h-.14v-3.46h.12c.64,0,1.28,0,1.91,0l1.9,0Z"></path><path d="M348.79,152.79l3.81-.08,1.88,0h1.86l-.12.12,0-3.19.14.14h-3.77c-1.26,0-2.52,0-3.78,0l.08-.08c0,.52,0,1.05,0,1.58Zm0,0,0-1.58c0-.53,0-1.07,0-1.61v-.07h.08c1.26,0,2.52,0,3.78,0l3.77,0h.15v.14l0,3.19v.13h-.13c-.63,0-1.27,0-1.91,0l-1.9,0Z"></path><path d="M353,156.82l3.81-.08,1.88,0c.62,0,1.24,0,1.87,0l-.13.13,0-3.19.15.14-3.78,0c-1.26,0-2.52,0-3.78-.05l.08-.07c0,.52,0,1,0,1.58Zm0,0,0-1.58c0-.53,0-1.07,0-1.61v-.08H353c1.26,0,2.52-.05,3.78-.05l3.78,0h.14v.15l0,3.19V157h-2l-1.9,0Z"></path><path d="M308.14,236.48l3.81-.08,1.88,0c.62,0,1.24,0,1.86,0l-.12.13,0-3.19.14.14-3.77,0c-1.26,0-2.52,0-3.78,0l.08-.07c0,.52,0,1,0,1.57Zm0,0,0-1.58c0-.53,0-1.07,0-1.61v-.08h.08c1.26,0,2.52-.05,3.78-.05l3.77,0h.15v.15l0,3.19v.13h-2l-1.9,0Z"></path><path d="M312.35,240.5l3.81-.08,1.88,0,1.87,0-.13.13,0-3.19.15.14-3.78,0c-1.26,0-2.52,0-3.78,0l.08-.08c0,.52,0,1.05,0,1.58Zm0,0,0-1.58c0-.53,0-1.07,0-1.61v-.08h.07c1.26,0,2.52,0,3.78,0l3.78,0h.14v.14l0,3.19v.13h-.12c-.64,0-1.28,0-1.91,0l-1.9,0Z"></path></g><path d="M418.07,205.35c2.64,3.17,5.19,6.4,7.73,9.64s5,6.54,7.51,9.8,4.92,6.6,7.33,9.94l3.6,5c1.17,1.69,2.37,3.37,3.52,5.08-1.33-1.58-2.61-3.19-3.91-4.79L440,235.19c-2.54-3.24-5-6.53-7.52-9.8s-4.92-6.6-7.32-9.94S420.38,208.77,418.07,205.35Z" style="opacity:0.2"></path><polygon points="273.06 260.38 195.32 260.38 196.26 247.39 271.03 247.39 273.06 260.38" style="fill:#4F46E5"></polygon><polygon points="273.06 260.38 195.32 260.38 196.26 247.39 271.03 247.39 273.06 260.38" style="opacity:0.2"></polygon><polygon points="195.32 260.38 188.09 260.38 192.65 248.58 196.26 247.39 195.32 260.38" style="fill:#4F46E5"></polygon><polygon points="266.62 247.39 200.67 247.39 203.79 234.4 262.4 234.4 266.62 247.39" style="fill:#4F46E5"></polygon><polygon points="266.62 247.39 200.67 247.39 203.79 234.4 262.4 234.4 266.62 247.39" style="opacity:0.2"></polygon><polygon points="266.62 247.39 200.67 247.39 201.34 243.12 265.69 244.54 266.62 247.39" style="opacity:0.1"></polygon><polygon points="200.67 247.39 196.26 247.39 200.64 236.22 203.79 234.4 200.67 247.39" style="fill:#4F46E5"></polygon><polygon points="258.53 234.4 209.48 234.4 211.88 221.41 253.22 221.41 258.53 234.4" style="fill:#4F46E5"></polygon><polygon points="258.53 234.4 209.48 234.4 211.88 221.41 253.22 221.41 258.53 234.4" style="opacity:0.2"></polygon><polygon points="258.53 234.4 209.49 234.4 210.1 231.07 256.7 229.91 258.53 234.4" style="opacity:0.1"></polygon><polygon points="209.49 234.4 203.79 234.4 207.82 223.78 211.88 221.41 209.49 234.4" style="fill:#4F46E5"></polygon><polygon points="249.04 221.41 217.99 221.41 220.33 213.45 246.66 213.45 249.04 221.41" style="fill:#4F46E5"></polygon><polygon points="249.04 221.41 217.99 221.41 220.33 213.45 246.66 213.45 249.04 221.41" style="opacity:0.2"></polygon><polygon points="249.04 221.41 218 221.41 218.66 219.14 248.55 219.77 249.04 221.41" style="opacity:0.1"></polygon><polygon points="218 221.41 214.43 221.41 217.52 215.08 220.33 213.45 218 221.41" style="fill:#4F46E5"></polygon><g style="opacity:0.2"><path d="M206,253.79l-1.75,0h-1.71l.06-.06v1.47l-.06-.07h1.73l1.73,0,0,0c0-.24,0-.48,0-.73Zm0,0,0,.73c0,.24,0,.49,0,.74v0h0l-1.73,0h-1.8v-1.58h.93l.87,0Z"></path><path d="M204.1,252l-1.75,0h-1.71l.05-.06v1.46l-.06-.06h1.73l1.73,0,0,0c0-.24,0-.48,0-.72Zm0,0,0,.72c0,.25,0,.49,0,.74v0h0l-1.73,0h-1.8v-1.59h1.8Z"></path><path d="M208,252l-1.74,0H204.5l.06-.06v1.46l-.06-.06h1.73l1.73,0,0,0c0-.24,0-.48,0-.72Zm0,0,0,.72c0,.25,0,.49,0,.74v0h0l-1.73,0h-1.8v-1.59h1.81Z"></path><path d="M253.93,251.21l-1.74,0h-1.72l.06-.06v1.47l-.07-.07h1.73l1.73,0,0,0c0-.24,0-.48,0-.73Zm0,0,0,.73c0,.24,0,.49,0,.74v0h0l-1.73,0h-1.79v-1.59h.94l.87,0Z"></path><path d="M237.19,241.08l-1.75,0-.86,0h-.86l.06-.06v1.46l-.07-.06h1.73l1.74,0,0,0c0-.24,0-.48,0-.72Zm0,0v.72c0,.25,0,.49,0,.74v0h0l-1.74,0h-1.79V241h1.81Z"></path><path d="M256.34,239.48l-1.74,0h-1.72l.06-.06V241l-.07-.07h1.73l1.73,0,0,0c0-.24,0-.49,0-.73Zm0,0,0,.73c0,.24,0,.49,0,.74v0h0l-1.73,0h-1.8v-1.59h.94l.87,0Z"></path><path d="M258.27,237.64l-1.74,0-.86,0h-.86l.06-.05v1.46l-.07-.07h1.73l1.73,0,0,0c0-.24,0-.48,0-.72Zm0,0,0,.72c0,.24,0,.49,0,.74v0h0l-1.73,0h-1.79v-1.59h1.81Z"></path><path d="M209.71,237.37l-1.74,0h-1.72l.06-.06v1.47l-.07-.07H208l1.73,0,0,0c0-.24,0-.48,0-.73Zm0,0,0,.73c0,.24,0,.49,0,.74v0h0l-1.73,0h-1.79v-1.59h.94l.87,0Z"></path><path d="M247.53,223l-1.75,0-.86,0h-.85l.06-.06v1.46l-.06-.06h1.73c.58,0,1.15,0,1.73,0l0,0c0-.24,0-.48,0-.72Zm0,0,0,.72c0,.25,0,.49,0,.74v0h0l-1.73,0H244v-1.59h1.8Z"></path><path d="M220.74,218.17l1.75,0,.86,0h.86l-.06.06V216.7l.07.07h-1.74l-1.73,0,0,0c0,.24,0,.48,0,.73Zm0,0,0-.73c0-.24,0-.49,0-.74v0h0l1.73,0h1.8v1.58h-.93l-.87,0Z"></path><path d="M222.67,220l1.75,0h1.72l-.06.06v-1.46l.07.06h-1.73l-1.74,0,0,0c0,.24,0,.48,0,.72Zm0,0v-.72c0-.25,0-.49,0-.74v0h0l1.74,0h1.79v1.59h-1.81Z"></path></g><polygon points="366.77 260.38 289.04 260.38 289.97 247.39 364.75 247.39 366.77 260.38" style="fill:#4F46E5"></polygon><polygon points="366.77 260.38 289.04 260.38 289.97 247.39 364.75 247.39 366.77 260.38" style="opacity:0.2"></polygon><polygon points="289.04 260.38 281.81 260.38 286.36 248.58 289.97 247.39 289.04 260.38" style="fill:#4F46E5"></polygon><polygon points="360.33 247.39 294.38 247.39 297.51 234.4 356.11 234.4 360.33 247.39" style="fill:#4F46E5"></polygon><polygon points="360.33 247.39 294.38 247.39 297.51 234.4 356.11 234.4 360.33 247.39" style="opacity:0.2"></polygon><polygon points="360.33 247.39 294.39 247.39 295.05 243.12 359.4 244.54 360.33 247.39" style="opacity:0.1"></polygon><polygon points="294.39 247.39 289.97 247.39 294.35 236.22 297.51 234.4 294.39 247.39" style="fill:#4F46E5"></polygon><polygon points="352.25 234.4 303.2 234.4 305.59 221.41 346.93 221.41 352.25 234.4" style="fill:#4F46E5"></polygon><polygon points="352.25 234.4 303.2 234.4 305.59 221.41 346.93 221.41 352.25 234.4" style="opacity:0.2"></polygon><polygon points="352.25 234.4 303.2 234.4 303.81 231.07 350.41 229.91 352.25 234.4" style="opacity:0.1"></polygon><polygon points="303.2 234.4 297.51 234.4 301.54 223.78 305.59 221.41 303.2 234.4" style="fill:#4F46E5"></polygon><polygon points="342.75 221.41 311.71 221.41 314.05 213.45 340.37 213.45 342.75 221.41" style="fill:#4F46E5"></polygon><polygon points="342.75 221.41 311.71 221.41 314.05 213.45 340.37 213.45 342.75 221.41" style="opacity:0.2"></polygon><polygon points="342.75 221.41 311.71 221.41 312.38 219.14 342.26 219.77 342.75 221.41" style="opacity:0.1"></polygon><polygon points="311.71 221.41 308.14 221.41 311.23 215.08 314.05 213.45 311.71 221.41" style="fill:#4F46E5"></polygon><g style="opacity:0.2"><path d="M308.9,224.45l1.75,0h1.72l-.06.06V223l.07.07h-1.74l-1.73,0,0,0c0,.24,0,.48,0,.73Zm0,0,0-.73c0-.24,0-.49,0-.74v0h0l1.73,0h1.8v1.59h-.93l-.87,0Z"></path><path d="M310.83,226.29l1.75,0,.86,0h.86l-.06.06v-1.46l.07.06h-1.73l-1.74,0,0,0c0,.24,0,.48,0,.72Zm0,0v-.72c0-.25,0-.49,0-.74v0h0l1.74,0h1.79v1.59h-1.8Z"></path><path d="M307,226.29l1.75,0,.86,0h.85l-.05.06v-1.46l.06.06H308.7l-1.73,0,0,0c0,.24,0,.48,0,.72Zm0,0,0-.72c0-.25,0-.49,0-.74v0h0l1.73,0h1.8v1.59h-1.8Z"></path><path d="M331.16,218.17l1.75,0,.86,0h.86l-.06.06V216.7l.07.07H332.9l-1.74,0,0,0c0,.24,0,.48,0,.73Zm0,0v-.73c0-.24,0-.49,0-.74v0h0l1.74,0h1.79v1.58h-.94l-.87,0Z"></path><path d="M320.27,240l1.75,0h1.71l-.06.06v-1.46l.06.06H322l-1.73,0,0,0c0,.23,0,.48,0,.72Zm0,0,0-.73c0-.24,0-.49,0-.73v0h0l1.73,0h1.8V240H322Z"></path><path d="M318.34,241.81l1.74,0,.87,0h.85l-.06.05v-1.46l.06.07h-1.73l-1.73,0,0,0c0,.24,0,.48,0,.72Zm0,0,0-.72c0-.24,0-.49,0-.74v0h0l1.73,0h1.8v1.59h-1.81Z"></path><path d="M344,228.64l1.75,0,.86,0h.86l-.06.06v-1.46l.07.06h-1.74l-1.73,0,0,0c0,.24,0,.48,0,.72Zm0,0,0-.72c0-.25,0-.49,0-.74v0h0l1.73,0h1.8v1.59h-1.8Z"></path><path d="M295.48,255.42l1.75,0H299l-.06.06V254l.07.07h-1.74l-1.73,0,0,0c0,.24,0,.49,0,.73Zm0,0,0-.73c0-.24,0-.49,0-.74v0h0l1.73,0H299v1.59h-.93l-.87,0Z"></path><path d="M347.4,254.81l-1.75,0-.86,0h-.85l.06-.05v1.46l-.06-.07h1.73l1.73,0,0,0c0-.24,0-.48,0-.72Zm0,0,0,.72c0,.24,0,.49,0,.74v0h0l-1.73,0h-1.8v-1.59h1.8Z"></path><path d="M345.47,253l-1.75,0H342l.05-.06v1.46l-.06-.06h1.73l1.73,0,0,0c0-.24,0-.48,0-.72Zm0,0,0,.73c0,.24,0,.49,0,.73v0h0l-1.73,0h-1.8V252.9h1.8Z"></path></g><polygon points="460.49 260.38 382.75 260.38 383.68 247.39 458.46 247.39 460.49 260.38" style="fill:#4F46E5"></polygon><polygon points="460.49 260.38 382.75 260.38 383.68 247.39 458.46 247.39 460.49 260.38" style="opacity:0.2"></polygon><polygon points="382.75 260.38 375.52 260.38 380.07 248.58 383.68 247.39 382.75 260.38" style="fill:#4F46E5"></polygon><polygon points="454.04 247.39 388.1 247.39 391.22 234.4 449.82 234.4 454.04 247.39" style="fill:#4F46E5"></polygon><polygon points="454.04 247.39 388.1 247.39 391.22 234.4 449.82 234.4 454.04 247.39" style="opacity:0.2"></polygon><polygon points="454.04 247.39 388.1 247.39 388.76 243.12 453.12 244.54 454.04 247.39" style="opacity:0.1"></polygon><polygon points="388.1 247.39 383.68 247.39 388.06 236.22 391.22 234.4 388.1 247.39" style="fill:#4F46E5"></polygon><polygon points="445.96 234.4 396.91 234.4 399.3 221.41 440.64 221.41 445.96 234.4" style="fill:#4F46E5"></polygon><polygon points="445.96 234.4 396.91 234.4 399.3 221.41 440.64 221.41 445.96 234.4" style="opacity:0.2"></polygon><polygon points="445.96 234.4 396.91 234.4 397.53 231.07 444.12 229.91 445.96 234.4" style="opacity:0.1"></polygon><polygon points="396.91 234.4 391.22 234.4 395.25 223.78 399.3 221.41 396.91 234.4" style="fill:#4F46E5"></polygon><polygon points="436.46 221.41 405.42 221.41 407.76 213.45 434.08 213.45 436.46 221.41" style="fill:#4F46E5"></polygon><polygon points="436.46 221.41 405.42 221.41 407.76 213.45 434.08 213.45 436.46 221.41" style="opacity:0.2"></polygon><polygon points="436.46 221.41 405.42 221.41 406.09 219.14 435.97 219.77 436.46 221.41" style="opacity:0.1"></polygon><polygon points="405.42 221.41 401.86 221.41 404.94 215.08 407.76 213.45 405.42 221.41" style="fill:#4F46E5"></polygon><g style="opacity:0.2"><path d="M437.19,225.8l-1.75,0h-1.71l.06-.06v1.46l-.06-.06h1.73l1.73,0,0,0c0-.24,0-.48,0-.72Zm0,0,0,.72c0,.25,0,.5,0,.74v0h0l-1.73,0h-1.8v-1.59h1.8Z"></path><path d="M435.26,224l-1.75,0-.86,0h-.85l.05,0v1.46l-.06-.07h1.73l1.73,0,0,0c0-.24,0-.48,0-.72Zm0,0,0,.72c0,.24,0,.49,0,.74v0h0l-1.73,0h-1.8V223.9h.93l.87,0Z"></path><path d="M439.12,224l-1.75,0-.86,0h-.85l.06,0v1.46l-.06-.07h1.73l1.73,0,0,0c0-.24,0-.48,0-.72Zm0,0,0,.72c0,.24,0,.49,0,.74v0h0c-.58,0-1.15,0-1.73,0h-1.8V223.9h.93l.88,0Z"></path><path d="M397.13,252.67l-1.74,0h-1.72l.06-.06v1.46l-.07-.06h1.73l1.73,0,0,0c0-.24,0-.48,0-.72Zm0,0,0,.72c0,.25,0,.5,0,.74v0h0l-1.73,0h-1.8v-1.59h1.81Z"></path><path d="M429.83,254.52l-1.75,0-.86,0h-.86l.06,0V256l-.07-.07h1.74l1.73,0,0,0c0-.24,0-.48,0-.73Zm0,0,0,.72c0,.24,0,.49,0,.74v0h0l-1.73,0h-1.8v-1.58h.93l.87,0Z"></path><path d="M431.76,252.67l-1.75,0H428.3l.05-.06v1.46l-.06-.06H430l1.73,0,0,0c0-.24,0-.48,0-.72Zm0,0,0,.72c0,.25,0,.5,0,.74v0h0l-1.73,0h-1.8v-1.59H430Z"></path><path d="M422.13,215.9l-1.75,0h-1.71l.06-.06v1.47l-.06-.07h1.73l1.73,0,0,0c0-.24,0-.48,0-.73Zm0,0,0,.73c0,.24,0,.49,0,.74v0h0l-1.73,0h-1.8v-1.59h.93l.88,0Z"></path><path d="M445.56,238.14l-1.75,0H442.1l0-.06v1.47l-.06-.07h1.73l1.73,0,0,0c0-.24,0-.48,0-.73Zm0,0,0,.73c0,.24,0,.49,0,.74v0h0l-1.73,0H442v-1.59H443l.87,0Z"></path><path d="M411.37,225.86l-1.74,0h-1.72l.06-.06v1.46l-.06-.06h1.73l1.73,0,0,0c0-.24,0-.48,0-.72Zm0,0,0,.72c0,.25,0,.49,0,.74v0h0l-1.73,0h-1.8V225.8h1.81Z"></path><path d="M393.64,238.76l1.75,0,.86,0h.85l-.05.06v-1.47l.06.07h-1.73l-1.73,0,0,0c0,.24,0,.48,0,.73Zm0,0,0-.73c0-.24,0-.49,0-.74v0h0l1.73,0h1.8v1.58h-.93l-.87,0Z"></path><path d="M395.57,240.6l1.75,0H399l-.06.06v-1.46l.07.06H397.3l-1.73,0,0,0c0,.24,0,.48,0,.72Zm0,0,0-.72c0-.25,0-.49,0-.74v0h0l1.73,0h1.8v1.59h-1.8Z"></path></g></g><g id="freepik--character-2--inject-79"><path d="M350.64,404.67s50.92,5.62,60.36,6.63,8.33,10.34.5,11.34-66.09-.9-66.09-.9Z" style="fill:#4F46E5"></path><path d="M350.64,404.67s50.92,5.62,60.36,6.63,8.33,10.34.5,11.34-66.09-.9-66.09-.9Z" style="opacity:0.6000000000000001"></path><path d="M222.67,282.64c-11.44,0-32.35-8.79-49.8-3.21-14.46,4.62-36.56,35.35-47.41,54.23s-20.21,51-17.4,65.48,15.4,23.5,35.48,23.5,41,2.9,44.19-6.74c0,0,41.78,3.33,62.67-2.29,0,0,4.42,8.83,13.66,11.65s57.05,1.6,72.72,2.41,50.92,1.2,55.74-2,3.81-8.34-1.81-10-42.28-4.92-42.28-4.92,21.69-2.41,30.13-10.84,21.18-78.24,22.08-80.95,25.31-17.78,26.82-19,16-3,18.37-3.32,8.44,2.11,11.45,1.21,7.34-11.55,8.24-14.17S450,265.87,447,265.87s-18,2.71-19.38,2-18.28-12.06-23-11.85-28.22,12.8-30.84,15.81-23.59,87.73-30,91.55-21.09,3.41-24.91-4-30.13-68.29-42.58-76.13S240.05,282.64,222.67,282.64Z" style="fill:#4F46E5"></path><path d="M222.67,282.64c-11.44,0-32.35-8.79-49.8-3.21-14.46,4.62-36.56,35.35-47.41,54.23s-20.21,51-17.4,65.48,15.4,23.5,35.48,23.5,41,2.9,44.19-6.74c0,0,41.78,3.33,62.67-2.29,0,0,4.42,8.83,13.66,11.65s57.05,1.6,72.72,2.41,50.92,1.2,55.74-2,3.81-8.34-1.81-10-42.28-4.92-42.28-4.92,21.69-2.41,30.13-10.84,21.18-78.24,22.08-80.95,25.31-17.78,26.82-19,16-3,18.37-3.32,8.44,2.11,11.45,1.21,7.34-11.55,8.24-14.17S450,265.87,447,265.87s-18,2.71-19.38,2-18.28-12.06-23-11.85-28.22,12.8-30.84,15.81-23.59,87.73-30,91.55-21.09,3.41-24.91-4-30.13-68.29-42.58-76.13S240.05,282.64,222.67,282.64Z" style="opacity:0.4"></path><path d="M385.29,271.69s-7.39-6.93-14.32-7.53-15.21,1.21-14.76,2,8.31,8.73,11.9,10.09,12.2,1.06,12.2,1.06Z" style="fill:#4F46E5"></path><path d="M385.29,271.69s-7.39-6.93-14.32-7.53-15.21,1.21-14.76,2,8.31,8.73,11.9,10.09,12.2,1.06,12.2,1.06Z" style="opacity:0.4"></path><path d="M383.44,273.76s-7.74-5.94-11.08-6.23-7.33.58-7.11,1,4,4.2,5.73,4.86,10.12,3.05,10.12,3.05Z" style="opacity:0.2"></path><path d="M451.87,274.5s-8.58-.45-7.23-3.37C446.54,267,451.87,274.5,451.87,274.5Z" style="opacity:0.4"></path><g style="opacity:0.4"><path d="M416.33,278.87l-16.74,4.24s3.66-4.48,7.78-5.16S416.33,278.87,416.33,278.87Z"></path><path d="M404,281.38a4.68,4.68,0,0,0,4.36,1.8c2.67-.52,2.93-3.67,2.93-3.67Z"></path></g><g style="opacity:0.4"><path d="M190.07,391.59a43.5,43.5,0,0,0-10.35-20.95,39.56,39.56,0,0,0-4.75-4.4,32.1,32.1,0,0,0-5.32-3.64c-.13-.07-.28.11-.16.21,1.48,1.14,3,2.22,4.36,3.47a43.54,43.54,0,0,1,3.92,4,54.6,54.6,0,0,1,6.48,9.14,45.68,45.68,0,0,1,5.47,23.41,46.29,46.29,0,0,1-.83,7.05c-.47,2.37-1.2,4.64-1.84,7a.08.08,0,0,0,.15.05,28.6,28.6,0,0,0,2.14-6,45.16,45.16,0,0,0,1.15-6.33A45.62,45.62,0,0,0,190.07,391.59Z"></path><path d="M258.77,362C256.28,368.57,254,375.25,252,382c-2,6.59-4.11,13.45-4.09,20.39a29.65,29.65,0,0,0,2.23,11.24.08.08,0,0,0,.16,0A37,37,0,0,1,249,403.34a56.09,56.09,0,0,1,1.32-10.15c1.41-6.75,3.28-13.43,5.19-20.05q1.62-5.61,3.48-11.13C259,361.87,258.82,361.82,258.77,362Z"></path><path d="M349.8,410.74c-4.87-.59-9.8-.79-14.7-1-2.49-.11-13-.5-13.94-.4,0,0,0,0,0,0-.23-.58-3.46-5.77-4.18-6.91a17.43,17.43,0,0,0-5.81-5.55,52.47,52.47,0,0,0-7.77-3.66q-4.47-1.83-9-3.41c-1.73-.59-3.46-1.17-5.22-1.7s-3.53-1-5.28-1.48a.08.08,0,1,0,0,.15c3,.94,6,2.13,9,3.24s6.09,2.37,9.1,3.65c5,2.14,10.61,4.34,13.76,9.08.83,1.23,4.47,7,4.54,7.07.61.27,12.31.69,14.76.79,4.92.21,9.88.43,14.8.25C349.85,410.85,349.87,410.75,349.8,410.74Z"></path><path d="M380.48,361.8a14,14,0,0,0-.31-3,.08.08,0,0,0-.15,0c-.14,1-.13,2-.2,3,0,.52-.07,1-.1,1.54s0,1,0,1.53a.31.31,0,0,0,.6.06,10.84,10.84,0,0,0,.19-1.49C380.51,362.86,380.5,362.33,380.48,361.8Z"></path><path d="M377.82,364.56a.07.07,0,0,0-.15,0,13.65,13.65,0,0,1-.51,3.11,19.72,19.72,0,0,1-1,3c-.15.37.38.68.56.3a11.35,11.35,0,0,0,1-3.12A16.14,16.14,0,0,0,377.82,364.56Z"></path><path d="M120.29,377.19a22.74,22.74,0,0,0-1.69,3.15,8.63,8.63,0,0,0-.45,1.71,7,7,0,0,0,.09,1.83.18.18,0,0,0,.35,0c.12-.57.33-1.12.44-1.7s.2-1.09.31-1.63a10.21,10.21,0,0,1,1.09-3.32C120.48,377.17,120.34,377.1,120.29,377.19Z"></path><path d="M121.38,385.89v-.62c0-.26,0-.54,0-.8a.08.08,0,0,0-.15,0c0,.23-.13.46-.18.7s-.11.46-.16.7a11.27,11.27,0,0,0-.17,1.3,12.18,12.18,0,0,0,0,1.35,6.68,6.68,0,0,0,.26,1.39c.06.21.33.13.35-.06,0-.45.09-.89.09-1.35s0-.86,0-1.29S121.39,386.32,121.38,385.89Z"></path><path d="M166.77,367.12a7.28,7.28,0,0,0-2.32-2.67,7.63,7.63,0,0,0-1.54-.83,3,3,0,0,0-1.6-.4.08.08,0,0,0,0,.13,3,3,0,0,0,.7.34,7.65,7.65,0,0,1,.71.32,7.85,7.85,0,0,1,1.38.95,9.67,9.67,0,0,1,2.12,2.52C166.41,367.87,167,367.51,166.77,367.12Z"></path><path d="M267.26,417.79c-.76-.4-1.5-.84-2.24-1.28a5.69,5.69,0,0,1-1-.71c-.16-.15-.3-.31-.45-.46l-.21-.22c-.05,0-.09-.1-.14-.15a.54.54,0,0,0-.12-.09.08.08,0,0,0-.13.07c0,.05,0,.09,0,.13l.07.16c0,.1.08.21.12.3a4.12,4.12,0,0,0,.37.61,11.57,11.57,0,0,0,.89,1.1,4.2,4.2,0,0,0,2.65,1.2C267.45,418.48,267.55,417.94,267.26,417.79Z"></path><path d="M309.46,406.58c-.18-.15-.37-.27-.56-.4l-.57-.39a4.85,4.85,0,0,0-.61-.29c-.11,0-.21-.09-.32-.12a.32.32,0,0,0-.14,0,.33.33,0,0,1-.17,0c-.08,0-.14.1-.06.14l.13.06c0,.17.25.24.39.34l.52.36a5.63,5.63,0,0,1,.92.84,11.26,11.26,0,0,1,1.53,2c.15.26.59.07.48-.21A5.18,5.18,0,0,0,309.46,406.58Z"></path><path d="M316.09,411.17a6.63,6.63,0,0,0-1.61-2.11,5.43,5.43,0,0,0-1.07-.78c-.19-.1-.37-.21-.56-.3s-.42-.18-.64-.27-.17.09-.08.14.35.24.53.36a4.91,4.91,0,0,1,.51.39c.31.28.63.57.92.87a11.8,11.8,0,0,1,1.47,2,.31.31,0,1,0,.53-.33Z"></path><path d="M370,299.44a7.12,7.12,0,0,0-.68,1.2c-.23.43-.45.86-.71,1.25s-.53.78-.77,1.18-.47.84-.77,1.23.2.89.56.53.72-.68,1-1.05a5.8,5.8,0,0,0,.82-1.35c.2-.46.41-.93.57-1.41a4,4,0,0,0,.26-1.44C370.33,299.43,370.13,299.29,370,299.44Z"></path><path d="M370.58,305.6a.07.07,0,0,0-.07,0c-.19,0-.28.16-.37.31s-.27.47-.41.71a7,7,0,0,0-.57,1.48,5.2,5.2,0,0,0-.06,3.17c.1.27.56.32.62,0,.15-1,.14-2,.27-2.95.07-.48.21-.93.32-1.4a4.87,4.87,0,0,1,.22-.77C370.6,305.92,370.68,305.77,370.58,305.6Z"></path><path d="M294.22,320.91a12.47,12.47,0,0,0-4-4.72c-.08-.05-.15.07-.09.13a23.43,23.43,0,0,1,1.9,2.32,13,13,0,0,1,1.38,2.61A.42.42,0,1,0,294.22,320.91Z"></path><path d="M292.83,325.7a7.79,7.79,0,0,0-.56-1.33,10.58,10.58,0,0,0-.72-1.2c-.13-.19-.27-.39-.42-.58a4.81,4.81,0,0,0-.51-.5.08.08,0,0,0-.12.1c.11.19.17.41.29.61s.23.39.33.59a9.89,9.89,0,0,1,.53,1.26c.15.42.28.86.4,1.29s.25.86.38,1.3a.33.33,0,0,0,.64-.1A5.86,5.86,0,0,0,292.83,325.7Z"></path><path d="M286.6,324.72a16.05,16.05,0,0,0-.7-1.73,1,1,0,0,0-.39-.48c-.1,0-.25-.07-.32,0s.13.41.24.25a.19.19,0,0,0,0,.08,4.51,4.51,0,0,0,.09.53c.09.38.18.75.29,1.13a18.29,18.29,0,0,0,.76,2.15.28.28,0,0,0,.54-.16A17,17,0,0,0,286.6,324.72Z"></path><path d="M305.76,352.31c-.43-.85-.83-1.72-1.19-2.6-.17-.44-.37-.86-.54-1.29a8.48,8.48,0,0,1-.4-1.39c0-.1-.16,0-.14.05a20,20,0,0,0,.6,2.87,11.67,11.67,0,0,0,1.27,2.61C305.52,352.81,305.89,352.58,305.76,352.31Z"></path><path d="M446.49,296.67a46.88,46.88,0,0,0-7.49-.47c-2.57,0-5.14.09-7.71.28s-5,.48-7.54.86a44.72,44.72,0,0,1-7.54,1,6.61,6.61,0,0,1-3.72-1.55c-1.17-.82-2.36-1.62-3.57-2.38-.07,0-.16.07-.09.13,1,.82,1.95,1.63,2.95,2.41a11.8,11.8,0,0,0,2.69,1.82,7.12,7.12,0,0,0,3.46.26c1.3-.14,2.59-.35,3.88-.56a118.57,118.57,0,0,1,15.73-1.59c1.47,0,2.94-.07,4.41-.07s3,.09,4.52,0A.08.08,0,0,0,446.49,296.67Z"></path><path d="M419.85,302.2c-2.44.83-5.11,1.84-7.74,1.35a11,11,0,0,1-3.34-1.3,15.81,15.81,0,0,1-3.29-2.33c-.07-.07-.17,0-.11.11a15.66,15.66,0,0,0,3,2.78,8.64,8.64,0,0,0,3.64,1.73c2.85.47,5.52-.87,7.91-2.25C419.94,302.26,419.9,302.18,419.85,302.2Z"></path></g><path d="M166,283.09c.26-.85-10.13-9.59-10.36-11.7s2.79-4.82,4.29-4.37,9.64,10.8,11.3,11.6,17.18-.75,22.3,0,19.05,3.22,24.1,3.62,49.42-3.32,52-3.62,7.83-12.8,11.14-13.71,6.23,0,5.83,2.11-10,13-9,13.26,4.37,3.16,6,5,11,20.71,10.84,22.15-1.2,1.58-2.11,1.05-12.05-20.19-13.93-21.39-4-1-4.82.6-4.14,14.84-4.75,16.95c-1.13,3.92-.9,11.45-2.41,12s-4.66.38-4.85-1.2.94-13.87,1.54-16.58,4.52-14.16,4.52-14.16-48.16,3.61-52,3S166,283.09,166,283.09Z" style="fill:#a6a6a6"></path><path d="M270.19,277.14a10.76,10.76,0,0,0,2,1.07,8.35,8.35,0,0,0,2.05.57,9,9,0,0,0,2.14.05c.36,0,.72-.1,1.1-.13s.73-.16,1.12-.2a7.16,7.16,0,0,1-1,.62,7,7,0,0,1-1.11.41,6,6,0,0,1-2.39.14,5.63,5.63,0,0,1-2.25-.84A4.71,4.71,0,0,1,270.19,277.14Z" style="fill:#263238"></path><path d="M270.58,277.54a9.44,9.44,0,0,0,1.73,1.25,6.2,6.2,0,0,0,1.88.7,6.73,6.73,0,0,0,2,.11c.35,0,.7-.09,1.05-.11s.71-.15,1.09-.19a7.3,7.3,0,0,1-.95.61,6.5,6.5,0,0,1-1.07.39,5.14,5.14,0,0,1-2.31.08A4.64,4.64,0,0,1,270.58,277.54Z" style="fill:#263238"></path><path d="M270.19,277.48a9.68,9.68,0,0,0,3.74,2.37,6.37,6.37,0,0,0,2.14.29,13.27,13.27,0,0,0,2.27-.28,5.11,5.11,0,0,1-2.2,1,4.82,4.82,0,0,1-2.47-.13,5.49,5.49,0,0,1-2.13-1.24A5.18,5.18,0,0,1,270.19,277.48Z" style="fill:#263238"></path><path d="M169.3,281c-2.09.35-23.79,48.69-25,51.71s-6.73,37.66-6.58,38.56,54.83,9.34,63.72,8.74,67.13-8.44,69.08-9.34-9.27-48.06-9.42-51.22,5.57-35.55,8.44-40.83c0,0-43.24,4.52-52,3.62S177.49,279.6,169.3,281Z" style="fill:#455a64"></path><path d="M171.21,278.62c-4,.85-22.29,57-23.5,63.51S142.89,377.9,145,378.5s42.48,6.18,56.79,6.18,62.07-6.18,63.28-7.83-6.93-48.81-7.54-55.44,8-36.31,12.06-42.79c0,0-1.06-.9-11,0s-37.36,2.11-42.33,1.66S192.91,274,171.21,278.62Z" style="fill:#4F46E5"></path><path d="M264.65,369.85c-16.38,2.28-58.74,8.15-64,8.15h0c-3.44,0-40.48-4.67-56.15-6.66,0-.86.09-1.77.15-2.72,21.12,2.68,53,6.66,56,6.67h0c5.07,0,47.47-5.87,63.71-8.14C264.44,368.1,264.56,369,264.65,369.85Z" style="fill:#263238"></path><path d="M262.68,355.63c-17.56,2.45-57,7.89-62.08,7.89h0c-3.34,0-38.59-4.44-54.89-6.51.09-.91.2-1.81.31-2.7,21.1,2.68,51.7,6.48,54.58,6.49h0c4.87,0,44.19-5.42,61.67-7.86C262.41,353.84,262.55,354.74,262.68,355.63Z" style="fill:#263238"></path><path d="M263.86,363.78c-17,2.38-58,8-63.26,8h0c-3.5,0-39.4-4.53-55.72-6.61.15-1.76.32-3.59.51-5.42,23,2.94,52.53,6.58,55.21,6.59h0c4.51,0,41.67-5.06,62.49-8C263.36,360.27,263.62,362.08,263.86,363.78Z" style="fill:#263238"></path><path d="M260.44,341c-17.62,1.48-51.73,4.27-58.06,4.27h-.45c-3.2-.11-35.74-4.19-53.4-6.43.4-1.44.92-3.22,1.55-5.28,19.94,2.52,49.3,6.18,52,6.27,4.18.13,35.11-2.34,57.5-4.21Z" style="fill:#263238"></path><path d="M258.79,311.89c-.44,2.06-.78,3.94-1,5.54-17.88,1.52-48.37,4-55.75,4h0c-2.85,0-28-3.15-46.23-5.48.58-1.73,1.18-3.5,1.79-5.26,20.75,2.66,42.2,5.3,44.45,5.3h0C209.32,316,241.24,313.38,258.79,311.89Z" style="fill:#263238"></path><path d="M259,331.93c-18,1.51-50.3,4.13-56.43,4.13h-.45c-3.05-.1-32.87-3.83-50.93-6.11.51-1.66,1.08-3.43,1.68-5.28,19.8,2.5,46.83,5.88,49.43,6,4.08.12,33.66-2.22,55.88-4.08C258.44,328.12,258.72,329.93,259,331.93Z" style="fill:#263238"></path><path d="M257.83,323.9c-18.2,1.53-49.11,4-55,4h-.44c-2.89-.09-30.46-3.54-48.62-5.83q.42-1.31.87-2.64c18.11,2.29,45.1,5.66,47.83,5.75,4.4.13,36.41-2.46,55.09-4v.2C257.59,322,257.69,322.82,257.83,323.9Z" style="fill:#263238"></path><path d="M154.3,347.42a2.31,2.31,0,1,1-2.31-2.31A2.3,2.3,0,0,1,154.3,347.42Z" style="fill:#263238"></path><path d="M166.4,349.18a2.31,2.31,0,1,1-2.31-2.31A2.31,2.31,0,0,1,166.4,349.18Z" style="fill:#263238"></path><circle cx="177.94" cy="351.19" r="2.31" style="fill:#263238"></circle><circle cx="192.07" cy="352.68" r="2.31" style="fill:#263238"></circle><path d="M207.66,353.23a2.31,2.31,0,1,1-2.31-2.31A2.31,2.31,0,0,1,207.66,353.23Z" style="fill:#263238"></path><path d="M221.16,352.13a2.31,2.31,0,1,1-2.31-2.31A2.31,2.31,0,0,1,221.16,352.13Z" style="fill:#263238"></path><path d="M234,350.92a2.31,2.31,0,1,1-2.31-2.31A2.3,2.3,0,0,1,234,350.92Z" style="fill:#263238"></path><path d="M246.68,349.45a2.31,2.31,0,1,1-2.31-2.31A2.3,2.3,0,0,1,246.68,349.45Z" style="fill:#263238"></path><path d="M258.7,348a2.31,2.31,0,1,1-2.31-2.31A2.31,2.31,0,0,1,258.7,348Z" style="fill:#263238"></path><path d="M408.94,300.47h-.24a76.17,76.17,0,0,1-40.64-16.31,2.71,2.71,0,0,1,3.58-4.08,72.22,72.22,0,0,0,35.68,14.79c2.71-5.44,11.52-21.83,23-29.63a2.72,2.72,0,0,1,3.06,4.49c-12.32,8.38-21.87,29-22,29.17A2.73,2.73,0,0,1,408.94,300.47Z" style="fill:#455a64"></path><path d="M400.58,328.19h-.22c-31.19-2.48-41.21-16.22-41.63-16.81a2.72,2.72,0,0,1,4.44-3.14c.06.08,2.33,3.11,8,6.38,5.31,3.07,14.77,7,29.64,8.16a2.71,2.71,0,0,1-.21,5.42Z" style="fill:#455a64"></path><path d="M415.35,311.53a2.71,2.71,0,0,1-1.92-.79c-6.31-6.31-7.15-12.38-7.19-12.64a2.72,2.72,0,0,1,5.39-.72c0,.13.78,4.65,5.64,9.51a2.72,2.72,0,0,1-1.92,4.64Z" style="fill:#455a64"></path><circle cx="358.52" cy="316.34" r="4.47" style="fill:#455a64"></circle><circle cx="368.24" cy="289.67" r="4.47" style="fill:#455a64"></circle><circle cx="378.41" cy="296" r="4.47" style="fill:#455a64"></circle><circle cx="389.76" cy="301" r="4.47" style="fill:#455a64"></circle><circle cx="401.81" cy="304.01" r="4.47" style="fill:#455a64"></circle><circle cx="409.63" cy="313.17" r="4.47" style="fill:#455a64"></circle><circle cx="366.27" cy="323.04" r="4.47" style="fill:#455a64"></circle><circle cx="375.91" cy="327.51" r="4.47" style="fill:#455a64"></circle><circle cx="386.38" cy="330.6" r="4.47" style="fill:#455a64"></circle><circle cx="397.83" cy="332.41" r="4.47" style="fill:#455a64"></circle><path d="M210.19,282.5c2.11,3.29,12.57,8.39,12.57,8.39S241.2,279.64,253.88,279c0,0-14.49-9.73-15.62-10.56a5.79,5.79,0,0,1-1.63-2.86H208S207.4,278.16,210.19,282.5Z" style="fill:#455a64"></path><path d="M216.8,268.31c-.5-.36-.77.56-.81,1.18-.16-.56-.57-1.55-1-1.12-.23.23,0,.82,0,1.06a2.93,2.93,0,0,0,1,1.17,3.18,3.18,0,0,0,.76-1.2C216.88,269.16,217.07,268.51,216.8,268.31Zm4,5.12c-.43-.43-.85.57-1,1.13,0-.62-.31-1.55-.81-1.19-.27.2-.09.85,0,1.1a2.91,2.91,0,0,0,.76,1.19,3,3,0,0,0,1-1.16C220.81,274.25,221,273.65,220.77,273.43Zm-4,5.32c-.5-.37-.77.56-.81,1.19-.16-.57-.57-1.57-1-1.13-.23.22,0,.82,0,1.06a2.85,2.85,0,0,0,1,1.17,3.26,3.26,0,0,0,.76-1.2C216.88,279.6,217.07,279,216.8,278.75Zm7.87,10.43c-.45-.32-.71.42-.79,1l.93-.54A.55.55,0,0,0,224.67,289.18Zm-1.8.06c-.23.23-.05.82,0,1.07a2.16,2.16,0,0,0,.2.36l.71-.43C223.65,289.67,223.26,288.84,222.87,289.24Zm-10-5.37c-.3-.31-.6.1-.8.58h0c.23.19.47.37.72.56a.2.2,0,0,0,0-.08C212.93,284.69,213.11,284.09,212.88,283.87Zm-1.62-.14c.14.14.29.27.45.41C211.6,283.88,211.45,283.7,211.26,283.73Zm13.41-5c-.5-.37-.76.56-.81,1.19-.15-.57-.57-1.57-1-1.13-.23.22-.05.82,0,1.06a2.93,2.93,0,0,0,1,1.17,3,3,0,0,0,.75-1.2C224.76,279.6,224.94,279,224.67,278.75Zm-3.9,5.12c-.43-.44-.85.56-1,1.12,0-.62-.31-1.54-.81-1.19-.27.21-.09.86,0,1.1a3,3,0,0,0,.76,1.2,3,3,0,0,0,1-1.17C220.81,284.69,221,284.09,220.77,283.87Zm19.36-14.14c-.19-.11-.34-.22-.5-.33,0,0,0,.06,0,.09a.84.84,0,0,0,0-.12l-.32-.22-.35-.25c-.15-.09-.29-.19-.39-.26a2,2,0,0,0,.15.79,3,3,0,0,0,1,1.17,2.68,2.68,0,0,0,.58-.78Zm-15.46-1.42c-.5-.36-.76.56-.81,1.18-.15-.56-.57-1.55-1-1.12-.23.23-.05.82,0,1.06a3,3,0,0,0,1,1.17,3,3,0,0,0,.75-1.2C224.76,269.16,224.94,268.51,224.67,268.31Zm-11.79,5.12c-.42-.43-.83.57-1,1.13,0-.62-.31-1.55-.8-1.19-.28.2-.09.85,0,1.1a3,3,0,0,0,.75,1.19,2.87,2.87,0,0,0,1-1.16C212.93,274.25,213.11,273.65,212.88,273.43Zm27.55,5.32c-.5-.37-.76.56-.8,1.19-.16-.57-.58-1.57-1-1.13-.22.22,0,.82,0,1.06a2.93,2.93,0,0,0,1,1.17,3.15,3.15,0,0,0,.77-1.2C240.52,279.6,240.7,279,240.43,278.75Zm-31.52,0-.1-.06.09.42a.31.31,0,0,1,0,.08l.09.34C209.08,279.24,209.11,278.89,208.91,278.75Zm39.4,0c-.5-.36-.77.56-.81,1.19-.16-.57-.58-1.56-1-1.13-.23.23,0,.82.05,1.06a1.26,1.26,0,0,0,.19.36c.52-.14,1-.27,1.57-.38h0C248.39,279.59,248.58,278.94,248.31,278.74Zm-15.76-10.43c-.49-.36-.77.56-.81,1.18a3,3,0,0,0-.51-1.09,0,0,0,0,1,0,0l-.06,0-.06,0H231a.2.2,0,0,0-.22,0,.1.1,0,0,0-.06.05.55.55,0,0,0-.1.49s0,.07,0,.11.05.2.08.29a.56.56,0,0,0,.06.17,2.93,2.93,0,0,0,1,1.17,3.06,3.06,0,0,0,.75-1.2C232.63,269.16,232.82,268.51,232.55,268.31Zm-3.91,5.12a.28.28,0,0,0-.27-.1h-.05a.53.53,0,0,0-.18.16.1.1,0,0,0,0,.06,2.12,2.12,0,0,0-.28.54.36.36,0,0,0,0,.09c-.05.14-.09.26-.12.37,0-.62-.32-1.55-.81-1.19-.27.2-.08.85,0,1.1a2.93,2.93,0,0,0,.55,1,1.49,1.49,0,0,0,.21.22h0a1.24,1.24,0,0,0,.31-.23l.15-.16.16-.18c.05-.07.11-.13.15-.2a1.41,1.41,0,0,0,.22-.39,2.2,2.2,0,0,0,.16-.66A.49.49,0,0,0,228.64,273.43Zm6.09,10.37c-.17.13-.17.4-.13.65l.73-.34C235.19,283.8,235,283.61,234.73,283.8Zm-25.82-15.49c-.49-.36-.76.56-.81,1.18a3.05,3.05,0,0,0-.13-.4c0,.42,0,.86,0,1.32v.08c.1.08.16.12.17.11a3.06,3.06,0,0,0,.76-1.2C209,269.16,209.18,268.51,208.91,268.31Zm27.61,5.12c-.42-.43-.84.57-1,1.13-.05-.62-.31-1.55-.8-1.19-.28.2-.09.85,0,1.1a3,3,0,0,0,.75,1.19,3,3,0,0,0,1-1.16C236.57,274.25,236.75,273.65,236.52,273.43Zm-7.88,10.44c-.42-.44-.83.56-1,1.12,0-.62-.32-1.54-.81-1.19-.27.21-.08.86,0,1.1a3,3,0,0,0,.76,1.2,2.93,2.93,0,0,0,1-1.17C228.68,284.69,228.87,284.09,228.64,283.87Zm15.76-10.44c-.42-.43-.84.57-1,1.13,0-.62-.31-1.55-.8-1.19-.28.2-.09.85,0,1.1a3,3,0,0,0,.75,1.19,2.87,2.87,0,0,0,1-1.16C244.45,274.25,244.63,273.65,244.4,273.43Zm-11.85,5.32c-.49-.37-.77.56-.81,1.19-.15-.57-.56-1.57-1-1.13-.23.22,0,.82.05,1.06a3,3,0,0,0,1,1.17h0l.2-.22a2.81,2.81,0,0,0,.55-1C232.63,279.6,232.82,279,232.55,278.75Z" style="fill:#37474f"></path><path d="M234.39,368c1.32.14,1.79-3.61,1-5.2a35.1,35.1,0,0,0-2.88-3.7c-3.23-3.86-8-9.2-8-9.2l10-19.63-22.61-10.1s-3.19,7.75-6.88,16.33c-.57,1.32-1.12,2.62-1.65,3.88l-.1.24c-2.4,5.75-4.22,10.53-3.89,11C200.27,353,233.07,367.84,234.39,368Z" style="fill:#dd6a57"></path><path d="M234.39,368c-1.32-.13-34.11-15-35-16.35-.33-.5,1.49-5.28,3.89-11l.1-.24c.52-1.22,1-2.48,1.6-3.76L226.49,346l-2,3.84s4.73,5.34,8,9.2a35.1,35.1,0,0,1,2.88,3.7C236.18,364.37,235.71,368.11,234.39,368Z" style="fill:#ebebeb"></path><path d="M234.8,368.19c-1.35-.14-34.94-15.37-35.86-16.76-.35-.53,1.5-5.93,4.55-11.45l21.65,9.84s9.83,11.4,10.67,13S236.15,368.33,234.8,368.19Z" style="fill:#455a64"></path><path d="M234.92,366.63c-5.56-2.69-28.27-13-34-15.26-.05,0-.06,0,0,0,5.46,2.79,28.26,12.94,34,15.32C235,366.77,235,366.68,234.92,366.63Z" style="fill:#263238"></path><path d="M234.2,360.67a5,5,0,0,0-4-.16,4.83,4.83,0,0,0-2.62,2.44s0,.06.07,0a5.73,5.73,0,0,1,6.51-2.24C234.21,360.75,234.24,360.69,234.2,360.67Z" style="fill:#263238"></path><path d="M226.65,351.19c-2.24-1.06-5.22-1.44-7.45-.24-.09.05,0,.17.06.17a34.29,34.29,0,0,1,7.3.36A.15.15,0,0,0,226.65,351.19Z" style="fill:#263238"></path><path d="M228.08,352.66c-2.24-1.06-5.21-1.45-7.45-.24-.09.05,0,.17.06.17a33.64,33.64,0,0,1,7.3.36A.15.15,0,0,0,228.08,352.66Z" style="fill:#263238"></path><path d="M229.51,354.12c-2.24-1.05-5.21-1.44-7.45-.23-.08,0,0,.17.07.16a34.36,34.36,0,0,1,7.3.37A.16.16,0,0,0,229.51,354.12Z" style="fill:#263238"></path><path d="M230.94,355.59c-2.23-1-5.21-1.44-7.44-.23-.09,0,0,.16.06.16a34.35,34.35,0,0,1,7.3.36A.15.15,0,0,0,230.94,355.59Z" style="fill:#263238"></path><path d="M204.8,346.67c-2.54-1.14-4.31,2.79-1.77,3.94S207.33,347.81,204.8,346.67Z" style="fill:#263238"></path><path d="M231.81,346.28c-.71-1.46-2.57-1.19-3.72-.53a13,13,0,0,0-4.66,4.84.07.07,0,0,0,0,.09c0,.19.11.41.33.37,2.1-.38,4.41-.53,6.33-1.55C231.26,348.91,232.48,347.66,231.81,346.28Zm-4.94,3.53c-1,.22-2.06.38-3.09.63a36.33,36.33,0,0,1,2.79-2.76,14,14,0,0,1,1.51-1.15c.83-.52,3.89-1.4,3,1.15C230.59,349.09,228.1,349.56,226.87,349.81Z" style="fill:#263238"></path><path d="M217.45,348.88c1.83,1.19,4.11,1.55,6.17,2.13.22.06.36-.15.36-.34a.06.06,0,0,0,.05-.09,13,13,0,0,0-4.2-5.24c-1.08-.77-2.91-1.21-3.75.18S216.39,348.19,217.45,348.88Zm-.77-1.9c-.65-2.62,2.32-1.46,3.09-.87a14.26,14.26,0,0,1,1.4,1.29,36,36,0,0,1,2.52,3c-1-.34-2-.6-3-.9C219.47,349.13,217,348.43,216.68,347Z" style="fill:#263238"></path><path d="M232.31,265.61h-33s-4.16,10.45-1.86,14.46S222,297.5,222,297.5c-7.26,14.3-15.53,36.43-15.53,36.43l21.58,7.89c3.28-4.55,24.13-43.65,18.32-52.29-4.06-6-18.09-16-18.09-16Z" style="fill:#dd6a57"></path><path d="M224.84,294.3a17.39,17.39,0,0,0-1.65,1.56l-.05.06a8.52,8.52,0,0,1,.51-1.26c0-.08-.08-.14-.12-.06a6.81,6.81,0,0,0-.64,1.64c-.13.16-.26.31-.38.48a9.6,9.6,0,0,0-.6,1,.08.08,0,0,0,.12.09c.26-.27.52-.53.76-.8s.48-.57.72-.85.44-.55.65-.84a9.23,9.23,0,0,1,.72-.93S224.86,294.28,224.84,294.3Z" style="fill:#263238"></path><path d="M198.6,265.59h34.26l-4.57,7.89a95.32,95.32,0,0,1,12.28,9.27s-10.79,6.15-23.27,12.92c0,0-6.87-3.87-12.18-6.66-6.39-3.35-8-7.6-8.66-9.72C195,274.58,198.6,265.59,198.6,265.59Z" style="fill:#455a64"></path><path d="M236.52,283.86c-.42-.43-.84.58-1,1.13-.05-.62-.32-1.54-.81-1.18-.27.2-.08.85,0,1.09a3,3,0,0,0,.47.89c.43-.24.83-.46,1.2-.68a.76.76,0,0,0,.09-.18C236.57,284.69,236.75,284.09,236.52,283.86Zm-4-5.11c-.49-.37-.77.56-.81,1.19-.15-.57-.56-1.57-1-1.14-.23.23-.05.83.05,1.07a2.85,2.85,0,0,0,1,1.17,3.06,3.06,0,0,0,.75-1.2C232.64,279.6,232.82,279,232.55,278.75Zm4,5.11c-.42-.43-.84.58-1,1.13-.05-.62-.32-1.54-.81-1.18-.27.2-.08.85,0,1.09a3,3,0,0,0,.47.89c.43-.24.83-.46,1.2-.68a.76.76,0,0,0,.09-.18C236.57,284.69,236.75,284.09,236.52,283.86Zm-11.85,5.32c-.49-.36-.76.57-.81,1.19-.15-.56-.57-1.56-1-1.13-.23.23-.05.82,0,1.07a3,3,0,0,0,1,1.17,3,3,0,0,0,.75-1.21C224.76,290,224.94,289.38,224.67,289.18Zm-7.88,0c-.49-.36-.76.57-.8,1.19-.16-.56-.57-1.56-1-1.13-.22.23,0,.82,0,1.07a3,3,0,0,0,1,1.17,3,3,0,0,0,.76-1.21C216.88,290,217.07,289.38,216.79,289.18Zm-7.88,0c-.49-.36-.76.57-.8,1.19-.16-.56-.57-1.56-1-1.13-.17.17-.11.54,0,.82l1.55.83a3.55,3.55,0,0,0,.29-.62C209,290,209.19,289.38,208.91,289.18ZM219,294.24c-.16.11-.17.36-.14.6l.7-.38C219.4,294.2,219.21,294.07,219,294.24Zm1.8-10.38c-.43-.43-.85.58-1,1.13,0-.62-.31-1.54-.8-1.18-.28.2-.09.85,0,1.09a3,3,0,0,0,.76,1.2,3,3,0,0,0,1-1.17C220.81,284.69,221,284.09,220.77,283.86Zm-7.89,0c-.42-.43-.84.58-1,1.13,0-.62-.31-1.54-.8-1.18-.28.2-.09.85,0,1.09a3,3,0,0,0,.76,1.2,3,3,0,0,0,1-1.17C212.93,284.69,213.11,284.09,212.88,283.86Zm-7.87,0c-.43-.43-.84.58-1,1.13,0-.62-.31-1.54-.81-1.18-.27.2-.08.85,0,1.09a3.06,3.06,0,0,0,.76,1.2,2.93,2.93,0,0,0,1-1.17C205.05,284.69,205.24,284.09,205,283.86Zm19.66-5.11c-.49-.37-.76.56-.81,1.19-.15-.57-.57-1.57-1-1.14-.23.23-.05.83,0,1.07a2.93,2.93,0,0,0,1,1.17,3,3,0,0,0,.75-1.2C224.76,279.6,224.94,279,224.67,278.75Zm-7.88,0c-.49-.37-.76.56-.8,1.19-.16-.57-.57-1.57-1-1.14-.22.23,0,.83,0,1.07a2.93,2.93,0,0,0,1,1.17,3,3,0,0,0,.76-1.2C216.88,279.6,217.07,279,216.79,278.75Zm-7.88,0c-.49-.37-.76.56-.8,1.19-.16-.57-.57-1.57-1-1.14-.23.23,0,.83,0,1.07a2.93,2.93,0,0,0,1,1.17,3.18,3.18,0,0,0,.76-1.2C209,279.6,209.19,279,208.91,278.75Zm-7.87,0c-.5-.37-.77.56-.81,1.19-.16-.57-.57-1.57-1-1.14-.23.23,0,.83.05,1.07a2.85,2.85,0,0,0,1,1.17,3.06,3.06,0,0,0,.76-1.2C201.12,279.6,201.31,279,201,278.75Zm19.73,5.11c-.43-.43-.85.58-1,1.13,0-.62-.31-1.54-.8-1.18-.28.2-.09.85,0,1.09a3,3,0,0,0,.76,1.2,3,3,0,0,0,1-1.17C220.81,284.69,221,284.09,220.77,283.86Zm-7.89,0c-.42-.43-.84.58-1,1.13,0-.62-.31-1.54-.8-1.18-.28.2-.09.85,0,1.09a3,3,0,0,0,.76,1.2,3,3,0,0,0,1-1.17C212.93,284.69,213.11,284.09,212.88,283.86Zm17.87-15.5c-.19.19-.1.61,0,.9l.5-.85C231.08,268.25,230.92,268.2,230.75,268.36Zm-6.08-.05c-.49-.36-.76.57-.81,1.18-.15-.55-.57-1.56-1-1.13-.23.24-.05.83,0,1.07a2.93,2.93,0,0,0,1,1.17,2.88,2.88,0,0,0,.75-1.2C224.76,269.16,224.94,268.51,224.67,268.31Zm-7.88,0c-.49-.36-.76.57-.8,1.18-.16-.55-.57-1.56-1-1.13-.22.24,0,.83,0,1.07a2.93,2.93,0,0,0,1,1.17,2.89,2.89,0,0,0,.76-1.2C216.88,269.16,217.07,268.51,216.79,268.31Zm-7.88,0c-.49-.36-.76.57-.8,1.18-.16-.55-.57-1.56-1-1.13-.23.24,0,.83,0,1.07a2.93,2.93,0,0,0,1,1.17,3.1,3.1,0,0,0,.76-1.2C209,269.16,209.19,268.51,208.91,268.31Zm-7.87,0c-.5-.36-.77.57-.81,1.18-.16-.55-.57-1.56-1-1.13-.23.24,0,.83.05,1.07a2.85,2.85,0,0,0,1,1.17,3,3,0,0,0,.76-1.2C201.12,269.16,201.31,268.51,201,268.31Zm27.25,5.17.08-.15c-.32.07-.6.79-.72,1.23,0-.62-.32-1.55-.81-1.19-.27.2-.08.85,0,1.1a3,3,0,0,0,.75,1.19,3,3,0,0,0,1-1.16,2.58,2.58,0,0,0,.15-.66Zm-7.52-.05c-.43-.43-.85.57-1,1.13,0-.62-.31-1.55-.8-1.19-.28.2-.09.85,0,1.1a2.91,2.91,0,0,0,.76,1.19,3,3,0,0,0,1-1.16C220.81,274.25,221,273.66,220.77,273.43Zm-7.89,0c-.42-.43-.84.57-1,1.13,0-.62-.31-1.55-.8-1.19-.28.2-.09.85,0,1.1a2.91,2.91,0,0,0,.76,1.19,3,3,0,0,0,1-1.16C212.93,274.25,213.11,273.66,212.88,273.43Zm-7.87,0c-.43-.43-.84.57-1,1.13,0-.62-.31-1.55-.81-1.19-.27.2-.08.85,0,1.1a3,3,0,0,0,.76,1.19,2.87,2.87,0,0,0,1-1.16C205.05,274.25,205.24,273.66,205,273.43Zm-7.88,0c-.34-.34-.67.21-.86.72,0,0,0,0,0,0v.05l-.06.47c0,.15,0,.28,0,.42a1,1,0,0,0,0,.17,1.23,1.23,0,0,0,0,.2,1,1,0,0,0,0,.17h0a3.31,3.31,0,0,0,1-1.15C197.17,274.25,197.36,273.66,197.13,273.43Zm31.51,10.43c-.42-.43-.83.58-1,1.13,0-.62-.32-1.54-.81-1.18-.27.2-.08.85,0,1.09a3,3,0,0,0,.76,1.2,3,3,0,0,0,1-1.17C228.69,284.69,228.87,284.09,228.64,283.86Z" style="fill:#37474f"></path><path d="M234.64,267.38a18.68,18.68,0,0,1-1.55,1.66c-.51.53-1.05,1-1.59,1.55s-1.09,1-1.65,1.49l-.88.73a6.49,6.49,0,0,0-.86.71c-.05.06,0,.18.09.14a7.85,7.85,0,0,0,1.89-1.2,22.31,22.31,0,0,0,1.75-1.47,17.54,17.54,0,0,0,1.53-1.69c.48-.6.88-1.25,1.34-1.88C234.73,267.39,234.67,267.34,234.64,267.38Z" style="fill:#263238"></path><path d="M228.4,273.49c-.09-.05-.16.08-.07.14,3.47,2.24,10.73,8.19,11.85,8.82.06,0,.15,0,.11-.09A45.24,45.24,0,0,0,228.4,273.49Z" style="fill:#263238"></path><path d="M237.41,191.37c1,.11,5.29-.48,8.25,3.37,2.79,3.65,4,14.89,4.61,17.34s3.86,2.74,4.68,5.57c.71,2.44-1.06,3.38-1.21,5.18-.11,1.4,1.34,3.46.11,5.55-1.12,1.91-3.16,1.55-4.38,2.16s-1.92,3.48-4.18,4.3-4.32-1.22-5.52-1.18-2.56,3.77-6.51,3.53-5.16-3.56-6.8-4.18-5.7.6-7.61-1.39-2.28-4.71-3.14-5.69-2.61-.78-3.71-3.07,1-3.81,1.29-5.82c.18-1.4-1.09-2.66-.26-4.81,1.14-3,4.74-2.41,6.05-5.45,1-2.38,3-12.71,9.19-15.37C232.52,189.57,237.41,191.37,237.41,191.37Z" style="fill:#263238"></path><path d="M250.14,211.49a3.57,3.57,0,0,0,1.08,1.3l1.31,1.08a10.76,10.76,0,0,1,2.32,2.35,3.42,3.42,0,0,1,.44,3,5.15,5.15,0,0,1-.8,1.39,6.17,6.17,0,0,0-.94,1.51,2.92,2.92,0,0,0,.2,1.85c.2.54.41,1.06.57,1.58a4,4,0,0,1,0,3.09,2.31,2.31,0,0,1-1.06,1.08,4.26,4.26,0,0,1-1.56.38c-.56,0-1.12,0-1.69.06a2.9,2.9,0,0,0-1.63.41,3,3,0,0,1,1.63-.24c.56,0,1.13.09,1.7.08a4.3,4.3,0,0,0,1.72-.32,2.72,2.72,0,0,0,1.33-1.22,4.38,4.38,0,0,0,.16-3.49c-.17-.56-.38-1.09-.55-1.61a2.3,2.3,0,0,1-.17-1.45c.32-.91,1.31-1.73,1.68-2.91a3.82,3.82,0,0,0-.59-3.45,10.93,10.93,0,0,0-2.54-2.32l-1.39-1A3.77,3.77,0,0,1,250.14,211.49Z" style="fill:#263238"></path><path d="M222.65,197.33a49.68,49.68,0,0,0-2.48,5.53c-.4.92-.77,1.86-1.24,2.73a6.62,6.62,0,0,1-.78,1.21.84.84,0,0,1-.23.23,1.15,1.15,0,0,1-.27.18,6.77,6.77,0,0,1-.66.33,28.78,28.78,0,0,0-2.74,1.34,5.12,5.12,0,0,0-2.17,2.27,3.22,3.22,0,0,0-.29,1.59,4.1,4.1,0,0,0,.5,1.49,6.51,6.51,0,0,1,1,2.81,6.18,6.18,0,0,0-.72-2.94,3.94,3.94,0,0,1-.37-1.39,2.76,2.76,0,0,1,.32-1.34,5.09,5.09,0,0,1,2-2c.85-.49,1.78-.84,2.72-1.27a7.59,7.59,0,0,0,.69-.36,2.14,2.14,0,0,0,.65-.55,6.7,6.7,0,0,0,.84-1.35,23,23,0,0,0,1.18-2.82l1-2.87A26,26,0,0,1,222.65,197.33Z" style="fill:#263238"></path><path d="M214.73,225.27a5.17,5.17,0,0,1,.69,2c.17.71.34,1.41.54,2.12a10.58,10.58,0,0,0,.8,2.06,4.8,4.8,0,0,0,1.48,1.76,6,6,0,0,0,4.44.43c.72-.15,1.42-.33,2.12-.46a4.47,4.47,0,0,1,2.12,0,4.29,4.29,0,0,0-2.16-.28c-.74.07-1.45.2-2.16.29a6.07,6.07,0,0,1-4-.48,4.26,4.26,0,0,1-1.3-1.51,12.48,12.48,0,0,1-.87-1.93c-.25-.67-.47-1.36-.7-2-.13-.35-.25-.69-.4-1A2,2,0,0,0,214.73,225.27Z" style="fill:#263238"></path><path d="M227.43,227.91c.16,6,1.83,27.94,7.37,34,3.73,4.12,23.09,7.57,28.1,7.31,2.05-.11,2.93-15.83.91-16.7-2.19-.94-17.31-1.85-18.57-2.92s-7.18-14.65-11.49-22C231.16,223.33,227.34,224.56,227.43,227.91Z" style="fill:#dd6a57"></path><path d="M257.7,268.82c1.85.27,12.15,1.32,14.58.92s9.35-2,9.23-3.93-2.17-1.57-2.17-1.57,3.09-1.22,2.52-3.05c-.46-1.46-3.39-1.17-3.39-1.17s3.32-1.51,2.52-3.25c-.73-1.59-3.8-.47-3.8-.47s2.65-1.56,1.65-3c-1.19-1.67-5.78,1-8.5,1.24-.61.06-12.57.2-12.57.2Z" style="fill:#dd6a57"></path><path d="M277.23,256.14c-3.64,1.66-5.2,2.24-9,2.1-.08,0-.1.11,0,.12,3.75.47,5.65-.08,9.16-2.07C277.5,256.2,277.39,256.06,277.23,256.14Z" style="fill:#263238"></path><path d="M278.45,260c-3.69,1.73-5.63,1.95-9.67,2.11,0,0-.06.09,0,.1,4,.18,6.3.11,9.75-2.11C278.69,260,278.61,259.92,278.45,260Z" style="fill:#263238"></path><path d="M279.13,264.25a18.42,18.42,0,0,1-9.76,1.5.07.07,0,1,0,0,.14,13.08,13.08,0,0,0,9.82-1.53C279.38,264.24,279.37,264.16,279.13,264.25Z" style="fill:#263238"></path><path d="M255,251.79s4.83-.88,7-1.26,8.14-2.33,9.54-1.06c1.57,1.43-3,4.79-6.9,5.51,0,0-.71,6.41-4.39,7.28S255,251.79,255,251.79Z" style="fill:#dd6a57"></path><path d="M264.28,255.2c-.19,2.5-1.38,5.59-3.6,6.76a.06.06,0,0,0,.05.11c2.54-.94,4-4.5,4-6.75C264.73,254.89,264.33,254.55,264.28,255.2Z" style="fill:#263238"></path><path d="M198.54,265.74s38.09-.15,38.09-.15-1.91-32.47-5.76-40.62c-1.31-2.76-5.92-4.79-10.36-1.49C208.45,232.43,198.56,265.79,198.54,265.74Z" style="fill:#4F46E5"></path><path d="M198.54,265.74a132.2,132.2,0,0,1,5-14.08s7-2.27,11-5.26S221,236,221,236l12.89.51s3.33,24,2.77,29Z" style="fill:#455a64"></path><path d="M219,242.06c.5-.36.77.57.81,1.19.15-.56.57-1.56,1-1.13.23.23.05.82,0,1.07a3,3,0,0,1-1,1.16,2.91,2.91,0,0,1-.76-1.19C218.88,242.91,218.69,242.26,219,242.06Zm7.88,1.1a2.91,2.91,0,0,0,.76,1.19,3,3,0,0,0,1-1.16c.09-.25.27-.84,0-1.07-.42-.43-.84.57-1,1.13,0-.62-.31-1.55-.81-1.19C226.57,242.26,226.76,242.91,226.84,243.16Zm7.77-.94a1.91,1.91,0,0,0,.1.94s0,0,0,.05Q234.67,242.7,234.61,242.22ZM224.67,237c-.49-.36-.76.57-.81,1.19-.15-.56-.56-1.56-1-1.13-.23.23,0,.82,0,1.07a2.87,2.87,0,0,0,1,1.16,3.1,3.1,0,0,0,.76-1.2C224.76,237.85,224.94,237.2,224.67,237Zm7.88,0c-.49-.36-.76.57-.81,1.19-.15-.56-.57-1.56-1-1.13-.23.23-.05.82,0,1.07a3,3,0,0,0,1,1.16,3,3,0,0,0,.75-1.2C232.64,237.85,232.82,237.2,232.55,237ZM203.2,253.59a2.89,2.89,0,0,0,.76,1.2,2.93,2.93,0,0,0,1-1.17c.09-.24.28-.84,0-1.07-.43-.43-.84.58-1,1.14,0-.62-.31-1.55-.8-1.19C202.93,252.7,203.12,253.35,203.2,253.59Zm7.88,0a2.89,2.89,0,0,0,.76,1.2,2.93,2.93,0,0,0,1-1.17c.09-.24.27-.84,0-1.07-.43-.43-.84.58-1,1.14,0-.62-.31-1.55-.8-1.19C210.81,252.7,211,253.35,211.08,253.59Zm7.88,0a2.89,2.89,0,0,0,.76,1.2,2.93,2.93,0,0,0,1-1.17c.09-.24.27-.84,0-1.07-.42-.43-.84.58-1,1.14,0-.62-.31-1.55-.81-1.19C218.69,252.7,218.88,253.35,219,253.59Zm7.88,0a2.89,2.89,0,0,0,.76,1.2,2.93,2.93,0,0,0,1-1.17c.09-.24.27-.84,0-1.07-.42-.43-.84.58-1,1.14,0-.62-.31-1.55-.81-1.19C226.57,252.7,226.76,253.35,226.84,253.59Zm9-.74a3.84,3.84,0,0,0-.33.84c-.05-.63-.31-1.55-.81-1.19-.27.2-.09.85,0,1.09a3.18,3.18,0,0,0,.76,1.2,1.91,1.91,0,0,0,.55-.47C236,253.83,235.92,253.34,235.86,252.85Zm-19.07-5.41c-.49-.36-.76.57-.8,1.18-.16-.55-.57-1.56-1-1.13-.23.23,0,.83,0,1.07a2.85,2.85,0,0,0,1,1.17,3.18,3.18,0,0,0,.76-1.2C216.88,248.29,217.06,247.64,216.79,247.44Zm7.88,0c-.49-.36-.76.57-.81,1.18-.15-.55-.56-1.56-1-1.13-.23.23,0,.83,0,1.07a2.85,2.85,0,0,0,1,1.17,3.18,3.18,0,0,0,.76-1.2C224.76,248.29,224.94,247.64,224.67,247.44Zm7.88,0c-.49-.36-.76.57-.81,1.18-.15-.55-.57-1.56-1-1.13-.23.23-.05.83,0,1.07a2.93,2.93,0,0,0,1,1.17,3.06,3.06,0,0,0,.75-1.2C232.64,248.29,232.82,247.64,232.55,247.44ZM203.2,264a3,3,0,0,0,.76,1.2,3,3,0,0,0,1-1.17c.09-.25.28-.84,0-1.07-.43-.43-.84.57-1,1.13,0-.62-.31-1.54-.8-1.18C202.93,263.14,203.12,263.79,203.2,264Zm7.88,0a3,3,0,0,0,.76,1.2,3,3,0,0,0,1-1.17c.09-.25.27-.84,0-1.07-.43-.43-.84.57-1,1.13,0-.62-.31-1.54-.8-1.18C210.81,263.14,211,263.79,211.08,264Zm7.88,0a3,3,0,0,0,.76,1.2,3,3,0,0,0,1-1.17c.09-.25.27-.84,0-1.07-.42-.43-.84.57-1,1.13,0-.62-.31-1.54-.81-1.18C218.69,263.14,218.88,263.79,219,264Zm7.88,0a3,3,0,0,0,.76,1.2,3,3,0,0,0,1-1.17c.09-.25.27-.84,0-1.07-.42-.43-.84.57-1,1.13,0-.62-.31-1.54-.81-1.18C226.57,263.14,226.76,263.79,226.84,264Zm7.88,0a3.13,3.13,0,0,0,.75,1.2,2.93,2.93,0,0,0,1-1.17c.09-.25.27-.84,0-1.07-.42-.43-.84.57-1,1.13,0-.62-.31-1.54-.81-1.18C234.45,263.14,234.63,263.79,234.72,264Zm-33.66-6.12c-.28.78-.53,1.54-.77,2.25A3,3,0,0,0,201,259C201.12,258.74,201.29,258.14,201.06,257.91Zm7.85,0c-.49-.36-.76.57-.8,1.19-.16-.56-.57-1.56-1-1.13-.23.23,0,.82,0,1.07a3,3,0,0,0,1,1.17,3.14,3.14,0,0,0,.76-1.2C209,258.72,209.19,258.07,208.91,257.87Zm7.88,0c-.49-.36-.76.57-.8,1.19-.16-.56-.57-1.56-1-1.13-.23.23,0,.82,0,1.07a2.93,2.93,0,0,0,1,1.17,3.26,3.26,0,0,0,.76-1.2C216.88,258.72,217.06,258.07,216.79,257.87Zm7.88,0c-.49-.36-.76.57-.81,1.19-.15-.56-.56-1.56-1-1.13-.23.23,0,.82,0,1.07a2.93,2.93,0,0,0,1,1.17,3.26,3.26,0,0,0,.76-1.2C224.76,258.72,224.94,258.07,224.67,257.87Zm7.88,0c-.49-.36-.76.57-.81,1.19-.15-.56-.57-1.56-1-1.13-.23.23-.05.82,0,1.07a3,3,0,0,0,1,1.17,3.13,3.13,0,0,0,.75-1.2C232.64,258.72,232.82,258.07,232.55,257.87Z" style="fill:#37474f"></path><path d="M221,236s3.66-9.64,1.18-13.62a3.58,3.58,0,0,1,1.93-.61s3.08,4.27-.61,14.33Z" style="fill:#455a64"></path><path d="M232.23,236.48s-.06-9.62-1.43-12.34a17.51,17.51,0,0,1,1.43,2.28,86.58,86.58,0,0,1,1.63,10.13Z" style="fill:#455a64"></path><path d="M224.63,222.41c.06.76,2.82,6.08,6.21,6.45,1.1.12,2-5.87,2-5.87l.16-.43,2.36-6-7.5-6.59S224.61,222.08,224.63,222.41Z" style="fill:#dd6a57"></path><path d="M235.38,216.58l-2.36,6-.17.43s-.16,1.08-.44,2.32a9.75,9.75,0,0,1-6.57-7.69c.92-3.49,2-7.63,2-7.63Z" style="fill:#263238"></path><path d="M248.19,210.15c-1.92,13.63-10.3,14-13.24,13.61-2.67-.38-11.71-2-11.21-15.76s7.43-17.18,13.58-16.64S250.1,196.51,248.19,210.15Z" style="fill:#dd6a57"></path><path d="M246.19,209.41a8.53,8.53,0,0,1-.87-.39,1.55,1.55,0,0,1-.81-.56.48.48,0,0,1,.12-.58,1.2,1.2,0,0,1,1.23,0,1.8,1.8,0,0,1,1,.85C247.05,209.1,246.59,209.54,246.19,209.41Z" style="fill:#263238"></path><path d="M236.94,207.9c.33,0,.63,0,1,0a1.56,1.56,0,0,0,1-.18.5.5,0,0,0,.12-.59,1.22,1.22,0,0,0-1.11-.52,1.76,1.76,0,0,0-1.23.38A.52.52,0,0,0,236.94,207.9Z" style="fill:#263238"></path><path d="M237.84,209.88c-1.46-.39-2.14,2.56-.78,2.93S239.06,210.21,237.84,209.88Z" style="fill:#263238"></path><path d="M237.22,209.91c-.29.11-.61.34-.93.3s-.57-.42-.74-.77c0,0,0,0-.05,0a1.09,1.09,0,0,0,.53,1.41c.54.21,1.05-.2,1.32-.74C237.4,210,237.34,209.86,237.22,209.91Z" style="fill:#263238"></path><path d="M244.5,211.07c1.5.24.91,3.21-.47,3S243.25,210.87,244.5,211.07Z" style="fill:#263238"></path><path d="M245.08,211.39c.21.2.38.53.66.61s.62-.19.89-.46c0,0,.05,0,0,0-.09.57-.4,1.13-1,1.13s-.79-.56-.81-1.15C244.89,211.45,245,211.31,245.08,211.39Z" style="fill:#263238"></path><path d="M236.49,218.05c.16.27.29.63.61.74a2.43,2.43,0,0,0,1,.05,0,0,0,0,1,0,0,1.28,1.28,0,0,1-1.28.18,1,1,0,0,1-.49-1C236.39,218,236.47,218,236.49,218.05Z" style="fill:#263238"></path><path d="M241,215.57s-.11,1.41-.25,2.06c0,.06-.18.05-.4,0,0,0,0,0,0,0a3.16,3.16,0,0,1-2.74-1.79c0-.07.07-.12.12-.07a4.73,4.73,0,0,0,2.63,1.41c.08-.17.11-2.44.2-2.41.42.17,1.13.52,1.4.65.09-.91.22-3.52.38-5.18,0-.11.18-.1.18,0a43.92,43.92,0,0,1,0,5.89C242.51,216.28,241.27,215.74,241,215.57Z" style="fill:#263238"></path><path d="M240.45,217.14a3.84,3.84,0,0,1-1.65,1,1.65,1.65,0,0,1-1.05,0c-.74-.27-.69-1-.49-1.54a4.09,4.09,0,0,1,.43-.88A5,5,0,0,0,240.45,217.14Z" style="fill:#263238"></path><path d="M238.8,218.17a1.65,1.65,0,0,1-1.05,0c-.74-.27-.69-1-.49-1.54A1.78,1.78,0,0,1,238.8,218.17Z" style="fill:#ff9bbc"></path><path d="M223.72,209.32a5.65,5.65,0,0,0,4.31-3.54,14.75,14.75,0,0,0,7.12-3c-.17.25-1.37,2-2,2.91,8.81.86,13.24-4.78,13.24-4.78a15.16,15.16,0,0,1,2.11,6.34s1.54-5.1-.1-9.29a8.59,8.59,0,0,0-6.64-5.61,12.28,12.28,0,0,0-12.55.21C222.06,196.91,223.72,209.32,223.72,209.32Z" style="fill:#263238"></path><path d="M239.88,206.16a15.77,15.77,0,0,1-4.74.34s0,0,0,0a13.73,13.73,0,0,0,7.2-1.93,13.18,13.18,0,0,0,2.53-2,9.1,9.1,0,0,0,2-2.86c0-.08.16,0,.12.05a10.41,10.41,0,0,1-1.61,3.1,9.64,9.64,0,0,1-2.66,2.22,10.59,10.59,0,0,1-2.88,1.1" style="fill:#263238"></path><path d="M225.76,209.35s-2-4.86-4.11-4.25-1.33,7.18.71,8.53a2.33,2.33,0,0,0,3.32-.52Z" style="fill:#dd6a57"></path><path d="M221.93,207s-.06,0,0,.05A5.9,5.9,0,0,1,224,211.3a1.29,1.29,0,0,0-1.79-.77,0,0,0,0,0,0,.09,1.43,1.43,0,0,1,1.42.84,6.51,6.51,0,0,1,.45,1.42c.05.15.32.14.3,0v0C224.93,210.82,224,207.67,221.93,207Z" style="fill:#263238"></path><polygon points="229.16 205.39 225.9 202.19 225.12 203.12 228.71 205.91 229.16 205.39" style="fill:#4F46E5"></polygon><polygon points="228.49 206.35 224.71 203.78 224.11 204.83 228.14 206.93 228.49 206.35" style="fill:#4F46E5"></polygon><path d="M270.58,277.69a17.36,17.36,0,0,0-3.33-.95l-3.4-.79a42.59,42.59,0,0,1-6.7-2.1,9.12,9.12,0,0,1-3-2,3.42,3.42,0,0,1-.55-.83,5.15,5.15,0,0,1-.3-.92c-.14-.58-.25-1.17-.34-1.76-.35-2.33-.47-4.66-.73-6.94a30.56,30.56,0,0,0-.54-3.36,8.54,8.54,0,0,0-1.18-2.93c-1.33-1.75-3-3.42-4.49-5.27a18,18,0,0,1-2-3,5.85,5.85,0,0,1-.73-3.95,8.07,8.07,0,0,1,2-3.37,10.13,10.13,0,0,1,3.08-2.24,5.76,5.76,0,0,1,4-.4,4.31,4.31,0,0,1,1.83,1.14,7.14,7.14,0,0,1,1.14,1.64,23.13,23.13,0,0,1,2,7,32.44,32.44,0,0,1,.29,3.56,13.84,13.84,0,0,1-.32,3.69,3.61,3.61,0,0,1-.43,1l-.19.26-.06.09a1.77,1.77,0,0,0-.15.28,8.77,8.77,0,0,0-.46,1.52,30.56,30.56,0,0,0-.54,3.36c-.25,2.28-.39,4.59-.42,6.88,0,.58,0,1.15,0,1.72a5.61,5.61,0,0,0,.21,1.52,4,4,0,0,0,1.09,1.06,15.85,15.85,0,0,0,1.44.89,56,56,0,0,0,6.31,2.84C266.21,276.13,268.38,276.94,270.58,277.69Zm0,0c-2.24-.6-4.47-1.26-6.68-2a56.39,56.39,0,0,1-6.51-2.57,15.06,15.06,0,0,1-1.57-.86,4.49,4.49,0,0,1-1.43-1.31,3.47,3.47,0,0,1-.28-1c-.05-.3-.08-.6-.11-.89-.05-.59-.09-1.18-.11-1.77a61.06,61.06,0,0,1,.16-7,33,33,0,0,1,.44-3.53,9.42,9.42,0,0,1,.51-1.82,3.23,3.23,0,0,1,.24-.5l.19-.27.07-.09a2.48,2.48,0,0,0,.21-.59,12.24,12.24,0,0,0,.2-3.24,27.12,27.12,0,0,0-.34-3.36,22.63,22.63,0,0,0-1.86-6.39,3.37,3.37,0,0,0-1.93-1.88,4,4,0,0,0-2.76.34,8,8,0,0,0-2.52,1.81,6.55,6.55,0,0,0-1.58,2.54,4.31,4.31,0,0,0,.57,2.76,17.52,17.52,0,0,0,1.82,2.76c1.38,1.81,3,3.45,4.43,5.42a9.51,9.51,0,0,1,1.33,3.52,33.64,33.64,0,0,1,.46,3.54c.19,2.34.22,4.66.45,6.94.06.56.14,1.13.25,1.67a2.57,2.57,0,0,0,.58,1.38,8.56,8.56,0,0,0,2.67,1.91,40.74,40.74,0,0,0,6.48,2.38l3.34,1A17.07,17.07,0,0,1,270.58,277.69Z" style="fill:#263238"></path><path d="M216.45,226.32c-9.26,7.9-22.7,28.7-17.34,34.51,6.66,7.22,34.22,11.33,39.41,11.21,2.21,0,3.39-18.14,1-18.14-2.07,0-22.67-3.75-23.56-5.28-.37-.62,3.38-11.17,5.8-19.64C224.27,220.24,219.19,224,216.45,226.32Z" style="fill:#dd6a57"></path><path d="M235.77,253.38a63.05,63.05,0,0,0,6.46-1.77,19.73,19.73,0,0,1,20.34,7.16c2.6,3.3,1.41,6.57-1.9,3.61-2.33-2.08-3.76-3.72-4.71-4.19,0,0,.8,4.72-1.16,6.68a51.74,51.74,0,0,1-5.48,4.76,10.78,10.78,0,0,1-1-.95s-6.72,4.87-11.21,3.33Z" style="fill:#dd6a57"></path><path d="M264.1,261.57a8.12,8.12,0,0,0-2.25-3.7s-.11.07-.08.1a8.67,8.67,0,0,1,2,3.42c.15.59.16,1.5-.56,1.73a2.11,2.11,0,0,1-1.67-.51,23.76,23.76,0,0,1-2.82-2.39,17.11,17.11,0,0,0-2.82-2.13.05.05,0,1,0-.06.09,23.26,23.26,0,0,1,3.46,3c.91.89,1.91,2,3.21,2.33S264.35,262.67,264.1,261.57Z" style="fill:#263238"></path><path d="M246,251.11a30.67,30.67,0,0,1,8.46,5.33c3,2.93,7.93,9.36,5.74,11.54-1.6,1.59-3.7-.7-3.7-.7s1.48,3.09-.28,4.22c-1.6,1-3.12-.85-3.12-.85s.57,2-1.16,2.72c-2.09.83-3-3.56-5.8-4.55C245.48,268.6,246,251.11,246,251.11Z" style="fill:#dd6a57"></path><path d="M250.82,259.07a16.58,16.58,0,0,1,5.67,8.13c0,.08,0,.14-.06.07a41.09,41.09,0,0,0-5.64-8.17S250.8,259.06,250.82,259.07Z" style="fill:#263238"></path><path d="M248,262.16a18.65,18.65,0,0,1,5.18,8.45c0,.09,0,.14-.07.07a43.67,43.67,0,0,0-5.14-8.49A0,0,0,0,1,248,262.16Z" style="fill:#263238"></path><path d="M256.37,267s-.06,0-.05,0c.78,1.77.68,3.43.24,4a1.74,1.74,0,0,1-1.83.7,3,3,0,0,1-1.67-1.23s-.11,0-.08.05c.49.7,1.49,2,2.87,1.44C257,271.49,258,269.76,256.37,267Z" style="fill:#263238"></path><path d="M260.84,265.85c-.4-2.93-4.1-7-4.88-7.66-.06-.05-.22-.06-.16,0,.5.43,3.63,4.34,4.37,6.56.34,1,.53,2.53-.43,3.29-1.2.93-2.6-.36-3.4-1.19,0,0-.12,0-.08.08.75,1,1.83,2.16,3.2,1.73A2.48,2.48,0,0,0,260.84,265.85Z" style="fill:#263238"></path><path d="M262.57,258.66a12.73,12.73,0,0,0-1.2-1.54,19.18,19.18,0,0,0-1.46-1.39A19.84,19.84,0,0,0,249.28,251a20.5,20.5,0,0,0-2.22-.11c-2.2,0-4.87.16-11.09,2.29a.08.08,0,0,0,.05.15c1.21-.39,5.75-1.46,7.08-1.64a25.05,25.05,0,0,1,9.36.46,21.47,21.47,0,0,1,6.79,3.57,25.23,25.23,0,0,1,3.16,3C262.48,258.86,262.64,258.75,262.57,258.66Z" style="fill:#263238"></path></g><g id="freepik--character-1--inject-79"><path d="M195.48,443c-2.12.69-62.46-.08-64.73-1.57-.88-.55-1.28-9.35-1.46-20v-.33c0-2.19-.07-4.45-.08-6.74,0-.32,0-.63,0-.95l2.92-31.3,40.37.4-4,31,0,1.22-.24,6.42,0,.66s23,10.63,25.3,12.53S197.6,442.33,195.48,443Z" style="fill:#d3766a"></path><path d="M195.48,443c-2.12.69-62.46-.08-64.73-1.57-.88-.55-1.28-9.35-1.46-20v-.33c0-2.19-.07-4.45-.08-6.74,0-.32,0-.63,0-.95l39.31.11,0,1.22-.24,6.42,0,.66s23,10.63,25.3,12.53S197.6,442.33,195.48,443Z" style="fill:#ebebeb"></path><path d="M195.48,443c-1.09.35-17.48.32-33.5,0l-9.48-.22c-11.43-.31-20.87-.78-21.75-1.35s-1.27-9.1-1.44-19.55c0-.15,0-.3,0-.45s0-.23,0-.34h0l38.89.07,0,.66s23,10.62,25.3,12.52S197.6,442.33,195.48,443Z" style="fill:#4F46E5"></path><path d="M194.82,440.66c-10.16-.38-51.21-1-61.29-.56-.08,0-.08.06,0,.07,10.07.59,51.12.83,61.29.65C195,440.82,195,440.66,194.82,440.66Z" style="fill:#263238"></path><path d="M172.55,421.33c-4-.8-8.89-.25-12,2.57-.12.1,0,.27.17.23a56.9,56.9,0,0,1,11.8-2.3A.25.25,0,0,0,172.55,421.33Z" style="fill:#263238"></path><path d="M175.42,423.11c-4-.8-8.9-.25-12,2.56-.12.11,0,.28.17.24a56.9,56.9,0,0,1,11.8-2.3A.25.25,0,0,0,175.42,423.11Z" style="fill:#263238"></path><path d="M178.29,424.88c-4-.79-8.9-.24-12,2.57-.12.11,0,.28.16.24a56.47,56.47,0,0,1,11.81-2.3A.26.26,0,0,0,178.29,424.88Z" style="fill:#263238"></path><path d="M162,443l-9.48-.22c-11.43-.31-20.87-.78-21.75-1.35s-1.27-9.1-1.44-19.55c0-.15,0-.3,0-.45s0-.23,0-.34h0C134.66,424.83,153.44,437.32,162,443Z" style="fill:#263238"></path><path d="M170.55,421.3H127.09s8.73-101.5,8.39-103.28c-.44-2.27-3-12.54-6.43-26-1.07-4.2-2.22-8.7-3.42-13.37-3.25-12.63-6.82-26.43-9.93-38.44-4.68-18-8.33-32-8.33-32H144.2s4.3,13.61,9.71,31.31c8.82,28.77,20.61,68.37,21.77,78C177.57,333.14,170.55,421.3,170.55,421.3Z" style="fill:#455a64"></path><path d="M168.62,413.88c-6.64-.13-4.73-.19-11.37-.25-3.25,0-24.59-.21-27.63.29-.06,0-.06.12,0,.14,3,.5,24.38.31,27.63.27,6.64-.06,4.73-.11,11.37-.25C168.74,414.07,168.74,413.88,168.62,413.88Z" style="fill:#263238"></path><path d="M143.65,311.83c-1.43-6.28-3.56-12.44-5.41-18.6q-5.66-18.8-11.38-37.57-2.85-9.37-5.73-18.76c-1-3.16-1.95-6.32-2.94-9.47s-2.06-6.14-2.94-9.25c-.35-1.27-.55-.57-.09,1,.91,3.24,1.82,6.48,2.77,9.71q2.8,9.62,5.65,19.2,5.65,19.1,11.41,38.16,2.87,9.57,5.76,19.13a79.3,79.3,0,0,1,2.35,9.25,42.5,42.5,0,0,1,.38,9.89c-.41,6.65-1.18,13.29-1.79,19.92s-1.23,13.3-1.84,19.95q-1.84,19.83-3.64,39.68-.22,2.52-.42,5c0,.56.81.52.86,0,1.43-13.09,2.53-26.21,3.75-39.31l3.66-39.11c.3-3.27.65-6.55.65-9.84A40.46,40.46,0,0,0,143.65,311.83Z" style="fill:#263238"></path><path d="M107.37,208.3a.66.66,0,0,1,0,.09c.32,1.23,3.85,14.74,8.31,31.88,3.11,12,6.68,25.8,9.92,38.43.24.92.48,1.82.71,2.71,4.26-25.38,11.5-56.14,13.69-73.12Z" style="fill:#263238"></path><path d="M148.66,443.6c-2.12.69-62.46.14-64.74-1.34-.88-.55-1.31-9.35-1.53-20v-.34c0-2.19-.09-4.45-.1-6.74,0-.31,0-.63,0-.94-.14-15.36,1-31.31,1-31.31l39.45.25-1.1,31,0,1.22-.22,6.42,0,.66s23,10.55,25.34,12.44S150.77,442.91,148.66,443.6Z" style="fill:#d3766a"></path><path d="M148.66,443.6c-2.12.69-62.46.14-64.74-1.34-.88-.55-1.31-9.35-1.53-20v-.34c0-2.19-.09-4.45-.1-6.74,0-.31,0-.63,0-.94l39.31,0,0,1.22-.22,6.42,0,.66s23,10.55,25.34,12.44S150.77,442.91,148.66,443.6Z" style="fill:#ebebeb"></path><path d="M148.66,443.6c-2.12.69-62.46.14-64.74-1.34-.88-.55-1.31-9.35-1.53-20v-.34l38.93-.08,0,.66s23,10.55,25.34,12.44S150.77,442.91,148.66,443.6Z" style="fill:#4F46E5"></path><path d="M148,441.25c-10.16-.34-51.21-.76-61.29-.33-.08,0-.08.06,0,.07,10.07.56,51.12.64,61.29.43C148.21,441.41,148.21,441.26,148,441.25Z" style="fill:#263238"></path><path d="M125.65,422c-4-.78-8.89-.21-12,2.61-.12.11,0,.28.17.24a56.36,56.36,0,0,1,11.79-2.34A.26.26,0,0,0,125.65,422Z" style="fill:#263238"></path><path d="M128.53,423.77c-4-.78-8.9-.21-12,2.61-.12.11,0,.28.16.24a56.32,56.32,0,0,1,11.8-2.34A.26.26,0,0,0,128.53,423.77Z" style="fill:#263238"></path><path d="M131.4,425.54c-4-.78-8.9-.21-12,2.61-.12.11,0,.28.17.24A56.25,56.25,0,0,1,131.38,426,.25.25,0,0,0,131.4,425.54Z" style="fill:#263238"></path><path d="M143,208.29s-.85,17.62-4.88,31.58c-.32,1.16-.67,2.29-1,3.38a64.89,64.89,0,0,0-10.61,5.46s-.42,14.18-.84,30c-.47,17.67-.95,37.39-.85,41.57.37,15.65-1.94,101.67-1.94,101.67l-43.44.19s7.83-96.07,7.77-101.8c-.08-9.22,2.1-49.93,3.78-79.63,1-18.29,1.87-32.39,1.87-32.39Z" style="fill:#455a64"></path><path d="M121.35,414.22c-6.63-.11-4.73-.18-11.37-.21-3.24,0-24.59-.11-27.62.41a.07.07,0,0,0,0,.13c3,.49,24.38.21,27.63.17,6.64-.1,4.73-.14,11.36-.31A.1.1,0,1,0,121.35,414.22Z" style="fill:#263238"></path><path d="M96.48,214.6c-.8,24.24-1.64,48.48-2.72,72.71s-2.54,48.62-4.57,72.87c-1.13,13.55-2.2,32.61-3.66,46.13,0,.09.13.12.14,0,3.16-24,4.92-53.78,6.47-78s2.6-48.42,3.42-72.65c.46-13.71.81-27.42,1.22-41.13C96.79,214.39,96.48,214.41,96.48,214.6Z" style="fill:#263238"></path><path d="M138.89,242.2a80.66,80.66,0,0,0-12.42,6.51.14.14,0,1,0,.13.25c4.19-2,8.47-4,12.54-6.26A.28.28,0,0,0,138.89,242.2Z" style="fill:#263238"></path><path d="M139.13,227.25c-.29,1.54-.66,3.07-1,4.61s-.55,2.91-.93,4.33a7.35,7.35,0,0,1-2,3.63c-.57.53-1.19,1-1.79,1.48-.33.25-.68.5-1,.77.05-.21.08-.41.12-.62l.3-1.76c.22-1.3.42-2.61.62-3.91.39-2.56.75-5.15,1.29-7.69a.08.08,0,0,0-.16,0c-.64,2.52-1.34,5-1.9,7.54-.27,1.24-1.24,7.38-1.29,7.81s-.08.9-.09,1.35a4.91,4.91,0,0,0,0,1.38.11.11,0,0,0,.2,0h0a5.72,5.72,0,0,0,.39-1.34c.11-.44.21-.88.29-1.33,0-.16.05-.32.07-.49.61-.36,1.17-.85,1.74-1.26s1.23-.87,1.8-1.36a6.85,6.85,0,0,0,2.21-3.44,26.34,26.34,0,0,0,.72-4.41c.19-1.75.34-3.5.58-5.24C139.3,227.19,139.15,227.15,139.13,227.25Z" style="fill:#263238"></path><path d="M80.27,320.52c2.81-14.13,5.61-28.2,9.37-42.2a167,167,0,0,1,7-20.56,43.72,43.72,0,0,1,5.52-9.67,16,16,0,0,1,2.08-2.13,8.94,8.94,0,0,1,1.31-.93,5.91,5.91,0,0,1,1.66-.63,11.32,11.32,0,0,1,6.11.74,23.12,23.12,0,0,1,5.06,2.69,22,22,0,0,1,4.31,3.84,10.6,10.6,0,0,1,1.67,2.65,16.08,16.08,0,0,1,.72,2.92,52.4,52.4,0,0,1,.58,5.5c.41,7.27.35,14.48.07,21.69a309.36,309.36,0,0,1-4.32,43c.7-7.16,1.2-14.33,1.46-21.51s.49-14.35.55-21.52,0-14.36-.55-21.44c-.15-1.76-.32-3.53-.61-5.22a14.5,14.5,0,0,0-.56-2.31,8,8,0,0,0-1.22-1.88,21.23,21.23,0,0,0-8.2-5.62,8.67,8.67,0,0,0-4.45-.65c-1.1.18-2.39,1.42-3.43,2.66a43.09,43.09,0,0,0-5.2,9A185.79,185.79,0,0,0,91.84,279c-2.1,6.78-3.94,13.78-5.84,20.7Z" style="fill:#a6a6a6"></path><rect x="79.54" y="320.65" width="39.66" height="24.09" transform="translate(56.36 -11.85) rotate(9.51)" style="fill:#263238"></rect><rect x="86.23" y="317.81" width="6.98" height="1.04" transform="translate(53.85 -10.45) rotate(9.51)" style="fill:#263238"></rect><rect x="87.69" y="316.81" width="4.41" height="1.04" transform="translate(53.69 -10.49) rotate(9.51)" style="fill:#263238"></rect><polygon points="113.42 322.83 103.01 321.09 104.64 318.07 112.86 319.45 113.42 322.83" style="fill:#263238"></polygon><rect x="105.71" y="320.03" width="5.33" height="1.95" transform="translate(54.56 -13.5) rotate(9.52)" style="fill:#fff"></rect><polygon points="80.27 320.52 79.95 322.41 80.89 322.91 80.76 323.72 79.23 322.89 79.74 319.82 81.46 319.54 81.33 320.35 80.27 320.52" style="fill:#263238"></polygon><polygon points="121.39 327.41 121.07 329.3 120.01 329.47 119.88 330.28 121.6 330 122.11 326.93 120.58 326.1 120.44 326.9 121.39 327.41" style="fill:#263238"></polygon><path d="M92.44,323.22a67.64,67.64,0,0,1-2.85,17,59,59,0,0,1,.88-8.61A60.12,60.12,0,0,1,92.44,323.22Z" style="fill:#455a64"></path><path d="M104.52,344a9.84,9.84,0,1,1,11.33-8.07A9.86,9.86,0,0,1,104.52,344Zm3.16-18.85a9.28,9.28,0,1,0,7.62,10.69A9.28,9.28,0,0,0,107.68,325.12Z" style="fill:#37474f"></path><path d="M113.61,335.52a7.56,7.56,0,1,1-6.21-8.71A7.56,7.56,0,0,1,113.61,335.52Z" style="fill:#455a64"></path><path d="M131.36,161.64c6.39,15.69,17.83,39,26.48,41.16,7.24,1.84,25.11,2.26,36.72-1.46,3-1-.54-26.48-3.65-25.18-6.53,2.73-21.29,4.25-25.14,4-3.42-.23-18.85-18.45-27.78-26.77C127.16,143.28,128.81,155.38,131.36,161.64Z" style="fill:#d3766a"></path><path d="M149.21,164.3l-11.69,14.64s-5.85-12.63-7.82-21.23.53-11.89,10.23-3.08A93.84,93.84,0,0,1,149.21,164.3Z" style="fill:#4F46E5"></path><path d="M136.3,174.27A99.37,99.37,0,0,1,146,162.4c.07-.07.18,0,.12.09-.74,1.06-7.86,10.14-9.71,11.86A.06.06,0,0,1,136.3,174.27Z" style="fill:#263238"></path><path d="M144.28,170.48l-6.76,8.46s-5.86-12.63-7.82-21.23a19.19,19.19,0,0,1-.61-5.06Z" style="fill:#263238"></path><path d="M185.39,178.55l3.29,13.08v.05l.07.28,2.49,9.93a21.66,21.66,0,0,0,2.5,0h0a87.58,87.58,0,0,0,19.17-3.54c3.81-1.24,14.36-5.95,13.63-8.95s-3.93-1.89-3.93-1.89,4.16-2.66,3.16-5.6c-.83-2.42-4.28-1.6-5.51-1.22l-.2.06h0l-.22.08s4.08-3,2.87-5.9c-1.08-2.57-4.91-.66-5.7-.23l-.11.05s0,0,.07-.06c.63-.45,3.52-2.72,1.74-4.46-2.4-2.34-9,3.28-13.24,4.42-.21.06-1.3.28-2.88.6-1.8.36-4.22.82-6.69,1.3Z" style="fill:#d3766a"></path><path d="M202.91,180.89a35.29,35.29,0,0,0,5.72-.65A14.27,14.27,0,0,0,217,175c.12-.14.11-.25,0-.29h0c-.05,0-.13,0-.21.08a21.85,21.85,0,0,1-7.86,4.71,35.79,35.79,0,0,1-6,1.25C202.78,180.71,202.78,180.9,202.91,180.89Z" style="fill:#263238"></path><path d="M205.25,187.18c6.41-.85,10.11-1.63,15-6.17.16-.14.15-.32,0-.35a.2.2,0,0,0-.18.05h0c-5.37,3.82-8.44,4.89-14.84,6.29C205.13,187,205.16,187.19,205.25,187.18Z" style="fill:#263238"></path><path d="M222.17,187.77c-5.5,3.34-8.8,4.66-15.2,5.22a.12.12,0,0,0,0,.24c6.58.06,10.71-1.56,15.27-5.28C222.56,187.7,222.52,187.56,222.17,187.77Z" style="fill:#263238"></path><path d="M191.11,190.6a5.76,5.76,0,0,0,.88-.48l.24-.16v0c4.37-3.17,3.76-11,3.76-11a30.78,30.78,0,0,0,5.26-.91c2.49-.67,4.9-1.68,6-3.12,0,0,0,0,0,0a3,3,0,0,0,.62-1.28,2.4,2.4,0,0,0,.06-.76.19.19,0,0,0,0-.07c-.21-1.43-3.5-2.11-7.24-2.29-4.12-.2-8.79.2-10.52.87-2.23.88-9.6,7.44-9.6,7.44S185.53,193.15,191.11,190.6Z" style="fill:#d3766a"></path><path d="M207.71,173.93c-2.33,3.81-7.76,3.92-11.73,4.56a.37.37,0,0,0-.29.53c0,3.86-1,9.31-4.34,11.68a.09.09,0,0,0,.1.16c3.9-2.06,5.38-7.33,5.07-11.55,4.08-.59,9.52-.94,11.23-5.36C207.76,173.93,207.73,173.91,207.71,173.93Z" style="fill:#263238"></path><path d="M92.07,223.12h57.24c.77-.87-11.95-66-18.09-74.11-1.31-1.72-9.6-4.07-14.41-.15-10.22,8.32-17.15,35.77-19.69,44.26A141.78,141.78,0,0,0,92.07,223.12Z" style="fill:#4F46E5"></path><path d="M124.43,260.34a4.38,4.38,0,0,1-5,.45,6.46,6.46,0,0,1-2.57,3.57c-2.27,1.4-5.46-1.55-5.46-1.55a7.91,7.91,0,0,1-3.32,3.33c-2.3,1.12-5.94-1.39-5.94-1.39a7,7,0,0,1-4.76,1.1c-4.43-.77-7-7.12-8.73-11.14s-2.72-17-3.17-19.47l25.72-11.09S124,240,125.28,245C126.39,249.26,127,258.05,124.43,260.34Z" style="fill:#d3766a"></path><path d="M119.81,260.43c-.11-4.77-1.62-9.25-2.87-13.81a.08.08,0,0,0-.16,0c1.3,4.52,1.69,9.23,2.8,13.8C119.61,260.59,119.81,260.56,119.81,260.43Z" style="fill:#263238"></path><path d="M111.74,262.58a12.9,12.9,0,0,0-.8-3.15q-.54-1.64-1.14-3.27-1.18-3.24-2.54-6.44c0-.09-.2-.05-.16.05.79,2.16,1.54,4.33,2.24,6.53.35,1.09.68,2.19,1,3.3a14,14,0,0,0,1.08,3.07A.16.16,0,0,0,111.74,262.58Z" style="fill:#263238"></path><path d="M102.15,264.66a8.78,8.78,0,0,0-.88-2.8c-.38-1-.76-2-1.13-2.95-.74-2-1.48-3.94-2.16-5.93,0-.1-.19,0-.15.05.67,2,1.32,4.06,2,6.08.34,1,.68,2,1,3a8.12,8.12,0,0,0,1.18,2.61S102.15,264.71,102.15,264.66Z" style="fill:#263238"></path><path d="M85.52,235.24c-2.89-12.67-10.37-37.3-6.47-43.93s28.23-35.42,33.32-39.81,9.48-2.49,5.58,5.87-15.4,37.1-16.33,38.94,10.22,25.4,11.1,29.73S86.1,237.8,85.52,235.24Z" style="fill:#d3766a"></path><path d="M112.53,172l-17.86-5.65s9.68-10,17-14.93,11.29-3.77,6.55,8.44A94.81,94.81,0,0,1,112.53,172Z" style="fill:#4F46E5"></path><path d="M99,163.42a99.57,99.57,0,0,1,14.46,5.05.07.07,0,1,1,0,.14c-1.25-.34-12.21-3.93-14.46-5.09C98.86,163.49,98.9,163.4,99,163.42Z" style="fill:#263238"></path><path d="M118,162.83s0-.06,0,0c-.46.61-.9,1.24-1.33,1.87.46-1.1.9-2.2,1.31-3.33,0,0,0,0,0,0-.91,1.8-4.93,9.86-5.37,10.7-.09,0-.41-.12-.76-.25-.08,0-.14.11-.06.14a6.26,6.26,0,0,0,1.06.46,28.41,28.41,0,0,0,2.9-5.48c.22-.47.42-1,.63-1.44C116.89,164.6,117.47,163.73,118,162.83Z" style="fill:#263238"></path><path d="M128.59,157.75c-2.07.31-8.14-3.47-10.44-7.56-.16-.28.88-11.58.86-13.83,0-.47,14.21,3.27,14.21,3.27a36.07,36.07,0,0,0-1.27,8.7,5.39,5.39,0,0,0,.11.92.68.68,0,0,1,0,.15C132.39,151.16,131.63,157.3,128.59,157.75Z" style="fill:#d3766a"></path><path d="M119.92,136.42c.57,3.42,2.87,13,10.71,13.08a8.19,8.19,0,0,0,1.45-.1.89.89,0,0,1,0-.15,4.57,4.57,0,0,1-.1-.93,35.73,35.73,0,0,1,1.26-8.69S123.07,137,119.92,136.42Z" style="fill:#263238"></path><path d="M119.64,117.09c-2.53,4.66-2.82,19.53.06,23.45,4.18,5.67,12.47,7.82,17.66,2.47,5-5.19,5.07-24.58,1.71-28.29C134.13,109.26,123.36,110.21,119.64,117.09Z" style="fill:#d3766a"></path><path d="M132,129s-.08,0-.08.08c0,1-.15,2.15-1.07,2.46a0,0,0,0,0,0,.06C132,131.43,132.21,129.9,132,129Z" style="fill:#263238"></path><path d="M131.17,127.89c-1.61-.16-1.81,3.06-.32,3.21S132.52,128,131.17,127.89Z" style="fill:#263238"></path><path d="M137.72,129.45s.07.06.07.1c-.1,1,0,2.15.85,2.54,0,0,0,.07,0,.06C137.53,131.92,137.47,130.38,137.72,129.45Z" style="fill:#263238"></path><path d="M138.68,128.47c1.61,0,1.53,3.21,0,3.23S137.32,128.48,138.68,128.47Z" style="fill:#263238"></path><path d="M130,126.33a11.6,11.6,0,0,0,1.28-.36,2.11,2.11,0,0,0,1.23-.62.68.68,0,0,0-.06-.83,1.68,1.68,0,0,0-1.69-.28,2.48,2.48,0,0,0-1.5,1A.73.73,0,0,0,130,126.33Z" style="fill:#263238"></path><path d="M140,126.92c-.44-.1-.83-.27-1.26-.41a2.21,2.21,0,0,1-1.21-.67.69.69,0,0,1,.09-.83,1.69,1.69,0,0,1,1.71-.21,2.5,2.5,0,0,1,1.46,1A.73.73,0,0,1,140,126.92Z" style="fill:#263238"></path><path d="M130.13,138.15c.22.25.44.59.8.64a2.69,2.69,0,0,0,1.09-.18s.07,0,0,0a1.33,1.33,0,0,1-1.3.46,1,1,0,0,1-.73-.93C130,138.13,130.1,138.11,130.13,138.15Z" style="fill:#263238"></path><path d="M131.37,135.22a3.41,3.41,0,0,0,2.18,1.66,4.16,4.16,0,0,0,1.22.14,1,1,0,0,0,.24,0,.86.86,0,0,0,.22,0c.11,0,.18-.1.21-.21h0v-.11h0v-.09c.07-.77.07-1.95.07-1.95.27.16,1.67.9,1.67.5a51.75,51.75,0,0,0-.66-10.39.1.1,0,0,0-.19,0c-.14,3.21.29,6.43.2,9.66a5.49,5.49,0,0,0-1.58-.59c-.11,0,0,2.27,0,2.61v0a4.74,4.74,0,0,1-3.46-1.32C131.4,135.08,131.32,135.14,131.37,135.22Z" style="fill:#263238"></path><path d="M134.34,136.6a4.11,4.11,0,0,1-1.7,1.15,1.91,1.91,0,0,1-1.11,0c-.78-.26-.75-1-.57-1.62a4.31,4.31,0,0,1,.42-.93A5.3,5.3,0,0,0,134.34,136.6Z" style="fill:#263238"></path><path d="M132.64,137.75a1.91,1.91,0,0,1-1.11,0c-.78-.26-.75-1-.57-1.62A1.89,1.89,0,0,1,132.64,137.75Z" style="fill:#ff9abb"></path><path d="M118,130.67c2.73-.38,5.31-9,5.31-9s-.55,3.73.16,3.74,4.3-4.65,5.13-8.24a28.86,28.86,0,0,0,6.19,4.18c3.18,1.46,6.54,1.66,6.52,1.09-.07-1.76-.4-6.13-1.54-7.46a12.65,12.65,0,0,0-12.36-3.73,11.61,11.61,0,0,0-8.82,7.19C117.39,121,117,130.81,118,130.67Z" style="fill:#263238"></path><path d="M141.29,118.54c-1.36-.53-9.2-1.35-12.91-.31s-10.62,5.24-11,5.46-.22-12.86,10.52-13.8C139.65,108.86,141.29,118.54,141.29,118.54Z" style="fill:#4F46E5"></path><path d="M118.08,123.24s8.12-8.17,12.24-9.72,12.85-1.58,17.84,1.47c3.9,2.38-6.93,6.34-6.93,6.34a2.88,2.88,0,0,0-1.34-2.21c-2.44-1.38-7.46-1.25-10.38-.69C125.83,119.14,118.08,123.24,118.08,123.24Z" style="fill:#4F46E5"></path><path d="M118.08,123.24s8.12-8.17,12.24-9.72,12.85-1.58,17.84,1.47c3.9,2.38-6.93,6.34-6.93,6.34a2.88,2.88,0,0,0-1.34-2.21c-2.44-1.38-7.46-1.25-10.38-.69C125.83,119.14,118.08,123.24,118.08,123.24Z" style="opacity:0.2"></path><path d="M120.33,129.4s-2.41-5.25-4.73-4.47-1.11,8,1.2,9.34a2.56,2.56,0,0,0,3.63-.74Z" style="fill:#d3766a"></path><path d="M116,127s-.06,0,0,.07c1.61,1,2.23,2.8,2.57,4.59a1.43,1.43,0,0,0-2-.77s0,.11,0,.11a1.54,1.54,0,0,1,1.6.85,7.61,7.61,0,0,1,.57,1.53c0,.17.35.14.32-.05v0C119.49,131.06,118.34,127.64,116,127Z" style="fill:#263238"></path></g></svg>