<svg xmlns="http://www.w3.org/2000/svg" viewBox="0 0 500 500"><g id="freepik--background-complete--inject-105"><rect y="382.4" width="500" height="0.25" style="fill:#ebebeb"></rect><rect x="333.33" y="389.21" width="73.79" height="0.25" style="fill:#ebebeb"></rect><rect x="103.62" y="390.89" width="8.69" height="0.25" style="fill:#ebebeb"></rect><rect x="408.12" y="398.49" width="19.19" height="0.25" style="fill:#ebebeb"></rect><rect x="200" y="395.11" width="48.67" height="0.25" style="fill:#ebebeb"></rect><rect x="166.72" y="395.11" width="24.38" height="0.25" style="fill:#ebebeb"></rect><rect x="52.46" y="390.89" width="33.15" height="0.25" style="fill:#ebebeb"></rect><path d="M237,337.8H43.91a5.71,5.71,0,0,1-5.7-5.71V60.66A5.71,5.71,0,0,1,43.91,55H237a5.71,5.71,0,0,1,5.71,5.71V332.09A5.71,5.71,0,0,1,237,337.8ZM43.91,55.2a5.46,5.46,0,0,0-5.45,5.46V332.09a5.46,5.46,0,0,0,5.45,5.46H237a5.47,5.47,0,0,0,5.46-5.46V60.66A5.47,5.47,0,0,0,237,55.2Z" style="fill:#ebebeb"></path><path d="M453.31,337.8H260.21a5.72,5.72,0,0,1-5.71-5.71V60.66A5.72,5.72,0,0,1,260.21,55h193.1A5.71,5.71,0,0,1,459,60.66V332.09A5.71,5.71,0,0,1,453.31,337.8ZM260.21,55.2a5.47,5.47,0,0,0-5.46,5.46V332.09a5.47,5.47,0,0,0,5.46,5.46h193.1a5.47,5.47,0,0,0,5.46-5.46V60.66a5.47,5.47,0,0,0-5.46-5.46Z" style="fill:#ebebeb"></path><rect x="46.14" y="328.6" width="4.29" height="53.79" style="fill:#ebebeb"></rect><path d="M60.61,328.6c0,15.71-12.32,28.45-12.32,28.45S36,344.31,36,328.6s12.32-28.44,12.32-28.44S60.61,312.89,60.61,328.6Z" style="fill:#f5f5f5"></path><rect x="62.97" y="313.53" width="5.49" height="68.87" style="fill:#f5f5f5"></rect><path d="M81.5,313.53c0,20.11-15.78,36.41-15.78,36.41S50,333.64,50,313.53s15.77-36.42,15.77-36.42S81.5,293.41,81.5,313.53Z" style="fill:#e6e6e6"></path><path d="M111.56,97.38v285H172.2V254.57h0a97.11,97.11,0,0,1,97.11-97.11V97.38Z" style="fill:#ebebeb"></path><path d="M133.36,97.38V254.57a97.12,97.12,0,0,1,194.23,0V97.38Z" style="fill:#f5f5f5"></path><rect x="72.73" y="97.38" width="60.63" height="285.02" style="fill:#f5f5f5"></rect><path d="M102.57,296h1A19.51,19.51,0,0,1,123,315.56V382.4a0,0,0,0,1,0,0h-40a0,0,0,0,1,0,0V315.56A19.51,19.51,0,0,1,102.57,296Z" style="fill:#ebebeb"></path><rect x="80.17" y="161.93" width="45.75" height="43.24" style="fill:#fff"></rect><rect x="70.95" y="250.07" width="103.05" height="6.95" style="fill:#e0e0e0"></rect><rect x="327.58" y="97.38" width="60.63" height="285.02" style="fill:#f5f5f5"></rect><path d="M357.42,296h1a19.51,19.51,0,0,1,19.51,19.51V382.4a0,0,0,0,1,0,0h-40a0,0,0,0,1,0,0V315.56A19.51,19.51,0,0,1,357.42,296Z" style="fill:#ebebeb"></path><rect x="388.22" y="97.38" width="38.87" height="285.02" transform="translate(815.3 479.78) rotate(180)" style="fill:#ebebeb"></rect><rect x="335.02" y="161.93" width="45.75" height="43.24" style="fill:#fff"></rect><rect x="325.81" y="250.07" width="103.05" height="6.95" style="fill:#e0e0e0"></rect><rect x="70.95" y="134.47" width="357.91" height="6.95" style="fill:#e0e0e0"></rect><rect x="70.95" y="93.9" width="357.91" height="6.95" style="fill:#e0e0e0"></rect><path d="M95.83,117.66A6.67,6.67,0,1,1,89.16,111,6.67,6.67,0,0,1,95.83,117.66Z" style="fill:#ebebeb"></path><path d="M142.93,117.66a6.67,6.67,0,1,1-6.67-6.67A6.67,6.67,0,0,1,142.93,117.66Z" style="fill:#ebebeb"></path><path d="M190,117.66a6.67,6.67,0,1,1-6.67-6.67A6.67,6.67,0,0,1,190,117.66Z" style="fill:#ebebeb"></path><path d="M237.14,117.66a6.67,6.67,0,1,1-6.67-6.67A6.67,6.67,0,0,1,237.14,117.66Z" style="fill:#ebebeb"></path><path d="M284.24,117.66a6.67,6.67,0,1,1-6.67-6.67A6.67,6.67,0,0,1,284.24,117.66Z" style="fill:#ebebeb"></path><path d="M331.35,117.66a6.67,6.67,0,1,1-6.67-6.67A6.67,6.67,0,0,1,331.35,117.66Z" style="fill:#ebebeb"></path><path d="M378.45,117.66a6.67,6.67,0,1,1-6.67-6.67A6.67,6.67,0,0,1,378.45,117.66Z" style="fill:#ebebeb"></path><rect x="206.3" y="346.7" width="2.85" height="35.7" style="fill:#e6e6e6"></rect><path d="M215.9,346.7c0,10.42-8.18,18.88-8.18,18.88s-8.18-8.46-8.18-18.88,8.18-18.88,8.18-18.88S215.9,336.28,215.9,346.7Z" style="fill:#f5f5f5"></path><rect x="230.26" y="336.69" width="3.65" height="45.7" style="fill:#ebebeb"></rect><path d="M242.55,336.69c0,13.35-10.46,24.17-10.46,24.17S221.62,350,221.62,336.69s10.47-24.16,10.47-24.16S242.55,323.35,242.55,336.69Z" style="fill:#f0f0f0"></path><rect x="291.59" y="352.3" width="2.4" height="30.09" transform="translate(585.59 734.7) rotate(180)" style="fill:#ebebeb"></rect><path d="M285.9,352.3c0,8.79,6.89,15.92,6.89,15.92s6.9-7.13,6.9-15.92-6.9-15.91-6.9-15.91S285.9,343.52,285.9,352.3Z" style="fill:#f0f0f0"></path><rect x="270.72" y="343.87" width="3.07" height="38.53" transform="translate(544.51 726.27) rotate(180)" style="fill:#e6e6e6"></rect><path d="M263.43,343.87c0,11.25,8.82,20.37,8.82,20.37s8.83-9.12,8.83-20.37-8.83-20.37-8.83-20.37S263.43,332.62,263.43,343.87Z" style="fill:#f5f5f5"></path><rect x="445.18" y="342.29" width="3.2" height="40.1" transform="translate(893.56 724.69) rotate(180)" style="fill:#ebebeb"></rect><path d="M437.6,342.29c0,11.71,9.18,21.21,9.18,21.21S456,354,456,342.29s-9.19-21.2-9.19-21.2S437.6,330.58,437.6,342.29Z" style="fill:#f0f0f0"></path><rect x="417.36" y="331.05" width="4.1" height="51.34" transform="translate(838.82 713.45) rotate(180)" style="fill:#e0e0e0"></rect><path d="M407.65,331.05c0,15,11.76,27.15,11.76,27.15s11.76-12.15,11.76-27.15-11.76-27.14-11.76-27.14S407.65,316.06,407.65,331.05Z" style="fill:#fafafa"></path></g><g id="freepik--Shadow--inject-105"><ellipse id="freepik--path--inject-105" cx="250" cy="416.24" rx="193.89" ry="11.32" style="fill:#f5f5f5"></ellipse></g><g id="freepik--character-1--inject-105"><path d="M106.55,122c-5.5,7-13.43,24.7-5.13,30.71s29,4.36,34.89,0,2.32-26.35-8.72-32.86S105.1,118.09,106.55,122Z" style="fill:#263238"></path><path d="M134.61,217.32s-.39,48.9-3.46,89.07c-6.62,39.76-3.26,94.34-3.26,94.34h-6.34S106,328.3,113,305c-4.18-29.88-2.88-86.87-2.88-86.87Z" style="fill:#ffb573"></path><path d="M142.18,171.37c.28.37.7.9,1.07,1.35l1.17,1.41c.8.93,1.63,1.84,2.48,2.73a53.88,53.88,0,0,0,5.34,4.94,35.72,35.72,0,0,0,5.81,3.8,18.91,18.91,0,0,0,6.06,2l.52.07a1.06,1.06,0,0,0-.7.12c-.09.07.06,0,.27-.15a8.44,8.44,0,0,0,1.55-1.95,39.73,39.73,0,0,0,2.84-6c.85-2.15,1.61-4.39,2.34-6.66s1.42-4.58,2.08-6.84v-.05a2.31,2.31,0,0,1,4.53.78c-.15,2.54-.46,5-.82,7.47s-.87,5-1.5,7.43a39.84,39.84,0,0,1-2.66,7.54,16.37,16.37,0,0,1-2.66,4,8.56,8.56,0,0,1-2.68,2,7.09,7.09,0,0,1-4.28.53l.53.08a26,26,0,0,1-9.18-2.29,38,38,0,0,1-7.66-4.57,56.11,56.11,0,0,1-6.46-5.7c-1-1-1.94-2.07-2.87-3.16q-.69-.81-1.35-1.65c-.46-.59-.85-1.1-1.35-1.81a4.64,4.64,0,0,1,7.5-5.46Z" style="fill:#ffb573"></path><path d="M182.11,161.2l-2.17-3.2a2.18,2.18,0,0,0-3.2-.45h0a8.92,8.92,0,0,0-3,4.88l-1.34,6,1.47,4c3.76-.29,6.12-5.61,6.12-5.61l2.11-3.21A2.16,2.16,0,0,0,182.11,161.2Z" style="fill:#ffb573"></path><path d="M148,173.16a27.1,27.1,0,0,0,2.71,2.85s-2.43,10.17-8.25,13.38A4,4,0,0,1,140,187Z" style="fill:#263238"></path><path d="M134.64,165.34c8.46.95,11.13,5.37,14.71,8.22.24,6-8.65,14.66-8.65,14.66S122.83,164,134.64,165.34Z" style="fill:#4F46E5"></path><path d="M142.93,173c1,13.65-7.29,24-8,38.39l-34.45-.84c1-14,.57-12.62-4.35-39.73a5.57,5.57,0,0,1,4.83-6.52c2.56-.29,5.73-.57,9.06-.63a116.5,116.5,0,0,1,16.73.47c3.59.43,7.42,1.12,10.35,1.7C140.52,166.49,142.67,169.5,142.93,173Z" style="fill:#4F46E5"></path><path d="M126.77,164.11,110,163.64s.48,6.46,15.72,13.67C132.76,169.07,126.77,164.11,126.77,164.11Z" style="fill:#fff"></path><path d="M125.89,171.46c2.31.59,5.68,4.65,6.67,8.7,6.92-10.36-5.79-16-5.79-16Z" style="fill:#263238"></path><path d="M121.81,172c-2.27.74-6.57,4.91-7.29,9-7.59-9.88-4.48-17.43-4.48-17.43Z" style="fill:#263238"></path><path d="M112.23,144.85c.91,5.41,1.68,15.3-2.19,18.79,0,0,6.82,7.39,14.59,9.34a8.78,8.78,0,0,0,2.14-8.87c-6-1.6-5.68-6.05-4.52-10.2Z" style="fill:#ffb573"></path><path d="M116.32,148.55l5.93,5.35a17.27,17.27,0,0,0-.6,3c-2.28-.4-5.36-3-5.54-5.41A8,8,0,0,1,116.32,148.55Z" style="opacity:0.2"></path><path d="M106.83,134.82c1.87,8.81,2.47,12.58,7.64,16.47,7.77,5.87,18.18,1.65,19-7.54.72-8.27-2.45-21.29-11.67-23.54A12.29,12.29,0,0,0,106.83,134.82Z" style="fill:#ffb573"></path><path d="M120.16,135.61c.11.72.58,1.25,1.06,1.18s.76-.71.66-1.44-.58-1.25-1-1.18S120.06,134.88,120.16,135.61Z" style="fill:#263238"></path><path d="M129.44,134.26c.1.73.58,1.26,1.05,1.19s.77-.72.66-1.44-.58-1.25-1.05-1.18S129.33,133.54,129.44,134.26Z" style="fill:#263238"></path><path d="M129.9,132.9l1.66-.76S130.87,133.63,129.9,132.9Z" style="fill:#263238"></path><path d="M126.37,136a19.8,19.8,0,0,0,3.26,4.24,3.13,3.13,0,0,1-2.5.86Z" style="fill:#ed893e"></path><path d="M124.87,144.08a7.49,7.49,0,0,0,1.23-.07.22.22,0,0,0,.18-.25.2.2,0,0,0-.24-.18,5.82,5.82,0,0,1-5-1.55.21.21,0,0,0-.3,0,.22.22,0,0,0,0,.31A6,6,0,0,0,124.87,144.08Z" style="fill:#263238"></path><path d="M105.47,139.77a6.61,6.61,0,0,0,3.46,3.65c2.12.92,3.49-.9,3.17-3.06-.29-2-1.74-4.77-4-4.78A3,3,0,0,0,105.47,139.77Z" style="fill:#ffb573"></path><path d="M116.67,132.22a.42.42,0,0,0,.31-.15,3.4,3.4,0,0,1,2.82-1.29.43.43,0,0,0,.48-.38.42.42,0,0,0-.38-.47,4.25,4.25,0,0,0-3.58,1.59.42.42,0,0,0,.05.6A.39.39,0,0,0,116.67,132.22Z" style="fill:#263238"></path><path d="M131.09,129.8a.4.4,0,0,0,.24-.2.43.43,0,0,0-.18-.58,4.27,4.27,0,0,0-3.92-.13.43.43,0,1,0,.42.76,3.39,3.39,0,0,1,3.1.13A.45.45,0,0,0,131.09,129.8Z" style="fill:#263238"></path><path d="M120.62,134.24l1.67-.76S121.6,135,120.62,134.24Z" style="fill:#263238"></path><path d="M120.79,217.78s-4.67,49-11.23,89.33C99.48,347,98.09,400.73,98.09,400.73H91.75s-9.2-71.65-.14-95c-1.55-30,4.73-87.12,4.73-87.12Z" style="fill:#ffb573"></path><path d="M111.61,414.47c-1.11-1.24-5.57-2.87-5.57-2.87s-4-2.56-6.44-13.27a.71.71,0,0,0-.51-.53l-7.7-1.88a.85.85,0,0,0-1,.62A13.28,13.28,0,0,0,90,399c-.09,1-.24,2.58-.31,3.59-.26,3.73-.58,12.12-.58,12.12H90a65.55,65.55,0,0,1,1.13-7.61c.65-2.46,2.13.45,2.86,3.23s4.38,5.74,10.05,5.88C110.68,416.37,112.77,415.76,111.61,414.47Z" style="fill:#263238"></path><path d="M135,211.36c7.31,23.08.41,59.22-3.06,103.46-16,2.4-31.38,2.26-46-1.35,10.58-50.78-5-88.45,14.65-103Z" style="fill:#263238"></path><path d="M86.93,307.86c-.16.88-.32,1.78-.5,2.68,14.58,3.48,29.87,3.65,45.69,1.35l.24-2.87C116.63,311.34,101.42,311.23,86.93,307.86Z" style="fill:#fff"></path><polygon points="117.62 267.26 118.97 244.96 126.66 234.37 117.62 267.26" style="opacity:0.2"></polygon><path d="M103.49,174.59c-.88,1.06-1.66,1.94-2.53,2.85s-1.71,1.79-2.59,2.65c-1.75,1.75-3.62,3.38-5.55,5a56.12,56.12,0,0,1-12.88,8.15,35.22,35.22,0,0,1-3.77,1.4l-1,.28c-.38.09-.8.2-1.15.26a19.2,19.2,0,0,1-2.13.28,48.2,48.2,0,0,1-7.63-.1A92.66,92.66,0,0,1,50,192.92a2.31,2.31,0,0,1,.52-4.56h.06c4.64-.06,9.34-.1,13.86-.33a52.66,52.66,0,0,0,6.47-.68c.49-.1,1-.19,1.36-.31.22-.06.37-.13.56-.18l.7-.26a26.28,26.28,0,0,0,2.79-1.25A41.16,41.16,0,0,0,81.71,182c1.78-1.25,3.52-2.61,5.2-4.05s3.3-3,4.91-4.56c.8-.78,1.58-1.58,2.35-2.39s1.56-1.66,2.21-2.39l.06-.08a4.64,4.64,0,0,1,7,6Z" style="fill:#ffb573"></path><path d="M91.65,171.35a27.87,27.87,0,0,1-2.46,3.07s3.29,9.93,9.36,12.63a4,4,0,0,0,2.17-2.64Z" style="fill:#263238"></path><path d="M101.39,164.22c-6.53.39-8.66,4.1-10.92,8.09,2,5.69,10.31,14.83,10.31,14.83S113.25,163.52,101.39,164.22Z" style="fill:#4F46E5"></path><path d="M53.43,189.56l-7.09-6.77L45.77,192s4.92,3.12,8.21,1.27Z" style="fill:#ffb573"></path><path d="M40.4,183.93l-.91,4.25A2.08,2.08,0,0,0,41,190.62L45.77,192l.57-9.21-4.19-.2A1.71,1.71,0,0,0,40.4,183.93Z" style="fill:#ffb573"></path><path d="M142.61,414.47c-1.21-1.24-5.82-2.87-5.82-2.87s-4.18-2.56-7.6-13.27a.79.79,0,0,0-.55-.53l-7.87-1.88a.78.78,0,0,0-1,.62,13.16,13.16,0,0,0-.15,2.46c0,1,0,2.58,0,3.59.07,3.73.48,12.12.48,12.12H121a63.33,63.33,0,0,1,.47-7.61c.43-2.46,2.17.45,3.14,3.23s4.88,5.74,10.56,5.88C141.85,416.37,143.88,415.76,142.61,414.47Z" style="fill:#263238"></path><path d="M189.58,142.47a14.47,14.47,0,0,0-3-.93l.19-1a15.21,15.21,0,0,1,3.22,1Z" style="fill:#4F46E5"></path><path d="M195,143.58v-1a11.63,11.63,0,0,0,11.14-7.21l.93.37A12.6,12.6,0,0,1,195,143.58Z" style="fill:#4F46E5"></path><path d="M193.81,131.19a16.56,16.56,0,0,0-12-3.19l-1.54,10.44c2.15-1.17,7.14-.8,10.78.84s10.45,1.05,12.79-4.83C199.22,137.1,197.19,133.74,193.81,131.19Z" style="fill:#4F46E5"></path><path d="M175.13,173.68h-.08a.55.55,0,0,1-.46-.63l6.9-46.85a.55.55,0,0,1,.62-.47.57.57,0,0,1,.47.63l-6.91,46.85A.54.54,0,0,1,175.13,173.68Z" style="fill:#263238"></path><path d="M173.37,166c.49-3.52,3.43-5.62,4.78-8.12.22-.42.93-.26,1.12.17.36.85-.65,2.86-1.09,3.37-.62.72-.73,5.48-3.51,6.85A2.52,2.52,0,0,1,173.37,166Z" style="fill:#ffb573"></path><path d="M100,208.43a11.89,11.89,0,0,0-.5,2,.54.54,0,0,0,.46.62c3.68.47,25.27,3.07,35.05,1.42a.54.54,0,0,0,.44-.52c0-.61.08-1.56.12-2.16a.53.53,0,0,0-.52-.57c-3.4,0-21.27-.21-34.52-1.12A.54.54,0,0,0,100,208.43Z" style="fill:#fff"></path><path d="M119.85,208.43a28.77,28.77,0,0,1,7.43.38c.54.32.3,4.29-.17,4.54-.94.49-6.31.22-7.28-.07S119.17,208.64,119.85,208.43Z" style="fill:#e0e0e0"></path><path d="M109,120.71c7.1.61,3.48,16-5.43,26.53C100.5,140.34,100.52,128,109,120.71Z" style="fill:#263238"></path><path d="M109.41,122.29c6.77,4.58,23.24,7.51,21.2,3.18S112.22,111.62,109.41,122.29Z" style="fill:#263238"></path></g><g id="freepik--character-2--inject-105"><polygon points="258.49 408.87 249.69 408.73 249.2 388.29 258 388.43 258.49 408.87" style="fill:#ff8b7b"></polygon><path d="M249.35,406.07l9.61.15a.71.71,0,0,1,.71.61l1.24,7.86a1.37,1.37,0,0,1-1.37,1.55c-3.47-.12-8.46-.4-12.82-.47-5.1-.08-4.6.13-10.57,0-3.62-.06-4.39-3.73-2.85-4,7-1.4,7.69-1.47,13.88-5A4.19,4.19,0,0,1,249.35,406.07Z" style="fill:#263238"></path><polygon points="249.21 388.29 249.45 398.83 258.26 398.97 258.01 388.43 249.21 388.29" style="opacity:0.2"></polygon><path d="M247.79,406.85a.18.18,0,0,0,.13-.17.21.21,0,0,0-.11-.21c-.41-.21-4-2.07-5.07-1.49a.68.68,0,0,0-.33.55h0a1.27,1.27,0,0,0,.43,1c1,.87,3.51.56,4.92.3ZM243,405.32c.66-.22,2.61.54,4,1.23-1.94.29-3.39.19-3.95-.3a.82.82,0,0,1-.28-.68.24.24,0,0,1,.13-.22Z" style="fill:#4F46E5"></path><path d="M247.79,406.85s0,0,.05,0a.18.18,0,0,0,.08-.18c0-.1-.33-2.48-1.48-3.42a1.61,1.61,0,0,0-1.17-.38h0c-.57.05-.73.34-.76.57-.13,1,2.05,2.94,3.13,3.43A.2.2,0,0,0,247.79,406.85Zm-2.68-3.55.21,0h0a1.11,1.11,0,0,1,.86.28,5.15,5.15,0,0,1,1.26,2.73c-1.11-.67-2.59-2.19-2.51-2.78C244.93,403.45,244.94,403.36,245.11,403.3Zm.19-.25h0Z" style="fill:#4F46E5"></path><path d="M263.81,300.07c10.75-45,20.94-64.5,16.9-86.82l-31.07.37S237.39,274.81,240,301.2c2.7,27.43,6.67,91.29,6.67,91.29l14.18.2S269.11,330.71,263.81,300.07Z" style="fill:#4F46E5"></path><path d="M265.39,293.66c5.74-22.93,11.13-38.88,14-52.24C259.2,248.68,260.92,273.8,265.39,293.66Z" style="opacity:0.2"></path><polygon points="244.5 389.34 245.69 395.42 261.29 395.69 261.92 389.95 244.5 389.34" style="fill:#263238"></polygon><polygon points="308.38 408.87 299.56 408.73 296.65 388.29 305.47 388.43 308.38 408.87" style="fill:#ff8b7b"></polygon><path d="M298.93,406.07l9.61.15a.68.68,0,0,1,.68.61l.84,7.86a1.45,1.45,0,0,1-1.45,1.55c-3.46-.12-4.55-.4-8.9-.47-5.1-.08-2.75.13-8.72,0-3.61-.06-4.19-3.71-2.64-4,4.89-1,6.18-3,8.38-5A3,3,0,0,1,298.93,406.07Z" style="fill:#263238"></path><polygon points="296.66 388.29 298.15 398.83 306.98 398.97 305.48 388.43 296.66 388.29" style="opacity:0.2"></polygon><path d="M300.67,406.73a.21.21,0,0,0,.19-.1.21.21,0,0,0,0-.24c-.29-.34-3-3.29-4.17-3.11a.64.64,0,0,0-.52.39h0a1.17,1.17,0,0,0,0,1.09c.59,1.15,3.08,1.73,4.5,2Zm-3.87-3c.7,0,2.23,1.39,3.3,2.51-1.93-.39-3.26-1-3.59-1.63a.76.76,0,0,1,0-.72.25.25,0,0,1,.21-.16Z" style="fill:#4F46E5"></path><path d="M300.67,406.73h.06a.23.23,0,0,0,.15-.15c0-.1.66-2.4-.06-3.66a1.58,1.58,0,0,0-.95-.75h0c-.56-.15-.82.06-.94.27-.51.87.78,3.4,1.6,4.23A.2.2,0,0,0,300.67,406.73Zm-1.13-4.19a.69.69,0,0,1,.22,0h0a1.12,1.12,0,0,1,.7.55,4.91,4.91,0,0,1,.11,2.95c-.78-1-1.58-2.91-1.28-3.43A.24.24,0,0,1,299.54,402.54Zm.27-.17Z" style="fill:#4F46E5"></path><path d="M296.66,300.07c4.82-45,10.5-65,3.52-87.32l-32.39.87s-.88,61.19,5.2,87.58c6.32,27.43,21.08,91.29,21.08,91.29l14.21.2S306,330.71,296.66,300.07Z" style="fill:#4F46E5"></path><polygon points="292 389.34 292.93 395.42 308.86 395.69 309.76 389.95 292 389.34" style="fill:#263238"></polygon><path d="M258.18,143.78c-1.13,3.42-2.4,6.62-3.68,9.9s-2.69,6.48-4.2,9.68-3.09,6.4-4.92,9.57c-.91,1.59-1.85,3.19-2.95,4.77a38.44,38.44,0,0,1-3.86,4.86l.51-.64a11.58,11.58,0,0,1-2.35,2.39,8.28,8.28,0,0,1-2,1.15A8.1,8.1,0,0,1,232,186a8.33,8.33,0,0,1-4.63-1.25,10.53,10.53,0,0,1-2.36-2,16.51,16.51,0,0,1-2.45-3.59,33.07,33.07,0,0,1-1.5-3.33,50.4,50.4,0,0,1-2-6.48,53.51,53.51,0,0,1-1.17-6.52,3.35,3.35,0,0,1,6.28-2l.07.13c.93,1.74,1.88,3.6,2.84,5.34s1.93,3.47,3,5c.51.77,1,1.52,1.53,2.14a7.54,7.54,0,0,0,1.35,1.37c.15.1.25.09.08-.05a2.61,2.61,0,0,0-1.64-.46,3.43,3.43,0,0,0-1.21.22,2.14,2.14,0,0,0-.43.19,2,2,0,0,0-.27.15c-.29.19-.29.2-.25.09v0l.49-.61A28,28,0,0,0,232,171c.75-1.31,1.5-2.7,2.21-4.13s1.4-2.9,2.07-4.39,1.35-3,2-4.53c1.29-3.05,2.54-6.15,3.77-9.27s2.42-6.29,3.58-9.33l0-.08a6.68,6.68,0,0,1,12.58,4.49Z" style="fill:#ff8b7b"></path><path d="M220.66,166.92l-9.52-2.73L218,156s8,2.37,6.74,7.35Z" style="fill:#ff8b7b"></path><path d="M208.07,158.17l2.33-3.78a2.8,2.8,0,0,1,3.93-.85L218,156l-6.89,8.18-2.63-2.54A2.81,2.81,0,0,1,208.07,158.17Z" style="fill:#ff8b7b"></path><path d="M248.72,131.19c-8.21,6-11.34,23.67-11.34,23.67l18.32,8.45s3.51-4.46,5.18-13.92C261.39,146.52,257.07,125.12,248.72,131.19Z" style="fill:#263238"></path><path d="M253.74,128.94a103.9,103.9,0,0,1,29.57-1.54,12.61,12.61,0,0,1,11.35,9.68c2.92,12.44,7.91,37,6.19,76.17-4.51,1.89-18.15,3-29.05,3.16-1.19,0-4.32-2.5-4.32-2.5s-2.39,2.49-3.91,2.44c-7.25-.24-13.08-1-14.52-2.27-3.56-6.78-7-24.46-.56-41.11-.75-9.56-3.57-20.15-4.62-30.39A12.59,12.59,0,0,1,253.74,128.94Z" style="fill:#263238"></path><rect x="264.21" y="180.26" width="4.99" height="3.07" rx="1.25" transform="translate(-29.36 53.25) rotate(-10.81)" style="fill:#fff"></rect><rect x="249.65" y="182.41" width="24" height="14.79" rx="1.87" transform="translate(-30.96 52.44) rotate(-10.81)" style="fill:#4F46E5"></rect><rect x="250.4" y="183.42" width="18.96" height="13.46" rx="1.87" transform="translate(-31.05 52.11) rotate(-10.81)" style="fill:#263238"></rect><rect x="264.15" y="183.39" width="2.77" height="1.71" rx="0.55" transform="translate(-29.84 53.07) rotate(-10.81)" style="fill:#fff"></rect><rect x="261.5" y="183.97" width="2" height="1.71" rx="0.55" transform="translate(-29.99 52.48) rotate(-10.8)" style="fill:#4F46E5"></rect><path d="M258.41,185.94l-4.18.8,1.66,8.65,4.17-.79c2-.38,3.25-2.63,2.79-5S260.41,185.56,258.41,185.94Z" style="fill:#fff;opacity:0.7000000000000001"></path><path d="M258.68,190.38c.46,2.39-.79,4.63-2.79,5s-4-1.24-4.45-3.63.8-4.64,2.79-5S258.22,188,258.68,190.38Z" style="fill:#fff"></path><path d="M257.58,190.59a2.91,2.91,0,1,1-3.46-2.83A3.19,3.19,0,0,1,257.58,190.59Z" style="fill:#4F46E5"></path><path d="M262.23,155.33c-2.75,0-4.78-2.14-5.85-6.19-2-7.67-.11-20,2.66-21.55a.27.27,0,0,1,.37.11.27.27,0,0,1-.1.37c-2.34,1.34-4.47,13.12-2.4,20.93.7,2.64,2.19,5.78,5.32,5.78,5.26,0,9.51-8.33,11.09-11.91,2.95-6.69,4.4-14.13,3-15.63a.28.28,0,0,1,.41-.37c1.7,1.87-.14,9.89-2.94,16.22C272.2,146.77,267.82,155.33,262.23,155.33Z" style="fill:#fff"></path><path d="M250.89,86.75c1.38-4,7.49-7.75,7.49-7.75s14.5.24,21.33,11.59c1.63,3.94-1.46,10.52-1.46,10.52Z" style="fill:#263238"></path><ellipse cx="262.74" cy="95.25" rx="10.15" ry="24.8" transform="matrix(0.36, -0.93, 0.93, 0.36, 79.52, 306.28)" style="fill:#4F46E5"></ellipse><path d="M270,111.42c.88,6.55,2.22,14.16,6.85,17.87a13.87,13.87,0,0,1-12.44,8.93c-7,.36-5.94-5.24-4.78-8.2,3-3.35,1.55-7.07.8-9.71Z" style="fill:#ff8b7b"></path><path d="M268,114.62c0-.42-.11-.83-.17-1.24l-7.46,6.93a15.93,15.93,0,0,1,1,5.6C265.09,123.43,268.48,118.6,268,114.62Z" style="opacity:0.2"></path><path d="M272.43,101.89c-1.1,8.67-1.31,13.8-6,17.94-7.06,6.23-17.55,1.44-19.06-7.4-1.36-8,.67-20.8,9.42-23.63A12,12,0,0,1,272.43,101.89Z" style="fill:#ff8b7b"></path><path d="M260.75,103a4.78,4.78,0,0,1,3.63-.28A9.57,9.57,0,0,1,260.75,103Z" style="opacity:0.2"></path><path d="M260.87,103.89a3.89,3.89,0,0,1,3.25.58A7.92,7.92,0,0,1,260.87,103.89Z" style="opacity:0.2"></path><path d="M270,110.31a6.33,6.33,0,0,1-5-1.92s4.16-3.11,3.43-6.45-2.19-5.45-.91-7c-6.27,1-19.31,1.16-22.42-2,1.88.41,3.62-1.06,4.9-.6.5-1.51,4.88-6.38,15-3.58,6.77,1.87,9.11,8.43,8.6,10.81C274.77,100.52,277.52,107.47,270,110.31Z" style="fill:#e0e0e0"></path><path d="M243.69,113.56s2.49,5.75,7.23,3c4.33,1.93,8.41-.72,10.13-4.12-2.68,1.14-5.1-2.56-8.94-2.28a1.88,1.88,0,0,0-1.15.59,2.8,2.8,0,0,0-1.29-.38C246.94,110.55,247.39,113.59,243.69,113.56Z" style="fill:#e0e0e0"></path><path d="M274.81,110.93a8.21,8.21,0,0,1-5.18,3.62c-2.85.6-4.11-2-3.18-4.59.83-2.33,3.32-5.45,6.12-4.89S276.23,108.65,274.81,110.93Z" style="fill:#ff8b7b"></path><path d="M258.55,103.63c-.05.71-.46,1.26-.92,1.23s-.81-.64-.76-1.35.46-1.26.92-1.22S258.6,102.93,258.55,103.63Z" style="fill:#263238"></path><path d="M249.69,103.25c-.05.71-.46,1.26-.92,1.22s-.81-.64-.76-1.34.46-1.26.92-1.23S249.74,102.54,249.69,103.25Z" style="fill:#263238"></path><path d="M250.47,103.34a.4.4,0,0,1,.39.39V107a.4.4,0,0,1-.39.39h-5.23a.39.39,0,0,1-.39-.39v-3.26a.39.39,0,0,1,.39-.39h5.23m0-.55h-5.23a1,1,0,0,0-.94.94V107a1,1,0,0,0,.94.94h5.23a.94.94,0,0,0,.94-.94v-3.26a.94.94,0,0,0-.94-.94Z" style="fill:#263238"></path><path d="M261.1,103.34a.39.39,0,0,1,.4.39V107a.39.39,0,0,1-.4.39h-6.78a.38.38,0,0,1-.39-.39v-3.26a.38.38,0,0,1,.39-.39h6.78m0-.55h-6.78a.94.94,0,0,0-.94.94V107a.94.94,0,0,0,.94.94h6.78A.94.94,0,0,0,262,107v-3.26a.94.94,0,0,0-.94-.94Z" style="fill:#263238"></path><path d="M251.31,104.44l-.38-.39a2.35,2.35,0,0,1,2.85-.14l-.27.48A1.84,1.84,0,0,0,251.31,104.44Z" style="fill:#263238"></path><path d="M252.26,104.15a25.17,25.17,0,0,1-4.13,5.57c1.1,1.33,3.28,1.09,3.28,1.09Z" style="fill:#ff5652"></path><path d="M260.16,98.92a.48.48,0,0,0,.2-.07.43.43,0,0,0,.12-.58,4.18,4.18,0,0,0-3.28-2,.42.42,0,1,0,0,.84h0a3.34,3.34,0,0,1,2.58,1.59A.41.41,0,0,0,260.16,98.92Z" style="fill:#263238"></path><path d="M247,99.64a.4.4,0,0,0,.37-.12,3.29,3.29,0,0,1,2.82-1,.41.41,0,0,0,.48-.33.42.42,0,0,0-.33-.49,4.11,4.11,0,0,0-3.57,1.29.41.41,0,0,0,0,.59A.39.39,0,0,0,247,99.64Z" style="fill:#263238"></path><path d="M294.49,135.53c1.08,1.47,2,2.77,2.9,4.19s1.79,2.8,2.65,4.22c1.74,2.83,3.33,5.75,4.83,8.75a78.4,78.4,0,0,1,7,19.45c.18.88.31,1.81.44,2.72l.15,1.41c0,.16.06.66.08,1s0,.81,0,1.21a11.57,11.57,0,0,1-1.37,4.67,12.9,12.9,0,0,1-2.64,3.31,19.89,19.89,0,0,1-5.6,3.47,36.08,36.08,0,0,1-5.31,1.69,69.7,69.7,0,0,1-20.2,1.37,3.32,3.32,0,0,1-.45-6.57l.19,0c1.44-.29,3-.59,4.5-.91s3-.71,4.47-1.07a72.07,72.07,0,0,0,8.45-2.64,24,24,0,0,0,3.59-1.72,8.09,8.09,0,0,0,2.31-1.79c.19-.25.27-.44.23-.48s-.09.05-.12.1,0,0,0,0,0,.07-.05-.16l-.18-1c-.15-.65-.27-1.3-.47-2a77.78,77.78,0,0,0-6.79-16c-1.41-2.66-3-5.27-4.53-7.88-.79-1.3-1.59-2.59-2.42-3.86s-1.68-2.6-2.45-3.72l-.07-.1a6.68,6.68,0,0,1,10.9-7.71Z" style="fill:#ff8b7b"></path><path d="M286.44,128.05c9.95,2,18.22,19.19,18.22,19.19l-11.25,16.84A47.06,47.06,0,0,1,281.56,150C280.2,147.44,276.34,126,286.44,128.05Z" style="fill:#263238"></path><path d="M281,186l-8.89-.62,2.27,10.45s8.13-.41,8.6-4.77Z" style="fill:#ff8b7b"></path><path d="M265.09,191.37l1.42,3.53a3.09,3.09,0,0,0,3.54,1.86l4.35-1-2.27-10.45-5.26,2A3.09,3.09,0,0,0,265.09,191.37Z" style="fill:#ff8b7b"></path><path d="M274.36,126.05c.21,2-2.2,9.14-10.61,12.18,3.24,0,4.66,4.15,4.66,4.15s11.16-5.95,9.84-13.13A4,4,0,0,0,274.36,126.05Z" style="fill:#4F46E5"></path><path d="M261.14,126.6c.2,2-2.08,6.1,2.61,11.63-3.25,0-5.2,3.26-5.2,3.26a13.88,13.88,0,0,1-.92-13.27A6.41,6.41,0,0,1,261.14,126.6Z" style="fill:#4F46E5"></path><path d="M265.32,174.45h-8.47a1.56,1.56,0,0,1-1.58-1.71l1.17-15.1a1.88,1.88,0,0,1,1.84-1.71h8.47a1.56,1.56,0,0,1,1.58,1.71l-1.17,15.1A1.87,1.87,0,0,1,265.32,174.45Z" style="fill:#fff"></path><path d="M262.89,157.57H261.3a.3.3,0,0,1-.3-.32l.22-2.84a.35.35,0,0,1,.35-.32h1.59a.29.29,0,0,1,.3.32l-.22,2.84A.36.36,0,0,1,262.89,157.57Z" style="fill:#4F46E5"></path></g><g id="freepik--character-3--inject-105"><path d="M393.1,159.15c9.7,10.29,18.7,14.14,18.1,26.89,4.5,7.18,2.61,27-5.2,31.09s-29.94,1.18-29.94,1.18Z" style="fill:#263238"></path><path d="M401.71,222.94h8.46a1.56,1.56,0,0,0,1.58-1.71l-1.17-15.1a1.87,1.87,0,0,0-1.84-1.71h-8.47a1.56,1.56,0,0,0-1.58,1.71l1.17,15.1A1.89,1.89,0,0,0,401.71,222.94Z" style="fill:#fff"></path><path d="M410.17,223.19h-8.46a2.14,2.14,0,0,1-2.1-1.95l-1.17-15.09a1.85,1.85,0,0,1,.48-1.41,1.81,1.81,0,0,1,1.35-.58h8.47a2.16,2.16,0,0,1,2.1,2l1.17,15.1a1.82,1.82,0,0,1-1.84,2Zm-9.9-18.52a1.31,1.31,0,0,0-1.32,1.44l1.17,15.1a1.62,1.62,0,0,0,1.59,1.47h8.46a1.31,1.31,0,0,0,1.33-1.44l-1.17-15.09a1.62,1.62,0,0,0-1.59-1.48Z" style="fill:#4F46E5"></path><path d="M404.13,206.05h1.6a.29.29,0,0,0,.29-.32l-.22-2.84a.35.35,0,0,0-.34-.32h-1.6a.29.29,0,0,0-.29.32l.22,2.84A.35.35,0,0,0,404.13,206.05Z" style="fill:#4F46E5"></path><path d="M369,273.38c-1,10.84-1.67,22.66-1.58,34.62.73,12.19.55,27.76,0,42.69H348.21c-.58-14.76-1.19-29.55-1.74-39.44-1.42-26-5.52-88.1-5.52-88.1l15.48.24,20.17.33A419.39,419.39,0,0,0,369,273.38Z" style="fill:#263238"></path><path d="M368.84,247.38c-10.16,13.91-5.59,40.08-1.42,58.57a397.46,397.46,0,0,1,5.18-60.87Z" style="opacity:0.2"></path><path d="M399.07,306c-4.86-38.43-6.66-73.48-12.42-82.07l-30.22-.49s6.43,25.21,12.58,50c3.41,13.69,6.72,27.25,8.82,36.37,2.34,10.18,5.51,25.69,8.5,40.94h18.89C403.35,334.85,402.57,317.44,399.07,306Z" style="fill:#263238"></path><path d="M363.66,402s1.78-24.66,2.59-51.31H349.41c.87,25.57,3.27,51.12,3.27,51.12Z" style="fill:#7f3e3b"></path><path d="M395.93,399.25l11.75.19s-1-23.62-3.54-48.75H388C392.15,375.29,395.93,399.25,395.93,399.25Z" style="fill:#7f3e3b"></path><path d="M347.62,354.77l-1-8.43,22.19-.44-1.18,8.25A34.1,34.1,0,0,1,347.62,354.77Z" style="fill:#4F46E5"></path><path d="M386.56,354.77,385,346.34l21.41-.44-.64,8.25S397.76,357.79,386.56,354.77Z" style="fill:#4F46E5"></path><path d="M354.68,157.08c-.31,2.86-.7,5.67-1.12,8.5s-.87,5.64-1.38,8.45-1,5.62-1.57,8.43-1.15,5.63-1.78,8.45l-.16.71a3.06,3.06,0,0,1-.13.43c-1.1,2.78-2.33,5.43-3.58,8s-2.6,5.15-4,7.68-2.8,5-4.29,7.45-3,4.85-4.68,7.23a4,4,0,0,1-7.14-3.41l0-.06c.77-2.68,1.64-5.37,2.48-8l2.59-8,2.56-7.88c.84-2.61,1.62-5.21,2.36-7.75l-.29,1.15.93-8.39c.31-2.8.64-5.61,1-8.41s.7-5.61,1.08-8.42.78-5.61,1.25-8.38v0a8,8,0,0,1,15.82,2.19Z" style="fill:#7f3e3b"></path><path d="M325.61,217.75l-4.35,7.47,10.07,2.5s3.11-7.25-.47-9.53Z" style="fill:#7f3e3b"></path><path d="M323.48,233.93l3.68.28a3,3,0,0,0,3.14-2.28l1-4.21-10.07-2.5-.53,5.43A3,3,0,0,0,323.48,233.93Z" style="fill:#7f3e3b"></path><path d="M381.52,146.28a149.52,149.52,0,0,0-33-1.1A10.41,10.41,0,0,0,339,155c-.55,11.53-.93,34.53,1.88,68.12,4.66,5.3,25.53,7.37,45.73.74a571.53,571.53,0,0,1,8.78-57.8A16.41,16.41,0,0,0,381.52,146.28Z" style="fill:#4F46E5"></path><path d="M352.86,144.88a5.8,5.8,0,0,0-.49.62c-1.46,2.21-1.76,4.53-.82,6.36,1.15,2.22,3.89,3.42,8.13,3.55l1.07,0a27.84,27.84,0,0,0,15.59-4.64,5.62,5.62,0,0,0,2.59-4.86A151.32,151.32,0,0,0,352.86,144.88Z" style="fill:#fff"></path><path d="M376.87,124.93l-14.61,9.27c1.17,4.69,1.22,9.6-5.95,11.06a3.34,3.34,0,0,0-2.16,1.42c-1.76,2.65-2,6.36,5.6,6.61A25.85,25.85,0,0,0,375.19,149a3.45,3.45,0,0,0,1.28-4.42C373.75,139.28,375.39,130.2,376.87,124.93Z" style="fill:#7f3e3b"></path><path d="M370.91,128.71l-8.64,5.49a18,18,0,0,1,.56,3.48c3.13.57,7.81-2.12,8.27-4.88A11.06,11.06,0,0,0,370.91,128.71Z" style="opacity:0.2"></path><path d="M359.88,103c-3.36,2.75-5,5.13-4.37,10.77s5.43,4,5.43,4Z" style="fill:#263238"></path><path d="M379.8,116.87c-2,8.25-2.69,13.18-7.64,16.69-7.45,5.27-17.08-.43-17.62-9.11-.49-7.82,2.8-20,11.53-21.82A11.68,11.68,0,0,1,379.8,116.87Z" style="fill:#7f3e3b"></path><path d="M384,122.17c.45,1.51-2.15,6.3-5.53,5.22-3.69-5-6.22-10.39-2.82-14.66-4.85-1.1-21.84-3.15-17.88-8.25.9-2.69,8-6.19,15.21-5S388.27,110.9,384,122.17Z" style="fill:#263238"></path><path d="M384,122.17c-.81-6.68-8-14.79-17.18-16.34-5.73-1-9-1.35-9-1.35s-1.42-2.54,1.89-4c.14-2.87,26.1-10.49,29.88,7.09,1.36,6.43-2.5,1.93-2.5,1.93S390.09,121.06,384,122.17Z" style="fill:#4F46E5"></path><path d="M382.33,125.76a8,8,0,0,1-5.36,3c-2.81.3-3.77-2.33-2.62-4.74,1-2.17,3.74-4.94,6.38-4.12S383.92,123.7,382.33,125.76Z" style="fill:#7f3e3b"></path><path d="M367,116c-.12.68-.57,1.16-1,1.08s-.7-.7-.59-1.37.58-1.17,1-1.09S367.13,115.36,367,116Z" style="fill:#263238"></path><path d="M358.85,115.11c-.12.68-.57,1.16-1,1.08s-.71-.7-.59-1.37.58-1.17,1-1.09S359,114.43,358.85,115.11Z" style="fill:#263238"></path><path d="M361.46,116.27a24.31,24.31,0,0,1-4.25,5.21,4,4,0,0,0,3.14,1.2Z" style="fill:#630f0f"></path><path d="M362.89,125a5.58,5.58,0,0,0,4.22-1.52.21.21,0,0,0,0-.29.2.2,0,0,0-.28,0,5.4,5.4,0,0,1-4.75,1.3.21.21,0,0,0-.24.17.2.2,0,0,0,.17.23A5.77,5.77,0,0,0,362.89,125Z" style="fill:#263238"></path><path d="M369.63,115.18a.5.5,0,0,0,.21,0,.41.41,0,0,0,.26-.51,4,4,0,0,0-2.55-2.7.41.41,0,1,0-.22.78h0a3.25,3.25,0,0,1,2,2.16A.42.42,0,0,0,369.63,115.18Z" style="fill:#263238"></path><path d="M356,111.55a.4.4,0,0,0,.36-.12,3.16,3.16,0,0,1,2.71-1.09.41.41,0,0,0,.46-.34.41.41,0,0,0-.33-.46,4,4,0,0,0-3.44,1.34.41.41,0,0,0,0,.57A.37.37,0,0,0,356,111.55Z" style="fill:#263238"></path><path d="M396.22,155.21l.57,1,.5.92c.33.6.63,1.21.93,1.81.6,1.21,1.14,2.43,1.67,3.67a74.9,74.9,0,0,1,2.74,7.62A54.14,54.14,0,0,1,405.09,187c0,.77-.06,1.47-.12,2.15,0,.3-.06.82-.12,1.34l-.12.89-.2.93a11.8,11.8,0,0,1-1.86,4.08A10.87,10.87,0,0,1,399,199.6a11.77,11.77,0,0,1-3.82,1.28A13.79,13.79,0,0,1,392,201a22.61,22.61,0,0,1-4.92-.9,39.27,39.27,0,0,1-7.73-3.37,49.73,49.73,0,0,1-6.65-4.45,4,4,0,0,1,3.54-7l.25.07c4.41,1.19,9.16,2.52,13,2.76A9.21,9.21,0,0,0,392,188c.58-.1.76-.39.14-.19a2.57,2.57,0,0,0-1,.74,3.73,3.73,0,0,0-.46.69l0,0,0,0a2.89,2.89,0,0,1,0-.51c0-.54,0-1.07-.09-1.53a50.54,50.54,0,0,0-2.92-12.12c-.72-2.06-1.56-4.12-2.44-6.16-.44-1-.91-2-1.38-3l-.71-1.49-.65-1.34-.21-.42a8,8,0,0,1,14.1-7.46Z" style="fill:#7f3e3b"></path><path d="M391.58,151.87a1.34,1.34,0,0,0,.34-2.29c-3.35-2.61-8.57-4.13-11.09-4.05-5.5.18-12.42,12.11-15.55,40.85-2.84,26.06,18.5,25.68,22.5,25.38a.79.79,0,0,0,.72-.69l.09-.84a.77.77,0,0,0-.75-.87c-3.21-.07-17.79-1.52-18.87-11.28C372,185.6,375,159.06,391.58,151.87Z" style="fill:#263238"></path><path d="M378.84,187l-6.71-5.47-4,9.55s6.67,4.22,9.48,1Z" style="fill:#7f3e3b"></path><path d="M363.19,182.4l-.86,3.59a3,3,0,0,0,1.76,3.46l4,1.67,4-9.55-5.27-1.38A3,3,0,0,0,363.19,182.4Z" style="fill:#7f3e3b"></path><path d="M366.2,412.38l-1.31-.34-33.66-.74c-1.07,1.15.2,4.94,5.06,4.94s12.32-.18,17.32-.18,6.59.18,11.28.18C366.25,416.24,367.08,414.26,366.2,412.38Z" style="fill:#4F46E5"></path><path d="M365.28,400.4l1.15,11.84a1.67,1.67,0,0,1-1.66,1.78c-5.17,0-8.45-.17-13.46-.25-5.85-.09-9.52.44-16.39.33-4.15-.06-4.77-4.12-3-4.63,8.35-2.5,13-4.2,17.25-9.2,0,0-4.17-3.83-1.79-5.93s10.65-2.52,11.14,0a10.86,10.86,0,0,1-.21,4.77S363,397.55,365.28,400.4Z" style="fill:#263238"></path><path d="M347.12,402c.84-1.14,1.13-1.72,2.58-1.82s6.74.46,7.34,1.94a2,2,0,0,1-2,2.56C354.13,404.4,346.23,403.24,347.12,402Z" style="fill:#4F46E5"></path><path d="M342.88,404.87a2.84,2.84,0,0,1,2.69-1.52c1.24.08,5.71,1.2,6.13,2.63s-1.11,2.6-1.86,2.12S342.31,406,342.88,404.87Z" style="fill:#4F46E5"></path><path d="M410.58,412.38l-1.31-.34-30.17-.74c-1.07,1.15.2,4.94,5,4.94s8.84-.18,13.84-.18,6.59.18,11.28.18C410.62,416.24,411.45,414.26,410.58,412.38Z" style="fill:#4F46E5"></path><path d="M407.37,398.8a3.4,3.4,0,0,1,2.42,3l1,10.42a1.67,1.67,0,0,1-1.66,1.78c-5.17,0-2.12-.17-7.13-.25-5.85-.09-12.36.44-19.23.33-4.15-.06-4.75-4.05-3-4.63,10.9-3.71,13.45-8.56,15.93-9.2,0,0-3.23-4.43-.85-6.54s9.11-1.71,10.21.61c1.4,3-.21,4.77-.21,4.77A3.45,3.45,0,0,1,407.37,398.8Z" style="fill:#263238"></path><path d="M392.44,401.25c.81-1.11,1.07-1.67,2.66-1.85s7.48,0,8.3,1.3-.94,2.74-1.93,2.49S391.59,402.42,392.44,401.25Z" style="fill:#4F46E5"></path><path d="M389,404.41a3.3,3.3,0,0,1,2.6-1.66c1.48,0,7.47.45,8.21,1.8a1.73,1.73,0,0,1-1.8,2.42C397.11,406.67,388.24,405.54,389,404.41Z" style="fill:#4F46E5"></path><path d="M331.94,225a6.14,6.14,0,0,1-2.75-.84c-3.2-1.66-5.1-3.6-5.09-5.19a1.72,1.72,0,0,1,1-1.57.28.28,0,0,1,.36.12.27.27,0,0,1-.12.36,1.17,1.17,0,0,0-.74,1.09c0,1.07,1.25,2.87,4.8,4.71,1.81.94,3.07,1.05,3.66.31a2.41,2.41,0,0,0,0-2.45.26.26,0,0,1,0-.37.27.27,0,0,1,.38,0,2.9,2.9,0,0,1,0,3.13A1.86,1.86,0,0,1,331.94,225Z" style="fill:#263238"></path></g></svg>