<svg xmlns="http://www.w3.org/2000/svg" viewBox="0 0 500 500"><g id="freepik--background-complete--inject-43"><rect x="416.78" y="397.36" width="33.12" height="0.25" style="fill:#ebebeb"></rect><rect x="322.53" y="400.07" width="8.69" height="0.25" style="fill:#ebebeb"></rect><rect x="396.59" y="388.07" width="19.19" height="0.25" style="fill:#ebebeb"></rect><rect x="52.46" y="389.75" width="43.19" height="0.25" style="fill:#ebebeb"></rect><rect x="104.56" y="389.75" width="6.33" height="0.25" style="fill:#ebebeb"></rect><rect x="131.47" y="393.97" width="93.68" height="0.25" style="fill:#ebebeb"></rect><path d="M237,336.66H43.92a5.71,5.71,0,0,1-5.71-5.7V59.52a5.71,5.71,0,0,1,5.71-5.7H237a5.71,5.71,0,0,1,5.71,5.7V331A5.71,5.71,0,0,1,237,336.66ZM43.92,54.07a5.46,5.46,0,0,0-5.46,5.45V331a5.46,5.46,0,0,0,5.46,5.45H237a5.46,5.46,0,0,0,5.46-5.45V59.52A5.46,5.46,0,0,0,237,54.07Z" style="fill:#ebebeb"></path><path d="M453.31,336.66H260.21a5.72,5.72,0,0,1-5.71-5.7V59.52a5.72,5.72,0,0,1,5.71-5.7h193.1a5.71,5.71,0,0,1,5.71,5.7V331A5.71,5.71,0,0,1,453.31,336.66ZM260.21,54.07a5.46,5.46,0,0,0-5.46,5.45V331a5.46,5.46,0,0,0,5.46,5.45h193.1a5.46,5.46,0,0,0,5.46-5.45V59.52a5.46,5.46,0,0,0-5.46-5.45Z" style="fill:#ebebeb"></path><rect y="381.26" width="500" height="0.25" style="fill:#ebebeb"></rect><path d="M436.41,153c2.24-5.5,4.08-24.94-10-21.52s-20.37,9.19-29.52,10.6-14.08-6.74-23.95,0-15.8.06-25.83,6.06S428.56,172.27,436.41,153Z" style="fill:#f5f5f5"></path><path d="M391.89,87C389,76.09,382.19,61.67,354,62.49S338.46,81.29,322.3,82.1,309.12,74.75,295.1,87s-11.61.81-23.17,6.54S398.68,112.59,391.89,87Z" style="fill:#f5f5f5"></path><path d="M164.84,126.75c1.89-4.82,3.46-21.88-8.5-18.88s-17.26,8.07-25,9.3-11.94-5.91-20.3,0-13.39.06-21.89,5.32S158.18,143.69,164.84,126.75Z" style="fill:#f0f0f0"></path><path d="M352.74,337.24l-.1-10.12v-.61l-.09-9v-.58l-.09-8.57v-.56l-.07-8.16v-.53l-.07-7.79v-.5l-.07-7.44v-.48l-.07-7.11v-.46l-.05-5.88a4.51,4.51,0,0,1-1,.45l0,5-6.3,0,5.07-4.65a10.68,10.68,0,0,1-1.58.19l-4.19,3.82.07-4.49a3.61,3.61,0,0,1-1-.57l-.11,6.17v.46l-.12,7.11v.49l-.13,7.42v.51l-.13,7.78v.53l-.14,8.16v.56l-.14,8.55,0,.59-.16,9v.61l-.17,10.11-.88,43.62,12.16.15Zm-1.27-1.89-7.32-7.91h7.27Zm-.11-8.85h-7.25L351.3,319Zm.07-11.12-7-7.14,6.92,0Zm-.08-8.12-6.9,0,6.86-6.87Zm-.05-9.46-6.65-6.48,6.61,0Zm-.05-7.5-6.59,0,6.54-6.26Zm-.11-14.43,0,5.94-6.35-5.9ZM344,277.23l6.35,5.92-6.44,0Zm-.1,6.95,6.44,0-6.53,6.23Zm-.14,8.67,6.65,6.5-6.73,0Zm-.09,7.5,6.76,0-6.85,6.83Zm-.13,9.45,7,7.17h-7.08Zm-.07,8.13h7.1l-7.2,7.53Zm0,10,7.32,7.95h-7.44Z" style="fill:#ebebeb"></path><path d="M352,268.41l-.5,0-.34-.32-2.91,2.66a11,11,0,0,0,1.59-.19l1.18-1.09v.74a4.09,4.09,0,0,0,1-.45Zm-8.82.06,0,1.07a3.7,3.7,0,0,0,1,.56l0-1.63Z" style="fill:#ebebeb"></path><path d="M353.44,267.62a1.68,1.68,0,0,1-.51,1.45l-.34.32a5,5,0,0,1-.56.39,4.09,4.09,0,0,1-1,.45,6.22,6.22,0,0,1-1.18.35,11,11,0,0,1-1.59.19h-.71a8.48,8.48,0,0,1-3.4-.69,3.7,3.7,0,0,1-1-.56l-.09-.07-.31-.3a1.59,1.59,0,0,1-.46-1.41l.72-4.05-1.92,0,6.67-3.39,6.94,3.16-2,0Z" style="fill:#ebebeb"></path><polygon points="85.4 213.18 85.4 381.06 117.48 381.06 117.48 233.69 85.4 213.18" style="fill:#f0f0f0"></polygon><polygon points="184.36 272.71 184.61 380.87 192.46 380.87 238.08 380.87 245.93 380.87 246.28 272.71 184.36 272.71" style="fill:#e6e6e6"></polygon><polygon points="196.33 258.94 196.36 283.06 201.22 283.06 229.45 283.06 234.31 283.06 234.36 258.94 196.33 258.94" style="fill:#e6e6e6"></polygon><polygon points="196.28 283.06 188.27 283.06 188.25 275.83 196.28 275.83 196.28 283.06" style="fill:#fafafa"></polygon><rect x="203.65" y="275.83" width="8.02" height="7.23" style="fill:#fafafa"></rect><rect x="219.03" y="275.83" width="8.02" height="7.23" style="fill:#fafafa"></rect><polygon points="242.43 283.06 234.41 283.06 234.43 275.83 242.46 275.83 242.43 283.06" style="fill:#f0f0f0"></polygon><polygon points="196.18 296.23 188.35 296.23 188.33 289.18 196.17 289.18 196.18 296.23" style="fill:#f0f0f0"></polygon><rect x="203.7" y="289.18" width="7.84" height="7.05" style="fill:#f0f0f0"></rect><rect x="219.07" y="289.18" width="7.84" height="7.05" style="fill:#fafafa"></rect><polygon points="242.26 296.23 234.43 296.23 234.44 289.18 242.28 289.18 242.26 296.23" style="fill:#fafafa"></polygon><polygon points="196.12 309.07 188.46 309.07 188.45 302.19 196.1 302.19 196.12 309.07" style="fill:#f0f0f0"></polygon><rect x="203.8" y="302.19" width="7.65" height="6.88" style="fill:#fafafa"></rect><rect x="219.15" y="302.19" width="7.65" height="6.88" style="fill:#fafafa"></rect><rect x="203.45" y="265.34" width="8.18" height="7.37" style="fill:#fafafa"></rect><rect x="218.84" y="265.34" width="8.18" height="7.37" style="fill:#f0f0f0"></rect><polygon points="242.14 309.07 234.49 309.07 234.5 302.19 242.16 302.19 242.14 309.07" style="fill:#f0f0f0"></polygon><polygon points="196.09 321.61 188.61 321.61 188.6 314.89 196.08 314.89 196.09 321.61" style="fill:#fafafa"></polygon><rect x="203.94" y="314.89" width="7.48" height="6.71" style="fill:#f0f0f0"></rect><polygon points="226.75 321.61 219.27 321.61 219.28 314.89 226.76 314.89 226.75 321.61" style="fill:#f0f0f0"></polygon><polygon points="242.08 321.61 234.6 321.61 234.62 314.89 242.09 314.89 242.08 321.61" style="fill:#fafafa"></polygon><polygon points="196.43 335.7 188.09 335.7 188.08 328.23 196.42 328.23 196.43 335.7" style="fill:#f0f0f0"></polygon><polygon points="211.72 335.7 203.39 335.7 203.38 328.23 211.73 328.23 211.72 335.7" style="fill:#fafafa"></polygon><polygon points="227.02 335.7 218.69 335.7 218.69 328.23 227.03 328.23 227.02 335.7" style="fill:#fafafa"></polygon><polygon points="242.32 335.7 233.99 335.7 234 328.23 242.34 328.23 242.32 335.7" style="fill:#f0f0f0"></polygon><polygon points="196.47 347.61 188.33 347.61 188.31 340.31 196.46 340.31 196.47 347.61" style="fill:#f0f0f0"></polygon><rect x="203.62" y="340.31" width="8.14" height="7.29" style="fill:#fafafa"></rect><rect x="218.92" y="340.31" width="8.14" height="7.29" style="fill:#f0f0f0"></rect><polygon points="242.35 347.61 234.21 347.61 234.22 340.31 242.37 340.31 242.35 347.61" style="fill:#fafafa"></polygon><polygon points="196.3 361 188.36 361 188.35 353.9 196.29 353.9 196.3 361" style="fill:#fafafa"></polygon><rect x="203.62" y="353.9" width="7.94" height="7.1" style="fill:#fafafa"></rect><rect x="218.89" y="353.9" width="7.94" height="7.1" style="fill:#f0f0f0"></rect><polygon points="242.09 361 234.16 361 234.17 353.9 242.11 353.9 242.09 361" style="fill:#f0f0f0"></polygon><polygon points="196.3 373.19 188.55 373.19 188.54 366.26 196.29 366.26 196.3 373.19" style="fill:#f0f0f0"></polygon><polygon points="242.07 373.19 234.32 373.19 234.33 366.26 242.09 366.26 242.07 373.19" style="fill:#fafafa"></polygon><polygon points="226.87 366.26 203.73 366.26 203.77 368 204.41 368 204.43 380.87 206.74 380.87 206.73 368 223.91 368 223.89 380.87 226.2 380.87 226.22 368 226.92 368 226.87 366.26" style="fill:#f5f5f5"></polygon><polygon points="215.42 380.87 206.84 380.87 206.84 368 215.43 368 215.42 380.87" style="fill:#e6e6e6"></polygon><polygon points="223.78 380.87 215.21 380.87 215.21 368 223.8 368 223.78 380.87" style="fill:#ebebeb"></polygon><polygon points="346.54 307.12 346.71 380.87 336.87 380.87 279.67 380.87 269.82 380.87 269.12 307.12 346.54 307.12" style="fill:#f5f5f5"></polygon><polygon points="331.82 323.51 341.42 323.51 341.39 314.89 331.79 314.89 331.82 323.51" style="fill:#e6e6e6"></polygon><polygon points="312.67 323.51 322.27 323.51 322.23 314.89 312.62 314.89 312.67 323.51" style="fill:#e6e6e6"></polygon><polygon points="293.52 323.51 303.12 323.51 303.06 314.89 293.45 314.89 293.52 323.51" style="fill:#e6e6e6"></polygon><polygon points="274.37 323.51 283.96 323.51 283.89 314.89 274.29 314.89 274.37 323.51" style="fill:#e6e6e6"></polygon><polygon points="331.46 340.31 341.8 340.31 341.77 331.05 331.42 331.05 331.46 340.31" style="fill:#e6e6e6"></polygon><polygon points="312.34 340.31 322.68 340.31 322.64 331.05 312.29 331.05 312.34 340.31" style="fill:#e6e6e6"></polygon><polygon points="293.23 340.31 303.57 340.31 303.51 331.05 293.15 331.05 293.23 340.31" style="fill:#e6e6e6"></polygon><polygon points="274.11 340.31 284.45 340.31 284.38 331.05 274.02 331.05 274.11 340.31" style="fill:#e6e6e6"></polygon><polygon points="331.73 355.69 341.77 355.69 341.74 346.7 331.69 346.7 331.73 355.69" style="fill:#e6e6e6"></polygon><polygon points="312.63 355.69 322.67 355.69 322.63 346.7 312.58 346.7 312.63 355.69" style="fill:#e6e6e6"></polygon><polygon points="293.53 355.69 303.57 355.69 303.51 346.7 293.46 346.7 293.53 355.69" style="fill:#e6e6e6"></polygon><polygon points="274.43 355.69 284.47 355.69 284.4 346.7 274.35 346.7 274.43 355.69" style="fill:#e6e6e6"></polygon><polygon points="331.94 371.47 341.68 371.47 341.66 362.76 331.91 362.76 331.94 371.47" style="fill:#e6e6e6"></polygon><polygon points="274.73 371.47 284.47 371.47 284.39 362.76 274.65 362.76 274.73 371.47" style="fill:#e6e6e6"></polygon><polygon points="293.08 362.76 323.2 362.76 323.21 365.39 321.29 365.39 321.36 380.87 318.58 380.87 318.5 365.39 297.83 365.39 297.94 380.87 295.15 380.87 295.04 365.39 293.11 365.39 293.08 362.76" style="fill:#f5f5f5"></polygon><polygon points="308.32 380.87 318.64 380.87 318.57 365.39 308.23 365.39 308.32 380.87" style="fill:#e6e6e6"></polygon><polygon points="297.87 380.87 308.19 380.87 308.1 365.39 297.76 365.39 297.87 380.87" style="fill:#ebebeb"></polygon><polygon points="55.7 272.71 57.47 380.87 65.32 380.87 110.94 380.87 118.79 380.87 117.62 272.71 55.7 272.71" style="fill:#f5f5f5"></polygon><polygon points="59.57 275.83 59.78 289 59.84 292.61 59.9 296.23 67.93 296.23 67.87 292.61 67.82 289 67.62 275.83 59.57 275.83" style="fill:#e6e6e6"></polygon><polygon points="74.96 275.83 75.15 289 75.21 292.61 75.26 296.23 83.29 296.23 83.24 292.61 83.19 289 83.01 275.83 74.96 275.83" style="fill:#e6e6e6"></polygon><polygon points="90.35 275.83 90.53 289 90.57 292.61 90.62 296.23 98.66 296.23 98.61 292.61 98.56 289 98.4 275.83 90.35 275.83" style="fill:#e6e6e6"></polygon><polygon points="105.74 275.83 105.9 289 105.97 294.58 105.98 296.23 114.02 296.23 114 294.58 113.94 289 113.79 275.83 105.74 275.83" style="fill:#e6e6e6"></polygon><polygon points="60.05 302.19 60.27 315.34 60.32 318.95 60.38 322.56 68.43 322.56 68.37 318.95 68.32 315.34 68.12 302.19 60.05 302.19" style="fill:#e6e6e6"></polygon><polygon points="75.4 302.19 75.6 315.34 75.67 320.43 75.7 322.56 83.75 322.56 83.72 320.43 83.65 315.34 83.46 302.19 75.4 302.19" style="fill:#e6e6e6"></polygon><polygon points="90.75 302.19 90.92 315.34 90.97 318.95 91.02 322.56 99.07 322.56 99.02 318.95 98.98 315.34 98.81 302.19 90.75 302.19" style="fill:#e6e6e6"></polygon><polygon points="106.1 302.19 106.25 315.34 106.3 318.95 106.34 322.56 114.39 322.56 114.35 318.95 114.31 315.34 114.16 302.19 106.1 302.19" style="fill:#e6e6e6"></polygon><polygon points="60.51 328.23 60.72 341.32 60.78 344.92 60.84 348.51 68.87 348.51 68.81 344.92 68.76 341.32 68.56 328.23 60.51 328.23" style="fill:#e6e6e6"></polygon><polygon points="75.82 328.23 76.01 341.32 76.06 344.92 76.12 348.51 84.15 348.51 84.1 344.92 84.05 341.32 83.87 328.23 75.82 328.23" style="fill:#e6e6e6"></polygon><polygon points="91.13 328.23 91.3 341.32 91.35 344.92 91.4 348.51 99.43 348.51 99.38 344.92 99.34 341.32 99.18 328.23 91.13 328.23" style="fill:#e6e6e6"></polygon><polygon points="106.44 328.23 106.59 341.32 106.65 346.29 106.68 348.51 114.71 348.51 114.68 346.29 114.63 341.32 114.49 328.23 106.44 328.23" style="fill:#e6e6e6"></polygon><polygon points="110.9 353.9 106.93 353.9 99.49 353.9 91.54 353.9 84.1 353.9 76.15 353.9 60.76 353.9 60.88 361 76.26 361 84.2 361 91.64 361 99.57 361 107.01 361 110.98 361 114.95 361 114.88 353.9 110.9 353.9" style="fill:#e6e6e6"></polygon><polygon points="99.48 366.26 76.34 366.26 76.31 368 77.01 368 77.2 380.87 79.52 380.87 79.33 368 96.5 368 96.67 380.87 98.98 380.87 98.82 368 99.46 368 99.48 366.26" style="fill:#fafafa"></polygon><polygon points="88.19 380.87 79.62 380.87 79.43 368 88.02 368 88.19 380.87" style="fill:#e6e6e6"></polygon><polygon points="96.56 380.87 87.99 380.87 87.81 368 96.4 368 96.56 380.87" style="fill:#e6e6e6"></polygon><polygon points="181.02 278.94 181.72 380.87 174.32 380.87 131.34 380.87 123.94 380.87 122.67 278.94 181.02 278.94" style="fill:#e6e6e6"></polygon><polygon points="160.41 355.69 163.56 355.69 177.7 355.69 177.73 358.95 177.75 362.21 177.84 374.05 170.52 374.05 170.42 361.88 163.27 361.88 160.46 361.88 156.34 361.88 156.29 355.69 160.41 355.69" style="fill:#f0f0f0"></polygon><polygon points="132.51 355.69 135.33 355.69 148.75 355.69 148.82 361.88 134.93 361.88 135.06 374.05 127.75 374.05 127.61 362.21 127.55 357.49 127.53 355.69 132.51 355.69" style="fill:#f0f0f0"></polygon><polygon points="142.73 367.13 162.65 367.13 162.66 368.87 162.88 368.87 162.99 380.87 160.83 380.87 160.72 368.87 144.71 368.87 144.83 380.87 142.68 380.87 142.55 368.87 142.75 368.87 142.73 367.13" style="fill:#f5f5f5"></polygon><polygon points="152.75 380.87 160.74 380.87 160.64 368.87 152.63 368.87 152.75 380.87" style="fill:#ebebeb"></polygon><polygon points="144.92 380.87 152.91 380.87 152.8 368.87 144.79 368.87 144.92 380.87" style="fill:#e0e0e0"></polygon><polygon points="155.24 283.06 177.44 283.06 177.58 302.19 155.42 302.19 155.24 283.06" style="fill:#f0f0f0"></polygon><polygon points="126.46 283.06 148.66 283.06 148.84 302.19 126.69 302.19 126.46 283.06" style="fill:#f0f0f0"></polygon><polygon points="155.86 307.12 177.11 307.12 177.25 325.4 156.02 325.4 155.86 307.12" style="fill:#f0f0f0"></polygon><polygon points="127.12 307.12 148.37 307.12 148.56 325.4 127.34 325.4 127.12 307.12" style="fill:#f0f0f0"></polygon><polygon points="156.07 331.98 177.44 331.98 177.58 350.32 156.24 350.32 156.07 331.98" style="fill:#f0f0f0"></polygon><polygon points="127.43 331.98 148.8 331.98 148.98 350.32 127.64 350.32 127.43 331.98" style="fill:#f0f0f0"></polygon><polygon points="378.62 380.43 378.62 278.15 410.64 177.61 443.23 177.61 443.23 381.02 378.62 380.43" style="fill:#ebebeb"></polygon><polygon points="410.64 177.61 378.62 278.15 443.23 177.61 410.64 177.61" style="fill:#f5f5f5"></polygon></g><g id="freepik--Shadow--inject-43"><ellipse id="freepik--path--inject-43" cx="245.18" cy="412.39" rx="193.89" ry="11.32" style="fill:#f5f5f5"></ellipse></g><g id="freepik--angel-of-independence--inject-43"><rect x="270.06" y="368.3" width="13.49" height="13.49" style="fill:#4F46E5"></rect><polygon points="283.51 368.3 270.02 368.3 272.31 366.62 281.23 366.62 283.51 368.3" style="fill:#fff"></polygon><path d="M284,366.89a2.2,2.2,0,0,1-.46,1.43,1.42,1.42,0,0,1-.2.22,2,2,0,0,1-.64.43h-12a1.84,1.84,0,0,1-.63-.42h0a2.18,2.18,0,0,1-.67-1.65c0-1.71,3.07-3.25,3.07-4.23s-1.51-1.61-1.51-1.61v-1.37h11.51v1.37s-1.51.77-1.51,1.61S284,365.18,284,366.89Z" style="fill:#4F46E5"></path><polygon points="282.86 358.54 282.86 359.68 270.75 359.68 270.75 358.54 272.7 356.14 272.7 354.13 280.92 354.13 280.92 356.14 282.86 358.54" style="fill:#4F46E5"></polygon><path d="M280.91,350.4l-4.36.16-4.36-.16c-.28.24-1.79.72-1.43,2a2.65,2.65,0,0,0,1.43,1.53v.21h8.72v-.21a2.69,2.69,0,0,0,1.44-1.53C282.71,351.12,281.19,350.64,280.91,350.4Z" style="fill:#4F46E5"></path><path d="M272.54,350.56l1.64-21.74a1.52,1.52,0,0,1,1.51-1.41h.89a1.52,1.52,0,0,1,1.5,1.36l2.31,21.79Z" style="fill:#4F46E5"></path><g style="opacity:0.2"><path d="M272.54,350.56l1.64-21.74a1.52,1.52,0,0,1,1.51-1.41h.89a1.52,1.52,0,0,1,1.5,1.36l2.31,21.79Z" style="fill:#fff"></path></g><rect x="272.7" y="354.13" width="8.21" height="2.01" style="opacity:0.2"></rect><rect x="270.06" y="368.54" width="13.49" height="1.36" style="opacity:0.2"></rect><rect x="270.95" y="359.68" width="11.51" height="1.36" style="opacity:0.2"></rect><rect x="397.04" y="368.3" width="13.49" height="13.49" style="fill:#4F46E5"></rect><polygon points="410.5 368.3 397 368.3 399.29 366.62 408.21 366.62 410.5 368.3" style="fill:#fff"></polygon><path d="M411,366.89a2.2,2.2,0,0,1-.47,1.43,2.15,2.15,0,0,1-.19.22,2,2,0,0,1-.64.43h-12a1.84,1.84,0,0,1-.63-.42h0a2.18,2.18,0,0,1-.67-1.65c0-1.71,3.07-3.25,3.07-4.23s-1.51-1.61-1.51-1.61v-1.37h11.51v1.37s-1.51.77-1.51,1.61S411,365.18,411,366.89Z" style="fill:#4F46E5"></path><polygon points="409.84 358.54 409.84 359.68 397.74 359.68 397.74 358.54 399.69 356.14 399.69 354.13 407.9 354.13 407.9 356.14 409.84 358.54" style="fill:#4F46E5"></polygon><path d="M407.9,350.4l-4.36.16-4.37-.16c-.28.24-1.79.72-1.43,2a2.71,2.71,0,0,0,1.43,1.53v.21h8.73v-.21a2.65,2.65,0,0,0,1.43-1.53C409.69,351.12,408.18,350.64,407.9,350.4Z" style="fill:#4F46E5"></path><path d="M399.53,350.56l1.64-21.74a1.51,1.51,0,0,1,1.5-1.41h.9a1.51,1.51,0,0,1,1.49,1.36l2.32,21.79Z" style="fill:#4F46E5"></path><g style="opacity:0.2"><path d="M399.53,350.56l1.64-21.74a1.51,1.51,0,0,1,1.5-1.41h.9a1.51,1.51,0,0,1,1.49,1.36l2.32,21.79Z" style="fill:#fff"></path></g><rect x="399.69" y="354.13" width="8.21" height="2.01" style="opacity:0.2"></rect><rect x="397.04" y="368.54" width="13.49" height="1.36" style="opacity:0.2"></rect><rect x="397.94" y="359.68" width="11.51" height="1.36" style="opacity:0.2"></rect><rect x="260.27" y="372.2" width="161.85" height="9.55" style="fill:#4F46E5"></rect><rect x="260.27" y="372.2" width="161.85" height="9.55" style="fill:#fff;opacity:0.2"></rect><polygon points="361.2 318.57 361.2 321.21 320.09 321.21 320.09 318.57 321.85 314.19 359.44 314.19 361.2 318.57" style="fill:#4F46E5"></polygon><polygon points="361.2 318.57 361.2 321.21 320.09 321.21 320.09 318.57 321.85 314.19 359.44 314.19 361.2 318.57" style="fill:#fff;opacity:0.2"></polygon><rect x="317.93" y="323.92" width="45.71" height="22.98" style="fill:#4F46E5"></rect><path d="M348.56,328.92c0,2.3-3.27,4.16-7.31,4.16s-7.32-1.86-7.32-4.16,3.28-4.17,7.32-4.17S348.56,326.62,348.56,328.92Z" style="fill:#fff;opacity:0.2"></path><rect x="332.1" y="328.53" width="18.22" height="11.37" style="fill:#fff;opacity:0.2"></rect><rect x="334.04" y="330.4" width="14.35" height="7.65" style="fill:#fff"></rect><rect x="330.77" y="338.58" width="2.66" height="2.66" style="fill:#fff;opacity:0.1"></rect><rect x="330.77" y="327.21" width="2.66" height="2.66" style="fill:#fff;opacity:0.1"></rect><rect x="348.99" y="338.58" width="2.66" height="2.66" style="fill:#fff;opacity:0.1"></rect><rect x="348.99" y="327.21" width="2.66" height="2.66" style="fill:#fff;opacity:0.1"></rect><g style="opacity:0.2"><polygon points="329.5 346.92 324.39 346.92 325.26 324.14 328.62 324.14 329.5 346.92" style="fill:#fff"></polygon><rect x="323.71" y="345.71" width="6.47" height="1.21" style="fill:#fff"></rect></g><g style="opacity:0.2"><polygon points="358.15 346.92 353.03 346.92 353.91 324.14 357.27 324.14 358.15 346.92" style="fill:#fff"></polygon><rect x="352.36" y="345.71" width="6.47" height="1.21" style="fill:#fff"></rect></g><polygon points="369.29 352.23 312.73 352.23 313.85 346.92 368.17 346.92 369.29 352.23" style="fill:#4F46E5"></polygon><polygon points="369.29 352.23 312.73 352.23 313.85 346.92 368.17 346.92 369.29 352.23" style="fill:#fff;opacity:0.1"></polygon><rect x="327.98" y="305.75" width="24.99" height="7.62" style="fill:#4F46E5"></rect><rect x="327.98" y="305.75" width="24.99" height="7.62" style="opacity:0.1"></rect><path d="M352.75,317.8a4.4,4.4,0,0,1-2.35.67,5,5,0,0,1-2.61-.45,11,11,0,0,1-1.68-1.28,9.26,9.26,0,0,0-4.2-1.94,2.07,2.07,0,0,0-2.7,0,9.3,9.3,0,0,0-4.21,1.94,10.88,10.88,0,0,1-1.67,1.28,5,5,0,0,1-2.6.45,4.41,4.41,0,0,1-2.36-.67c-1.51-1.09-1.56-3.46-.62-5.06,2.26-3.86,7.57-3.24,11.33-3.25a2.84,2.84,0,0,1,1.39.24l.09.06a.24.24,0,0,1,.09-.06,2.83,2.83,0,0,1,1.38-.24c3.77,0,9.08-.61,11.34,3.25C354.31,314.34,354.27,316.71,352.75,317.8Z" style="fill:#4F46E5"></path><rect x="313.79" y="321.21" width="53.7" height="2.7" style="fill:#4F46E5"></rect><path d="M367.54,321.22v2.7h-53.7v-2.7h17.55a2.53,2.53,0,0,1-.21-.33s4.47-8.74,9.35-8.74,9.35,8.74,9.35,8.74a2.53,2.53,0,0,1-.21.33Z" style="fill:#fff;opacity:0.2"></path><rect x="332.55" y="189.54" width="16.15" height="109.1" style="fill:#4F46E5"></rect><rect x="333.36" y="159.02" width="14.43" height="14.29" style="fill:#4F46E5"></rect><rect x="333.36" y="159.02" width="14.43" height="14.29" style="opacity:0.1"></rect><rect x="338.51" y="160.69" width="4.11" height="10.51" style="opacity:0.2"></rect><rect x="329.74" y="164.5" width="0.76" height="6.7" style="fill:#4F46E5"></rect><rect x="332.06" y="164.5" width="0.76" height="6.7" style="fill:#4F46E5"></rect><rect x="334.39" y="164.5" width="0.76" height="6.7" style="fill:#4F46E5"></rect><rect x="336.72" y="164.5" width="0.76" height="6.7" style="fill:#4F46E5"></rect><rect x="339.05" y="164.5" width="0.76" height="6.7" style="fill:#4F46E5"></rect><rect x="341.38" y="164.5" width="0.76" height="6.7" style="fill:#4F46E5"></rect><rect x="343.7" y="164.5" width="0.76" height="6.7" style="fill:#4F46E5"></rect><rect x="346.03" y="164.5" width="0.76" height="6.7" style="fill:#4F46E5"></rect><rect x="348.36" y="164.5" width="0.76" height="6.7" style="fill:#4F46E5"></rect><rect x="350.69" y="164.5" width="0.76" height="6.7" style="fill:#4F46E5"></rect><g style="opacity:0.4"><rect x="329.74" y="164.5" width="0.76" height="6.7"></rect><rect x="332.06" y="164.5" width="0.76" height="6.7"></rect><rect x="334.39" y="164.5" width="0.76" height="6.7"></rect><rect x="336.72" y="164.5" width="0.76" height="6.7"></rect><rect x="339.05" y="164.5" width="0.76" height="6.7"></rect><rect x="341.38" y="164.5" width="0.76" height="6.7"></rect><rect x="343.7" y="164.5" width="0.76" height="6.7"></rect><rect x="346.03" y="164.5" width="0.76" height="6.7"></rect><rect x="348.36" y="164.5" width="0.76" height="6.7"></rect><rect x="350.69" y="164.5" width="0.76" height="6.7"></rect></g><polygon points="340.78 189.53 332.56 189.53 331.94 184.36 327.98 178.87 327.98 164.55 330.19 164.55 330.11 171.05 340.56 171.3 340.78 189.53" style="fill:#4F46E5"></polygon><polygon points="340.4 189.53 348.63 189.53 349.24 184.36 353.2 178.87 353.2 164.55 351 164.55 351.07 171.05 340.62 171.3 340.4 189.53" style="fill:#4F46E5"></polygon><path d="M347.59,156.06H333.16a2.86,2.86,0,0,1,2.85-2.85h8.73a2.85,2.85,0,0,1,2.85,2.85Z" style="fill:#4F46E5"></path><rect x="331.31" y="156.06" width="18.13" height="3.73" style="fill:#4F46E5"></rect><rect x="331.31" y="156.06" width="18.13" height="3.73" style="fill:#fff;opacity:0.1"></rect><path d="M335.75,214.54c0,1.16.48,2.28.54,3.45.08,1.56-.54,3.06-.7,4.62-.19,1.9.3,3.82.12,5.72a42.9,42.9,0,0,1-.95,4.3c-.85,4.41.66,9,.2,13.44a22,22,0,0,0-.31,3.62c.09,1.24.54,2.43.75,3.65.51,2.92-.35,6,.59,8.84.57,1.69,2.11,3.29,3.89,3.06q.06-11.83.13-23.65,0-6.61.06-13.23,0-4.73,0-9.45l0-13.53c0-.17-.51.21-.35.27C339.68,205.65,335.65,210.91,335.75,214.54Z" style="fill:#4F46E5"></path><path d="M345.32,214.54c0,1.16-.48,2.28-.54,3.45-.08,1.56.54,3.06.7,4.62.19,1.9-.3,3.82-.12,5.72a42.85,42.85,0,0,0,.94,4.3c.86,4.41-.65,9-.19,13.44a22,22,0,0,1,.31,3.62c-.09,1.24-.54,2.43-.75,3.65-.51,2.92.35,6-.59,8.84-.57,1.69-2.11,3.29-3.89,3.06q-.06-11.83-.13-23.65c0-4.41-.06-8.82-.06-13.23,0-3.15,0-6.3,0-9.45l0-13.53c0-.17.51.21.35.27C341.39,205.65,345.42,210.91,345.32,214.54Z" style="fill:#4F46E5"></path><path d="M349.16,224H332v-3.2h17.14Zm0,21.53H332v-3.2h17.14Zm0,21.54H332v-3.2h17.14Z" style="fill:#4F46E5"></path><path d="M349.16,224H332v-3.2h17.14Zm0,21.53H332v-3.2h17.14Zm0,21.54H332v-3.2h17.14Z" style="fill:#fff;opacity:0.1"></path><path d="M342.28,222.08a1.75,1.75,0,1,1-1.75-1.75A1.75,1.75,0,0,1,342.28,222.08Z" style="fill:#4F46E5"></path><path d="M341.21,225.62h-1.36a.9.9,0,0,1-.79-.46.94.94,0,0,1,0-.92l.68-1.17a.94.94,0,0,1,1.58,0l.68,1.17a.92.92,0,0,1-.79,1.38Zm-.63-2.12h-.1l-.68,1.17.05.09h1.36l.05-.09Z" style="fill:#4F46E5"></path><path d="M338.51,224.43l-.19,0a.9.9,0,0,1-.68-.61l-.43-1.28a.92.92,0,0,1,1.06-1.19l1.32.28a.89.89,0,0,1,.69.61.91.91,0,0,1-.19.89l-.9,1A.91.91,0,0,1,338.51,224.43Zm-.42-2.26-.07.08.43,1.28.1,0,.9-1,.06-.51-.09.41Z" style="fill:#4F46E5"></path><path d="M342.53,224.43a.91.91,0,0,1-.68-.31l-.9-1a.91.91,0,0,1-.19-.89.89.89,0,0,1,.69-.61h0l1.33-.28a.88.88,0,0,1,.86.29.92.92,0,0,1,.19.9l-.43,1.28a.9.9,0,0,1-.68.61Zm-.91-2s0,0,0,0l.91,1.08.51.11-.41-.14.43-1.28-.16-.5.09.42Z" style="fill:#4F46E5"></path><path d="M339.76,221.88a1,1,0,0,1-.35-.07l-1.25-.51a.93.93,0,0,1-.57-.73.91.91,0,0,1,.35-.84l1.07-.84a.89.89,0,0,1,.9-.12.9.9,0,0,1,.57.72l.18,1.34a.89.89,0,0,1-.34.85A.91.91,0,0,1,339.76,221.88Zm-1.28-1.38,1.25.51.51-.12-.42.06-.19-1.34-.36-.38.26.34-1.07.83-.14.5Z" style="fill:#4F46E5"></path><path d="M342.91,219.75l-1.08-.84a.91.91,0,0,0-.9-.12.93.93,0,0,0-.56.72l-.19,1.34a.92.92,0,0,0,.35.85.89.89,0,0,0,.56.2,1,1,0,0,0,.34-.07l1.26-.51a.92.92,0,0,0,.22-1.57Zm-.55.77-1.3.51a.05.05,0,0,1,0-.06l.19-1.34.09,0,1.07.83Z" style="fill:#4F46E5"></path><path d="M343.65,221.62a.93.93,0,0,0-.87-.29l-.26,0,.17-.06a.92.92,0,0,0,.22-1.57l-1.08-.84a.91.91,0,0,0-.9-.12,1,1,0,0,0-.51.51.86.86,0,0,0-.51-.53.89.89,0,0,0-.91.13l-1.06.83a.91.91,0,0,0-.35.84.93.93,0,0,0,.57.73l.07,0a.87.87,0,0,0-.83.29.89.89,0,0,0-.19.89l.43,1.29a.9.9,0,0,0,.68.61.65.65,0,0,0,.19,0,.91.91,0,0,0,.55-.18.88.88,0,0,0,0,.91.92.92,0,0,0,.79.46h1.36a.93.93,0,0,0,.8-.46.91.91,0,0,0,0-.89.89.89,0,0,0,.52.16.58.58,0,0,0,.19,0,.93.93,0,0,0,.69-.61l.42-1.29A.93.93,0,0,0,343.65,221.62Zm-2.43-2,.09,0,1.07.83,0,.1-1.3.51a.05.05,0,0,1,0-.06Zm-.26,2.26a.89.89,0,0,0-.22.78.82.82,0,0,0-.44,0,.81.81,0,0,0,0-.46.9.9,0,0,0-.25-.38.89.89,0,0,0,.29-.15.32.32,0,0,0,.1-.1.31.31,0,0,0,.11.12A1,1,0,0,0,341,221.89Zm-2.49-1.49,1.06-.83-.26-.34.36.38.19,1.34.36,0h0l-.45.11-1.26-.52-.16.4Zm.08,3.16-.1,0-.43-1.28.07-.08,1.33.27.09-.41-.05.51Zm2.66,1.2h-1.36l-.05-.09.68-1.17h.11l.67,1.17Zm1.79-1.09-.51-.11-.91-1.07s0-.05,0-.05l1.33-.27-.09-.42.15.5-.41,1.28Z" style="fill:#fff;opacity:0.2"></path><path d="M342.28,222.08a1.75,1.75,0,1,1-1.75-1.75A1.75,1.75,0,0,1,342.28,222.08Z" style="fill:#4F46E5"></path><g style="opacity:0.30000000000000004"><path d="M342.28,222.08a1.75,1.75,0,1,1-1.75-1.75A1.75,1.75,0,0,1,342.28,222.08Z" style="fill:#fff"></path></g><path d="M341.21,247.34h-1.36a.9.9,0,0,1-.79-.46.92.92,0,0,1,0-.91l.68-1.18a.94.94,0,0,1,1.58,0L342,246a.88.88,0,0,1,0,.91A.89.89,0,0,1,341.21,247.34Zm-.63-2.12h-.1l-.68,1.17.05.1h1.36l.05-.1Z" style="fill:#4F46E5"></path><path d="M338.51,246.15a.65.65,0,0,1-.19,0,.89.89,0,0,1-.68-.6l-.43-1.29a.92.92,0,0,1,.19-.9.94.94,0,0,1,.87-.29l1.32.28a.91.91,0,0,1,.5,1.5l-.9,1A.9.9,0,0,1,338.51,246.15Zm-.42-2.26L338,244l.43,1.29.1,0,.9-1,.06-.52-.09.42Z" style="fill:#4F46E5"></path><path d="M342.53,246.15a.9.9,0,0,1-.68-.3l-.9-1a.91.91,0,0,1,.5-1.5h0l1.33-.28a.9.9,0,0,1,.86.29.92.92,0,0,1,.19.9l-.43,1.29a.89.89,0,0,1-.68.6A.62.62,0,0,1,342.53,246.15Zm-.91-2s0,0,0,0l.91,1.07.51.11-.41-.13L343,244l-.16-.5.09.42Z" style="fill:#4F46E5"></path><path d="M339.76,243.6a.84.84,0,0,1-.35-.07l-1.25-.51a.93.93,0,0,1-.57-.72.92.92,0,0,1,.35-.85l1.07-.83a.89.89,0,0,1,.9-.13.93.93,0,0,1,.57.72l.18,1.35a.89.89,0,0,1-.34.84A.91.91,0,0,1,339.76,243.6Zm-1.28-1.37,1.25.51.51-.12-.42,0-.19-1.34-.36-.38.26.34-1.07.83-.14.5Z" style="fill:#4F46E5"></path><path d="M342.91,241.47l-1.08-.83a.89.89,0,0,0-.9-.13.94.94,0,0,0-.56.72l-.19,1.35a.91.91,0,0,0,.35.84.89.89,0,0,0,.56.2,1,1,0,0,0,.34-.07l1.26-.51a.87.87,0,0,0,.56-.72A.89.89,0,0,0,342.91,241.47Zm-.55.77-1.3.51s0,0,0-.05l.19-1.35.09,0,1.07.83Z" style="fill:#4F46E5"></path><path d="M343.65,243.34a.92.92,0,0,0-.87-.28l-.26.05.17-.07a.87.87,0,0,0,.56-.72.89.89,0,0,0-.34-.85l-1.08-.83a.89.89,0,0,0-.9-.13,1,1,0,0,0-.51.51.86.86,0,0,0-.51-.53.89.89,0,0,0-.91.13l-1.06.83a.92.92,0,0,0-.35.85.93.93,0,0,0,.57.72l.07,0a.89.89,0,0,0-.83.28.9.9,0,0,0-.19.9l.43,1.29a.89.89,0,0,0,.68.6.65.65,0,0,0,.19,0,.91.91,0,0,0,.55-.18.89.89,0,0,0,0,.92.93.93,0,0,0,.79.45h1.36a.94.94,0,0,0,.8-.45.93.93,0,0,0,0-.9.89.89,0,0,0,.52.16.58.58,0,0,0,.19,0,.91.91,0,0,0,.69-.6l.42-1.29A1,1,0,0,0,343.65,243.34Zm-2.43-2,.09,0,1.07.83,0,.1-1.3.51s0,0,0-.05Zm-.26,2.26a.92.92,0,0,0-.19.33.77.77,0,0,0,0,.45,1.09,1.09,0,0,0-.44,0,.77.77,0,0,0,0-.45.88.88,0,0,0-.25-.39.71.71,0,0,0,.29-.14.5.5,0,0,0,.1-.11.25.25,0,0,0,.11.12A.8.8,0,0,0,341,243.61Zm-2.49-1.49,1.06-.83-.26-.34.36.38.19,1.34.36,0h0l-.45.11-1.26-.51-.16.39Zm.08,3.16-.1,0L338,244l.07-.08,1.33.28.09-.42-.05.51Zm2.66,1.2h-1.36l-.05-.09.68-1.17h.11l.67,1.17Zm1.79-1.09-.51-.11-.91-1.07s0,0,0,0l1.33-.28-.09-.41.15.49-.41,1.28Z" style="fill:#fff;opacity:0.2"></path><circle cx="340.53" cy="243.81" r="1.75" style="fill:#4F46E5"></circle><g style="opacity:0.30000000000000004"><circle cx="340.53" cy="243.81" r="1.75" style="fill:#fff"></circle></g><rect x="332.55" y="192.74" width="16.25" height="6.92" style="opacity:0.1"></rect><rect x="333.62" y="193.73" width="0.66" height="4.95" style="fill:#4F46E5"></rect><rect x="334.97" y="193.73" width="0.66" height="4.95" style="fill:#4F46E5"></rect><rect x="336.31" y="193.73" width="0.66" height="4.95" style="fill:#4F46E5"></rect><rect x="337.66" y="193.73" width="0.66" height="4.95" style="fill:#4F46E5"></rect><rect x="339" y="193.73" width="0.66" height="4.95" style="fill:#4F46E5"></rect><rect x="340.35" y="193.73" width="0.66" height="4.95" style="fill:#4F46E5"></rect><rect x="341.7" y="193.73" width="0.66" height="4.95" style="fill:#4F46E5"></rect><rect x="343.04" y="193.73" width="0.66" height="4.95" style="fill:#4F46E5"></rect><rect x="344.39" y="193.73" width="0.66" height="4.95" style="fill:#4F46E5"></rect><rect x="345.74" y="193.73" width="0.66" height="4.95" style="fill:#4F46E5"></rect><rect x="347.08" y="193.73" width="0.66" height="4.95" style="fill:#4F46E5"></rect><path d="M337.77,265.66c-.68.37-1.43.6-2.13.95a7.49,7.49,0,0,0-3.09,2.79,1.16,1.16,0,0,0-.23.68.8.8,0,0,0,.61.67,1.84,1.84,0,0,0,1,0,8.18,8.18,0,0,0,5.89-5.45c.19-.56.18-1.6-.52-1.2-.17.1-.43.76-.63,1A3.77,3.77,0,0,1,337.77,265.66Z" style="fill:#fff;opacity:0.1"></path><path d="M343.34,265.66c.68.37,1.43.6,2.13.95a7.43,7.43,0,0,1,3.09,2.79,1.17,1.17,0,0,1,.24.68.82.82,0,0,1-.62.67,1.8,1.8,0,0,1-.95,0,8.17,8.17,0,0,1-5.9-5.45c-.18-.56-.18-1.6.52-1.2.18.1.44.76.63,1A3.77,3.77,0,0,0,343.34,265.66Z" style="fill:#fff;opacity:0.1"></path><path d="M338.7,268.78a4.74,4.74,0,0,0,.06,1.68,1.67,1.67,0,0,0,1.07,1.2,2.24,2.24,0,0,0,.73,0,1.82,1.82,0,0,0,.86-.24,2.15,2.15,0,0,0,.67-1.72,5.71,5.71,0,0,0,0-1.49,2,2,0,0,0-2.05-1.67C339,266.7,338.78,267.92,338.7,268.78Z" style="fill:#fff;opacity:0.1"></path><path d="M340,264.13v2.7h.88l-.06-2.68A5.62,5.62,0,0,1,340,264.13Z" style="fill:#4F46E5"></path><path d="M348.91,301.28H331.74a1.32,1.32,0,0,1-1.32-1.32h0a1.32,1.32,0,0,1,1.32-1.32h17.17a1.32,1.32,0,0,1,1.32,1.32h0A1.32,1.32,0,0,1,348.91,301.28Z" style="fill:#4F46E5"></path><polygon points="327.98 305.75 331.74 301.29 348.91 301.29 352.97 305.75 327.98 305.75" style="fill:#4F46E5"></polygon><rect x="308.99" y="355.99" width="64.46" height="16.15" style="fill:#4F46E5"></rect><rect x="308.99" y="355.99" width="64.46" height="16.15" style="opacity:0.1"></rect><rect x="337.68" y="358.83" width="6.7" height="13.1" style="opacity:0.2"></rect><polygon points="314.88 372.09 291.26 372.09 296.61 355.48 309.52 355.48 314.88 372.09" style="fill:#4F46E5"></polygon><polygon points="316.11 372.29 289.74 372.29 291.17 368.87 314.68 368.87 316.11 372.29" style="fill:#4F46E5"></polygon><polygon points="302.69 355.89 309.85 355.89 313.81 368.54 302.69 368.54 302.69 355.89" style="opacity:0.2"></polygon><polygon points="302.84 372.29 316.1 372.29 314.66 368.87 302.69 368.87 302.84 372.29" style="opacity:0.2"></polygon><polygon points="389.24 372.09 365.62 372.09 370.97 355.48 383.89 355.48 389.24 372.09" style="fill:#4F46E5"></polygon><polygon points="390.47 372.29 364.1 372.29 365.53 368.87 389.04 368.87 390.47 372.29" style="fill:#4F46E5"></polygon><polygon points="377.91 355.89 370.75 355.89 366.79 368.54 377.91 368.54 377.91 355.89" style="opacity:0.2"></polygon><polygon points="377.35 372.29 364.1 372.29 365.53 368.87 377.51 368.87 377.35 372.29" style="opacity:0.2"></polygon><rect x="296.59" y="351.98" width="87.47" height="4.57" style="fill:#4F46E5"></rect><rect x="296.59" y="351.98" width="87.47" height="4.57" style="fill:#fff;opacity:0.2"></rect><path d="M348.91,301.28H331.74a1.32,1.32,0,0,1-1.32-1.32h0a1.32,1.32,0,0,1,1.32-1.32h17.17a1.32,1.32,0,0,1,1.32,1.32h0A1.32,1.32,0,0,1,348.91,301.28Z" style="fill:#fff;opacity:0.2"></path><polygon points="327.98 305.75 331.74 301.29 348.91 301.29 352.97 305.75 327.98 305.75" style="fill:#fff;opacity:0.1"></polygon><path d="M341.21,269.06h-1.36a.91.91,0,0,1-.79-.45.94.94,0,0,1,0-.92l.68-1.17a.93.93,0,0,1,1.58,0l.68,1.17a.89.89,0,0,1,0,.92A.9.9,0,0,1,341.21,269.06Zm-.63-2.12h-.1l-.68,1.18.05.09h1.36l.05-.09Z" style="fill:#4F46E5"></path><path d="M338.51,267.88l-.19,0a.92.92,0,0,1-.68-.61l-.43-1.29a.9.9,0,0,1,.19-.89.89.89,0,0,1,.87-.29l1.32.27a.91.91,0,0,1,.5,1.51l-.9,1A.91.91,0,0,1,338.51,267.88Zm-.42-2.27-.07.08.43,1.29.1,0,.9-1,.06-.52-.09.42Z" style="fill:#4F46E5"></path><path d="M342.53,267.88a.91.91,0,0,1-.68-.31l-.9-1a.91.91,0,0,1,.5-1.51h0l1.33-.27a.88.88,0,0,1,.86.29.9.9,0,0,1,.19.89l-.43,1.29a.92.92,0,0,1-.68.61Zm-.91-2s0,0,0,0l.91,1.07.51.11-.41-.13.43-1.29-.16-.49.09.41Z" style="fill:#4F46E5"></path><path d="M339.76,265.32a.84.84,0,0,1-.35-.07l-1.25-.51a.9.9,0,0,1-.57-.72.93.93,0,0,1,.35-.85l1.07-.83a.92.92,0,0,1,.9-.13.93.93,0,0,1,.57.73l.18,1.34a.9.9,0,0,1-.9,1ZM338.48,264l1.25.51.51-.12-.42.06-.19-1.35-.36-.37.26.33-1.07.84-.14.5Z" style="fill:#4F46E5"></path><path d="M342.91,263.2l-1.08-.84a.89.89,0,0,0-.9-.13.94.94,0,0,0-.56.73l-.19,1.34a.92.92,0,0,0,.91,1,.83.83,0,0,0,.34-.07l1.26-.51a.91.91,0,0,0,.22-1.56Zm-.55.77-1.3.5s0,0,0-.05l.19-1.34.09-.05,1.07.83Z" style="fill:#4F46E5"></path><path d="M343.65,265.06a.92.92,0,0,0-.87-.28l-.26.05.17-.07a.91.91,0,0,0,.22-1.56l-1.08-.84a.89.89,0,0,0-.9-.13,1,1,0,0,0-.51.51.89.89,0,0,0-.51-.53.94.94,0,0,0-.91.13l-1.06.83a.93.93,0,0,0-.35.85.92.92,0,0,0,.57.72l.07,0a.89.89,0,0,0-.83.28.9.9,0,0,0-.19.9l.43,1.29a.9.9,0,0,0,.68.61h.19a.91.91,0,0,0,.55-.18.89.89,0,0,0,0,.92.93.93,0,0,0,.79.45h1.36a.94.94,0,0,0,.8-.45.93.93,0,0,0,0-.9.89.89,0,0,0,.52.16h.19a.93.93,0,0,0,.69-.61l.42-1.29A1,1,0,0,0,343.65,265.06Zm-2.43-2,.09-.05,1.07.83,0,.11-1.3.5s0,0,0-.05Zm-.26,2.25a.92.92,0,0,0-.19.33.78.78,0,0,0,0,.45,1.09,1.09,0,0,0-.44,0,.77.77,0,0,0,0-.45,1,1,0,0,0-.25-.39.71.71,0,0,0,.29-.14.47.47,0,0,0,.1-.1.4.4,0,0,0,.11.12A.86.86,0,0,0,341,265.33Zm-2.49-1.48,1.06-.83-.26-.34.36.37.19,1.34.36-.05h0l-.45.11-1.26-.51-.16.39Zm.08,3.15-.1,0-.43-1.29.07-.07,1.33.27.09-.42-.05.51Zm2.66,1.21h-1.36l-.05-.1.68-1.17h.11l.67,1.17Zm1.79-1.1-.51-.11-.91-1.07s0,0,0,0l1.33-.27-.09-.42.15.49L342.6,267Z" style="fill:#fff;opacity:0.2"></path><path d="M342.28,265.53a1.75,1.75,0,1,1-1.75-1.75A1.75,1.75,0,0,1,342.28,265.53Z" style="fill:#4F46E5"></path><g style="opacity:0.30000000000000004"><path d="M342.28,265.53a1.75,1.75,0,1,1-1.75-1.75A1.75,1.75,0,0,1,342.28,265.53Z" style="fill:#fff"></path></g><path d="M331.93,178.38a2,2,0,0,0,.15,2.53,1.45,1.45,0,0,0,2.16-.16,2.39,2.39,0,0,0,.13-1.48l-1.1-.13-.08.31c.17-.2.53-.08.65.15a1.19,1.19,0,0,1,0,.77l-.87,0a.59.59,0,0,1-.27,0,.51.51,0,0,1-.2-.37c-.13-.59-.21-1.35.3-1.69a1.2,1.2,0,0,1,1.51.48,2.4,2.4,0,0,1-.12,2.9.76.76,0,0,1,.36,1,.75.75,0,0,1-1,.3,2.21,2.21,0,0,0,.86,1.81,3.94,3.94,0,0,0,1.91.75.33.33,0,0,0,.22,0,.37.37,0,0,0,.13-.31l.12-2.67a1.65,1.65,0,0,0-.35-1.38,1.09,1.09,0,0,1,.63-.17,2.12,2.12,0,0,1-.82-.48.72.72,0,0,1-.13-.86.73.73,0,0,1,.78-.24,2.12,2.12,0,0,1,.75.44c.31-.27.1-.78-.18-1.08C336.28,177.44,333.17,176.73,331.93,178.38Z" style="opacity:0.2"></path><path d="M349.24,178.38a2,2,0,0,1-.14,2.53,1.45,1.45,0,0,1-2.16-.16,2.26,2.26,0,0,1-.13-1.48l1.1-.13c0,.11,0,.21.07.31-.16-.2-.52-.08-.64.15a1.19,1.19,0,0,0,0,.77l.87,0a.61.61,0,0,0,.27,0,.54.54,0,0,0,.2-.37c.13-.59.21-1.35-.3-1.69a1.2,1.2,0,0,0-1.51.48,2.39,2.39,0,0,0,.12,2.9.72.72,0,1,0,.65,1.29,2.27,2.27,0,0,1-.86,1.81,3.94,3.94,0,0,1-1.91.75.36.36,0,0,1-.23,0c-.1-.06-.11-.19-.12-.31l-.13-2.67a1.69,1.69,0,0,1,.36-1.38,1.09,1.09,0,0,0-.63-.17,2.08,2.08,0,0,0,.81-.48.72.72,0,0,0,.14-.86.74.74,0,0,0-.78-.24,2.12,2.12,0,0,0-.75.44c-.31-.27-.1-.78.17-1.08C344.89,177.44,348,176.73,349.24,178.38Z" style="opacity:0.2"></path><g style="opacity:0.30000000000000004"><path d="M349.24,184.37l-.62,5.17h.08v3.21h.1v6.92h-.1v21.11h.46V224h-.46v18.34h.46v3.2h-.46v18.33h.46v3.2h-.46v2.63a.85.85,0,0,1,.09.41.62.62,0,0,1-.09.26v28.3h.21a1.32,1.32,0,0,1,0,2.64l4.06,4.47H328l3.76-4.47a1.32,1.32,0,1,1,0-2.64h.81V270.54a.74.74,0,0,1-.24-.45,1.15,1.15,0,0,1,.24-.68h0v-2.35H332v-3.2h.53V245.52H332v-3.2h.53V224H332v-3.2h.53V189.54l-.61-5.17-4-5.49V164.55h2.21l-.08,6.5,10.45.25h.06l10.45-.25-.08-6.5h2.21v14.33Z" style="fill:#fff"></path></g><path d="M334.86,95.82c-1.53-2.72-5.13-3.34-7.66-5.17-2-1.45-3.33-3.66-4.81-5.65-3.92-5.25-9.27-9.21-14.55-13.09-3.56-2.62-7.18-5.28-11.33-6.81l-.57,1.34c-.57,1.33.65,3,2,3.5a3.44,3.44,0,0,0,2.17,3.4c.63,2.52,2.33,4.94,4.81,5.73l-.24.62c-.37,1,1.06,1.78,2,2.31l4.95,2.8a3.77,3.77,0,0,0,1.73,3,2.91,2.91,0,0,0,2.22,2.37c.46.07.93,0,1.39.12a1.14,1.14,0,0,1,1,.88c-.33.35,0,.87.29,1.24a3,3,0,0,0,1.2.78l2.83,1.25a1.54,1.54,0,0,0-1,1.6,1.86,1.86,0,0,0,1.42,1.56,2,2,0,0,0,.39,2.33,1.58,1.58,0,0,0,2.06-.11,2.1,2.1,0,0,0,.73,2.11,1.76,1.76,0,0,0,2,0,2.39,2.39,0,0,0,.66,2.56,2.28,2.28,0,0,0,2.59.22,1.51,1.51,0,0,0,.7,1.27.86.86,0,0,0,1-.41,5,5,0,0,0,1.58,1,1.69,1.69,0,0,0,1.74-.32,2.49,2.49,0,0,0,.31-2.08C336,101.4,336.21,98.25,334.86,95.82Z" style="fill:#4F46E5"></path><path d="M334.86,95.82c-1.53-2.72-5.13-3.34-7.66-5.17-2-1.45-3.33-3.66-4.81-5.65-3.92-5.25-9.27-9.21-14.55-13.09-3.56-2.62-7.18-5.28-11.33-6.81l-.57,1.34c-.57,1.33.65,3,2,3.5a3.44,3.44,0,0,0,2.17,3.4c.63,2.52,2.33,4.94,4.81,5.73l-.24.62c-.37,1,1.06,1.78,2,2.31l4.95,2.8a3.77,3.77,0,0,0,1.73,3,2.91,2.91,0,0,0,2.22,2.37c.46.07.93,0,1.39.12a1.14,1.14,0,0,1,1,.88c-.33.35,0,.87.29,1.24a3,3,0,0,0,1.2.78l2.83,1.25a1.54,1.54,0,0,0-1,1.6,1.86,1.86,0,0,0,1.42,1.56,2,2,0,0,0,.39,2.33,1.58,1.58,0,0,0,2.06-.11,2.1,2.1,0,0,0,.73,2.11,1.76,1.76,0,0,0,2,0,2.39,2.39,0,0,0,.66,2.56,2.28,2.28,0,0,0,2.59.22,1.51,1.51,0,0,0,.7,1.27.86.86,0,0,0,1-.41,5,5,0,0,0,1.58,1,1.69,1.69,0,0,0,1.74-.32,2.49,2.49,0,0,0,.31-2.08C336,101.4,336.21,98.25,334.86,95.82Z" style="opacity:0.30000000000000004"></path><path d="M306,73.54a28.9,28.9,0,0,0,5.56,3.6l-1,.58A26.73,26.73,0,0,1,316,80.35l-2.91.73a14,14,0,0,1,6.27,3.38,2.2,2.2,0,0,0-1.5.48,8.14,8.14,0,0,1,3.77,2.46,4.06,4.06,0,0,0-1.32,1.69,7.35,7.35,0,0,1,4.64,2.07,2.87,2.87,0,0,0-.6,1.45,4.3,4.3,0,0,1,2.57-.62c-.2.71-.39,1.42-.59,2.13a5.46,5.46,0,0,1,1.21-.66c.18.24,0,.59.09.89a.94.94,0,0,0,.83.69,2.76,2.76,0,0,0,1.13-.17c-.31,1.43-.61,2.86-.92,4.28a12.43,12.43,0,0,1,2-3.4l.45,3.13.78-1.83c.15.52.3,1,.46,1.55.18-.63.37-1.27.56-1.9a43.36,43.36,0,0,1,1,5.42c0-1.19,0-2.37,0-3.56,0-.29.15-.69.41-.58l.36,2.25A5.78,5.78,0,0,0,332,94.89c-.78-.49-1.68-.77-2.43-1.31s-1.32-1.29-2-1.88c-1.11-.9-2.56-1.37-3.55-2.41a19.13,19.13,0,0,1-1.89-3c-1.09-1.68-2.8-2.86-4.06-4.42a13.65,13.65,0,0,0-2.58-3c-1-.7-2.39-.92-3.28-1.8-.34-.33-.6-.75-.92-1.1C309.83,74.52,307.44,74.76,306,73.54Z" style="opacity:0.30000000000000004"></path><path d="M328.74,84.21a.35.35,0,0,0-.43-.49,8.57,8.57,0,0,0-1.62.84,1.75,1.75,0,0,0,.62-.49.58.58,0,0,0,0-.73c-.24-.24-.65-.11-1,0l-2,.92a1.83,1.83,0,0,0,.9-.63.63.63,0,0,0-.25-.93.93.93,0,0,0-.7.2c-.61.37-1.29,1-1.9,1.35.13-.21.32-.38.45-.59a.68.68,0,0,0,.06-.71.6.6,0,0,0-.84-.07,1.74,1.74,0,0,0-.51.78c-.12.29-.19.72-.43.91a.86.86,0,0,0-.73-.85,2.29,2.29,0,0,0,.5,2.26,1.43,1.43,0,0,0-.11,1.51,1.84,1.84,0,0,0,1.51.87,1,1,0,0,0-.62-1.2,2.66,2.66,0,0,0,1.67.76.33.33,0,0,0,.3-.52l-.53-.74a3.27,3.27,0,0,0,1.78,1.07c.21,0,.7.1.83-.07s.07-.34-.12-.46a2.93,2.93,0,0,0-.9-.52,5.82,5.82,0,0,0,1.87.58c.32,0,.74,0,.8-.34a.46.46,0,0,0-.28-.48,1.31,1.31,0,0,0-.59-.1c.49.13.88.11,1.37.24a2,2,0,0,0,.8.1.63.63,0,0,0,.54-.53.63.63,0,0,0-.48-.59,2.82,2.82,0,0,0-1-.24A8.27,8.27,0,0,0,328.74,84.21Z" style="fill:#4F46E5"></path><path d="M326.19,84.46a.35.35,0,0,1,.34-.55,7.9,7.9,0,0,1,1.73.54,1.61,1.61,0,0,1-.69-.38.57.57,0,0,1-.11-.72c.2-.28.62-.22,1-.13l2.12.57a1.75,1.75,0,0,1-1-.46.64.64,0,0,1,.09-1,1,1,0,0,1,.72.08c.66.26,1.44.74,2.11,1-.17-.18-.38-.32-.55-.5a.68.68,0,0,1-.19-.68.61.61,0,0,1,.82-.22,1.75,1.75,0,0,1,.64.68c.16.27.31.67.59.82a.86.86,0,0,1,.56-1,2.3,2.3,0,0,1-.1,2.32,1.42,1.42,0,0,1,.37,1.47,1.86,1.86,0,0,1-1.33,1.12,1,1,0,0,1,.39-1.29,2.62,2.62,0,0,1-1.5,1,.33.33,0,0,1-.39-.46l.39-.81a3.2,3.2,0,0,1-1.56,1.35c-.21.08-.68.23-.84.07s-.12-.31,0-.47.58-.61.8-.66a6,6,0,0,1-1.74.89c-.31.09-.74.1-.85-.2a.48.48,0,0,1,.2-.52,1.34,1.34,0,0,1,.56-.2c-.46.21-.85.26-1.31.48a1.91,1.91,0,0,1-.77.23.56.56,0,0,1-.25-1.09,2.64,2.64,0,0,1,.91-.4A8.86,8.86,0,0,1,326.19,84.46Z" style="fill:#4F46E5"></path><path d="M343.31,100.64a12.17,12.17,0,0,1,2-6.88,5.66,5.66,0,0,0,.67-1.2c.15-.43.4-1,.14-1.33a7.49,7.49,0,0,0,1.78-1.68c.46-.69,1-1.56.65-2.32,1.08-.83,2.15-1.68,3.21-2.54a2,2,0,0,0,.77-1c.1-.42.13-1-.29-.91a36.11,36.11,0,0,0,3.25-2.93,3.46,3.46,0,0,0,.82-1.16c.16-.45.35-1.32,0-1.62a2.77,2.77,0,0,0,1.7-2.58c-.14,0,0-.28-.17-.28a4.27,4.27,0,0,0,1.7-2.42,1.13,1.13,0,0,0-.14-1.06c-.42-.42-1.08.36-1.64.55-4.44,1.53-8.81,3.74-11.83,7.34C341.47,83.91,340.62,91.19,340,98A10.46,10.46,0,0,1,343.31,100.64Z" style="fill:#4F46E5"></path><path d="M343.31,100.64a12.17,12.17,0,0,1,2-6.88,5.66,5.66,0,0,0,.67-1.2c.15-.43.4-1,.14-1.33a7.49,7.49,0,0,0,1.78-1.68c.46-.69,1-1.56.65-2.32,1.08-.83,2.15-1.68,3.21-2.54a2,2,0,0,0,.77-1c.1-.42.13-1-.29-.91a36.11,36.11,0,0,0,3.25-2.93,3.46,3.46,0,0,0,.82-1.16c.16-.45.35-1.32,0-1.62a2.77,2.77,0,0,0,1.7-2.58c-.14,0,0-.28-.17-.28a4.27,4.27,0,0,0,1.7-2.42,1.13,1.13,0,0,0-.14-1.06c-.42-.42-1.08.36-1.64.55-4.44,1.53-8.81,3.74-11.83,7.34C341.47,83.91,340.62,91.19,340,98A10.46,10.46,0,0,1,343.31,100.64Z" style="opacity:0.2"></path><path d="M351.87,76.15a17,17,0,0,0-5.81,4.45,10.45,10.45,0,0,0-1.66,2.6,20,20,0,0,0-.86,3.17,55.93,55.93,0,0,1-2.1,6.58,3.75,3.75,0,0,0-.33,2A1.28,1.28,0,0,0,342.59,96a1.62,1.62,0,0,0-.93-.79,2.41,2.41,0,0,1,.42-1.76l1.24.35a1.94,1.94,0,0,1-.9-1.32c0-.54.8-1,1.09-.54-.45-.51-.88-1.36-.34-1.79s1.14,0,1.72-.1c.05-.23-.25-.4-.49-.41s-.53,0-.68-.19a.58.58,0,0,1-.12-.36,2.69,2.69,0,0,1,2.13-2.78,1,1,0,0,0-1.16,0c-.32-.12,0-.58.32-.72a11.28,11.28,0,0,0,3.87-2.79L345,84.13c1.62-2.19,4.06-3.6,6.44-4.93a16.25,16.25,0,0,0-3.53,1.17,5.93,5.93,0,0,1,3.07-2.51A13.4,13.4,0,0,0,354.49,76a2.62,2.62,0,0,1-1.1.27c.52,0,1.86-1,1.68-1.5C354,75.16,352.92,75.66,351.87,76.15Z" style="opacity:0.30000000000000004"></path><path d="M357.5,107.81a4.2,4.2,0,0,1-2.6.9l-1-.63s-6.7-.45-7.42-.71-1.79-2.42-1.79-2.42c.54,1.79.36,3.58.63,3.93a2.23,2.23,0,0,1,.23.87c-.65,0-1.64-.78-4.47,1.3s-3.47,2.07-3.48,2.07l-3.24.2-2.58.84a.59.59,0,0,0,.21-.36c.09-.8,2.87-5.16,2.87-5.16s-1.4-8.3-3-9-4.73-6-4.88-6-.49-5.76-.49-5.76-1-3-.18-4.12c0,0,1.79-.89,2.68-.26s.27,4.2.27,4.2l1.07,4.92c.54,1,4.66,3,4.66,3a18.87,18.87,0,0,1,2.54,0c1,.16.73-2.5.73-2.5s2.65,0,2.36.44c-.9,1.34.09,2,0,2.24s3-.38,4,1.79c1.67,3.45,3.28,6.26,3.37,6.53a64.32,64.32,0,0,0,6.08,2.14l2.15-1.43C358.22,104.33,358.75,106.83,357.5,107.81Z" style="fill:#4F46E5"></path><path d="M340.11,140.52s-1,.95-.44,4.23l-.47-.12a5.42,5.42,0,0,0-3,2.88c-.82,2.11-1.36,2.24-1.6,2.37s-1.11.1-1.37.48-.36.85-.55,1a4.45,4.45,0,0,1-1.06.28,9.62,9.62,0,0,1-1-.64s.44-2.87,1.43-3.31,2.78-1.79,2.42-2.24a8.09,8.09,0,0,1-1.43-3.84c0-1.44,1.79-2.69,1.79-2.69l1.6-3.67s-.35-1-1.16-.44-2-.72-2.95-1.61.72-3.58.72-3.58l.17-1.79-.8-1a5.29,5.29,0,0,1-2.24-.62c-1-.56-.87-2-.82-2.35-.11,0-.3,0-.6-.07-1.17-.18-2.07-2.32-2.33-3.66s2-2.07,3.58-1.79a15.3,15.3,0,0,0,2.32.26s2.94,2.65,3.26,4.51,0,2.37,1.66,3.68c0,0,.44.22,0,2,0,0,1.15.32,1.37.68s.46.84,0,2.57a11,11,0,0,0,1,4.54C340.72,138.7,341.53,139.12,340.11,140.52Z" style="fill:#4F46E5"></path><path d="M340.11,140.52s-1,.95-.44,4.23l-.47-.12a5.42,5.42,0,0,0-3,2.88c-.82,2.11-1.36,2.24-1.6,2.37s-1.11.1-1.37.48-.36.85-.55,1a4.45,4.45,0,0,1-1.06.28,9.62,9.62,0,0,1-1-.64s.44-2.87,1.43-3.31,2.78-1.79,2.42-2.24a8.09,8.09,0,0,1-1.43-3.84c0-1.44,1.79-2.69,1.79-2.69l1.6-3.67s-.35-1-1.16-.44-2-.72-2.95-1.61.72-3.58.72-3.58l.17-1.79-.8-1a5.29,5.29,0,0,1-2.24-.62c-1-.56-.87-2-.82-2.35-.11,0-.3,0-.6-.07-1.17-.18-2.07-2.32-2.33-3.66s2-2.07,3.58-1.79a15.3,15.3,0,0,0,2.32.26s2.94,2.65,3.26,4.51,0,2.37,1.66,3.68c0,0,.44.22,0,2,0,0,1.15.32,1.37.68s.46.84,0,2.57a11,11,0,0,0,1,4.54C340.72,138.7,341.53,139.12,340.11,140.52Z" style="opacity:0.2"></path><path d="M352.58,125.7c-.27.26-1.25-.09-1.43.26a2.48,2.48,0,0,0-.09,1.08c-.8.8-2.24.8-2.5,1.25s.08,1.52-.54,1.7-.8-.66-.93-1.21a.06.06,0,0,1,0,0c0-.09,0-.18,0-.28s0-.05,0-.08c-.4-3.23-6.52-5.14-6.52-5.14-5.55-3.09-5.39-3.4-6.31-4.52a3.1,3.1,0,0,0-1.91-.84l-.1-.95-1-.26c-1.26-1.7,0-2,.58-2.51h0l2.58-.84,3.24-.2s.68,0,3.48-2.07,3.82-1.35,4.47-1.3c.05.4.07.75.12.66s1.16.62,1.53,1a12.28,12.28,0,0,1,1.69,3.4c0,.54,1.61,1,1.61,1s2.59,3,3.13,5.36A5.49,5.49,0,0,1,352.58,125.7Z" style="fill:#4F46E5"></path><path d="M352.58,125.7c-.27.26-1.25-.09-1.43.26a2.48,2.48,0,0,0-.09,1.08c-.8.8-2.24.8-2.5,1.25s.08,1.52-.54,1.7-.8-.66-.93-1.21a.06.06,0,0,1,0,0c0-.09,0-.18,0-.28s0-.05,0-.08c-.4-3.23-6.52-5.14-6.52-5.14-5.55-3.09-5.39-3.4-6.31-4.52a3.1,3.1,0,0,0-1.91-.84l-.1-.95-1-.26c-1.26-1.7,0-2,.58-2.51h0l2.58-.84,3.24-.2s.68,0,3.48-2.07,3.82-1.35,4.47-1.3c.05.4.07.75.12.66s1.16.62,1.53,1a12.28,12.28,0,0,1,1.69,3.4c0,.54,1.61,1,1.61,1s2.59,3,3.13,5.36A5.49,5.49,0,0,1,352.58,125.7Z" style="opacity:0.2"></path><path d="M348.38,151.81v1.52h-16s0-1.79-.14-1.52c-.07.11-.34,0-.63-.16a4.45,4.45,0,0,0,1.06-.28c.19-.16.3-.62.55-1s1.13-.34,1.37-.48.78-.26,1.6-2.37a5.42,5.42,0,0,1,3-2.88l.47.12c-.59-3.28.44-4.23.44-4.23,1.42-1.4.61-1.82-.44-4a11,11,0,0,1-1-4.54c.42-1.73.18-2.2,0-2.57s-1.37-.68-1.37-.68c.44-1.73,0-2,0-2-1.69-1.31-1.35-1.82-1.66-3.68s-3.26-4.51-3.26-4.51l-.08-.75a3.1,3.1,0,0,1,1.91.84c.92,1.12.76,1.43,6.31,4.52,0,0,6.12,1.91,6.52,5.14,0-.35-1.43-.54-1.88.45s-1.78,3.58-1.78,3.58a8.41,8.41,0,0,1,.09,3.13,9,9,0,0,1-.54,2.32,12.4,12.4,0,0,1-.36,2.23,23.1,23.1,0,0,0,.54,3.76l.63,1c.47,1.67,2.39,3.59,3.61,4.67A3.1,3.1,0,0,1,348.38,151.81Z" style="fill:#4F46E5"></path><path d="M357,107c0,.38-.07.7-.23.71s-.32-.28-.35-.67.08-.7.24-.71S357,106.61,357,107Z" style="fill:#4F46E5"></path><path d="M340.34,97.4c-2.34-.37-2.7-1.7-2.7-1.7.88-.71.62-3,.37-4.34l1,1,1.39,1.4a3.35,3.35,0,0,0-.12.89,1.63,1.63,0,0,0,1,1.52,1.17,1.17,0,0,1,.56.56C342,97.15,342,97.64,340.34,97.4Z" style="fill:#4F46E5"></path><path d="M340.42,93.78a3.35,3.35,0,0,0-.12.89c-.69-.32-1.4-.86-1.47-1.38a2,2,0,0,1,.2-.91Z" style="opacity:0.30000000000000004;isolation:isolate"></path><path d="M336.32,88.43a2.83,2.83,0,0,1,3.22-2.4c2.19.31,3.23,3.24,3.27,5.18a2.66,2.66,0,0,1-4.22,2.18c-1.3-.79-1.53-1.65-2.16-3.65A2.77,2.77,0,0,1,336.32,88.43Z" style="fill:#4F46E5"></path><path d="M341.44,90.76a.73.73,0,0,0,.56-.26,4.13,4.13,0,0,1-.86-.91Z" style="opacity:0.30000000000000004"></path><path d="M339.93,91.3a.08.08,0,0,1,0-.08,0,0,0,0,1,.07,0,1.37,1.37,0,0,0,1.2.25,0,0,0,0,1,.06,0h0a0,0,0,0,1,0,0,1,1,0,0,1-.24,0A1.41,1.41,0,0,1,339.93,91.3Z" style="fill:#263238"></path><path d="M336,91.13a.69.69,0,0,1,.49-.84c.51-.12,1,.44,1.17.86s0,1-.55.87a1.49,1.49,0,0,1-1-.64A.75.75,0,0,1,336,91.13Z" style="fill:#4F46E5"></path><path d="M339.22,89.78c0,.2.18.35.31.32s.22-.21.17-.42-.18-.35-.31-.33S339.18,89.57,339.22,89.78Z" style="fill:#263238"></path><path d="M341.34,89.56c0,.21.18.36.31.33s.21-.21.17-.42-.18-.35-.31-.33S341.29,89.36,341.34,89.56Z" style="fill:#263238"></path><path d="M341.45,89.17l.47-.24S341.74,89.36,341.45,89.17Z" style="fill:#263238"></path><path d="M338.85,88.87a.08.08,0,0,1,0,0,.1.1,0,0,1,0-.14h0a1.19,1.19,0,0,1,1.1-.07.09.09,0,0,1,0,.13.1.1,0,0,1-.13,0,1,1,0,0,0-.91.07A.09.09,0,0,1,338.85,88.87Z" style="fill:#263238"></path><path d="M342.34,88.51h0a1,1,0,0,0-.89.18.11.11,0,0,1-.15,0h0a.11.11,0,0,1,0-.15,1.2,1.2,0,0,1,1.08-.23.1.1,0,0,1,.08.12.11.11,0,0,1-.08.08Z" style="fill:#263238"></path><path d="M339.33,89.38l.47-.24S339.62,89.58,339.33,89.38Z" style="fill:#263238"></path><path d="M335.91,91.4a4.57,4.57,0,0,0,1.13.86,3.62,3.62,0,0,1,1.09.89c-.18-.39-.35-.78-.52-1.17a.5.5,0,0,0-.17-.23.61.61,0,0,0-.38,0,1,1,0,0,1-.95-.71.3.3,0,0,1,.07-.35.3.3,0,0,1,.26,0,1.7,1.7,0,0,1,.67.37l-.3-1.35c-.21-.93-.76,0-1,.35S335.54,91,335.91,91.4Z" style="fill:#4F46E5"></path><path d="M335.91,91.4a4.57,4.57,0,0,0,1.13.86,3.62,3.62,0,0,1,1.09.89c-.18-.39-.35-.78-.52-1.17a.5.5,0,0,0-.17-.23.61.61,0,0,0-.38,0,1,1,0,0,1-.95-.71.3.3,0,0,1,.07-.35.3.3,0,0,1,.26,0,1.7,1.7,0,0,1,.67.37l-.3-1.35c-.21-.93-.76,0-1,.35S335.54,91,335.91,91.4Z" style="opacity:0.5"></path><path d="M339.63,83.23a2.83,2.83,0,0,0-2.75.43,2.14,2.14,0,0,0-.78,1,1.25,1.25,0,0,0,.23,1.23,2,2,0,0,0,1.43.44c.79,0,2.7.23,3.12-.69S340.43,83.57,339.63,83.23Z" style="fill:#4F46E5"></path><path d="M339.63,83.23a2.83,2.83,0,0,0-2.75.43,2.14,2.14,0,0,0-.78,1,1.25,1.25,0,0,0,.23,1.23,2,2,0,0,0,1.43.44c.79,0,2.7.23,3.12-.69S340.43,83.57,339.63,83.23Z" style="opacity:0.5"></path><path d="M338.42,84.58a2,2,0,0,0-.82.41l-1.29.88a1.5,1.5,0,0,0-.5.47.49.49,0,0,0,.11.63,2.22,2.22,0,0,0-.67.5.85.85,0,0,0-.21.77,1.45,1.45,0,0,0-.78,1,1.13,1.13,0,0,0,.51,1.14,1.33,1.33,0,0,0,1.33-.11,3.6,3.6,0,0,0,.95-1,5.08,5.08,0,0,1,.88-1.08c.48-.4,1.12-.59,1.52-1.08C340.09,86.33,339.69,84.37,338.42,84.58Z" style="fill:#4F46E5"></path><g style="opacity:0.4"><path d="M338.42,84.58a2,2,0,0,0-.82.41l-1.29.88a1.5,1.5,0,0,0-.5.47.49.49,0,0,0,.11.63,2.22,2.22,0,0,0-.67.5.85.85,0,0,0-.21.77,1.45,1.45,0,0,0-.78,1,1.13,1.13,0,0,0,.51,1.14,1.33,1.33,0,0,0,1.33-.11,3.6,3.6,0,0,0,.95-1,5.08,5.08,0,0,1,.88-1.08c.48-.4,1.12-.59,1.52-1.08C340.09,86.33,339.69,84.37,338.42,84.58Z"></path></g><path d="M340.83,84.15a2,2,0,0,1,.78.39l1.24.84a1.51,1.51,0,0,1,.48.46.48.48,0,0,1-.1.6,2.46,2.46,0,0,1,.64.47.81.81,0,0,1,.19.74,1.39,1.39,0,0,1,.75,1,1.07,1.07,0,0,1-.49,1.09,1.26,1.26,0,0,1-1.27-.11,3.41,3.41,0,0,1-.91-1,4.67,4.67,0,0,0-.84-1c-.46-.38-1.08-.57-1.46-1C339.23,85.82,339.61,84,340.83,84.15Z" style="fill:#4F46E5"></path><g style="opacity:0.4"><path d="M340.83,84.15a2,2,0,0,1,.78.39l1.24.84a1.51,1.51,0,0,1,.48.46.48.48,0,0,1-.1.6,2.46,2.46,0,0,1,.64.47.81.81,0,0,1,.19.74,1.39,1.39,0,0,1,.75,1,1.07,1.07,0,0,1-.49,1.09,1.26,1.26,0,0,1-1.27-.11,3.41,3.41,0,0,1-.91-1,4.67,4.67,0,0,0-.84-1c-.46-.38-1.08-.57-1.46-1C339.23,85.82,339.61,84,340.83,84.15Z"></path></g><path d="M333.55,98.84a3.45,3.45,0,0,0-.64-1.63,6.32,6.32,0,0,1,3.26,4.3,2,2,0,0,0-.53-.6.72.72,0,0,0-.76-.07,1,1,0,0,0-.36.67,4.28,4.28,0,0,0,7,4.06,6.85,6.85,0,0,0-2.11,2.88,1.29,1.29,0,0,1-.35.73c-.33.27-.84.08-1.19-.17a1.76,1.76,0,0,0-1.16-.5c-.26,0-.51.2-.76.11a.75.75,0,0,1-.38-.4c-1.21-2.25-.9-5.12-2.22-7.32-.94-1.56-2.57-2.56-3.83-3.88a10.43,10.43,0,0,1-2.75-8.6c.05-.36.25-.93.72-.69s.21.62.22.94a11.72,11.72,0,0,0,.53,2.87,13.84,13.84,0,0,0,2.84,5.11A12.82,12.82,0,0,0,333.55,98.84Z" style="opacity:0.30000000000000004"></path><path d="M338.13,104.82a3.29,3.29,0,0,0,3.47-1.12.56.56,0,0,0,.15-.41c-.05-.25-.39-.32-.63-.26a2.81,2.81,0,0,1-.73.23c-.66,0-1-.91-1.68-1-.51,0-.89.47-1.38.61s-1.78-1.06-1.11.26A3.29,3.29,0,0,0,338.13,104.82Z" style="opacity:0.30000000000000004"></path><path d="M346.92,103.19c-.17.24-.33.48-.51.72a4.23,4.23,0,0,1-.32.42,1.56,1.56,0,0,1-.16.2.83.83,0,0,1-.62.4.84.84,0,0,1-.58-.42,19.84,19.84,0,0,1-1.25-1.93.61.61,0,0,1-.11-.31c0-.11.09-.23.21-.21s.15.1.21.17a1.74,1.74,0,0,0,1.32.72,1.65,1.65,0,0,0,1-.25c.19-.1.38-.41.59-.48C347.32,102,347.16,102.85,346.92,103.19Z" style="opacity:0.30000000000000004"></path><path d="M343,104.66a.32.32,0,0,0,.16.2,5.32,5.32,0,0,1,1.43,1.7c-.07-.13,0-.58,0-.77a1.91,1.91,0,0,0-.35-.75C344.07,104.89,342.89,104,343,104.66Z" style="opacity:0.30000000000000004"></path><path d="M340.94,113.67c.61-.68,1.2-1.51,2.1-1.68a12.74,12.74,0,0,0-1.82,2.43,6.25,6.25,0,0,0,4.54-2.93.86.86,0,0,1,.07.84,2.21,2.21,0,0,1-.51.71,13,13,0,0,1-5.07,3.09,20.86,20.86,0,0,1-5.87,1,.8.8,0,0,0,.59.56l-.59.07a1.2,1.2,0,0,1,.72.33s-.86,0-1,0a2,2,0,0,1-.89-.53c-.78-.89.74-.74,1.26-.78a9.78,9.78,0,0,0,4.41-1.43A9.14,9.14,0,0,0,340.94,113.67Z" style="opacity:0.30000000000000004"></path><path d="M354.55,107.69c-2.27-.24-3.52-.24-6.12-.7-.42-.07-.93.08-1.19-.27a1.47,1.47,0,0,1-.21-.63,3.42,3.42,0,0,0-.75-1.57,1.14,1.14,0,0,0-.19-.19,4.23,4.23,0,0,0,.32-.42,6.2,6.2,0,0,1,1.27,1.47,1.37,1.37,0,0,0,.73.65c.28.1.69.17,1,.24A39.69,39.69,0,0,1,354.55,107.69Z" style="opacity:0.30000000000000004"></path><path d="M344.52,99.63a1.74,1.74,0,0,0,.18-1.26c.14.58,1.63,2.46,1.16,2.9A18,18,0,0,1,344.52,99.63Z" style="opacity:0.30000000000000004"></path><path d="M335,113.26a13.42,13.42,0,0,0,2.62-.14c2.5-.58,4.15-3.44,6.71-3.52L342.76,107a5.2,5.2,0,0,1-3.07,4.39,1.85,1.85,0,0,1-1.61.17c-.5-.27-.59-1.16-.06-1.32l-3.51,2.37a1,1,0,0,1-.53.22c-.2,0-.41-.16-.37-.35a2.62,2.62,0,0,0-1.05,1.41A7.61,7.61,0,0,1,335,113.26Z" style="opacity:0.30000000000000004"></path><path d="M336.74,97.86a2.18,2.18,0,0,0-.15-1.07l2.22.25a2.7,2.7,0,0,0-1.8-.67,2.73,2.73,0,0,0-1.3,0C335.94,96.64,336.79,97.44,336.74,97.86Z" style="opacity:0.30000000000000004"></path><path d="M350.5,125.27a1,1,0,0,0,.2.51,1,1,0,0,0,.83.16l.77-.08c.06,0,.13,0,.16-.08s0-.17-.13-.22c-.84-.53-1.35-1.76-2.15-2.14A17,17,0,0,0,350.5,125.27Z" style="opacity:0.30000000000000004"></path><path d="M333.49,119.6a4.12,4.12,0,0,0,3.53,2.8,5,5,0,0,1,3.54,1.68,7,7,0,0,1,1.19,3.68,4.68,4.68,0,0,0-.65-3.94c-1.64-2-4.94-2.18-6.27-4.4-.17-.28-.33-.6-.64-.7S333.25,119.39,333.49,119.6Z" style="opacity:0.30000000000000004"></path><path d="M339.38,118c.73,1.11,2.06,1.64,3,2.54a5.2,5.2,0,0,1,1.29,1.86c.3.74.42,1.55.73,2.28a2.59,2.59,0,0,0,1.63,1.63,6.57,6.57,0,0,1-1.59-3.27,5,5,0,0,0,2.21,1,.22.22,0,0,0,.23-.31.76.76,0,0,0-.4-.27c-1.33-.55-2.07-1.94-3-3.06a9.36,9.36,0,0,0-3.2-2.52C340,117.67,339.76,118,339.38,118Z" style="opacity:0.30000000000000004"></path><path d="M345.77,118.56a4.74,4.74,0,0,1,1.2,1.12,4.91,4.91,0,0,1,.71,2.5,19,19,0,0,0,.22,2.61,3.21,3.21,0,0,0,1.38,2.15,2.59,2.59,0,0,1-.1-1.21.22.22,0,0,1,.3.08,1,1,0,0,1,.11.33,1.31,1.31,0,0,0,.62.82c-.34-.56-.47-1.26-.8-1.81a4,4,0,0,1-.42-.83c-.41-1.25.4-2.75-.27-3.88a3.42,3.42,0,0,0-.8-.81l-1.34-1.1C346.38,118.37,346,118.49,345.77,118.56Z" style="opacity:0.30000000000000004"></path><path d="M334.18,122.44a6.16,6.16,0,0,1-2.09.45,2.72,2.72,0,0,1-1.5-.16,2.44,2.44,0,0,1-.93-1.12c-.08-.16-.21-.34-.38-.29s-.17.27-.14.44a3.29,3.29,0,0,0,3,2.59.6.6,0,0,1-.79-.58,5.07,5.07,0,0,0,2.34-.35A.82.82,0,0,0,334.18,122.44Z" style="opacity:0.30000000000000004"></path><path d="M334.48,124.11c.31.86.62,1.71.92,2.56a1.28,1.28,0,0,1,.11.81,1.58,1.58,0,0,1-.62.69,4.2,4.2,0,0,0-1.56,3.63,4.56,4.56,0,0,1,.53-1.57,1.34,1.34,0,0,1,2.51.22,4.39,4.39,0,0,1,.25,1.53c.07-.38.72-.34.87,0a1,1,0,0,1-.31,1.05,7.07,7.07,0,0,0-.83.81,1,1,0,0,1,1.72.33,2.09,2.09,0,0,1-.45,1.49,15,15,0,0,0-1.83,4.92c.06.08.24.24.34.2a28.4,28.4,0,0,1,2.51-4.25,6.23,6.23,0,0,0-1,2.36c.23.14.43-.19.51-.44a2.46,2.46,0,0,1,.9-1.23c-.09.31,0,.7-.09,1a.32.32,0,0,0,0,.17c.06.15.29.07.4,0a1.85,1.85,0,0,0,.37-1.5,8.43,8.43,0,0,0-.47-1.53,10,10,0,0,1-.51-2.71,5.69,5.69,0,0,1,.12-1.54,3.92,3.92,0,0,0,.16-.74,1.31,1.31,0,0,0-.83-1.26c-.32-.11-.75-.17-.82-.5a3.73,3.73,0,0,1,.16-1.18.9.9,0,0,0-.38-.77,7.8,7.8,0,0,1-.7-.56,3.32,3.32,0,0,1-.57-2.09,1.87,1.87,0,0,0-.21-.85.71.71,0,0,0-.75-.34.44.44,0,0,0-.22.69" style="opacity:0.30000000000000004"></path><path d="M339.93,138.54c-.09.23,0,.49-.05.74-.1.54-.76.72-1.28.92a4,4,0,0,0-2.54,3.65.39.39,0,0,0,.48,0,1.45,1.45,0,0,0,.39-.39,7.2,7.2,0,0,1,1.77-1.58c.22-.15.52-.27.73-.11a5,5,0,0,0-1.22.77,1.44,1.44,0,0,0-.46,1.22,5.21,5.21,0,0,0,.9-1,1.35,1.35,0,0,1,1.16-.54,3.07,3.07,0,0,1,.66-2.25c.11-.11.25-.22.27-.37a.52.52,0,0,0-.1-.34C340.46,139,340.11,138.85,339.93,138.54Z" style="opacity:0.30000000000000004"></path><path d="M333.78,141.34c-.13.16,0,.41.16.56s.35.33.3.53-.08.16-.05.23.08.08.14.1a2.33,2.33,0,0,0,.52.13.81.81,0,0,0,.47.59,2.94,2.94,0,0,0-1.52-2.29Z" style="opacity:0.30000000000000004"></path><path d="M337.18,145.34c-.62.75-1,1.66-1.7,2.35a.84.84,0,0,1-.37.25c-.5.15-1-.53-1.49-.31-.11.28.24.52.53.62s.65.25.62.56-.47.41-.78.31-.6-.32-.92-.26c-.63.12-.66,1.09-1.19,1.45-.31.21-.84.35-.74.71a.53.53,0,0,0,.28.29c.34.22.77.43,1.11.23s.38-.87.73-1.18.76-.19,1.13-.34a1.7,1.7,0,0,0,.66-.56c.71-.9,1.13-2,1.77-2.94.36-.55,2.41-2.68,3-1.6.43-.45-.35-.68-.76-.69A2.62,2.62,0,0,0,337.18,145.34Z" style="opacity:0.30000000000000004"></path><rect x="332.41" y="151.38" width="5.32" height="1.97" style="opacity:0.2"></rect><rect x="337.73" y="151.38" width="5.32" height="1.97" style="fill:#fff;opacity:0.1"></rect><rect x="343.05" y="151.38" width="5.32" height="1.97" style="opacity:0.2"></rect><path d="M340.05,144.82c-.06.25.22.43.45.52l1.31.5.27-1.26a.94.94,0,0,0,.08.72c.14.2.53.21.59,0a.53.53,0,0,1,.16.54l-.71,0c.08.23-.15.46-.39.49a1.21,1.21,0,0,1-.68-.21l-1.24-.67a.36.36,0,0,1-.18-.14c-.15-.23.18-.47.45-.56Z" style="opacity:0.30000000000000004"></path><path d="M338.51,124.49c1,1.9,2.1,3.9,2.13,6.07,0,.71-.09,1.41-.11,2.11A18,18,0,0,0,341.9,139l-.48-3.83c.59,0,.88.69,1,1.26a2.19,2.19,0,0,0-.39-1.93c-.33-.6-.62-1.37-.22-1.93l.75.31a38.8,38.8,0,0,1-.52-4.56,4.63,4.63,0,0,1-.71,1.38c-.27-1.23-.22-2.53-.59-3.74a3.14,3.14,0,0,0-2.59-2.43C338,123.77,338.51,124.49,338.51,124.49Z" style="opacity:0.30000000000000004"></path><path d="M356.73,109.55a2,2,0,0,0-.06-.35.47.47,0,0,0,.2-.52l0-.11a.4.4,0,0,0-.3-.32,1.42,1.42,0,0,0-.06-.42.48.48,0,0,0,.15-.49l0-.11a.4.4,0,0,0-.47-.33l0,0a.47.47,0,0,0-.27.56l0,.11a.41.41,0,0,0,.35.33,2.45,2.45,0,0,0,0,.39.47.47,0,0,0-.18.51l0,.11a.41.41,0,0,0,.29.32,1,1,0,0,0,0,.3.42.42,0,0,0-.23.35l0,.13a.66.66,0,0,0,.08.34l-.05.07a.28.28,0,0,0-.12,0l-.11,0a.22.22,0,0,0-.16,0s0-.09-.05-.14a.49.49,0,0,0,.2-.47l0-.12a.4.4,0,0,0-.39-.37,1.64,1.64,0,0,0-.05-.37.44.44,0,0,0,.25-.38v-.12a.46.46,0,0,0-.25-.46,1.79,1.79,0,0,0,0-.61s0,0,0,0h0v0a.22.22,0,0,0-.06-.07.1.1,0,0,0-.13,0l0,0v.08a1.75,1.75,0,0,0,0,.56.48.48,0,0,0-.27.39v.13a.45.45,0,0,0,.26.45,2,2,0,0,0,.07.49.55.55,0,0,0-.13.42l0,.12a.41.41,0,0,0,.29.36,2.46,2.46,0,0,0,.07.29,1,1,0,0,1,0,.1s0,.05,0,.07v0a.43.43,0,0,0,.34.5l.1,0a.43.43,0,0,0,.43-.41v0a.33.33,0,0,0,0-.14,2.53,2.53,0,0,1,.13-.22h0a.41.41,0,0,0,.39-.39V110A.45.45,0,0,0,356.73,109.55Zm-.52-1.83a.26.26,0,0,1-.2-.2l0-.07a.27.27,0,0,1,.16-.33h0a.22.22,0,0,1,.28.19l0,.07a.31.31,0,0,1-.07.27l0,0h0l-.05,0A.13.13,0,0,0,356.21,107.72Zm.18,1.32a.26.26,0,0,1-.14-.18l0-.08a.27.27,0,0,1,.07-.26s0,0,0,0v0h0v0a.12.12,0,0,0,.08,0s.07,0,.09,0a.16.16,0,0,0,.05-.1s0,0,0,0a.22.22,0,0,1,.14.18l0,.07a.31.31,0,0,1-.09.29.14.14,0,0,0-.08-.07.11.11,0,0,0-.08,0A.14.14,0,0,0,356.39,109Zm-1.17-.32a.27.27,0,0,1-.1-.25v-.08a.28.28,0,0,1,.13-.21l0,0h0l.09,0s.06,0,.08-.08a.26.26,0,0,1,.14.26v.08a.27.27,0,0,1-.14.22s0,0,0,0v0h0a.09.09,0,0,0-.08-.05C355.28,108.62,355.24,108.66,355.22,108.72Zm.45,1.33s0,0,0,0,0,0,0,0h0s0,0,0,0a.19.19,0,0,0-.08,0,.09.09,0,0,0-.08.05.11.11,0,0,0,0,.07.28.28,0,0,1-.11-.18v-.07a.3.3,0,0,1,.05-.21s0,0,0,0h.09a.16.16,0,0,0,.06-.13h0a.24.24,0,0,1,.23.23v.07a.26.26,0,0,1-.11.27S355.67,110.06,355.67,110.05Zm.34,1.19a.26.26,0,0,1-.25-.25h0a.11.11,0,0,0,.06,0,.21.21,0,0,0,0-.34h0a.21.21,0,0,1,.16-.08.24.24,0,0,1,.13,0,.2.2,0,0,0,0,.3.14.14,0,0,0,.09,0C356.26,111.1,356.15,111.24,356,111.24Zm.8-1.14a.23.23,0,0,1-.18.22.11.11,0,0,1,0,0,.13.13,0,0,0,0-.06,0,0,0,0,1,0,0s0,0,0,0h0l-.06-.07a.15.15,0,0,0-.14,0h0l-.05.08a.29.29,0,0,1,0-.18V110a.26.26,0,0,1,.13-.2s0,.06,0,.09,0,0,0,0v0h0a0,0,0,0,0,0,0h0a.08.08,0,0,0,.07,0h0s.07,0,.1-.07a.14.14,0,0,0,0-.06v0a.28.28,0,0,1,.09.24Z" style="fill:#4F46E5"></path><rect x="249.8" y="366.63" width="15.16" height="15.16" style="fill:#4F46E5"></rect><polygon points="264.92 366.63 249.75 366.63 252.32 364.74 262.35 364.74 264.92 366.63" style="fill:#fff"></polygon><path d="M265.48,365a2.49,2.49,0,0,1-.52,1.61,2.8,2.8,0,0,1-.22.25,2.38,2.38,0,0,1-.72.48H250.51a2.22,2.22,0,0,1-.71-.47h0a2.47,2.47,0,0,1-.75-1.86c0-1.92,3.45-3.65,3.45-4.75s-1.7-1.81-1.7-1.81v-1.54h12.94v1.54s-1.7.86-1.7,1.81S265.48,363.12,265.48,365Z" style="fill:#4F46E5"></path><polygon points="264.18 355.65 264.18 356.94 250.58 356.94 250.58 355.65 252.77 352.96 252.77 350.7 262 350.7 262 352.96 264.18 355.65" style="fill:#4F46E5"></polygon><path d="M262,346.52l-4.9.17-4.91-.17c-.31.26-2,.8-1.61,2.22a3,3,0,0,0,1.61,1.72v.24H262v-.24a3,3,0,0,0,1.61-1.72C264,347.32,262.31,346.78,262,346.52Z" style="fill:#4F46E5"></path><path d="M252.59,346.69l1.84-24.44a1.7,1.7,0,0,1,1.69-1.57h1a1.69,1.69,0,0,1,1.68,1.52l2.6,24.49Z" style="fill:#4F46E5"></path><g style="opacity:0.2"><path d="M252.59,346.69l1.84-24.44a1.7,1.7,0,0,1,1.69-1.57h1a1.69,1.69,0,0,1,1.68,1.52l2.6,24.49Z" style="fill:#fff"></path></g><rect x="252.77" y="350.7" width="9.23" height="2.26" style="opacity:0.2"></rect><rect x="249.8" y="366.9" width="15.16" height="1.53" style="opacity:0.2"></rect><rect x="250.8" y="356.94" width="12.94" height="1.53" style="opacity:0.2"></rect><rect x="416.65" y="366.63" width="15.16" height="15.16" style="fill:#4F46E5"></rect><polygon points="431.77 366.63 416.61 366.63 419.18 364.74 429.2 364.74 431.77 366.63" style="fill:#fff"></polygon><path d="M432.33,365a2.49,2.49,0,0,1-.52,1.61,2.8,2.8,0,0,1-.22.25,2.38,2.38,0,0,1-.72.48H417.36a2.22,2.22,0,0,1-.71-.47h0a2.47,2.47,0,0,1-.75-1.86c0-1.92,3.45-3.65,3.45-4.75s-1.7-1.81-1.7-1.81v-1.54h12.94v1.54s-1.7.86-1.7,1.81S432.33,363.12,432.33,365Z" style="fill:#4F46E5"></path><polygon points="431.03 355.65 431.03 356.94 417.43 356.94 417.43 355.65 419.62 352.96 419.62 350.7 428.85 350.7 428.85 352.96 431.03 355.65" style="fill:#4F46E5"></polygon><path d="M428.85,346.52l-4.9.17-4.91-.17c-.31.26-2,.8-1.6,2.22a3,3,0,0,0,1.6,1.72v.24h9.81v-.24a3,3,0,0,0,1.61-1.72C430.87,347.32,429.17,346.78,428.85,346.52Z" style="fill:#4F46E5"></path><path d="M419.44,346.69l1.85-24.44a1.69,1.69,0,0,1,1.69-1.57h1a1.7,1.7,0,0,1,1.69,1.52l2.6,24.49Z" style="fill:#4F46E5"></path><g style="opacity:0.2"><path d="M419.44,346.69l1.85-24.44a1.69,1.69,0,0,1,1.69-1.57h1a1.7,1.7,0,0,1,1.69,1.52l2.6,24.49Z" style="fill:#fff"></path></g><rect x="419.62" y="350.7" width="9.23" height="2.26" style="opacity:0.2"></rect><rect x="416.65" y="366.9" width="15.16" height="1.53" style="opacity:0.2"></rect><rect x="417.65" y="356.94" width="12.94" height="1.53" style="opacity:0.2"></rect><polygon points="442.88 392.22 238.26 392.22 249.05 381.25 432.08 381.25 442.88 392.22" style="fill:#4F46E5"></polygon><polygon points="442.88 392.22 238.26 392.22 249.05 381.25 432.08 381.25 442.88 392.22" style="fill:#fff;opacity:0.7000000000000001"></polygon></g><g id="freepik--Trees--inject-43"><path d="M234.29,304.54c-6.07-6.38-13.68-8.57-19.26-6.18a4.41,4.41,0,0,1-4.82-.9c-6.75-6.52-17.7-7.29-22.24-1.14a13.21,13.21,0,0,0-1.3,2.21,7.49,7.49,0,0,1-2.68,3.14,8,8,0,0,0-2.06,2,11.35,11.35,0,0,0-2,7.25,2,2,0,0,1-1.12,1.89,7.9,7.9,0,0,0-3.12,2.54c-3.68,5-2,13.86,3.62,19.84,5.06,5.32,11.63,6.53,15.61,3.21a.94.94,0,0,1,1.2,0c2.85,2.29,6.17,2.31,7.9-.18h0a1,1,0,0,1,1.41-.17c2.95,2.63,6.51,2.78,8.32.17a5.68,5.68,0,0,0,.74-1.55.93.93,0,0,1,1.21-.61,4.62,4.62,0,0,0,5.11-1,.91.91,0,0,1,1.08-.17c6.62,3.52,13.58,2.85,17.46-2.41C244.56,325.45,242.28,313,234.29,304.54Z" style="fill:#4F46E5"></path><path d="M234.29,304.54c-6.07-6.38-13.68-8.57-19.26-6.18a4.41,4.41,0,0,1-4.82-.9c-6.75-6.52-17.7-7.29-22.24-1.14a13.21,13.21,0,0,0-1.3,2.21,7.49,7.49,0,0,1-2.68,3.14,8,8,0,0,0-2.06,2,11.35,11.35,0,0,0-2,7.25,2,2,0,0,1-1.12,1.89,7.9,7.9,0,0,0-3.12,2.54c-3.68,5-2,13.86,3.62,19.84,5.06,5.32,11.63,6.53,15.61,3.21a.94.94,0,0,1,1.2,0c2.85,2.29,6.17,2.31,7.9-.18h0a1,1,0,0,1,1.41-.17c2.95,2.63,6.51,2.78,8.32.17a5.68,5.68,0,0,0,.74-1.55.93.93,0,0,1,1.21-.61,4.62,4.62,0,0,0,5.11-1,.91.91,0,0,1,1.08-.17c6.62,3.52,13.58,2.85,17.46-2.41C244.56,325.45,242.28,313,234.29,304.54Z" style="fill:#fff;opacity:0.5"></path><path d="M192.66,341.27l5.4,5c-.43,7.09-.78,23.41-.78,23.41l-1.93,11.41,17,.16s-.77-9.64-.77-10.16-3.27-19-3.27-19l-1.16-10.34,8.74-2.66,1.6-4.61,6.42-3.63,3.14-4.82-1.21-.3-3.47,4.45-4,.88L220,327h-1.93l-4.81,9.5-6.21,1.27.81-13.34c-6,1.88-6.55-1.54-6.55-1.54s-2,18-2.77,20l-3.2-1.61-3.47-5.48h-1.54Z" style="fill:#4F46E5"></path><path d="M192.66,341.27l5.4,5c-.43,7.09-.78,23.41-.78,23.41l-1.93,11.41,17,.16s-.77-9.64-.77-10.16-3.27-19-3.27-19l-1.16-10.34,8.74-2.66,1.6-4.61,6.42-3.63,3.14-4.82-1.21-.3-3.47,4.45-4,.88L220,327h-1.93l-4.81,9.5-6.21,1.27.81-13.34c-6,1.88-6.55-1.54-6.55-1.54s-2,18-2.77,20l-3.2-1.61-3.47-5.48h-1.54Z" style="fill:#fff;opacity:0.7000000000000001"></path><path d="M60.78,297.7c7.1-7.46,16-10,22.51-7.23a5.15,5.15,0,0,0,5.64-1c7.9-7.62,20.69-8.53,26-1.33a15.07,15.07,0,0,1,1.52,2.58,8.77,8.77,0,0,0,3.13,3.67,9.16,9.16,0,0,1,2.41,2.29,13.21,13.21,0,0,1,2.29,8.47,2.31,2.31,0,0,0,1.31,2.22,9.18,9.18,0,0,1,3.65,3c4.3,5.82,2.4,16.2-4.24,23.18-5.91,6.22-13.59,7.65-18.24,3.76a1.1,1.1,0,0,0-1.4,0c-3.34,2.68-7.22,2.7-9.24-.21h0a1.12,1.12,0,0,0-1.65-.2c-3.44,3.08-7.61,3.26-9.73.2a6.5,6.5,0,0,1-.86-1.8,1.1,1.1,0,0,0-1.42-.72,5.39,5.39,0,0,1-6-1.13,1.06,1.06,0,0,0-1.27-.2c-7.72,4.12-15.87,3.33-20.4-2.82C48.77,322.14,51.44,307.53,60.78,297.7Z" style="fill:#4F46E5"></path><path d="M60.78,297.7c7.1-7.46,16-10,22.51-7.23a5.15,5.15,0,0,0,5.64-1c7.9-7.62,20.69-8.53,26-1.33a15.07,15.07,0,0,1,1.52,2.58,8.77,8.77,0,0,0,3.13,3.67,9.16,9.16,0,0,1,2.41,2.29,13.21,13.21,0,0,1,2.29,8.47,2.31,2.31,0,0,0,1.31,2.22,9.18,9.18,0,0,1,3.65,3c4.3,5.82,2.4,16.2-4.24,23.18-5.91,6.22-13.59,7.65-18.24,3.76a1.1,1.1,0,0,0-1.4,0c-3.34,2.68-7.22,2.7-9.24-.21h0a1.12,1.12,0,0,0-1.65-.2c-3.44,3.08-7.61,3.26-9.73.2a6.5,6.5,0,0,1-.86-1.8,1.1,1.1,0,0,0-1.42-.72,5.39,5.39,0,0,1-6-1.13,1.06,1.06,0,0,0-1.27-.2c-7.72,4.12-15.87,3.33-20.4-2.82C48.77,322.14,51.44,307.53,60.78,297.7Z" style="fill:#fff;opacity:0.5"></path><path d="M108.81,325.84l-6.32,5.87c.51,8.28,2.58,36,2.58,36l2.25,13.34-19.82.19s.9-11.27.9-11.88,3.83-22.19,3.83-22.19l1.36-12.09L83.37,332l-1.87-5.39L74,322.36l-3.67-5.64,1.42-.34,4.05,5.2,4.73,1-2-4.79h2.25l5.63,11.1,7.25,1.49-.95-15.6c7,2.19,7.66-1.8,7.66-1.8s.74,12.32,1.58,14.71l3.74-1.88,4.06-6.4h1.8Z" style="fill:#4F46E5"></path><path d="M108.81,325.84l-6.32,5.87c.51,8.28,2.58,36,2.58,36l2.25,13.34-19.82.19s.9-11.27.9-11.88,3.83-22.19,3.83-22.19l1.36-12.09L83.37,332l-1.87-5.39L74,322.36l-3.67-5.64,1.42-.34,4.05,5.2,4.73,1-2-4.79h2.25l5.63,11.1,7.25,1.49-.95-15.6c7,2.19,7.66-1.8,7.66-1.8s.74,12.32,1.58,14.71l3.74-1.88,4.06-6.4h1.8Z" style="fill:#fff;opacity:0.7000000000000001"></path><path d="M210.7,381.05h2.35V328.67a1.17,1.17,0,0,0-1.17-1.17h0a1.17,1.17,0,0,0-1.18,1.17Z" style="fill:#4F46E5"></path><path d="M249.38,335.76H199.09a1.95,1.95,0,0,1,0-3.9h50.29Zm-50.29-2.9a1,1,0,0,0,0,1.9h49.29v-1.9Z" style="fill:#4F46E5"></path><rect x="201.32" y="332.36" width="0.47" height="2.9" style="fill:#4F46E5"></rect><rect x="207.6" y="332.36" width="0.47" height="2.9" style="fill:#4F46E5"></rect><rect x="213.89" y="332.36" width="0.47" height="2.9" style="fill:#4F46E5"></rect><rect x="220.17" y="332.36" width="0.47" height="2.9" style="fill:#4F46E5"></rect><rect x="226.46" y="332.36" width="0.47" height="2.9" style="fill:#4F46E5"></rect><rect x="232.74" y="332.36" width="0.47" height="2.9" style="fill:#4F46E5"></rect><path d="M249.77,337.19H236.21a3.47,3.47,0,0,1-3.47-3.47h0a3.46,3.46,0,0,1,3.47-3.46h13.56a3.46,3.46,0,0,1,3.47,3.46h0A3.47,3.47,0,0,1,249.77,337.19Z" style="fill:#4F46E5"></path><path d="M239.25,333.72a1.84,1.84,0,1,1-1.84-1.84A1.84,1.84,0,0,1,239.25,333.72Z" style="fill:#fff"></path><path d="M250.41,333.72a1.84,1.84,0,1,1-1.84-1.84A1.84,1.84,0,0,1,250.41,333.72Z" style="fill:#263238"></path><path d="M245.11,333.72a1.84,1.84,0,1,1-1.84-1.84A1.84,1.84,0,0,1,245.11,333.72Z" style="fill:#fff;opacity:0.5"></path></g><g id="freepik--Character--inject-43"><path d="M142.46,182.39h0s1.1,18.51,3,31.26a2.89,2.89,0,0,0,5.73-.17c.91-10.29,1.66-24.64,2-32.32a2.88,2.88,0,0,0-4.36-2.61Z" style="fill:#263238"></path><path d="M155.56,219.4c-3.2-.23-2.49-.51-5.2-.67-2.33-.14-3.93-.13-5.8-.21a.58.58,0,0,1-.19,0,.69.69,0,0,1-.47-.85l1.18-4.12a.53.53,0,0,1,.08-.15c2.53,1.47,3.73.79,6.06.11.79.86,3.35,3.26,5.93,3.74C158,217.37,157.48,219.55,155.56,219.4Z" style="fill:#263238"></path><path d="M194.59,221.67c-.64-9.14-4.82-28.92-6.39-35.74-2.09-9.06-3.41-10.07-3.41-10.07L176,183.61l0,.08,10.11,35.42c4,4.07,7.61,2.92,8.33,2.62l.08-.06C194.6,221.7,194.53,221.67,194.59,221.67Z" style="fill:#263238"></path><path d="M138.22,182.41l1.85-3.78-2.57-.48,2-3.89-3.36-.26-5,1.86.94,8.23S135.35,187.37,138.22,182.41Z" style="fill:#ff8b7b"></path><path d="M127.85,219.4c2.23,3.93,4.33,4.65,9.21,4.23,7.2-.61,12.66-12,13.58-14.78,1.57-4.73,1.33-9.79,1.22-14.86-.22-9.2-8-13.9-12.54-8.83-.18.19-.37,1.31-2.82,6.74-1.3,2.9-1.28,11.11-2,15.34.49-6.72,4.91-15.54,3.35-21.85a17.52,17.52,0,0,1-.36-1.75l0-.09c-4.66-3.15-6.48-1.33-7.25,7.52C129.64,198.1,123.74,212.13,127.85,219.4Z" style="fill:#4F46E5"></path><g style="opacity:0.1;isolation:isolate"><path d="M127.85,219.4c2.23,3.93,4.33,4.65,9.21,4.23,7.2-.61,12.66-12,13.58-14.78,1.57-4.73,1.33-9.79,1.22-14.86-.22-9.2-8-13.9-12.54-8.83-.18.19-.37,1.31-2.82,6.74-1.3,2.9-1.28,11.11-2,15.34.49-6.72,4.91-15.54,3.35-21.85a17.52,17.52,0,0,1-.36-1.75l0-.09c-4.66-3.15-6.48-1.33-7.25,7.52C129.64,198.1,123.74,212.13,127.85,219.4Z"></path></g><path d="M162.91,150.07a.32.32,0,0,1-.21.21,2.49,2.49,0,0,0-1.66,1.5.31.31,0,0,1-.38.22.32.32,0,0,1-.21-.39,3,3,0,0,1,2.07-1.92.3.3,0,0,1,.39.2h0A.28.28,0,0,1,162.91,150.07Z" style="fill:#263238"></path><path d="M164.45,153.26c.21.55.1,1.12-.26,1.26s-.87-.2-1.06-.75-.11-1.12.26-1.25S164.22,152.71,164.45,153.26Z" style="fill:#263238"></path><path d="M163.9,155.37l4.39,3.27a4.1,4.1,0,0,1-3.31,1.64Z" style="fill:#ba4d3c"></path><path d="M148.35,181.45s4.73-1.92,2.05-10.87c0,0,3.91-3.36,7.59-1.56s-.06,9.61,4.32,11.16S148.35,181.45,148.35,181.45Z" style="fill:#ff8b7b"></path><path d="M156.36,173.43a17,17,0,0,0,3.59,2.43c-.08-1.24-.06-2.55-.2-3.72Z" style="opacity:0.1"></path><path d="M142.53,159.79c2.57,7.5,3.5,10.73,8.43,13.58,7,2.36,16.07-.51,15.79-8.62-.25-7.3-4.4-18.31-12.72-19.32a10.83,10.83,0,0,0-11.5,14.36Z" style="fill:#ff8b7b"></path><path d="M159,160.76s5.8-2.75,1.45-9c0,0,4.6-7.53-1.61-11.66s-12.33.31-12.33.31l1.59,1.48s-17.39,10.62-7.64,20.46c0,0-.2,7.14,4.51,8.47s6,2.14,6,2.14.93-1.82,4-.88l.9-5.46S158.44,165,159,160.76Z" style="fill:#263238"></path><path d="M158.38,156.76a6.09,6.09,0,0,1,3.09,3.5c.68,2-1.12,3.18-3.09,2.72-1.79-.42-4.28-2-4.11-4.08A2.76,2.76,0,0,1,158.38,156.76Z" style="fill:#ff8b7b"></path><path d="M145.9,182.53l1-4.22s15.61-1.21,17.78.32a6.53,6.53,0,0,1,2.57,3.76Z" style="fill:#4F46E5"></path><path d="M144.45,238.06s-1.18-20.77-4.29-35.55-3.11-20.74,8.8-21.32,26.68-3.42,32.7,9.71,3.84,46.21,3.84,46.21Z" style="fill:#4F46E5"></path><path d="M166.08,162.22h0a11.79,11.79,0,0,1-.1,4.19l0,.18-.15,0-.21.07a1.29,1.29,0,0,1-.19,0,1.73,1.73,0,0,1-1.55-.73,4.13,4.13,0,0,1-.68-1.16h0a2.79,2.79,0,0,1-.19-.64,2.94,2.94,0,0,1,0-1.25,1,1,0,0,1,.07-.21c.32-.78,1.16-.87,1.89-.8h0l.38.06.09,0a3.33,3.33,0,0,1,.39.11Z" style="fill:#263238"></path><path d="M165.78,162.14l-.06.87c-2.14.26-2.73-.2-2.7-.26.32-.78,1.16-.87,1.89-.8h0l.38.06.09,0A3.33,3.33,0,0,1,165.78,162.14Z" style="fill:#fff"></path><path d="M165.58,166.71c-1.27.31-2.07-1-2.42-1.85h0c0-.08.28,0,.47.07A2.66,2.66,0,0,1,165.58,166.71Z" style="fill:#ba4d3c"></path><path d="M165.79,166.64l-.21.07a1.29,1.29,0,0,1-.19,0,1.73,1.73,0,0,1-1.55-.73,13.5,13.5,0,0,0,1.88.08Z" style="fill:#fff"></path><path d="M186.59,181.74l-2.17-6.28-2.85-3.7,6.32-1.83,4.79,5-.75,8.24S188.29,187.67,186.59,181.74Z" style="fill:#ff8b7b"></path><path d="M186,204.94s-.18,19.62-.29,27.33c-.07,5.58-12.17-19.87-10.92-23.43S182.17,198.85,186,204.94Z" style="opacity:0.2;isolation:isolate"></path><path d="M196.69,186.85c-4.81-8.42-7.35-9.53-10.27-4.68l0,.09c.18.62.33,1.24.46,1.86,1.45,6.81.66,13.71,4.21,20.15-2.59-3.92-7.4-11.25-8.9-14.38a14.52,14.52,0,0,0-6-6.71,9,9,0,0,0-.81-.42c-6.63-3.27-5.81,2.2-6.95,5.19s-.68,6.59.28,9.77a37.64,37.64,0,0,0,8,14.18c2.13,2.37,12.51,11.57,19.55,9.47,4.77-1.43,6.41-2.93,6.69-7.63C203.5,205,200.5,193.55,196.69,186.85Z" style="fill:#4F46E5"></path><path d="M196.69,186.85c-4.81-8.42-9.56-9.48-10.27-4.68l0,.09c.18.62.33,1.24.46,1.86,1.45,6.81.66,13.71,4.21,20.15-2.59-3.92-7.4-11.25-8.9-14.38a14.52,14.52,0,0,0-6-6.71,9,9,0,0,0-.81-.42c-6.63-3.27-5.81,2.2-6.95,5.19s-.68,6.59.28,9.77a37.64,37.64,0,0,0,8,14.18c2.13,2.37,12.51,11.57,19.55,9.47,4.77-1.43,6.41-2.93,6.69-7.63C203.5,205,200.5,193.55,196.69,186.85Z" style="fill:#4F46E5"></path><path d="M168.31,407a.18.18,0,0,1-.15-.17.2.2,0,0,1,.09-.2c.15-.07,2.95-1.74,4.28-1.36a1,1,0,0,1,.6.46.77.77,0,0,1,0,.87c-.33.49-1.28.64-2.35.64A14.76,14.76,0,0,1,168.31,407Zm3.75-1.41a8.24,8.24,0,0,0-3.15,1.07c1.49.22,3.51.21,3.88-.33.09-.08.13-.19,0-.44a.51.51,0,0,0-.37-.28,1.09,1.09,0,0,0-.36,0Z" style="fill:#4F46E5"></path><path d="M168.24,407a.31.31,0,0,1-.09-.18c0-.1.19-2.36,1.25-3.24a1.34,1.34,0,0,1,1.07-.34c.53.06.71.34.71.56.15,1-1.77,2.76-2.74,3.22h-.07A.19.19,0,0,1,168.24,407Zm2.1-3.38a1,1,0,0,0-.67.29,4.9,4.9,0,0,0-1.07,2.59c1-.62,2.29-2.05,2.2-2.62,0-.05,0-.23-.37-.23h-.11Z" style="fill:#4F46E5"></path><polygon points="160.37 387.33 168.37 387.33 167.57 406.77 159.57 406.77 160.37 387.33" style="fill:#ff8b7b"></polygon><path d="M169.45,406.45c5.41,3.5,7.07,3.66,13.34,5.09,1.37.32.46,3.81-2.82,3.81-5.43,0-6-.27-10.63-.27-4,0-8.52.19-11.67.24a.92.92,0,0,1-.29,0,1.22,1.22,0,0,1-.86-1.46l1.57-7.46a.72.72,0,0,1,.69-.57h8.74A3.63,3.63,0,0,1,169.45,406.45Z" style="fill:#263238"></path><polygon points="160.36 387.34 159.96 397.36 167.96 397.36 168.37 387.34 160.36 387.34" style="opacity:0.2;isolation:isolate"></polygon><path d="M144.29,235.59s-7.74,16.69-14.09,44.72C121.93,316.87,102,391.57,102,391.57l14.11,3.25s29.09-86.94,36.74-113.15a315.09,315.09,0,0,1,18.07-46.08Z" style="fill:#263238"></path><path d="M161.77,255.38c-12.58,35.89-15.25,46.67-15.44,47.37,1.53-21.85,7.8-46.23,15.44-47.37C162.3,255.29,161.25,255.2,161.77,255.38Z" style="opacity:0.30000000000000004;isolation:isolate"></path><path d="M158,235.59s.5,19.68-.1,48.19c-.55,26.15,0,111.64,0,111.64h13.55s10.42-87.22,13.17-113.81a278.53,278.53,0,0,0,1-46Z" style="fill:#263238"></path><path d="M155.86,390.39l.45,5.26h16.48s.83-5.9.76-5.9Z" style="fill:#4F46E5"></path><path d="M101.6,406.89a.19.19,0,0,1-.15.16.17.17,0,0,1-.19-.1c-.07-.15-1.65-3.1-1.27-4.49a1,1,0,0,1,.44-.63.71.71,0,0,1,.83,0c.46.36.59,1.36.59,2.48A14.84,14.84,0,0,1,101.6,406.89ZM100.3,403a9.41,9.41,0,0,0,1,3.29c.23-1.56.23-3.68-.29-4.07-.06-.09-.18-.13-.41,0a.52.52,0,0,0-.27.39,1.28,1.28,0,0,0,0,.39Z" style="fill:#4F46E5"></path><path d="M101.59,407a.17.17,0,0,1-.17.08c-.09,0-2.24-.2-3.07-1.33A1.48,1.48,0,0,1,98,404.6c.06-.54.32-.73.54-.73.9-.14,2.62,1.88,3,2.89a.09.09,0,0,1,0,.07A.17.17,0,0,1,101.59,407Zm-3.22-2.2a1.19,1.19,0,0,0,.27.7,4.49,4.49,0,0,0,2.46,1.12c-.59-1-1.94-2.41-2.48-2.32,0,0-.21,0-.21.38v.12Z" style="fill:#4F46E5"></path><polygon points="105.1 390.78 112.89 391.4 109.3 407.47 101.48 406.89 105.1 390.78" style="fill:#ff8b7b"></polygon><polygon points="105.19 390.33 103.61 397.4 111.42 397.99 113 390.9 105.19 390.33" style="opacity:0.2;isolation:isolate"></polygon><path d="M99.6,405.81c-2.1,2.62-3.21,4-9.33,6-1.35.44-.14,3.82,3.13,3.52,5.41-.5,2.43-.49,7-.92,3.94-.37,8.49-.59,11.64-.83a1.12,1.12,0,0,0,.31-.05,1.25,1.25,0,0,0,.76-1.54l-2.21-7.29a.67.67,0,0,0-.72-.5l-8.7.8A2.67,2.67,0,0,0,99.6,405.81Z" style="fill:#263238"></path><path d="M100.31,388.82l-.08,5.3,17,1.9s1.45-5.77,1.39-5.77Z" style="fill:#4F46E5"></path><path d="M146.83,180.25h0c-1.63.2-3.83,2.29-3.83,2.29-3.7-.46-8.66-2.43-12.34-4.1a19.67,19.67,0,0,0,4,.92,24.91,24.91,0,0,0,5.36,0l.06,0Z" style="fill:#263238"></path><path d="M146.83,180.25h0c-1.63.2-3.83,2.29-3.83,2.29-3.7-.46-8.66-2.43-12.34-4.1a19.67,19.67,0,0,0,4,.92,24.91,24.91,0,0,0,5.36,0l.06,0Z" style="opacity:0.2;isolation:isolate"></path><path d="M128.87,124.55a6.9,6.9,0,0,0,1.36-.22c16-6,35.22-17.51,35.52-20,.1-.83-2.14-2.53-2.14-2.53-.55,1.14-12,4-14.89,5.94a49.24,49.24,0,0,1-12.78,6.74c-1.28.44-2.9.61-4.23,1l-1.93.5-.94.22-.82.18Z" style="fill:#ff8b7b"></path><path d="M128.87,124.55a6.9,6.9,0,0,0,1.36-.22c16-6,35.22-17.51,35.52-20,.1-.83-2.14-2.53-2.14-2.53-.55,1.14-12,4-14.89,5.94a49.24,49.24,0,0,1-12.78,6.74c-1.28.44-2.9.61-4.23,1l-1.93.5-.94.22-.82.18Z" style="fill:#ff8b7b"></path><path d="M163.61,101.78l3.1-4.16,5.74,4.67s-3.31,3.47-7.14,2.87Z" style="fill:#ff8b7b"></path><path d="M168.3,97.19a2.75,2.75,0,0,1,2.28.4l2.32,1.62a2,2,0,0,1,.35.48,2,2,0,0,1-1.55,2.89h0l-5-5Z" style="fill:#ff8b7b"></path><path d="M173.29,99.25l3.46-2.44a1,1,0,0,0,.37-1.09c-.2-.33-.65-.18-1,0l-5.45,3.09,1.27,1.31Z" style="fill:#ff8b7b"></path><path d="M173.29,99.25l-.23.15a1.62,1.62,0,0,1,.19.29,2,2,0,0,1-.87,2.67,0,0,0,0,1,0,0c-.55.52-3.59,3.32-7.06,2.77l0,0c-3,3.59-20.36,13.76-35.06,19.2a5.68,5.68,0,0,1-1.36.22l-.85-8.23.82-.18.95-.22,1.92-.5c1.33-.35,2.95-.51,4.24-1a49.2,49.2,0,0,0,12.78-6.75c2.89-1.88,14.34-4.79,14.88-5.93l3.11-4.16.06,0-.06-.06,1.58-.42a2.75,2.75,0,0,1,2.28.4l1,.71,4.54-2.57c.33-.19.78-.34,1,0a1,1,0,0,1-.37,1.09Z" style="opacity:0.1"></path><path d="M147.31,89.8c.23.66.76,1.08,1.19.93s.61-.8.38-1.47-.75-1.09-1.19-.94S147.09,89.13,147.31,89.8Z" style="fill:#263238"></path><path d="M147.51,90.43a17.05,17.05,0,0,0,4.09,2.22,2.76,2.76,0,0,1-1.69,1.58Z" style="fill:#ff5652"></path><path d="M143.92,88.9a.28.28,0,0,0,.2-.15,3.3,3.3,0,0,1,2.61-1.44.41.41,0,0,0,.43-.4.4.4,0,0,0-.38-.43h0a4.12,4.12,0,0,0-3.3,1.78.4.4,0,0,0,.08.56h0A.37.37,0,0,0,143.92,88.9Z" style="fill:#263238"></path><path d="M137.21,100.89c.2,4.43-.37,9.53-3.41,11.56,0,0,1.18,4.78,11.57,5.58,11.44.87,5.83-4.25,5.83-4.25-5-2.23-6.93-6.16-5.57-9.65l-5.36-4.76a1.86,1.86,0,0,0-2.63.25A1.82,1.82,0,0,0,137.21,100.89Z" style="fill:#ff8b7b"></path><path d="M156.9,127.7s-.51,1.72-.71,2.47c-.25.92-.46,1.82-.65,2.78-.37,1.9-.8,27.8-.8,27.8l-30.09-2.23c2.09-12.18,2.08-17.26.27-34.08-.63-5.86,1-12.11,4.15-12.46h.21c.64,0,1.29-.08,2-.11.88,0,1.79-.06,2.69,0h.65c1.64,0,3.26,0,4.89.11,3.15.13,6.29.37,9.43.74l.4.06h0a.83.83,0,0,1,.12,0c.47.13.57.27.67.43l0,.07c.11.19.27.37.92.53l.17,0a5.59,5.59,0,0,1,1,.36,6.92,6.92,0,0,1,3.1,2.76C155.88,117.82,157.1,127.05,156.9,127.7Z" style="fill:#4F46E5"></path><path d="M151.25,120.67c-5.46.2-4.38,4.38-1.95,9.26,3.27,6.58,5.56,14,5.59,17,0,4.63,1.12-19.37-.28-25.72C154.41,120.34,152.58,120.63,151.25,120.67Z" style="opacity:0.2;isolation:isolate"></path><path d="M148.63,104.46h0a10.42,10.42,0,0,1-3.38,2.43,9.5,9.5,0,0,1-7.7.08c-4.39-1.91-5.47-5.49-7.89-11.27s2.49-12.53,9.85-12.38S150.72,92,151.09,97.86A8.91,8.91,0,0,1,148.63,104.46Z" style="fill:#ff8b7b"></path><path d="M150.66,95.13h0a9.65,9.65,0,0,1,.21,3.47l0,.14a.34.34,0,0,1-.12.06l-.17.07a.42.42,0,0,1-.15,0,1.39,1.39,0,0,1-1.33-.49,3.5,3.5,0,0,1-.65-.91h0a2.39,2.39,0,0,1-.2-.52,2.46,2.46,0,0,1-.1-1,.8.8,0,0,1,0-.18c.21-.66.9-.8,1.51-.79h0l.32,0h.07l.33.06Z" style="fill:#263238"></path><path d="M150.41,95.07v.73c-1.75.36-2.27,0-2.25,0,.21-.66.9-.8,1.51-.79h0l.32,0h.07Z" style="fill:#fff"></path><path d="M150.56,98.87c-1,.35-1.78-.66-2.13-1.36h0c0-.07.23,0,.4,0A2.17,2.17,0,0,1,150.56,98.87Z" style="fill:#ba4d3c"></path><path d="M150.73,98.8l-.17.07a.42.42,0,0,1-.15,0,1.39,1.39,0,0,1-1.33-.49,11.69,11.69,0,0,0,1.56-.06Z" style="fill:#fff"></path><path d="M144.51,95.55c2.38,3.4-1.3,8.61-5.49,10.13-7.18,2.6-14.15-8-13.15-12.36s6.1-8.69,8.68-9.32S141.49,88.29,144.51,95.55Z" style="fill:#263238"></path><path d="M149.3,112.71l-.4-.06c-3.14-.37-6.28-.61-9.43-.74-1.63-.07-3.25-.1-4.89-.11h-.65c.18-1.59.45-3.75,1-3.84,1.14-.2,8.4-1,11.48,1.34C148,110.57,149.15,111.4,149.3,112.71Z" style="fill:#263238"></path><path d="M151.1,117.41l-.61,8.45,14.74,2.65,27,.07s-.61-3.25-1.08-3c-.23.13-14.64-3.79-24.2-5.11A124.14,124.14,0,0,1,151.1,117.41Z" style="fill:#ff8b7b"></path><path d="M189.59,125.69l5.6-2.24,4.25,4.76s-5.65,1.59-9.85.16Z" style="fill:#ff8b7b"></path><path d="M202.33,124.86l.1.69a2.13,2.13,0,0,1-1.66,2.37l-2.06.45-3.52-4.92,4.87-.4A2.11,2.11,0,0,1,202.33,124.86Z" style="fill:#ff8b7b"></path><path d="M144.21,123.38c3.66,6.5,15.59,6.19,15.59,6.19l4.3-9.85-7-4.36a12,12,0,0,0-8.68-2.27C143.42,113.94,141.2,118.05,144.21,123.38Z" style="fill:#4F46E5"></path><path d="M144.21,123.38c3.66,6.5,15.59,6.19,15.59,6.19l4.3-9.85-7-4.36a12,12,0,0,0-8.68-2.27C143.42,113.94,141.2,118.05,144.21,123.38Z" style="fill:#fff;opacity:0.1"></path><path d="M124.8,157.66s-4.75,4.91-1,16.32h0a10.29,10.29,0,0,0,4,3.34,20.89,20.89,0,0,0,6.87,2.16c5.66.56,8.85-1,12.81-1,2.34-.06,8.3-16.12,7.29-17.68h0a88,88,0,0,0-23.11-3.09Z" style="fill:#263238"></path><path d="M145.38,89.48c0,.23.68,4.13.68,4.13L144.67,92c-1.19,1.94-3.95,4.24-9.23,5.89-2.87.89-6,2.49-8.35.67a7.15,7.15,0,0,1-2.45-5.64,11.22,11.22,0,0,1,2.9-7.63c3.8-4.15,11.18-6.9,15.84-3.69,2.39,1.64,4,6.74,3.11,9.51A2.68,2.68,0,0,0,145.38,89.48Z" style="fill:#263238"></path><path d="M125.89,92.57s-2.83-.83-2.49,3.15A8.05,8.05,0,0,1,125.89,92.57Z" style="fill:#263238"></path><path d="M122.83,94.86A8.12,8.12,0,0,0,125,99.48a7.1,7.1,0,0,0,6.08,1.57,15.07,15.07,0,0,0,5.88-2.7,34.7,34.7,0,0,0,6.46-5.76,11.93,11.93,0,0,0,2.42-3.76,8,8,0,0,0-2-8,10.15,10.15,0,0,0-8-2.74A14.26,14.26,0,0,0,122.83,94.86Z" style="fill:#4F46E5"></path><path d="M127.85,81.42c0,.67.14,1.14.81,1.14s1.75-.79,1.75-1.46-.69-.88-1.36-.88A1.2,1.2,0,0,0,127.85,81.42Z" style="fill:#263238"></path><path d="M121,106.32a10.65,10.65,0,0,0,0,1.14,1.12,1.12,0,0,0,1.91.73c1-1,3.11-2,7.78-.5a1.07,1.07,0,0,0,1-.24c3.66-3.7,4.9-6.3,7.68-10.94a11.84,11.84,0,0,0-14.27.07,7.12,7.12,0,0,0-2.28,3A22.55,22.55,0,0,0,121,106.32Z" style="fill:#4F46E5"></path><g style="opacity:0.5"><path d="M121,106.32a10.65,10.65,0,0,0,0,1.14,1.12,1.12,0,0,0,1.91.73c1-1,3.09-2,7.71-.53a1.15,1.15,0,0,0,1.16-.27c3.63-3.66,4.86-6.26,7.63-10.88a11.84,11.84,0,0,0-14.27.07,7.12,7.12,0,0,0-2.28,3A22.55,22.55,0,0,0,121,106.32Z"></path></g><path d="M144.44,91.44s-2.91-1-2.92,1,2.1,3.72,4.17,4.05S144.44,91.44,144.44,91.44Z" style="fill:#ff8b7b"></path><path d="M139.53,157.82s-11.38,14.29.51,21.54l36,4.33s10.43-.15,8.78-7.83C184,172.14,175.28,161.93,139.53,157.82Z" style="fill:#263238"></path><path d="M201.55,228.48c-4.41-.32-3.43-.7-7.18-.93-3.21-.19-5.41-.17-8-.28a.7.7,0,0,1-.25-.05.94.94,0,0,1-.65-1.17l1.63-5.68a.53.53,0,0,1,.11-.21c3.49,2,3.79,2,7.38,1.51,1.1,1.19,5.6,3.14,9.15,3.8C204.91,225.68,204.2,228.68,201.55,228.48Z" style="fill:#263238"></path></g><g id="freepik--Birds--inject-43"><path d="M298.44,159.32a9.45,9.45,0,0,1-1.45-.47c-.88-.35-2-.92-3.18-1.49a9.6,9.6,0,0,0-3.1-.93c-.83-.09-1.39,0-1.47-.22s.41-.62,1.42-.8a6.39,6.39,0,0,1,3.78.64,11.59,11.59,0,0,1,2.94,2.19C298,158.88,298.44,159.32,298.44,159.32Z" style="fill:#4F46E5"></path><path d="M303.55,155.21l-1.06.41c-.62.25-1.41.61-2.29,1-1.76.77-3.26,1.58-3.51,1.23-.11-.16.12-.56.63-1a7.75,7.75,0,0,1,2.31-1.51,5.27,5.27,0,0,1,2.78-.39,3.45,3.45,0,0,1,.84.2A2.07,2.07,0,0,1,303.55,155.21Z" style="fill:#4F46E5"></path><path d="M289,162.38l-.29-.17c-.18-.12-.44-.27-.77-.45a17.78,17.78,0,0,0-2.58-1.12c-2-.73-3.87-.57-3.93-.88,0-.14.42-.37,1.21-.49a6.9,6.9,0,0,1,3.08.35,6,6,0,0,1,2.56,1.72,5.06,5.06,0,0,1,.55.75Z" style="fill:#4F46E5"></path><path d="M291,158.15s-.29.18-.73.42l-1.64.92c-1.23.68-2.18,1.47-2.42,1.26s0-.43.31-.86a5,5,0,0,1,1.59-1.35,4.13,4.13,0,0,1,2-.49A3.87,3.87,0,0,1,291,158.15Z" style="fill:#4F46E5"></path><g style="opacity:0.5"><path d="M298.44,159.32a9.45,9.45,0,0,1-1.45-.47c-.88-.35-2-.92-3.18-1.49a9.6,9.6,0,0,0-3.1-.93c-.83-.09-1.39,0-1.47-.22s.41-.62,1.42-.8a6.39,6.39,0,0,1,3.78.64,11.59,11.59,0,0,1,2.94,2.19C298,158.88,298.44,159.32,298.44,159.32Z" style="fill:#fff"></path><path d="M303.55,155.21l-1.06.41c-.62.25-1.41.61-2.29,1-1.76.77-3.26,1.58-3.51,1.23-.11-.16.12-.56.63-1a7.75,7.75,0,0,1,2.31-1.51,5.27,5.27,0,0,1,2.78-.39,3.45,3.45,0,0,1,.84.2A2.07,2.07,0,0,1,303.55,155.21Z" style="fill:#fff"></path><path d="M289,162.38l-.29-.17c-.18-.12-.44-.27-.77-.45a17.78,17.78,0,0,0-2.58-1.12c-2-.73-3.87-.57-3.93-.88,0-.14.42-.37,1.21-.49a6.9,6.9,0,0,1,3.08.35,6,6,0,0,1,2.56,1.72,5.06,5.06,0,0,1,.55.75Z" style="fill:#fff"></path><path d="M291,158.15s-.29.18-.73.42l-1.64.92c-1.23.68-2.18,1.47-2.42,1.26s0-.43.31-.86a5,5,0,0,1,1.59-1.35,4.13,4.13,0,0,1,2-.49A3.87,3.87,0,0,1,291,158.15Z" style="fill:#fff"></path></g><path d="M430.16,114.34a9.33,9.33,0,0,1-1.46-.47c-.87-.34-2-.92-3.17-1.49a9.65,9.65,0,0,0-3.11-.93c-.82-.09-1.38,0-1.46-.21s.4-.62,1.41-.81a6.3,6.3,0,0,1,3.78.65,11.4,11.4,0,0,1,2.94,2.18C429.76,113.91,430.16,114.34,430.16,114.34Z" style="fill:#4F46E5"></path><path d="M435.26,110.23l-1.05.41c-.63.26-1.42.61-2.3,1-1.76.78-3.26,1.58-3.5,1.23-.11-.16.12-.55.62-1a8,8,0,0,1,2.31-1.52,5.3,5.3,0,0,1,2.79-.39,5,5,0,0,1,.84.2A2.19,2.19,0,0,1,435.26,110.23Z" style="fill:#4F46E5"></path><path d="M420.68,117.41l-.29-.18c-.18-.11-.45-.27-.77-.44a17.19,17.19,0,0,0-2.58-1.12c-2.05-.74-3.88-.58-3.93-.89,0-.13.42-.37,1.21-.48a6.75,6.75,0,0,1,3.08.34,6.29,6.29,0,0,1,2.56,1.72,5.06,5.06,0,0,1,.55.75Z" style="fill:#4F46E5"></path><path d="M422.69,113.17l-.74.43c-.43.24-1,.56-1.63.92-1.24.67-2.19,1.46-2.42,1.25s0-.43.31-.86a5,5,0,0,1,1.59-1.35,4.24,4.24,0,0,1,2-.49A3.91,3.91,0,0,1,422.69,113.17Z" style="fill:#4F46E5"></path><path d="M419,110.77s-.69-.25-1.75-.7-2.49-1.07-4.05-1.59a11.27,11.27,0,0,0-4.1-.57c-1.07.06-1.76.27-1.85.08s.47-.73,1.66-1.08a8.13,8.13,0,0,1,4.74.2,11.86,11.86,0,0,1,4,2.35A14.33,14.33,0,0,1,419,110.77Z" style="fill:#4F46E5"></path><path d="M423.69,104.79l-.4.11-1,.31a28.31,28.31,0,0,0-3.15,1.24c-2.38,1.06-3.91,2.64-4.24,2.39-.15-.12,0-.7.65-1.45a8.47,8.47,0,0,1,3-2.25,7.45,7.45,0,0,1,3.68-.65,5.56,5.56,0,0,1,1.11.19Z" style="fill:#4F46E5"></path><g style="opacity:0.4"><path d="M430.16,114.34a9.33,9.33,0,0,1-1.46-.47c-.87-.34-2-.92-3.17-1.49a9.65,9.65,0,0,0-3.11-.93c-.82-.09-1.38,0-1.46-.21s.4-.62,1.41-.81a6.3,6.3,0,0,1,3.78.65,11.4,11.4,0,0,1,2.94,2.18C429.76,113.91,430.16,114.34,430.16,114.34Z" style="fill:#fff"></path><path d="M435.26,110.23l-1.05.41c-.63.26-1.42.61-2.3,1-1.76.78-3.26,1.58-3.5,1.23-.11-.16.12-.55.62-1a8,8,0,0,1,2.31-1.52,5.3,5.3,0,0,1,2.79-.39,5,5,0,0,1,.84.2A2.19,2.19,0,0,1,435.26,110.23Z" style="fill:#fff"></path><path d="M420.68,117.41l-.29-.18c-.18-.11-.45-.27-.77-.44a17.19,17.19,0,0,0-2.58-1.12c-2.05-.74-3.88-.58-3.93-.89,0-.13.42-.37,1.21-.48a6.75,6.75,0,0,1,3.08.34,6.29,6.29,0,0,1,2.56,1.72,5.06,5.06,0,0,1,.55.75Z" style="fill:#fff"></path><path d="M422.69,113.17l-.74.43c-.43.24-1,.56-1.63.92-1.24.67-2.19,1.46-2.42,1.25s0-.43.31-.86a5,5,0,0,1,1.59-1.35,4.24,4.24,0,0,1,2-.49A3.91,3.91,0,0,1,422.69,113.17Z" style="fill:#fff"></path><path d="M419,110.77s-.69-.25-1.75-.7-2.49-1.07-4.05-1.59a11.27,11.27,0,0,0-4.1-.57c-1.07.06-1.76.27-1.85.08s.47-.73,1.66-1.08a8.13,8.13,0,0,1,4.74.2,11.86,11.86,0,0,1,4,2.35A14.33,14.33,0,0,1,419,110.77Z" style="fill:#fff"></path><path d="M423.69,104.79l-.4.11-1,.31a28.31,28.31,0,0,0-3.15,1.24c-2.38,1.06-3.91,2.64-4.24,2.39-.15-.12,0-.7.65-1.45a8.47,8.47,0,0,1,3-2.25,7.45,7.45,0,0,1,3.68-.65,5.56,5.56,0,0,1,1.11.19Z" style="fill:#fff"></path></g></g></svg>