<svg xmlns="http://www.w3.org/2000/svg" viewBox="0 0 500 500"><g id="freepik--background-complete--inject-20"><rect y="382.4" width="500" height="0.25" style="fill:#ebebeb"></rect><rect x="416.78" y="398.49" width="33.12" height="0.25" style="fill:#ebebeb"></rect><rect x="322.53" y="401.21" width="8.69" height="0.25" style="fill:#ebebeb"></rect><rect x="396.59" y="389.21" width="19.19" height="0.25" style="fill:#ebebeb"></rect><rect x="52.46" y="390.89" width="43.19" height="0.25" style="fill:#ebebeb"></rect><rect x="104.56" y="390.89" width="6.33" height="0.25" style="fill:#ebebeb"></rect><rect x="131.47" y="395.11" width="93.68" height="0.25" style="fill:#ebebeb"></rect><path d="M237,337.8H43.91a5.71,5.71,0,0,1-5.7-5.71V60.66A5.71,5.71,0,0,1,43.91,55H237a5.71,5.71,0,0,1,5.71,5.71V332.09A5.71,5.71,0,0,1,237,337.8ZM43.91,55.2a5.46,5.46,0,0,0-5.45,5.46V332.09a5.46,5.46,0,0,0,5.45,5.46H237a5.47,5.47,0,0,0,5.46-5.46V60.66A5.47,5.47,0,0,0,237,55.2Z" style="fill:#ebebeb"></path><path d="M453.31,337.8H260.21a5.72,5.72,0,0,1-5.71-5.71V60.66A5.72,5.72,0,0,1,260.21,55h193.1A5.71,5.71,0,0,1,459,60.66V332.09A5.71,5.71,0,0,1,453.31,337.8ZM260.21,55.2a5.47,5.47,0,0,0-5.46,5.46V332.09a5.47,5.47,0,0,0,5.46,5.46h193.1a5.47,5.47,0,0,0,5.46-5.46V60.66a5.47,5.47,0,0,0-5.46-5.46Z" style="fill:#ebebeb"></path><circle cx="195.65" cy="136.89" r="27.79" style="fill:#fafafa"></circle><path d="M199.05,165.3a6.71,6.71,0,0,0-6.7-6.71,6.49,6.49,0,0,0-1.93.29,14.21,14.21,0,0,0-14.06-16.27,15,15,0,0,0-2.61.24,12.42,12.42,0,0,0-23,6.28h-.21a11.45,11.45,0,0,0,0,22.89h42A6.7,6.7,0,0,0,199.05,165.3Z" style="fill:#f0f0f0"></path><polygon points="442.14 382 442.14 337.69 419.38 337.69 419.38 291.95 416.17 291.95 416.17 318.17 407.41 318.17 407.41 310.92 391.65 310.92 391.65 285.82 388.74 285.82 388.74 255.14 386.4 255.14 386.4 285.26 380.86 285.26 380.86 329.88 370.35 329.88 370.35 285.26 351.39 285.26 351.39 322.99 331.48 322.99 331.48 277.26 328.27 277.26 328.27 303.47 319.51 303.47 319.51 296.22 303.76 296.22 303.76 271.13 300.84 271.13 300.84 240.45 298.5 240.45 298.5 270.57 292.96 270.57 292.96 315.19 282.45 315.19 282.45 270.57 263.49 270.57 263.49 313.73 250.7 313.73 250.7 288.63 247.78 288.63 247.78 257.95 245.44 257.95 245.44 288.07 239.9 288.07 239.9 332.69 229.4 332.69 229.4 288.07 210.43 288.07 210.43 332.69 201.09 332.69 201.09 337.69 184.74 337.69 184.74 291.95 181.53 291.95 181.53 318.17 172.77 318.17 172.77 310.92 157.01 310.92 157.01 285.82 154.1 285.82 154.1 255.14 151.76 255.14 151.76 285.26 146.67 285.26 146.67 282.75 127.71 282.75 127.71 285.26 117.2 285.26 117.2 282.75 111.66 282.75 111.66 252.63 109.32 252.63 109.32 283.31 106.41 283.31 106.41 308.4 90.65 308.4 90.65 315.65 81.89 315.65 81.89 289.44 78.69 289.44 78.69 335.18 55.93 335.18 55.93 382 442.14 382" style="fill:#e0e0e0"></polygon><path d="M330.36,212.52a5.85,5.85,0,0,1,7.54-5.61,13.38,13.38,0,0,1-.13-1.8,12.43,12.43,0,0,1,14.7-12.2,10.84,10.84,0,0,1,20.11,5.49h.18a10,10,0,1,1,0,20H336.05A5.84,5.84,0,0,1,330.36,212.52Z" style="fill:#f0f0f0"></path><path d="M55.69,208.78a3.58,3.58,0,0,1,3.59-3.58,3.52,3.52,0,0,1,1,.15,8,8,0,0,1-.08-1.1,7.59,7.59,0,0,1,7.59-7.6,8,8,0,0,1,1.4.13,6.64,6.64,0,0,1,12.31,3.36h.11a6.12,6.12,0,0,1,0,12.24H59.18A3.58,3.58,0,0,1,55.69,208.78Z" style="fill:#f0f0f0"></path><path d="M215.24,133.88a3,3,0,0,1,3.87-2.87,7,7,0,0,1-.07-.92,6.36,6.36,0,0,1,6.36-6.36,6.45,6.45,0,0,1,1.17.11,5.56,5.56,0,0,1,10.31,2.81H237a5.13,5.13,0,0,1,0,10.25H218.16A3,3,0,0,1,215.24,133.88Z" style="fill:#f0f0f0"></path><path d="M113,98.24a3,3,0,0,0-3.86-2.88,7,7,0,0,0,.07-.92,6.36,6.36,0,0,0-6.36-6.36,6.45,6.45,0,0,0-1.17.11A5.56,5.56,0,0,0,91.34,91h-.09a5.13,5.13,0,1,0,0,10.25h18.81A3,3,0,0,0,113,98.24Z" style="fill:#f0f0f0"></path><path d="M410,106.1a3,3,0,0,0-3.86-2.88,7,7,0,0,0,.06-.92,6.36,6.36,0,0,0-6.36-6.36,6.45,6.45,0,0,0-1.17.11,5.55,5.55,0,0,0-10.3,2.81h-.1a5.13,5.13,0,0,0,0,10.25h18.81A3,3,0,0,0,410,106.1Z" style="fill:#f0f0f0"></path></g><g id="freepik--Shadow--inject-20"><ellipse id="freepik--path--inject-20" cx="250" cy="416.24" rx="193.89" ry="11.32" style="fill:#f5f5f5"></ellipse></g><g id="freepik--statue-of-liberty--inject-20"><path d="M352,170.56l-3.69,5.15s1.72,18.86-8.57,15.82l.79,18.73-3,2.37v34.81H303.29l1.06-15.16-3.3-.4,1.72-15.69-1.72-.92L299.47,195l-2.37-1.32,2.37-13.19-.92-9.23.92-4.22-3.3-17.67-3.43-5.14,1.55-5.54s-1.68-12.92-1-19.25L292,103.71h-.79v-4s-3.29-1.66-1.05-4.59v-2.4l-3.7-2.63V87h3.42a4.81,4.81,0,0,1-.51-4.86c1.18-2.9,6.33-2.24,7.12-5.93,0,0,3.57,4.12,1.78,8.31,0,0,0,0,0,0A7.38,7.38,0,0,1,296.44,87h3v3.17L296,92.76v2.4s1.06,1.56,0,4.86c0,0,.27,6.06,1.32,9.09a40.51,40.51,0,0,1,1.32,8.58s1.19.65,3.69,11.47h2.51l1.13,6.46,4.54,3.56v-5.79l-1.06-.44-.13-1.45L306,131l3.09-1.58.39-1.84-5.27-2.19h6.85l.66-.58-4-5.54,6.46,4.09,1.19-.53.87-9.36,2.16,9.89,1.85.13L326,119.4l-3,6,1.06.6,7.38-1.45-5.67,3.91.13,1.24,5.54,1.81H326s1.45,4.25-.93,6.89l.53,3.69,2,1.06v2.11a59.42,59.42,0,0,1,5.54,3.29c.66.66,4.61,12.79,5,13.19s5-1.17,5-1.17-.13-2.26,2.77-3.45,4.22-.66,4.22,1.85l1.84.13Z" style="fill:#4F46E5"></path><path d="M352,170.56l-3.69,5.15s1.72,18.86-8.57,15.82l.79,18.73-3,2.37v34.81H303.29l1.06-15.16-3.3-.4,1.72-15.69-1.72-.92L299.47,195l-2.37-1.32,2.37-13.19-.92-9.23.92-4.22-3.3-17.67-3.43-5.14,1.55-5.54s-1.68-12.92-1-19.25L292,103.71h-.79v-4s-3.29-1.66-1.05-4.59v-2.4l-3.7-2.63V87h3.42a4.81,4.81,0,0,1-.51-4.86c1.18-2.9,6.33-2.24,7.12-5.93,0,0,3.57,4.12,1.78,8.31,0,0,0,0,0,0A7.38,7.38,0,0,1,296.44,87h3v3.17L296,92.76v2.4s1.06,1.56,0,4.86c0,0,.27,6.06,1.32,9.09a40.51,40.51,0,0,1,1.32,8.58s1.19.65,3.69,11.47h2.51l1.13,6.46,4.54,3.56v-5.79l-1.06-.44-.13-1.45L306,131l3.09-1.58.39-1.84-5.27-2.19h6.85l.66-.58-4-5.54,6.46,4.09,1.19-.53.87-9.36,2.16,9.89,1.85.13L326,119.4l-3,6,1.06.6,7.38-1.45-5.67,3.91.13,1.24,5.54,1.81H326s1.45,4.25-.93,6.89l.53,3.69,2,1.06v2.11a59.42,59.42,0,0,1,5.54,3.29c.66.66,4.61,12.79,5,13.19s5-1.17,5-1.17-.13-2.26,2.77-3.45,4.22-.66,4.22,1.85l1.84.13Z" style="fill:#fff;opacity:0.4"></path><path d="M299.47,187.87l21.37-35.14,2.63,4.12s-6.85,20.57-7.38,26.64,7.38-15.82,7.38-15.82l4.75,9s-2.64,21.1,0,22.42,4-16.62,4-16.62l2.9,5.44,2.37,21.73s-7.38.79-10.29,0-7.38,10.81-11.34,9.23-11.07,11.51-11.07,11.51l.52-14.41s9.24-9.63,11.08-17.87L303.16,213l-1.31-17.65,4.48-6.07-6.86,2.85Z" style="fill:#fff;opacity:0.2"></path><path d="M310.55,131.51s4.22-6.12,12.4,0c0,0-2.25-6.12-6.8-6.12C311.91,125.39,310.55,131.51,310.55,131.51Z" style="fill:#fff;opacity:0.2"></path><path d="M312.3,131.51s3.06-2.54,8,0V133s-2.67-.69-3.56-.39-.45,3.85-.45,3.85h-1.14s.4-3.16-.09-3.66-2.77.2-2.77.2Z" style="fill:#fff;opacity:0.2"></path><polygon points="302.31 132.95 294.3 142.64 296.97 146.5 299.47 143.24 299.47 153.13 301.52 159.95 305.37 152.73 301.62 166.68 308.34 159.36 301.32 172.02 303.49 176.76 317.74 154.86 315.07 153.32 309.53 157.48 309.33 151.05 306.76 150.95 306.66 142.94 303.49 140.96 301.32 144.42 302.8 138 302.31 132.95" style="fill:#fff;opacity:0.2"></polygon><path d="M298.22,84.46s0,0,0,0a5,5,0,0,1-3.68,2.06,3,3,0,0,0,.8-2.43,4.72,4.72,0,0,1-3.43,2.3,2.35,2.35,0,0,1-1.26-2.3,2.2,2.2,0,0,0-.8,2.81,4.81,4.81,0,0,1-.51-4.86c1.18-2.9,6.33-2.24,7.12-5.93C296.44,76.15,300,80.27,298.22,84.46Z" style="fill:#fff;opacity:0.2"></path><polygon points="338.99 241.25 300.83 241.25 290.83 247.44 290.83 251.86 348.99 251.86 348.99 247.44 338.99 241.25" style="fill:#4F46E5"></polygon><polygon points="338.99 241.25 300.83 241.25 290.83 247.44 290.83 251.86 348.99 251.86 348.99 247.44 338.99 241.25" style="fill:#fff;opacity:0.4"></polygon><polygon points="293.41 247.44 345.82 247.44 338.99 241.25 300.83 241.25 293.41 247.44" style="fill:#fff;opacity:0.2"></polygon><path d="M414.79,362v20H223.58V362a1.63,1.63,0,0,1,1.62-1.63h15.58v-8.66A1.63,1.63,0,0,1,242.4,350h17.84v-5.73a1.63,1.63,0,0,1,1.62-1.63h14V332.9h2.07V322.35h-2.24v-4.29H276l7.18-5.95V298.32h1.51V267.48h-4.15v-4H279.1v-4h7.32v-10H352v10h7.32v4h-1.45v4h-4.16v30.84h1.52v13.79l7.18,5.95h.34v4.29h-2.25V332.9h2.08v9.78h14a1.63,1.63,0,0,1,1.63,1.63V350H396a1.63,1.63,0,0,1,1.63,1.63v8.66h15.56A1.63,1.63,0,0,1,414.79,362Z" style="fill:#4F46E5"></path><path d="M414.79,362v20H223.58V362a1.63,1.63,0,0,1,1.62-1.63h15.58v-8.66A1.63,1.63,0,0,1,242.4,350h17.84v-5.73a1.63,1.63,0,0,1,1.62-1.63h14V332.9h2.07V322.35h-2.24v-4.29H276l7.18-5.95V298.32h1.51V267.48h-4.15v-4H279.1v-4h7.32v-10H352v10h7.32v4h-1.45v4h-4.16v30.84h1.52v13.79l7.18,5.95h.34v4.29h-2.25V332.9h2.08v9.78h14a1.63,1.63,0,0,1,1.63,1.63V350H396a1.63,1.63,0,0,1,1.63,1.63v8.66h15.56A1.63,1.63,0,0,1,414.79,362Z" style="fill:#fff;opacity:0.2"></path><rect x="280.54" y="263.53" width="77.28" height="1.05" style="opacity:0.2"></rect><rect x="284.69" y="267.48" width="68.97" height="5.03" style="opacity:0.2"></rect><rect x="284.69" y="296.05" width="68.97" height="2.27" style="opacity:0.2"></rect><rect x="283.18" y="309.96" width="72" height="2.15" style="opacity:0.2"></rect><rect x="277.9" y="322.62" width="82.55" height="3.53" style="opacity:0.2"></rect><rect x="277.9" y="331.32" width="82.55" height="1.58" style="opacity:0.2"></rect><rect x="260.23" y="348.03" width="117.89" height="2.01" style="opacity:0.2"></rect><polygon points="373.51 356.77 373.51 353.67 367.31 353.67 367.31 356.77 322.28 356.77 322.28 353.67 316.08 353.67 316.08 356.77 271.05 356.77 271.05 353.67 264.86 353.67 264.86 356.77 240.77 356.77 240.77 360.33 397.59 360.33 397.59 356.77 373.51 356.77" style="opacity:0.2"></polygon><polygon points="322 259.57 351.95 259.57 351.95 257.89 322 257.89 322 253.93 316.36 253.93 316.36 257.89 286.41 257.89 286.41 259.57 316.36 259.57 322 259.57" style="opacity:0.2"></polygon><rect x="302.83" y="277.35" width="8.7" height="16.64" style="opacity:0.2"></rect><rect x="314.83" y="277.35" width="8.7" height="16.64" style="opacity:0.2"></rect><rect x="326.83" y="277.35" width="8.7" height="16.64" style="opacity:0.2"></rect><polygon points="316.08 342.85 322.28 342.85 322.28 342.68 362.53 342.68 362.53 339.32 322.28 339.32 322.28 336.65 316.08 336.65 316.08 339.32 275.83 339.32 275.83 342.68 316.08 342.68 316.08 342.85" style="opacity:0.2"></polygon><path d="M449.15,375.21H50.85a6.66,6.66,0,0,0-4.63,1.88L41.15,382h417.7l-5.07-4.91A6.66,6.66,0,0,0,449.15,375.21Z" style="fill:#4F46E5"></path><path d="M449.15,375.21H50.85a6.66,6.66,0,0,0-4.63,1.88L41.15,382h417.7l-5.07-4.91A6.66,6.66,0,0,0,449.15,375.21Z" style="fill:#fff;opacity:0.4"></path></g><g id="freepik--Character--inject-20"><g id="freepik--group--inject-20"><path d="M199.48,286.13l4.28-.34a8.83,8.83,0,0,1,2.09-1.88c.68-.22,5.46-1.43,5.9-1.2s.82,5.44.4,6.64-4.47,2.15-5.89,1.85a6.57,6.57,0,0,1-2.43-1.11l-4.4.44Z" style="fill:#e4897b"></path><path d="M226.43,259.84l9.35,1.08c7.09.82,22.91.65,23.57,1.55,2.24,3.08-3.2,29.8-3.2,29.8l-33.33-3.09S229.38,268.14,226.43,259.84Z" style="fill:#4F46E5"></path><polygon points="204.49 293.79 203.84 296.5 238.95 299.26 258.69 263.16 258.69 261.57 204.49 293.79" style="fill:#4F46E5"></polygon><polygon points="204.49 293.79 203.84 296.5 238.95 299.26 258.69 263.16 258.69 261.57 204.49 293.79" style="fill:#fff;opacity:0.4"></polygon><polygon points="203.03 295.36 225.97 258.75 258.69 261.57 237.86 297.86 203.03 295.36" style="fill:#4F46E5"></polygon><polygon points="203.03 295.36 225.97 258.75 258.69 261.57 237.86 297.86 203.03 295.36" style="fill:#fff;opacity:0.7000000000000001"></polygon><g style="opacity:0.2"><path d="M246.16,274.25a4,4,0,0,0-.55,0c-.85.1-1,.39-1,.39s-.86.07-1.23.07h-.16c-.06-.06.08-1.67,0-1.76a10.29,10.29,0,0,0-1.1-.52l.2-.26-.4-.17.21-.48c.86-.29.9-.86.9-.86l1.38.1-1.25-.33.09-.16,1.82-.4-2,.06-.21-.1,1.35-.7-1.84.42-.46-.05.39-1.29-1.12,1.17-.35,0-1.27-.64.49.78-.23.06-1.75-.12,1.14.37-.28.23-.94.14.81.12-.1.19.23.07-.56.74-.82-.53.33-.84-.64,0c.39-1.42.14-1.52.14-1.52a3.29,3.29,0,0,0,.48-1.12,3.6,3.6,0,0,1,.53-1.17c.59-.4.46-.62.46-.62l.23-.3,1.13-.28.3-.4-.77-.05a3.25,3.25,0,0,0,.68-.28h0c.86-.5.34-1.08.34-1.08-.56.45-1.81.28-2.39.63s-.36.59-.33.62h0l-.88-.06-.3.41.7.39-.23.31c-.86.33-.17.6-.17.6l-.38.5.2,0-1.15,2a11.51,11.51,0,0,0-1.58,2.46l-.92.67.39.72-.84,2.29-.64.52-.64,1.19L230,277.8h0l-.31.27.48.21-1.53,2.61.35.14L227,283l.81.11-1.14,1.26h-.22a.25.25,0,0,0-.25.24l-3-.15-1,3.14-1.19.61v-.41h-1.78a3.54,3.54,0,0,0-.52-2.34c-.73-.95-3.37,1.62-3.37,1.62s-.85-2.44-2.3-1.32l-1.45,1.58-1.13-.13L208.42,291h-.53l-2,3,.64-.18h.1l1.53-2.27,8.54.26,4.88.18,12.31,1.16h0a.25.25,0,0,0,0-.5l-10.29-1-4.84-.83,1.38-1.56,2-1,3.92-.2,6.74.63h0a.24.24,0,0,0,.25-.22.25.25,0,0,0-.22-.27l-8-.76h0l-.41,0s-.06,0-.1,0l-1.5,0,.67-2.11,9.56.28-6.23-.58.07-.08h4.46l3.18.72a.51.51,0,0,0,.39.31l.79.1-1.26,2.14a.53.53,0,0,0,0,.52l.79,1.27h0l.72,1.16-.74,1.52a.49.49,0,0,0,0,.41.48.48,0,0,0,.31.28l2.55.79L236.9,296h-.06c.06.11.12.23.19.34l.13.18h0l1.69-2.7,2.24-3.3s-.27-.92-.84-.76-2.34.76-2.34.76-.32-1.45-.85-1.51a3,3,0,0,0-1.41.64l-.76-1.24,1.65-2.78-1.54-.21,3.16-4.21,1-.24,1.59-2.39a3.42,3.42,0,0,0,.7.08,3.88,3.88,0,0,0,3-1.94l1.43-.59,1.1-1.46-.46,0C246.69,274.36,246.58,274.25,246.16,274.25Zm-28.48,17h-.32l.93-.68Zm22.7-21.41.12.06-.25.09A.37.37,0,0,0,240.38,269.84Zm-.95.45a.53.53,0,0,0,.12-.14h.17l.13,0,.09,0a4.88,4.88,0,0,0-.66.34,0,0,0,0,1,0,0Zm-.2.67s1.5-1.3,2.16-.36a.92.92,0,0,0-.38-.68h.14a.53.53,0,0,0,.24-.11h0a.53.53,0,0,0,.36.22l.47.05h.09a.53.53,0,0,0,.25.24l0,0a.46.46,0,0,0-.13.3s-.06.27-.56.44a.47.47,0,0,0-.29.26l-.14.3-2,.29-.56-.6Zm-3.14-2,.08-.1,1.16-2a.47.47,0,0,0,0-.35l.09-.11a.51.51,0,0,0,.06-.45.08.08,0,0,0,0,0l.12-.11.22-.31a.48.48,0,0,0,.09-.4.39.39,0,0,0,0-.14h0a.5.5,0,0,0,.46-.31.31.31,0,0,0,0-.13.37.37,0,0,0,0-.18l.11-.08a2.9,2.9,0,0,1,.89-.19l.25,0-.18.06a.49.49,0,0,0-.36.53.53.53,0,0,0,0,.12l-.3.07a.48.48,0,0,0-.29.19l-.23.3a.57.57,0,0,0-.1.3,1.15,1.15,0,0,1-.24.21.57.57,0,0,0-.14.13,3.91,3.91,0,0,0-.61,1.43,2.43,2.43,0,0,1-.4.86.48.48,0,0,0-.05.42.61.61,0,0,0,.05.12,3.58,3.58,0,0,1-.13.81l-1.45.5A7.13,7.13,0,0,1,236.09,268.94Zm9.48,6.75-1.31.54a.52.52,0,0,0-.25.21,3.4,3.4,0,0,1-2.56,1.69,2.44,2.44,0,0,1-.59-.07h-.11a.5.5,0,0,0-.42.22l-1.48,2.23-.81.2a.53.53,0,0,0-.28.18l-3,4-1.95-.52H228l4-3.34L228,282.66l1.26-1.28,3.76-2.83-3.76,2.13,1.25-2.14a.49.49,0,0,0,0-.37l3.5-2.18-2.09.56.53-1,.56-.46a.47.47,0,0,0,.16-.21l.84-2.3a.49.49,0,0,0,0-.41l-.17-.33.21-.16,2.61-1.47,0,0a.48.48,0,0,0,.34.21l-.08.21a.49.49,0,0,0,.19.6l.82.53,1.09,1-7,5.25a.25.25,0,0,0,0,.35.23.23,0,0,0,.2.1.23.23,0,0,0,.15-.05l6.76-5.05,2.73-.52.84.36c0,.2,0,.51,0,.72a3.24,3.24,0,0,0,0,.84h0l-2.36,1.57,1.18,1.05,1.49-.79-1,0-.76-.19,2-1.28h.15c.39,0,1.24-.07,1.28-.08A.45.45,0,0,0,245,275a1.51,1.51,0,0,1,.71-.21l.37,0,0,.05a.5.5,0,0,0,.08.12Z"></path><path d="M239.47,274.55l-8.78,8.31a.26.26,0,0,0,0,.36.26.26,0,0,0,.18.07.25.25,0,0,0,.17-.06l8.78-8.31a.26.26,0,0,0,0-.36A.25.25,0,0,0,239.47,274.55Z"></path><path d="M237.89,272.67a.24.24,0,0,0-.32-.15l-3.76,1.39a.25.25,0,0,0-.14.32.24.24,0,0,0,.23.16H234l3.76-1.39A.24.24,0,0,0,237.89,272.67Z"></path><polygon points="222.13 288.63 230.39 289.18 222.48 288.38 222.13 288.63"></polygon><path d="M230.61,274,228,273s.18-1.8-.67-2.15a3.42,3.42,0,0,0-2,0,1.25,1.25,0,0,0-.86-1.61c-1.25-.39-2.63,1-2.63,1l-1.39,2.27,2,.51Z"></path><path d="M249.86,265.84c-1.91.65-1.91-.06-3.37.2s-3.9.39-3.9.39l8.65,1.12.86-1.12S251.77,265.18,249.86,265.84Z"></path></g><polygon points="231.26 263.99 238.95 274.49 239.68 273.45 232.07 263.16 231.26 263.99" style="fill:#263238"></polygon><path d="M190.58,267.55s-.79,15,1.39,15.74S203,284.45,203,284.45v6.8s-9.4,3.36-15.52-.34-4.64-17-4.64-17Z" style="fill:#263238"></path><polygon points="176.39 409.51 184.43 409.66 188.43 391.12 180.4 390.98 176.39 409.51" style="fill:#ebb376"></polygon><polygon points="180.4 390.98 188.43 391.13 186.14 401.73 178.18 401.19 180.4 390.98" style="opacity:0.2;isolation:isolate"></polygon><path d="M202.22,364.13a252.15,252.15,0,0,1-11.71,34.58l-14.67-1.12s6-23.51,8.2-45c1.35-13.29,1.23-24.29-2.66-25.14-2.45-.54-8.18-.52-15.52-.35V299.7c20.6,4.23,41.1,12.21,42.66,18.61C210.7,327.32,206.89,346.39,202.22,364.13Z" style="fill:#4F46E5"></path><polygon points="174.28 398.28 191.75 399.44 194.32 391.89 175.08 390.99 174.28 398.28" style="fill:#4F46E5"></polygon><polygon points="174.28 398.28 191.75 399.44 194.32 391.89 175.08 390.99 174.28 398.28" style="fill:#fff;opacity:0.2"></polygon><path d="M185.63,409.26l.17,0s.18.05.2.07,0,0,0,.06h.07a9.91,9.91,0,0,0,2.09.41,2.17,2.17,0,0,0,1.53-.3,1,1,0,0,0,.29-1,.73.73,0,0,0-.4-.56,3.33,3.33,0,0,0-2.23.41,2.83,2.83,0,0,0,.79-1.83.75.75,0,0,0-.68-.61,1.12,1.12,0,0,0-.89.21c-.84.72-1,3-1,3.13h0Zm.87-.47-.17.1a4.06,4.06,0,0,1,.68-2.46.53.53,0,0,1,.41-.15l.09,0c.27,0,.33.18.34.29A3.84,3.84,0,0,1,186.5,408.79Zm.11.4c1-.53,2.35-1.12,2.86-.88a.32.32,0,0,1,.19.27.69.69,0,0,1-.17.66C189.08,409.58,188,409.56,186.61,409.19Z" style="fill:#4F46E5"></path><path d="M185.44,408.28l-9-.56a.57.57,0,0,0-.63.5h0l-.88,7.1a1.43,1.43,0,0,0,1.31,1.51c3.14.14,4.65.05,8.61.27,2.44.14,7.23.66,10.58.34s2.94-3.64,1.5-3.79c-3.44-.39-8-2.92-10.14-4.83A2.25,2.25,0,0,0,185.44,408.28Z" style="fill:#263238"></path><path d="M202.22,364.13c-5.48-3.47-11.89-7.55-18.18-11.58,1.35-13.29,1.23-24.29-2.66-25.14-2.45-.54-8.18-.52-15.52-.35V299.7c20.6,4.23,41.1,12.21,42.66,18.61C210.7,327.32,206.89,346.39,202.22,364.13Z" style="opacity:0.2;isolation:isolate"></path><polygon points="223.39 409.51 231.43 409.66 235.43 391.12 227.4 390.98 223.39 409.51" style="fill:#ebb376"></polygon><polygon points="227.4 390.98 235.43 391.13 233.14 401.73 225.18 401.19 227.4 390.98" style="opacity:0.2;isolation:isolate"></polygon><path d="M194.19,297l-.13-11.46-43.24-8.22s-11,29.59-4.33,42.92c6.17,12.23,71.79,4.95,81.89,7.16s-5.54,70.18-5.54,70.18l14.67,1.12s22.67-61.16,18-80.4C253.48,309.92,218.89,298.81,194.19,297Z" style="fill:#4F46E5"></path><polygon points="221.28 398.28 238.75 399.44 241.32 391.89 222.08 390.99 221.28 398.28" style="fill:#4F46E5"></polygon><polygon points="221.28 398.28 238.75 399.44 241.32 391.89 222.08 390.99 221.28 398.28" style="fill:#fff;opacity:0.2"></polygon><path d="M232.63,409.26l.17,0s.18.05.2.07,0,0,0,.06h.07a9.91,9.91,0,0,0,2.09.41,2.17,2.17,0,0,0,1.53-.3,1,1,0,0,0,.29-1,.73.73,0,0,0-.4-.56,3.33,3.33,0,0,0-2.23.41,2.83,2.83,0,0,0,.79-1.83.75.75,0,0,0-.68-.61,1.12,1.12,0,0,0-.89.21c-.84.72-1,3-1,3.13h0Zm.87-.47-.17.1a4.06,4.06,0,0,1,.68-2.46.53.53,0,0,1,.41-.15l.09,0c.27,0,.33.18.34.29A3.84,3.84,0,0,1,233.5,408.79Zm.11.4c1-.53,2.35-1.12,2.86-.88a.32.32,0,0,1,.19.27.69.69,0,0,1-.17.66C236.08,409.58,235,409.56,233.61,409.19Z" style="fill:#4F46E5"></path><path d="M232.44,408.28l-9-.56a.57.57,0,0,0-.63.5h0l-.88,7.1a1.43,1.43,0,0,0,1.31,1.51c3.14.14,4.65.05,8.61.27,2.44.14,7.23.66,10.58.34s2.94-3.64,1.5-3.79c-3.44-.39-8-2.92-10.14-4.83A2.25,2.25,0,0,0,232.44,408.28Z" style="fill:#263238"></path><path d="M216.68,230.67a11.09,11.09,0,0,1-.72.91,10.93,10.93,0,0,1-5.51,3.41,11.66,11.66,0,0,1-1.65.3,9.91,9.91,0,0,1-8.07-2.75,10.12,10.12,0,0,1-2.21-3.28c-2.22-5.14-.45-9.38,2-16.78a10.66,10.66,0,0,1,17.58-4.55C224,213.61,220.8,224.76,216.68,230.67Z" style="fill:#e4897b"></path><path d="M210.45,235a11.66,11.66,0,0,1-1.65.3,9.91,9.91,0,0,1-8.07-2.75,11.62,11.62,0,0,1,2.26-1.95A15.34,15.34,0,0,1,210.45,235Z" style="opacity:0.2;isolation:isolate"></path><path d="M188,237.5c2.3,4.64,15.68,8,15.68,8s6,.64,5.56-1.51c-3-1.79-4-3.9-3.87-6.07a10.17,10.17,0,0,1,1.11-3.8,19.37,19.37,0,0,1,1.07-1.94L199.91,220C200.73,232.54,193,235,188,237.5Z" style="fill:#e4897b"></path><path d="M221.66,207.94c-2.06-4.35-4.43-3.93-4.43-3.93-1.22-3.59-10.83-4.94-16.13-2.23s-7.8,8.73-8.1,13.72c-.44,7.28,3.16,15.18,3.16,15.18h0c5.5,2.24,10.43,1.59,11.17-1.37s4.07-4.82,4.07-4.82c2.68,1.3,5.61-1.5,5.61-1.5s3.53-2.4,3.16-6.39S223.4,211.62,221.66,207.94Z" style="fill:#263238"></path><path d="M210.63,222.38a5,5,0,0,0,1.16,4.15c1.23,1.21,3-.49,3.65-2.75.55-2,.61-5.12-1.11-5.38S210.88,220.23,210.63,222.38Z" style="fill:#e4897b"></path><path d="M205.75,200.47c7.78-4.82,18.37,7.22,20,14.68,1.35,6-5.13,7-5.13,7s3.41-1.17,1.93-5.28c0,0-.11,5.55-4.39,3.09s-2.48-11.59-2.48-11.59Z" style="fill:#263238"></path><path d="M147.24,284.29l47.89,6.2s-.08-23.22,20.76-43.52c0,0-12.86-15-32.43-11.81C183.46,235.16,161.62,246.16,147.24,284.29Z" style="fill:#263238"></path><path d="M147.24,284.29l47.89,6.2s-.08-23.22,20.76-43.52c0,0-12.86-15-32.43-11.81C183.46,235.16,161.62,246.16,147.24,284.29Z" style="fill:#fff;opacity:0.2"></path><path d="M227.51,275.53l3.75-2.08a9,9,0,0,1,1.12-2.58c.53-.49,4.38-3.57,4.88-3.54s3,4.62,3.12,5.88-3.18,3.81-4.6,4.12a6.53,6.53,0,0,1-2.67,0l-3.82,2.22Z" style="fill:#e4897b"></path><path d="M215.89,247c2.45,4.82.74,29.52,3.11,30.36s10.81-3.88,10.81-3.88l2.26,4.65s-9,7.65-15.31,8.37-11.17-30.33-11.17-30.33Z" style="fill:#263238"></path><path d="M215.89,247c2.45,4.82.74,29.52,3.11,30.36s10.81-3.88,10.81-3.88l2.26,4.65s-9,7.65-15.31,8.37-11.17-30.33-11.17-30.33Z" style="fill:#fff;opacity:0.2"></path><polygon points="149.21 288.7 169.62 291.25 170.28 288.38 149.84 285.55 149.21 288.7" style="fill:#263238"></polygon><polygon points="171.97 288.4 171.72 291.25 190.58 293.73 190.58 290.91 171.97 288.4" style="fill:#263238"></polygon><polygon points="191.75 291.06 191.75 293.73 194.49 294.07 194.49 291.5 191.75 291.06" style="fill:#263238"></polygon><polygon points="147.82 288.1 148.52 285.55 147.82 285.55 147 287.53 147.82 288.1" style="fill:#263238"></polygon><path d="M202.34,237.77s-9.49,7.65-12.79,22.94c0,0,5.26,3.32,9.88,1.53,0,0,.54-16.16,9.11-21.7C208.54,240.54,206.86,238.31,202.34,237.77Z" style="fill:#4F46E5"></path><path d="M202.34,237.77s-9.49,7.65-12.79,22.94c0,0,5.26,3.32,9.88,1.53,0,0,.54-16.16,9.11-21.7C208.54,240.54,206.86,238.31,202.34,237.77Z" style="fill:#fff;opacity:0.2"></path><path d="M188,234.73s2.64-3.29,3.72-3.29c3.91,0,13.89,2.51,16.66,5.41s2,5.29,2,5.29S197.85,236.31,188,234.73Z" style="fill:#4F46E5"></path></g></g><g id="freepik--Bench--inject-20"><path d="M140.46,327c-3,1.95-54.69-1.06-54.69-1.06-5.48-.92-5.5-14-5.36-18.4,0-.9.08-1.43.08-1.43s7.65-1.85,11.61-1.85c0,0,3.43-4.65,5-5.09s34.92-1.4,38,0a5.4,5.4,0,0,1,1.89,1.45,9.48,9.48,0,0,1,1.86,4.17s2.79,1.49,2.79,6S143.47,325,140.46,327Z" style="fill:#263238"></path><path d="M123,306.47S103,309.9,93.29,308.08a44.18,44.18,0,0,0-12.88-.57c0-.9.08-1.43.08-1.43s7.65-1.85,11.61-1.85C106.08,304.63,123,306.47,123,306.47Z" style="fill:#fff;opacity:0.2"></path><path d="M137,300.59c-3.8.06-16,3-19.61,1.53-3.83-1.58-18.07-.53-19.39-.8s-.92-2.18-.92-2.18c1.58-.45,34.92-1.4,38,0A5.4,5.4,0,0,1,137,300.59Z" style="fill:#fff;opacity:0.2"></path><path d="M129.62,307.82s3.15,2.48,3.65,5.2-.09,4.69.5,4.89,6.17-.29,6.69-1.58-.44-7.76-1.05-9.91S131.1,306.24,129.62,307.82Z" style="fill:#fff;opacity:0.2"></path><path d="M84.42,314.23s-1.88,2.18-1.58,3.72,9.29,3.82,11.47,2.93,5.24-4,5.24-4l-1.39-1.54s-4.35,3.56-5.83,3.26S84,316.88,84,316.88l1.29-2.65Z" style="fill:#fff;opacity:0.2"></path><path d="M132.83,297.09V294.3h-4.89v2.79a2.67,2.67,0,0,1-.88,2h0a2.64,2.64,0,0,0-.87,2v22.43a1.41,1.41,0,0,0,1.41,1.41h5.57a1.41,1.41,0,0,0,1.41-1.41V301a2.65,2.65,0,0,0-.88-2h0A2.69,2.69,0,0,1,132.83,297.09Z" style="fill:#4F46E5"></path><path d="M134.58,308.08v-7a2.65,2.65,0,0,0-.88-2,2.69,2.69,0,0,1-.87-2V294.3h-4.89v2.79a2.67,2.67,0,0,1-.88,2,2.64,2.64,0,0,0-.87,2v7Z" style="fill:#fff;opacity:0.6000000000000001;isolation:isolate"></path><path d="M126.19,316.88v6.59a1.41,1.41,0,0,0,1.41,1.41h5.57a1.41,1.41,0,0,0,1.41-1.41v-6.59Z" style="fill:#fff;opacity:0.6000000000000001;isolation:isolate"></path><rect x="127.5" y="293.53" width="5.77" height="2.2" rx="0.53" style="fill:#4F46E5"></rect><polygon points="74.55 322.91 71.34 322.91 54.27 246.97 57.48 246.97 74.55 322.91" style="fill:#263238"></polygon><polygon points="224.55 322.91 221.34 322.91 204.27 246.97 207.48 246.97 224.55 322.91" style="fill:#263238"></polygon><polygon points="74.55 322.91 71.34 322.91 54.27 246.97 57.48 246.97 74.55 322.91" style="fill:#fff;opacity:0.30000000000000004"></polygon><polygon points="224.55 322.91 221.34 322.91 204.27 246.97 207.48 246.97 224.55 322.91" style="fill:#fff;opacity:0.30000000000000004"></polygon><path d="M210.78,257.63H54.84a2.15,2.15,0,0,1-2-1.61L51,247.71a1.26,1.26,0,0,1,1.28-1.61H208.19a2.15,2.15,0,0,1,2,1.61l1.87,8.31A1.26,1.26,0,0,1,210.78,257.63Z" style="fill:#263238"></path><path d="M214.4,273.77H58.47a2.14,2.14,0,0,1-2-1.61l-1.87-8.31a1.26,1.26,0,0,1,1.28-1.61H211.81a2.14,2.14,0,0,1,2,1.61l1.87,8.31A1.26,1.26,0,0,1,214.4,273.77Z" style="fill:#263238"></path><path d="M218,289.9H62.1a2.16,2.16,0,0,1-2-1.6L58.23,280a1.25,1.25,0,0,1,1.28-1.6H215.44a2.15,2.15,0,0,1,2,1.6l1.87,8.32A1.25,1.25,0,0,1,218,289.9Z" style="fill:#263238"></path><path d="M210.78,257.63H54.84a2.15,2.15,0,0,1-2-1.61L51,247.71a1.26,1.26,0,0,1,1.28-1.61H208.19a2.15,2.15,0,0,1,2,1.61l1.87,8.31A1.26,1.26,0,0,1,210.78,257.63Z" style="fill:#fff;opacity:0.6000000000000001"></path><path d="M214.4,273.77H58.47a2.14,2.14,0,0,1-2-1.61l-1.87-8.31a1.26,1.26,0,0,1,1.28-1.61H211.81a2.14,2.14,0,0,1,2,1.61l1.87,8.31A1.26,1.26,0,0,1,214.4,273.77Z" style="fill:#fff;opacity:0.6000000000000001"></path><path d="M218,289.9H62.1a2.16,2.16,0,0,1-2-1.6L58.23,280a1.25,1.25,0,0,1,1.28-1.6H215.44a2.15,2.15,0,0,1,2,1.6l1.87,8.32A1.25,1.25,0,0,1,218,289.9Z" style="fill:#fff;opacity:0.6000000000000001"></path><polygon points="156.24 417.55 161.75 417.55 146.51 329.16 138.89 329.16 156.24 417.55" style="fill:#263238"></polygon><polygon points="301.24 417.55 306.75 417.55 291.51 329.16 283.89 329.16 301.24 417.55" style="fill:#263238"></polygon><polygon points="156.24 417.55 161.75 417.55 146.51 329.16 138.89 329.16 156.24 417.55" style="fill:#fff;opacity:0.2"></polygon><polygon points="301.24 417.55 306.75 417.55 291.51 329.16 283.89 329.16 301.24 417.55" style="fill:#fff;opacity:0.2"></polygon><polygon points="70.41 417.55 64.89 417.55 80.14 329.16 87.75 329.16 70.41 417.55" style="fill:#263238"></polygon><polygon points="215.41 417.55 209.89 417.55 225.14 329.16 232.75 329.16 215.41 417.55" style="fill:#263238"></polygon><polygon points="70.41 417.55 64.89 417.55 80.14 329.16 87.75 329.16 70.41 417.55" style="fill:#fff;opacity:0.30000000000000004"></polygon><polygon points="215.41 417.55 209.89 417.55 225.14 329.16 232.75 329.16 215.41 417.55" style="fill:#fff;opacity:0.30000000000000004"></polygon><path d="M74.55,327.92h222.4a0,0,0,0,1,0,0v5.72a2.38,2.38,0,0,1-2.38,2.38H76.93a2.38,2.38,0,0,1-2.38-2.38v-5.72A0,0,0,0,1,74.55,327.92Z" style="fill:#263238"></path><path d="M74.55,327.92h222.4a0,0,0,0,1,0,0v5.72a2.38,2.38,0,0,1-2.38,2.38H76.93a2.38,2.38,0,0,1-2.38-2.38v-5.72A0,0,0,0,1,74.55,327.92Z" style="fill:#fff;opacity:0.4"></path><path d="M300.41,328.92H71.08a3.21,3.21,0,0,1-3.21-3.21h0a3.21,3.21,0,0,1,3.21-3.21H300.41a3.2,3.2,0,0,1,3.21,3.21h0A3.21,3.21,0,0,1,300.41,328.92Z" style="fill:#263238"></path><path d="M300.41,328.92H71.08a3.21,3.21,0,0,1-3.21-3.21h0a3.21,3.21,0,0,1,3.21-3.21H300.41a3.2,3.2,0,0,1,3.21,3.21h0A3.21,3.21,0,0,1,300.41,328.92Z" style="fill:#fff;opacity:0.6000000000000001"></path></g></svg>