<svg xmlns="http://www.w3.org/2000/svg" viewBox="0 0 500 500"><g id="freepik--background-complete--inject-15"><rect y="382.4" width="500" height="0.25" style="fill:#ebebeb"></rect><rect x="416.78" y="398.49" width="33.12" height="0.25" style="fill:#ebebeb"></rect><rect x="322.53" y="401.21" width="8.69" height="0.25" style="fill:#ebebeb"></rect><rect x="396.59" y="389.21" width="19.19" height="0.25" style="fill:#ebebeb"></rect><rect x="52.46" y="390.89" width="43.19" height="0.25" style="fill:#ebebeb"></rect><rect x="104.56" y="390.89" width="6.33" height="0.25" style="fill:#ebebeb"></rect><rect x="131.47" y="395.11" width="93.68" height="0.25" style="fill:#ebebeb"></rect><path d="M237,337.8H43.91a5.71,5.71,0,0,1-5.7-5.71V60.66A5.71,5.71,0,0,1,43.91,55H237a5.71,5.71,0,0,1,5.71,5.71V332.09A5.71,5.71,0,0,1,237,337.8ZM43.91,55.2a5.46,5.46,0,0,0-5.45,5.46V332.09a5.46,5.46,0,0,0,5.45,5.46H237a5.47,5.47,0,0,0,5.46-5.46V60.66A5.47,5.47,0,0,0,237,55.2Z" style="fill:#ebebeb"></path><path d="M453.31,337.8H260.21a5.72,5.72,0,0,1-5.71-5.71V60.66A5.72,5.72,0,0,1,260.21,55h193.1A5.71,5.71,0,0,1,459,60.66V332.09A5.71,5.71,0,0,1,453.31,337.8ZM260.21,55.2a5.47,5.47,0,0,0-5.46,5.46V332.09a5.47,5.47,0,0,0,5.46,5.46h193.1a5.47,5.47,0,0,0,5.46-5.46V60.66a5.47,5.47,0,0,0-5.46-5.46Z" style="fill:#ebebeb"></path><polygon points="74.06 375.95 74.06 364.99 82.92 364.99 82.92 316.08 89.97 316.08 89.97 299.66 95.5 299.66 95.5 270.96 100.98 270.96 100.98 237.83 102.97 237.83 102.97 270.96 106.11 270.96 106.11 264.2 111.46 264.2 111.46 270.96 115.45 270.96 115.45 299.66 125.2 299.66 125.2 274.92 129.53 274.92 129.53 270.33 134.25 270.33 134.25 274.92 140.41 274.92 140.41 299.66 150.17 299.66 150.17 339.69 166.65 339.69 166.65 329.63 170.15 329.63 170.15 353.32 174.55 353.32 174.55 345.36 180.8 345.36 180.8 337.94 176.32 337.94 176.32 335.91 180.8 335.91 180.8 326.86 184.43 326.86 184.43 291.82 186.67 291.82 186.67 273.86 189.19 273.86 189.19 291.82 193.94 291.82 193.94 326.86 214.21 326.86 214.21 351.65 226.33 351.65 226.33 341.56 232.78 341.56 232.78 315.14 235.58 315.14 235.58 341.56 237.12 341.56 237.12 363.87 247.25 363.87 247.25 351.44 251.32 351.44 251.32 339.82 252.32 339.82 252.32 351.44 258.05 351.44 258.05 342.05 270.58 342.05 270.58 337.58 275.01 337.58 275.01 326.86 277.1 326.86 277.1 337.58 286.94 337.58 286.94 351.44 292.87 351.44 292.87 337.02 309.23 337.02 309.23 351.44 314.07 351.44 314.07 344.61 323.69 344.61 323.69 297.46 325.68 297.46 325.68 344.61 330.43 344.61 330.43 351.44 332.87 351.44 332.87 324.49 337.57 324.49 337.57 313.9 356.7 313.9 356.7 320 364.66 320 364.66 351.44 370.59 351.44 370.59 319.2 386.95 319.2 386.95 351.44 391.79 351.44 391.79 330 408.15 330 408.15 351.44 410.58 351.44 410.58 301.35 419.13 301.35 419.13 351.44 422.16 351.44 422.16 364.99 427.67 364.99 427.67 375.95 74.06 375.95" style="fill:#f5f5f5"></polygon><circle cx="139.45" cy="119.34" r="27.79" transform="translate(-29.93 190.05) rotate(-63.22)" style="fill:#ebebeb"></circle><path d="M257.32,112.36a4.81,4.81,0,0,0-6.22-4.63,10.42,10.42,0,0,0,.11-1.48A10.23,10.23,0,0,0,241,96a10.63,10.63,0,0,0-1.89.17,8.94,8.94,0,0,0-16.57,4.52h-.15a8.24,8.24,0,0,0,0,16.48h30.25A4.82,4.82,0,0,0,257.32,112.36Z" style="fill:#ebebeb"></path><path d="M409.82,256.12a4.81,4.81,0,0,0-6.22-4.62,10.45,10.45,0,0,0,.11-1.49,10.23,10.23,0,0,0-10.23-10.22,10.71,10.71,0,0,0-1.89.17A8.94,8.94,0,0,0,375,244.48h-.15a8.24,8.24,0,0,0,0,16.48h30.25A4.83,4.83,0,0,0,409.82,256.12Z" style="fill:#ebebeb"></path><path d="M336.22,162.83a4.83,4.83,0,0,0-4.83-4.83,4.92,4.92,0,0,0-1.39.21,10.45,10.45,0,0,0,.11-1.49,10.23,10.23,0,0,0-10.23-10.22,10.6,10.6,0,0,0-1.88.17,8.94,8.94,0,0,0-16.58,4.52h-.15a8.24,8.24,0,0,0,0,16.48h30.25A4.83,4.83,0,0,0,336.22,162.83Z" style="fill:#ebebeb"></path><path d="M200.1,329.75a4.8,4.8,0,0,1,6.21-4.62,10.42,10.42,0,0,1-.11-1.48,10.23,10.23,0,0,1,10.23-10.23,10.63,10.63,0,0,1,1.89.17,8.94,8.94,0,0,1,16.58,4.52H235a8.24,8.24,0,1,1,0,16.48H204.79A4.83,4.83,0,0,1,200.1,329.75Z" style="fill:#ebebeb"></path><path d="M102.22,166.73a3,3,0,0,0-3-3,3,3,0,0,0-.86.12,7,7,0,0,0,.06-.92,6.36,6.36,0,0,0-6.36-6.36,6.45,6.45,0,0,0-1.17.11,5.55,5.55,0,0,0-10.3,2.81h-.1a5.12,5.12,0,0,0,0,10.24H99.3A3,3,0,0,0,102.22,166.73Z" style="fill:#ebebeb"></path><path d="M382.67,135.29a3,3,0,0,1,3-3,3.15,3.15,0,0,1,.87.12,5.62,5.62,0,0,1-.07-.92,6.36,6.36,0,0,1,6.36-6.36,6.45,6.45,0,0,1,1.17.11,5.56,5.56,0,0,1,10.31,2.81h.09a5.12,5.12,0,1,1,0,10.24H385.59A3,3,0,0,1,382.67,135.29Z" style="fill:#ebebeb"></path><path d="M406.57,329.38c2.86-2.87,6.68-3.25,8.52-.86s1,6.66-1.82,9.53-6.67,3.25-8.52.86S403.72,332.25,406.57,329.38Z" style="fill:#e6e6e6"></path><ellipse cx="401.4" cy="324.53" rx="18.53" ry="13.63" transform="translate(-108.15 407.03) rotate(-48.15)" style="fill:#ebebeb"></ellipse><ellipse cx="431.74" cy="322.2" rx="13.16" ry="9.68" transform="translate(-96.31 428.88) rotate(-48.15)" style="fill:#e6e6e6"></ellipse><ellipse cx="437.49" cy="331.94" rx="13.16" ry="9.68" transform="translate(-101.65 436.4) rotate(-48.15)" style="fill:#ebebeb"></ellipse><path d="M414,309.16c7.27-6.87,17-7.79,21.67-2.07S438.29,323,431,329.9s-17,7.79-21.67,2.06S406.74,316,414,309.16Z" style="fill:#f0f0f0"></path><path d="M400,320.59c3.95-4,9.23-4.5,11.79-1.19s1.43,9.21-2.53,13.18-9.23,4.51-11.78,1.19S396.06,324.56,400,320.59Z" style="fill:#f0f0f0"></path><path d="M432.63,333.81c2.85-2.87,6.67-3.26,8.52-.87s1,6.66-1.83,9.53-6.67,3.26-8.52.86S429.77,336.67,432.63,333.81Z" style="fill:#f0f0f0"></path><path d="M432.33,344.57l-5,4.19c.4,5.91.73,19.51.73,19.51l1.78,9.51-15.72.14s.71-8,.71-8.47,3-15.83,3-15.83l1.07-8.62-8.11-2.22-1.48-3.85-6-3-2.91-4,1.13-.25,3.21,3.71,3.76.73L407,332.66h1.79l4.46,7.93,5.76,1.06-.75-11.13c5.54,1.57,6.07-1.28,6.07-1.28s1.9,15,2.57,16.67l3-1.34,3.22-4.57h1.43Z" style="fill:#e0e0e0"></path><path d="M342.19,329.38c2.85-2.87,6.67-3.25,8.52-.86s1,6.66-1.83,9.53-6.67,3.25-8.52.86S339.33,332.25,342.19,329.38Z" style="fill:#e6e6e6"></path><ellipse cx="337.01" cy="324.53" rx="18.53" ry="13.63" transform="translate(-129.58 359.07) rotate(-48.15)" style="fill:#ebebeb"></ellipse><ellipse cx="367.35" cy="322.2" rx="13.16" ry="9.68" transform="translate(-117.74 380.91) rotate(-48.15)" style="fill:#e6e6e6"></ellipse><path d="M366.93,324.42c5.27-5,12.3-5.64,15.71-1.49s1.9,11.56-3.36,16.53-12.3,5.65-15.71,1.5S361.66,329.4,366.93,324.42Z" style="fill:#ebebeb"></path><path d="M349.61,309.16c7.27-6.87,17-7.79,21.67-2.07s2.63,15.94-4.64,22.81-17,7.79-21.67,2.06S342.35,316,349.61,309.16Z" style="fill:#f0f0f0"></path><path d="M335.62,320.59c3.95-4,9.23-4.5,11.79-1.19s1.43,9.21-2.52,13.18-9.23,4.51-11.79,1.19S331.67,324.56,335.62,320.59Z" style="fill:#f0f0f0"></path><path d="M368.24,333.81c2.86-2.87,6.67-3.26,8.52-.87s1,6.66-1.82,9.53-6.67,3.26-8.52.86S365.38,336.67,368.24,333.81Z" style="fill:#f0f0f0"></path><path d="M367.94,344.57l-5,4.19c.4,5.91.73,19.51.73,19.51l1.78,9.51-15.72.14s.71-8,.71-8.47,3-15.83,3-15.83l1.07-8.62-8.1-2.22L345,338.93l-5.95-3-2.92-4,1.13-.25,3.22,3.71,3.75.73-1.61-3.42h1.79l4.47,7.93,5.75,1.06-.75-11.13c5.54,1.57,6.07-1.28,6.07-1.28s1.9,15,2.57,16.67l3-1.34,3.22-4.57h1.43Z" style="fill:#e0e0e0"></path><path d="M277.8,329.38c2.85-2.87,6.67-3.25,8.52-.86s1,6.66-1.82,9.53-6.68,3.25-8.53.86S274.94,332.25,277.8,329.38Z" style="fill:#e6e6e6"></path><ellipse cx="272.62" cy="324.53" rx="18.53" ry="13.63" transform="translate(-151.01 311.1) rotate(-48.15)" style="fill:#ebebeb"></ellipse><path d="M296.79,314.68c5.27-5,12.3-5.64,15.71-1.49s1.91,11.56-3.36,16.53-12.3,5.65-15.71,1.5S291.52,319.66,296.79,314.68Z" style="fill:#e6e6e6"></path><path d="M302.54,324.42c5.27-5,12.3-5.64,15.71-1.49s1.91,11.56-3.36,16.53-12.3,5.65-15.71,1.5S297.27,329.4,302.54,324.42Z" style="fill:#ebebeb"></path><path d="M285.22,309.16c7.27-6.87,17-7.79,21.67-2.07s2.63,15.94-4.64,22.81-17,7.79-21.66,2.06S278,316,285.22,309.16Z" style="fill:#f0f0f0"></path><path d="M271.23,320.59c3.95-4,9.23-4.5,11.79-1.19s1.43,9.21-2.52,13.18-9.23,4.51-11.79,1.19S267.28,324.56,271.23,320.59Z" style="fill:#f0f0f0"></path><path d="M303.85,333.81c2.86-2.87,6.67-3.26,8.52-.87s1,6.66-1.82,9.53-6.67,3.26-8.52.86S301,336.67,303.85,333.81Z" style="fill:#f0f0f0"></path><path d="M303.56,344.57l-5,4.19c.4,5.91.73,19.51.73,19.51l1.78,9.51-15.72.14s.71-8,.71-8.47,3-15.83,3-15.83l1.07-8.62-8.1-2.22-1.48-3.85-6-3-2.91-4,1.12-.25,3.22,3.71,3.75.73-1.61-3.42H280l4.47,7.93,5.75,1.06-.75-11.13c5.54,1.57,6.08-1.28,6.08-1.28s1.9,15,2.57,16.67l3-1.34,3.22-4.57h1.43Z" style="fill:#e0e0e0"></path></g><g id="freepik--Shadow--inject-15"><ellipse id="freepik--path--inject-15" cx="250" cy="416.24" rx="193.89" ry="11.32" style="fill:#f5f5f5"></ellipse></g><g id="freepik--eiffel-tower--inject-15"><path d="M263.88,379.13c-.24-.26-19.67-21.67-43.83-64.8v-9.64h-5.27c-.78-1.45-1.55-2.91-2.33-4.4h2.93a1,1,0,0,0,0-2.06h-4q-4.58-8.81-9.26-18.56c-5.42-11.36-9.81-24.53-13.37-38.44h.8a1.08,1.08,0,0,0,1.09-1.08v-1.29a1.08,1.08,0,0,0-1.09-1.08h-1.67c-14.42-59.08-14.3-129.61-14.29-130.49a1.41,1.41,0,0,0-.42-1,.27.27,0,0,0-.08-.07h1.13a1,1,0,0,0,1-1v-2.43a1,1,0,0,0-1-1h-2.08v-1.78a1.16,1.16,0,0,0,0-.18V97.77a1,1,0,0,0-1-1H167.4v-.56h1.48L168.16,95a.76.76,0,0,0-.67-.38h-.09V79.14a1.42,1.42,0,0,0-2.84,0V94.58h-.09a.78.78,0,0,0-.67.38l-.72,1.21h1.48v.56h-3.72a1,1,0,0,0-1,1V99.9a1.13,1.13,0,0,0,0,.18v1.78h-2.08a1,1,0,0,0-1,1v2.43a1,1,0,0,0,1,1h1.13l-.08.07a1.4,1.4,0,0,0-.41,1c0,.88.12,71.41-14.3,130.49h-1.67a1.08,1.08,0,0,0-1.09,1.08v1.29a1.08,1.08,0,0,0,1.09,1.08h.81c-3.56,13.91-8,27.08-13.38,38.44q-4.66,9.76-9.26,18.56h-4a1,1,0,1,0,0,2.06h2.93c-.78,1.49-1.56,2.95-2.33,4.4h-5.28v9.64c-24.16,43.13-43.58,64.54-43.82,64.8a1.42,1.42,0,0,0,1,2.38h32.1a1.41,1.41,0,0,0,1.15-.6c.22-.31,12.4-17.37,25.2-40a59.77,59.77,0,0,1,76.81,0c12.8,22.65,25,39.71,25.19,40a1.42,1.42,0,0,0,1.16.6h32.09a1.44,1.44,0,0,0,1.3-.85A1.41,1.41,0,0,0,263.88,379.13Zm-115.66-80.9a160.93,160.93,0,0,0,6.27-19.64c1.72-7.06,3.19-14.88,4.47-23.18h14c1.27,8.3,2.75,16.12,4.46,23.18a162.79,162.79,0,0,0,6.28,19.64Z" style="fill:#407BFF"></path><path d="M263.88,379.13c-.24-.26-19.67-21.67-43.83-64.8v-9.64h-5.27c-.78-1.45-1.55-2.91-2.33-4.4h2.93a1,1,0,0,0,0-2.06h-4q-4.58-8.81-9.26-18.56c-5.42-11.36-9.81-24.53-13.37-38.44h.8a1.08,1.08,0,0,0,1.09-1.08v-1.29a1.08,1.08,0,0,0-1.09-1.08h-1.67c-14.42-59.08-14.3-129.61-14.29-130.49a1.41,1.41,0,0,0-.42-1,.27.27,0,0,0-.08-.07h1.13a1,1,0,0,0,1-1v-2.43a1,1,0,0,0-1-1h-2.08v-1.78a1.16,1.16,0,0,0,0-.18V97.77a1,1,0,0,0-1-1H167.4v-.56h1.48L168.16,95a.76.76,0,0,0-.67-.38h-.09V79.14a1.42,1.42,0,0,0-2.84,0V94.58h-.09a.78.78,0,0,0-.67.38l-.72,1.21h1.48v.56h-3.72a1,1,0,0,0-1,1V99.9a1.13,1.13,0,0,0,0,.18v1.78h-2.08a1,1,0,0,0-1,1v2.43a1,1,0,0,0,1,1h1.13l-.08.07a1.4,1.4,0,0,0-.41,1c0,.88.12,71.41-14.3,130.49h-1.67a1.08,1.08,0,0,0-1.09,1.08v1.29a1.08,1.08,0,0,0,1.09,1.08h.81c-3.56,13.91-8,27.08-13.38,38.44q-4.66,9.76-9.26,18.56h-4a1,1,0,1,0,0,2.06h2.93c-.78,1.49-1.56,2.95-2.33,4.4h-5.28v9.64c-24.16,43.13-43.58,64.54-43.82,64.8a1.42,1.42,0,0,0,1,2.38h32.1a1.41,1.41,0,0,0,1.15-.6c.22-.31,12.4-17.37,25.2-40a59.77,59.77,0,0,1,76.81,0c12.8,22.65,25,39.71,25.19,40a1.42,1.42,0,0,0,1.16.6h32.09a1.44,1.44,0,0,0,1.3-.85A1.41,1.41,0,0,0,263.88,379.13Zm-115.66-80.9a160.93,160.93,0,0,0,6.27-19.64c1.72-7.06,3.19-14.88,4.47-23.18h14c1.27,8.3,2.75,16.12,4.46,23.18a162.79,162.79,0,0,0,6.28,19.64Z" style="fill:#fff;opacity:0.4;isolation:isolate"></path><path d="M438.66,374.3H61.34a6.9,6.9,0,0,0-6.4,4.33l-1.26,3.11H446.32l-1.26-3.11A6.9,6.9,0,0,0,438.66,374.3Z" style="fill:#407BFF"></path><path d="M438.66,374.3H61.34a6.9,6.9,0,0,0-6.4,4.33l-1.26,3.11H446.32l-1.26-3.11A6.9,6.9,0,0,0,438.66,374.3Z" style="fill:#fff;opacity:0.5"></path><path d="M68.1,415.21H89.46L87.21,413s2.5-5.58,2.25-7.85-6.31,5.33-6.31,5.33,2.21-13.21-2-14.36-2.36,14.36-2.36,14.36-3.83-5.72-5.41-5.87.79,8.22.79,8.22S69.94,412.91,68.1,415.21Z" style="fill:#407BFF"></path><path d="M139.64,415.21H151.9a11.63,11.63,0,0,0-4.35-1.26s2.57-3.25,1.39-4.4-3.17,2.83-3.17,2.83.13-5.75-1.61-6.25-1.95,6.86-1.95,6.86-2.37-3.2-3.56-1.22S139.64,415.21,139.64,415.21Z" style="fill:#407BFF"></path><path d="M68.1,415.21H89.46L87.21,413s2.5-5.58,2.25-7.85-6.31,5.33-6.31,5.33,2.21-13.21-2-14.36-2.36,14.36-2.36,14.36-3.83-5.72-5.41-5.87.79,8.22.79,8.22S69.94,412.91,68.1,415.21Z" style="fill:#fff;opacity:0.6000000000000001"></path><path d="M139.64,415.21H151.9a11.63,11.63,0,0,0-4.35-1.26s2.57-3.25,1.39-4.4-3.17,2.83-3.17,2.83.13-5.75-1.61-6.25-1.95,6.86-1.95,6.86-2.37-3.2-3.56-1.22S139.64,415.21,139.64,415.21Z" style="fill:#fff;opacity:0.7000000000000001"></path><path d="M339.48,415.21H318.12l2.24-2.22s-2.5-5.58-2.24-7.85,6.31,5.33,6.31,5.33-2.21-13.21,2-14.36,2.36,14.36,2.36,14.36,3.82-5.72,5.41-5.87-.8,8.22-.8,8.22S337.63,412.91,339.48,415.21Z" style="fill:#407BFF"></path><path d="M339.48,415.21H318.12l2.24-2.22s-2.5-5.58-2.24-7.85,6.31,5.33,6.31,5.33-2.21-13.21,2-14.36,2.36,14.36,2.36,14.36,3.82-5.72,5.41-5.87-.8,8.22-.8,8.22S337.63,412.91,339.48,415.21Z" style="fill:#fff;opacity:0.6000000000000001"></path><path d="M419.64,415.21H431.9a11.63,11.63,0,0,0-4.35-1.26s2.57-3.25,1.39-4.4-3.17,2.83-3.17,2.83.13-5.75-1.61-6.25-2,6.86-2,6.86-2.37-3.2-3.56-1.22S419.64,415.21,419.64,415.21Z" style="fill:#407BFF"></path><path d="M419.64,415.21H431.9a11.63,11.63,0,0,0-4.35-1.26s2.57-3.25,1.39-4.4-3.17,2.83-3.17,2.83.13-5.75-1.61-6.25-2,6.86-2,6.86-2.37-3.2-3.56-1.22S419.64,415.21,419.64,415.21Z" style="fill:#fff;opacity:0.7000000000000001"></path><path d="M175.53,220.73l-4-3.52q.3,3.73.66,7.45Z" style="fill:#407BFF"></path><polygon points="171.46 214.13 175.07 214.13 174.66 210.67 171.46 214.13" style="fill:#407BFF"></polygon><path d="M174,204.81h-3l3.32,2.85-.1-.84C174.11,206.15,174.05,205.48,174,204.81Z" style="fill:#407BFF"></path><path d="M176.44,193.41l-2.16-2,.18,2Z" style="fill:#407BFF"></path><path d="M173.74,185.47l.15,1.7,1.56-1.7Z" style="fill:#407BFF"></path><polygon points="169.85 244.42 162.11 244.42 165.98 247.24 169.85 244.42" style="fill:#407BFF"></polygon><path d="M171.6,245.49l-4,2.92,4.9,3.58C172.18,249.85,171.89,247.68,171.6,245.49Z" style="fill:#407BFF"></path><polygon points="165.98 249.59 160.59 253.52 171.38 253.52 165.98 249.59" style="fill:#407BFF"></polygon><path d="M170.24,160.86l-1.78-2c0,1.37.07,2.76.11,4.16Z" style="fill:#407BFF"></path><path d="M170.68,203.39h3.15c-.11-1-.22-2-.32-3.07Z" style="fill:#407BFF"></path><path d="M169.36,183.83c0,.08,0,.15,0,.22H172c-.08-1-.17-2-.25-3.06Z" style="fill:#407BFF"></path><path d="M169,175.75c0,.11,0,.22,0,.33l2.57,2.56c-.07-1-.14-1.93-.2-2.89Z" style="fill:#407BFF"></path><path d="M174,209.28l-3.33-2.87q.2,3,.44,6Z" style="fill:#407BFF"></path><path d="M169.08,177.47c.07,1.65.14,3.31.22,5l2.18-2.58Z" style="fill:#407BFF"></path><path d="M170.32,194.83l2.9,2.56c-.09-.85-.17-1.71-.25-2.56Z" style="fill:#407BFF"></path><path d="M170.06,193.41h2.76l-.24-2.74Z" style="fill:#407BFF"></path><path d="M169.79,185.47l2.55,2.3c-.07-.76-.13-1.53-.19-2.3Z" style="fill:#407BFF"></path><path d="M169.52,187.14c.07,1.49.15,3,.23,4.51l2.16-2.34Z" style="fill:#407BFF"></path><path d="M156.43,220.73l3.39,3.93q.35-3.72.66-7.45Z" style="fill:#407BFF"></path><path d="M170.46,236c-.24-2.19-.48-4.39-.7-6.61l-2.8,2.94Z" style="fill:#407BFF"></path><path d="M170,196.46c.1,1.73.21,3.46.32,5.2l2.5-2.71Z" style="fill:#407BFF"></path><path d="M163.39,163q.06-2.11.12-4.17l-1.79,2Z" style="fill:#407BFF"></path><path d="M164.38,248.41l-4-2.92q-.42,3.28-.89,6.5Z" style="fill:#407BFF"></path><path d="M173.07,227.86l4.36,3.25c-.16-1.09-.32-2.17-.47-3.25Z" style="fill:#407BFF"></path><path d="M172.48,226.44h4.27c-.08-.54-.15-1.08-.24-1.62-.12-.87-.25-1.74-.38-2.61Z" style="fill:#407BFF"></path><polygon points="176.5 211.43 176.84 214.13 179.64 214.13 176.5 211.43" style="fill:#407BFF"></polygon><path d="M171.07,241.23H160.9c-.05.44-.11.87-.16,1.3h10.49C171.17,242.1,171.12,241.67,171.07,241.23Z" style="fill:#407BFF"></path><path d="M161.62,201.66c.11-1.74.22-3.47.32-5.2L159.12,199Z" style="fill:#407BFF"></path><polygon points="170.18 237.78 165.98 233.37 161.79 237.78 170.18 237.78" style="fill:#407BFF"></polygon><path d="M158,209.28l2.9,3.14q.22-3,.44-6Z" style="fill:#407BFF"></path><path d="M162.21,191.65c.08-1.51.16-3,.23-4.51l-2.39,2.17Z" style="fill:#407BFF"></path><path d="M161.5,236l3.5-3.67-2.8-2.94Q161.87,232.74,161.5,236Z" style="fill:#407BFF"></path><polygon points="162.69 227.86 165.98 231.32 169.28 227.86 162.69 227.86" style="fill:#407BFF"></polygon><path d="M166,221.45l-3.47,4.85v.14h7v-.14Z" style="fill:#407BFF"></path><path d="M160.48,179.87l2.19,2.58c.07-1.67.15-3.33.21-5Z" style="fill:#407BFF"></path><path d="M146.15,269.25c-.4,1.24-.8,2.47-1.19,3.7l7.08-4.32h-5.7C146.28,268.84,146.22,269.05,146.15,269.25Z" style="fill:#407BFF"></path><path d="M154.38,265.46q.8-4.27,1.51-8.76l-6.58,4.11Z" style="fill:#407BFF"></path><path d="M151.73,277.92q.95-3.84,1.78-8L145,275.13l5.86,6.06C151.18,280.09,151.47,279,151.73,277.92Z" style="fill:#407BFF"></path><path d="M141.77,282.49h7.74l-5.73-5.93C143.13,278.54,142.47,280.52,141.77,282.49Z" style="fill:#407BFF"></path><path d="M144.73,266.74c.36-1.24.69-2.47,1-3.71l-5.93,3.71Z" style="fill:#407BFF"></path><polygon points="150.25 253.52 154.97 253.52 150.95 250.32 150.66 251.63 150.25 253.52" style="fill:#407BFF"></polygon><path d="M156.55,252.36q.49-3.33.94-6.74l-5.35,3.23Z" style="fill:#407BFF"></path><polygon points="152.11 244.97 151.69 246.91 155.81 244.42 152.21 244.42 152.11 244.97" style="fill:#407BFF"></polygon><polygon points="151.46 237.78 152.01 234.75 147.96 237.78 151.46 237.78" style="fill:#407BFF"></polygon><path d="M193.24,284.38c.17.43.32.87.5,1.31.4,1.13.84,2.26,1.28,3.39l5-4.7Z" style="fill:#407BFF"></path><path d="M193,291l-10.64-5.43c1.18,3.84,2.54,7.75,4.06,11.68Z" style="fill:#407BFF"></path><path d="M188.11,298.23h8.23q-1.17-2.79-2.31-5.61Z" style="fill:#407BFF"></path><path d="M140.28,286.46c-.25.72-.53,1.44-.8,2.16l8.32-4.24h-6.74C140.8,285.07,140.55,285.77,140.28,286.46Z" style="fill:#407BFF"></path><path d="M172.59,229.27c.25,2.48.52,5,.79,7.4l3.92-3.89Z" style="fill:#407BFF"></path><path d="M139.44,282.49q.93-2.52,1.8-5.05L133,282.49Z" style="fill:#407BFF"></path><path d="M149.62,285.57,139,291l6.59,6.25C147.07,293.32,148.44,289.41,149.62,285.57Z" style="fill:#407BFF"></path><path d="M189.94,274.74l9.44,5.77q-2.44-5.16-4.62-10.76Z" style="fill:#407BFF"></path><path d="M158.14,203.39h3.15l-2.84-3.07C158.35,201.34,158.24,202.37,158.14,203.39Z" style="fill:#407BFF"></path><path d="M157.67,207.66l3.32-2.85h-3c-.07.67-.14,1.34-.22,2Z" style="fill:#407BFF"></path><path d="M158.74,197.39l2.91-2.56H159C158.92,195.68,158.83,196.54,158.74,197.39Z" style="fill:#407BFF"></path><path d="M158.08,187.17l.15-1.7h-1.72Z" style="fill:#407BFF"></path><path d="M159.14,193.41h2.76l-2.52-2.74C159.3,191.58,159.23,192.5,159.14,193.41Z" style="fill:#407BFF"></path><path d="M160.37,178.64l2.57-2.56c0-.11,0-.22,0-.33h-2.38C160.5,176.71,160.44,177.68,160.37,178.64Z" style="fill:#407BFF"></path><path d="M159.63,187.77l2.54-2.3h-2.35C159.76,186.24,159.69,187,159.63,187.77Z" style="fill:#407BFF"></path><path d="M159.93,184.05h2.66a1.55,1.55,0,0,0,0-.22L160.19,181C160.1,182,160,183,159.93,184.05Z" style="fill:#407BFF"></path><path d="M155.45,224.82l-.24,1.62h4.27l-3.65-4.23C155.7,223.08,155.58,224,155.45,224.82Z" style="fill:#407BFF"></path><path d="M158.89,227.86H155c-.16,1.08-.31,2.16-.48,3.25Z" style="fill:#407BFF"></path><path d="M187.8,268.64c.47,1.38.92,2.77,1.38,4.16l4-4.17H187.8Z" style="fill:#407BFF"></path><polygon points="153.38 237.78 157.68 237.78 154.03 234.15 153.38 237.78" style="fill:#407BFF"></polygon><path d="M158.58,236.67c.28-2.44.54-4.92.79-7.4l-4.71,3.51Z" style="fill:#407BFF"></path><polygon points="155.12 214.13 155.46 211.43 152.32 214.13 155.12 214.13" style="fill:#407BFF"></polygon><polygon points="156.89 214.13 160.5 214.13 157.31 210.67 156.89 214.13" style="fill:#407BFF"></polygon><path d="M152.54,242.53h5.34c.06-.43.11-.86.16-1.3h-5.27Z" style="fill:#407BFF"></path><path d="M157.5,193.41c.06-.65.12-1.31.19-2l-2.17,2Z" style="fill:#407BFF"></path><path d="M144.36,300.29h-9.6l-1.27,3-.63,1.37h9.68C143.17,303.22,143.77,301.75,144.36,300.29Z" style="fill:#407BFF"></path><path d="M120.77,323.82c.92-1.73,1.86-3.45,2.75-5.18.58-1.09,1.13-2.18,1.68-3.28H115Z" style="fill:#407BFF"></path><path d="M160.1,160.32l-1.22-1.58c-.12,1.42-.24,2.85-.37,4.31l1.53-1.72Z" style="fill:#407BFF"></path><path d="M124.78,298.23h8.38q1.16-2.72,2.29-5.43Z" style="fill:#407BFF"></path><path d="M127.86,315.36q-1.06,2.2-2.19,4.37c-.47.92-1,1.83-1.44,2.74l13-7.11Z" style="fill:#407BFF"></path><polygon points="154.44 323.25 160.24 323.25 160.24 314.42 160.24 314.42 154.44 314.42 154.44 314.42 154.44 323.25" style="fill:#407BFF"></polygon><path d="M212.59,325.13,228,333.59c-3.14-5.13-6.42-10.7-9.79-16.68Z" style="fill:#407BFF"></path><polygon points="171.72 323.25 177.53 323.25 177.53 314.42 177.53 314.42 171.72 314.42 171.72 314.42 171.72 323.25" style="fill:#407BFF"></polygon><path d="M184.55,300.29H147.41q-.87,2.19-1.79,4.4h40.73Q185.42,302.49,184.55,300.29Z" style="fill:#407BFF"></path><path d="M163.07,172.75c.06-1.62.11-3.22.17-4.81l-2.09,2.31Z" style="fill:#407BFF"></path><path d="M154.09,203.39h2.35c.08-.77.17-1.53.25-2.29Z" style="fill:#407BFF"></path><path d="M163.64,153.58c0-1.41.05-2.79.08-4.16l-1.55,2Z" style="fill:#407BFF"></path><path d="M163.57,214.13h4.83l0-.26-2.4-3.71-2.39,3.71Z" style="fill:#407BFF"></path><path d="M189.42,304.69h9.68l-.63-1.37c-.42-1-.84-2-1.27-3h-9.6Q188.49,302.48,189.42,304.69Z" style="fill:#407BFF"></path><path d="M171.92,161.33l1.53,1.72c-.13-1.46-.25-2.89-.36-4.31l-1.22,1.58C171.89,160.65,171.9,161,171.92,161.33Z" style="fill:#407BFF"></path><path d="M207.18,298.23l-10.66-5.43q1.13,2.71,2.29,5.43Z" style="fill:#407BFF"></path><path d="M156.72,215.55l0,.28c-.12,1-.27,2.1-.41,3.16l3.95-3.44Z" style="fill:#407BFF"></path><path d="M165.11,220.23l-1.83-2.55q-.24,2.91-.51,5.82Z" style="fill:#407BFF"></path><path d="M167,193.64l-.09-1.59-1-2-.95,2-.09,1.59Z" style="fill:#407BFF"></path><path d="M232.8,378.67h11.51q-3.26-3.92-6.29-7.95Z" style="fill:#407BFF"></path><path d="M257.67,378.67l-15.89-7.6c2,2.59,4.09,5.14,6.22,7.6Z" style="fill:#407BFF"></path><path d="M165.83,174.8h.31c-.06-1.41-.11-2.82-.16-4.21C165.93,172,165.88,173.39,165.83,174.8Z" style="fill:#407BFF"></path><path d="M165.79,175.75c-.11,2.81-.24,5.66-.37,8.54h1.13q-.21-4.32-.37-8.54Z" style="fill:#407BFF"></path><path d="M166.75,188.42l-.24.51.3.63Z" style="fill:#407BFF"></path><path d="M166.65,186.42l-.06-1.19h-1.22c0,.4,0,.79-.05,1.19l.66,1.4Z" style="fill:#407BFF"></path><path d="M232.57,358.61l1.66,2.38,2.67,3.64,1.52,2,5.28-8.06Z" style="fill:#407BFF"></path><path d="M225.37,346.5l16.36,8.23c-3.25-4.72-6.8-10.08-10.57-16.09Z" style="fill:#407BFF"></path><path d="M241.47,356.72,226.06,349l.54.86c1.55,2.3,3.06,4.63,4.66,6.9Z" style="fill:#407BFF"></path><path d="M232,362.56l-2.58-3.74-.14-.21h-9.19L234,365.23Z" style="fill:#407BFF"></path><path d="M223.81,345.42l5.83-7.9H219Q221.32,341.51,223.81,345.42Z" style="fill:#407BFF"></path><path d="M216.34,355.55l5.81-7.88-.61-1-14.85-7.48C210,345.1,213.29,350.61,216.34,355.55Z" style="fill:#407BFF"></path><path d="M213.27,327.67q2.22,4,4.54,8h10Z" style="fill:#407BFF"></path><path d="M224.41,351.25c-.4-.62-.78-1.25-1.17-1.86l-5.42,7.33H228C226.81,354.91,225.61,353.07,224.41,351.25Z" style="fill:#407BFF"></path><path d="M219.59,343.59c-1.22-2-2.41-4-3.59-6.07h-8.46Z" style="fill:#407BFF"></path><path d="M164.08,207.22c-.09,1.23-.17,2.46-.27,3.69l1.33-2Z" style="fill:#407BFF"></path><path d="M192.49,288.62c-.27-.72-.55-1.44-.81-2.16s-.52-1.39-.77-2.08h-6.74Z" style="fill:#407BFF"></path><path d="M199,282.49l-8.26-5.05q.86,2.54,1.79,5.05Z" style="fill:#407BFF"></path><path d="M177.87,203.39l-2.59-2.29c.08.76.17,1.52.25,2.29Z" style="fill:#407BFF"></path><path d="M182.46,282.49h7.74q-1-3-2-5.93Z" style="fill:#407BFF"></path><path d="M185.63,268.63h-5.71L187,273l-1.2-3.7Z" style="fill:#407BFF"></path><path d="M166.85,220.23l2.34,3.27q-.25-2.91-.5-5.82Z" style="fill:#407BFF"></path><path d="M171.74,215.55l3.95,3.44c-.15-1.06-.29-2.11-.41-3.16l0-.28Z" style="fill:#407BFF"></path><path d="M168.73,167.94c.05,1.59.11,3.19.17,4.81l1.92-2.5Z" style="fill:#407BFF"></path><polygon points="174.29 237.78 178.58 237.78 177.94 234.15 174.29 237.78" style="fill:#407BFF"></polygon><polygon points="179.76 244.42 176.15 244.42 180.28 246.91 179.86 244.97 179.76 244.42" style="fill:#407BFF"></polygon><polygon points="179.95 234.75 180.51 237.78 184.01 237.78 179.95 234.75" style="fill:#407BFF"></polygon><path d="M173.92,241.23c.05.44.11.87.16,1.3h5.34l-.23-1.3Z" style="fill:#407BFF"></path><polygon points="165.98 219.01 168.47 215.55 163.5 215.55 165.98 219.01" style="fill:#407BFF"></polygon><path d="M182.65,260.81l-6.57-4.11q.71,4.49,1.5,8.76Z" style="fill:#407BFF"></path><path d="M180.23,277.92c.26,1.08.55,2.17.85,3.27l5.85-6.06L178.46,270Q179.3,274.08,180.23,277.92Z" style="fill:#407BFF"></path><path d="M192.14,266.74,186.21,263c.33,1.24.67,2.47,1,3.71Z" style="fill:#407BFF"></path><path d="M174.48,245.62q.44,3.4.93,6.74l4.41-3.51Z" style="fill:#407BFF"></path><polygon points="181.3 251.63 181.02 250.32 176.99 253.52 181.71 253.52 181.3 251.63" style="fill:#407BFF"></polygon><path d="M163,119.82l1,1.6c0-1.28,0-2.5,0-3.63l-1,1.69Z" style="fill:#407BFF"></path><path d="M168.24,149.42c0,1.37.06,2.75.09,4.16l1.47-2.15Z" style="fill:#407BFF"></path><path d="M168,115.92l.93,1.61,0-2H168Z" style="fill:#407BFF"></path><path d="M163.94,132.87q0-2.37,0-4.56l-1.17,2.17Z" style="fill:#407BFF"></path><path d="M162.81,128.46,164,126.3v-1.19H162.9Z" style="fill:#407BFF"></path><path d="M162.51,141.45l1.31,2.12q0-2.12.06-4.14Z" style="fill:#407BFF"></path><path d="M163,117.53l.94-1.61v-.42h-.9Z" style="fill:#407BFF"></path><path d="M163.1,108.7c0,2,0,3.9,0,5.86H164c0-2.65,0-4.64-.06-5.86Z" style="fill:#407BFF"></path><path d="M162.91,124.16H164v-.94l-1-1.65C162.94,122.44,162.93,123.3,162.91,124.16Z" style="fill:#407BFF"></path><path d="M169.17,130.48,168,128.31c0,1.46,0,3,0,4.56Z" style="fill:#407BFF"></path><path d="M166.83,208.86l1.32,2-.27-3.69Z" style="fill:#407BFF"></path><path d="M168.08,108.7c0,1.22,0,3.21-.06,5.86h.89c0-2,0-3.91,0-5.86Z" style="fill:#407BFF"></path><path d="M168.09,139.43c0,1.35,0,2.73,0,4.14l1.31-2.12Z" style="fill:#407BFF"></path><path d="M168,125.11v1.19l1.16,2.16c0-1.12-.06-2.23-.08-3.35Z" style="fill:#407BFF"></path><path d="M168,121.42l1-1.6c0-.11,0-.23,0-.34l-1-1.69C168,118.92,168,120.14,168,121.42Z" style="fill:#407BFF"></path><path d="M168,124.16h1.06c0-.86,0-1.72,0-2.59l-1,1.65Z" style="fill:#407BFF"></path><path d="M165.16,189.56l.3-.63-.24-.51Z" style="fill:#407BFF"></path><path d="M158.21,166.44l1.37,1.78.15-2.2h-1.48C158.23,166.16,158.22,166.3,158.21,166.44Z" style="fill:#407BFF"></path><path d="M142.78,272.8l1.38-4.16h-5.41Z" style="fill:#407BFF"></path><path d="M136.94,289.08c.44-1.13.88-2.26,1.29-3.39.17-.44.33-.88.5-1.31H132Z" style="fill:#407BFF"></path><path d="M139,265.05l7.25-4.53-4.37-4C140.91,259.41,140,262.26,139,265.05Z" style="fill:#407BFF"></path><path d="M147,258.65c.28-1,.57-2,.79-3l0-.19h-4.36Z" style="fill:#407BFF"></path><path d="M143.85,298.23l-5.92-5.61q-1.12,2.82-2.31,5.61Z" style="fill:#407BFF"></path><path d="M146.89,266.74H153l-4.89-4.49C147.69,263.75,147.3,265.24,146.89,266.74Z" style="fill:#407BFF"></path><path d="M149.84,255.41l-.14.66c-.18.9-.42,1.8-.67,2.69l5.35-3.35Z" style="fill:#407BFF"></path><polygon points="148.21 253.52 148.73 251.2 148.81 250.86 144.4 253.52 148.21 253.52" style="fill:#407BFF"></polygon><path d="M206.3,319.73q-1.14-2.16-2.2-4.37h-9.35l13,7.11C207.26,321.56,206.76,320.65,206.3,319.73Z" style="fill:#407BFF"></path><path d="M143,314.42h-1.11a1,1,0,0,1-.49.83l-.6.33q-1.83,3.87-3.74,7.67H143Z" style="fill:#407BFF"></path><path d="M211.19,323.82l5.83-8.46H206.76c.55,1.1,1.11,2.19,1.68,3.28C209.34,320.37,210.27,322.09,211.19,323.82Z" style="fill:#407BFF"></path><path d="M196.39,326.08H181.61A64.47,64.47,0,0,1,201,334.73C199.43,331.91,197.89,329,196.39,326.08Z" style="fill:#407BFF"></path><path d="M190.6,315.25a.94.94,0,0,1-.48-.83H189v8.83H195q-1.92-3.79-3.74-7.67Z" style="fill:#407BFF"></path><polygon points="186.17 314.42 186.17 314.42 180.37 314.42 180.37 314.42 180.37 323.25 186.17 323.25 186.17 314.42" style="fill:#407BFF"></polygon><path d="M131,334.73a64.47,64.47,0,0,1,19.35-8.65H135.58Q133.32,330.49,131,334.73Z" style="fill:#407BFF"></path><polygon points="151.6 314.42 151.6 314.42 145.79 314.42 145.79 314.42 145.79 323.25 151.6 323.25 151.6 314.42" style="fill:#407BFF"></polygon><path d="M145.81,242.53h4.77l0-.16.21-1.14h-4.68Z" style="fill:#407BFF"></path><path d="M156.53,182.46l2.15-2.14c0-.24,0-.47.07-.71s0-.2,0-.3l-1.66-2C156.93,179,156.73,180.75,156.53,182.46Z" style="fill:#407BFF"></path><path d="M155.39,191.61l2.49-2.25,0-.29L156,187C155.79,188.52,155.6,190.06,155.39,191.61Z" style="fill:#407BFF"></path><path d="M156.34,184.05h2c.07-.75.14-1.51.2-2.26l-2.2,2.19Z" style="fill:#407BFF"></path><polygon points="149.71 246.79 150.21 244.59 150.24 244.42 146.58 244.42 149.69 246.9 149.71 246.79" style="fill:#407BFF"></polygon><path d="M154,201.6l2.94-2.59,0-.32-2.19-2.38Q154.38,199,154,201.6Z" style="fill:#407BFF"></path><path d="M157.59,172.78l1.82-2c0-.38.05-.75.08-1.12l-1.41-1.83C157.92,169.46,157.76,171.11,157.59,172.78Z" style="fill:#407BFF"></path><path d="M157.25,176.06l1.62,1.91c.06-.74.11-1.48.17-2.22h-1.76Z" style="fill:#407BFF"></path><path d="M157.38,174.8h1.73l.18-2.5-1.86,2.07C157.41,174.51,157.4,174.66,157.38,174.8Z" style="fill:#407BFF"></path><path d="M157.14,196.81l.21-2h-2Z" style="fill:#407BFF"></path><path d="M147.3,236.49l5.08-3.78,0-.18L149,229.12Q148.18,232.83,147.3,236.49Z" style="fill:#407BFF"></path><path d="M152.7,230.82l.45-3h-3.43Z" style="fill:#407BFF"></path><path d="M153.36,226.44c.1-.63.19-1.26.29-1.89s.16-1.07.25-1.6l-4,3.49Z" style="fill:#407BFF"></path><path d="M199.68,300.29l.9,2.1c.36.76.71,1.53,1.07,2.3h9.91c-.77-1.45-1.54-2.91-2.32-4.4Z" style="fill:#407BFF"></path><path d="M149.94,224.51l4.29-3.73c0-.12,0-.25.05-.37l-2.9-3.36C150.92,219.55,150.44,222,149.94,224.51Z" style="fill:#407BFF"></path><path d="M152.23,212.34l3.5-3,0-.33-2.52-2.74Q152.76,209.29,152.23,212.34Z" style="fill:#407BFF"></path><path d="M154.54,218.54c.14-1,.28-2,.39-2.94v0h-3Z" style="fill:#407BFF"></path><path d="M156,207.16l.06-.54c.08-.6.14-1.21.21-1.81h-2.44Z" style="fill:#407BFF"></path><path d="M132.59,280.51l9.44-5.77-4.82-5Q135,275.35,132.59,280.51Z" style="fill:#407BFF"></path><path d="M86.74,359.74c-5.59,7.88-10.07,13.57-12.95,17.07L92.17,368Z" style="fill:#407BFF"></path><path d="M196.24,290.53,207,296q-2.64-5.19-5.33-10.69Z" style="fill:#407BFF"></path><path d="M125.28,339.21l-14.86,7.48-.61,1,5.82,7.88C118.67,350.61,122,345.1,125.28,339.21Z" style="fill:#407BFF"></path><path d="M90.24,354.73l16.36-8.23-5.8-7.86C97,344.65,93.49,350,90.24,354.73Z" style="fill:#407BFF"></path><path d="M108.73,349.39c-.4.61-.77,1.24-1.17,1.86-1.21,1.82-2.4,3.66-3.62,5.47h10.2Z" style="fill:#407BFF"></path><path d="M113,337.52H102.32l5.84,7.9Q110.64,341.51,113,337.52Z" style="fill:#407BFF"></path><path d="M105.36,349.82c.19-.29.36-.57.54-.86l-15.41,7.76h10.22C102.31,354.45,103.82,352.12,105.36,349.82Z" style="fill:#407BFF"></path><path d="M102.66,358.61l-.14.21-2.59,3.74L98,365.23l13.83-6.62Z" style="fill:#407BFF"></path><path d="M104.15,335.63h10q2.32-3.94,4.54-8Z" style="fill:#407BFF"></path><path d="M209.32,325.5l-13.86-7.59c2.74,5.62,5.61,11.13,8.5,16.41l5.67-8.23Z" style="fill:#407BFF"></path><path d="M95.64,368.46l-.49.65L101,378c1.8-2.59,6.17-9,11.67-17.66Z" style="fill:#407BFF"></path><path d="M236.81,369.11l-.48-.65-17-8.14c5.5,8.71,9.86,15.07,11.67,17.66Z" style="fill:#407BFF"></path><path d="M239.79,368l18.39,8.79c-2.88-3.5-7.36-9.19-13-17.07Z" style="fill:#407BFF"></path><path d="M210.62,328l-5.27,7.65h9.54Q212.7,331.84,210.62,328Z" style="fill:#407BFF"></path><polygon points="168.88 314.42 168.88 314.42 163.08 314.42 163.08 314.42 163.08 323.25 168.88 323.25 168.88 314.42" style="fill:#407BFF"></polygon><path d="M117.08,335.63h9.53L121.34,328Q119.26,331.84,117.08,335.63Z" style="fill:#407BFF"></path><path d="M136.5,317.91l-13.85,7.59c-.11.19-.21.39-.31.59l5.66,8.23C130.89,329,133.77,323.53,136.5,317.91Z" style="fill:#407BFF"></path><path d="M112.37,343.59l12.06-6.07H116C114.78,339.55,113.59,341.58,112.37,343.59Z" style="fill:#407BFF"></path><path d="M164.7,197.7c0,.64-.07,1.27-.11,1.91l.58-1.06Z" style="fill:#407BFF"></path><path d="M167.26,197.7l-.47.85.59,1.06Z" style="fill:#407BFF"></path><path d="M99.39,358.61H88.26l5.29,8.06,1.52-2L97.73,361Z" style="fill:#407BFF"></path><path d="M164.34,203.39h3.28l0-.48L166,200l-1.6,2.9C164.36,203.07,164.35,203.23,164.34,203.39Z" style="fill:#407BFF"></path><path d="M161.58,127.94l.09-2.83h-.82c0,.4,0,.8,0,1.22Z" style="fill:#407BFF"></path><path d="M170.3,125.11c0,.94.06,1.89.08,2.83l.78-1.61c0-.42,0-.82,0-1.22Z" style="fill:#407BFF"></path><path d="M183.13,248.64l5.65,3.4q-.94-3.19-1.82-6.45Z" style="fill:#407BFF"></path><path d="M170.86,141c0,.3,0,.61,0,.92l1.11,1.64c-.09-1.38-.16-2.72-.24-4Z" style="fill:#407BFF"></path><path d="M164.88,194.59c0,.16,0,.31,0,.47l1.12,2,1.13-2,0-.47Z" style="fill:#407BFF"></path><path d="M161.07,141.9c0-.31,0-.62,0-.92l-.92-1.48c-.07,1.32-.15,2.66-.23,4Z" style="fill:#407BFF"></path><path d="M119.38,325.13l-5.67-8.22q-5.05,9-9.78,16.68Z" style="fill:#407BFF"></path><path d="M84,378.67c2.13-2.46,4.2-5,6.22-7.6l-15.89,7.6Z" style="fill:#407BFF"></path><path d="M94,370.72c-2,2.69-4.12,5.34-6.3,7.95H99.16Z" style="fill:#407BFF"></path><path d="M148.83,248.64l-3.82-3q-.88,3.25-1.82,6.45Z" style="fill:#407BFF"></path><path d="M130.31,304.69l1.08-2.3c.29-.7.59-1.4.89-2.1h-9.56c-.77,1.49-1.54,2.95-2.31,4.4Z" style="fill:#407BFF"></path><path d="M135.73,290.53l-5.47-5.18q-2.68,5.49-5.34,10.69Z" style="fill:#407BFF"></path><path d="M172.48,169.65c0,.37.05.74.07,1.12l1.82,2c-.17-1.67-.33-3.32-.48-5Z" style="fill:#407BFF"></path><path d="M185.76,260.52l7.25,4.53q-1.5-4.19-2.87-8.54Z" style="fill:#407BFF"></path><path d="M172.24,166c0,.74.09,1.47.14,2.2l1.38-1.78c0-.14,0-.28,0-.42Z" style="fill:#407BFF"></path><path d="M172,162.87c0,.74.09,1.47.14,2.21h1.46c0-.15,0-.3,0-.45Z" style="fill:#407BFF"></path><path d="M171.67,156.92c0,.65.07,1.31.11,2l1.19-1.53,0-.43Z" style="fill:#407BFF"></path><path d="M158.33,165.08h1.46l.15-2.21-1.57,1.76C158.36,164.78,158.35,164.93,158.33,165.08Z" style="fill:#407BFF"></path><path d="M171.47,153.6c.05.79.1,1.58.14,2.37h1.26c0-.21,0-.42-.05-.63Z" style="fill:#407BFF"></path><path d="M172.67,172.3c.06.84.13,1.67.19,2.5h1.72c0-.14,0-.29,0-.43Z" style="fill:#407BFF"></path><path d="M173.41,181.79c.07.75.14,1.51.2,2.26h2V184Z" style="fill:#407BFF"></path><path d="M172.93,175.75c0,.74.11,1.48.16,2.22l1.62-1.91,0-.31Z" style="fill:#407BFF"></path><path d="M170.55,133.05c0,1,.07,2.06.11,3.09h.93l-.06-1.27Z" style="fill:#407BFF"></path><path d="M171.64,137.08h-.94l.09,2.21.89-1.44C171.67,137.59,171.66,137.34,171.64,137.08Z" style="fill:#407BFF"></path><path d="M170.45,130l0,.93,1,1.76c-.07-1.49-.14-2.94-.19-4.33Z" style="fill:#407BFF"></path><path d="M168.67,166c0,.16,0,.31,0,.46l2.26,2.5-.18-3Z" style="fill:#407BFF"></path><path d="M171.15,147.19c0,.7.06,1.4.1,2.11l1-1.51c0-.2,0-.4,0-.6Z" style="fill:#407BFF"></path><path d="M171.33,150.86c0,.36,0,.71,0,1.07l1.31,1.69c-.11-1.46-.21-2.89-.31-4.3Z" style="fill:#407BFF"></path><path d="M169,174.8h2.36c-.08-1.12-.16-2.24-.23-3.36L169,174.22C169,174.42,169,174.61,169,174.8Z" style="fill:#407BFF"></path><path d="M171,143.7c0,.85.09,1.69.13,2.54h1.08l-.06-.84Z" style="fill:#407BFF"></path><path d="M184.21,255.6c.22,1,.51,2,.79,3l3.53-3.24h-4.36Z" style="fill:#407BFF"></path><path d="M185.82,241.23h-4.68l.21,1.14,0,.16h4.77Z" style="fill:#407BFF"></path><path d="M182.12,255.41h-4.54l5.35,3.35c-.24-.89-.48-1.79-.67-2.69Z" style="fill:#407BFF"></path><polygon points="181.73 244.42 181.76 244.59 182.25 246.79 182.27 246.9 185.39 244.42 181.73 244.42" style="fill:#407BFF"></polygon><path d="M179.56,232.53l0,.18,5.07,3.78q-.87-3.66-1.67-7.37Z" style="fill:#407BFF"></path><path d="M168.64,165.08h2.07c-.06-1-.13-2-.19-3l-1.9,2.45C168.62,164.69,168.63,164.88,168.64,165.08Z" style="fill:#407BFF"></path><path d="M185.08,266.74c-.42-1.5-.81-3-1.2-4.49L179,266.74Z" style="fill:#407BFF"></path><path d="M179.27,230.82l3-3h-3.44C179,228.85,179.11,229.83,179.27,230.82Z" style="fill:#407BFF"></path><polygon points="183.23 251.2 183.75 253.52 187.56 253.52 183.16 250.86 183.23 251.2" style="fill:#407BFF"></polygon><path d="M175,198.69c0,.1,0,.21,0,.32L178,201.6c-.27-1.77-.52-3.53-.77-5.29Z" style="fill:#407BFF"></path><path d="M174.06,189.07c0,.1,0,.19,0,.29l2.49,2.25c-.2-1.55-.4-3.09-.59-4.62Z" style="fill:#407BFF"></path><path d="M175.89,206.62l.07.54,2.17-2.35h-2.44C175.76,205.41,175.82,206,175.89,206.62Z" style="fill:#407BFF"></path><path d="M178.31,224.55c.1.63.2,1.26.29,1.89h3.47l-4-3.49Z" style="fill:#407BFF"></path><path d="M174.82,196.81l1.84-2h-2Z" style="fill:#407BFF"></path><path d="M176.19,209l0,.33,3.5,3q-.53-3-1-6.08Z" style="fill:#407BFF"></path><path d="M177.68,220.41l.06.37,4.28,3.73c-.5-2.48-1-5-1.44-7.46Z" style="fill:#407BFF"></path><path d="M177,215.6c.11,1,.26,2,.4,2.94l2.58-3h-3Z" style="fill:#407BFF"></path><path d="M173.2,179.31c0,.1,0,.2,0,.3l.06.71,2.15,2.14c-.2-1.71-.39-3.42-.58-5.11Z" style="fill:#407BFF"></path><path d="M163.54,157.39c0-.16,0-.32,0-.47h-1.84l-.15,2.68Z" style="fill:#407BFF"></path><path d="M160.88,124.16h.81l.06-2.53-.83,1.44C160.91,123.43,160.9,123.79,160.88,124.16Z" style="fill:#407BFF"></path><path d="M160.37,136.14h.93l.12-3.09-1,1.82Z" style="fill:#407BFF"></path><path d="M160.54,132.68l1-1.76,0-.92-.79-1.65C160.67,129.74,160.61,131.19,160.54,132.68Z" style="fill:#407BFF"></path><path d="M161.26,165.08h2.07c0-.2,0-.39,0-.58l-1.91-2.45C161.39,163.06,161.32,164.07,161.26,165.08Z" style="fill:#407BFF"></path><path d="M161.76,156h1.82c0-.25,0-.51,0-.76l-1.67-2.44C161.88,153.83,161.82,154.9,161.76,156Z" style="fill:#407BFF"></path><path d="M161.1,116.76l.73,1.19c0-.81,0-1.63,0-2.45h-.76C161.12,115.91,161.11,116.33,161.1,116.76Z" style="fill:#407BFF"></path><path d="M161,121.07l.81-1.39-.74-1.19C161,119.32,161,120.17,161,121.07Z" style="fill:#407BFF"></path><path d="M161.14,114.56h.75c0-2,.06-3.91.08-5.86h-.75C161.21,109.92,161.19,111.92,161.14,114.56Z" style="fill:#407BFF"></path><path d="M159.1,156h1.25c.05-.79.1-1.58.14-2.37l-1.34,1.74C159.13,155.55,159.11,155.76,159.1,156Z" style="fill:#407BFF"></path><path d="M159.69,147.79l1,1.51c0-.71.07-1.41.11-2.11h-1.09C159.71,147.39,159.7,147.59,159.69,147.79Z" style="fill:#407BFF"></path><path d="M159.28,153.62l1.3-1.69.06-1.07-1.06-1.54C159.49,150.73,159.39,152.16,159.28,153.62Z" style="fill:#407BFF"></path><path d="M159,157.35l1.19,1.53.12-2H159Z" style="fill:#407BFF"></path><path d="M160.63,174.8H163c0-.19,0-.38,0-.57l-2.14-2.79Z" style="fill:#407BFF"></path><path d="M159.79,146.24h1.08l.12-2.54-1.15,1.7C159.82,145.68,159.81,146,159.79,146.24Z" style="fill:#407BFF"></path><path d="M163.28,166.48c0-.15,0-.31,0-.46h-2.1l-.18,3Z" style="fill:#407BFF"></path><path d="M160.28,137.85l.89,1.44c0-.74.07-1.47.1-2.21h-1C160.31,137.34,160.3,137.59,160.28,137.85Z" style="fill:#407BFF"></path><path d="M168.17,145.32c0,.3,0,.62,0,.92h1.55c0-1.08-.09-2.16-.13-3.24Z" style="fill:#407BFF"></path><path d="M170,108.7c0,2,0,3.9.08,5.86h.75c0-2.64-.07-4.64-.08-5.86Z" style="fill:#407BFF"></path><path d="M168.06,137.08c0,.21,0,.42,0,.63l1.43,2.11c0-.91-.07-1.82-.1-2.74Z" style="fill:#407BFF"></path><path d="M168.2,147.19c0,.21,0,.42,0,.64l1.7,2.2-.12-2.84Z" style="fill:#407BFF"></path><path d="M168.41,156.92c0,.15,0,.31,0,.47l2,2.21c0-.89-.09-1.79-.14-2.68Z" style="fill:#407BFF"></path><path d="M168.39,156h1.81c-.06-1.07-.12-2.14-.17-3.2l-1.66,2.44C168.37,155.46,168.38,155.72,168.39,156Z" style="fill:#407BFF"></path><path d="M170.08,115.5c0,.82,0,1.64,0,2.45l.74-1.19q0-.65,0-1.26Z" style="fill:#407BFF"></path><path d="M171,123.07l-.82-1.43c0,.84,0,1.68.05,2.52h.81C171.07,123.79,171.06,123.43,171,123.07Z" style="fill:#407BFF"></path><path d="M170.18,119.68l.8,1.39c0-.9,0-1.75-.07-2.58Z" style="fill:#407BFF"></path><rect x="162.67" y="100.94" width="1.89" height="0.93" style="fill:#407BFF"></rect><path d="M163.91,136.14c0-.38,0-.75,0-1.12l-1.21-2.54c0,1.22-.07,2.44-.11,3.66Z" style="fill:#407BFF"></path><path d="M168,135c0,.37,0,.74,0,1.12h1.32c0-1.22-.08-2.44-.11-3.66Z" style="fill:#407BFF"></path><path d="M162.22,146.24h1.56c0-.3,0-.62,0-.92L162.36,143C162.32,144.08,162.27,145.16,162.22,146.24Z" style="fill:#407BFF"></path><path d="M162.47,139.82l1.43-2.11v-.63h-1.34Z" style="fill:#407BFF"></path><rect x="167.4" y="100.94" width="1.89" height="0.93" style="fill:#407BFF"></rect><path d="M164.24,204.86l1.74,2.69,1.74-2.69v-.05h-3.47Z" style="fill:#407BFF"></path><path d="M162.05,150l1.7-2.2c0-.22,0-.43,0-.64h-1.58C162.14,148.13,162.1,149.08,162.05,150Z" style="fill:#407BFF"></path></g><g id="freepik--character-1--inject-15"><g id="freepik--group--inject-15"><path d="M342.47,243.32s-.84-3.58.45-4.14,8.91-5.53,10.82-5.87,3.12,6.68,2.08,8.2-9.4,4.21-11.07,4.11S342.47,243.32,342.47,243.32Z" style="fill:#e4897b"></path><path d="M281.33,204.09l-16.32,20s-1.08-1.39-2.46-3.29c0,0,0,0,0,0-2.58-3.54-6.15-8.81-5.61-10,.86-1.79,8.14-10.64,9.17-11,.66-.26,6.6,1.54,10.86,2.9C279.43,203.46,281.33,204.09,281.33,204.09Z" style="fill:#407BFF"></path><path d="M281.33,204.09l-16.32,20s-1.08-1.39-2.46-3.29c0,0,0,0,0,0-2.58-3.54-6.15-8.81-5.61-10,.86-1.79,8.14-10.64,9.17-11,.66-.26,6.6,1.54,10.86,2.9C279.43,203.46,281.33,204.09,281.33,204.09Z" style="fill:#fff;opacity:0.8;isolation:isolate"></path><path d="M281.33,204.09l-16.32,20s-1.08-1.39-2.46-3.29c0,0,0,0,0,0a23.1,23.1,0,0,1,4.81-10.47c3.31-4.34,6.7-6.56,9.61-7.65C279.43,203.46,281.33,204.09,281.33,204.09Z" style="fill:#407BFF"></path><ellipse cx="274.96" cy="214.54" rx="18.5" ry="6.33" transform="translate(-66.66 284.75) rotate(-49.58)" style="fill:#407BFF"></ellipse><ellipse cx="274.96" cy="214.54" rx="18.5" ry="6.33" transform="translate(-66.66 284.75) rotate(-49.58)" style="fill:#fff;opacity:0.8;isolation:isolate"></ellipse><path d="M296.19,257.08c5.87,6.43,24,7,30.52,1.57s15-16.4,15-16.4l5.94,3s-12.27,22.61-24.53,26.89-37.06,0-37.06,0v-7.71Z" style="fill:#407BFF"></path><path d="M347.68,245.21s-12.26,22.62-24.53,26.89c-4.79,1.67-11.49,2-17.88,1.86a151.87,151.87,0,0,1-19.18-1.86v-7.7l5.57-4,4.53-3.28c5.87,6.43,24,7,30.52,1.58s15-16.41,15-16.41Z" style="fill:#fff;opacity:0.5"></path><path d="M305.27,274a151.87,151.87,0,0,1-19.18-1.86v-7.7l5.57-4A37.66,37.66,0,0,0,305.27,274Z" style="opacity:0.2;isolation:isolate"></path><polygon points="293.36 407.65 302.4 409.55 312.06 393.68 303.02 391.77 293.36 407.65" style="fill:#e4897b"></polygon><path d="M304.23,405.73H294.11a.73.73,0,0,0-.71.57l-1.64,7.41a1.23,1.23,0,0,0,.95,1.46,1.18,1.18,0,0,0,.27,0c3.27-.05,5.65-.26,9.76-.26,2.54,0,10.17.27,13.67.27s3.95-3.45,2.52-3.77c-6.42-1.4-11.25-3.34-13.31-5.18A2,2,0,0,0,304.23,405.73Z" style="fill:#263238"></path><path d="M304.8,406.88a.2.2,0,0,1-.15-.17.2.2,0,0,1,.1-.19c.29-.19,3-1.84,3.9-1.36a.57.57,0,0,1,.34.55,1.16,1.16,0,0,1-.41,1.06,2.51,2.51,0,0,1-1.6.42A10,10,0,0,1,304.8,406.88Zm.57-.27a4.12,4.12,0,0,0,3-.15.8.8,0,0,0,.26-.71c0-.16-.07-.23-.13-.23a.42.42,0,0,0-.25-.06A8.22,8.22,0,0,0,305.37,406.61Z" style="fill:#407BFF"></path><path d="M304.75,406.92a.21.21,0,0,1-.1-.18c0-.11.21-2.51,1.18-3.29a1,1,0,0,1,.83-.25.64.64,0,0,1,.64.51c.17.88-1.49,2.72-2.35,3.18h-.1A.13.13,0,0,1,304.75,406.92Zm1.33-3.24a4.61,4.61,0,0,0-1,2.61c.85-.65,1.91-2,1.81-2.58,0,0,0-.2-.29-.2h-.09A.66.66,0,0,0,306.08,403.68Z" style="fill:#407BFF"></path><polygon points="303.02 391.77 312.06 393.68 307.07 401.87 298.04 399.96 303.02 391.77" style="opacity:0.2;isolation:isolate"></polygon><path d="M263.5,353.86c.48,0,6-.05,6.49-.09a147.92,147.92,0,0,0,29.19-6c8.52-2.56,14.41-4.95,14.41-4.95,2,11.3-16.38,54.62-16.38,54.62l15,.93s41.85-61.73,24-81c-13.32-14.36-49.44,1.23-49.44,1.23l-9.44-19.93-40,2.29S228.68,355.72,263.5,353.86Z" style="fill:#263238"></path><polygon points="311.48 400.14 296.56 397.75 297.99 393.69 314.22 397.08 311.48 400.14" style="fill:#407BFF"></polygon><path d="M268.5,353.86l1.49-.09a147.92,147.92,0,0,0,29.19-6c-14.49-2.66-28.31-13.07-28.31-13.07Z" style="opacity:0.2;isolation:isolate"></path><polygon points="192.03 390.71 191.25 399 210.39 401.5 211.17 393.2 192.03 390.71" style="fill:#e4897b"></polygon><path d="M192.1,400.24l.94-10.07a.73.73,0,0,0-.5-.76l-7.23-2.33a1.23,1.23,0,0,0-1.54.81,2.56,2.56,0,0,0-.05.27c-.25,3.26-.28,5.65-.66,9.74-.24,2.52-1.22,10.1-1.54,13.58s3.06,4.26,3.51,2.87c2-6.26,4.38-10.89,6.41-12.76A2.05,2.05,0,0,0,192.1,400.24Z" style="fill:#263238"></path><path d="M190.89,400.71a.22.22,0,0,1,.19-.14.19.19,0,0,1,.18.12c.16.31,1.55,3.14,1,4a.59.59,0,0,1-.58.28,1.16,1.16,0,0,1-1-.51,2.5,2.5,0,0,1-.27-1.63A9.81,9.81,0,0,1,190.89,400.71Zm.22.59a4.12,4.12,0,0,0-.13,3,.84.84,0,0,0,.69.33c.15,0,.23-.05.24-.11a.43.43,0,0,0,.08-.24A8.06,8.06,0,0,0,191.11,401.3Z" style="fill:#407BFF"></path><path d="M190.86,400.65a.18.18,0,0,1,.18-.08c.12,0,2.48.45,3.17,1.48a1.06,1.06,0,0,1,.18.86.65.65,0,0,1-.58.58c-.89.09-2.56-1.74-2.94-2.64v-.09A.15.15,0,0,1,190.86,400.65Zm3.1,1.63a4.65,4.65,0,0,0-2.5-1.22c.56.91,1.84,2.1,2.39,2,.05,0,.2,0,.23-.26v-.1A.75.75,0,0,0,194,402.28Z" style="fill:#407BFF"></path><polygon points="211.16 393.2 210.38 401.5 200.51 400.21 201.29 391.91 211.16 393.2" style="opacity:0.2;isolation:isolate"></polygon><path d="M273.39,324.37c3,4.5,16,72.59-2.32,85.56-13.44,9.53-67.44-6.26-67.44-6.26l.94-13.8s45.46,5.45,49.7,1.77-15-50.24-16-59.26S273.39,324.37,273.39,324.37Z" style="fill:#263238"></path><polygon points="206.47 388.82 205.36 405.46 201.19 404.41 203.07 387.94 206.47 388.82" style="fill:#407BFF"></polygon><polygon points="311.48 400.14 296.56 397.75 297.99 393.69 314.22 397.08 311.48 400.14" style="fill:#fff;opacity:0.5"></polygon><polygon points="206.47 388.82 205.36 405.46 201.19 404.41 203.07 387.94 206.47 388.82" style="fill:#fff;opacity:0.5"></polygon><path d="M236.32,310l45.09-2.47s-1.38-35.61,14.78-50.44a39.75,39.75,0,0,0-8.35-6.88,50.36,50.36,0,0,0-22.19-7.68c-5.33-.54-6.32-.32-13,1.1C252.68,243.62,236.21,263.27,236.32,310Z" style="fill:#407BFF"></path><path d="M296.19,257.08c-7.8,7.16-11.51,19.16-13.27,29.66a115.31,115.31,0,0,0-1.38,12.89c-.25,4.78-.13,7.89-.13,7.89L236.32,310c-.11-46.72,16.37-66.37,16.37-66.37,6.64-1.42,7.63-1.64,13-1.1a50.58,50.58,0,0,1,22.2,7.68A39.5,39.5,0,0,1,296.19,257.08Z" style="fill:#fff;opacity:0.6000000000000001;isolation:isolate"></path><path d="M282.92,286.74a115.31,115.31,0,0,0-1.38,12.89c-7,.48-18.32.62-24.48-2.62-9.33-4.91-8.88-41-8.88-41l4-1.58s5.22,26.68,9.26,30.08C264.33,286.9,276.21,286.93,282.92,286.74Z" style="opacity:0.2;isolation:isolate"></path><path d="M266.5,243.42c2.83,6.54,9.82,15.32,9.82,15.32l8.38-8.91s-2.34-3.35-2-5.63a10.66,10.66,0,0,1,1.62-3.86,20.78,20.78,0,0,1,1.35-1.92l-6.64-13.78C277.69,230.71,274.61,244.38,266.5,243.42Z" style="fill:#e4897b"></path><path d="M278.88,231.09c-3,6.75,1.42,11.37,3.85,13.11a10.66,10.66,0,0,1,1.62-3.86Z" style="opacity:0.2;isolation:isolate"></path><path d="M288.36,208.37s6.05,7.39,3.07,14.3-13.91-11.45-13.91-11.45Z" style="fill:#263238"></path><path d="M295.45,224.51a24.37,24.37,0,0,1,.63,3.15c.05.41.09.81.1,1.22a11.65,11.65,0,0,1-2.93,8,10.41,10.41,0,0,1-12,2.82,3.08,3.08,0,0,1-.38-.16c-5.41-2.43-7.07-7-10.49-14.51a11.4,11.4,0,0,1-1.08-5.14,11.27,11.27,0,0,1,11.55-11C288.45,209.05,293.56,217.36,295.45,224.51Z" style="fill:#e4897b"></path><path d="M282.94,222.69c.19.64.76,1,1.18.85s.54-.8.3-1.43-.77-1-1.18-.84S282.7,222.06,282.94,222.69Z" style="fill:#263238"></path><path d="M290,220c.2.64.78,1,1.18.85s.54-.8.31-1.43-.78-1-1.18-.84S289.79,219.36,290,220Z" style="fill:#263238"></path><path d="M287.89,221.14a24,24,0,0,0,5.06,4.2,3.9,3.9,0,0,1-2.79,1.73Z" style="fill:#de5753"></path><path d="M279.86,221.25a.44.44,0,0,0,.3-.28,3.17,3.17,0,0,1,1.88-2.15.39.39,0,0,0,.26-.48.4.4,0,0,0-.49-.27h0a3.89,3.89,0,0,0-2.41,2.66.41.41,0,0,0,.26.5h.2Z" style="fill:#263238"></path><path d="M290.39,230.7h0a6,6,0,0,1-5.58.22.21.21,0,0,1,.19-.37h0a5.77,5.77,0,0,0,5.18-.22.2.2,0,0,1,.28.07v0a.19.19,0,0,1-.07.27Z" style="fill:#263238"></path><path d="M292.12,216.34a.34.34,0,0,0,.22-.62h0a4,4,0,0,0-3.45-1,.38.38,0,0,0-.28.47h0a.39.39,0,0,0,.47.29h0a3.21,3.21,0,0,1,2.72.87A.39.39,0,0,0,292.12,216.34Z" style="fill:#263238"></path><path d="M274.34,237.12h0a1.71,1.71,0,0,0,1.46-2.6c-1.39-2.21-2.18-4.41-1.66-4.84.89-.73,1.49.45,1.49.45,1.39-2.68,1.06-7.72-1.25-10-1.66-1.67-.52-4.35,1.73-4.85,0,0-9.86.48-10.56,3.26s.54,9.29,5.16,15.16A16.32,16.32,0,0,0,274.34,237.12Z" style="fill:#263238"></path><path d="M269.5,232.65a7.89,7.89,0,0,0,5.62,2.09c2.75-.13,3.27-2.79,1.8-5-1.33-1.9-4.37-4.2-6.79-3S267.65,230.9,269.5,232.65Z" style="fill:#e4897b"></path><path d="M288.36,208.37s-.92,3.78-7.81,6.53a20.26,20.26,0,0,0,3.93-3.22s-8.19,5.73-13.22,6.3-5.71,1.24-5.71,1.24l7.3-11.05C282.86,203.72,288.13,206.39,288.36,208.37Z" style="fill:#263238"></path><circle cx="276.32" cy="269.13" r="2.92" style="fill:#263238"></circle><circle cx="276.32" cy="262.13" r="2.92" style="fill:#263238"></circle><path d="M276,273.69a.5.5,0,0,1-.5-.5V266.8a2.46,2.46,0,0,1,0-2.19v-6.42a.5.5,0,0,1,1,0v6.56a.52.52,0,0,1-.11.32s-.35.49.07,1.42a.65.65,0,0,1,0,.2v6.5A.5.5,0,0,1,276,273.69Z" style="fill:#263238"></path><path d="M265.68,226.49s3.37-14.7,17.73-22.19l-.2-3.72s-7.32,1.83-14.81,11-4.31,16-4.31,16Z" style="fill:#407BFF"></path><path d="M265.68,226.49s3.37-14.7,17.73-22.19l-.2-3.72s-7.32,1.83-14.81,11-4.31,16-4.31,16Z" style="fill:#fff;opacity:0.8;isolation:isolate"></path><path d="M291.62,281.71s1.27-3.45,2.65-3.21,10.49.29,12.27,1.06-1.07,7.29-2.77,8-10.17-1.66-11.51-2.66S291.62,281.71,291.62,281.71Z" style="fill:#e4897b"></path><path d="M252.68,243.62c5.9-1.25,7.57,28.64,9.15,35.94s30.63,1,30.63,1l1.81,5.54S265,296.24,256.1,291.29c-7.92-4.4-8.11-27.18-7.92-35.29S250,244.18,252.68,243.62Z" style="fill:#407BFF"></path><path d="M252.68,243.62c5.9-1.25,7.57,28.64,9.15,35.94s30.63,1,30.63,1l1.81,5.54S265,296.24,256.1,291.29c-7.92-4.4-8.11-27.18-7.92-35.29S250,244.18,252.68,243.62Z" style="fill:#fff;opacity:0.5"></path><polygon points="299.24 273.56 298.7 274.1 301.06 276.45 303.41 274.1 302.88 273.56 299.24 273.56" style="fill:#407BFF"></polygon><polygon points="299.24 273.56 298.7 274.1 301.06 276.45 303.41 274.1 302.88 273.56 299.24 273.56" style="fill:#fff;opacity:0.7000000000000001;isolation:isolate"></polygon><path d="M295.9,267.58h2.33a0,0,0,0,1,0,0v9.16a0,0,0,0,1,0,0H295.9a1.62,1.62,0,0,1-1.62-1.62v-5.91A1.62,1.62,0,0,1,295.9,267.58Z" style="fill:#407BFF"></path><path d="M296.25,275.36h8.9a0,0,0,0,1,0,0v3.26a1.79,1.79,0,0,1-1.79,1.79H298a1.79,1.79,0,0,1-1.79-1.79v-3.26A0,0,0,0,1,296.25,275.36Z" style="fill:#407BFF"></path></g></g><g id="freepik--character-2--inject-15"><path d="M410.56,393.58l-4.59,2.7a88.28,88.28,0,0,0-7-8.27h0c-1.33-1.4-2.73-3-4.19-4.63-2.9-3.34-6.05-7.15-9.35-11.25-1-1.2-1.95-2.44-2.95-3.69-11.21-14.11-23.31-30.63-28.21-42.1-.12-.28-.24-.56-.35-.84-1.44-3.57-2.15-6.61-1.83-8.88.94-6.86,3.61-17.19,6.66-27.17,4.63-15.25,9.85-29.71,9.85-29.71l12.82,21.72s-3.93,9.38-7.51,19.37c-3.53,9.81-6.71,20.21-5.54,22.92.12.27.26.58.42.91,1,2,2.76,5.26,5.05,9.21,2.68,4.63,6.05,10.27,9.66,16.22.68,1.12,1.36,2.24,2.05,3.36,3.59,5.89,7.32,11.94,10.78,17.5,1.35,2.19,2.66,4.3,3.91,6.3C406.16,386.71,410.56,393.58,410.56,393.58Z" style="fill:#eec1bb"></path><path d="M382.24,368.42C388.31,376,394.13,383,398.47,388c.61-3.1,1.24-6.77,1.74-10.77-5-8-11.14-18-16.71-27.15A104.07,104.07,0,0,1,382.24,368.42Z" style="opacity:0.2;isolation:isolate"></path><path d="M405.13,305.59c-1.59,10.82-3.85,20.63-5.33,26.48-.34,1.35-.64,2.49-.88,3.38-.37,1.41-.6,2.19-.6,2.19a291.85,291.85,0,0,1-2,33.3c-.48,4.36-1,8.54-1.55,12.43-2,14.38-4.09,24.71-4.09,24.71l-5.47-.71.21-35.25.12-18.68.13-21.39,0-4,.06-4.43.26-19.33.39-28.51,19-8.55C408,278,407.05,292.55,405.13,305.59Z" style="fill:#eec1bb"></path><path d="M410.14,390.58c-.56-.41-5.29,6.68-5.29,6.68s1,7.39-1.09,12.16,2,4.36,5.47-.16l8.53-11.17C420.21,394.89,415.94,394.8,410.14,390.58Z" style="fill:#263238"></path><path d="M403.09,402.63a.89.89,0,0,1-.69-.4.93.93,0,0,1-.19-.71,3.46,3.46,0,0,1,1-1.65c-.72.33-1.44.54-1.81.29a.78.78,0,0,1-.23-.88,1.3,1.3,0,0,1,.64-.89c1.08-.63,3.08,0,3.18,0a.12.12,0,0,1,.08,0h0l.05.06h0a.14.14,0,0,1,0,.07h0a.14.14,0,0,1,0,.09c-.13.61-.82,3.67-1.9,3.92Zm1.47-3.41c-.75.63-1.81,1.65-1.9,2.35a.48.48,0,0,0,.09.38c.21.27.34.24.39.23C403.64,402.06,404.22,400.54,404.56,399.22Zm-1.5-.66a2,2,0,0,0-1,.22.87.87,0,0,0-.43.59c0,.13-.06.35,0,.42.32.21,1.58-.35,2.73-1.06A6.14,6.14,0,0,0,403.06,398.56Z" style="fill:#407BFF"></path><path d="M392.65,404.59c0-.69-8.52-.15-8.52-.15s-5.24,5.33-10.32,6.52-2.24,4.25,3.44,4.25H391.3C395.34,415.21,392.82,411.77,392.65,404.59Z" style="fill:#263238"></path><path d="M379.65,406.62a1.21,1.21,0,0,1-.75-.2.83.83,0,0,1-.2-.91.92.92,0,0,1,.45-.58,3.59,3.59,0,0,1,1.91-.2c-.69-.37-1.3-.82-1.33-1.27,0-.29.18-.53.56-.71a1.29,1.29,0,0,1,1.1,0c1.15.47,1.87,2.44,1.9,2.54a.29.29,0,0,1,0,.09h0a.2.2,0,0,1,0,.07h0l0,.06h0a.18.18,0,0,1-.07.05A10.54,10.54,0,0,1,379.65,406.62Zm.73-1.48a2.23,2.23,0,0,0-1,.18.5.5,0,0,0-.24.3c-.08.33,0,.42.06.45.4.33,2-.14,3.21-.67A10.15,10.15,0,0,0,380.38,405.14Zm.5-2.08a.92.92,0,0,0-.39.09c-.12.06-.31.17-.31.29,0,.38,1.24,1,2.5,1.52a3.71,3.71,0,0,0-1.46-1.83A.83.83,0,0,0,380.88,403.06Z" style="fill:#407BFF"></path><path d="M368.63,259.73l12.82,21.72s-3.93,9.38-7.51,19.37c-3.53,9.81-6.71,20.21-5.54,22.92.12.27.26.58.42.91,1,2,2.76,5.26,5.05,9.21-5.48.47-10.16-7.05-14.73-7.81a10.44,10.44,0,0,0-4.84.28c-.12-.28-.24-.56-.35-.84-1.44-3.57-2.15-6.61-1.83-8.88.94-6.86,3.61-17.19,6.66-27.17C363.41,274.19,368.63,259.73,368.63,259.73Z" style="opacity:0.2;isolation:isolate"></path><path d="M405.13,305.59c-1.59,10.82-3.85,20.63-5.33,26.48-.34,1.35-.64,2.49-.88,3.38a16.47,16.47,0,0,0-6.86-3.39,18.81,18.81,0,0,0-6.35,0l0-4,.06-4.43.26-19.33.39-28.51,19-8.55C408,278,407.05,292.55,405.13,305.59Z" style="opacity:0.2;isolation:isolate"></path><path d="M364.6,169.87s.53-6.58,1.52-8.14,1.19-3.29,3.86-1.89,2.91,12.73,1.45,12.93a29,29,0,0,0-4.32,1.28Z" style="fill:#eec1bb"></path><path d="M399,159.59s6.36,23-3.49,30.54-28.09.38-31.1,6-11.65-1.93-11.65-1.93,5.07,2.48,5.26-2.69,0-10.42,7.52-15.31,4.14-1.55,3.2-16.38,17.29-21.15,25-12.07C393.72,147.77,400.49,148,399,159.59Z" style="fill:#263238"></path><path d="M374,196.17a85.14,85.14,0,0,1-12.5,0c-6.73-.55-14-2.21-15.85-6.68-2.74-6.63,18.92-19.58,18.92-19.58l3.89,2.91S355.66,184.43,356,186s12.27-.07,17.39,0l.3,5.09Z" style="fill:#eec1bb"></path><path d="M374,196.17a85.14,85.14,0,0,1-12.5,0c4-3,9.81-4.55,12.19-5.08Z" style="opacity:0.2;isolation:isolate"></path><path d="M373.43,227.28l29,.3A135.49,135.49,0,0,1,406,208.75c.79-2.74,1.78-5.82,3-9.4.53-1.52,1.11-3.12,1.75-4.83s1.22-3.29,1.91-5.07A99.12,99.12,0,0,0,400,186.7a109.31,109.31,0,0,0-13.77-1.31c-6,0-12.81.57-12.81.57s-1,.21-1.58,5.87C371.28,197.15,372.2,207.93,373.43,227.28Z" style="fill:#407BFF"></path><path d="M385.16,160.09a.24.24,0,0,1-.15,0c-6.72-4.86-5-9.53-4.9-9.73a.25.25,0,0,1,.47.19c-.07.18-1.67,4.52,4.72,9.13a.25.25,0,0,1,.06.35A.25.25,0,0,1,385.16,160.09Z" style="fill:#263238"></path><path d="M355.37,180.81a.25.25,0,0,1-.23-.16,5.36,5.36,0,0,1,.45-4.45c.91-1.66,3.08-3.85,8.19-4.86,4.77-.94,4.71-1.76,4.45-5.23a37,37,0,0,1,.63-11c.78-3.89,2.54-6.65,5.23-8.18,4.74-2.7,10.61-.7,10.85-.62a.26.26,0,0,1,.16.32.25.25,0,0,1-.32.15c-.06,0-5.9-2-10.44.58-2.56,1.47-4.24,4.11-5,7.85a36.74,36.74,0,0,0-.62,10.9c.27,3.54.36,4.73-4.85,5.75-4.93,1-7,3-7.85,4.61a4.89,4.89,0,0,0-.43,4,.24.24,0,0,1-.14.32Z" style="fill:#263238"></path><path d="M410.82,342.43s3.5-49.6-1.29-83.79a329.19,329.19,0,0,0-6.64-34.42l-29.77-1.82s-8,22.32-18.06,50.46c-4.75,13.32-19,50.89-19,50.89,9.09,8.85,14.3-8.12,20.9-6.29,8.6,2.37,4.63,12.46,17,13.74,9.49,1,13.11-5.33,18.27-4.06C401.13,329.32,397.82,339.92,410.82,342.43Z" style="fill:#407BFF"></path><path d="M409.54,258.65c4.79,34.18,1.28,83.79,1.28,83.79-13-2.51-9.68-13.12-18.61-15.3-5.16-1.26-8.78,5.05-18.27,4.06-12.36-1.28-8.4-11.36-17-13.74-6.6-1.82-11.81,15.15-20.9,6.29,0,0,14.27-37.57,19-50.89,3.55-9.95,6.85-19.18,9.63-27,1.93-5.4,3.61-10.09,5-13.83,2.18-6.09,3.47-9.66,3.47-9.67-1.07-16.3-1.79-25.72-1.28-30.58.62-5.66,1.59-5.87,1.59-5.87s6.85-.61,12.81-.56A107.15,107.15,0,0,1,400,186.7a100.85,100.85,0,0,1,12.71,2.75c-.69,1.78-1.33,3.48-1.91,5.07s-1.21,3.31-1.75,4.83c-.63,1.79-1.19,3.45-1.69,5s-.94,3-1.34,4.39a123.35,123.35,0,0,0-3.13,15.47c0,.06.08.25.17.58C403.86,227.87,407.25,242.3,409.54,258.65Z" style="fill:#fff;opacity:0.6000000000000001;isolation:isolate"></path><path d="M381.94,200.91a.26.26,0,0,1-.24-.16c-.13-.37-3.3-8.88.17-13.61,1.6-2.19,4.35-3.19,8.2-3h0c5.11.29,8.39,1.91,8.76,4.32.56,3.67-5.57,8.19-16.8,12.4Zm7.13-16.27c-3.16,0-5.44.94-6.8,2.79-3,4.09-.67,11.49-.18,12.9,10.68-4,16.75-8.43,16.24-11.76-.32-2.13-3.5-3.63-8.29-3.9Z" style="fill:#263238"></path><path d="M397.08,187s-2.15,3.41-9.82,4.8c0,0-4-2.33-2.48-5.47,0,0,1.51-.52,1.68-3.46a16.55,16.55,0,0,0-.76-5.39l8.7-5.93s0,.25-.13.71C393.83,174.82,392.73,183.33,397.08,187Z" style="fill:#eec1bb"></path><path d="M394.4,171.59s0,.25-.13.71c-.75,2.85-3,9.56-7.81,10.61a16.55,16.55,0,0,0-.76-5.39Z" style="opacity:0.2;isolation:isolate"></path><path d="M380.13,152c-7.64,2.67-8.67,7.63-6.47,15.7,2.74,10.1,7.38,16.33,16.2,10.88C401.84,171.14,392.83,147.51,380.13,152Z" style="fill:#eec1bb"></path><path d="M378.45,165.51a17.36,17.36,0,0,1-1.11,4,2.21,2.21,0,0,0,2.31.16Z" style="fill:#d4827d"></path><path d="M382.91,163.24c.21.64.72,1,1.14.9s.6-.76.39-1.39-.71-1-1.14-.9S382.71,162.61,382.91,163.24Z" style="fill:#263238"></path><path d="M383.49,161.82l-1.55-.09S383,162.67,383.49,161.82Z" style="fill:#263238"></path><path d="M375,165.66c.2.64.71,1,1.13.9s.6-.76.4-1.39-.72-1-1.14-.9S374.79,165,375,165.66Z" style="fill:#263238"></path><path d="M375.58,164.24l-1.56-.09S375.08,165.08,375.58,164.24Z" style="fill:#263238"></path><path d="M381.14,158.3a.35.35,0,0,1-.32-.2.36.36,0,0,1,.16-.49,4.55,4.55,0,0,1,4.07,0,.37.37,0,0,1,.12.5.36.36,0,0,1-.5.12,3.86,3.86,0,0,0-3.37,0A.29.29,0,0,1,381.14,158.3Z" style="fill:#263238"></path><path d="M372.64,161.62a.4.4,0,0,1-.22-.08.35.35,0,0,1-.07-.5,4.15,4.15,0,0,1,3.13-1.84.35.35,0,0,1,.35.36.32.32,0,0,1-.36.36,3.58,3.58,0,0,0-2.54,1.55A.35.35,0,0,1,372.64,161.62Z" style="fill:#263238"></path><path d="M393,161.92s-5.77-5-6.93-10.07c0,0-17.32-.89-12.68,14.75,0,0-6.26-13.13,6.78-18S399.88,162.9,395.09,171C395.09,171,396.59,165.07,393,161.92Z" style="fill:#263238"></path><path d="M392.32,164a3.55,3.55,0,0,1,2.54-4.33c2.46-.57,5.29,3.9-.2,7.13C393.88,167.24,393.11,166.58,392.32,164Z" style="fill:#eec1bb"></path><path d="M381,173.13a.35.35,0,0,1-.35-.3.37.37,0,0,1,.29-.41,3.82,3.82,0,0,0,3.21-3.49.36.36,0,0,1,.71,0c-.16,3.5-3.76,4.15-3.8,4.15Z" style="fill:#263238"></path><path d="M386.76,176.31l-1.07,0a.25.25,0,0,1-.24-.26.25.25,0,0,1,.26-.24c4,.19,6.93-.68,8.67-2.59a7.41,7.41,0,0,0,1.7-5.47.25.25,0,0,1,.21-.28.25.25,0,0,1,.28.21,7.71,7.71,0,0,1-1.82,5.88C393.07,175.37,390.39,176.31,386.76,176.31Z" style="fill:#263238"></path><polygon points="381.94 200.66 379.65 202.2 380.11 204.98 382.83 203.85 381.94 200.66" style="fill:#407BFF"></polygon><polygon points="373.12 222.41 402.88 224.22 403.62 219.6 372.79 217.53 373.12 222.41" style="fill:#fff;opacity:0.2"></polygon><path d="M406,208.76a123.35,123.35,0,0,0-3.13,15.47c0,.06.08.25.17.58-3.51,4.76-7.65,9.28-11.83,11.42-7.09,3.62-19.05,7.45-26.54,9.68,1.93-5.4,3.61-10.09,5-13.83,8-3,17.75-7,20.88-9.67,4-3.42,12.25-12.79,16.83-18C406.86,205.93,406.42,207.38,406,208.76Z" style="opacity:0.2;isolation:isolate"></path><path d="M412.71,189.45c10.24,6.23-9.54,32.11-20,37.34s-27.92,8.82-27.92,8.82-3.79,6.13-8,6.12-6.58-3.58-7.49-5.13,9.19-6.47,10-6.83,3.23,1.23,3.23,1.23,20.63-6,25.43-10.26,11.6-10.84,14.85-17.92C409,189.45,412.71,189.45,412.71,189.45Z" style="fill:#eec1bb"></path></g></svg>