<svg xmlns="http://www.w3.org/2000/svg" viewBox="0 0 500 500"><g id="freepik--background-complete--inject-20"><rect x="416.78" y="398.49" width="33.12" height="0.25" style="fill:#ebebeb"></rect><rect x="322.53" y="401.21" width="8.69" height="0.25" style="fill:#ebebeb"></rect><rect x="396.59" y="389.21" width="19.19" height="0.25" style="fill:#ebebeb"></rect><rect x="52.46" y="390.89" width="43.19" height="0.25" style="fill:#ebebeb"></rect><rect x="104.56" y="390.89" width="6.33" height="0.25" style="fill:#ebebeb"></rect><rect x="131.47" y="395.11" width="93.68" height="0.25" style="fill:#ebebeb"></rect><path d="M237,337.8H43.92a5.71,5.71,0,0,1-5.71-5.71V60.66A5.71,5.71,0,0,1,43.92,55H237a5.71,5.71,0,0,1,5.71,5.71V332.09A5.71,5.71,0,0,1,237,337.8ZM43.92,55.2a5.47,5.47,0,0,0-5.46,5.46V332.09a5.47,5.47,0,0,0,5.46,5.46H237a5.47,5.47,0,0,0,5.46-5.46V60.66A5.47,5.47,0,0,0,237,55.2Z" style="fill:#ebebeb"></path><path d="M453.31,337.8H260.21a5.72,5.72,0,0,1-5.71-5.71V60.66A5.72,5.72,0,0,1,260.21,55h193.1A5.71,5.71,0,0,1,459,60.66V332.09A5.71,5.71,0,0,1,453.31,337.8ZM260.21,55.2a5.47,5.47,0,0,0-5.46,5.46V332.09a5.47,5.47,0,0,0,5.46,5.46h193.1a5.47,5.47,0,0,0,5.46-5.46V60.66a5.47,5.47,0,0,0-5.46-5.46Z" style="fill:#ebebeb"></path><rect y="382.4" width="500" height="0.25" style="fill:#ebebeb"></rect><path d="M136.8,227.12c-8.66-9.1-19.52-12.22-27.48-8.82a6.3,6.3,0,0,1-6.88-1.27c-9.63-9.31-25.24-10.41-31.72-1.63a17.75,17.75,0,0,0-1.86,3.15A10.78,10.78,0,0,1,65,223a11.32,11.32,0,0,0-3,2.8,16.15,16.15,0,0,0-2.79,10.33,2.81,2.81,0,0,1-1.6,2.71,11.13,11.13,0,0,0-4.45,3.63c-5.25,7.1-2.93,19.77,5.17,28.29,7.22,7.6,16.59,9.33,22.26,4.59a1.34,1.34,0,0,1,1.71,0c4.08,3.27,8.82,3.29,11.29-.26h0a1.35,1.35,0,0,1,2-.24c4.2,3.76,9.29,4,11.88.24a7.7,7.7,0,0,0,1-2.2,1.34,1.34,0,0,1,1.73-.88c2.75,1,5.45.56,7.28-1.38a1.29,1.29,0,0,1,1.55-.24c9.44,5,19.38,4.06,24.91-3.44C151.46,257,148.2,239.12,136.8,227.12Z" style="fill:#f0f0f0"></path><path d="M73.17,280.48l7.72,7.17c-.62,10.11-1.12,33.4-1.12,33.4L77,337.33l24.19.22s-1.1-13.75-1.1-14.5S95.43,296,95.43,296l-1.65-14.75,12.47-3.81,2.28-6.57,9.17-5.19,4.48-6.87-1.74-.43-4.94,6.36L109.73,266l2.47-5.85h-2.75l-6.87,13.56-8.85,1.81,1.15-19c-8.52,2.67-9.34-2.21-9.34-2.21s-2.93,25.62-4,28.54L77,280.48l-5-7.81h-2.2Z" style="fill:#e6e6e6"></path><polygon points="376.44 223.24 378.3 336.81 386.54 336.81 434.44 336.81 442.69 336.81 442.44 223.24 376.44 223.24" style="fill:#f5f5f5"></polygon><polygon points="380.56 226.57 380.78 240.57 380.84 244.4 380.9 248.23 389.43 248.23 389.38 244.4 389.33 240.57 389.13 226.57 380.56 226.57" style="fill:#e6e6e6"></polygon><polygon points="396.96 226.57 397.13 240.57 397.17 244.4 397.22 248.23 405.75 248.23 405.71 244.4 405.68 240.57 405.53 226.57 396.96 226.57" style="fill:#e6e6e6"></polygon><polygon points="413.36 226.57 413.47 240.57 413.51 244.4 413.54 248.23 422.07 248.23 422.05 244.4 422.02 240.57 421.93 226.57 413.36 226.57" style="fill:#e6e6e6"></polygon><polygon points="429.75 226.57 429.82 240.57 429.85 246.49 429.86 248.23 438.39 248.23 438.39 246.49 438.37 240.57 438.33 226.57 429.75 226.57" style="fill:#e6e6e6"></polygon><polygon points="381.06 254.54 381.28 268.41 381.34 272.22 381.39 276.01 389.91 276.01 389.86 272.22 389.81 268.41 389.62 254.54 381.06 254.54" style="fill:#e6e6e6"></polygon><polygon points="397.35 254.54 397.52 268.41 397.58 273.77 397.61 276.01 406.13 276.01 406.1 273.77 406.05 268.41 405.91 254.54 397.35 254.54" style="fill:#e6e6e6"></polygon><polygon points="413.64 254.54 413.76 268.41 413.8 272.22 413.83 276.01 422.34 276.01 422.32 272.22 422.29 268.41 422.2 254.54 413.64 254.54" style="fill:#e6e6e6"></polygon><polygon points="429.94 254.54 430.01 268.41 430.02 272.22 430.04 276.01 438.56 276.01 438.55 272.22 438.54 268.41 438.5 254.54 429.94 254.54" style="fill:#e6e6e6"></polygon><polygon points="381.53 281.97 381.74 295.69 381.8 299.44 381.86 303.2 390.33 303.2 390.28 299.44 390.23 295.69 390.04 281.97 381.53 281.97" style="fill:#e6e6e6"></polygon><polygon points="397.72 281.97 397.88 295.69 397.93 299.44 397.97 303.2 406.44 303.2 406.41 299.44 406.37 295.69 406.23 281.97 397.72 281.97" style="fill:#e6e6e6"></polygon><polygon points="413.91 281.97 414.03 295.69 414.06 299.44 414.09 303.2 422.56 303.2 422.54 299.44 422.51 295.69 422.42 281.97 413.91 281.97" style="fill:#e6e6e6"></polygon><polygon points="430.1 281.97 430.17 295.69 430.19 300.88 430.2 303.2 438.68 303.2 438.67 300.88 438.65 295.69 438.62 281.97 430.1 281.97" style="fill:#e6e6e6"></polygon><polygon points="434.62 308.82 430.43 308.82 422.59 308.82 414.21 308.82 406.37 308.82 398 308.82 381.78 308.82 381.89 316.21 398.08 316.21 406.44 316.21 414.27 316.21 422.63 316.21 430.47 316.21 434.65 316.21 438.83 316.21 438.81 308.82 434.62 308.82" style="fill:#e6e6e6"></polygon><polygon points="422.5 321.68 398.15 321.68 398.12 323.48 398.86 323.48 399.02 336.81 401.45 336.81 401.29 323.48 419.36 323.48 419.45 336.81 421.88 336.81 421.8 323.48 422.47 323.48 422.5 321.68" style="fill:#fafafa"></polygon><polygon points="410.56 336.81 401.56 336.81 401.4 323.48 410.44 323.48 410.56 336.81" style="fill:#e6e6e6"></polygon><polygon points="419.34 336.81 410.34 336.81 410.21 323.48 419.25 323.48 419.34 336.81" style="fill:#e6e6e6"></polygon><rect x="45.23" y="342.17" width="409.54" height="35.29" style="fill:#f5f5f5"></rect><path d="M213.64,148.66,98.2,141.5c-14.85-1.09-23.9-25.88-9.37-30.23l.56-.16c-21.69-20.55,13.47-56.22,55,4.22-2.62-15.65,48.58-5.16,54.66,14.2C203.16,118.27,222.49,139.89,213.64,148.66Z" style="fill:#f0f0f0"></path><path d="M358.54,121.31l40.29-2.43s9.24-4.13,7.44-13.48-15.57-.64-15.57-.64,3.53-13.41-10.06-8.84a20.48,20.48,0,0,0-14.15,17.68S348.16,111.53,358.54,121.31Z" style="fill:#f0f0f0"></path><polygon points="316.77 185.7 320.12 187.53 316.77 189.36 314.95 192.7 313.12 189.36 309.78 187.53 313.12 185.7 314.95 182.36 316.77 185.7" style="fill:#f0f0f0"></polygon><polygon points="329.42 181.11 331.09 182.02 329.42 182.93 328.51 184.6 327.6 182.93 325.93 182.02 327.6 181.11 328.51 179.44 329.42 181.11" style="fill:#ebebeb"></polygon><polygon points="59.83 127.52 63.17 129.35 59.83 131.18 58.01 134.52 56.18 131.18 52.84 129.35 56.18 127.52 58.01 124.18 59.83 127.52" style="fill:#f0f0f0"></polygon><polygon points="72.48 122.93 74.15 123.84 72.48 124.75 71.57 126.42 70.66 124.75 68.99 123.84 70.66 122.93 71.57 121.26 72.48 122.93" style="fill:#ebebeb"></polygon><polygon points="406.87 82.68 406.17 86.42 403.39 83.81 399.65 83.11 402.26 80.34 402.96 76.6 405.73 79.21 409.48 79.91 406.87 82.68" style="fill:#f0f0f0"></polygon><polygon points="415.16 93.28 414.81 95.15 413.43 93.85 411.56 93.5 412.86 92.11 413.21 90.24 414.59 91.55 416.46 91.9 415.16 93.28" style="fill:#ebebeb"></polygon><polygon points="210.61 95.53 209.84 99.26 207.11 96.61 203.38 95.84 206.04 93.11 206.8 89.38 209.53 92.04 213.26 92.8 210.61 95.53" style="fill:#f0f0f0"></polygon><polygon points="218.72 106.27 218.34 108.13 216.97 106.81 215.11 106.43 216.44 105.06 216.82 103.2 218.18 104.53 220.04 104.91 218.72 106.27" style="fill:#ebebeb"></polygon><polygon points="169 130.78 171.08 131.92 169 133.05 167.87 135.13 166.73 133.05 164.66 131.92 166.73 130.78 167.87 128.71 169 130.78" style="fill:#f0f0f0"></polygon><polygon points="441.04 114.73 443.11 115.87 441.04 117 439.9 119.08 438.77 117 436.69 115.87 438.77 114.73 439.9 112.66 441.04 114.73" style="fill:#f0f0f0"></polygon><polygon points="146.59 85.69 148.66 86.82 146.59 87.96 145.45 90.03 144.32 87.96 142.24 86.82 144.32 85.69 145.45 83.61 146.59 85.69" style="fill:#f0f0f0"></polygon><polygon points="436.71 142.58 438.79 143.71 436.71 144.85 435.58 146.92 434.44 144.85 432.37 143.71 434.44 142.58 435.58 140.5 436.71 142.58" style="fill:#f0f0f0"></polygon><circle cx="288.7" cy="99.07" r="26.02" style="fill:#f5f5f5"></circle></g><g id="freepik--Shadow--inject-20"><ellipse id="freepik--path--inject-20" cx="245.18" cy="412.39" rx="193.89" ry="11.32" style="fill:#f5f5f5"></ellipse></g><g id="freepik--senso-ji-temple--inject-20"><polygon points="399.26 211.07 399.26 223.18 394.7 225.51 394.7 227.76 167.62 227.76 167.62 225.51 163.61 223.41 163.61 211.07 399.26 211.07" style="fill:#263238"></polygon><g style="opacity:0.5"><polygon points="399.26 211.07 399.26 223.18 394.7 225.51 394.7 227.76 167.62 227.76 167.62 225.51 163.61 223.41 163.61 211.07 399.26 211.07" style="fill:#fff"></polygon></g><polygon points="403.36 213.17 159.44 213.17 151.26 196.99 411.55 196.99 403.36 213.17" style="fill:#407BFF"></polygon><rect x="196.08" y="212.93" width="6.22" height="15.34" style="fill:#407BFF"></rect><polygon points="230.4 212.06 230.4 222.76 225.12 222.76 225.12 211.99 226.95 211.99 230.4 212.06" style="fill:#407BFF"></polygon><polygon points="240.08 212.22 240.08 221.39 232.02 225.51 232.02 227.8 223.5 227.8 223.5 225.51 215.21 221.16 215.21 211.99 225.12 211.99 225.12 214.51 220.74 214.51 220.74 219.78 225.12 219.78 225.12 222.76 230.4 222.76 230.4 219.78 234.55 219.78 234.55 214.51 230.4 214.51 230.4 212.06 240.08 212.22" style="fill:#407BFF"></polygon><polygon points="184.19 212.22 184.19 221.39 176.13 225.51 176.13 227.8 167.62 227.8 167.62 225.51 163.61 223.41 159.32 221.16 159.32 211.99 169.23 211.99 169.23 214.51 164.85 214.51 164.85 219.78 169.23 219.78 169.23 222.76 174.52 222.76 174.52 219.78 178.66 219.78 178.66 214.51 174.52 214.51 174.52 212.06 174.66 212.06 184.19 212.22" style="fill:#407BFF"></polygon><rect x="168.68" y="211.77" width="5.99" height="10.99" style="fill:#407BFF"></rect><rect x="358.76" y="212.46" width="6.22" height="15.34" style="fill:#407BFF"></rect><polygon points="393.09 212.06 393.09 222.76 387.8 222.76 387.8 211.99 389.64 211.99 393.09 212.06" style="fill:#407BFF"></polygon><polygon points="402.76 212.22 402.76 221.39 399.26 223.18 394.7 225.51 394.7 227.8 386.19 227.8 386.19 225.51 377.89 221.16 377.89 211.99 387.8 211.99 387.8 214.51 383.42 214.51 383.42 219.78 387.8 219.78 387.8 222.76 393.09 222.76 393.09 219.78 397.24 219.78 397.24 214.51 393.09 214.51 393.09 212.06 399.26 212.16 402.76 212.22" style="fill:#407BFF"></polygon><polygon points="346.88 212.22 346.88 221.39 338.82 225.51 338.82 227.8 330.3 227.8 330.3 225.51 322.01 221.16 322.01 211.99 331.92 211.99 331.92 214.51 327.54 214.51 327.54 219.78 331.92 219.78 331.92 222.76 337.2 222.76 337.2 219.78 341.35 219.78 341.35 214.51 337.2 214.51 337.2 212.06 346.88 212.22" style="fill:#407BFF"></polygon><rect x="331.36" y="211.77" width="5.99" height="10.99" style="fill:#407BFF"></rect><polygon points="240.1 215.66 161.94 215.2 161.94 211.76 247.24 211.76 240.1 215.66" style="fill:#407BFF"></polygon><polygon points="321.82 215.66 397.92 215.2 397.92 211.76 314.68 211.76 321.82 215.66" style="fill:#407BFF"></polygon><rect x="232.53" y="237.19" width="97.02" height="12.23" style="fill:#407BFF"></rect><g style="opacity:0.5"><rect x="232.53" y="237.19" width="97.02" height="12.23"></rect></g><path d="M374.56,263.25v-4.31h-3v-14.6h-2.89v-.18h-4.52v.18H324.78v-.18h-4.51v.18h-3.08l-1.24.05a3.21,3.21,0,0,0-2.74,1.84l-.23.51-1.36.25a3.2,3.2,0,0,0-2.17,1.53l-.31,1.82h8.05v8.59h-3.11v4.31h3.11v38h-3.11v4.3h3.11v21.93H317v10.41h10.47v-7.4h33.75v-.18h10.28V305.58h3v-4.3h-3v-38Z" style="fill:#407BFF"></path><g style="opacity:0.5"><path d="M374.56,263.25v-4.31h-3v-14.6h-2.89v-.18h-4.52v.18H324.78v-.18h-4.51v.18h-3.08l-1.24.05a3.21,3.21,0,0,0-2.74,1.84l-.23.51-1.36.25a3.2,3.2,0,0,0-2.17,1.53l-.31,1.82h8.05v8.59h-3.11v4.31h3.11v38h-3.11v4.3h3.11v21.93H317v10.41l10.47-.2,33.75-7.2v-.18h10.28V305.58h3v-4.3h-3v-38Z"></path></g><path d="M187.56,263.5v-4.31h3v-14.6h2.89v-.18H198v.18h39.34v-.18h4.51v.18h3.07l1.24.05a3.18,3.18,0,0,1,2.74,1.84l.24.51,1.35.25a3.16,3.16,0,0,1,2.17,1.53l.32,1.82h-8.06v8.59H248v4.31h-3.12v38H248v4.3h-3.12V326.9h.18v10.41H234.63v.18l-33.76-6.72v-.18H190.6V305.83h-3v-4.3h3v-38Z" style="fill:#407BFF"></path><g style="opacity:0.5"><path d="M187.56,263.5v-4.31h3v-14.6h2.89v-.18H198v.18h39.34v-.18h4.51v.18h3.07l1.24.05a3.18,3.18,0,0,1,2.74,1.84l.24.51,1.35.25a3.16,3.16,0,0,1,2.17,1.53l.32,1.82h-8.06v8.59H248v4.31h-3.12v38H248v4.3h-3.12V326.9h.18v10.41H234.63v.18l-33.76-6.72v-.18H190.6V305.83h-3v-4.3h3v-38Z"></path></g><rect x="271.47" y="291.62" width="19.66" height="11.38" style="fill:#263238"></rect><rect x="271.47" y="236" width="19.66" height="11.38" style="fill:#263238"></rect><path d="M311,261.86l0,11.5a25.69,25.69,0,0,1-7.37,18c-2.77,2.81-5.82,5.24-8.21,5.41-5.83.41-14.14.41-14.14.41s-8.33,0-14.15-.41c-2.19-.16-5-2.2-7.65-4.69a25.71,25.71,0,0,1-8.08-19.69l.38-10.91a15.45,15.45,0,0,1,8-14l9.83-5.31c.83-.84,11.65-.42,11.65-.42s10.81-.42,11.65.42l10.11,5.5A15.46,15.46,0,0,1,311,261.86Z" style="fill:#407BFF"></path><path d="M293.29,266.69l-1.32.75-.72.06,1.28-1.79-.65-2v-4.13l.76-1.74-.59-.57,0,0-.33-2.94-.3-.45a.66.66,0,0,0-1.12,0L288,254v-2h3.5l1.82,6.59,2.53-3.8s-1.62-2.43-2.53-4.15a2.91,2.91,0,0,0-.2-.35l.51.26-2.07-4.25-.43.19-.6.27.12.68v0H271.44l0-.16.1-.56-.1,0-.94-.41-2.07,4.25.72-.36q-.12.18-.27.45c-.91,1.72-2.52,4.15-2.52,4.15l2.52,3.8,1-3.79,1.35,1.84.09,0-1.4,1.33.76,1.74v4.13l-.65,2,1.3,1.82-1.5-.11-.57-.84c-.55.36-2.88,2.43-2.88,2.43l.8,1.27.11,15.45-2.08.1s2.83,3.85,4.79,3.85a1.3,1.3,0,0,0,1.1-.6c.42-.59.13-12.71.13-12.71s2.11-.2,3.63-.2c.85,0,1.51.06,1.51.26a3.16,3.16,0,0,0,2.44,1.43,1.19,1.19,0,0,0,1.2-1.06c.55-2.36,0-8.87,0-8.87l-1.67-1.24-1.6,1.24-2.64-.19-1.12-.08.94-1.35h14.64l.92,1.31-1.86.14-2.27.17-1.54-1.13-1.72,1.13s-.55,6.51,0,8.87a1.18,1.18,0,0,0,1.2,1.06,3.16,3.16,0,0,0,2.43-1.43c0-.18.61-.24,1.42-.24,1.61,0,4,.24,4,.24a31.24,31.24,0,0,1,.06,9.84,1.09,1.09,0,0,0-.36,0H290a25.54,25.54,0,0,1-7.65-1.08,16.94,16.94,0,0,0-4-1c-1.15,0,.52,1.11.52,1.11s5.88,3.59,11.57,4c.88.07.79.79,1.24.79a.62.62,0,0,0,.18,0,11.44,11.44,0,0,0,3.94-2.29l0-16.49,1-.48A51.92,51.92,0,0,0,293.29,266.69ZM283,249.14h8l.9.45-.08.09-.24.84V250H283Zm0,2.8h2.91v2l-2.91,0Zm-11.86-2.8h7.95v.9h-8.36v.61l-.27-1a.81.81,0,0,0-.15-.13Zm7.95,2.8v2l-3.18,0v-1.94ZM271,253.31l-.7.27.46-1.64h3.08v1.92h-1.09Zm5,21.31h-4.82V273H276Zm0-4.7v1.58h-4.82v-1.58Zm-2.22-12.68-1-1.14.89-.29,5.38,0v1.39Zm5.4,7h-5v-1.36h5Zm0-3.44h-5v-1.47h5Zm9.28,3.44h-5.64v-1.36h5.64Zm0-3.44h-5.64v-1.47h5.64Zm.4-3.55H283v-1.36l6.68,0,.19.11Zm2.21,17.38h-4.81V273h4.81Zm0-3.12h-4.81v-1.58h4.81Z" style="fill:#263238"></path><polygon points="283.58 256.65 288.59 256.65 288.72 256.5 283.58 256.46 283.58 256.65" style="fill:#fff"></polygon><rect x="283.4" y="259.9" width="4.47" height="0.31" style="fill:#fff"></rect><polygon points="278.5 252.52 276.5 252.52 276.5 253.3 278.5 253.31 278.5 252.52" style="fill:#fff"></polygon><rect x="283.4" y="263.45" width="4.47" height="0.19" style="fill:#fff"></rect><polygon points="274.05 256.65 278.5 256.65 278.5 256.43 273.84 256.4 274.05 256.65" style="fill:#fff"></polygon><rect x="271.77" y="273.62" width="3.64" height="0.42" style="fill:#fff"></rect><rect x="274.77" y="259.9" width="3.83" height="0.31" style="fill:#fff"></rect><rect x="274.77" y="263.45" width="3.83" height="0.19" style="fill:#fff"></rect><polygon points="273.23 253.28 273.23 252.52 271.18 252.52 271.12 252.75 272.82 253.27 273.23 253.28" style="fill:#fff"></polygon><path d="M288.58,253.37h1.5a1.22,1.22,0,0,1,.83-.31,1.65,1.65,0,0,1,.31,0l-.17-.59h-2.47Z" style="fill:#fff"></path><rect x="271.77" y="270.5" width="3.64" height="0.42" style="fill:#fff"></rect><polygon points="276.64 267.33 277.21 266.89 274.3 266.89 274.12 267.15 276.64 267.33" style="fill:#fff"></polygon><polygon points="270.2 256.06 269.9 257.17 270.56 256.54 270.2 256.06" style="fill:#fff"></polygon><path d="M298.62,271.26l-.9-1.15a30.83,30.83,0,0,0-3.79-4.4l-.21-.13-.07-.24-.6-1.78v-2.5l1.25-1.89,2.52-3.8.43-.64-.43-.64-.65-1,0,0L294.68,250l-2.06-4.24-.49-1-1,.45-.42.18-.61.27-.84.37,0,.26H272.83l.05-.27-.85-.36-.1,0-.93-.4-1-.45-.49,1L267.41,250l-1.51,3.11.23-.12c-.41.65-.71,1.11-.72,1.12l-.43.64.43.64,2.53,3.8,1.42,2.15.23-.84v3.09l-.59,1.77,0,.1-.25.16c-.59.38-2.47,2-3,2.55l-.74.66.53.83.62,1,.1,14-1,.05-2.16.11,1.28,1.74c.53.72,3.29,4.32,5.73,4.32a2.48,2.48,0,0,0,2.05-1.09c.28-.39.49-.67.44-7.25,0-1.95,0-3.89-.07-5.06.72-.05,1.67-.11,2.44-.11l.68,0a3.73,3.73,0,0,0,1,.9,4.39,4.39,0,0,0,2.27.78,2.3,2.3,0,0,0,2.24-1.63,2.28,2.28,0,0,0,2.24,1.63,4.31,4.31,0,0,0,2.26-.78,4,4,0,0,0,1-.88l.59,0c.94,0,2.18.09,3,.16a30.26,30.26,0,0,1,.1,7.58H290a23.73,23.73,0,0,1-7.29-1,16,16,0,0,0-4.39-1.05,1.42,1.42,0,0,0-1.52,1c-.31,1,.65,1.78,1.39,2.27l0,0h0c.25.15,6.16,3.73,12.05,4.19l0,0a1.64,1.64,0,0,0,1.35.77,1.93,1.93,0,0,0,.52-.08,12.56,12.56,0,0,0,4.4-2.55l.37-.35v-.5l0-15.75.35-.16Zm-2.27.41,0,16.37-.18.18a11.92,11.92,0,0,1-4.17,2.41,1.12,1.12,0,0,1-.35.06h0a1.09,1.09,0,0,1-.88-.53c-.13-.18-.17-.25-.41-.27-5.76-.44-11.58-4-11.83-4.11-1.39-.92-1.23-1.44-1.17-1.63s.31-.55,1-.55a17.77,17.77,0,0,1,4.21,1,24.28,24.28,0,0,0,7.47,1.06h.79a30.66,30.66,0,0,0-.08-8.69c-.77-.07-2.38-.2-3.53-.2a6.57,6.57,0,0,0-.94.05,4,4,0,0,1-2.91,1.62,1.76,1.76,0,0,1-1.77-1.51c-.57-2.42,0-8.78,0-9.05l0-.28,1.09-.71h-3l1,.73,0,.26c0,.27.55,6.63,0,9.05a1.77,1.77,0,0,1-1.77,1.51,3.93,3.93,0,0,1-2.92-1.63,5.67,5.67,0,0,0-1-.06c-1,0-2.31.1-3,.15.27,11.79-.12,12.33-.25,12.52a1.9,1.9,0,0,1-1.58.84c-2.2,0-4.95-3.67-5.26-4.08l-.64-.87,2.6-.14-.1-14.72-1-1.54.37-.33c.24-.21,2.38-2.12,2.95-2.49l.44-.28h0l.71-2.15v-3.92l-.6-1.38-.43,1.57-3.45-5.2.21-.32s1-1.46,1.81-2.89l-.53.27,3.07-6.31,1.46.64.51.22-.08.5H290l-.09-.49,1-.45.94-.41,3.07,6.3-.32-.17c.82,1.4,1.73,2.77,1.75,2.79l.21.32-3.45,5.2-.28-1-.36.82v3.92l.72,2.15-.33.46.46-.26.3.19a41.43,41.43,0,0,1,3.65,4.27l.45.57Z" style="fill:#fff"></path><polygon points="287.65 267.18 288.5 267.12 288.34 266.89 284.99 266.89 285.61 267.33 287.65 267.18" style="fill:#fff"></polygon><rect x="286.85" y="273.62" width="3.64" height="0.42" style="fill:#fff"></rect><rect x="286.85" y="270.5" width="3.64" height="0.42" style="fill:#fff"></rect><polygon points="283.58 253.34 285.32 253.35 285.32 252.52 283.58 252.52 283.58 253.34" style="fill:#fff"></polygon><path d="M270.46,249.68l.27,1V250h8.36v-.9h-7.95l-.83.41A.81.81,0,0,1,270.46,249.68Z" style="fill:#fff"></path><path d="M271.18,274.62H276V273h-4.82Zm.59-1h3.64V274h-3.64Z" style="fill:#fff"></path><path d="M291.54,250.52l.24-.84.08-.09-.9-.45h-8v.9h8.54Z" style="fill:#fff"></path><path d="M273.82,253.86v-1.92h-3.08l-.46,1.64.7-.27,1.75.54Zm-2.64-1.34h2.05v.76h-.41l-1.7-.52Z" style="fill:#fff"></path><path d="M285.91,251.94H283v2l2.91,0Zm-.59,1.41h-1.74v-.82h1.74Z" style="fill:#fff"></path><path d="M279.09,253.9v-2h-3.18v1.94Zm-2.59-1.38h2v.79h-2Z" style="fill:#fff"></path><path d="M271.18,271.5H276v-1.58h-4.82Zm.59-1h3.64v.42h-3.64Z" style="fill:#fff"></path><path d="M286.26,274.62h4.81V273h-4.81Zm.59-1h3.64V274h-3.64Z" style="fill:#fff"></path><path d="M282.82,260.79h5.64v-1.47h-5.64Zm.58-.89h4.47v.31H283.4Z" style="fill:#fff"></path><path d="M297.26,270.47a41.43,41.43,0,0,0-3.65-4.27l-.3-.19-.46.26.33-.46-.72-2.15v-3.92l.36-.82.28,1,3.45-5.2-.21-.32s-.93-1.39-1.75-2.79l.32.17-3.07-6.3-.94.41-1,.45.09.49H272.14l.08-.5-.51-.22-1.46-.64-3.07,6.31.53-.27c-.84,1.43-1.8,2.87-1.81,2.89l-.21.32,3.45,5.2.43-1.57.6,1.38v3.92l-.71,2.15h0l-.44.28c-.57.37-2.71,2.28-2.95,2.49l-.37.33,1,1.54.1,14.72-2.6.14.64.87c.31.41,3.06,4.08,5.26,4.08a1.9,1.9,0,0,0,1.58-.84c.13-.19.52-.73.25-12.52.72,0,2-.15,3-.15a5.67,5.67,0,0,1,1,.06,3.93,3.93,0,0,0,2.92,1.63,1.77,1.77,0,0,0,1.77-1.51c.56-2.42,0-8.78,0-9.05l0-.26-1-.73h3l-1.09.71,0,.28c0,.27-.56,6.63,0,9.05a1.76,1.76,0,0,0,1.77,1.51,4,4,0,0,0,2.91-1.62,6.57,6.57,0,0,1,.94-.05c1.15,0,2.76.13,3.53.2a30.66,30.66,0,0,1,.08,8.69H290a24.28,24.28,0,0,1-7.47-1.06,17.77,17.77,0,0,0-4.21-1c-.65,0-.88.3-1,.55s-.22.71,1.17,1.63c.25.15,6.07,3.67,11.83,4.11.24,0,.28.09.41.27a1.09,1.09,0,0,0,.88.53h0a1.12,1.12,0,0,0,.35-.06,11.92,11.92,0,0,0,4.17-2.41l.18-.18,0-16.37,1.36-.63Zm-1.49.83,0,16.49a11.44,11.44,0,0,1-3.94,2.29.62.62,0,0,1-.18,0c-.45,0-.36-.72-1.24-.79-5.69-.43-11.57-4-11.57-4s-1.67-1.11-.52-1.11a16.94,16.94,0,0,1,4,1,25.54,25.54,0,0,0,7.65,1.08H291a1.09,1.09,0,0,1,.36,0,31.24,31.24,0,0,0-.06-9.84s-2.43-.24-4-.24c-.81,0-1.42.06-1.42.24a3.16,3.16,0,0,1-2.43,1.43,1.18,1.18,0,0,1-1.2-1.06c-.55-2.36,0-8.87,0-8.87l1.72-1.13,1.54,1.13,2.27-.17,1.86-.14-.92-1.31H274l-.94,1.35,1.12.08,2.64.19,1.6-1.24,1.67,1.24s.55,6.51,0,8.87a1.19,1.19,0,0,1-1.2,1.06,3.16,3.16,0,0,1-2.44-1.43c0-.2-.66-.26-1.51-.26-1.52,0-3.63.2-3.63.2s.29,12.12-.13,12.71a1.3,1.3,0,0,1-1.1.6c-2,0-4.79-3.85-4.79-3.85l2.08-.1-.11-15.45-.8-1.27s2.33-2.07,2.88-2.43l.57.84,1.5.11-1.3-1.82.65-2v-4.13l-.76-1.74,1.4-1.33-.09,0L270,254.74l-1,3.79-2.52-3.8s1.61-2.43,2.52-4.15q.15-.27.27-.45l-.72.36,2.07-4.25.94.41.1,0-.1.56,0,.16h19.21v0l-.12-.68.6-.27.43-.19,2.07,4.25-.51-.26a2.91,2.91,0,0,1,.2.35c.91,1.72,2.53,4.15,2.53,4.15l-2.53,3.8-1.82-6.59H288v2l2.34,0a.66.66,0,0,1,1.12,0l.3.45.33,2.94,0,0,.59.57-.76,1.74v4.13l.65,2-1.28,1.79.72-.06,1.32-.75a51.92,51.92,0,0,1,3.5,4.13ZM285,266.89h3.35l.15.23-.84.06-2,.15Zm-7.78,0-.57.44-2.52-.18.18-.26Zm-7.31-9.72.3-1.11.36.48Zm21.32-4.06a1.65,1.65,0,0,0-.31,0,1.22,1.22,0,0,0-.83.31h-1.5v-.85h2.47Z" style="fill:#fff"></path><path d="M286.26,271.5h4.81v-1.58h-4.81Zm.59-1h3.64v.42h-3.64Z" style="fill:#fff"></path><path d="M289.68,255.92l-6.68,0v1.36h5.86l1-1.21Zm-1.09.73h-5v-.19l5.14,0Z" style="fill:#fff"></path><path d="M279.09,255.85l-5.38,0-.89.29,1,1.14h5.31Zm-.59.8h-4.45l-.21-.25,4.66,0Z" style="fill:#fff"></path><path d="M274.18,264.23h5v-1.36h-5Zm.59-.78h3.83v.2h-3.83Z" style="fill:#fff"></path><path d="M274.18,260.79h5v-1.47h-5Zm.59-.89h3.83v.31h-3.83Z" style="fill:#fff"></path><path d="M282.82,264.23h5.64v-1.36h-5.64Zm.58-.78h4.47v.2H283.4Z" style="fill:#fff"></path><rect x="340.07" y="227.8" width="44.07" height="9.16" style="fill:#407BFF"></rect><rect x="229.86" y="228.03" width="101.97" height="9.16" style="fill:#407BFF"></rect><rect x="339.01" y="234.23" width="45.56" height="98.58" style="fill:#407BFF"></rect><g style="opacity:0.5"><rect x="339.01" y="234.23" width="45.56" height="98.58"></rect></g><path d="M365.8,255.21v0l.08-.06Z" style="fill:#263238"></path><path d="M379.89,294.85a3.49,3.49,0,0,0-2.34-2,3.53,3.53,0,0,0-3,.68,7,7,0,0,1-2.06-.9,4.79,4.79,0,0,0-.88-.36,4.88,4.88,0,0,0,.49-2.31,2.66,2.66,0,0,0-.13-.61,2.2,2.2,0,0,1,.66.73c0-.08,0-.15,0-.22s-.07-3.37,0-5.54c0,.31,0,.62,0,.92a33.45,33.45,0,0,0,3.53,3.71,2.94,2.94,0,0,0,1.34.84,1,1,0,0,0,1.24-.73,1.55,1.55,0,0,0,1.53.12,1.54,1.54,0,0,0,.81-1.29c-.93-.19-2-.31-3-.5a2,2,0,0,0,1.37-1.53,1.92,1.92,0,0,0-.65-1.89,2.46,2.46,0,0,1-1.48,1.82,2.54,2.54,0,0,1-2.38-.16,6.07,6.07,0,0,0-1.48-5,11,11,0,0,0-4.37-2.95l.21-.34a3.73,3.73,0,0,0,.2-2.5,3.55,3.55,0,0,0-.6-1.4,1.81,1.81,0,0,1,1-.38c0-.08,0-.16,0-.23.33.34,0,1,.12,1.42a1.71,1.71,0,0,0,2.06,1.28,3.1,3.1,0,0,0,.72,2.84,3.71,3.71,0,0,0,2.57,1.08,2.17,2.17,0,0,0,1.69-.56,2.82,2.82,0,0,0,.29-2.44,3.89,3.89,0,0,0,1.06-2,1.34,1.34,0,0,0,0-.66.59.59,0,0,0-.45-.44.7.7,0,0,0-.69.48c-.12.28-.15.59-.27.87a.72.72,0,0,1-.68.5,9.32,9.32,0,0,0-3.91-4.3c-.41-.22-.83-.47-1.24-.73a3.2,3.2,0,0,1,1.89,1c1.55-.27,2.67-2.07,2.82-3.64a5.12,5.12,0,0,0-1.83-4.18,7.45,7.45,0,0,0-3.3-1.58,8.92,8.92,0,0,0,.25-1.25,2.9,2.9,0,0,0-.29-2,3.14,3.14,0,0,0-2.82-1.06,11.38,11.38,0,0,0-2.56.37,3,3,0,0,1,.16-.66c.22-.7.09-1.35.3-2.05a3.2,3.2,0,0,1-1.28.63,2.28,2.28,0,0,1,.22-.84c0-.1.07-.2.1-.3a2.78,2.78,0,0,0-1.34,1.28,1.85,1.85,0,0,1-.3.51.45.45,0,0,1-.54.1c-.25-.18-.11-.55,0-.81a1.68,1.68,0,0,0-1.1,1.59c0,.49.24,1,0,1.44a.72.72,0,0,1-.95.2.75.75,0,0,1-.23-1,1.42,1.42,0,0,0-.9.9c-.06-.3.17-.62.33-.89A2.26,2.26,0,0,0,359,261a1.21,1.21,0,0,1,.07.71,20.8,20.8,0,0,0-6.08.63,6.88,6.88,0,0,0-2.82,1.27,3.06,3.06,0,0,0-1.18,2.74,2,2,0,0,0,2.24,1.67,2.31,2.31,0,0,0,.91.39c-.52.58-1,1.17-1.49,1.79a1.52,1.52,0,0,0,.35-.63.74.74,0,0,0-.3-.79.93.93,0,0,0-1,.27,2.88,2.88,0,0,0-.95,2,7.82,7.82,0,0,0-3.42,3.29,6.63,6.63,0,0,0-.77,2.6c-.21.08-.42.17-.62.27a2.52,2.52,0,0,0-1.31,1.36,1.89,1.89,0,0,0,.85,2.18,1.92,1.92,0,0,0,2.3-.4c1.46-1.64,3.67-2.54,5.66-3.48.6-.28,1.28-.63,1.45-1.26a3.71,3.71,0,0,0,3.48-.46l.21,0,.3,2.29a2.15,2.15,0,0,0,2,2c0-.2,0-.41,0-.62.08.12.16.23.25.34a2.5,2.5,0,0,0-.5.66.87.87,0,0,0-.31.1c-.21-.27-.54-.37-.74-.66a7.35,7.35,0,0,0-4.77,8.41,5,5,0,0,0-.37.42l-.15,1.13a5.56,5.56,0,0,0-1.2.37,14,14,0,0,0-6.29,6,27.08,27.08,0,0,0-2.14,4.44c.1.19.46.07.42-.14a58.22,58.22,0,0,0,11.25.83c3.6-.19,7.18-1.05,10.78-.81,2.48.16,4.89.85,7.36,1.17a11.64,11.64,0,0,0,7.26-.95c1.44-.81,1.29-3.11.28-4.42A4.43,4.43,0,0,0,379.89,294.85Zm-28.25-21.28-.29.25s0,0,0-.05a29.75,29.75,0,0,1,4.45-3.78c0,.09.06.19.08.28A33.71,33.71,0,0,0,351.64,273.57Zm2-6.68a2.9,2.9,0,0,1-1.61-.69,1.19,1.19,0,0,1-.27-1.45,1.72,1.72,0,0,1,1.52-.49l3.53.05A28.1,28.1,0,0,0,353.62,266.89Zm4.87,13.19s0-.06,0-.07A.43.43,0,0,0,358.49,280.08Zm1.57-12.34a9.85,9.85,0,0,1-1.64,1l-.09.05c0-.11,0-.23-.05-.34a25.06,25.06,0,0,1,2.45-1.18A8,8,0,0,0,360.06,267.74Zm5.43-.38c0,.14-.57.17-.59,0-.21-1.48,1.42-1.36,1.32-1.23A4,4,0,0,0,365.49,267.36Zm1.53-5.73a9.77,9.77,0,0,0,.77-1.29,1.56,1.56,0,0,0-1.11.28c.12-.43.13-.88.23-1.32a2,2,0,0,1,1.6.29,2,2,0,0,1,.7,1.83,1.52,1.52,0,0,1,0,.21A17.3,17.3,0,0,0,367,261.63Zm1.35,4.1h0a3.92,3.92,0,0,1,1.94.57,3.39,3.39,0,0,1-1.07,1.31,1.85,1.85,0,0,0-.37-.88A2.33,2.33,0,0,1,368.37,265.73Z" style="opacity:0.5"></path><rect x="327.44" y="227.8" width="13.13" height="109.47" style="fill:#407BFF"></rect><rect x="327.21" y="324.21" width="13.36" height="13.28" style="fill:#263238"></rect><rect x="332.04" y="249.09" width="3.91" height="5.5" style="fill:#fff"></rect><rect x="332.04" y="307.03" width="3.91" height="5.5" style="fill:#fff"></rect><rect x="331.35" y="227.57" width="5.76" height="7.33" style="fill:#fff"></rect><rect x="342.32" y="234.06" width="2.99" height="13.66" style="fill:#fff"></rect><rect x="346.92" y="234.06" width="2.99" height="13.66" style="fill:#fff"></rect><rect x="351.53" y="234.06" width="2.99" height="13.66" style="fill:#fff"></rect><rect x="356.13" y="234.06" width="2.99" height="13.66" style="fill:#fff"></rect><rect x="360.74" y="234.06" width="2.99" height="13.66" style="fill:#fff"></rect><rect x="365.35" y="234.06" width="2.99" height="13.66" style="fill:#fff"></rect><rect x="369.95" y="234.06" width="2.99" height="13.66" style="fill:#fff"></rect><rect x="374.56" y="234.06" width="2.99" height="13.66" style="fill:#fff"></rect><rect x="379.16" y="234.06" width="2.99" height="13.66" style="fill:#fff"></rect><rect x="340.56" y="244.97" width="43.06" height="7.79" style="fill:#407BFF"></rect><rect x="342.32" y="296.04" width="2.99" height="34.35" style="fill:#fff"></rect><rect x="346.92" y="296.04" width="2.99" height="34.35" style="fill:#fff"></rect><rect x="351.53" y="296.04" width="2.99" height="34.35" style="fill:#fff"></rect><rect x="356.13" y="296.04" width="2.99" height="34.35" style="fill:#fff"></rect><rect x="360.74" y="296.04" width="2.99" height="34.35" style="fill:#fff"></rect><rect x="365.35" y="296.04" width="2.99" height="34.35" style="fill:#fff"></rect><rect x="369.95" y="296.04" width="2.99" height="34.35" style="fill:#fff"></rect><rect x="374.56" y="296.04" width="2.99" height="34.35" style="fill:#fff"></rect><rect x="379.16" y="296.04" width="2.99" height="34.35" style="fill:#fff"></rect><rect x="340.56" y="302.91" width="43.06" height="7.79" style="fill:#407BFF"></rect><rect x="340.56" y="330.3" width="43.06" height="7.42" style="fill:#407BFF"></rect><rect x="383.61" y="227.8" width="13.13" height="109.47" style="fill:#407BFF"></rect><rect x="383.38" y="324.21" width="13.36" height="13.28" style="fill:#263238"></rect><rect x="387.98" y="249.09" width="3.91" height="5.5" style="fill:#fff"></rect><rect x="387.98" y="307.03" width="3.91" height="5.5" style="fill:#fff"></rect><rect x="387.29" y="227.57" width="5.76" height="7.33" style="fill:#fff"></rect><rect x="396.7" y="246.42" width="3.91" height="5.5" style="fill:#407BFF"></rect><rect x="323.46" y="246.42" width="3.91" height="5.5" style="fill:#407BFF"></rect><rect x="323.46" y="299.99" width="3.91" height="5.5" transform="translate(650.84 605.47) rotate(180)" style="fill:#407BFF"></rect><rect x="396.7" y="299.99" width="3.91" height="5.5" transform="translate(797.31 605.47) rotate(180)" style="fill:#407BFF"></rect><path d="M396.73,227.8v7.66h10.43l-.41-2.33a4,4,0,0,0-2.76-1.94l-1.73-.32-.3-.66a4,4,0,0,0-3.49-2.33Z" style="fill:#407BFF"></path><polygon points="300.58 229.32 261.28 229.32 261.28 215.78 300.58 215.78 300.58 216.02 261.51 216.02 261.51 229.09 300.58 229.09 300.58 229.32"></polygon><path d="M258.13,213.17V233h45.92v-19.8Z" style="fill:#263238"></path><rect x="278.24" y="213.49" width="5.79" height="2.3" style="fill:#fff"></rect><rect x="278.24" y="230.35" width="5.79" height="2.3" style="fill:#fff"></rect><rect x="269.82" y="213.59" width="2.53" height="1.89" style="fill:#fff"></rect><rect x="269.82" y="230.46" width="2.53" height="1.89" style="fill:#fff"></rect><rect x="290.15" y="213.59" width="2.53" height="1.89" style="fill:#fff"></rect><rect x="290.15" y="230.46" width="2.53" height="1.89" style="fill:#fff"></rect><polygon points="264.16 213.13 264.16 215.44 261.14 215.44 261.14 217.63 258.08 217.63 258.08 213.12 261.14 213.12 261.14 213.13 264.16 213.13" style="fill:#fff"></polygon><polygon points="264.11 230.6 264.11 232.91 258.31 232.91 258.31 232.91 258.18 232.91 258.18 228.4 261.24 228.4 261.24 230.6 264.11 230.6" style="fill:#fff"></polygon><polygon points="298.09 230.6 298.09 232.91 303.88 232.91 303.88 232.91 304.01 232.91 304.01 228.4 300.96 228.4 300.96 230.6 298.09 230.6" style="fill:#fff"></polygon><polygon points="298.09 215.47 298.09 213.17 303.88 213.17 303.88 213.17 304.01 213.17 304.01 217.68 300.96 217.68 300.96 215.47 298.09 215.47" style="fill:#fff"></polygon><rect x="261.39" y="216.41" width="39.18" height="13.31" style="fill:#407BFF"></rect><rect x="178.28" y="227.8" width="43.06" height="9.16" style="fill:#407BFF"></rect><rect x="176.79" y="234.23" width="45.56" height="98.58" style="fill:#407BFF"></rect><g style="opacity:0.5"><rect x="176.79" y="234.23" width="45.56" height="98.58"></rect></g><rect x="165.22" y="227.8" width="13.13" height="109.47" style="fill:#407BFF"></rect><rect x="164.99" y="324.21" width="13.36" height="13.28" style="fill:#263238"></rect><rect x="169.83" y="249.09" width="3.91" height="5.5" style="fill:#fff"></rect><rect x="169.83" y="307.03" width="3.91" height="5.5" style="fill:#fff"></rect><rect x="169.14" y="227.57" width="5.76" height="7.33" style="fill:#fff"></rect><rect x="180.1" y="234.06" width="2.99" height="13.66" style="fill:#fff"></rect><rect x="184.71" y="234.06" width="2.99" height="13.66" style="fill:#fff"></rect><rect x="189.31" y="234.06" width="2.99" height="13.66" style="fill:#fff"></rect><rect x="193.92" y="234.06" width="2.99" height="13.66" style="fill:#fff"></rect><rect x="198.52" y="234.06" width="2.99" height="13.66" style="fill:#fff"></rect><rect x="203.13" y="234.06" width="2.99" height="13.66" style="fill:#fff"></rect><rect x="207.73" y="234.06" width="2.99" height="13.66" style="fill:#fff"></rect><rect x="212.34" y="234.06" width="2.99" height="13.66" style="fill:#fff"></rect><rect x="216.95" y="234.06" width="2.99" height="13.66" style="fill:#fff"></rect><rect x="178.35" y="244.97" width="43.06" height="7.79" style="fill:#407BFF"></rect><path d="M217.61,284c-.54-.41-1.46-.49-1.8.09-.05-.1-.11-.2-.16-.31a18.94,18.94,0,0,0,.47-2.26,2.29,2.29,0,0,0,.81-1.74,2.31,2.31,0,0,0-.57-1.51c0-1.49-.07-3-.16-4.47l0-.47A8.46,8.46,0,0,0,216,272a2.29,2.29,0,0,0-1.42-4.08h-.12a26.61,26.61,0,0,0-3.24-5.09,2.28,2.28,0,0,0-1.77-3.73,2.24,2.24,0,0,0-1.51.57A12.76,12.76,0,0,0,205,258a10.19,10.19,0,0,0-2.08-.6,2.29,2.29,0,0,0-4.57.18v.05a15.18,15.18,0,0,0-5.27,2.79,2.29,2.29,0,1,0-3.31,3.12,19.11,19.11,0,0,0-3.16,4.74,2.42,2.42,0,0,0-.47-.05,2.29,2.29,0,0,0-.75,4.45,15.18,15.18,0,0,0-.07,1.65,14.62,14.62,0,0,0,.68,4.06,2.29,2.29,0,0,0,1.37,4.12,2.07,2.07,0,0,0,.5-.06,21,21,0,0,0,3.15,4l0,0c.12,1.26,0,2.69.16,3.95-.62.31-1.47-.19-1.91-.71s-.88-1.16-1.56-1.29a1.46,1.46,0,0,0,.2,1.47,2.18,2.18,0,0,0,1.82,2.41c-.89,0-1.53.83-1.8,1.67a6.14,6.14,0,0,0,.38,4.68c1.31.48,2.6,1,3.91,1.53,2.78,1,5.73,2.06,8.64,1.52,5.39-1,11-.58,16.44-1.06a3.52,3.52,0,0,0,.05-2.5,10.15,10.15,0,0,0-1.09-2.31l-1.69-3a10.94,10.94,0,0,0,2.43-5.11,2.16,2.16,0,0,0,1.55-1.57A2.35,2.35,0,0,0,217.61,284Zm-2.86-1.94h.1l0,.13Zm-.22-9.59.32,0a6.05,6.05,0,0,1,.16,1l0,.47c.08,1.26.15,2.48.16,3.69a2.43,2.43,0,0,0-.55-.07,2.27,2.27,0,0,0-2.13,1.49c-.1-.11-.19-.23-.3-.34a5.07,5.07,0,0,0-1.33-2.86l.21.18a1.17,1.17,0,0,0-.79-1.35,4.4,4.4,0,0,0-1.7-2.73c.09-.45-.44-.81-.91-1a1.33,1.33,0,0,1,.48.18c.89.55-1-.56,1-1.45,1.81-.81,3.44-.8,3.5-2.51.21.39.42.78.61,1.16a2.28,2.28,0,0,0,1.25,4.19Zm-18.9,9.6c0-.1,0-.19.05-.29-1.27,1.18-2.58,2.55-3.87,3.8a20.94,20.94,0,0,1-2.93-3.69,2.29,2.29,0,0,0-1.56-3.95h-.27a13,13,0,0,1-.6-3.65,11.2,11.2,0,0,1,.07-1.53,2.28,2.28,0,0,0,1.09-3.95,18.1,18.1,0,0,1,3.21-4.75,2.58,2.58,0,0,0,.4,0,2.35,2.35,0,0,0,.54-.07,1.69,1.69,0,0,0,1.83.59c0,.44-.09,1-.13,1.43a10.18,10.18,0,0,0-3.79,7.23,6.32,6.32,0,0,0,3.54,1,4.48,4.48,0,0,0,.34,3.39C195.27,278.15,196.15,280.37,195.63,282.08Zm-1.3-11.33.34-.56a4.61,4.61,0,0,1-.56-2.5,3.62,3.62,0,0,0,.22.32c.67.81,1.77,1.32,2.17,2.27a2,2,0,0,0,.18.26A14.06,14.06,0,0,0,194.33,270.75Zm4.8-1.39a19.53,19.53,0,0,1-2.42-1.55,2.48,2.48,0,0,1-.68-1.07,2.24,2.24,0,0,0,.58-.41.91.91,0,0,0,.84,1.2,1.35,1.35,0,0,0,1.25-1,1.15,1.15,0,0,0-.33-1.19c-.36-.26-1.26-.11-1.4-.3a2,2,0,0,1,.8-.08,5.05,5.05,0,0,1,1.81.72,13.86,13.86,0,0,0-.23,2.53,5.17,5.17,0,0,0,.37,1.69A4,4,0,0,0,199.13,269.36Zm1.33,1.82a1.36,1.36,0,0,0,0-.17,2.61,2.61,0,0,0,.22.24Zm2.38-8.55a3.28,3.28,0,0,0-1.92,1.16c-.13-.54-2-.59-2.9-.75a4.15,4.15,0,0,0-2.92.41,3.15,3.15,0,0,0-.41.31,1.67,1.67,0,0,0-1.2-2.15v0a14.42,14.42,0,0,1,5.14-2.8,2.29,2.29,0,0,0,4-.2,9.28,9.28,0,0,1,1.86.53,12,12,0,0,1,2.72,1.54,2.27,2.27,0,0,0,2.16,3,2.25,2.25,0,0,0,.82-.15c.32.39.63.8.93,1.21a9.73,9.73,0,0,0-5-.06c-.05-.13-.11-.25-.17-.37A3.13,3.13,0,0,0,202.84,262.63Zm2.82,8.57c-.35.06-.69,0-1.07.1a12.47,12.47,0,0,0,1.64-3.36,6,6,0,0,0,.2-1.93c1-.21,4.63-.86,4.53.39C210.85,267.82,206.56,269.35,205.66,271.2Zm1.75,10.61a8.46,8.46,0,0,1,0-3.25c1.85,2.08,4.16,4.13,6,6.21a.78.78,0,0,0-.75.69c0,.3.45.72.82.9a20.92,20.92,0,0,1-1.33,2.48c-.22-1.13-.21-2.4-.86-3.33A13.41,13.41,0,0,0,207.41,281.81Z" style="opacity:0.5"></path><path d="M195.05,268.81l-.08-.13.21.42a1.31,1.31,0,0,0-.08-.21A.35.35,0,0,0,195.05,268.81Z" style="opacity:0.30000000000000004"></path><rect x="180.1" y="296.04" width="2.99" height="34.35" style="fill:#fff"></rect><rect x="184.71" y="296.04" width="2.99" height="34.35" style="fill:#fff"></rect><rect x="189.31" y="296.04" width="2.99" height="34.35" style="fill:#fff"></rect><rect x="193.92" y="296.04" width="2.99" height="34.35" style="fill:#fff"></rect><rect x="198.52" y="296.04" width="2.99" height="34.35" style="fill:#fff"></rect><rect x="203.13" y="296.04" width="2.99" height="34.35" style="fill:#fff"></rect><rect x="207.73" y="296.04" width="2.99" height="34.35" style="fill:#fff"></rect><rect x="212.34" y="296.04" width="2.99" height="34.35" style="fill:#fff"></rect><rect x="216.95" y="296.04" width="2.99" height="34.35" style="fill:#fff"></rect><rect x="178.35" y="302.91" width="43.06" height="7.79" style="fill:#407BFF"></rect><rect x="178.35" y="330.3" width="43.06" height="7.42" style="fill:#407BFF"></rect><rect x="221.39" y="227.8" width="13.13" height="109.47" style="fill:#407BFF"></rect><rect x="221.16" y="324.21" width="13.36" height="13.28" style="fill:#263238"></rect><rect x="225.76" y="249.09" width="3.91" height="5.5" style="fill:#fff"></rect><rect x="225.76" y="307.03" width="3.91" height="5.5" style="fill:#fff"></rect><rect x="225.07" y="227.57" width="5.76" height="7.33" style="fill:#fff"></rect><rect x="234.48" y="246.42" width="3.91" height="5.5" style="fill:#407BFF"></rect><rect x="161.25" y="246.42" width="3.91" height="5.5" style="fill:#407BFF"></rect><rect x="234.48" y="300.42" width="3.91" height="5.5" style="fill:#407BFF"></rect><rect x="161.25" y="300.42" width="3.91" height="5.5" style="fill:#407BFF"></rect><path d="M165.37,227.8v7.66H154.94l.41-2.33a4,4,0,0,1,2.76-1.94l1.73-.32.3-.66a4,4,0,0,1,3.49-2.33Z" style="fill:#407BFF"></path><g style="opacity:0.30000000000000004"><rect x="134.89" y="202.01" width="2.67" height="2.49" style="fill:#fff"></rect><rect x="140.06" y="202.26" width="2.67" height="2.49" style="fill:#fff"></rect><rect x="151.41" y="203.18" width="2.67" height="2.49" style="fill:#fff"></rect><rect x="420.6" y="202.26" width="2.67" height="2.48" style="fill:#fff"></rect><rect x="425.77" y="202.01" width="2.67" height="2.49" style="fill:#fff"></rect><rect x="161.24" y="246.42" width="3.92" height="5.5" style="fill:#fff"></rect><rect x="161.24" y="300.42" width="3.92" height="5.5" style="fill:#fff"></rect><rect x="409.25" y="203.18" width="2.67" height="2.48" style="fill:#fff"></rect></g><path d="M136.22,136.71s-.5,31-19.52,50.28c0,0-6.34,6.31,2.67,4,9.83-2.54,20.69-36.85,21.36-54.11Z" style="fill:#263238"></path><g style="opacity:0.30000000000000004"><path d="M136.22,136.71s-.5,31-19.52,50.28c0,0-6.34,6.31,2.67,4,9.83-2.54,20.69-36.85,21.36-54.11Z" style="fill:#fff"></path></g><path d="M139.73,125.59l-2.34-2,.67-3.32,6.34,4.31s2,43.48-20.69,67c0,0-5.76,5.18-4.34,0C120.37,188,142.07,163.43,139.73,125.59Z" style="fill:#263238"></path><g style="opacity:0.9"><path d="M139.73,125.59l-2.34-2,.67-3.32,6.34,4.31s2,43.48-20.69,67c0,0-5.76,5.18-4.34,0C120.37,188,142.07,163.43,139.73,125.59Z" style="fill:#fff"></path></g><path d="M126.38,196.79l.67,4.31c47.56,3.82,157.54,5.31,157.54,5.31l-.17-2.32Z" style="fill:#407BFF"></path><path d="M125.71,200.77l.33,5.31s4-1.75,4-5.31C130.05,200.44,125.71,200.77,125.71,200.77Z" style="fill:#263238"></path><polygon points="122.37 200.77 122.54 206.08 126.04 206.08 125.71 200.77 122.37 200.77" style="fill:#263238"></polygon><rect x="120.7" y="190.48" width="5.01" height="10.29" style="fill:#263238"></rect><polygon points="125.71 190.48 125.71 200.77 129.55 195.96 129.55 189.65 125.71 190.48" style="fill:#263238"></polygon><path d="M283.42,200.77c-102.71-1.46-139.64-2.55-153.87-3.4-6.74-.41-8.39-.76-9.51-1.08s-4.06-4.77-3-4.65c21.65,2.48,103.78,5.5,144.18,6.89,13.79.47,22.71.75,22.71.75S284.42,200.78,283.42,200.77Z" style="fill:#263238"></path><g style="opacity:0.30000000000000004"><path d="M283.42,200.77c-102.71-1.46-139.64-2.55-153.87-3.4-6.74-.41-8.39-.76-9.51-1.08s-4.06-4.77-3-4.65c21.65,2.48,103.78,5.5,144.18,6.89,13.79.47,22.71.75,22.71.75S284.42,200.78,283.42,200.77Z" style="fill:#fff"></path></g><rect x="129.72" y="201.77" width="2.67" height="2.49" style="fill:#fff"></rect><rect x="134.89" y="202.01" width="2.67" height="2.49" style="fill:#fff"></rect><rect x="140.06" y="202.26" width="2.67" height="2.49" style="fill:#fff"></rect><rect x="145.24" y="202.51" width="2.67" height="2.49" style="fill:#fff"></rect><rect x="151.41" y="203.18" width="2.67" height="2.49" style="fill:#fff"></rect><rect x="156.92" y="203.34" width="2.67" height="2.49" style="fill:#fff"></rect><rect x="162.59" y="203.34" width="2.67" height="2.49" style="fill:#fff"></rect><rect x="168.6" y="203.84" width="2.67" height="2.49" style="fill:#fff"></rect><rect x="174.61" y="204.34" width="2.67" height="2.49" style="fill:#fff"></rect><rect x="180.28" y="204.5" width="2.67" height="2.49" style="fill:#fff"></rect><rect x="185.96" y="204.64" width="2.67" height="2.49" style="fill:#fff"></rect><rect x="191.8" y="204.81" width="2.67" height="2.49" style="fill:#fff"></rect><rect x="197.64" y="204.97" width="2.67" height="2.49" style="fill:#fff"></rect><rect x="203.48" y="205.14" width="2.67" height="2.49" style="fill:#fff"></rect><rect x="209.32" y="205.31" width="2.67" height="2.49" style="fill:#fff"></rect><rect x="215.16" y="205.47" width="2.67" height="2.49" style="fill:#fff"></rect><rect x="221" y="205.64" width="2.67" height="2.49" style="fill:#fff"></rect><rect x="226.85" y="205.8" width="2.67" height="2.49" style="fill:#fff"></rect><rect x="232.69" y="205.97" width="2.67" height="2.49" style="fill:#fff"></rect><rect x="238.53" y="206.14" width="2.67" height="2.49" style="fill:#fff"></rect><rect x="244.37" y="206.3" width="2.67" height="2.49" style="fill:#fff"></rect><rect x="250.21" y="206.47" width="2.67" height="2.49" style="fill:#fff"></rect><rect x="256.05" y="206.63" width="2.67" height="2.49" style="fill:#fff"></rect><rect x="261.89" y="206.8" width="2.67" height="2.49" style="fill:#fff"></rect><rect x="267.73" y="206.97" width="2.67" height="2.49" style="fill:#fff"></rect><rect x="273.57" y="207.13" width="2.67" height="2.49" style="fill:#fff"></rect><rect x="279.42" y="207.3" width="2.67" height="2.49" style="fill:#fff"></rect><path d="M144.74,128.58c-1.2-.13,2.67,41.82-20.7,64.06-1.93,1.83,69.76,8.63,159.88,6.64,0,0,.34-65.73,0-65.39S212.49,135.88,144.74,128.58Z" style="fill:#263238"></path><g style="opacity:0.5"><path d="M144.74,128.58c-1.2-.13,2.67,41.82-20.7,64.06-1.93,1.83,69.76,8.63,159.88,6.64,0,0,.34-65.73,0-65.39S212.49,135.88,144.74,128.58Z" style="fill:#fff"></path></g><path d="M281.7,202.93a2.33,2.33,0,0,1-2.34-2.33V140.36a2.34,2.34,0,0,1,4.68,0V200.6A2.33,2.33,0,0,1,281.7,202.93Z" style="fill:#fff"></path><path d="M272.43,202.48h-.05a2.25,2.25,0,0,1-2.21-2.29c0-2.36,1.08-57.74,1.18-59.89a2.26,2.26,0,0,1,4.51.21c-.08,1.67-.8,39.82-1.18,59.76A2.25,2.25,0,0,1,272.43,202.48Z" style="fill:#fff"></path><path d="M263.15,202h-.08a2.17,2.17,0,0,1-2.09-2.25c0-.55,2.16-55.18,2.35-59.43a2.18,2.18,0,0,1,4.35.2c-.2,4.24-2.33,58.85-2.35,59.4A2.18,2.18,0,0,1,263.15,202Z" style="fill:#fff"></path><path d="M253.88,201.56h-.13a2.09,2.09,0,0,1-2-2.21c0-.52,3.23-52.62,3.53-59a2.09,2.09,0,0,1,4.18.19c-.3,6.38-3.5,58.5-3.53,59A2.09,2.09,0,0,1,253.88,201.56Z" style="fill:#fff"></path><path d="M244.61,201.11h-.18a2,2,0,0,1-1.83-2.16c0-.5,4.31-50.06,4.71-58.5a2,2,0,0,1,4,.18c-.39,8.52-4.54,56.61-4.71,58.66A2,2,0,0,1,244.61,201.11Z" style="fill:#fff"></path><path d="M235.33,200.65h-.22a1.92,1.92,0,0,1-1.7-2.12c.06-.48,5.39-47.5,5.88-58a1.93,1.93,0,0,1,3.85.17c-.49,10.66-5.67,56.35-5.89,58.29A1.93,1.93,0,0,1,235.33,200.65Z" style="fill:#fff"></path><path d="M226.06,200.19a1.23,1.23,0,0,1-.27,0,1.82,1.82,0,0,1-1.56-2.07c.06-.45,6.46-44.94,7.05-57.57a1.84,1.84,0,0,1,3.68.17c-.59,12.81-6.81,56.08-7.08,57.92A1.84,1.84,0,0,1,226.06,200.19Z" style="fill:#fff"></path><path d="M216.78,199.74l-.31,0a1.75,1.75,0,0,1-1.42-2c.07-.43,7.53-42.38,8.21-57.1a1.77,1.77,0,0,1,3.53.16c-.7,14.95-8,55.82-8.27,57.55A1.77,1.77,0,0,1,216.78,199.74Z" style="fill:#fff"></path><path d="M207.51,199.28a1.47,1.47,0,0,1-.36,0,1.67,1.67,0,0,1-1.29-2c.09-.4,8.61-39.82,9.39-56.63a1.68,1.68,0,0,1,3.36.15c-.8,17.09-9.11,55.55-9.46,57.18A1.69,1.69,0,0,1,207.51,199.28Z" style="fill:#fff"></path><path d="M198.23,198.82a1.41,1.41,0,0,1-.4,0,1.59,1.59,0,0,1-1.14-1.93c.09-.38,9.67-37.26,10.55-56.17a1.6,1.6,0,0,1,3.19.15c-.9,19.24-10.25,55.29-10.65,56.81A1.6,1.6,0,0,1,198.23,198.82Z" style="fill:#fff"></path><path d="M189,198.37a1.76,1.76,0,0,1-.45-.07,1.51,1.51,0,0,1-1-1.89c.11-.34,10.74-34.69,11.71-55.69a1.52,1.52,0,0,1,3,.14c-1,21.38-11.4,55-11.84,56.44A1.52,1.52,0,0,1,189,198.37Z" style="fill:#fff"></path><path d="M179.69,197.91a1.43,1.43,0,0,1-1.35-1.92c.12-.32,11.79-32.14,12.87-55.22a1.44,1.44,0,0,1,1.5-1.36,1.42,1.42,0,0,1,1.36,1.49c-1.1,23.53-12.92,55.75-13,56.08A1.43,1.43,0,0,1,179.69,197.91Z" style="fill:#fff"></path><path d="M170.41,197.45a1.31,1.31,0,0,1-.54-.11,1.35,1.35,0,0,1-.7-1.77c.13-.29,12.85-29.58,14-54.76a1.35,1.35,0,1,1,2.69.13c-1.19,25.67-14.11,55.41-14.24,55.71A1.35,1.35,0,0,1,170.41,197.45Z" style="fill:#fff"></path><path d="M161.14,197a1.3,1.3,0,0,1-.58-.14,1.25,1.25,0,0,1-.55-1.7c.14-.27,13.9-27,15.17-54.3a1.27,1.27,0,0,1,2.53.12c-1.29,27.82-15.31,55.06-15.45,55.33A1.26,1.26,0,0,1,161.14,197Z" style="fill:#fff"></path><path d="M151.86,196.54a1.2,1.2,0,0,1-.62-.18,1.18,1.18,0,0,1-.39-1.62c.15-.24,15-24.49,16.32-53.83a1.18,1.18,0,1,1,2.36.11c-.73,15.66-5.21,29.76-8.85,38.83A113.16,113.16,0,0,1,152.87,196,1.18,1.18,0,0,1,151.86,196.54Z" style="fill:#fff"></path><path d="M142.59,196.08a1.09,1.09,0,0,1-.89-1.74,87.13,87.13,0,0,0,8.18-14.79,108.41,108.41,0,0,0,9.27-38.6,1.11,1.11,0,0,1,1.16-1,1.1,1.1,0,0,1,1,1.15,110.84,110.84,0,0,1-9.48,39.44,87.82,87.82,0,0,1-8.39,15.14A1.11,1.11,0,0,1,142.59,196.08Z" style="fill:#fff"></path><path d="M133.32,195.63a1,1,0,0,1-.77-1.69,67,67,0,0,0,8.71-13.77A99,99,0,0,0,151.14,141a1,1,0,0,1,2,.09,101.19,101.19,0,0,1-10.13,40,68.17,68.17,0,0,1-9,14.15A1,1,0,0,1,133.32,195.63Z" style="fill:#fff"></path><path d="M124,195.17a1,1,0,0,1-.69-.3.93.93,0,0,1,.06-1.32h0s4.56-4.22,9.23-12.75c4.31-7.87,9.62-21.15,10.49-39.75a.94.94,0,0,1,1.87.08c-.89,19-6.34,32.59-10.76,40.65-4.82,8.76-9.37,13-9.57,13.14A.9.9,0,0,1,124,195.17Z" style="fill:#fff"></path><path d="M283.46,143.33v-8.45l-89.34-.72c-7.12-.11-19.39-.85-26-1.55-8.9-.93-13-1.32-21.3-4.2L143.85,125s-.12,5.09-.12,9.07c0,.39,2.09,1,2.09,1.4,0,2.18-.15,4.38-.23,5.63Z" style="fill:#263238"></path><g style="opacity:0.30000000000000004"><path d="M283.46,143.33v-8.45l-89.34-.72c-7.12-.11-19.39-.85-26-1.55-8.9-.93-13-1.32-21.3-4.2L143.85,125s-.12,5.09-.12,9.07c0,.39,2.09,1,2.09,1.4,0,2.18-.15,4.38-.23,5.63Z" style="fill:#fff"></path></g><polygon points="142.27 141.02 284.13 143.35 284.13 137.7 141.6 135.38 142.27 141.02" style="fill:#263238"></polygon><g style="opacity:0.4"><polygon points="142.27 141.02 284.13 143.35 284.13 137.7 141.6 135.38 142.27 141.02" style="fill:#fff"></polygon></g><rect x="216.88" y="77.77" width="0.35" height="133.54" transform="translate(67.8 358.38) rotate(-88.75)" style="fill:#fff"></rect><path d="M283.44,151c-13.31,0-134.33-3.16-135.57-3.2v-.35c1.25,0,124.5,3.25,135.9,3.2V151Z" style="fill:#fff"></path><path d="M282.54,155.9c-25.34,0-136-3.43-137.08-3.47v-.35c1.15,0,115.48,3.58,138.28,3.46v.35Z" style="fill:#fff"></path><path d="M281.3,160.76c-36.48,0-137.23-3.7-138.26-3.74v-.35c1.06,0,106.47,3.92,140.67,3.73v.35Z" style="fill:#fff"></path><path d="M279.8,165.62c-47,0-138.24-4-139.18-4v-.35c1,.05,97.46,4.24,143.06,4v.35Z" style="fill:#fff"></path><path d="M278.12,170.48c-57,0-139.07-4.25-139.92-4.29l0-.35c.87,0,88.45,4.58,145.44,4.28v.35Z" style="fill:#fff"></path><path d="M276.3,175.34c-66.56,0-139.76-4.52-140.52-4.56l0-.35c.79,0,79.44,4.91,147.83,4.55v.35Z" style="fill:#fff"></path><path d="M274.38,180.21c-75.88,0-140.35-4.8-141-4.85l0-.35c.66.06,65.13,4.85,141,4.85l9.22,0v.35Z" style="fill:#fff"></path><path d="M272.38,185.07c-85,0-140.86-5.07-141.44-5.12l0-.35c.6.06,61.41,5.57,152.59,5.09V185Z" style="fill:#fff"></path><path d="M270.31,189.94c-93.84,0-141.3-5.35-141.79-5.4l0-.35c.51.06,52.4,5.9,155,5.36v.35Q276.77,189.93,270.31,189.94Z" style="fill:#fff"></path><path d="M268.19,194.8c-102.57,0-141.7-5.62-142.1-5.68l0-.34c.43.06,43.4,6.23,157.36,5.63v.35Q275.62,194.81,268.19,194.8Z" style="fill:#fff"></path><path d="M266,199.66c-111.16,0-142-5.89-142.36-5.95l.07-.35c.32.07,34.39,6.56,159.73,5.91v.35Q274.43,199.67,266,199.66Z" style="fill:#fff"></path><path d="M144.36,181.39s-2,2.66-6.51-.5l.17-6.64.65-.65.68-.67a3.5,3.5,0,0,1-.38-.33c-.5-.5-1.11-1.46.55-2.16a1.48,1.48,0,0,1,.95-.15c1.06.28.39,2.64.39,2.64l1.78.79,1.09.5Z" style="fill:#407BFF"></path><g style="opacity:0.4"><path d="M144.36,181.39s-2,2.66-6.51-.5l.17-6.64.65-.65.68-.67a3.5,3.5,0,0,1-.38-.33c-.5-.5-1.11-1.46.55-2.16a1.48,1.48,0,0,1,.95-.15c1.06.28.39,2.64.39,2.64l1.78.79,1.09.5Z" style="fill:#fff"></path></g><path d="M153.87,134.42c-2.78,23.89-9.17,37.33-10.07,39.13h0l0,.08a.43.43,0,0,1-.07.12l-1.05,0-1.78-.79s.67-2.36-.39-2.64c7.09-12.21,9.56-36,9.56-36l1.51-1.83Z" style="fill:#263238"></path><g style="opacity:0.8"><path d="M153.87,134.42c-2.78,23.89-9.17,37.33-10.07,39.13h0l0,.08a.43.43,0,0,1-.07.12l-1.05,0-1.78-.79s.67-2.36-.39-2.64c7.09-12.21,9.56-36,9.56-36l1.51-1.83Z" style="fill:#fff"></path></g><path d="M155,143.88s-3,21.41-10.68,37.51l-.63-7.17,0-.47a.43.43,0,0,0,.07-.12l0-.08h0c.9-1.8,7.29-15.24,10.07-39.13Z" style="fill:#263238"></path><g style="opacity:0.30000000000000004"><path d="M155,143.88s-3,21.41-10.68,37.51l-.63-7.17,0-.47a.43.43,0,0,0,.07-.12l0-.08h0c.9-1.8,7.29-15.24,10.07-39.13Z" style="fill:#fff"></path></g><path d="M427.11,136.71s.5,31,19.52,50.28c0,0,6.35,6.31-2.67,4-9.82-2.54-20.69-36.85-21.36-54.11Z" style="fill:#263238"></path><g style="opacity:0.30000000000000004"><path d="M427.11,136.71s.5,31,19.52,50.28c0,0,6.35,6.31-2.67,4-9.82-2.54-20.69-36.85-21.36-54.11Z" style="fill:#fff"></path></g><path d="M423.6,125.59l2.34-2-.67-3.32-6.34,4.31s-2,43.48,20.7,67c0,0,5.75,5.18,4.33,0C443,188,421.27,163.43,423.6,125.59Z" style="fill:#263238"></path><g style="opacity:0.9"><path d="M423.6,125.59l2.34-2-.67-3.32-6.34,4.31s-2,43.48,20.7,67c0,0,5.75,5.18,4.33,0C443,188,421.27,163.43,423.6,125.59Z" style="fill:#fff"></path></g><path d="M437,196.79l-.67,4.31c-47.57,3.82-157.55,5.31-157.55,5.31l.17-2.32Z" style="fill:#407BFF"></path><path d="M437.62,200.77l-.33,5.31s-4-1.75-4-5.31C433.28,200.44,437.62,200.77,437.62,200.77Z" style="fill:#263238"></path><polygon points="440.96 200.77 440.79 206.08 437.29 206.08 437.62 200.77 440.96 200.77" style="fill:#263238"></polygon><rect x="437.62" y="190.48" width="5.01" height="10.29" transform="translate(880.25 391.25) rotate(180)" style="fill:#263238"></rect><polygon points="437.62 190.48 437.62 200.77 433.78 195.96 433.78 189.65 437.62 190.48" style="fill:#263238"></polygon><path d="M279.91,200.77c102.71-1.46,139.65-2.55,153.87-3.4,6.75-.41,8.39-.76,9.52-1.08s4.05-4.77,3-4.65c-21.65,2.48-103.78,5.5-144.18,6.89-13.78.47-22.71.75-22.71.75S278.91,200.78,279.91,200.77Z" style="fill:#263238"></path><g style="opacity:0.30000000000000004"><path d="M279.91,200.77c102.71-1.46,139.65-2.55,153.87-3.4,6.75-.41,8.39-.76,9.52-1.08s4.05-4.77,3-4.65c-21.65,2.48-103.78,5.5-144.18,6.89-13.78.47-22.71.75-22.71.75S278.91,200.78,279.91,200.77Z" style="fill:#fff"></path></g><rect x="430.95" y="201.77" width="2.67" height="2.49" transform="translate(864.56 406.02) rotate(180)" style="fill:#fff"></rect><rect x="425.77" y="202.01" width="2.67" height="2.49" transform="translate(854.22 406.52) rotate(180)" style="fill:#fff"></rect><rect x="420.6" y="202.26" width="2.67" height="2.49" transform="translate(843.87 407.02) rotate(180)" style="fill:#fff"></rect><rect x="415.43" y="202.51" width="2.67" height="2.49" transform="translate(833.52 407.51) rotate(180)" style="fill:#fff"></rect><rect x="409.25" y="203.18" width="2.67" height="2.49" transform="translate(821.17 408.84) rotate(180)" style="fill:#fff"></rect><rect x="403.74" y="203.34" width="2.67" height="2.49" transform="translate(810.16 409.17) rotate(180)" style="fill:#fff"></rect><rect x="398.07" y="203.34" width="2.67" height="2.49" transform="translate(798.81 409.17) rotate(180)" style="fill:#fff"></rect><rect x="392.06" y="203.84" width="2.67" height="2.49" transform="translate(786.79 410.17) rotate(180)" style="fill:#fff"></rect><rect x="386.05" y="204.34" width="2.67" height="2.49" transform="translate(774.78 411.17) rotate(180)" style="fill:#fff"></rect><rect x="380.38" y="204.5" width="2.67" height="2.49" transform="translate(763.43 411.5) rotate(180)" style="fill:#fff"></rect><rect x="374.71" y="204.64" width="2.67" height="2.49" transform="translate(752.08 411.77) rotate(180)" style="fill:#fff"></rect><rect x="368.86" y="204.81" width="2.67" height="2.49" transform="translate(740.4 412.11) rotate(180)" style="fill:#fff"></rect><rect x="363.02" y="204.97" width="2.67" height="2.49" transform="translate(728.72 412.44) rotate(180)" style="fill:#fff"></rect><rect x="357.18" y="205.14" width="2.67" height="2.49" transform="translate(717.03 412.77) rotate(180)" style="fill:#fff"></rect><rect x="351.34" y="205.31" width="2.67" height="2.49" transform="translate(705.35 413.1) rotate(180)" style="fill:#fff"></rect><rect x="345.5" y="205.47" width="2.67" height="2.49" transform="translate(693.67 413.43) rotate(180)" style="fill:#fff"></rect><rect x="339.66" y="205.64" width="2.67" height="2.49" transform="translate(681.99 413.77) rotate(180)" style="fill:#fff"></rect><rect x="333.82" y="205.8" width="2.67" height="2.49" transform="translate(670.3 414.1) rotate(180)" style="fill:#fff"></rect><rect x="327.98" y="205.97" width="2.67" height="2.49" transform="translate(658.62 414.43) rotate(180)" style="fill:#fff"></rect><rect x="322.14" y="206.14" width="2.67" height="2.49" transform="translate(646.94 414.76) rotate(180)" style="fill:#fff"></rect><rect x="316.29" y="206.3" width="2.67" height="2.49" transform="translate(635.26 415.09) rotate(180)" style="fill:#fff"></rect><rect x="310.45" y="206.47" width="2.67" height="2.49" transform="translate(623.58 415.43) rotate(180)" style="fill:#fff"></rect><rect x="304.61" y="206.63" width="2.67" height="2.49" transform="translate(611.89 415.76) rotate(180)" style="fill:#fff"></rect><rect x="298.77" y="206.8" width="2.67" height="2.49" transform="translate(600.21 416.09) rotate(180)" style="fill:#fff"></rect><rect x="292.93" y="206.97" width="2.67" height="2.49" transform="translate(588.53 416.42) rotate(180)" style="fill:#fff"></rect><rect x="287.09" y="207.13" width="2.67" height="2.49" transform="translate(576.85 416.75) rotate(180)" style="fill:#fff"></rect><rect x="281.25" y="207.3" width="2.67" height="2.49" transform="translate(565.16 417.09) rotate(180)" style="fill:#fff"></rect><path d="M418.6,128.58c1.19-.13-2.67,41.82,20.69,64.06,1.93,1.83-69.76,8.63-159.88,6.64,0,0-.33-65.73,0-65.39S350.84,135.88,418.6,128.58Z" style="fill:#263238"></path><g style="opacity:0.5"><path d="M418.6,128.58c1.19-.13-2.67,41.82,20.69,64.06,1.93,1.83-69.76,8.63-159.88,6.64,0,0-.33-65.73,0-65.39S350.84,135.88,418.6,128.58Z" style="fill:#fff"></path></g><path d="M281.63,202.93a2.33,2.33,0,0,1-2.34-2.33V140.36a2.35,2.35,0,0,1,4.69,0V200.6A2.34,2.34,0,0,1,281.63,202.93Z" style="fill:#fff"></path><path d="M290.91,202.48a2.25,2.25,0,0,1-2.26-2.21c-.37-19.94-1.1-58.09-1.18-59.76a2.26,2.26,0,0,1,4.52-.21c.1,2.15,1.13,57.53,1.18,59.89a2.26,2.26,0,0,1-2.22,2.29Z" style="fill:#fff"></path><path d="M300.18,202a2.17,2.17,0,0,1-2.17-2.08c0-.55-2.16-55.16-2.36-59.4a2.18,2.18,0,0,1,4.35-.2c.2,4.25,2.33,58.88,2.36,59.43a2.18,2.18,0,0,1-2.09,2.25Z" style="fill:#fff"></path><path d="M309.45,201.56a2.08,2.08,0,0,1-2.08-1.95c0-.53-3.24-52.65-3.54-59a2.09,2.09,0,0,1,4.18-.19c.3,6.34,3.5,58.44,3.54,59a2.09,2.09,0,0,1-2,2.21Z" style="fill:#fff"></path><path d="M318.73,201.11a2,2,0,0,1-2-1.83c-.18-2.05-4.32-50.14-4.72-58.66a2,2,0,0,1,4-.18c.39,8.44,4.66,58,4.7,58.5a2,2,0,0,1-1.83,2.16Z" style="fill:#fff"></path><path d="M328,200.65a1.92,1.92,0,0,1-1.91-1.7c-.22-1.94-5.4-47.63-5.9-58.29a1.93,1.93,0,0,1,3.85-.17c.49,10.53,5.83,57.55,5.88,58a1.92,1.92,0,0,1-1.7,2.12Z" style="fill:#fff"></path><path d="M337.28,200.19a1.84,1.84,0,0,1-1.83-1.57c-.26-1.84-6.49-45.11-7.08-57.92a1.85,1.85,0,0,1,3.69-.17c.58,12.63,7,57.12,7,57.57a1.82,1.82,0,0,1-1.56,2.07A1.18,1.18,0,0,1,337.28,200.19Z" style="fill:#fff"></path><path d="M346.55,199.74a1.76,1.76,0,0,1-1.73-1.45c-.31-1.73-7.58-42.6-8.27-57.55a1.76,1.76,0,0,1,3.52-.16c.68,14.72,8.14,56.67,8.22,57.1a1.75,1.75,0,0,1-1.43,2A1.63,1.63,0,0,1,346.55,199.74Z" style="fill:#fff"></path><path d="M355.82,199.28a1.69,1.69,0,0,1-1.64-1.32c-.35-1.63-8.66-40.09-9.45-57.18a1.68,1.68,0,1,1,3.35-.15c.79,16.81,9.3,56.23,9.39,56.63a1.67,1.67,0,0,1-1.29,2A1.47,1.47,0,0,1,355.82,199.28Z" style="fill:#fff"></path><path d="M365.1,198.82a1.6,1.6,0,0,1-1.55-1.19c-.39-1.52-9.75-37.57-10.64-56.81a1.6,1.6,0,0,1,3.19-.15c.88,18.91,10.45,55.79,10.55,56.17a1.59,1.59,0,0,1-1.15,1.93A1.37,1.37,0,0,1,365.1,198.82Z" style="fill:#fff"></path><path d="M374.37,198.37a1.51,1.51,0,0,1-1.44-1.07c-.45-1.42-10.85-35.06-11.85-56.44a1.52,1.52,0,0,1,3-.14c1,21,11.6,55.35,11.71,55.69a1.51,1.51,0,0,1-1,1.89A1.76,1.76,0,0,1,374.37,198.37Z" style="fill:#fff"></path><path d="M383.65,197.91a1.45,1.45,0,0,1-1.35-.93c-.12-.33-11.94-32.55-13-56.08a1.43,1.43,0,0,1,2.86-.13c1.08,23.08,12.75,54.9,12.87,55.22a1.43,1.43,0,0,1-1.34,1.92Z" style="fill:#fff"></path><path d="M392.92,197.45a1.37,1.37,0,0,1-1.24-.8c-.13-.3-13-30-14.24-55.71a1.35,1.35,0,0,1,2.7-.13c1.17,25.19,13.89,54.47,14,54.76a1.35,1.35,0,0,1-.7,1.77A1.27,1.27,0,0,1,392.92,197.45Z" style="fill:#fff"></path><path d="M402.2,197a1.27,1.27,0,0,1-1.13-.69c-.14-.27-14.15-27.51-15.45-55.33a1.27,1.27,0,0,1,2.53-.12c1.27,27.28,15,54,15.17,54.3a1.26,1.26,0,0,1-.54,1.7A1.37,1.37,0,0,1,402.2,197Z" style="fill:#fff"></path><path d="M411.47,196.54a1.18,1.18,0,0,1-1-.56,113.16,113.16,0,0,1-7.81-16.13c-3.63-9.07-8.12-23.17-8.85-38.83a1.19,1.19,0,1,1,2.37-.11c1.36,29.34,16.16,53.59,16.31,53.83a1.19,1.19,0,0,1-1,1.8Z" style="fill:#fff"></path><path d="M420.74,196.08a1.09,1.09,0,0,1-.88-.44,86.24,86.24,0,0,1-8.39-15.14A110.6,110.6,0,0,1,402,141.06a1.1,1.1,0,0,1,2.2-.11,108.41,108.41,0,0,0,9.27,38.6,88,88,0,0,0,8.18,14.79,1.09,1.09,0,0,1-.23,1.53A1.15,1.15,0,0,1,420.74,196.08Z" style="fill:#fff"></path><path d="M430,195.63a1,1,0,0,1-.76-.34,67.92,67.92,0,0,1-9-14.15,101,101,0,0,1-10.12-40,1,1,0,0,1,2-.09,99.14,99.14,0,0,0,9.92,39.24,67.4,67.4,0,0,0,8.67,13.7,1,1,0,0,1-.08,1.43A1.05,1.05,0,0,1,430,195.63Z" style="fill:#fff"></path><path d="M439.29,195.17a.92.92,0,0,1-.63-.25c-.19-.17-4.75-4.38-9.56-13.14-4.42-8.06-9.88-21.64-10.76-40.65a.92.92,0,0,1,.89-1,.94.94,0,0,1,1,.89c.86,18.6,6.18,31.88,10.48,39.75,4.67,8.53,9.19,12.71,9.24,12.75a.93.93,0,0,1-.64,1.62Z" style="fill:#fff"></path><path d="M417.74,141.08c-.07-1.25-.19-3.45-.23-5.63,0-.4,2.09-1,2.09-1.4,0-4-.11-9.07-.11-9.07l-2.93,3.43c-8.35,2.88-12.41,3.27-21.31,4.2-6.64.7-18.91,1.44-26,1.55l-89.34.72v8.45Z" style="fill:#263238"></path><g style="opacity:0.30000000000000004"><path d="M417.74,141.08c-.07-1.25-.19-3.45-.23-5.63,0-.4,2.09-1,2.09-1.4,0-4-.11-9.07-.11-9.07l-2.93,3.43c-8.35,2.88-12.41,3.27-21.31,4.2-6.64.7-18.91,1.44-26,1.55l-89.34.72v8.45Z" style="fill:#fff"></path></g><polygon points="421.06 141.02 279.21 143.35 279.21 137.7 421.73 135.38 421.06 141.02" style="fill:#263238"></polygon><g style="opacity:0.4"><polygon points="421.06 141.02 279.21 143.35 279.21 137.7 421.73 135.38 421.06 141.02" style="fill:#fff"></polygon></g><rect x="279.51" y="144.37" width="133.54" height="0.35" transform="translate(-3.06 7.57) rotate(-1.25)" style="fill:#fff"></rect><path d="M279.9,151h-.35v-.34h.34c13.3,0,134.32-3.16,135.55-3.2v.35C414.23,147.88,293.22,151,279.9,151Z" style="fill:#fff"></path><path d="M280.79,155.9h-1.21v-.35c22.79.13,137.12-3.42,138.28-3.46v.35C416.74,152.47,306.15,155.9,280.79,155.9Z" style="fill:#fff"></path><path d="M282,160.76h-2.43v-.35c34.19.18,139.6-3.69,140.66-3.73l0,.35C419.26,157.06,318.52,160.76,282,160.76Z" style="fill:#fff"></path><path d="M283.54,165.62h-3.89v-.35c45.59.24,142.08-4,143.05-4l0,.35C421.77,161.64,330.5,165.62,283.54,165.62Z" style="fill:#fff"></path><path d="M285.21,170.48h-5.53v-.35c57,.3,144.56-4.23,145.44-4.28v.35C424.28,166.23,342.17,170.48,285.21,170.48Z" style="fill:#fff"></path><path d="M287,175.34h-7.32V175c68.39.35,147-4.5,147.82-4.55l0,.35C426.8,170.82,353.59,175.34,287,175.34Z" style="fill:#fff"></path><path d="M289,180.21l-9.21,0v-.35c79.78.42,149.51-4.76,150.21-4.82l0,.35C429.31,175.41,364.82,180.21,289,180.21Z" style="fill:#fff"></path><path d="M291,185.07l-11.19,0v-.35l11.19,0c84.94,0,140.82-5.06,141.4-5.12l0,.35C431.82,180,375.91,185.07,291,185.07Z" style="fill:#fff"></path><path d="M293,189.94q-6.47,0-13.22,0v-.35c4.5,0,8.92,0,13.23,0,93.82,0,141.26-5.34,141.75-5.4l0,.35C434.33,184.59,386.85,189.94,293,189.94Z" style="fill:#fff"></path><path d="M295.15,194.8q-7.44,0-15.32,0v-.35c5.25,0,10.37,0,15.32,0,102.53,0,141.64-5.61,142-5.67l.05.34C436.84,189.18,397.69,194.8,295.15,194.8Z" style="fill:#fff"></path><path d="M297.31,199.66c-5.62,0-11.42,0-17.45,0v-.35c6,0,11.85,0,17.45,0,111.11,0,142-5.88,142.29-5.95l.07.35C439.35,193.77,408.44,199.66,297.31,199.66Z" style="fill:#fff"></path><path d="M419,181.39s2,2.66,6.51-.5l-.17-6.64-.65-.65-.68-.67a4.19,4.19,0,0,0,.39-.33c.49-.5,1.1-1.46-.56-2.16a1.48,1.48,0,0,0-.95-.15c-1.06.28-.38,2.64-.38,2.64l-1.78.79-1.1.5Z" style="fill:#407BFF"></path><g style="opacity:0.4"><path d="M419,181.39s2,2.66,6.51-.5l-.17-6.64-.65-.65-.68-.67a4.19,4.19,0,0,0,.39-.33c.49-.5,1.1-1.46-.56-2.16a1.48,1.48,0,0,0-.95-.15c-1.06.28-.38,2.64-.38,2.64l-1.78.79-1.1.5Z" style="fill:#fff"></path></g><path d="M409.46,134.42c2.79,23.89,9.17,37.33,10.07,39.13h0a.2.2,0,0,0,0,.08l.06.12,1.06,0,1.78-.79s-.68-2.36.38-2.64c-7.08-12.21-9.56-36-9.56-36l-1.5-1.83Z" style="fill:#263238"></path><g style="opacity:0.8"><path d="M409.46,134.42c2.79,23.89,9.17,37.33,10.07,39.13h0a.2.2,0,0,0,0,.08l.06.12,1.06,0,1.78-.79s-.68-2.36.38-2.64c-7.08-12.21-9.56-36-9.56-36l-1.5-1.83Z" style="fill:#fff"></path></g><path d="M408.29,143.88s3,21.41,10.68,37.51l.63-7.17,0-.47-.06-.12a.2.2,0,0,1,0-.08h0c-.9-1.8-7.28-15.24-10.07-39.13Z" style="fill:#263238"></path><g style="opacity:0.30000000000000004"><path d="M408.29,143.88s3,21.41,10.68,37.51l.63-7.17,0-.47-.06-.12a.2.2,0,0,1,0-.08h0c-.9-1.8-7.28-15.24-10.07-39.13Z" style="fill:#fff"></path></g><path d="M282.92,204.42,143.4,202.76l-.84-4.15c14.23.86,60.27,3.16,139.11,3.56C282,202.18,282.92,204.42,282.92,204.42Z" style="fill:#fff"></path><path d="M280.42,204.42l139.52-1.66.83-4.15c-14.23.86-60.26,3.16-139.11,3.56C281.33,202.18,280.42,204.42,280.42,204.42Z" style="fill:#fff"></path><path d="M446.64,187c-19-19.24-19.53-50.29-19.53-50.29l-3.49.13a89.61,89.61,0,0,1,0-11.24l2.34-2-.67-3.32-6.34,4.31s0,.38,0,1.08l-2.35,2.74-1.64.55c-43.27,4.46-87.35,5.34-113,5.32-7.94,0-14.1-.1-17.94-.2a.62.62,0,0,0,0-.2l-.06,0s0,0,0,0a17.2,17.2,0,0,1-4.38,0v0l-.06,0s0,.08,0,.2c-3.84.1-10,.2-17.93.2-25.68,0-69.75-.86-113-5.32l-1.64-.55-2.36-2.74c0-.7,0-1.08,0-1.08l-6.34-4.31-.67,3.32,2.33,2a91.6,91.6,0,0,1,0,11.24l-3.5-.13s-.5,31-19.52,50.29c0,0-6.35,6.31,2.66,4l.36-.13a4.16,4.16,0,0,0-.36.79c0,.09,0,.16-.05.24l-2.28-.24c-1.05-.12,1.84,4.32,3,4.65a5.68,5.68,0,0,0,.66.17v4.31h1.67l.17,5.31h3.5a7.6,7.6,0,0,0,3.67-3.6v1.78h2.67v-2.5h-2.45c0-.13.06-.28.08-.43,4.06.3,8.51.59,13.27.86l.11.57,1.84,0V205h2.67V202.8l6.34.07,5.08,10v8.23l4.29,2.25,4,2.1v2.28h-2.39l-1.59.07a4.07,4.07,0,0,0-3.49,2.34l-.31.65-1.72.32a4.09,4.09,0,0,0-2.77,2l-.4,2.32h10.28l.07,10.86h-4.1l.08,5.61h3.94v48.44l-4,.07.08,5.38,3.95.08v18.32H165v13.28h13.36v.23h43v-.23h13.11v0l.12,0v-.18h10.47V326.88h-.19V305.81H248V301.5h-3.12v-38H248v-4.3h-3.12v-8.59H253l-.2-1.18H257a15.6,15.6,0,0,0-5.23,12.08l-.37,10.91a25.74,25.74,0,0,0,8.07,19.69c2.66,2.49,5.47,4.53,7.66,4.69,1.36.09,2.86.16,4.35.22v6h19.67v-6c1.47-.06,2.93-.13,4.27-.22,2.39-.18,5.44-2.61,8.21-5.41a25.79,25.79,0,0,0,7.37-18l0-11.5a15.56,15.56,0,0,0-5.42-12.44h3.71l-.17.93h8.06v8.59h-3.11v4.3h3.11v38h-3.11v4.32h3.11v21.92H317V337.9h10.47v-.2l1.07-.23h12v.23h43.06v-.23h13.11v-32h3.88V300h-3.88V251.9h3.88v-5.5h-3.88v-11h10.42l-.4-2.32a4.09,4.09,0,0,0-2.77-2l-1.72-.32-.31-.65a4.08,4.08,0,0,0-3.49-2.34l-1.73-.08h-2v-2.28l4.55-2.33,3.51-1.8v-8.21h.6l5.19-10.28,6.88-.07V205h2.66v-2.22l1.84,0,.11-.57c4.76-.27,9.21-.56,13.27-.86,0,.15.06.3.09.43H431v2.5h2.66v-1.78a7.65,7.65,0,0,0,3.68,3.6h3.5l.17-5.31h1.66v-4.31a6.5,6.5,0,0,0,.67-.17c1.16-.33,4.05-4.77,3-4.65l-2.28.24c0-.08,0-.15-.06-.24a4,4,0,0,0-.35-.79l.35.13C453,193.28,446.64,187,446.64,187Zm-53-51.57q0-.48,0-.93l0,0c0,.31,0,.63.06,1Z" style="fill:#fff;opacity:0.1"></path><path d="M446.64,187c-19-19.24-19.53-50.29-19.53-50.29l-3.49.13c-.06-.9-.1-1.8-.13-2.72v0c0-.83,0-1.67-.05-2.51,0-.32,0-.64,0-1,0-.65,0-1.29,0-1.94s0-1.33.09-2c0-.36,0-.71.05-1.08l2.33-2h0l-.67-3.32-6.34,4.31v0h0s0,.37,0,1.06l-2.34,2.74-1.64.55c-43.27,4.46-87.35,5.34-113,5.32-7.94,0-14.1-.1-17.94-.2a.62.62,0,0,0,0-.2l-.06,0s0,0,0,0a17.2,17.2,0,0,1-4.38,0v0l-.06,0s0,0,0,0a.73.73,0,0,0,0,.15c-3.84.1-10,.2-17.93.2-25.68,0-69.75-.86-113-5.32l-1.64-.55-2.36-2.74c0-.7,0-1.08,0-1.08l-6.34-4.31v0h0l-.67,3.32,2.34,2c.07,1.12.11,2.23.14,3.32,0,.26,0,.52,0,.78,0,.76,0,1.51,0,2.26,0,.47,0,.94,0,1.4s0,1-.05,1.52,0,1.09-.07,1.64c0,.1,0,.2,0,.3l-3.5-.13v0h0a90.47,90.47,0,0,1-3.12,19.85l0,.17c-.16.6-.33,1.2-.51,1.81s-.34,1.13-.52,1.7l-.09.31c-2.82,8.84-7.49,18.6-15.22,26.42a10.16,10.16,0,0,0-2,2.88c-.47,1.29.19,2.29,4.71,1.13l.34-.12-.16.31,0,.07a2.92,2.92,0,0,0-.15.38s0,.07,0,.1a.74.74,0,0,1,0,.14l-2.27-.24c-.14,0-.21,0-.22.16-.17.75,2.2,4.22,3.22,4.51.19.06.41.11.66.17v4.31h1.67l.17,5.31H126a7.65,7.65,0,0,0,3.68-3.6v1.78h2.67v0h0v-2.5h-2.45a.11.11,0,0,1,0-.05l.06-.35h0c4.07.3,8.52.59,13.27.86l.12.57,1.84,0V205h2.67v0h0v-2.16l6.33.07,5.08,10v8.23l4.29,2.25,4,2.1v2.25h-2.39l-1.59.07a4.07,4.07,0,0,0-3.49,2.34l-.31.65-1.72.32a4.09,4.09,0,0,0-2.77,2l0,.18-.38,2.17h10.28v10.83h-4l0,2.79v2.84h3.92v0h.06v48.44l-4,.07,0,2.68v2.83h3.92v-.05h.06v18.32H165v0h0v13.28h13.36v.23h43.06v0h0v-.21h13.11v0h0l.11,0v0h0v-.16H245.1v0h0V326.88h-.19V305.83H248v0h0V301.5h-3.12v-38H248v0h0v-4.3h-3.12V250.6H253v0h0l-.2-1.16H257l-.16.16c-.3.27-.58.55-.86.84l-.23.24c-.31.36-.61.73-.89,1.11l-.21.29a13.43,13.43,0,0,0-.77,1.19s0,0,0,.05a13.79,13.79,0,0,0-.67,1.33c-.05.1-.09.2-.14.31-.19.45-.36.9-.51,1.37a2,2,0,0,1-.07.23c-.13.44-.24.89-.34,1.34a1.74,1.74,0,0,1-.05.22c-.09.51-.16,1-.21,1.53,0,.08,0,.16,0,.25a14.46,14.46,0,0,0-.05,1.62l-.38,10.91a25.71,25.71,0,0,0,8.08,19.69c2.65,2.49,5.46,4.53,7.65,4.69,1.36.09,2.86.17,4.36.22v6h19.66v0h0v-6c1.46-.06,2.93-.13,4.26-.22,2.39-.17,5.44-2.6,8.21-5.41a25.58,25.58,0,0,0,6.29-10.64,26.24,26.24,0,0,0,1.09-7.4l0-11.5c0-.1,0-.19,0-.29,0-.39,0-.78,0-1.17,0-.19,0-.39,0-.58q-.06-.65-.18-1.29c0-.21-.08-.42-.13-.64s-.13-.55-.21-.83-.18-.63-.29-.94-.19-.53-.29-.78l-.3-.7c-.12-.25-.25-.5-.38-.74s-.35-.64-.55-.95-.22-.35-.34-.52c-.23-.34-.48-.67-.74-1-.14-.17-.27-.34-.42-.51s-.37-.4-.57-.6l-.46-.45c-.16-.14-.3-.3-.47-.44h3.68l-.16.93h8.06v8.57h-3.11v0h0v4.31h3.12v38h-3.11v0h0v4.3h3.12v21.91H317v0h0v10.41h10.47v0h0v-.18l1.06-.23h12v.23h43.07v0h0v-.21h13.1v0h0v-32h3.87v0h0V300h-3.88V251.91h3.88v-5.5h-3.88V235.46h10.42v0h0l-.4-2.32a4.09,4.09,0,0,0-2.77-2l-1.72-.32-.31-.65a4.08,4.08,0,0,0-3.49-2.34l-1.73-.08h-2v-2.26l4.55-2.33,3.51-1.79v0h0v-8.19h.59l5.2-10.27,6.87-.08V205h2.67v0h0v-2.2l1.84,0,.11-.57c4.75-.27,9.21-.56,13.27-.86,0,.14.05.28.08.41H431v0h0v2.49h2.67v0h0v-1.75a7.66,7.66,0,0,0,3.67,3.59h3.5v0h0l.17-5.29h1.66v0h0v-4.29l.67-.17c.87-.25,2.72-2.82,3.14-4,.15-.41.13-.67-.13-.64l-2.28.24c0-.08,0-.15-.06-.24a4.24,4.24,0,0,0-.33-.76l.32.12c3.39.87,4.61.52,4.81-.25C449.14,189.45,446.64,187,446.64,187Z" style="fill:#fff;opacity:0.2"></path><polygon points="164.91 341.58 151.8 341.58 154.19 325.79 162.53 325.79 164.91 341.58" style="fill:#407BFF"></polygon><polygon points="160.15 326.03 160.15 306.42 150.31 301.66 150.31 305.23 156.57 308.81 156.87 325.79 160.15 326.03" style="fill:#263238"></polygon><polygon points="164.91 341.58 151.8 341.58 154.19 325.79 162.53 325.79 164.91 341.58" style="fill:#fff;opacity:0.2"></polygon><polygon points="160.15 326.03 160.15 306.42 150.31 301.66 150.31 305.23 156.57 308.81 156.87 325.79 160.15 326.03" style="fill:#fff;opacity:0.2"></polygon><rect x="356.14" y="302.37" width="12.83" height="20.67" style="fill:#407BFF"></rect><rect x="356.14" y="302.37" width="12.83" height="20.67" style="fill:#fff;opacity:0.5"></rect><rect x="353.91" y="300.94" width="16.75" height="1.43" style="fill:#263238"></rect><rect x="354.28" y="301.66" width="1.78" height="40.28" style="fill:#263238"></rect><rect x="368.32" y="301.66" width="1.78" height="40.28" style="fill:#263238"></rect><polygon points="354.24 340.39 353.4 341.93 356.85 341.93 356.14 340.39 354.24 340.39" style="fill:#263238"></polygon><polygon points="368.37 340.39 367.54 341.93 370.99 341.93 370.27 340.39 368.37 340.39" style="fill:#263238"></polygon><polygon points="370.99 341.93 367.54 341.93 368.32 340.48 368.32 323.04 356.14 323.04 356.07 340.39 356.14 340.39 356.85 341.93 353.4 341.93 354.24 340.39 354.28 340.39 354.28 302.37 353.91 302.37 353.91 300.94 370.66 300.94 370.66 302.37 370.11 302.37 370.11 340.39 370.28 340.39 370.99 341.93" style="fill:#fff;opacity:0.2"></polygon></g><g id="freepik--Fence--inject-20"><rect x="56.93" y="337.1" width="197.78" height="2" style="fill:#263238"></rect><rect x="56.93" y="337.1" width="197.78" height="2" style="fill:#fff;opacity:0.1"></rect><rect x="56.93" y="368.94" width="197.78" height="2" style="fill:#263238"></rect><rect x="56.93" y="368.94" width="197.78" height="2" style="fill:#fff;opacity:0.1"></rect><rect x="248.23" y="328.27" width="11.75" height="4.52" style="fill:#263238"></rect><rect x="249.56" y="332.79" width="9.04" height="45.19" style="fill:#407BFF"></rect><rect x="248.23" y="375.75" width="11.75" height="5.95" style="fill:#263238"></rect><polygon points="259.95 375.8 248.22 375.8 248.55 374.43 259.62 374.43 259.95 375.8" style="fill:#263238"></polygon><polygon points="259.98 332.79 259.98 328.27 248.23 328.27 248.23 332.79 249.56 332.79 249.56 374.43 248.55 374.43 248.22 375.8 248.23 375.8 248.23 381.7 259.98 381.7 259.98 375.75 259.94 375.75 259.62 374.43 258.6 374.43 258.6 332.79 259.98 332.79" style="fill:#fff;opacity:0.1"></polygon><rect x="182.65" y="328.27" width="11.75" height="4.52" style="fill:#263238"></rect><rect x="183.98" y="332.79" width="9.04" height="45.19" style="fill:#407BFF"></rect><rect x="182.65" y="375.75" width="11.75" height="5.95" style="fill:#263238"></rect><polygon points="194.37 375.8 182.63 375.8 182.97 374.43 194.03 374.43 194.37 375.8" style="fill:#263238"></polygon><polygon points="194.4 332.79 194.4 328.27 182.65 328.27 182.65 332.79 183.98 332.79 183.98 374.43 182.97 374.43 182.63 375.8 182.65 375.8 182.65 381.7 194.4 381.7 194.4 375.75 194.36 375.75 194.03 374.43 193.01 374.43 193.01 332.79 194.4 332.79" style="fill:#fff;opacity:0.1"></polygon><rect x="117.06" y="328.27" width="11.75" height="4.52" style="fill:#263238"></rect><rect x="118.39" y="332.79" width="9.04" height="45.19" style="fill:#407BFF"></rect><rect x="117.06" y="375.75" width="11.75" height="5.95" style="fill:#263238"></rect><polygon points="128.79 375.8 117.05 375.8 117.39 374.43 128.45 374.43 128.79 375.8" style="fill:#263238"></polygon><polygon points="128.81 332.79 128.81 328.27 117.06 328.27 117.06 332.79 118.39 332.79 118.39 374.43 117.39 374.43 117.05 375.8 117.06 375.8 117.06 381.7 128.81 381.7 128.81 375.75 128.78 375.75 128.45 374.43 127.43 374.43 127.43 332.79 128.81 332.79" style="fill:#fff;opacity:0.1"></polygon><rect x="51.48" y="328.27" width="11.75" height="4.52" style="fill:#263238"></rect><rect x="52.81" y="332.79" width="9.04" height="45.19" style="fill:#407BFF"></rect><rect x="51.48" y="375.75" width="11.75" height="5.95" style="fill:#263238"></rect><polygon points="63.2 375.8 51.47 375.8 51.8 374.43 62.87 374.43 63.2 375.8" style="fill:#263238"></polygon><polygon points="63.23 332.79 63.23 328.27 51.48 328.27 51.48 332.79 52.81 332.79 52.81 374.43 51.8 374.43 51.47 375.8 51.48 375.8 51.48 381.7 63.23 381.7 63.23 375.75 63.19 375.75 62.87 374.43 61.85 374.43 61.85 332.79 63.23 332.79" style="fill:#fff;opacity:0.1"></polygon><rect x="376.45" y="337.1" width="64.72" height="2" style="fill:#263238"></rect><rect x="375.15" y="337.1" width="66.03" height="2" style="fill:#fff;opacity:0.1"></rect><rect x="376.45" y="368.94" width="64.72" height="2" style="fill:#263238"></rect><rect x="375.15" y="368.94" width="66.03" height="2" style="fill:#fff;opacity:0.1"></rect><rect x="434.77" y="328.27" width="11.75" height="4.52" style="fill:#263238"></rect><rect x="436.1" y="332.79" width="9.04" height="45.19" style="fill:#407BFF"></rect><rect x="434.77" y="375.75" width="11.75" height="5.95" style="fill:#263238"></rect><polygon points="446.5 375.8 434.76 375.8 435.1 374.43 446.16 374.43 446.5 375.8" style="fill:#263238"></polygon><polygon points="446.52 332.79 446.52 328.27 434.77 328.27 434.77 332.79 436.1 332.79 436.1 374.43 435.1 374.43 434.76 375.8 434.77 375.8 434.77 381.7 446.52 381.7 446.52 375.75 446.49 375.75 446.16 374.43 445.14 374.43 445.14 332.79 446.52 332.79" style="fill:#fff;opacity:0.1"></polygon><rect x="369.19" y="328.27" width="11.75" height="4.52" style="fill:#263238"></rect><rect x="370.52" y="332.79" width="9.04" height="45.19" style="fill:#407BFF"></rect><rect x="369.19" y="375.75" width="11.75" height="5.95" style="fill:#263238"></rect><polygon points="380.91 375.8 369.17 375.8 369.51 374.43 380.57 374.43 380.91 375.8" style="fill:#263238"></polygon><polygon points="380.94 332.79 380.94 328.27 369.19 328.27 369.19 332.79 370.52 332.79 370.52 374.43 369.51 374.43 369.17 375.8 369.19 375.8 369.19 381.7 380.94 381.7 380.94 375.75 380.9 375.75 380.57 374.43 379.56 374.43 379.56 332.79 380.94 332.79" style="fill:#fff;opacity:0.1"></polygon></g><g id="freepik--character-1--inject-20"><polygon points="232.76 410.56 239.19 411.54 242.08 395.45 235.66 394.47 232.76 410.56" style="fill:#ff8b7b"></polygon><polygon points="189.04 396.48 195.19 399.24 201.4 384.75 195.25 382 189.04 396.48" style="fill:#ff8b7b"></polygon><path d="M195.45,398.69l-5.66-5.08a.55.55,0,0,0-.72,0l-5.3,4.31a1.07,1.07,0,0,0-.09,1.52.43.43,0,0,0,.09.1c2,1.73,3.06,2.47,5.52,4.7,1.53,1.41,5.24,5.39,7.36,7.28s4.79-.5,4-1.47c-3.19-4.41-4.36-8-4.69-10.28A1.77,1.77,0,0,0,195.45,398.69Z" style="fill:#263238"></path><path d="M240.32,408.5l-7.76-2.05a.68.68,0,0,0-.77.32l-3.3,5.7a1,1,0,0,0,.35,1.38,1.69,1.69,0,0,0,.27.11c2.73.73,4,1,7.45,2,2.1.55,8,3.17,11,3.11s3.5-3,2.28-3.27c-5.47-1.11-7.38-4.59-8.6-6.54A1.62,1.62,0,0,0,240.32,408.5Z" style="fill:#263238"></path><polygon points="242.08 395.46 240.59 403.75 234.05 403.43 235.66 394.48 242.08 395.46" style="opacity:0.2;isolation:isolate"></polygon><polygon points="195.25 382 201.4 384.76 198.19 392.22 192.04 389.47 195.25 382" style="opacity:0.2;isolation:isolate"></polygon><path d="M214.62,268.88s-5.89.28-4.54,15.08,9,31.85-5.38,64.14c-5.59,12.57-13.8,28.54-13,37.22.41,4.48.45,1.35,9.91,6.35,14.47,7.67,24.71,8.54,29.82,9.39s12.29,0,12.29,0,16.15-73.55,5.39-104c-3.47-9.81-5.61-18.84-5.61-18.84s-1.79-5.38-3.81-6.05C236.38,271,232.79,267.62,214.62,268.88Z" style="fill:#407BFF"></path><path d="M214.62,268.88s-5.89.28-4.54,15.08,9,31.85-5.38,64.14c-5.59,12.57-13.8,28.54-13,37.22.41,4.48.45,1.35,9.91,6.35,14.47,7.67,24.71,8.54,29.82,9.39s12.29,0,12.29,0,16.15-73.55,5.39-104c-3.47-9.81-5.61-18.84-5.61-18.84s-1.79-5.38-3.81-6.05C236.38,271,232.79,267.62,214.62,268.88Z" style="fill:#fff;opacity:0.5"></path><path d="M231.24,284.85l-7-1.33c8.07,10.76,8.75,30.14,10.26,40.73C238.39,309.09,233.55,292,231.24,284.85Z" style="opacity:0.1;isolation:isolate"></path><path d="M241.86,267.71l-.07.61-.65,5.22s-10.21,1.9-26.18-3.81c-1.91-.69,1.85-9.09,1.85-9.09Z" style="fill:#407BFF"></path><path d="M241.86,267.71l-.07.61-.65,5.22s-10.21,1.9-26.18-3.81c-1.91-.69,1.85-9.09,1.85-9.09Z" style="fill:#fff;opacity:0.9"></path><path d="M297.86,251.06l2.49,1.19s.34.87-1.34.79c-.33,0-1-.41-1.35-.42a4.86,4.86,0,0,0-2,.26l-.7-1.29Z" style="fill:#ff8b7b"></path><path d="M284.72,253.2l4.82-3.32a2.46,2.46,0,0,1,2.35-.25l4.69,2a3,3,0,0,1-1.17,4.23c-2.78,1.74-8.32,2-8.32,2s-1.62-3.1-2.37-4.63Z" style="fill:#ff8b7b"></path><g id="freepik--group--inject-20"><path d="M239.41,237c.4,2.57-.24,12.08,7,16.9,2.47,1.65,13.19,35.44,18.54,36l13.54-15.81s5.59-9.76,8.53-16.66c2.37-5.55-1-7.22-1-7.22l-5,.76-.36-.18c-4.22-1.73-14.29-4.3-16.45-6.18-4.69-4.08-14.81-12.05-18.78-15.08C242.45,227.2,238.81,233.18,239.41,237Z" style="fill:#407BFF"></path><path d="M239.41,237c.4,2.57-.24,12.08,7,16.9,2.47,1.65,13.19,35.44,18.54,36l13.54-15.81s5.59-9.76,8.53-16.66c2.37-5.55-1-7.22-1-7.22l-5,.76-.36-.18c-4.22-1.73-14.29-4.3-16.45-6.18-4.69-4.08-14.81-12.05-18.78-15.08C242.45,227.2,238.81,233.18,239.41,237Z" style="fill:#fff;opacity:0.5"></path><path d="M246.41,242.14c.88.34,7.06,27.92,7.06,27.92s-5-15-9-19.11S246.41,242.14,246.41,242.14Z" style="opacity:0.2"></path><path d="M240.52,268.71c2.35.23,3.09-1.11,3.09-1.11-1.35-9.2,2.57-12.53,4.25-14.81,1.95-2.63,3.4-5.08,1.57-8.29-3-5.32-1.14-13.36-1.26-13.76,0,0-2.76-1.94-2.77-1.94-3.69-1.3-13-2.78-17.16-3-3.9-.28-8.29.67-11.76,1.32-1.36,2.94.33,4.43.33,4.45a60.86,60.86,0,0,1,.35,9.32v.06a72,72,0,0,1-.85,11.65h0a21.36,21.36,0,0,1-1,4C214,264,232.46,268,240.52,268.71Z" style="fill:#407BFF"></path><path d="M240.52,268.71c2.35.23,3.09-1.11,3.09-1.11-1.35-9.2,2.57-12.53,4.25-14.81,1.95-2.63,3.4-5.08,1.57-8.29-3-5.32-1.14-13.36-1.26-13.76,0,0-2.76-1.94-2.77-1.94-3.69-1.3-13-2.78-17.16-3-3.9-.28-8.29.67-11.76,1.32-1.36,2.94.33,4.43.33,4.45a60.86,60.86,0,0,1,.35,9.32v.06a72,72,0,0,1-.85,11.65h0a21.36,21.36,0,0,1-1,4C214,264,232.46,268,240.52,268.71Z" style="fill:#fff;opacity:0.5"></path><path d="M231.24,213.3c.26,4.09.09,11.49-3.05,13.79l8.91,13.37,3.47-11.75c-4.28-1.65-2.38-5.9-2.27-10.37Z" style="fill:#ff8b7b"></path><path d="M231.24,213.31c.21,3.28.14,8.71-1.56,11.91,2.42-.1,6.15-1.38,7-3.33a26.62,26.62,0,0,0,.78-4.15Z" style="opacity:0.2;isolation:isolate"></path><path d="M237.1,240.46c.18.31,6.73,18.61,6.73,18.61s-.23,4.15-.34,5.95-6.05-20.3-14-28.82-8.41-9.86-8.41-9.86l4.59-.79S229.81,228.35,237.1,240.46Z" style="fill:#407BFF"></path><path d="M240.57,228.71l-3.47,11.75s.67,1.8,1.23,3,4.6-10.54,5.27-13,0-2.57,0-2.57l-2.69-1Z" style="fill:#407BFF"></path><path d="M230.37,229.25c.55,2,.36,2.62.92,4.61s.23,4.51-1.56,5.53c1.33-1.52.49-4-.91-5.42s-3.29-2.4-4.48-4c-1.83-2.48-1.62-5.86-1.2-8.91a97.06,97.06,0,0,1,3.46-15.44,12.13,12.13,0,0,1,2.29-4.65,4.45,4.45,0,0,1,4.7-1.41c2.46,1,2.82,4.28,2.53,6.9a41.69,41.69,0,0,1-3.28,12.26C231.38,222,229.26,225.22,230.37,229.25Z" style="fill:#263238"></path><path d="M246.52,216.92s-10.09,3.14-9,8.07,3.59,2.47,5.83,7.4c2.73,6,.22,7.85.22,7.85s3.59-.67,3.81-5.16-3.13-6.73-2-11.44A33.58,33.58,0,0,0,246.52,216.92Z" style="fill:#263238"></path><path d="M247.07,210.56c-2,6.43-2.67,9.19-6.77,11.74-6.17,3.84-13.63,0-13.62-6.86,0-6.2,3.23-15.67,10.24-16.73a9.18,9.18,0,0,1,10.15,11.85Z" style="fill:#ff8b7b"></path><path d="M247.54,214.55c-11.16.12-6.87-10.62-16.83-14.59,5.94-3.44,12.89-3.8,15.77-1.65C255.49,205,247.54,214.55,247.54,214.55Z" style="fill:#263238"></path><path d="M247.91,217.37a4.9,4.9,0,0,1-3.43,1.55c-1.71,0-2.16-1.6-1.33-3s2.55-2.79,4.1-2.2a2.22,2.22,0,0,1,1.18,2.9A2.3,2.3,0,0,1,247.91,217.37Z" style="fill:#ff8b7b"></path><path d="M236.74,210c-.13.53-.52.88-.86.81s-.53-.58-.4-1.11.51-.88.86-.81S236.86,209.48,236.74,210Z" style="fill:#263238"></path><path d="M230.74,208.56c-.14.53-.52.88-.87.81s-.52-.58-.39-1.12.51-.88.86-.81S230.89,208,230.74,208.56Z" style="fill:#263238"></path><path d="M230.48,207.51l-1.18-.64S229.71,208,230.48,207.51Z" style="fill:#263238"></path><path d="M232.1,209.86a14.77,14.77,0,0,1-2.71,2.93,2.37,2.37,0,0,0,1.81.8Z" style="fill:#de5753"></path><path d="M232.67,215.82a4.77,4.77,0,0,1-1,.08.14.14,0,0,1-.14-.14h0a.15.15,0,0,1,.14-.13,4.37,4.37,0,0,0,3.59-1.63.13.13,0,0,1,.17-.07.13.13,0,0,1,.07.16v0A4.39,4.39,0,0,1,232.67,215.82Z" style="fill:#263238"></path><path d="M238,206.68a.21.21,0,0,1-.18-.13,2.21,2.21,0,0,0-1.55-1.32.25.25,0,0,1-.2-.27c0-.14.1-.24.22-.22h0a2.63,2.63,0,0,1,1.89,1.58.26.26,0,0,1-.07.33A.2.2,0,0,1,238,206.68Z" style="fill:#263238"></path><path d="M229.19,204.38a.26.26,0,0,1-.24-.11.27.27,0,0,1,.05-.37h0a3.13,3.13,0,0,1,2.83-.53.25.25,0,0,1,.16.32v0a.27.27,0,0,1-.34.16h0a2.61,2.61,0,0,0-2.32.45A.31.31,0,0,1,229.19,204.38Z" style="fill:#263238"></path><path d="M236.48,209l-1.18-.64S235.71,209.44,236.48,209Z" style="fill:#263238"></path></g><path d="M216.3,254.42c0,1.77,5.86-15.91,6-17.91h-4.56c.31.16-.15,1.33-.63,4.36v.06a72,72,0,0,1-.85,11.65h0C216.3,253.18,216.29,253.79,216.3,254.42Z" style="opacity:0.2"></path><path d="M172.18,254.25s2.92,20.52,17.72,26.58c4.94,2,23.32-27.07,28.76-33s5.72-20.51,1.41-21.26c-4.77-.83-11.9,9.83-29.84,15.85-3.37,1.13-8.29,2.21-12.1,3.58C168.63,248.6,172.18,254.25,172.18,254.25Z" style="fill:#407BFF"></path><g style="opacity:0.5"><path d="M172.18,254.25s2.92,20.52,17.72,26.58c4.94,2,23.32-27.07,28.76-33s5.72-20.51,1.41-21.26c-4.77-.83-11.9,9.83-29.84,15.85-3.37,1.13-8.29,2.21-12.1,3.58C168.63,248.6,172.18,254.25,172.18,254.25Z" style="fill:#fff"></path></g><path d="M174.64,251.36s2.69-.17,9.08,18c4.95,14.07-6.38-5.46-10.43-13.45-1.17-2.33.51-2.86.51-2.86Z" style="opacity:0.2"></path><path d="M178.43,256.27h-.08l-4.7-.33a2.63,2.63,0,0,1-.3.09,6.09,6.09,0,0,1-.79.19,25.16,25.16,0,0,1-9-.48c-4.68-1.07-4.37-6.41-4.37-6.41l3.75.35,5.62-1.78,3.47,1.94,2.73,1.53C177,252,178.43,256.27,178.43,256.27Z" style="fill:#ff8b7b"></path></g><g id="freepik--character-2--inject-20"><g id="freepik--Character--inject-2--inject-20"><path d="M113.26,220c.74,1.23,1.43,2.35,2.15,3.47s1.48,2.21,2.24,3.3c1.54,2.17,3.15,4.31,4.88,6.37s6.92,4.64,9.24,6.27l.48.35.26.12c2.36,1,4.54,1.75,6.74,2.48s4.41,1.38,6.62,2,4.42,1.21,6.64,1.76,5.15,1.11,7.41,1.56l4-3.62c-4.07-2-11.24-5.14-15.35-7l-6.15-2.77c-2-.92-4.06-1.89-5.82-2.81l.75.46a48.78,48.78,0,0,1-4.94-4.81c-1.59-1.77-3.15-3.6-4.62-5.56s-.18,1.25-1.57-.78c-.73-1-1.41-2-2.08-3.06s-1.38-2.08-2-3Z" style="fill:#ffb573"></path><path d="M127.06,238.74l8.62-12C121.91,212.88,116,211,115.5,215.66,113.87,229.77,127.06,238.74,127.06,238.74Z" style="fill:#407BFF"></path><path d="M160.05,246.24c-1.3,4.56,3.84,8.18,3.84,8.18l4.24-6.23-4.47-4.12Z" style="fill:#ffb573"></path><polygon points="168.13 248.19 163.89 254.42 167.84 258.87 171.07 254.57 168.13 248.19" style="fill:#ffb573"></polygon><path d="M85.73,238.36A153.55,153.55,0,0,0,90,269.94l17.85,4.88c12.23,3.33,18.54,2.56,14.27-19.5-2-10.92-1.61-16.82-.72-21.56h0c.1-.49.2-1,.3-1.45.57-2.61,1.23-4.94,1.59-7.77.08-.57.14-1.14.19-1.76a11,11,0,0,0-5.19-10.1,8,8,0,0,0-1.2-.63,3.43,3.43,0,0,0-.48-.19l-.14-.08-1.58-.59c-3.82-1.42-8.28-3-12.64-4.39L101,206.4a10.25,10.25,0,0,0-1.57-.37,10.91,10.91,0,0,0-11.19,5.41h0a10,10,0,0,0-.54,1.09c-.12.28-.22.57-.32.85a10,10,0,0,0-.42,1.72q-.09.55-.15,1.11-.46,3.12-.72,6.2L86,224c-.29,3.72-.38,7.39-.35,10.91a2,2,0,0,0,0,.35C85.67,236.3,85.7,237.34,85.73,238.36Z" style="fill:#407BFF"></path><path d="M115.84,201.88c-1.63,3.63-2.75,8.3,2.22,11.18,1.07,2.6,1.37,5.19-4.16,3.34A17.68,17.68,0,0,1,103.57,208c3.9-2.38,4.84-11.61,4.86-16.9Z" style="fill:#ffb573"></path><path d="M111.22,204a4.84,4.84,0,0,0,3.45,1.49,17,17,0,0,1,.67-2.73l-5.06-5.84a13.36,13.36,0,0,0-.58,1.86A5.46,5.46,0,0,0,111.22,204Z" style="opacity:0.2;isolation:isolate"></path><path d="M131.06,184.37c3.19,3.87,1.33,4.71-.8,6.17s-3.41,4.94-3.41,4.94l-2.44-1.74C122.25,181.39,127.87,180.5,131.06,184.37Z" style="fill:#263238"></path><path d="M124.35,180.21c5.63,4.58,4,14.55,1.08,20a8.75,8.75,0,0,1-15.54-.05c-2.38-4.37-1.28-8.18,0-14.84A8.75,8.75,0,0,1,124.35,180.21Z" style="fill:#ffb573"></path><path d="M105.6,196.82a34,34,0,0,0,1.09,3.5,4.48,4.48,0,0,0,.72-1.41c.06.69.12,1.38.17,2.08a40.55,40.55,0,0,0,2.19-6.31c.49-1.67.85-2.9.87-2.5a13.91,13.91,0,0,1,2.54-8.61,25.78,25.78,0,0,0-1.29,5.12,7.22,7.22,0,0,1,1.93-2.73c1.21-.9,2.93-1,4.12-1.85a30.5,30.5,0,0,1-3.66,2.76c2.84-.32,9.31-2.15,10-3.87a11,11,0,0,1-4.76,7.79c2.13-.35,6-2.08,7.41-3.68,1.09-1.21,2.66-3.17,2.94-4.82.22-1.33-2.63-1.79-3.54-2.68-2.35-2.3-4.38-4-7.66-3.57-1.26.17-9,.14-10.12-1.39a6.37,6.37,0,0,0,3.9,4.07c-2.75.28-6.29,1.5-7.93,4.46C103.27,185.52,104.39,192.25,105.6,196.82Z" style="fill:#263238"></path><path d="M104.33,202.08a4.93,4.93,0,0,0,2.36-1.76,4.48,4.48,0,0,0,.72-1.41c.06.69.12,1.38.17,2.08s.09,1.2.14,1.8a14.92,14.92,0,0,0,2-8.11c0-.23,0-.45,0-.68l-.66-.42,0,.28c-.26.46-1,.39-1.43.17s-1-.52-1.51-.3a1.09,1.09,0,0,0-.58.85,4.79,4.79,0,0,0,0,1.07,9.14,9.14,0,0,1,0,1.17A20.81,20.81,0,0,1,104.33,202.08Z" style="fill:#263238"></path><path d="M107.76,187.49c1.91.32,2.88,3,2.92,4.74.11,2-1.27,3.35-3,2.25a6.11,6.11,0,0,1-2.59-3.67C104.66,189,105.84,187.18,107.76,187.49Z" style="fill:#ffb573"></path><path d="M121.5,197.31a2.82,2.82,0,0,0,2.39.49,18.88,18.88,0,0,1-.6-5Z" style="fill:#ed847e"></path><path d="M118.69,187.37a3.86,3.86,0,0,1,2.9-.23h0a.31.31,0,0,0,.39-.2.33.33,0,0,0-.2-.42,4.41,4.41,0,0,0-3.48.32h0a.32.32,0,0,0,0,.45.46.46,0,0,0,.12.12A.35.35,0,0,0,118.69,187.37Z" style="fill:#263238"></path><path d="M127.66,190.32h0a.31.31,0,0,0,.16-.41,3.36,3.36,0,0,0-2.15-2.09h0a.29.29,0,0,0-.34.25.33.33,0,0,0,.24.39,2.69,2.69,0,0,1,1.69,1.68.37.37,0,0,0,.23.21A.27.27,0,0,0,127.66,190.32Z" style="fill:#263238"></path><path d="M120.26,199.47a24.09,24.09,0,0,0-2.06,2.11,3.17,3.17,0,0,1-.36-.23c-1.63-1.06-2-2.2-1.81-3.15a4,4,0,0,1,1-2,7.58,7.58,0,0,0,2.65,2.88C120,199.33,120.26,199.47,120.26,199.47Z" style="fill:#263238"></path><path d="M119.71,199.09l-.31.31a.53.53,0,0,1-.67.06,5,5,0,0,1-2.14-2.38.51.51,0,0,1,.1-.41,3.6,3.6,0,0,1,.37-.46A7.58,7.58,0,0,0,119.71,199.09Z" style="fill:#fff"></path><path d="M117.84,201.35c-1.63-1.06-2-2.2-1.81-3.15a5.35,5.35,0,0,1,1.52,1.61A2.56,2.56,0,0,1,117.84,201.35Z" style="fill:#de5753"></path><path d="M126.24,192.59c.33.12.45.65.25,1.17s-.63.83-1,.7-.45-.65-.25-1.16S125.9,192.46,126.24,192.59Z" style="fill:#263238"></path><path d="M120.3,190.42c.34.12.45.65.26,1.17s-.64.83-1,.7-.45-.65-.26-1.17S120,190.29,120.3,190.42Z" style="fill:#263238"></path><path d="M85.66,235.24l0,1a2.19,2.19,0,0,0,2.16-.79,55.68,55.68,0,0,0,5.83-9.3,27.53,27.53,0,0,0,2.59-7.57c.44-2.95,0-5.56-2.16-7.21-.63-.49-2-2.8-6.69,2.06a10,10,0,0,0-.42,1.72q-.09.55-.15,1.11-.46,3.12-.72,6.2L86,224c-.29,3.72-.38,7.39-.35,10.91A2,2,0,0,0,85.66,235.24Z" style="opacity:0.2;isolation:isolate"></path></g><polygon points="70.32 393.16 76.52 395.93 82.47 380.7 76.27 377.93 70.32 393.16" style="fill:#ffb573"></polygon><path d="M76.77,395.35,71,390.14a.55.55,0,0,0-.72,0l-5.23,4.59a1.16,1.16,0,0,0-.06,1.6l.09.09c2,1.78,3.1,2.54,5.6,4.83,1.56,1.44,5.34,5.54,7.49,7.48s4.78-.61,4-1.61c-3.27-4.55-4.5-8.25-4.87-10.66A1.92,1.92,0,0,0,76.77,395.35Z" style="fill:#263238"></path><polygon points="76.27 377.93 82.47 380.7 78.78 390.25 72.58 387.48 76.27 377.93" style="opacity:0.2;isolation:isolate"></polygon><path d="M78.94,398.92a1,1,0,0,0,.54-.33.56.56,0,0,0,.16-.52c-.21-.87-2.51-1.7-2.77-1.8a.13.13,0,0,0-.14,0,.12.12,0,0,0,0,.15c.37.85,1.16,2.29,2,2.44A1,1,0,0,0,78.94,398.92Zm-1.84-2.24c.78.31,2.15.95,2.28,1.48a.25.25,0,0,1-.09.26.63.63,0,0,1-.57.25c-.48-.12-1.08-.85-1.63-2Z" style="fill:#407BFF"></path><path d="M78.94,396.71a1.51,1.51,0,0,0,.91-.42.57.57,0,0,0,0-.69.84.84,0,0,0-.57-.41c-1-.18-2.49,1.05-2.55,1.11a.11.11,0,0,0,0,.12.13.13,0,0,0,.08.12A4.77,4.77,0,0,0,78.94,396.71Zm0-1.24a1.09,1.09,0,0,1,.36,0,.52.52,0,0,1,.39.27.33.33,0,0,1,0,.38c-.34.41-1.77.44-2.53.24A4.85,4.85,0,0,1,78.89,395.47Z" style="fill:#407BFF"></path><polygon points="114.28 407.13 120.72 408.05 123.34 391.2 116.9 390.28 114.28 407.13" style="fill:#ffb573"></polygon><polygon points="123.34 391.21 121.99 399.89 115.44 399.66 116.9 390.29 123.34 391.21" style="opacity:0.2;isolation:isolate"></polygon><path d="M121.8,404.85l-7.8-2a.65.65,0,0,0-.75.34l-3.21,6a1.06,1.06,0,0,0,.38,1.42.81.81,0,0,0,.27.11c2.74.73,4,1,7.48,1.93,2.12.55,8.1,3.18,11.1,3.07s3.44-3.22,2.21-3.46c-5.48-1.06-7.45-4.66-8.7-6.69A1.69,1.69,0,0,0,121.8,404.85Z" style="fill:#263238"></path><path d="M125,407.1a2.5,2.5,0,0,0,1.62,0,1,1,0,0,0,.57-.66.47.47,0,0,0-.07-.47c-.59-.68-3.74-.05-4.1,0a.14.14,0,0,0-.11.12.13.13,0,0,0,.07.14A10.77,10.77,0,0,0,125,407.1Zm1.58-1.11a.54.54,0,0,1,.29.15.18.18,0,0,1,0,.2.71.71,0,0,1-.42.49c-.76.34-2.26-.27-3-.65a9.26,9.26,0,0,1,3.15-.16Z" style="fill:#407BFF"></path><path d="M122.92,406.28H123c.93-.15,3.06-1.18,3.15-1.95,0-.16-.06-.39-.42-.53-1.49-.61-2.82,2.16-2.9,2.29a.14.14,0,0,0,0,.14Zm2.59-2.27.11.05c.26.1.25.2.24.24,0,.49-1.61,1.38-2.65,1.64.35-.62,1.32-2.17,2.3-1.93Z" style="fill:#407BFF"></path><path d="M132.92,332c-1,20.65-7.54,63.12-7.54,63.12l-11.58,1.58s2.59-43.84,2.37-60.88c-.13-10.21-2-22.5-4.36-34.16-1.31,10.51-3.22,21.57-6,30.79-6.39,21.33-25.15,56-25.15,56l-7.46-5.86s10.24-35.79,15.22-50.09c10.22-29.29-1.68-50.06.46-63.18a8.85,8.85,0,0,1,2.77-5.1,10.86,10.86,0,0,1,3.21-1.86,21.41,21.41,0,0,1,10.6-1.35l7.65.9c4,.47,8.86,2.94,10.19,6.85C127.46,281.05,134.11,308.85,132.92,332Z" style="fill:#407BFF"></path><path d="M132.92,332c-1,20.65-7.54,63.12-7.54,63.12l-11.58,1.58s2.59-43.84,2.37-60.88c-.13-10.21-2-22.5-4.36-34.16-1.31,10.51-3.22,21.57-6,30.79-6.39,21.33-25.15,56-25.15,56l-7.46-5.86s10.24-35.79,15.22-50.09c10.22-29.29-1.68-50.06.46-63.18a8.85,8.85,0,0,1,2.77-5.1,10.86,10.86,0,0,1,3.21-1.86,21.41,21.41,0,0,1,10.6-1.35l7.65.9c4,.47,8.86,2.94,10.19,6.85C127.46,281.05,134.11,308.85,132.92,332Z" style="fill:#fff;opacity:0.5"></path><polygon points="127.34 397.25 112.78 397.24 113 391.47 128.26 392.05 127.34 397.25" style="fill:#407BFF"></polygon><path d="M110.58,275.83l-2.75,8.3c2.75,10.81,5,21.77,6.66,32.81C118.14,301,113,283.29,110.58,275.83Z" style="opacity:0.2;isolation:isolate"></path><polygon points="81.6 389.13 70.92 384.1 72.23 379.39 84.06 385.4 81.6 389.13" style="fill:#407BFF"></polygon><path d="M68.24,255.78c-4.64-.94-7.86,4.45-7.86,4.45L66.91,264l3.77-4.76Z" style="fill:#ffb573"></path><polygon points="66.91 263.98 60.38 260.23 56.24 264.51 60.77 267.4 66.91 263.98" style="fill:#ffb573"></polygon><path d="M66.77,255.76l3.9,3.68c1.7-4.22,4.28-11.6,5.82-15.84l2.29-6.34c.69-1.87,1.41-3.78,2.12-5.46a48.56,48.56,0,0,1,3.42-4.17q.41-.45.84-.9,1.19-1.24,2.43-2.46c.35-.35.7-.69,1.07-1,.55-.52,1.12-1,1.7-1.54,1.77-1.55,2.14-1.28,4-2.76l.25-.21c1-.8,2-1.56,2.89-2.3l0,0a3.75,3.75,0,0,0,.77-5.13l-1.57-2.22a3.93,3.93,0,0,0-5.56-.89l0,0c-1.06.81-2.1,1.64-3.12,2.48-1.62,1.36-1.83.95-3.37,2.4-.42.38-.81.76-1.22,1.16-.63.6-1.23,1.21-1.84,1.84-1.29,1.32-2.54,2.68-3.73,4.09a49.8,49.8,0,0,0-5,6.88l-.3.52-.12.26c-.83,2.43-1.39,4.66-1.95,6.91s-1,4.5-1.5,6.75-.88,4.5-1.25,6.76S67.05,253.47,66.77,255.76Z" style="fill:#ffb573"></path><path d="M87.64,228.11l-9.81-11.79c5.68-4.46,7.12-4,8.56-5.67,4.57-5.13,9.61-7,13.09-1.1C104.69,218.43,87.64,228.11,87.64,228.11Z" style="fill:#407BFF"></path></g></svg>