<?xml version="1.0"?>
<svg xmlns="http://www.w3.org/2000/svg" xmlns:xlink="http://www.w3.org/1999/xlink" xmlns:svgjs="http://svgjs.com/svgjs" version="1.1" width="512" height="512" x="0" y="0" viewBox="0 0 509.801 509.801" style="enable-background:new 0 0 512 512" xml:space="preserve"><g><g xmlns="http://www.w3.org/2000/svg"><path d="m435.142 74.659c-48.144-48.145-112.155-74.659-180.242-74.659s-132.097 26.514-180.241 74.659-74.659 112.155-74.659 180.241c0 44.48 11.633 88.272 33.641 126.643 2.062 3.594 6.646 4.835 10.237 2.774 3.593-2.061 4.835-6.645 2.774-10.237-20.707-36.102-31.652-77.314-31.652-119.18 0-64.08 24.954-124.324 70.265-169.635 45.312-45.311 105.556-70.265 169.635-70.265s124.324 24.954 169.635 70.265c45.311 45.312 70.265 105.556 70.265 169.635s-24.954 124.324-70.265 169.635c-45.312 45.311-105.556 70.265-169.635 70.265-38.141 0-74.601-8.687-108.367-25.819-32.209-16.342-60.822-40.227-82.744-69.072-2.506-3.297-7.211-3.939-10.509-1.433s-3.939 7.211-1.433 10.509c23.285 30.639 53.68 56.01 87.899 73.372 35.89 18.209 74.633 27.442 115.154 27.442 68.086 0 132.097-26.514 180.242-74.659s74.659-112.155 74.659-180.242-26.514-132.095-74.659-180.239z" fill="#4f46e5" data-original="#000000" style=""/><path d="m371.372 64.772c-34.859-21.439-75.134-32.772-116.472-32.772-59.538 0-115.514 23.186-157.614 65.286s-65.286 98.076-65.286 157.614 23.186 115.514 65.286 157.614 98.076 65.286 157.614 65.286 115.514-23.186 157.614-65.286 65.286-98.076 65.286-157.614-23.186-115.514-65.286-157.615c-4.463-4.463-9.253-8.855-14.237-13.056-3.168-2.67-7.899-2.265-10.568.901-2.669 3.167-2.266 7.899.901 10.568 4.66 3.927 9.134 8.03 13.298 12.193 39.267 39.268 60.893 91.476 60.893 147.008s-21.625 107.74-60.893 147.008c-39.268 39.267-91.476 60.893-147.008 60.893s-107.74-21.625-147.008-60.893c-39.267-39.266-60.892-91.475-60.892-147.007s21.625-107.74 60.893-147.008c39.267-39.267 91.476-60.892 147.007-60.892 38.562 0 76.119 10.563 108.613 30.549 3.528 2.171 8.148 1.069 10.317-2.459 2.171-3.528 1.07-8.148-2.458-10.318z" fill="#4f46e5" data-original="#000000" style=""/><path d="m367.904 141.897c-16.472-16.472-35.774-28.882-57.368-36.885-3.885-1.438-8.2.543-9.639 4.426-1.439 3.884.542 8.2 4.426 9.639 19.554 7.247 37.041 18.493 51.975 33.426 14.933 14.934 26.179 32.42 33.426 51.975 1.121 3.025 3.986 4.896 7.034 4.896.865 0 1.746-.151 2.605-.469 3.884-1.439 5.866-5.755 4.426-9.639-8.003-21.595-20.413-40.897-36.885-57.369z" fill="#4f46e5" data-original="#000000" style=""/><path d="m112.043 209.374c3.047 0 5.913-1.871 7.034-4.896 7.247-19.554 18.493-37.041 33.426-51.975 14.934-14.933 32.42-26.179 51.975-33.426 3.884-1.439 5.866-5.755 4.426-9.639s-5.754-5.866-9.639-4.426c-21.594 8.003-40.896 20.413-57.368 36.885s-28.882 35.774-36.885 57.368c-1.439 3.884.542 8.2 4.426 9.639.859.319 1.74.47 2.605.47z" fill="#4f46e5" data-original="#000000" style=""/><path d="m307.93 405.258c.865 0 1.746-.151 2.605-.469 21.594-8.003 40.896-20.413 57.368-36.885s28.882-35.774 36.885-57.368c1.439-3.884-.542-8.2-4.426-9.639-3.883-1.439-8.2.543-9.639 4.426-7.247 19.554-18.493 37.041-33.426 51.975-14.934 14.933-32.42 26.179-51.975 33.426-3.884 1.439-5.866 5.755-4.426 9.639 1.122 3.025 3.987 4.895 7.034 4.895z" fill="#4f46e5" data-original="#000000" style=""/><path d="m141.897 367.904c16.472 16.472 35.774 28.882 57.368 36.885.859.318 1.74.469 2.605.469 3.047 0 5.913-1.871 7.034-4.896 1.439-3.884-.542-8.2-4.426-9.639-19.554-7.247-37.041-18.493-51.975-33.426-14.933-14.934-26.179-32.42-33.426-51.975-1.44-3.884-5.754-5.867-9.639-4.426-3.884 1.439-5.866 5.755-4.426 9.639 8.003 21.595 20.413 40.897 36.885 57.369z" fill="#4f46e5" data-original="#000000" style=""/><path d="m244.723 130.919v-23.957l22.375 27.392c2.006 2.457 5.341 3.385 8.327 2.32 2.987-1.065 4.981-3.894 4.981-7.064v-43.684c0-4.142-3.358-7.5-7.5-7.5s-7.5 3.358-7.5 7.5v22.647l-22.375-27.392c-2.006-2.456-5.339-3.385-8.327-2.32-2.987 1.065-4.981 3.894-4.981 7.064v44.993c0 4.142 3.358 7.5 7.5 7.5s7.5-3.356 7.5-7.499z" fill="#4f46e5" data-original="#000000" style=""/><path d="m420.546 237.414c4.142 0 7.5-3.358 7.5-7.5s-3.358-7.5-7.5-7.5h-25.452c-5.675 0-10.292 4.617-10.292 10.292v44.39c0 5.675 4.617 10.292 10.292 10.292h25.452c4.142 0 7.5-3.358 7.5-7.5s-3.358-7.5-7.5-7.5h-20.744v-9.988h11.556c4.142 0 7.5-3.358 7.5-7.5s-3.358-7.5-7.5-7.5h-11.556v-9.986z" fill="#4f46e5" data-original="#000000" style=""/><path d="m96.754 256.11-3.043 3.97-5.598-24.336c-.928-4.037-4.958-6.557-8.99-5.628-4.037.929-6.557 4.954-5.628 8.99l9.168 39.858c.651 2.831 2.878 5.031 5.716 5.648 2.837.618 5.777-.461 7.545-2.766l6.782-8.846 6.781 8.845c1.437 1.875 3.649 2.938 5.952 2.938.529 0 1.063-.056 1.593-.171 2.838-.617 5.065-2.817 5.716-5.648l9.168-39.858c.929-4.037-1.591-8.062-5.628-8.99s-8.062 1.591-8.99 5.628l-5.598 24.335-3.042-3.969c-1.419-1.852-3.619-2.937-5.952-2.937-2.332 0-4.533 1.086-5.952 2.937z" fill="#4f46e5" data-original="#000000" style=""/><path d="m250.478 382.577h20.968c4.142 0 7.5-3.358 7.5-7.5s-3.358-7.5-7.5-7.5h-20.968c-9.302 0-16.869 7.567-16.869 16.869v6.738c0 9.302 7.567 16.869 16.869 16.869h11.599c1.031 0 1.869.838 1.869 1.869v8.373c0 1.031-.838 1.869-1.869 1.869h-20.968c-4.142 0-7.5 3.358-7.5 7.5s3.358 7.5 7.5 7.5h20.968c9.302 0 16.869-7.567 16.869-16.869v-8.373c0-9.302-7.567-16.869-16.869-16.869h-11.599c-1.031 0-1.869-.838-1.869-1.869v-6.738c0-1.031.838-1.869 1.869-1.869z" fill="#4f46e5" data-original="#000000" style=""/><path d="m322.006 316.468c3.871-4.121 4.863-10.11 2.526-15.259l-27.153-59.82c-1.713-3.772-6.159-5.44-9.93-3.729-3.771 1.712-5.441 6.158-3.729 9.93l26.045 57.38-49.757-18.941c-3.188-1.214-6.7-1.214-9.888 0l-49.929 19.007 54.275-121.897 15.685 34.557c1.712 3.771 6.157 5.439 9.93 3.729 3.771-1.712 5.441-6.158 3.729-9.93l-16.7-36.791c-2.285-5.033-7.128-8.153-12.651-8.153-.018 0-.036 0-.053 0-5.544.02-10.39 3.179-12.646 8.244l-56.353 126.562c-2.291 5.146-1.27 11.113 2.601 15.205 2.681 2.833 6.336 4.352 10.08 4.351 1.662 0 3.34-.299 4.959-.915l52.016-19.801 51.869 19.745c5.286 2.011 11.202.647 15.074-3.474z" fill="#4f46e5" data-original="#000000" style=""/></g></g></svg>
