<?xml version="1.0"?>
<svg xmlns="http://www.w3.org/2000/svg" xmlns:xlink="http://www.w3.org/1999/xlink" xmlns:svgjs="http://svgjs.com/svgjs" version="1.1" width="512" height="512" x="0" y="0" viewBox="0 0 512 512" style="enable-background:new 0 0 512 512" xml:space="preserve" class=""><g>
<g xmlns="http://www.w3.org/2000/svg">
	<g>
		<path d="M408.448,246.606l-57.572-21.166l6.655-60.01c0.335-3.019-0.72-6.026-2.868-8.173c-2.148-2.147-5.152-3.203-8.174-2.868    l-59.962,6.655l-21.139-57.498c-1.447-3.933-5.195-6.548-9.387-6.548c-4.192,0-7.939,2.615-9.386,6.549l-21.166,57.572    l-60.01-6.655c-3.02-0.338-6.026,0.72-8.173,2.868c-2.147,2.148-3.203,5.155-2.868,8.174l6.655,59.962l-57.498,21.139    c-3.935,1.446-6.549,5.194-6.549,9.386c0,4.192,2.615,7.939,6.549,9.386l57.572,21.166l-6.655,60.009    c-0.335,3.019,0.72,6.026,2.868,8.174c1.886,1.886,4.434,2.929,7.07,2.929c0.367,0,0.735-0.021,1.104-0.061l59.963-6.656    l21.139,57.498c1.446,3.936,5.194,6.55,9.386,6.55s7.939-2.614,9.386-6.55l21.166-57.572l60.009,6.656    c0.369,0.04,0.736,0.061,1.103,0.061c2.637,0,5.186-1.044,7.071-2.929c2.147-2.148,3.203-5.155,2.868-8.175l-6.655-59.962    l57.498-21.139c3.935-1.446,6.549-5.193,6.549-9.386C414.997,251.8,412.382,248.053,408.448,246.606z M336.275,175.646    l-4.734,42.687l-27.697-10.183l-10.21-27.771L336.275,175.646z M256.001,135.976l28.443,77.365L266,231.785v-27.456    c0-5.523-4.477-10-10-10c-5.523,0-10,4.477-10,10v27.456l-18.443-18.443L256.001,135.976z M218.341,180.453l-10.183,27.697    l-27.771,10.21l-4.733-42.641L218.341,180.453z M175.727,336.341l4.734-42.687l27.698,10.184l10.21,27.771L175.727,336.341z     M213.348,284.436l-77.364-28.443l77.365-28.443l18.443,18.443h-27.456c-5.523,0-10,4.477-10,10c0,5.522,4.477,10,10,10h27.455    L213.348,284.436z M256.001,376.01l-28.442-77.364l18.443-18.442v27.456c0,5.522,4.477,10,10,10c5.523,0,10-4.478,10-10v-27.456    l18.443,18.442L256.001,376.01z M293.661,331.533l10.182-27.696l27.772-10.211l4.733,42.642L293.661,331.533z M298.654,284.436    l-18.443-18.443h27.455c5.523,0,10-4.478,10-10c0-5.523-4.477-10-10-10H280.21l18.443-18.443l77.364,28.443L298.654,284.436z" fill="#4f46e5" data-original="#000000" style="" class=""/>
	</g>
</g>
<g xmlns="http://www.w3.org/2000/svg">
	<g>
		<path d="M288,0c-5.523,0-10,4.477-10,10v39.857L231.073,2.929c-2.861-2.859-7.161-3.715-10.898-2.167    c-3.737,1.548-6.173,5.194-6.173,9.239v63.998c-0.001,5.522,4.476,9.999,9.999,9.999s10-4.477,10-10V34.141l46.928,46.928    c1.914,1.913,4.471,2.929,7.074,2.929c1.288,0,2.587-0.25,3.824-0.762c3.737-1.548,6.173-5.194,6.173-9.239V10    C297.999,4.477,293.523,0,288,0z" fill="#4f46e5" data-original="#000000" style="" class=""/>
	</g>
</g>
<g xmlns="http://www.w3.org/2000/svg">
	<g>
		<path d="M261,460.001h-10c-3.309,0-6-2.691-6-6s2.691-6,6-6h13c5.523,0,10-4.478,10-10s-4.477-10-10-10h-13    c-14.336,0-25.999,11.663-25.999,25.999c0,14.337,11.664,25.999,25.999,25.999h10c3.309,0,6,2.691,6,6s-2.691,6-6,6h-16    c-5.523,0-10,4.478-10,10s4.477,10,10,10h16C275.336,512,287,500.337,287,486.001S275.337,460.001,261,460.001z" fill="#4f46e5" data-original="#000000" style="" class=""/>
	</g>
</g>
<g xmlns="http://www.w3.org/2000/svg">
	<g>
		<path d="M501.994,277.992h-24.999v-12h14.167c5.523,0,10-4.478,10-10c0-5.523-4.477-10-10-10h-14.167v-12h24.999    c5.523,0,10-4.477,10-10s-4.477-10-10-10h-34.999c-5.523,0-10,4.477-10,10v63.998c0,5.522,4.477,10,10,10h34.999    c5.523,0,10-4.478,10-10S507.517,277.992,501.994,277.992z" fill="#4f46e5" data-original="#000000" style="" class=""/>
	</g>
</g>
<g xmlns="http://www.w3.org/2000/svg">
	<g>
		<path d="M90.956,220.258c-5.186-1.905-10.93,0.751-12.836,5.935l-9.989,27.17l-9.989-27.17c-1.446-3.935-5.193-6.549-9.386-6.549    c-4.193,0-7.939,2.615-9.386,6.549l-9.989,27.17l-9.989-27.17c-1.905-5.184-7.652-7.839-12.836-5.935    c-5.184,1.906-7.841,7.653-5.935,12.836l19.375,52.7c1.445,3.935,5.192,6.55,9.384,6.55s7.939-2.615,9.386-6.55l9.989-27.17    l9.989,27.17c1.446,3.935,5.193,6.55,9.386,6.55c4.193,0,7.939-2.615,9.386-6.55l19.374-52.7    C98.797,227.91,96.14,222.163,90.956,220.258z" fill="#4f46e5" data-original="#000000" style="" class=""/>
	</g>
</g>
<g xmlns="http://www.w3.org/2000/svg">
	<g>
		<path d="M183.27,20.715c-1.844-5.206-7.56-7.929-12.765-6.087C92.853,42.134,32.862,105.767,10.027,184.846    c-1.532,5.306,1.527,10.85,6.833,12.382c0.927,0.268,1.86,0.395,2.779,0.395c4.34,0,8.338-2.849,9.603-7.228    C50.291,117.498,105.596,58.837,177.183,33.48C182.389,31.636,185.114,25.92,183.27,20.715z" fill="#4f46e5" data-original="#000000" style="" class=""/>
	</g>
</g>
<g xmlns="http://www.w3.org/2000/svg">
	<g>
		<path d="M148.607,466.192c-56.768-29.063-99.934-80.618-118.43-141.443c-1.607-5.283-7.191-8.266-12.477-6.658    c-5.284,1.606-8.265,7.192-6.658,12.477c20.063,65.984,66.881,121.906,128.45,153.428c1.459,0.747,3.015,1.101,4.549,1.101    c3.634,0,7.14-1.988,8.91-5.444C155.467,474.735,153.522,468.709,148.607,466.192z" fill="#4f46e5" data-original="#000000" style="" class=""/>
	</g>
</g>
<g xmlns="http://www.w3.org/2000/svg">
	<g>
		<path d="M490.716,330.521c-5.191-1.881-10.928,0.797-12.812,5.989c-25.022,68.946-81.743,123.103-151.727,144.869    c-5.274,1.641-8.219,7.245-6.579,12.519c1.333,4.285,5.282,7.033,9.546,7.033c0.983,0,1.984-0.146,2.973-0.454    c75.917-23.611,137.445-82.356,164.588-157.144C498.589,338.142,495.908,332.406,490.716,330.521z" fill="#4f46e5" data-original="#000000" style="" class=""/>
	</g>
</g>
<g xmlns="http://www.w3.org/2000/svg">
	<g>
		<path d="M498.894,174.94c-20.18-60.503-62.029-111.062-117.836-142.365c-4.816-2.702-10.912-0.986-13.614,3.83    c-2.701,4.816-0.987,10.912,3.83,13.613c51.459,28.864,90.044,75.477,108.647,131.25c1.397,4.189,5.298,6.839,9.485,6.839    c1.049,0,2.116-0.167,3.166-0.517C497.811,185.842,500.642,180.178,498.894,174.94z" fill="#4f46e5" data-original="#000000" style="" class=""/>
	</g>
</g>
<g xmlns="http://www.w3.org/2000/svg">
	<g>
		<path d="M337.045,13.097l-0.697-0.231c-5.243-1.733-10.901,1.113-12.633,6.357c-1.733,5.244,1.113,10.9,6.357,12.633l0.648,0.215    c1.049,0.349,2.116,0.516,3.164,0.516c4.186,0,8.088-2.65,9.486-6.841C345.116,20.506,342.285,14.844,337.045,13.097z" fill="#4f46e5" data-original="#000000" style="" class=""/>
	</g>
</g>
<g xmlns="http://www.w3.org/2000/svg">
	<g>
		<path d="M135.074,120.927c-1.86-1.86-4.44-2.93-7.07-2.93c-2.63,0-5.21,1.07-7.07,2.93s-2.93,4.44-2.93,7.07s1.07,5.21,2.93,7.07    c1.86,1.86,4.44,2.93,7.07,2.93c2.63,0,5.21-1.07,7.07-2.93c1.86-1.86,2.93-4.44,2.93-7.07S136.934,122.787,135.074,120.927z" fill="#4f46e5" data-original="#000000" style="" class=""/>
	</g>
</g>
<g xmlns="http://www.w3.org/2000/svg">
	<g>
		<path d="M391.067,376.92c-1.86-1.86-4.44-2.93-7.07-2.93s-5.21,1.07-7.07,2.93c-1.86,1.86-2.93,4.44-2.93,7.07    s1.07,5.21,2.93,7.069c1.86,1.86,4.44,2.931,7.07,2.931s5.21-1.07,7.07-2.931c1.86-1.859,2.93-4.439,2.93-7.069    C393.997,381.349,392.927,378.78,391.067,376.92z" fill="#4f46e5" data-original="#000000" style="" class=""/>
	</g>
</g>
<g xmlns="http://www.w3.org/2000/svg">
	<g>
		<path d="M391.067,120.927c-1.86-1.86-4.44-2.93-7.07-2.93s-5.21,1.07-7.07,2.93c-1.86,1.86-2.93,4.44-2.93,7.07    s1.07,5.21,2.93,7.07c1.86,1.86,4.44,2.93,7.07,2.93s5.21-1.07,7.07-2.93c1.86-1.86,2.93-4.44,2.93-7.07    S392.927,122.787,391.067,120.927z" fill="#4f46e5" data-original="#000000" style="" class=""/>
	</g>
</g>
<g xmlns="http://www.w3.org/2000/svg">
	<g>
		<path d="M135.074,376.921c-1.86-1.86-4.44-2.93-7.07-2.93c-2.63,0-5.21,1.069-7.07,2.93c-1.86,1.86-2.93,4.43-2.93,7.07    c0,2.63,1.07,5.21,2.93,7.069c1.86,1.86,4.44,2.931,7.07,2.931c2.63-0.001,5.21-1.071,7.07-2.931    c1.86-1.859,2.93-4.439,2.93-7.069S136.934,378.781,135.074,376.921z" fill="#4f46e5" data-original="#000000" style="" class=""/>
	</g>
</g>
<g xmlns="http://www.w3.org/2000/svg">
	<g>
		<circle cx="182.855" cy="491.107" r="10" fill="#4f46e5" data-original="#000000" style="" class=""/>
	</g>
</g>
<g xmlns="http://www.w3.org/2000/svg">
</g>
<g xmlns="http://www.w3.org/2000/svg">
</g>
<g xmlns="http://www.w3.org/2000/svg">
</g>
<g xmlns="http://www.w3.org/2000/svg">
</g>
<g xmlns="http://www.w3.org/2000/svg">
</g>
<g xmlns="http://www.w3.org/2000/svg">
</g>
<g xmlns="http://www.w3.org/2000/svg">
</g>
<g xmlns="http://www.w3.org/2000/svg">
</g>
<g xmlns="http://www.w3.org/2000/svg">
</g>
<g xmlns="http://www.w3.org/2000/svg">
</g>
<g xmlns="http://www.w3.org/2000/svg">
</g>
<g xmlns="http://www.w3.org/2000/svg">
</g>
<g xmlns="http://www.w3.org/2000/svg">
</g>
<g xmlns="http://www.w3.org/2000/svg">
</g>
<g xmlns="http://www.w3.org/2000/svg">
</g>
</g></svg>
